<?xml version="1.0" encoding="utf-8"?>
<!-- Generator: Adobe Illustrator 24.1.2, SVG Export Plug-In . SVG Version: 6.00 Build 0)  -->
<svg version="1.1" id="Layer_1" xmlns="http://www.w3.org/2000/svg" xmlns:xlink="http://www.w3.org/1999/xlink" x="0px" y="0px"
	 viewBox="0 0 141 138.8" style="enable-background:new 0 0 141 138.8;" xml:space="preserve">
<style type="text/css">
	.st0{fill:#99D3CB;}
	.st1{fill:#FFF9EF;}
	.st2{fill:#6FCACD;}
	.st3{fill:#DAECCD;}
	.st4{fill:#871C1C;}
	.st5{fill:#505050;}
</style>
<g>
	<path class="st0" d="M85.1,7.3c0-2.3-1.7-4.1-3.8-4.1h-0.8c-2.1,0-3.8,1.8-3.8,4.1v6.5h8.4L85.1,7.3L85.1,7.3z"/>
	<path class="st1" d="M80.5,24.5h0.8c2.1,0,3.8-1.8,3.8-4.1v-6.5h-8.4v6.5C76.7,22.6,78.4,24.5,80.5,24.5z"/>
	<path class="st2" d="M83.6,13.8h1.5V7.3c0-2.3-1.7-4.1-3.8-4.1h-0.8c-1.3,0-2.5,0.7-3.2,1.8c0.4-0.2,0.8-0.3,1.3-0.3
		C81.4,4.7,83.6,8.7,83.6,13.8z"/>
	<path class="st3" d="M83.6,13.8c0,5.1-2.3,9.1-5.1,9.1c-0.4,0-0.9-0.1-1.3-0.3c0.7,1.1,1.9,1.8,3.2,1.8h0.9c2.1,0,3.8-1.8,3.8-4.1
		v-6.5L83.6,13.8L83.6,13.8z"/>
	<path class="st4" d="M80.8,2.5h0.8C84,2.5,86,4.6,86,7.2v13.2c0,2.6-2,4.7-4.4,4.7h-0.8c-2.4,0-4.4-2.1-4.4-4.7V7.2
		C76.4,4.7,78.4,2.5,80.8,2.5z M81.6,23.9c1.8,0,3.2-1.6,3.2-3.5V7.3c0-1.9-1.4-3.5-3.2-3.5h-0.8c-1.8,0-3.2,1.6-3.2,3.5v13.2
		c0,1.9,1.4,3.5,3.2,3.5h0.8V23.9z"/>
	<path class="st4" d="M77.3,13.2h8.1c0.3,0,0.6,0.3,0.6,0.6s-0.3,0.6-0.6,0.6h-8.1c-0.3,0-0.6-0.3-0.6-0.6S77,13.2,77.3,13.2z"/>
</g>
<g>
	<path class="st0" d="M36.8,7.3c0-2.3-1.7-4.1-3.8-4.1h-0.8c-2.1,0-3.8,1.8-3.8,4.1v6.5h8.4L36.8,7.3L36.8,7.3z"/>
	<path class="st1" d="M32.2,24.5H33c2.1,0,3.8-1.8,3.8-4.1v-6.5h-8.4v6.5C28.4,22.6,30.1,24.5,32.2,24.5z"/>
	<path class="st2" d="M35.3,13.8h1.5V7.3c0-2.3-1.7-4.1-3.8-4.1h-0.8c-1.3,0-2.5,0.7-3.2,1.8c0.4-0.2,0.8-0.3,1.3-0.3
		C33.1,4.7,35.3,8.7,35.3,13.8z"/>
	<path class="st3" d="M35.3,13.8c0,5.1-2.3,9.1-5.1,9.1c-0.4,0-0.9-0.1-1.3-0.3c0.7,1.1,1.9,1.8,3.2,1.8H33c2.1,0,3.8-1.8,3.8-4.1
		v-6.5L35.3,13.8L35.3,13.8z"/>
	<path class="st4" d="M32.5,2.5h0.8c2.5,0,4.5,2.2,4.5,4.8v13.2c0,2.6-2,4.7-4.4,4.7h-0.8c-2.4,0-4.4-2.1-4.4-4.7V7.3
		C28.1,4.7,30.1,2.5,32.5,2.5z M33.4,23.9c1.8,0,3.2-1.6,3.2-3.5V7.3c0-1.9-1.4-3.5-3.2-3.5h-0.8c-1.8,0-3.2,1.6-3.2,3.5v13.2
		c0,1.9,1.4,3.5,3.2,3.5h0.8V23.9z"/>
	<path class="st4" d="M29,13.2h8.1c0.3,0,0.6,0.3,0.6,0.6s-0.3,0.6-0.6,0.6H29c-0.3,0-0.6-0.3-0.6-0.6S28.7,13.2,29,13.2z"/>
</g>
<g>
	<path class="st0" d="M133.3,7.3c0-2.3-1.7-4.1-3.8-4.1h-0.8c-2.1,0-3.8,1.8-3.8,4.1v6.5h8.4L133.3,7.3L133.3,7.3z"/>
	<path class="st1" d="M128.8,24.5h0.8c2.1,0,3.8-1.8,3.8-4.1v-6.5H125v6.5C125,22.6,126.7,24.5,128.8,24.5z"/>
	<path class="st2" d="M131.9,13.8h1.5V7.3c0-2.3-1.7-4.1-3.8-4.1h-0.8c-1.3,0-2.5,0.7-3.2,1.8c0.4-0.2,0.8-0.3,1.3-0.3
		C129.6,4.7,131.9,8.7,131.9,13.8z"/>
	<path class="st3" d="M131.9,13.8c0,5.1-2.3,9.1-5.1,9.1c-0.4,0-0.9-0.1-1.3-0.3c0.7,1.1,1.9,1.8,3.2,1.8h0.8c2.1,0,3.8-1.8,3.8-4.1
		v-6.5L131.9,13.8L131.9,13.8z"/>
	<path class="st4" d="M129.1,2.5h0.8c2.4,0,4.4,2.1,4.4,4.7v13.2c0,2.6-2,4.7-4.4,4.7h-0.8c-2.4,0-4.4-2.1-4.4-4.7V7.2
		C124.7,4.7,126.7,2.5,129.1,2.5z M129.9,23.9c1.8,0,3.2-1.6,3.2-3.5V7.3c0-1.9-1.4-3.5-3.2-3.5h-0.8c-1.8,0-3.2,1.6-3.2,3.5v13.2
		c0,1.9,1.4,3.5,3.2,3.5h0.8V23.9z"/>
	<path class="st4" d="M125.6,13.2h8.1c0.3,0,0.6,0.3,0.6,0.6s-0.3,0.6-0.6,0.6h-8.1c-0.3,0-0.6-0.3-0.6-0.6S125.3,13.2,125.6,13.2z"
		/>
</g>
<g>
	<path class="st0" d="M60.9,7.3c0-2.3-1.7-4.1-3.8-4.1h-0.8c-2.1,0-3.8,1.8-3.8,4.1v6.5H61L60.9,7.3L60.9,7.3z"/>
	<path class="st1" d="M56.3,24.5h0.8c2.1,0,3.8-1.8,3.8-4.1v-6.5h-8.4v6.5C52.5,22.6,54.2,24.5,56.3,24.5z"/>
	<path class="st2" d="M59.4,13.8h1.5V7.3c0-2.3-1.7-4.1-3.8-4.1h-0.8c-1.3,0-2.5,0.7-3.2,1.8c0.4-0.2,0.8-0.3,1.3-0.3
		C57.3,4.7,59.4,8.7,59.4,13.8z"/>
	<path class="st3" d="M59.4,13.8c0,5.1-2.3,9.1-5.1,9.1c-0.4,0-0.9-0.1-1.3-0.3c0.7,1.1,1.9,1.8,3.2,1.8H57c2.1,0,3.8-1.8,3.8-4.1
		v-6.5L59.4,13.8L59.4,13.8z"/>
	<path class="st4" d="M56.7,2.5h0.8c2.4,0,4.4,2.1,4.4,4.7v13.2c0,2.6-2,4.7-4.4,4.7h-0.8c-2.4,0-4.4-2.1-4.4-4.7V7.2
		C52.3,4.7,54.2,2.5,56.7,2.5z M57.5,23.9c1.8,0,3.2-1.6,3.2-3.5V7.3c0-1.9-1.4-3.5-3.2-3.5h-0.8c-1.8,0-3.2,1.6-3.2,3.5v13.2
		c0,1.9,1.4,3.5,3.2,3.5h0.8V23.9z"/>
	<path class="st4" d="M53.2,13.2h8.1c0.3,0,0.6,0.3,0.6,0.6s-0.3,0.6-0.6,0.6h-8.1c-0.3,0-0.6-0.3-0.6-0.6S52.8,13.2,53.2,13.2z"/>
</g>
<g>
	<path class="st0" d="M109.2,7.3c0-2.3-1.7-4.1-3.8-4.1h-0.8c-2.1,0-3.8,1.8-3.8,4.1v6.5h8.4L109.2,7.3L109.2,7.3z"/>
	<path class="st1" d="M104.6,24.5h0.8c2.1,0,3.8-1.8,3.8-4.1v-6.5h-8.4v6.5C100.8,22.6,102.5,24.5,104.6,24.5z"/>
	<path class="st2" d="M107.7,13.8h1.5V7.3c0-2.3-1.7-4.1-3.8-4.1h-0.8c-1.3,0-2.5,0.7-3.2,1.8c0.4-0.2,0.8-0.3,1.3-0.3
		C105.6,4.7,107.7,8.7,107.7,13.8z"/>
	<path class="st3" d="M107.7,13.8c0,5.1-2.3,9.1-5.1,9.1c-0.4,0-0.9-0.1-1.3-0.3c0.7,1.1,1.9,1.8,3.2,1.8h0.8c2.1,0,3.8-1.8,3.8-4.1
		v-6.5L107.7,13.8L107.7,13.8z"/>
	<path class="st4" d="M105,2.5h0.8c2.4,0,4.4,2.1,4.4,4.7v13.2c0,2.6-2,4.7-4.4,4.7H105c-2.4,0-4.4-2.1-4.4-4.7V7.2
		C100.5,4.7,102.5,2.5,105,2.5z M105.7,23.9c1.8,0,3.2-1.6,3.2-3.5V7.3c0-1.9-1.4-3.5-3.2-3.5H105c-1.8,0-3.2,1.6-3.2,3.5v13.2
		c0,1.9,1.4,3.5,3.2,3.5h0.7V23.9z"/>
	<path class="st4" d="M101.5,13.2h8.1c0.3,0,0.6,0.3,0.6,0.6s-0.3,0.6-0.6,0.6h-8.1c-0.3,0-0.6-0.3-0.6-0.6S101.1,13.2,101.5,13.2z"
		/>
</g>
<g>
	<path class="st0" d="M12.6,7.3c0-2.3-1.7-4.1-3.8-4.1H8.1C6,3.2,4.2,5,4.2,7.3v6.5h8.4C12.6,13.8,12.6,7.3,12.6,7.3z"/>
	<path class="st1" d="M8.1,24.5h0.8c2.1,0,3.8-1.8,3.8-4.1v-6.5H4.2v6.5C4.2,22.6,6,24.5,8.1,24.5z"/>
	<path class="st2" d="M11.1,13.8h1.5V7.3c0-2.3-1.7-4.1-3.8-4.1H8.1C6.8,3.2,5.6,3.9,4.9,5c0.4-0.2,0.8-0.3,1.3-0.3
		C9,4.7,11.1,8.7,11.1,13.8z"/>
	<path class="st3" d="M11.1,13.8c0,5.1-2.3,9.1-5.1,9.1c-0.4,0-0.9-0.1-1.3-0.3c0.7,1.1,1.9,1.8,3.2,1.8h0.8c2.1,0,3.8-1.8,3.8-4.1
		v-6.5L11.1,13.8L11.1,13.8z"/>
	<path class="st4" d="M8.4,2.5h0.8c2.4,0,4.4,2.1,4.4,4.7v13.2c0,2.6-2,4.7-4.4,4.7H8.4C6,25.1,4,23,4,20.5V7.3C4,4.7,6,2.5,8.4,2.5
		z M9.2,23.9c1.8,0,3.2-1.6,3.2-3.5V7.3c0-1.9-1.4-3.5-3.2-3.5H8.4c-1.8,0-3.2,1.6-3.2,3.5v13.2c0,1.9,1.4,3.5,3.2,3.5h0.8V23.9z"/>
	<path class="st4" d="M4.9,13.2H13c0.3,0,0.6,0.3,0.6,0.6s-0.3,0.6-0.6,0.6H4.9c-0.3,0-0.6-0.3-0.6-0.6S4.6,13.2,4.9,13.2z"/>
</g>
<g>
	<path class="st0" d="M85.9,124.6c0-2.3-1.7-4.1-3.8-4.1h-0.8c-2.1,0-3.8,1.8-3.8,4.1v6.5H86L85.9,124.6L85.9,124.6z"/>
	<path class="st1" d="M81.3,141.8H82c2.1,0,3.8-1.8,3.8-4.1v-6.5h-8.4v6.5C77.5,140,79.2,141.8,81.3,141.8z"/>
	<path class="st2" d="M84.4,131.1h1.5v-6.5c0-2.3-1.7-4.1-3.8-4.1h-0.8c-1.3,0-2.5,0.7-3.2,1.8c0.4-0.2,0.8-0.3,1.3-0.3
		C82.1,122,84.4,126.1,84.4,131.1z"/>
	<path class="st3" d="M84.4,131.1c0,5.1-2.3,9.1-5.1,9.1c-0.4,0-0.9-0.1-1.3-0.3c0.7,1.1,1.9,1.8,3.2,1.8H82c2.1,0,3.8-1.8,3.8-4.1
		v-6.5H84.4L84.4,131.1z"/>
	<path class="st4" d="M81.6,119.8h0.8c2.4,0,4.4,2.1,4.4,4.7v13.2c0,2.6-2,4.7-4.4,4.7h-0.8c-2.4,0-4.4-2.1-4.4-4.7v-13.2
		C77.2,122,79.2,119.8,81.6,119.8z M82.4,141.1c1.8,0,3.2-1.6,3.2-3.5v-13.2c0-1.9-1.4-3.5-3.2-3.5h-0.8c-1.8,0-3.2,1.6-3.2,3.5
		v13.2c0,1.9,1.4,3.5,3.2,3.5H82.4z"/>
	<path class="st4" d="M78.2,130.5h8.1c0.3,0,0.6,0.3,0.6,0.6s-0.3,0.6-0.6,0.6h-8.1c-0.3,0-0.6-0.3-0.6-0.6
		C77.5,130.8,77.8,130.5,78.2,130.5z"/>
</g>
<g>
	<path class="st0" d="M37.6,124.6c0-2.3-1.7-4.1-3.8-4.1H33c-2.1,0-3.8,1.8-3.8,4.1v6.5h8.4V124.6L37.6,124.6z"/>
	<path class="st1" d="M33,141.8h0.8c2.1,0,3.8-1.8,3.8-4.1v-6.5h-8.4v6.5C29.2,140,30.9,141.8,33,141.8z"/>
	<path class="st2" d="M36.1,131.1h1.5v-6.5c0-2.3-1.7-4.1-3.8-4.1H33c-1.3,0-2.5,0.7-3.2,1.8c0.4-0.2,0.8-0.3,1.3-0.3
		C33.8,122,36.1,126.1,36.1,131.1z"/>
	<path class="st3" d="M36.1,131.1c0,5.1-2.3,9.1-5.1,9.1c-0.4,0-0.9-0.1-1.3-0.3c0.7,1.1,1.9,1.8,3.2,1.8h0.8c2.1,0,3.8-1.8,3.8-4.1
		v-6.5H36.1L36.1,131.1z"/>
	<path class="st4" d="M33.4,119.8h0.8c2.4,0,4.4,2.1,4.4,4.7v13.2c0,2.6-2,4.7-4.4,4.7h-0.8c-2.4,0-4.4-2.1-4.4-4.7v-13.2
		C28.9,122,30.9,119.8,33.4,119.8z M34.1,141.1c1.8,0,3.2-1.6,3.2-3.5v-13.2c0-1.9-1.4-3.5-3.2-3.5h-0.8c-1.8,0-3.2,1.6-3.2,3.5
		v13.2c0,1.9,1.4,3.5,3.2,3.5H34.1z"/>
	<path class="st4" d="M29.9,130.5H38c0.3,0,0.6,0.3,0.6,0.6s-0.3,0.6-0.6,0.6h-8.1c-0.3,0-0.6-0.3-0.6-0.6
		C29.2,130.8,29.5,130.5,29.9,130.5z"/>
</g>
<g>
	<path class="st0" d="M134.2,124.6c0-2.3-1.7-4.1-3.8-4.1h-0.8c-2.1,0-3.8,1.8-3.8,4.1v6.5h8.4L134.2,124.6L134.2,124.6z"/>
	<path class="st1" d="M129.6,141.8h0.8c2.1,0,3.8-1.8,3.8-4.1v-6.5h-8.4v6.5C125.8,140,127.5,141.8,129.6,141.8z"/>
	<path class="st2" d="M132.7,131.1h1.5v-6.5c0-2.3-1.7-4.1-3.8-4.1h-0.8c-1.3,0-2.5,0.7-3.2,1.8c0.4-0.2,0.8-0.3,1.3-0.3
		C130.4,122,132.7,126.1,132.7,131.1z"/>
	<path class="st3" d="M132.7,131.1c0,5.1-2.3,9.1-5.1,9.1c-0.4,0-0.9-0.1-1.3-0.3c0.7,1.1,1.9,1.8,3.2,1.8h0.8
		c2.1,0,3.8-1.8,3.8-4.1v-6.5H132.7L132.7,131.1z"/>
	<path class="st4" d="M129.8,119.8h0.8c2.4,0,4.4,2.1,4.4,4.7v13.2c0,2.6-2,4.7-4.4,4.7h-0.8c-2.4,0-4.4-2.1-4.4-4.7v-13.2
		C125.5,122,127.5,119.8,129.8,119.8z M130.7,141.1c1.8,0,3.2-1.6,3.2-3.5v-13.2c0-1.9-1.4-3.5-3.2-3.5h-0.8c-1.8,0-3.2,1.6-3.2,3.5
		v13.2c0,1.9,1.4,3.5,3.2,3.5H130.7z"/>
	<path class="st4" d="M126.4,130.5h8.1c0.3,0,0.6,0.3,0.6,0.6s-0.3,0.6-0.6,0.6h-8.1c-0.3,0-0.6-0.3-0.6-0.6
		S126.1,130.5,126.4,130.5z"/>
</g>
<g>
	<path class="st0" d="M61.7,124.6c0-2.3-1.7-4.1-3.8-4.1h-0.8c-2.1,0-3.8,1.8-3.8,4.1v6.5h8.4L61.7,124.6L61.7,124.6z"/>
	<path class="st1" d="M57.2,141.8H58c2.1,0,3.8-1.8,3.8-4.1v-6.5h-8.4v6.5C53.3,140,55.1,141.8,57.2,141.8z"/>
	<path class="st2" d="M60.2,131.1h1.5v-6.5c0-2.3-1.7-4.1-3.8-4.1h-0.8c-1.3,0-2.5,0.7-3.2,1.8c0.4-0.2,0.8-0.3,1.3-0.3
		C58,122,60.2,126.1,60.2,131.1z"/>
	<path class="st3" d="M60.2,131.1c0,5.1-2.3,9.1-5.1,9.1c-0.4,0-0.9-0.1-1.3-0.3c0.7,1.1,1.9,1.8,3.2,1.8h0.8c2.1,0,3.8-1.8,3.8-4.1
		v-6.5H60.2L60.2,131.1z"/>
	<path class="st4" d="M57.5,119.8h0.8c2.4,0,4.4,2.1,4.4,4.7v13.2c0,2.6-2,4.7-4.4,4.7h-0.8c-2.4,0-4.4-2.1-4.4-4.7v-13.2
		C53.1,122,55.1,119.8,57.5,119.8z M58.3,141.1c1.8,0,3.2-1.6,3.2-3.5v-13.2c0-1.9-1.4-3.5-3.2-3.5h-0.8c-1.8,0-3.2,1.6-3.2,3.5
		v13.2c0,1.9,1.4,3.5,3.2,3.5H58.3z"/>
	<path class="st4" d="M54,130.5h8.1c0.3,0,0.6,0.3,0.6,0.6s-0.3,0.6-0.6,0.6H54c-0.3,0-0.6-0.3-0.6-0.6S53.7,130.5,54,130.5z"/>
</g>
<g>
	<path class="st0" d="M110,124.6c0-2.3-1.7-4.1-3.8-4.1h-0.8c-2.1,0-3.8,1.8-3.8,4.1v6.5h8.4L110,124.6L110,124.6z"/>
	<path class="st1" d="M105.5,141.8h0.8c2.1,0,3.8-1.8,3.8-4.1v-6.5h-8.4v6.5C101.6,140,103.3,141.8,105.5,141.8z"/>
	<path class="st2" d="M108.5,131.1h1.5v-6.5c0-2.3-1.7-4.1-3.8-4.1h-0.8c-1.3,0-2.5,0.7-3.2,1.8c0.4-0.2,0.8-0.3,1.3-0.3
		C106.3,122,108.5,126.1,108.5,131.1z"/>
	<path class="st3" d="M108.5,131.1c0,5.1-2.3,9.1-5.1,9.1c-0.4,0-0.9-0.1-1.3-0.3c0.7,1.1,1.9,1.8,3.2,1.8h0.8
		c2.1,0,3.8-1.8,3.8-4.1v-6.5H108.5L108.5,131.1z"/>
	<path class="st4" d="M105.7,119.8h0.8c2.4,0,4.4,2.1,4.4,4.7v13.2c0,2.6-2,4.7-4.4,4.7h-0.8c-2.4,0-4.4-2.1-4.4-4.7v-13.2
		C101.4,122,103.3,119.8,105.7,119.8z M106.5,141.1c1.8,0,3.2-1.6,3.2-3.5v-13.2c0-1.9-1.4-3.5-3.2-3.5h-0.8c-1.8,0-3.2,1.6-3.2,3.5
		v13.2c0,1.9,1.4,3.5,3.2,3.5H106.5z"/>
	<path class="st4" d="M102.3,130.5h8.1c0.3,0,0.6,0.3,0.6,0.6s-0.3,0.6-0.6,0.6h-8.1c-0.3,0-0.6-0.3-0.6-0.6S102,130.5,102.3,130.5z
		"/>
</g>
<g>
	<path class="st0" d="M13.4,124.6c0-2.3-1.7-4.1-3.8-4.1H8.9c-2.1,0-3.8,1.8-3.8,4.1v6.5h8.4L13.4,124.6L13.4,124.6z"/>
	<path class="st1" d="M8.9,141.8h0.8c2.1,0,3.8-1.8,3.8-4.1v-6.5H5v6.5C5.1,140,6.8,141.8,8.9,141.8z"/>
	<path class="st2" d="M12,131.1h1.5v-6.5c0-2.3-1.7-4.1-3.8-4.1H8.9c-1.3,0-2.5,0.7-3.2,1.8c0.4-0.2,0.8-0.3,1.3-0.3
		C9.7,122,12,126.1,12,131.1z"/>
	<path class="st3" d="M12,131.1c0,5.1-2.3,9.1-5.1,9.1c-0.4,0-0.9-0.1-1.3-0.3c0.7,1.1,1.9,1.8,3.2,1.8h0.8c2.1,0,3.8-1.8,3.8-4.1
		v-6.5H12L12,131.1z"/>
	<path class="st4" d="M9.2,119.8H10c2.4,0,4.4,2.1,4.4,4.7v13.2c0,2.6-2,4.7-4.4,4.7H9.2c-2.4,0-4.4-2.1-4.4-4.7v-13.2
		C4.8,122,6.8,119.8,9.2,119.8z M10,141.1c1.8,0,3.2-1.6,3.2-3.5v-13.2c0-1.9-1.4-3.5-3.2-3.5H9.2c-1.8,0-3.2,1.6-3.2,3.5v13.2
		c0,1.9,1.4,3.5,3.2,3.5H10z"/>
	<path class="st4" d="M5.7,130.5h8.1c0.3,0,0.6,0.3,0.6,0.6s-0.3,0.6-0.6,0.6H5.7c-0.3,0-0.6-0.3-0.6-0.6S5.4,130.5,5.7,130.5z"/>
</g>
<g>
	<g>
		<path class="st5" d="M110.9,91.7H110c0-3.7-1.9-6.1-2.5-6.8l0.7-0.6C108.8,85,110.9,87.7,110.9,91.7z"/>
		<path class="st5" d="M113.5,89l-0.9-0.2c0.6-2.5,2-4.1,2.3-4.5l0.7,0.6C115.2,85.3,114,86.8,113.5,89z"/>
		<path class="st5" d="M110.4,98.7l-0.1-0.9c0.4,0,0.5-0.4,0.5-0.5c0-0.5-0.2-0.8-0.4-1l-0.2-0.2l0.1-0.2c0-0.1,0.1-0.3,0.1-0.4
			c0-0.9-0.8-1.6-1.8-1.6c-0.4,0-0.8,0.1-1.1,0.3l-0.5-0.8c0.5-0.3,1-0.5,1.6-0.5c1.5,0,2.7,1.1,2.7,2.5c0,0.1,0,0.3,0,0.4
			c0.3,0.4,0.5,0.9,0.5,1.4C111.8,98,111.3,98.7,110.4,98.7z"/>
		<path class="st5" d="M115.1,96.7c-1.9,0-3.3-1.6-3.3-3.6s1.5-3.6,3.4-3.6c0.4,0,0.8,0.1,1.2,0.2l-0.3,0.8
			c-0.3-0.1-0.6-0.2-0.9-0.2c-1.4,0-2.5,1.2-2.5,2.7s1.1,2.7,2.4,2.7L115.1,96.7z"/>
		<polygon class="st5" points="114.5,93.1 113.6,93.1 113.6,94 114.5,94 		"/>
		<path class="st5" d="M119,87.2c-0.6,0-1.1-0.1-1.7-0.3l0.3-0.9c0.4,0.2,0.9,0.2,1.4,0.2c2.2,0,4.1-1.8,4.1-4.1
			c0-2.2-1.8-4.1-4.1-4.1c-1.4,0-2.8,0.8-3.5,2l-0.8-0.5c0.9-1.5,2.5-2.5,4.3-2.5c2.7,0,5,2.2,5,5C124,84.9,121.7,87.2,119,87.2z"/>
		<path class="st5" d="M104.1,87.2c-2.7,0-5-2.2-5-5c0-2.7,2.2-5,5-5c1.8,0,3.4,1,4.3,2.5l-0.8,0.5c-0.7-1.3-2.1-2-3.5-2
			c-2.2,0-4.1,1.8-4.1,4.1c0,2.2,1.8,4.1,4.1,4.1c0.5,0,0.9-0.1,1.4-0.2l0.3,0.9C105.2,87.1,104.6,87.2,104.1,87.2z"/>
		<path class="st5" d="M105.2,84.8c-0.3-0.2-0.8-0.4-1.1-0.4c-1.5,0-2.7-1.1-2.7-2.5s1.4-2.5,3.2-2.5c1,0,1.9,0.4,2.6,1l-0.6,0.6
			c-0.4-0.4-1.2-0.7-1.9-0.7c-1.2,0-2.3,0.7-2.3,1.6s0.8,1.6,1.8,1.6c0.7,0,1.4,0.4,1.6,0.5L105.2,84.8z"/>
		<path class="st5" d="M103.4,87.1c-0.7-0.6-1.1-1.2-1.2-1.9c0-0.6,0.2-1.1,0.7-1.6l0.6,0.6c-0.2,0.2-0.5,0.5-0.4,0.9
			c0,0.4,0.3,0.8,0.8,1.2L103.4,87.1z"/>
		<path class="st5" d="M117.9,84.8l-0.5-0.8c0.2-0.1,0.9-0.5,1.6-0.5c1,0,1.8-0.7,1.8-1.6s-1-1.6-2.3-1.6c-0.7,0-1.5,0.3-1.9,0.7
			l-0.6-0.6c0.6-0.6,1.6-1,2.5-1c1.7,0,3.2,1.1,3.2,2.5s-1.2,2.5-2.7,2.5C118.6,84.5,118.2,84.7,117.9,84.8z"/>
		<path class="st5" d="M119.7,87.1l-0.6-0.7c0.5-0.4,0.8-0.8,0.8-1.2c0-0.4-0.2-0.7-0.4-0.9l0.6-0.6c0.5,0.5,0.7,1,0.7,1.6
			C120.8,85.8,120.4,86.5,119.7,87.1z"/>
		<path class="st5" d="M113.1,100.3h-0.9V98l0.3-0.1c1.7-0.6,2.9-2.4,2.9-4.6c0-0.7-0.1-1.3-0.3-1.9l-0.1-0.2l0.1-0.2
			c1.7-2.4,2.1-4.5,2.1-6.9c0-1.9-1.4-3.7-3.1-3.9c-1.8-0.2-3.4-0.2-5.1,0s-3.1,2-3.1,3.9c0,2.4,0.4,4.6,2.1,6.9l0.1,0.2l-0.1,0.2
			c-0.2,0.6-0.3,1.2-0.3,1.9c0,2.1,1.2,4,2.9,4.6l0.3,0.1v2.3H110v-1.7c-1.9-0.8-3.2-2.9-3.2-5.3c0-0.7,0.1-1.4,0.3-2
			c-1.8-2.5-2.1-4.7-2.1-7.3c0-2.4,1.7-4.5,3.9-4.8c1.8-0.3,3.5-0.3,5.4,0c2.2,0.3,3.9,2.4,3.9,4.8c0,2.6-0.4,4.8-2.1,7.3
			c0.2,0.6,0.3,1.3,0.3,2c0,2.4-1.3,4.5-3.2,5.3v1.7H113.1z"/>
		<polygon class="st5" points="108.6,74.5 107.7,74.5 107.7,75.4 108.6,75.4 		"/>
		<polygon class="st5" points="110.4,75.4 109.5,75.4 109.5,76.3 110.4,76.3 		"/>
		<polygon class="st5" points="111.3,77.2 110.4,77.2 110.4,78.1 111.3,78.1 		"/>
		<polygon class="st5" points="106.8,75.4 105.9,75.4 105.9,76.3 106.8,76.3 		"/>
		<polygon class="st5" points="120.8,89 119.9,89 119.9,89.9 120.8,89.9 		"/>
		<polygon class="st5" points="122.6,89.9 121.7,89.9 121.7,90.8 122.6,90.8 		"/>
		<polygon class="st5" points="118.1,91.7 117.2,91.7 117.2,92.6 118.1,92.6 		"/>
		<polygon class="st5" points="123.5,91.7 122.6,91.7 122.6,92.6 123.5,92.6 		"/>
		<polygon class="st5" points="120.8,94.4 119.9,94.4 119.9,95.3 120.8,95.3 		"/>
		<polygon class="st5" points="119,93.5 118.1,93.5 118.1,94.4 119,94.4 		"/>
		<polygon class="st5" points="122.6,93.5 121.7,93.5 121.7,94.4 122.6,94.4 		"/>
		<polygon class="st5" points="119,89.9 118.1,89.9 118.1,90.8 119,90.8 		"/>
		<polygon class="st5" points="105,95.8 104.1,95.8 104.1,96.7 105,96.7 		"/>
		<polygon class="st5" points="106.8,96.7 105.9,96.7 105.9,97.6 106.8,97.6 		"/>
		<polygon class="st5" points="104.1,94 103.2,94 103.2,94.9 104.1,94.9 		"/>
		<polygon class="st5" points="103.6,92.1 102.7,92.1 102.7,93.1 103.6,93.1 		"/>
		<polygon class="st5" points="105,88.5 104.1,88.5 104.1,89.4 105,89.4 		"/>
		<polygon class="st5" points="104.1,90.3 103.2,90.3 103.2,91.2 104.1,91.2 		"/>
		<path class="st5" d="M111.5,84c-1.6,0-2.9-0.8-3.5-1.2l0.5-0.7c0.5,0.4,1.6,1,3,1c1.3,0,2.5-0.7,3-1l0.5,0.7
			C114.4,83.2,113.1,84,111.5,84z"/>
	</g>
	<g>
		<path class="st5" d="M70.7,91c-0.6-0.7-2.1-1.2-3.7-1.7c-3.3-1.1-7.3-2.6-7.3-6.6c0-2.7,2.2-5,5-5h12.7c2.7,0,5,2.2,5,5
			c0,4-4.1,5.4-7.3,6.6c-0.4,0.1-0.8,0.3-1.1,0.4l-0.3-0.8c0.4-0.1,0.7-0.3,1.1-0.4c3.1-1.1,6.7-2.4,6.7-5.7c0-2.2-1.8-4.1-4.1-4.1
			H64.7c-2.2,0-4.1,1.8-4.1,4.1c0,3.4,3.6,4.6,6.7,5.7c1.7,0.6,3.2,1.1,4,2L70.7,91z"/>
		<path class="st5" d="M68.5,97c-1.8-0.9-2.9-2.6-2.9-4.4c0-1.5,0.8-3,2.1-3.9l0.5,0.7c-1.1,0.8-1.7,1.9-1.7,3.2
			c0,1.5,0.9,2.9,2.4,3.6L68.5,97z"/>
		<path class="st5" d="M66.8,95.3L66.8,95.3v-0.9l0,0c1,0,1.4-0.1,1.5-0.3c0,0,0.1-0.1,0.1-0.2c0-0.3-0.2-0.5-0.3-0.6L67.8,93
			l0.2-0.3c0.1-0.1,0.3-0.5,0.3-0.8c0-0.2,0-0.7-1.8-0.7v-0.9c0.7,0,2.8,0,2.8,1.6c0,0.4-0.2,0.8-0.3,1.1c0.1,0.2,0.3,0.6,0.3,0.9
			s-0.1,0.6-0.3,0.8C68.4,95.2,67.6,95.3,66.8,95.3z"/>
		<path class="st5" d="M75.6,98c-1.3,0-2.4-0.6-3.2-1.6l0.7-0.6c0.6,0.8,1.5,1.2,2.5,1.2c0.9,0,1.8-0.4,2.4-1.2l0.2-0.3l0.3,0.2
			c0.4,0.2,0.8,0.4,1.3,0.4c1.4,0,2.5-1.1,2.5-2.5c0-0.2,0-0.5-0.1-0.7v-0.1v-0.1c0.1-0.2,0.1-0.4,0.1-0.6c0-1.4-1.4-2.6-2.9-2.2
			L79.2,90L79,89.8c-0.5-0.7-1.4-1.2-2.2-1.3l0.1-0.9c1,0.1,2,0.6,2.7,1.4c0.2,0,0.4,0,0.5,0c1.7,0,3.2,1.4,3.2,3.2
			c0,0.3,0,0.5-0.1,0.8c0.1,0.3,0.1,0.5,0.1,0.8c0,1.9-1.5,3.4-3.4,3.4c-0.5,0-1-0.1-1.4-0.3C77.7,97.6,76.7,98,75.6,98z"/>
		<path class="st5" d="M79.2,94.9c-1,0-1.8-0.8-1.8-1.8s0.8-1.8,1.8-1.8s1.8,0.8,1.8,1.8C81,94,80.2,94.9,79.2,94.9z M79.2,92.1
			c-0.5,0-0.9,0.4-0.9,0.9s0.4,0.9,0.9,0.9s0.9-0.4,0.9-0.9C80.1,92.6,79.7,92.1,79.2,92.1z"/>
		<polygon class="st5" points="76.5,94.9 75.6,94.9 75.6,95.8 76.5,95.8 		"/>
		<polygon class="st5" points="76,91.7 75.1,91.7 75.1,92.6 76,92.6 		"/>
		<polygon class="st5" points="77.8,89.9 76.9,89.9 76.9,90.8 77.8,90.8 		"/>
		<path class="st5" d="M84.2,82.6h-0.9c0-2.6-1.7-4.8-4.1-5.6l0.3-0.9C82.3,77.1,84.2,79.7,84.2,82.6z"/>
		<path class="st5" d="M63.1,89.6c-3.5-1.7-5.1-3.9-5.1-6.9h0.9c0,2.7,1.5,4.6,4.6,6.1L63.1,89.6z"/>
		<rect x="59.7" y="96.7" class="st5" width="0.9" height="0.9"/>
		<path class="st5" d="M66.5,100.3h-5v-0.9h5c3.3,0,6.8-2.1,6.8-8.1v-3.5c0-0.8,0.5-1.4,1.2-1.7c3.1-1.1,4.7-1.9,4.7-3.4
			c0-1-0.8-1.8-1.8-1.8h-2.3V80h2.3c1.5,0,2.7,1.2,2.7,2.7c0,2.2-2.3,3.2-5.3,4.3c-0.4,0.1-0.6,0.5-0.6,0.9v3.5
			C74.2,97.9,70.2,100.3,66.5,100.3z"/>
		<rect x="73.3" y="79.9" class="st5" width="0.9" height="0.9"/>
		<path class="st5" d="M66.5,97.6h-5v-0.9h5c2.6,0,4.1-1.9,4.1-5.4v-2.5c0-0.4-0.2-0.7-0.5-0.8c-0.7-0.3-1.4-0.6-2.3-0.9
			c-3.5-1.2-5.8-2.2-5.8-4.5c0-1.5,1.2-2.7,2.7-2.7h7.7v0.9h-7.7c-1,0-1.8,0.8-1.8,1.8c0,1.6,2.1,2.5,5.2,3.6
			c0.8,0.3,1.6,0.6,2.3,0.9c0.6,0.3,1.1,0.9,1.1,1.6v2.5C71.5,97,68,97.6,66.5,97.6z"/>
	</g>
	<g>
		<path class="st5" d="M23.1,88c-1.2-1.2-1.8-2.8-1.8-4.4c0-3.5,2.8-6.3,6.3-6.3c1.7,0,3.3,0.7,4.5,1.9l-0.6,0.6
			c-1-1-2.4-1.6-3.8-1.6c-3,0-5.4,2.4-5.4,5.4c0,1.4,0.6,2.8,1.6,3.8L23.1,88z"/>
		<path class="st5" d="M35.3,92.1v-0.9c1.7,0,3.2-1.4,3.2-3.2v-0.5l0.4-0.1c1.4-0.4,2.4-1.6,2.4-3.1c0-0.3-0.1-0.7-0.2-1v-0.1v-0.1
			c0.1-0.3,0.2-0.7,0.2-1c0-1.7-1.4-3.2-3.2-3.2c-0.2,0-0.4,0-0.6,0.1h-0.2L37,79c-0.6-0.6-1.4-0.9-2.2-0.9c-1.7,0-3.2,1.4-3.2,3.2
			v0.5l-0.4,0.1c-1.2,0.3-2.2,1.6-2.2,3h-0.9c0-1.7,1.1-3.3,2.7-3.8c0.1-2.1,1.9-3.9,4.1-3.9c1,0,1.9,0.3,2.6,0.9c0.2,0,0.4,0,0.6,0
			c2.2,0,4.1,1.8,4.1,4.1c0,0.4-0.1,0.8-0.2,1.1c0.1,0.4,0.2,0.7,0.2,1.1c0,1.7-1.1,3.3-2.7,3.8C39.3,90.4,37.5,92.1,35.3,92.1z"/>
		<path class="st5" d="M33.7,101.2c-4.8,0-8.4-3.5-8.4-8.1c0-2.1,1.4-3,2.2-3.2l0.2,0.9l-0.1-0.4l0.1,0.4c-0.1,0-1.5,0.4-1.5,2.3
			c0,4.1,3.2,7.2,7.5,7.2c4.1,0,7.5-3.4,7.5-7.7c0-1.8-0.6-3.4-1.6-4.8l0.7-0.6c1.2,1.5,1.8,3.4,1.8,5.3
			C42.1,97.3,38.3,101.2,33.7,101.2z"/>
		<path class="st5" d="M20.8,101.2h-0.9v-9c0-2.4,1.5-5,4.1-5c2.4,0,3.2,2.1,3.2,3.2c0,0.2,0,0.4-0.1,0.7l-0.9-0.2
			c0-0.2,0-0.3,0-0.5c0-0.5-0.4-2.3-2.3-2.3c-2,0-3.2,2.1-3.2,4.1L20.8,101.2L20.8,101.2z"/>
		<path class="st5" d="M24.9,101.2H24v-3.6c0-3,1.7-3.6,1.8-3.6l0.3,0.9c0,0-1.2,0.4-1.2,2.7C24.9,97.6,24.9,101.2,24.9,101.2z"/>
		<rect x="21.7" y="91.7" class="st5" width="0.9" height="0.9"/>
		<rect x="21.7" y="93.5" class="st5" width="0.9" height="2.7"/>
		<path class="st5" d="M37.3,84.9c-1.1,0-2-0.9-2-2s0.9-2,2-2s2,0.9,2,2C39.4,84,38.5,84.9,37.3,84.9z M37.3,81.7
			c-0.6,0-1.1,0.5-1.1,1.1s0.5,1.1,1.1,1.1s1.1-0.5,1.1-1.1C38.5,82.2,38,81.7,37.3,81.7z"/>
		<path class="st5" d="M31.9,86.3c-0.9,0-1.6-0.7-1.6-1.6s0.7-1.6,1.6-1.6s1.6,0.7,1.6,1.6C33.5,85.6,32.8,86.3,31.9,86.3z M31.9,84
			c-0.4,0-0.7,0.3-0.7,0.7c0,0.4,0.3,0.7,0.7,0.7c0.4,0,0.7-0.3,0.7-0.7S32.3,84,31.9,84z"/>
		<path class="st5" d="M35.8,89c-0.5,0-0.9-0.4-0.9-0.9s0.4-0.9,0.9-0.9s0.9,0.4,0.9,0.9S36.3,89,35.8,89z M35.8,88.1L35.8,88.1
			L35.8,88.1z"/>
		<polygon class="st5" points="34,79.9 33,79.9 33,80.8 34,80.8 		"/>
		<polygon class="st5" points="34.4,81.7 33.5,81.7 33.5,82.6 34.4,82.6 		"/>
		<polygon class="st5" points="36.2,79.5 35.3,79.5 35.3,80.4 36.2,80.4 		"/>
		<polygon class="st5" points="33.5,87.2 32.6,87.2 32.6,88.1 33.5,88.1 		"/>
		<path class="st5" d="M33.7,99.4c-1.1,0-2.1-0.2-3-0.7l0.4-0.8c0.8,0.4,1.7,0.6,2.6,0.6c3.1,0,5.7-2.6,5.7-5.9h0.9
			C40.3,96.3,37.3,99.4,33.7,99.4z"/>
		<path class="st5" d="M20.6,87.7c-0.8-1.3-1.2-2.7-1.2-4.2s0.4-2.9,1.2-4.2l0.8,0.5c-0.7,1.1-1,2.4-1,3.7c0,1.3,0.4,2.6,1,3.7
			L20.6,87.7z"/>
	</g>
	<g>
		<path class="st5" d="M123.5,46c-3.3,0-5.1-0.3-6-0.5l0.2-0.9c0.8,0.2,2.5,0.5,5.7,0.5V46H123.5z"/>
		<path class="st5" d="M117,54.1c-1.2,0-2.3-0.7-2.7-1.8l0,0c-1.1,0-2-1-2-2.3c0-0.8,0.4-1.6,1-2l0.5,0.8c-0.4,0.2-0.6,0.7-0.6,1.2
			c0,0.8,0.6,1.5,1.3,1.3l0.4-0.1l0.1,0.4c0.2,0.9,1,1.5,2,1.5c0.8,0,1.5-0.4,1.8-1.1l0.1-0.3h0.3c1.4,0,2.5-1.2,2.5-2.7
			c0-0.5-0.1-1-0.4-1.5l-0.2-0.3l0.3-0.2c0.8-0.7,1.3-1.3,1.6-1.6c-0.6-1-3-4.8-7.2-6.7c-0.2-0.1-0.4-0.1-0.5,0.1
			c-0.5,0.5-1.8,1.7-3.5,1.7c-1.8,0-3.1-1.2-3.5-1.7c-0.1-0.1-0.3-0.2-0.5-0.1c-4.2,1.9-6.6,5.7-7.2,6.7c0.4,0.5,1.4,1.8,3.1,3.1
			l-0.6,0.7c-2.3-1.8-3.4-3.5-3.5-3.5l-0.1-0.2l0.1-0.2c0.1-0.2,2.7-5,7.7-7.3c0.5-0.2,1.1-0.2,1.5,0.2s1.5,1.4,2.9,1.4
			s2.5-1,2.9-1.4s1-0.5,1.5-0.2c5.1,2.4,7.6,7.1,7.7,7.3l0.1,0.3l-0.2,0.2c0,0-0.6,0.7-1.6,1.7c0.2,0.5,0.4,1,0.4,1.6
			c0,1.9-1.4,3.5-3.2,3.6C118.9,53.6,118,54.1,117,54.1z"/>
		<path class="st5" d="M105.9,56.9c-0.5,0-0.9-0.4-0.9-0.9s0.4-0.9,0.9-0.9s0.9,0.4,0.9,0.9S106.4,56.9,105.9,56.9z M105.9,56
			L105.9,56L105.9,56z"/>
		<path class="st5" d="M103.8,54.1c-0.9,0-1.6-0.7-1.6-1.6c0-0.9,0.7-1.6,1.6-1.6s1.6,0.7,1.6,1.6C105.4,53.4,104.7,54.1,103.8,54.1
			z M103.8,51.9c-0.4,0-0.7,0.3-0.7,0.7s0.3,0.7,0.7,0.7s0.7-0.3,0.7-0.7S104.2,51.9,103.8,51.9z"/>
		<polygon class="st5" points="107.7,51 106.8,51 106.8,51.9 107.7,51.9 		"/>
		<polygon class="st5" points="108.6,53.2 107.7,53.2 107.7,54.1 108.6,54.1 		"/>
		<polygon class="st5" points="103.2,55 102.3,55 102.3,56 103.2,56 		"/>
		<path class="st5" d="M117,51.9c-0.9,0-1.6-0.7-1.6-1.6c0-0.9,0.7-1.6,1.6-1.6s1.6,0.7,1.6,1.6C118.5,51.2,117.8,51.9,117,51.9z
			 M117,49.6c-0.4,0-0.7,0.3-0.7,0.7s0.3,0.7,0.7,0.7c0.4,0,0.7-0.3,0.7-0.7C117.6,49.9,117.3,49.6,117,49.6z"/>
		<polygon class="st5" points="119.5,47.4 118.5,47.4 118.5,48.3 119.5,48.3 		"/>
		<polygon class="st5" points="120.4,49.2 119.5,49.2 119.5,50.1 120.4,50.1 		"/>
		<rect x="114.9" y="56" class="st5" width="0.9" height="2.3"/>
		<rect x="118.8" y="55.1" transform="matrix(0.94 -0.3411 0.3411 0.94 -12.016 44.0478)" class="st5" width="0.9" height="2.2"/>
		
			<rect x="122.2" y="53.1" transform="matrix(0.7071 -0.7071 0.7071 0.7071 -2.3381 102.5404)" class="st5" width="0.9" height="2"/>
		<path class="st5" d="M105,59.1c-3,0-5.4-2.4-5.4-5.4s2.4-5.4,5.4-5.4c0.8,0,1.6,0.2,2.3,0.5l2.3-0.9c0.1,0,0.2-0.1,0.3-0.1
			c0.5,0,0.9,0.4,0.9,0.9c0,0.1,0,0.2-0.1,0.3l-0.9,2.3c0.3,0.7,0.5,1.5,0.5,2.3C110.4,56.7,108,59.1,105,59.1z M105,49.2
			c-2.5,0-4.5,2-4.5,4.5s2,4.5,4.5,4.5s4.5-2,4.5-4.5c0-0.7-0.2-1.5-0.5-2.1l-0.1-0.2l1.1-2.7l-2.7,1.1l-0.2-0.1
			C106.4,49.3,105.7,49.2,105,49.2z"/>
		<path class="st5" d="M111.8,45.5c-2.2,0-4.2-0.8-6-2.2l0.6-0.7c1.6,1.3,3.5,2,5.5,2s3.8-0.7,5.5-2l0.6,0.7
			C116,44.8,113.9,45.5,111.8,45.5z"/>
		<path class="st5" d="M100,46v-0.9c3.2,0,4.9-0.3,5.7-0.5l0.2,0.9C105.1,45.7,103.3,46,100,46z"/>
		<polygon class="st5" points="115.8,35.6 114.9,35.6 114.9,36.5 115.8,36.5 		"/>
		<polygon class="st5" points="114,34.7 113.1,34.7 113.1,35.6 114,35.6 		"/>
		<polygon class="st5" points="108.6,35.6 107.7,35.6 107.7,36.5 108.6,36.5 		"/>
		<polygon class="st5" points="110.4,34.7 109.5,34.7 109.5,35.6 110.4,35.6 		"/>
		<polygon class="st5" points="112.2,34.2 111.3,34.2 111.3,35.1 112.2,35.1 		"/>
		<polygon class="st5" points="121.7,36.5 120.8,36.5 120.8,37.4 121.7,37.4 		"/>
		<polygon class="st5" points="123.5,37.4 122.6,37.4 122.6,38.3 123.5,38.3 		"/>
		<polygon class="st5" points="124.4,39.2 123.5,39.2 123.5,40.1 124.4,40.1 		"/>
		<polygon class="st5" points="123.5,41 122.6,41 122.6,41.9 123.5,41.9 		"/>
		<polygon class="st5" points="119.9,37.4 119,37.4 119,38.3 119.9,38.3 		"/>
	</g>
	<g>
		<path class="st5" d="M72.6,45.5c-1.2,0-2.3-0.5-2.9-1.3c-0.6,0.3-1.2,0.4-1.8,0.4c-1.4,0-2.6-0.6-3.2-1.6
			c-0.4,0.2-0.8,0.2-1.3,0.2S62.5,43.1,62,43c-1.9-0.6-3.1-2.5-2.6-4.1c0.4-1.2,1.6-2,3-2l0,0c0.5,0,0.9,0.1,1.4,0.2
			c1,0.4,1.9,1.1,2.3,1.9c0.5-0.2,1.1-0.3,1.7-0.3c1.4,0,2.6,0.6,3.2,1.6c0.9-0.3,1.9-0.4,2.8-0.1c0.3-0.2,0.5-0.3,0.8-0.4
			c0.5-0.2,1.1-0.3,1.6-0.3c0.1,0,0.2,0,0.3,0c0.2-0.3,0.4-0.5,0.7-0.7c1.4-1.3,3.4-1.4,4.4-0.4c0.4,0.4,0.6,1,0.6,1.6
			c0,0.9-0.5,1.8-1.3,2.5c-0.7,0.7-1.7,1.1-2.6,1.1c-0.4,0.5-1,0.9-1.7,1.1c-0.7,0.3-1.5,0.3-2.2,0.2C74,45.4,73.3,45.5,72.6,45.5z
			 M70.1,43l0.2,0.5c0.4,0.7,1.3,1.2,2.3,1.2c0.6,0,1.2-0.2,1.7-0.5l0.2-0.1h0.2c0.6,0.1,1.2,0.1,1.8-0.1c0.6-0.2,1.1-0.6,1.4-1
			l0.1-0.2h0.2c0.7,0,1.5-0.3,2.2-0.8c0.6-0.5,1-1.3,1-1.9c0-0.3,0-0.6-0.3-0.9c-0.7-0.7-2.1-0.5-3.2,0.5c-0.3,0.2-0.5,0.5-0.7,0.8
			L77,40.8l-0.3-0.1c-0.2,0-0.3,0-0.4,0c-0.4,0-0.9,0.1-1.3,0.2c-0.3,0.1-0.6,0.3-0.8,0.4L74,41.4l-0.2-0.1
			c-0.8-0.4-1.9-0.3-2.7,0.1l-0.5,0.3l-0.2-0.5c-0.3-0.9-1.4-1.5-2.6-1.5c-0.6,0-1.2,0.2-1.7,0.5l-0.5,0.3L65.4,40
			c-0.3-0.8-1-1.5-2-1.8C63,38.1,62.7,38,62.3,38l0,0c-1.1,0-1.9,0.5-2.2,1.4c-0.4,1.2,0.5,2.5,2,3c0.4,0.1,0.7,0.2,1.1,0.2
			c0.5,0,0.9-0.1,1.3-0.3l0.4-0.2l0.2,0.5c0.3,0.9,1.4,1.4,2.6,1.4c0.6,0,1.3-0.2,1.8-0.5L70.1,43z"/>
		<path class="st5" d="M81.5,40v-2.6c0-0.3,0-0.7-0.3-1c-0.7-0.7-2.1-0.5-3.2,0.5c-0.3,0.2-0.5,0.5-0.7,0.8L77.1,38l-0.3-0.1
			c-0.2,0-0.3,0-0.4,0c-0.4,0-0.9,0.1-1.3,0.2c-0.3,0.1-0.6,0.2-0.8,0.4l-0.2,0.1l-0.2-0.1c-0.8-0.3-1.9-0.3-2.7,0.1l-0.5,0.3
			l-0.2-0.5c-0.3-0.9-1.4-1.5-2.6-1.5c-0.6,0-1.2,0.2-1.7,0.5l-0.5,0.3l-0.2-0.5c-0.3-0.8-1-1.5-2-1.8c-0.8-0.3-1.7-0.2-2.3,0.1
			c-0.5,0.2-0.8,0.6-0.9,1.1c0,0.2-0.1,0.3-0.1,0.5v2.8h-0.9V37c0-0.2,0-0.5,0.1-0.7c0.2-0.7,0.7-1.3,1.4-1.6c0.9-0.4,2-0.5,3-0.2
			c1,0.4,1.9,1.1,2.3,1.9c0.5-0.2,1.1-0.3,1.7-0.3c1.4,0,2.6,0.6,3.2,1.6c0.9-0.3,1.9-0.4,2.8-0.1c0.3-0.2,0.5-0.3,0.8-0.4
			c0.5-0.2,1-0.3,1.6-0.3c0.1,0,0.2,0,0.3,0c0.2-0.3,0.4-0.5,0.7-0.7c1.4-1.3,3.4-1.4,4.4-0.4c0.4,0.4,0.6,1,0.6,1.6V40L81.5,40z"/>
		<path class="st5" d="M78.1,55.2l-0.4-0.8c0.4-0.2,0.9-0.5,1.2-0.8c0.8-0.8,1.2-1.9,1.1-2.8l0-0.4l0.3-0.2c0.3-0.1,0.5-0.3,0.8-0.6
			c0.5-0.5,0.8-1.1,0.8-1.8s-0.1-1.2-0.4-1.5L81.3,46l0.2-0.3c0.3-0.4,0.5-1,0.5-1.6c0-0.9-0.4-1.7-0.9-2l0.5-0.7
			c0.8,0.6,1.3,1.6,1.3,2.8c0,0.6-0.2,1.3-0.4,1.8c0.3,0.5,0.4,1.1,0.4,1.8c0,0.9-0.4,1.8-1.1,2.4c-0.3,0.2-0.5,0.4-0.7,0.6
			c0.1,1.1-0.4,2.4-1.4,3.3C79.2,54.6,78.7,54.9,78.1,55.2z"/>
		<path class="st5" d="M73.8,52.8L73.8,52.8c0-1.2,0.5-2.3,1.4-3.2c0.5-0.5,0.9-0.7,1.4-0.8c0.1-0.9,0.6-1.9,1.3-2.5
			c0.1-0.1,0.3-0.3,0.4-0.4c-0.3-0.5-0.4-1.1-0.4-1.7c0-0.4,0-0.7,0.1-1l0.9,0.2c-0.1,0.3-0.1,0.5-0.1,0.8c0,0.6,0.2,1.2,0.5,1.6
			l0.3,0.4l-0.4,0.3c-0.2,0.1-0.4,0.3-0.6,0.5c-0.6,0.6-1,1.6-1.1,2.2v0.4l-0.5,0c-0.5,0.1-0.8,0.2-1.2,0.7
			c-0.7,0.7-1.1,1.6-1.1,2.4v0.1H73.8z"/>
		<path class="st5" d="M67,54.7l-0.8-0.4c0.2-0.5,0.3-1,0.3-1.6c0-0.8-0.3-1.6-1-2.4l-0.1-0.2l0.1-0.2c0.1-0.4,0.2-0.8,0.2-1.2
			s-0.1-0.9-0.2-1.3l-0.1-0.2l0.1-0.2c0.7-0.9,1-2,1-2.9V44h0.9v0.1c0,1.4-0.6,2.6-1.1,3.2c0.1,0.4,0.2,0.9,0.2,1.3
			c0,0.4,0,0.8-0.1,1.2c0.7,0.9,1,1.9,1,2.8C67.4,53.5,67.3,54.1,67,54.7z"/>
		<path class="st5" d="M76.4,55.4c-0.5-0.4-0.8-0.9-0.8-1.5c0-0.5,0.2-0.9,0.5-1.3C76,52.4,76,52.2,76,52.1c0-1.1,1.1-2,2.5-2
			c1.1,0,2.1,0.6,2.4,1.5L80,51.9c-0.2-0.5-0.8-0.9-1.5-0.9c-0.9,0-1.6,0.5-1.6,1.1c0,0.1,0,0.3,0.1,0.4l0.2,0.4l-0.3,0.2
			c-0.2,0.1-0.5,0.4-0.5,0.8c0,0.3,0.2,0.6,0.4,0.8L76.4,55.4z"/>
		<polygon class="st5" points="78.7,51.9 77.8,51.9 77.8,52.8 78.7,52.8 		"/>
		<path class="st5" d="M73.3,58.7h-0.9v-2l0.2-0.1c0.5-0.3,0.7-0.9,0.7-1.4c0-0.2,0-0.3-0.1-0.5l-0.1-0.2l0.1-0.2
			c0.3-0.4,0.5-0.9,0.5-1.4c0-1.2-1-2.3-2.3-2.3s-2.3,1-2.3,2.3c0,0.5,0.2,1,0.5,1.4l0.1,0.2l-0.1,0.2c-0.1,0.2-0.1,0.3-0.1,0.5
			c0,0.6,0.3,1.1,0.7,1.4l0.2,0.1v2h-0.9v-1.6c-0.6-0.5-0.9-1.2-0.9-2c0-0.2,0-0.3,0.1-0.5c-0.3-0.5-0.5-1.1-0.5-1.7
			c0-1.7,1.4-3.2,3.2-3.2c1.7,0,3.2,1.4,3.2,3.2c0,0.6-0.2,1.2-0.5,1.7c0,0.2,0.1,0.4,0.1,0.5c0,0.8-0.3,1.5-0.9,2L73.3,58.7
			L73.3,58.7z"/>
		<path class="st5" d="M70.1,55.5c-0.4,0-0.8-0.1-1.2-0.4l0.5-0.7c0.2,0.1,0.4,0.2,0.6,0.2c0.7,0,1.4-0.9,1.4-2c0-0.9-0.4-1.7-1-2
			l0.4-0.8c0.9,0.4,1.5,1.5,1.5,2.8C72.4,54.2,71.4,55.5,70.1,55.5z"/>
		<rect x="68.8" y="52.3" class="st5" width="1.4" height="0.9"/>
		<path class="st5" d="M66.5,56.9c-0.1,0-0.2,0-0.4-0.1l-2.3-1.2c-0.6,0.3-1.3,0.4-1.9,0.3c-1.4-0.2-2.5-1.4-2.7-2.7
			c-0.1-0.9,0.1-1.7,0.7-2.4c-0.4-0.6-0.7-1.3-0.7-2.1s0.3-1.6,0.8-2.2c-0.5-0.7-0.8-1.5-0.8-2.3c0-1.1,0.4-2,1.1-2.7l0.6,0.6
			c-0.5,0.5-0.8,1.3-0.8,2.1s0.3,1.5,0.8,2.1l0.3,0.3L61,46.9c-0.5,0.4-0.8,1.1-0.8,1.8s0.3,1.3,0.7,1.8l0.3,0.3l-0.3,0.3
			c-0.5,0.5-0.8,1.2-0.7,1.9c0.1,1,0.9,1.8,1.9,2c0.6,0.1,1.1,0,1.5-0.3l0.2-0.1l2.7,1.4c-0.3-2-1.7-3.3-1.7-3.3l-0.1-0.1v-0.2
			c-0.1-0.7-0.7-1.3-1.2-1.6l-0.4-0.3l0.3-0.4c0.3-0.4,0.5-0.9,0.5-1.5s-0.2-1.1-0.5-1.5L63,46.8l0.4-0.3c0.6-0.4,1.3-1.3,1.3-2.3
			V43h0.9v1.2c0,1.2-0.6,2.2-1.3,2.8c0.3,0.5,0.4,1.1,0.4,1.7c0,0.6-0.1,1.1-0.4,1.6c0.5,0.4,1,1,1.2,1.8c0.4,0.4,1.6,1.7,1.9,3.7
			c0,0.3-0.1,0.6-0.3,0.8C66.9,56.8,66.7,56.9,66.5,56.9z"/>
		<path class="st5" d="M78.3,50.5c0-2,0.9-3.2,2.5-3.2c0.6,0,1.3,0.2,1.7,0.4l-0.3,0.8c-0.6-0.2-1-0.3-1.4-0.3
			c-1.3,0-1.6,1.2-1.6,2.3H78.3z"/>
		<path class="st5" d="M73.3,50.7l-0.8-0.4c0.3-0.7,0.8-1.3,1.4-1.9c0.4-0.4,0.8-0.7,1.2-1c0.2-0.7,0.6-1.4,1.1-2
			C76.1,45.2,76,45,76,44.6v-0.2h0.9v0.2c0,0.3,0,0.4,0.1,0.6l0.1,0.4L77,45.8c-0.5,0.6-0.9,1.3-1.1,2V48l-0.2,0.1
			c-0.4,0.3-0.8,0.6-1.2,0.9C74,49.5,73.6,50.1,73.3,50.7z"/>
	</g>
	<g>
		<path class="st5" d="M28.7,46c-0.7,0-1.4-0.2-2-0.5c-0.5,0.3-1,0.5-1.6,0.5c-1.1,0-2.2-0.6-2.7-1.4c-1.1-0.1-1.7-0.5-2.3-1
			l0.6-0.7c0.6,0.5,1.1,0.8,2,0.8H23V44c0.3,0.6,1.2,1.1,2.1,1.1c0.5,0,0.9-0.2,1.3-0.5l0.3-0.2l0.3,0.2c0.5,0.3,1.1,0.5,1.8,0.5
			c1.6,0,2.9-1.1,2.9-2.5c0-0.2,0-0.4-0.1-0.6l-0.1-0.5l0.5-0.1c1.4-0.2,2.4-1.3,2.4-2.7c0-0.1,0-0.3,0-0.4l0.9-0.1
			c0,0.2,0,0.3,0,0.5c0,1.6-1.1,3-2.7,3.5c0,0.1,0,0.3,0,0.4C32.6,44.5,30.9,46,28.7,46z"/>
		<polygon class="st5" points="39.4,56 38.5,56 38.5,56.9 39.4,56.9 		"/>
		<path class="st5" d="M24.7,43.3c-0.9,0-1.6-0.7-1.6-1.6c0-0.9,0.7-1.6,1.6-1.6s1.6,0.7,1.6,1.6C26.3,42.6,25.5,43.3,24.7,43.3z
			 M24.7,41c-0.4,0-0.7,0.3-0.7,0.7s0.3,0.7,0.7,0.7c0.4,0,0.7-0.3,0.7-0.7S25.1,41,24.7,41z"/>
		<path class="st5" d="M28.7,44.2c-0.9,0-1.6-0.7-1.6-1.6c0-0.9,0.7-1.6,1.6-1.6s1.6,0.7,1.6,1.6C30.3,43.5,29.6,44.2,28.7,44.2z
			 M28.7,41.9c-0.4,0-0.7,0.3-0.7,0.7s0.3,0.7,0.7,0.7c0.4,0,0.7-0.3,0.7-0.7C29.4,42.2,29.1,41.9,28.7,41.9z"/>
		<polygon class="st5" points="27.6,39.7 26.7,39.7 26.7,40.6 27.6,40.6 		"/>
		<polygon class="st5" points="32.6,39.7 31.7,39.7 31.7,40.6 32.6,40.6 		"/>
		<polygon class="st5" points="32.1,56 31.2,56 31.2,56.9 32.1,56.9 		"/>
		<polygon class="st5" points="34,56.9 33,56.9 33,57.8 34,57.8 		"/>
		<polygon class="st5" points="35.8,57.3 34.9,57.3 34.9,58.2 35.8,58.2 		"/>
		<polygon class="st5" points="40.3,54.1 39.4,54.1 39.4,55 40.3,55 		"/>
		<polygon class="st5" points="37.6,56.9 36.7,56.9 36.7,57.8 37.6,57.8 		"/>
		<polygon class="st5" points="40.7,52.3 39.8,52.3 39.8,53.2 40.7,53.2 		"/>
		<polygon class="st5" points="39.4,48.7 38.5,48.7 38.5,49.6 39.4,49.6 		"/>
		<polygon class="st5" points="40.3,50.5 39.4,50.5 39.4,51.4 40.3,51.4 		"/>
		<polygon class="st5" points="25.8,35.1 24.9,35.1 24.9,36 25.8,36 		"/>
		<polygon class="st5" points="27.6,36 26.7,36 26.7,37 27.6,37 		"/>
		<polygon class="st5" points="24,36 23.1,36 23.1,37 24,37 		"/>
		<polygon class="st5" points="19.9,53.7 19,53.7 19,54.6 19.9,54.6 		"/>
		<polygon class="st5" points="20.8,56 19.9,56 19.9,56.9 20.8,56.9 		"/>
		<polygon class="st5" points="23.1,56.9 22.2,56.9 22.2,57.8 23.1,57.8 		"/>
		<path class="st5" d="M26.3,55c-1.6,0-3.1-1-3.7-2.4l0.8-0.4c0.5,1.2,1.6,1.9,2.9,1.9c0.7,0,1.3-0.2,1.9-0.6l0.5,0.7
			C28,54.8,27.1,55,26.3,55z"/>
		<path class="st5" d="M40.8,38c-0.9-0.7-2.1-1.1-3.2-1.1h-4.1V36h4.1c1.4,0,2.7,0.4,3.8,1.2L40.8,38z"/>
		<path class="st5" d="M26,56.9c-3.4,0-6.1-2.7-6.1-6.1v-7.5c0-3,2.4-5.4,5.4-5.4h12.2c2.5,0,4.5,2,4.5,4.5c0,2.9-1.7,4.1-3.7,5.4
			c-0.8,0.5-1.6,1.1-2.4,1.8c-1.1,0.9-2,2-2.8,3C31.3,54.7,29.4,56.9,26,56.9z M25.4,38.8c-2.5,0-4.5,2-4.5,4.5v7.5
			c0,2.9,2.3,5.2,5.2,5.2c3,0,4.5-1.8,6.5-4.1c0.9-1,1.8-2.1,2.9-3c0.8-0.7,1.7-1.3,2.5-1.8c1.9-1.3,3.3-2.2,3.3-4.6
			c0-2-1.6-3.6-3.6-3.6H25.4V38.8z"/>
	</g>
</g>
</svg>
