<?xml version="1.0" encoding="utf-8"?>
<!-- Generator: Adobe Illustrator 25.1.0, SVG Export Plug-In . SVG Version: 6.00 Build 0)  -->
<svg version="1.1" id="Layer_1" xmlns="http://www.w3.org/2000/svg" xmlns:xlink="http://www.w3.org/1999/xlink" x="0px" y="0px"
	 viewBox="0 0 141 84" style="enable-background:new 0 0 141 84;" xml:space="preserve">
<style type="text/css">
	.st0{fill:#99D3CB;}
	.st1{fill:#FFF9EF;}
	.st2{fill:#6FCACD;}
	.st3{fill:#DAECCD;}
	.st4{fill:#871C1C;}
	.st5{fill:#505050;}
</style>
<g>
	<path class="st0" d="M85.1-21.7c0-2.3-1.7-4.1-3.8-4.1h-0.8c-2.1,0-3.8,1.8-3.8,4.1v6.5h8.4L85.1-21.7L85.1-21.7z"/>
	<path class="st1" d="M80.5-4.5h0.8c2.1,0,3.8-1.8,3.8-4.1v-6.5h-8.4v6.5C76.7-6.4,78.4-4.5,80.5-4.5z"/>
	<path class="st2" d="M83.6-15.2h1.5v-6.5c0-2.3-1.7-4.1-3.8-4.1h-0.8c-1.3,0-2.5,0.7-3.2,1.8c0.4-0.2,0.8-0.3,1.3-0.3
		C81.4-24.3,83.6-20.3,83.6-15.2z"/>
	<path class="st3" d="M83.6-15.2c0,5.1-2.3,9.1-5.1,9.1c-0.4,0-0.9-0.1-1.3-0.3c0.7,1.1,1.9,1.8,3.2,1.8h0.9c2.1,0,3.8-1.8,3.8-4.1
		v-6.5L83.6-15.2L83.6-15.2z"/>
	<path class="st4" d="M80.8-26.5h0.8c2.4,0,4.4,2.1,4.4,4.7v13.2c0,2.6-2,4.7-4.4,4.7h-0.8c-2.4,0-4.4-2.1-4.4-4.7v-13.2
		C76.4-24.3,78.4-26.5,80.8-26.5z M81.6-5.1c1.8,0,3.2-1.6,3.2-3.5v-13.1c0-1.9-1.4-3.5-3.2-3.5h-0.8c-1.8,0-3.2,1.6-3.2,3.5v13.2
		C77.6-6.6,79-5,80.8-5h0.8V-5.1z"/>
	<path class="st4" d="M77.3-15.8h8.1c0.3,0,0.6,0.3,0.6,0.6s-0.3,0.6-0.6,0.6h-8.1c-0.3,0-0.6-0.3-0.6-0.6S77-15.8,77.3-15.8z"/>
</g>
<g>
	<path class="st0" d="M36.8-21.7c0-2.3-1.7-4.1-3.8-4.1h-0.8c-2.1,0-3.8,1.8-3.8,4.1v6.5h8.4L36.8-21.7L36.8-21.7z"/>
	<path class="st1" d="M32.2-4.5H33c2.1,0,3.8-1.8,3.8-4.1v-6.5h-8.4v6.5C28.4-6.4,30.1-4.5,32.2-4.5z"/>
	<path class="st2" d="M35.3-15.2h1.5v-6.5c0-2.3-1.7-4.1-3.8-4.1h-0.8c-1.3,0-2.5,0.7-3.2,1.8c0.4-0.2,0.8-0.3,1.3-0.3
		C33.1-24.3,35.3-20.3,35.3-15.2z"/>
	<path class="st3" d="M35.3-15.2c0,5.1-2.3,9.1-5.1,9.1c-0.4,0-0.9-0.1-1.3-0.3c0.7,1.1,1.9,1.8,3.2,1.8H33c2.1,0,3.8-1.8,3.8-4.1
		v-6.5L35.3-15.2L35.3-15.2z"/>
	<path class="st4" d="M32.5-26.5h0.8c2.5,0,4.5,2.2,4.5,4.8v13.2c0,2.6-2,4.7-4.4,4.7h-0.8c-2.4,0-4.4-2.1-4.4-4.7v-13.2
		C28.1-24.3,30.1-26.5,32.5-26.5z M33.4-5.1c1.8,0,3.2-1.6,3.2-3.5v-13.1c0-1.9-1.4-3.5-3.2-3.5h-0.8c-1.8,0-3.2,1.6-3.2,3.5v13.2
		c0,1.9,1.4,3.5,3.2,3.5h0.8V-5.1z"/>
	<path class="st4" d="M29-15.8h8.1c0.3,0,0.6,0.3,0.6,0.6s-0.3,0.6-0.6,0.6H29c-0.3,0-0.6-0.3-0.6-0.6S28.7-15.8,29-15.8z"/>
</g>
<g>
	<path class="st0" d="M133.3-21.7c0-2.3-1.7-4.1-3.8-4.1h-0.8c-2.1,0-3.8,1.8-3.8,4.1v6.5h8.4L133.3-21.7L133.3-21.7z"/>
	<path class="st1" d="M128.8-4.5h0.8c2.1,0,3.8-1.8,3.8-4.1v-6.5H125v6.5C125-6.4,126.7-4.5,128.8-4.5z"/>
	<path class="st2" d="M131.9-15.2h1.5v-6.5c0-2.3-1.7-4.1-3.8-4.1h-0.8c-1.3,0-2.5,0.7-3.2,1.8c0.4-0.2,0.8-0.3,1.3-0.3
		C129.6-24.3,131.9-20.3,131.9-15.2z"/>
	<path class="st3" d="M131.9-15.2c0,5.1-2.3,9.1-5.1,9.1c-0.4,0-0.9-0.1-1.3-0.3c0.7,1.1,1.9,1.8,3.2,1.8h0.8c2.1,0,3.8-1.8,3.8-4.1
		v-6.5L131.9-15.2L131.9-15.2z"/>
	<path class="st4" d="M129.1-26.5h0.8c2.4,0,4.4,2.1,4.4,4.7v13.2c0,2.6-2,4.7-4.4,4.7h-0.8c-2.4,0-4.4-2.1-4.4-4.7v-13.2
		C124.7-24.3,126.7-26.5,129.1-26.5z M129.9-5.1c1.8,0,3.2-1.6,3.2-3.5v-13.1c0-1.9-1.4-3.5-3.2-3.5h-0.8c-1.8,0-3.2,1.6-3.2,3.5
		v13.2c0,1.9,1.4,3.5,3.2,3.5h0.8V-5.1z"/>
	<path class="st4" d="M125.6-15.8h8.1c0.3,0,0.6,0.3,0.6,0.6s-0.3,0.6-0.6,0.6h-8.1c-0.3,0-0.6-0.3-0.6-0.6S125.3-15.8,125.6-15.8z"
		/>
</g>
<g>
	<path class="st0" d="M60.9-21.7c0-2.3-1.7-4.1-3.8-4.1h-0.8c-2.1,0-3.8,1.8-3.8,4.1v6.5H61L60.9-21.7L60.9-21.7z"/>
	<path class="st1" d="M56.3-4.5h0.8c2.1,0,3.8-1.8,3.8-4.1v-6.5h-8.4v6.5C52.5-6.4,54.2-4.5,56.3-4.5z"/>
	<path class="st2" d="M59.4-15.2h1.5v-6.5c0-2.3-1.7-4.1-3.8-4.1h-0.8c-1.3,0-2.5,0.7-3.2,1.8c0.4-0.2,0.8-0.3,1.3-0.3
		C57.3-24.3,59.4-20.3,59.4-15.2z"/>
	<path class="st3" d="M59.4-15.2c0,5.1-2.3,9.1-5.1,9.1c-0.4,0-0.9-0.1-1.3-0.3c0.7,1.1,1.9,1.8,3.2,1.8H57c2.1,0,3.8-1.8,3.8-4.1
		v-6.5L59.4-15.2L59.4-15.2z"/>
	<path class="st4" d="M56.7-26.5h0.8c2.4,0,4.4,2.1,4.4,4.7v13.2c0,2.6-2,4.7-4.4,4.7h-0.8c-2.4,0-4.4-2.1-4.4-4.7v-13.2
		C52.3-24.3,54.2-26.5,56.7-26.5z M57.5-5.1c1.8,0,3.2-1.6,3.2-3.5v-13.1c0-1.9-1.4-3.5-3.2-3.5h-0.8c-1.8,0-3.2,1.6-3.2,3.5v13.2
		c0,1.9,1.4,3.5,3.2,3.5h0.8V-5.1z"/>
	<path class="st4" d="M53.2-15.8h8.1c0.3,0,0.6,0.3,0.6,0.6s-0.3,0.6-0.6,0.6h-8.1c-0.3,0-0.6-0.3-0.6-0.6S52.8-15.8,53.2-15.8z"/>
</g>
<g>
	<path class="st0" d="M109.2-21.7c0-2.3-1.7-4.1-3.8-4.1h-0.8c-2.1,0-3.8,1.8-3.8,4.1v6.5h8.4L109.2-21.7L109.2-21.7z"/>
	<path class="st1" d="M104.6-4.5h0.8c2.1,0,3.8-1.8,3.8-4.1v-6.5h-8.4v6.5C100.8-6.4,102.5-4.5,104.6-4.5z"/>
	<path class="st2" d="M107.7-15.2h1.5v-6.5c0-2.3-1.7-4.1-3.8-4.1h-0.8c-1.3,0-2.5,0.7-3.2,1.8c0.4-0.2,0.8-0.3,1.3-0.3
		C105.6-24.3,107.7-20.3,107.7-15.2z"/>
	<path class="st3" d="M107.7-15.2c0,5.1-2.3,9.1-5.1,9.1c-0.4,0-0.9-0.1-1.3-0.3c0.7,1.1,1.9,1.8,3.2,1.8h0.8c2.1,0,3.8-1.8,3.8-4.1
		v-6.5L107.7-15.2L107.7-15.2z"/>
	<path class="st4" d="M105-26.5h0.8c2.4,0,4.4,2.1,4.4,4.7v13.2c0,2.6-2,4.7-4.4,4.7H105c-2.4,0-4.4-2.1-4.4-4.7v-13.2
		C100.5-24.3,102.5-26.5,105-26.5z M105.7-5.1c1.8,0,3.2-1.6,3.2-3.5v-13.1c0-1.9-1.4-3.5-3.2-3.5H105c-1.8,0-3.2,1.6-3.2,3.5v13.2
		c0,1.9,1.4,3.5,3.2,3.5h0.7V-5.1z"/>
	<path class="st4" d="M101.5-15.8h8.1c0.3,0,0.6,0.3,0.6,0.6s-0.3,0.6-0.6,0.6h-8.1c-0.3,0-0.6-0.3-0.6-0.6S101.1-15.8,101.5-15.8z"
		/>
</g>
<g>
	<path class="st0" d="M12.6-21.7c0-2.3-1.7-4.1-3.8-4.1H8.1c-2.1,0-3.9,1.8-3.9,4.1v6.5h8.4C12.6-15.2,12.6-21.7,12.6-21.7z"/>
	<path class="st1" d="M8.1-4.5h0.8c2.1,0,3.8-1.8,3.8-4.1v-6.5H4.2v6.5C4.2-6.4,6-4.5,8.1-4.5z"/>
	<path class="st2" d="M11.1-15.2h1.5v-6.5c0-2.3-1.7-4.1-3.8-4.1H8.1c-1.3,0-2.5,0.7-3.2,1.8c0.4-0.2,0.8-0.3,1.3-0.3
		C9-24.3,11.1-20.3,11.1-15.2z"/>
	<path class="st3" d="M11.1-15.2c0,5.1-2.3,9.1-5.1,9.1c-0.4,0-0.9-0.1-1.3-0.3c0.7,1.1,1.9,1.8,3.2,1.8h0.8c2.1,0,3.8-1.8,3.8-4.1
		v-6.5L11.1-15.2L11.1-15.2z"/>
	<path class="st4" d="M8.4-26.5h0.8c2.4,0,4.4,2.1,4.4,4.7v13.2c0,2.6-2,4.7-4.4,4.7H8.4C6-3.9,4-6,4-8.5v-13.2
		C4-24.3,6-26.5,8.4-26.5z M9.2-5.1c1.8,0,3.2-1.6,3.2-3.5v-13.1c0-1.9-1.4-3.5-3.2-3.5H8.4c-1.8,0-3.2,1.6-3.2,3.5v13.2
		C5.2-6.6,6.6-5,8.4-5h0.8V-5.1z"/>
	<path class="st4" d="M4.9-15.8H13c0.3,0,0.6,0.3,0.6,0.6s-0.3,0.6-0.6,0.6H4.9c-0.3,0-0.6-0.3-0.6-0.6S4.6-15.8,4.9-15.8z"/>
</g>
<g>
	<path class="st0" d="M85.9,95.6c0-2.3-1.7-4.1-3.8-4.1h-0.8c-2.1,0-3.8,1.8-3.8,4.1v6.5H86L85.9,95.6L85.9,95.6z"/>
	<path class="st1" d="M81.3,112.8H82c2.1,0,3.8-1.8,3.8-4.1v-6.5h-8.4v6.5C77.5,111,79.2,112.8,81.3,112.8z"/>
	<path class="st2" d="M84.4,102.1h1.5v-6.5c0-2.3-1.7-4.1-3.8-4.1h-0.8c-1.3,0-2.5,0.7-3.2,1.8c0.4-0.2,0.8-0.3,1.3-0.3
		C82.1,93,84.4,97.1,84.4,102.1z"/>
	<path class="st3" d="M84.4,102.1c0,5.1-2.3,9.1-5.1,9.1c-0.4,0-0.9-0.1-1.3-0.3c0.7,1.1,1.9,1.8,3.2,1.8H82c2.1,0,3.8-1.8,3.8-4.1
		v-6.5H84.4L84.4,102.1z"/>
	<path class="st4" d="M81.6,90.8h0.8c2.4,0,4.4,2.1,4.4,4.7v13.2c0,2.6-2,4.7-4.4,4.7h-0.8c-2.4,0-4.4-2.1-4.4-4.7V95.5
		C77.2,93,79.2,90.8,81.6,90.8z M82.4,112.1c1.8,0,3.2-1.6,3.2-3.5V95.4c0-1.9-1.4-3.5-3.2-3.5h-0.8c-1.8,0-3.2,1.6-3.2,3.5v13.2
		c0,1.9,1.4,3.5,3.2,3.5H82.4z"/>
	<path class="st4" d="M78.2,101.5h8.1c0.3,0,0.6,0.3,0.6,0.6s-0.3,0.6-0.6,0.6h-8.1c-0.3,0-0.6-0.3-0.6-0.6
		C77.5,101.8,77.8,101.5,78.2,101.5z"/>
</g>
<g>
	<path class="st0" d="M37.6,95.6c0-2.3-1.7-4.1-3.8-4.1H33c-2.1,0-3.8,1.8-3.8,4.1v6.5h8.4V95.6L37.6,95.6z"/>
	<path class="st1" d="M33,112.8h0.8c2.1,0,3.8-1.8,3.8-4.1v-6.5h-8.4v6.5C29.2,111,30.9,112.8,33,112.8z"/>
	<path class="st2" d="M36.1,102.1h1.5v-6.5c0-2.3-1.7-4.1-3.8-4.1H33c-1.3,0-2.5,0.7-3.2,1.8c0.4-0.2,0.8-0.3,1.3-0.3
		C33.8,93,36.1,97.1,36.1,102.1z"/>
	<path class="st3" d="M36.1,102.1c0,5.1-2.3,9.1-5.1,9.1c-0.4,0-0.9-0.1-1.3-0.3c0.7,1.1,1.9,1.8,3.2,1.8h0.8c2.1,0,3.8-1.8,3.8-4.1
		v-6.5H36.1L36.1,102.1z"/>
	<path class="st4" d="M33.4,90.8h0.8c2.4,0,4.4,2.1,4.4,4.7v13.2c0,2.6-2,4.7-4.4,4.7h-0.8c-2.4,0-4.4-2.1-4.4-4.7V95.5
		C28.9,93,30.9,90.8,33.4,90.8z M34.1,112.1c1.8,0,3.2-1.6,3.2-3.5V95.4c0-1.9-1.4-3.5-3.2-3.5h-0.8c-1.8,0-3.2,1.6-3.2,3.5v13.2
		c0,1.9,1.4,3.5,3.2,3.5H34.1z"/>
	<path class="st4" d="M29.9,101.5H38c0.3,0,0.6,0.3,0.6,0.6s-0.3,0.6-0.6,0.6h-8.1c-0.3,0-0.6-0.3-0.6-0.6
		C29.2,101.8,29.5,101.5,29.9,101.5z"/>
</g>
<g>
	<path class="st0" d="M134.2,95.6c0-2.3-1.7-4.1-3.8-4.1h-0.8c-2.1,0-3.8,1.8-3.8,4.1v6.5h8.4L134.2,95.6L134.2,95.6z"/>
	<path class="st1" d="M129.6,112.8h0.8c2.1,0,3.8-1.8,3.8-4.1v-6.5h-8.4v6.5C125.8,111,127.5,112.8,129.6,112.8z"/>
	<path class="st2" d="M132.7,102.1h1.5v-6.5c0-2.3-1.7-4.1-3.8-4.1h-0.8c-1.3,0-2.5,0.7-3.2,1.8c0.4-0.2,0.8-0.3,1.3-0.3
		C130.4,93,132.7,97.1,132.7,102.1z"/>
	<path class="st3" d="M132.7,102.1c0,5.1-2.3,9.1-5.1,9.1c-0.4,0-0.9-0.1-1.3-0.3c0.7,1.1,1.9,1.8,3.2,1.8h0.8
		c2.1,0,3.8-1.8,3.8-4.1v-6.5H132.7L132.7,102.1z"/>
	<path class="st4" d="M129.8,90.8h0.8c2.4,0,4.4,2.1,4.4,4.7v13.2c0,2.6-2,4.7-4.4,4.7h-0.8c-2.4,0-4.4-2.1-4.4-4.7V95.5
		C125.5,93,127.5,90.8,129.8,90.8z M130.7,112.1c1.8,0,3.2-1.6,3.2-3.5V95.4c0-1.9-1.4-3.5-3.2-3.5h-0.8c-1.8,0-3.2,1.6-3.2,3.5
		v13.2c0,1.9,1.4,3.5,3.2,3.5H130.7z"/>
	<path class="st4" d="M126.4,101.5h8.1c0.3,0,0.6,0.3,0.6,0.6s-0.3,0.6-0.6,0.6h-8.1c-0.3,0-0.6-0.3-0.6-0.6
		S126.1,101.5,126.4,101.5z"/>
</g>
<g>
	<path class="st0" d="M61.7,95.6c0-2.3-1.7-4.1-3.8-4.1h-0.8c-2.1,0-3.8,1.8-3.8,4.1v6.5h8.4L61.7,95.6L61.7,95.6z"/>
	<path class="st1" d="M57.2,112.8H58c2.1,0,3.8-1.8,3.8-4.1v-6.5h-8.4v6.5C53.3,111,55.1,112.8,57.2,112.8z"/>
	<path class="st2" d="M60.2,102.1h1.5v-6.5c0-2.3-1.7-4.1-3.8-4.1h-0.8c-1.3,0-2.5,0.7-3.2,1.8c0.4-0.2,0.8-0.3,1.3-0.3
		C58,93,60.2,97.1,60.2,102.1z"/>
	<path class="st3" d="M60.2,102.1c0,5.1-2.3,9.1-5.1,9.1c-0.4,0-0.9-0.1-1.3-0.3c0.7,1.1,1.9,1.8,3.2,1.8h0.8c2.1,0,3.8-1.8,3.8-4.1
		v-6.5H60.2L60.2,102.1z"/>
	<path class="st4" d="M57.5,90.8h0.8c2.4,0,4.4,2.1,4.4,4.7v13.2c0,2.6-2,4.7-4.4,4.7h-0.8c-2.4,0-4.4-2.1-4.4-4.7V95.5
		C53.1,93,55.1,90.8,57.5,90.8z M58.3,112.1c1.8,0,3.2-1.6,3.2-3.5V95.4c0-1.9-1.4-3.5-3.2-3.5h-0.8c-1.8,0-3.2,1.6-3.2,3.5v13.2
		c0,1.9,1.4,3.5,3.2,3.5H58.3z"/>
	<path class="st4" d="M54,101.5h8.1c0.3,0,0.6,0.3,0.6,0.6s-0.3,0.6-0.6,0.6H54c-0.3,0-0.6-0.3-0.6-0.6S53.7,101.5,54,101.5z"/>
</g>
<g>
	<path class="st0" d="M110,95.6c0-2.3-1.7-4.1-3.8-4.1h-0.8c-2.1,0-3.8,1.8-3.8,4.1v6.5h8.4L110,95.6L110,95.6z"/>
	<path class="st1" d="M105.5,112.8h0.8c2.1,0,3.8-1.8,3.8-4.1v-6.5h-8.4v6.5C101.6,111,103.3,112.8,105.5,112.8z"/>
	<path class="st2" d="M108.5,102.1h1.5v-6.5c0-2.3-1.7-4.1-3.8-4.1h-0.8c-1.3,0-2.5,0.7-3.2,1.8c0.4-0.2,0.8-0.3,1.3-0.3
		C106.3,93,108.5,97.1,108.5,102.1z"/>
	<path class="st3" d="M108.5,102.1c0,5.1-2.3,9.1-5.1,9.1c-0.4,0-0.9-0.1-1.3-0.3c0.7,1.1,1.9,1.8,3.2,1.8h0.8
		c2.1,0,3.8-1.8,3.8-4.1v-6.5H108.5L108.5,102.1z"/>
	<path class="st4" d="M105.7,90.8h0.8c2.4,0,4.4,2.1,4.4,4.7v13.2c0,2.6-2,4.7-4.4,4.7h-0.8c-2.4,0-4.4-2.1-4.4-4.7V95.5
		C101.4,93,103.3,90.8,105.7,90.8z M106.5,112.1c1.8,0,3.2-1.6,3.2-3.5V95.4c0-1.9-1.4-3.5-3.2-3.5h-0.8c-1.8,0-3.2,1.6-3.2,3.5
		v13.2c0,1.9,1.4,3.5,3.2,3.5H106.5z"/>
	<path class="st4" d="M102.3,101.5h8.1c0.3,0,0.6,0.3,0.6,0.6s-0.3,0.6-0.6,0.6h-8.1c-0.3,0-0.6-0.3-0.6-0.6S102,101.5,102.3,101.5z
		"/>
</g>
<g>
	<path class="st0" d="M13.4,95.6c0-2.3-1.7-4.1-3.8-4.1H8.9c-2.1,0-3.8,1.8-3.8,4.1v6.5h8.4L13.4,95.6L13.4,95.6z"/>
	<path class="st1" d="M8.9,112.8h0.8c2.1,0,3.8-1.8,3.8-4.1v-6.5H5v6.5C5.1,111,6.8,112.8,8.9,112.8z"/>
	<path class="st2" d="M12,102.1h1.5v-6.5c0-2.3-1.7-4.1-3.8-4.1H8.9c-1.3,0-2.5,0.7-3.2,1.8C6.1,93.1,6.5,93,7,93
		C9.7,93,12,97.1,12,102.1z"/>
	<path class="st3" d="M12,102.1c0,5.1-2.3,9.1-5.1,9.1c-0.4,0-0.9-0.1-1.3-0.3c0.7,1.1,1.9,1.8,3.2,1.8h0.8c2.1,0,3.8-1.8,3.8-4.1
		v-6.5H12L12,102.1z"/>
	<path class="st4" d="M9.2,90.8H10c2.4,0,4.4,2.1,4.4,4.7v13.2c0,2.6-2,4.7-4.4,4.7H9.2c-2.4,0-4.4-2.1-4.4-4.7V95.5
		C4.8,93,6.8,90.8,9.2,90.8z M10,112.1c1.8,0,3.2-1.6,3.2-3.5V95.4c0-1.9-1.4-3.5-3.2-3.5H9.2c-1.8,0-3.2,1.6-3.2,3.5v13.2
		c0,1.9,1.4,3.5,3.2,3.5H10z"/>
	<path class="st4" d="M5.7,101.5h8.1c0.3,0,0.6,0.3,0.6,0.6s-0.3,0.6-0.6,0.6H5.7c-0.3,0-0.6-0.3-0.6-0.6S5.4,101.5,5.7,101.5z"/>
</g>
<g>
	<g>
		<path class="st5" d="M110.9,62.7H110c0-3.7-1.9-6.1-2.5-6.8l0.7-0.6C108.8,56,110.9,58.7,110.9,62.7z"/>
		<path class="st5" d="M113.5,60l-0.9-0.2c0.6-2.5,2-4.1,2.3-4.5l0.7,0.6C115.2,56.3,114,57.8,113.5,60z"/>
		<path class="st5" d="M110.4,69.7l-0.1-0.9c0.4,0,0.5-0.4,0.5-0.5c0-0.5-0.2-0.8-0.4-1l-0.2-0.2l0.1-0.2c0-0.1,0.1-0.3,0.1-0.4
			c0-0.9-0.8-1.6-1.8-1.6c-0.4,0-0.8,0.1-1.1,0.3l-0.5-0.8c0.5-0.3,1-0.5,1.6-0.5c1.5,0,2.7,1.1,2.7,2.5c0,0.1,0,0.3,0,0.4
			c0.3,0.4,0.5,0.9,0.5,1.4C111.8,69,111.3,69.7,110.4,69.7z"/>
		<path class="st5" d="M115.1,67.7c-1.9,0-3.3-1.6-3.3-3.6s1.5-3.6,3.4-3.6c0.4,0,0.8,0.1,1.2,0.2l-0.3,0.8
			c-0.3-0.1-0.6-0.2-0.9-0.2c-1.4,0-2.5,1.2-2.5,2.7s1.1,2.7,2.4,2.7L115.1,67.7z"/>
		<polygon class="st5" points="114.5,64.1 113.6,64.1 113.6,65 114.5,65 		"/>
		<path class="st5" d="M119,58.2c-0.6,0-1.1-0.1-1.7-0.3l0.3-0.9c0.4,0.2,0.9,0.2,1.4,0.2c2.2,0,4.1-1.8,4.1-4.1
			c0-2.2-1.8-4.1-4.1-4.1c-1.4,0-2.8,0.8-3.5,2l-0.8-0.5c0.9-1.5,2.5-2.5,4.3-2.5c2.7,0,5,2.2,5,5C124,55.9,121.7,58.2,119,58.2z"/>
		<path class="st5" d="M104.1,58.2c-2.7,0-5-2.2-5-5c0-2.7,2.2-5,5-5c1.8,0,3.4,1,4.3,2.5l-0.8,0.5c-0.7-1.3-2.1-2-3.5-2
			c-2.2,0-4.1,1.8-4.1,4.1c0,2.2,1.8,4.1,4.1,4.1c0.5,0,0.9-0.1,1.4-0.2l0.3,0.9C105.2,58.1,104.6,58.2,104.1,58.2z"/>
		<path class="st5" d="M105.2,55.8c-0.3-0.2-0.8-0.4-1.1-0.4c-1.5,0-2.7-1.1-2.7-2.5s1.4-2.5,3.2-2.5c1,0,1.9,0.4,2.6,1l-0.6,0.6
			c-0.4-0.4-1.2-0.7-1.9-0.7c-1.2,0-2.3,0.7-2.3,1.6s0.8,1.6,1.8,1.6c0.7,0,1.4,0.4,1.6,0.5L105.2,55.8z"/>
		<path class="st5" d="M103.4,58.1c-0.7-0.6-1.1-1.2-1.2-1.9c0-0.6,0.2-1.1,0.7-1.6l0.6,0.6c-0.2,0.2-0.5,0.5-0.4,0.9
			c0,0.4,0.3,0.8,0.8,1.2L103.4,58.1z"/>
		<path class="st5" d="M117.9,55.8l-0.5-0.8c0.2-0.1,0.9-0.5,1.6-0.5c1,0,1.8-0.7,1.8-1.6s-1-1.6-2.3-1.6c-0.7,0-1.5,0.3-1.9,0.7
			l-0.6-0.6c0.6-0.6,1.6-1,2.5-1c1.7,0,3.2,1.1,3.2,2.5s-1.2,2.5-2.7,2.5C118.6,55.5,118.2,55.7,117.9,55.8z"/>
		<path class="st5" d="M119.7,58.1l-0.6-0.7c0.5-0.4,0.8-0.8,0.8-1.2c0-0.4-0.2-0.7-0.4-0.9l0.6-0.6c0.5,0.5,0.7,1,0.7,1.6
			C120.8,56.8,120.4,57.5,119.7,58.1z"/>
		<path class="st5" d="M113.1,71.3h-0.9V69l0.3-0.1c1.7-0.6,2.9-2.4,2.9-4.6c0-0.7-0.1-1.3-0.3-1.9l-0.1-0.2l0.1-0.2
			c1.7-2.4,2.1-4.5,2.1-6.9c0-1.9-1.4-3.7-3.1-3.9c-1.8-0.2-3.4-0.2-5.1,0s-3.1,2-3.1,3.9c0,2.4,0.4,4.6,2.1,6.9l0.1,0.2l-0.1,0.2
			c-0.2,0.6-0.3,1.2-0.3,1.9c0,2.1,1.2,4,2.9,4.6l0.3,0.1v2.3H110v-1.7c-1.9-0.8-3.2-2.9-3.2-5.3c0-0.7,0.1-1.4,0.3-2
			c-1.8-2.5-2.1-4.7-2.1-7.3c0-2.4,1.7-4.5,3.9-4.8c1.8-0.3,3.5-0.3,5.4,0c2.2,0.3,3.9,2.4,3.9,4.8c0,2.6-0.4,4.8-2.1,7.3
			c0.2,0.6,0.3,1.3,0.3,2c0,2.4-1.3,4.5-3.2,5.3v1.7H113.1z"/>
		<polygon class="st5" points="108.6,45.5 107.7,45.5 107.7,46.4 108.6,46.4 		"/>
		<polygon class="st5" points="110.4,46.4 109.5,46.4 109.5,47.3 110.4,47.3 		"/>
		<polygon class="st5" points="111.3,48.2 110.4,48.2 110.4,49.1 111.3,49.1 		"/>
		<polygon class="st5" points="106.8,46.4 105.9,46.4 105.9,47.3 106.8,47.3 		"/>
		<polygon class="st5" points="120.8,60 119.9,60 119.9,60.9 120.8,60.9 		"/>
		<polygon class="st5" points="122.6,60.9 121.7,60.9 121.7,61.8 122.6,61.8 		"/>
		<polygon class="st5" points="118.1,62.7 117.2,62.7 117.2,63.6 118.1,63.6 		"/>
		<polygon class="st5" points="123.5,62.7 122.6,62.7 122.6,63.6 123.5,63.6 		"/>
		<polygon class="st5" points="120.8,65.4 119.9,65.4 119.9,66.3 120.8,66.3 		"/>
		<polygon class="st5" points="119,64.5 118.1,64.5 118.1,65.4 119,65.4 		"/>
		<polygon class="st5" points="122.6,64.5 121.7,64.5 121.7,65.4 122.6,65.4 		"/>
		<polygon class="st5" points="119,60.9 118.1,60.9 118.1,61.8 119,61.8 		"/>
		<polygon class="st5" points="105,66.8 104.1,66.8 104.1,67.7 105,67.7 		"/>
		<polygon class="st5" points="106.8,67.7 105.9,67.7 105.9,68.6 106.8,68.6 		"/>
		<polygon class="st5" points="104.1,65 103.2,65 103.2,65.9 104.1,65.9 		"/>
		<polygon class="st5" points="103.6,63.1 102.7,63.1 102.7,64.1 103.6,64.1 		"/>
		<polygon class="st5" points="105,59.5 104.1,59.5 104.1,60.4 105,60.4 		"/>
		<polygon class="st5" points="104.1,61.3 103.2,61.3 103.2,62.2 104.1,62.2 		"/>
		<path class="st5" d="M111.5,55c-1.6,0-2.9-0.8-3.5-1.2l0.5-0.7c0.5,0.4,1.6,1,3,1c1.3,0,2.5-0.7,3-1l0.5,0.7
			C114.4,54.2,113.1,55,111.5,55z"/>
	</g>
	<g>
		<path class="st5" d="M70.7,62c-0.6-0.7-2.1-1.2-3.7-1.7c-3.3-1.1-7.3-2.6-7.3-6.6c0-2.7,2.2-5,5-5h12.7c2.7,0,5,2.2,5,5
			c0,4-4.1,5.4-7.3,6.6c-0.4,0.1-0.8,0.3-1.1,0.4l-0.3-0.8c0.4-0.1,0.7-0.3,1.1-0.4c3.1-1.1,6.7-2.4,6.7-5.7c0-2.2-1.8-4.1-4.1-4.1
			H64.7c-2.2,0-4.1,1.8-4.1,4.1c0,3.4,3.6,4.6,6.7,5.7c1.7,0.6,3.2,1.1,4,2L70.7,62z"/>
		<path class="st5" d="M68.5,68c-1.8-0.9-2.9-2.6-2.9-4.4c0-1.5,0.8-3,2.1-3.9l0.5,0.7c-1.1,0.8-1.7,1.9-1.7,3.2
			c0,1.5,0.9,2.9,2.4,3.6L68.5,68z"/>
		<path class="st5" d="M66.8,66.3L66.8,66.3v-0.9l0,0c1,0,1.4-0.1,1.5-0.3c0,0,0.1-0.1,0.1-0.2c0-0.3-0.2-0.5-0.3-0.6L67.8,64
			l0.2-0.3c0.1-0.1,0.3-0.5,0.3-0.8c0-0.2,0-0.7-1.8-0.7v-0.9c0.7,0,2.8,0,2.8,1.6c0,0.4-0.2,0.8-0.3,1.1c0.1,0.2,0.3,0.6,0.3,0.9
			s-0.1,0.6-0.3,0.8C68.4,66.2,67.6,66.3,66.8,66.3z"/>
		<path class="st5" d="M75.6,69c-1.3,0-2.4-0.6-3.2-1.6l0.7-0.6c0.6,0.8,1.5,1.2,2.5,1.2c0.9,0,1.8-0.4,2.4-1.2l0.2-0.3l0.3,0.2
			c0.4,0.2,0.8,0.4,1.3,0.4c1.4,0,2.5-1.1,2.5-2.5c0-0.2,0-0.5-0.1-0.7v-0.1v-0.1c0.1-0.2,0.1-0.4,0.1-0.6c0-1.4-1.4-2.6-2.9-2.2
			L79.2,61L79,60.8c-0.5-0.7-1.4-1.2-2.2-1.3l0.1-0.9c1,0.1,2,0.6,2.7,1.4c0.2,0,0.4,0,0.5,0c1.7,0,3.2,1.4,3.2,3.2
			c0,0.3,0,0.5-0.1,0.8c0.1,0.3,0.1,0.5,0.1,0.8c0,1.9-1.5,3.4-3.4,3.4c-0.5,0-1-0.1-1.4-0.3C77.7,68.6,76.7,69,75.6,69z"/>
		<path class="st5" d="M79.2,65.9c-1,0-1.8-0.8-1.8-1.8s0.8-1.8,1.8-1.8s1.8,0.8,1.8,1.8C81,65,80.2,65.9,79.2,65.9z M79.2,63.1
			c-0.5,0-0.9,0.4-0.9,0.9s0.4,0.9,0.9,0.9s0.9-0.4,0.9-0.9C80.1,63.6,79.7,63.1,79.2,63.1z"/>
		<polygon class="st5" points="76.5,65.9 75.6,65.9 75.6,66.8 76.5,66.8 		"/>
		<polygon class="st5" points="76,62.7 75.1,62.7 75.1,63.6 76,63.6 		"/>
		<polygon class="st5" points="77.8,60.9 76.9,60.9 76.9,61.8 77.8,61.8 		"/>
		<path class="st5" d="M84.2,53.6h-0.9c0-2.6-1.7-4.8-4.1-5.6l0.3-0.9C82.3,48.1,84.2,50.7,84.2,53.6z"/>
		<path class="st5" d="M63.1,60.6c-3.5-1.7-5.1-3.9-5.1-6.9h0.9c0,2.7,1.5,4.6,4.6,6.1L63.1,60.6z"/>
		<rect x="59.7" y="67.7" class="st5" width="0.9" height="0.9"/>
		<path class="st5" d="M66.5,71.3h-5v-0.9h5c3.3,0,6.8-2.1,6.8-8.1v-3.5c0-0.8,0.5-1.4,1.2-1.7c3.1-1.1,4.7-1.9,4.7-3.4
			c0-1-0.8-1.8-1.8-1.8h-2.3V51h2.3c1.5,0,2.7,1.2,2.7,2.7c0,2.2-2.3,3.2-5.3,4.3c-0.4,0.1-0.6,0.5-0.6,0.9v3.5
			C74.2,68.9,70.2,71.3,66.5,71.3z"/>
		<rect x="73.3" y="50.9" class="st5" width="0.9" height="0.9"/>
		<path class="st5" d="M66.5,68.6h-5v-0.9h5c2.6,0,4.1-1.9,4.1-5.4v-2.5c0-0.4-0.2-0.7-0.5-0.8c-0.7-0.3-1.4-0.6-2.3-0.9
			c-3.5-1.2-5.8-2.2-5.8-4.5c0-1.5,1.2-2.7,2.7-2.7h7.7v0.9h-7.7c-1,0-1.8,0.8-1.8,1.8c0,1.6,2.1,2.5,5.2,3.6
			c0.8,0.3,1.6,0.6,2.3,0.9c0.6,0.3,1.1,0.9,1.1,1.6v2.5C71.5,68,68,68.6,66.5,68.6z"/>
	</g>
	<g>
		<path class="st5" d="M23.1,59c-1.2-1.2-1.8-2.8-1.8-4.4c0-3.5,2.8-6.3,6.3-6.3c1.7,0,3.3,0.7,4.5,1.9l-0.6,0.6
			c-1-1-2.4-1.6-3.8-1.6c-3,0-5.4,2.4-5.4,5.4c0,1.4,0.6,2.8,1.6,3.8L23.1,59z"/>
		<path class="st5" d="M35.3,63.1v-0.9c1.7,0,3.2-1.4,3.2-3.2v-0.5l0.4-0.1c1.4-0.4,2.4-1.6,2.4-3.1c0-0.3-0.1-0.7-0.2-1v-0.1v-0.1
			c0.1-0.3,0.2-0.7,0.2-1c0-1.7-1.4-3.2-3.2-3.2c-0.2,0-0.4,0-0.6,0.1h-0.2L37,50c-0.6-0.6-1.4-0.9-2.2-0.9c-1.7,0-3.2,1.4-3.2,3.2
			v0.5l-0.4,0.1c-1.2,0.3-2.2,1.6-2.2,3h-0.9c0-1.7,1.1-3.3,2.7-3.8c0.1-2.1,1.9-3.9,4.1-3.9c1,0,1.9,0.3,2.6,0.9c0.2,0,0.4,0,0.6,0
			c2.2,0,4.1,1.8,4.1,4.1c0,0.4-0.1,0.8-0.2,1.1c0.1,0.4,0.2,0.7,0.2,1.1c0,1.7-1.1,3.3-2.7,3.8C39.3,61.4,37.5,63.1,35.3,63.1z"/>
		<path class="st5" d="M33.7,72.2c-4.8,0-8.4-3.5-8.4-8.1c0-2.1,1.4-3,2.2-3.2l0.2,0.9l-0.1-0.4l0.1,0.4c-0.1,0-1.5,0.4-1.5,2.3
			c0,4.1,3.2,7.2,7.5,7.2c4.1,0,7.5-3.4,7.5-7.7c0-1.8-0.6-3.4-1.6-4.8l0.7-0.6c1.2,1.5,1.8,3.4,1.8,5.3
			C42.1,68.3,38.3,72.2,33.7,72.2z"/>
		<path class="st5" d="M20.8,72.2h-0.9v-9c0-2.4,1.5-5,4.1-5c2.4,0,3.2,2.1,3.2,3.2c0,0.2,0,0.4-0.1,0.7l-0.9-0.2c0-0.2,0-0.3,0-0.5
			c0-0.5-0.4-2.3-2.3-2.3c-2,0-3.2,2.1-3.2,4.1L20.8,72.2L20.8,72.2z"/>
		<path class="st5" d="M24.9,72.2H24v-3.6c0-3,1.7-3.6,1.8-3.6l0.3,0.9c0,0-1.2,0.4-1.2,2.7C24.9,68.6,24.9,72.2,24.9,72.2z"/>
		<rect x="21.7" y="62.7" class="st5" width="0.9" height="0.9"/>
		<rect x="21.7" y="64.5" class="st5" width="0.9" height="2.7"/>
		<path class="st5" d="M37.3,55.9c-1.1,0-2-0.9-2-2s0.9-2,2-2s2,0.9,2,2C39.4,55,38.5,55.9,37.3,55.9z M37.3,52.7
			c-0.6,0-1.1,0.5-1.1,1.1s0.5,1.1,1.1,1.1s1.1-0.5,1.1-1.1C38.5,53.2,38,52.7,37.3,52.7z"/>
		<path class="st5" d="M31.9,57.3c-0.9,0-1.6-0.7-1.6-1.6s0.7-1.6,1.6-1.6s1.6,0.7,1.6,1.6C33.5,56.6,32.8,57.3,31.9,57.3z M31.9,55
			c-0.4,0-0.7,0.3-0.7,0.7c0,0.4,0.3,0.7,0.7,0.7c0.4,0,0.7-0.3,0.7-0.7S32.3,55,31.9,55z"/>
		<path class="st5" d="M35.8,60c-0.5,0-0.9-0.4-0.9-0.9s0.4-0.9,0.9-0.9s0.9,0.4,0.9,0.9S36.3,60,35.8,60z M35.8,59.1L35.8,59.1
			L35.8,59.1z"/>
		<polygon class="st5" points="34,50.9 33,50.9 33,51.8 34,51.8 		"/>
		<polygon class="st5" points="34.4,52.7 33.5,52.7 33.5,53.6 34.4,53.6 		"/>
		<polygon class="st5" points="36.2,50.5 35.3,50.5 35.3,51.4 36.2,51.4 		"/>
		<polygon class="st5" points="33.5,58.2 32.6,58.2 32.6,59.1 33.5,59.1 		"/>
		<path class="st5" d="M33.7,70.4c-1.1,0-2.1-0.2-3-0.7l0.4-0.8c0.8,0.4,1.7,0.6,2.6,0.6c3.1,0,5.7-2.6,5.7-5.9h0.9
			C40.3,67.3,37.3,70.4,33.7,70.4z"/>
		<path class="st5" d="M20.6,58.7c-0.8-1.3-1.2-2.7-1.2-4.2s0.4-2.9,1.2-4.2l0.8,0.5c-0.7,1.1-1,2.4-1,3.7c0,1.3,0.4,2.6,1,3.7
			L20.6,58.7z"/>
	</g>
	<g>
		<path class="st5" d="M123.5,17c-3.3,0-5.1-0.3-6-0.5l0.2-0.9c0.8,0.2,2.5,0.5,5.7,0.5V17H123.5z"/>
		<path class="st5" d="M117,25.1c-1.2,0-2.3-0.7-2.7-1.8l0,0c-1.1,0-2-1-2-2.3c0-0.8,0.4-1.6,1-2l0.5,0.8c-0.4,0.2-0.6,0.7-0.6,1.2
			c0,0.8,0.6,1.5,1.3,1.3l0.4-0.1l0.1,0.4c0.2,0.9,1,1.5,2,1.5c0.8,0,1.5-0.4,1.8-1.1l0.1-0.3h0.3c1.4,0,2.5-1.2,2.5-2.7
			c0-0.5-0.1-1-0.4-1.5l-0.2-0.3l0.3-0.2c0.8-0.7,1.3-1.3,1.6-1.6c-0.6-1-3-4.8-7.2-6.7c-0.2-0.1-0.4-0.1-0.5,0.1
			c-0.5,0.5-1.8,1.7-3.5,1.7c-1.8,0-3.1-1.2-3.5-1.7c-0.1-0.1-0.3-0.2-0.5-0.1c-4.2,1.9-6.6,5.7-7.2,6.7c0.4,0.5,1.4,1.8,3.1,3.1
			l-0.6,0.7c-2.3-1.8-3.4-3.5-3.5-3.5l-0.1-0.2l0.1-0.2c0.1-0.2,2.7-5,7.7-7.3c0.5-0.2,1.1-0.2,1.5,0.2s1.5,1.4,2.9,1.4
			s2.5-1,2.9-1.4s1-0.5,1.5-0.2c5.1,2.4,7.6,7.1,7.7,7.3l0.1,0.3l-0.2,0.2c0,0-0.6,0.7-1.6,1.7c0.2,0.5,0.4,1,0.4,1.6
			c0,1.9-1.4,3.5-3.2,3.6C118.9,24.6,118,25.1,117,25.1z"/>
		<path class="st5" d="M105.9,27.9c-0.5,0-0.9-0.4-0.9-0.9s0.4-0.9,0.9-0.9s0.9,0.4,0.9,0.9S106.4,27.9,105.9,27.9z M105.9,27
			L105.9,27L105.9,27z"/>
		<path class="st5" d="M103.8,25.1c-0.9,0-1.6-0.7-1.6-1.6c0-0.9,0.7-1.6,1.6-1.6s1.6,0.7,1.6,1.6C105.4,24.4,104.7,25.1,103.8,25.1
			z M103.8,22.9c-0.4,0-0.7,0.3-0.7,0.7s0.3,0.7,0.7,0.7s0.7-0.3,0.7-0.7S104.2,22.9,103.8,22.9z"/>
		<polygon class="st5" points="107.7,22 106.8,22 106.8,22.9 107.7,22.9 		"/>
		<polygon class="st5" points="108.6,24.2 107.7,24.2 107.7,25.1 108.6,25.1 		"/>
		<polygon class="st5" points="103.2,26 102.3,26 102.3,27 103.2,27 		"/>
		<path class="st5" d="M117,22.9c-0.9,0-1.6-0.7-1.6-1.6c0-0.9,0.7-1.6,1.6-1.6s1.6,0.7,1.6,1.6C118.5,22.2,117.8,22.9,117,22.9z
			 M117,20.6c-0.4,0-0.7,0.3-0.7,0.7s0.3,0.7,0.7,0.7c0.4,0,0.7-0.3,0.7-0.7C117.6,20.9,117.3,20.6,117,20.6z"/>
		<polygon class="st5" points="119.5,18.4 118.5,18.4 118.5,19.3 119.5,19.3 		"/>
		<polygon class="st5" points="120.4,20.2 119.5,20.2 119.5,21.1 120.4,21.1 		"/>
		<rect x="114.9" y="27" class="st5" width="0.9" height="2.3"/>
		<rect x="118.8" y="26.1" transform="matrix(0.94 -0.3411 0.3411 0.94 -2.1374 42.3102)" class="st5" width="0.9" height="2.2"/>
		<rect x="122.2" y="24.1" transform="matrix(0.7071 -0.7071 0.7071 0.7071 18.1709 94.0732)" class="st5" width="0.9" height="2"/>
		<path class="st5" d="M105,30.1c-3,0-5.4-2.4-5.4-5.4s2.4-5.4,5.4-5.4c0.8,0,1.6,0.2,2.3,0.5l2.3-0.9c0.1,0,0.2-0.1,0.3-0.1
			c0.5,0,0.9,0.4,0.9,0.9c0,0.1,0,0.2-0.1,0.3l-0.9,2.3c0.3,0.7,0.5,1.5,0.5,2.3C110.4,27.7,108,30.1,105,30.1z M105,20.2
			c-2.5,0-4.5,2-4.5,4.5s2,4.5,4.5,4.5s4.5-2,4.5-4.5c0-0.7-0.2-1.5-0.5-2.1l-0.1-0.2l1.1-2.7l-2.7,1.1l-0.2-0.1
			C106.4,20.3,105.7,20.2,105,20.2z"/>
		<path class="st5" d="M111.8,16.5c-2.2,0-4.2-0.8-6-2.2l0.6-0.7c1.6,1.3,3.5,2,5.5,2s3.8-0.7,5.5-2l0.6,0.7
			C116,15.8,113.9,16.5,111.8,16.5z"/>
		<path class="st5" d="M100,17v-0.9c3.2,0,4.9-0.3,5.7-0.5l0.2,0.9C105.1,16.7,103.3,17,100,17z"/>
		<polygon class="st5" points="115.8,6.6 114.9,6.6 114.9,7.5 115.8,7.5 		"/>
		<polygon class="st5" points="114,5.7 113.1,5.7 113.1,6.6 114,6.6 		"/>
		<polygon class="st5" points="108.6,6.6 107.7,6.6 107.7,7.5 108.6,7.5 		"/>
		<polygon class="st5" points="110.4,5.7 109.5,5.7 109.5,6.6 110.4,6.6 		"/>
		<polygon class="st5" points="112.2,5.2 111.3,5.2 111.3,6.1 112.2,6.1 		"/>
		<polygon class="st5" points="121.7,7.5 120.8,7.5 120.8,8.4 121.7,8.4 		"/>
		<polygon class="st5" points="123.5,8.4 122.6,8.4 122.6,9.3 123.5,9.3 		"/>
		<polygon class="st5" points="124.4,10.2 123.5,10.2 123.5,11.1 124.4,11.1 		"/>
		<polygon class="st5" points="123.5,12 122.6,12 122.6,12.9 123.5,12.9 		"/>
		<polygon class="st5" points="119.9,8.4 119,8.4 119,9.3 119.9,9.3 		"/>
	</g>
	<g>
		<path class="st5" d="M72.6,16.5c-1.2,0-2.3-0.5-2.9-1.3c-0.6,0.3-1.2,0.4-1.8,0.4c-1.4,0-2.6-0.6-3.2-1.6
			c-0.4,0.2-0.8,0.2-1.3,0.2S62.5,14.1,62,14c-1.9-0.6-3.1-2.5-2.6-4.1c0.4-1.2,1.6-2,3-2l0,0c0.5,0,0.9,0.1,1.4,0.2
			c1,0.4,1.9,1.1,2.3,1.9c0.5-0.2,1.1-0.3,1.7-0.3c1.4,0,2.6,0.6,3.2,1.6c0.9-0.3,1.9-0.4,2.8-0.1c0.3-0.2,0.5-0.3,0.8-0.4
			c0.5-0.2,1.1-0.3,1.6-0.3c0.1,0,0.2,0,0.3,0c0.2-0.3,0.4-0.5,0.7-0.7c1.4-1.3,3.4-1.4,4.4-0.4c0.4,0.4,0.6,1,0.6,1.6
			c0,0.9-0.5,1.8-1.3,2.5c-0.7,0.7-1.7,1.1-2.6,1.1c-0.4,0.5-1,0.9-1.7,1.1c-0.7,0.3-1.5,0.3-2.2,0.2C74,16.4,73.3,16.5,72.6,16.5z
			 M70.1,14l0.2,0.5c0.4,0.7,1.3,1.2,2.3,1.2c0.6,0,1.2-0.2,1.7-0.5l0.2-0.1h0.2c0.6,0.1,1.2,0.1,1.8-0.1c0.6-0.2,1.1-0.6,1.4-1
			l0.1-0.2h0.2c0.7,0,1.5-0.3,2.2-0.8c0.6-0.5,1-1.3,1-1.9c0-0.3,0-0.6-0.3-0.9c-0.7-0.7-2.1-0.5-3.2,0.5c-0.3,0.2-0.5,0.5-0.7,0.8
			L77,11.8l-0.3-0.1c-0.2,0-0.3,0-0.4,0c-0.4,0-0.9,0.1-1.3,0.2c-0.3,0.1-0.6,0.3-0.8,0.4L74,12.4l-0.2-0.1
			c-0.8-0.4-1.9-0.3-2.7,0.1l-0.5,0.3l-0.2-0.5c-0.3-0.9-1.4-1.5-2.6-1.5c-0.6,0-1.2,0.2-1.7,0.5l-0.5,0.3L65.4,11
			c-0.3-0.8-1-1.5-2-1.8C63,9.1,62.7,9,62.3,9l0,0c-1.1,0-1.9,0.5-2.2,1.4c-0.4,1.2,0.5,2.5,2,3c0.4,0.1,0.7,0.2,1.1,0.2
			c0.5,0,0.9-0.1,1.3-0.3l0.4-0.2l0.2,0.5c0.3,0.9,1.4,1.4,2.6,1.4c0.6,0,1.3-0.2,1.8-0.5L70.1,14z"/>
		<path class="st5" d="M81.5,11V8.4c0-0.3,0-0.7-0.3-1c-0.7-0.7-2.1-0.5-3.2,0.5c-0.3,0.2-0.5,0.5-0.7,0.8L77.1,9l-0.3-0.1
			c-0.2,0-0.3,0-0.4,0c-0.4,0-0.9,0.1-1.3,0.2c-0.3,0.1-0.6,0.2-0.8,0.4l-0.2,0.1l-0.2-0.1c-0.8-0.3-1.9-0.3-2.7,0.1l-0.5,0.3
			l-0.2-0.5c-0.3-0.9-1.4-1.5-2.6-1.5c-0.6,0-1.2,0.2-1.7,0.5l-0.5,0.3l-0.2-0.5c-0.3-0.8-1-1.5-2-1.8c-0.8-0.3-1.7-0.2-2.3,0.1
			c-0.5,0.2-0.8,0.6-0.9,1.1c0,0.2-0.1,0.3-0.1,0.5v2.8h-0.9V8c0-0.2,0-0.5,0.1-0.7c0.2-0.7,0.7-1.3,1.4-1.6c0.9-0.4,2-0.5,3-0.2
			c1,0.4,1.9,1.1,2.3,1.9c0.5-0.2,1.1-0.3,1.7-0.3c1.4,0,2.6,0.6,3.2,1.6c0.9-0.3,1.9-0.4,2.8-0.1c0.3-0.2,0.5-0.3,0.8-0.4
			c0.5-0.2,1-0.3,1.6-0.3c0.1,0,0.2,0,0.3,0c0.2-0.3,0.4-0.5,0.7-0.7c1.4-1.3,3.4-1.4,4.4-0.4c0.4,0.4,0.6,1,0.6,1.6V11H81.5z"/>
		<path class="st5" d="M78.1,26.2l-0.4-0.8c0.4-0.2,0.9-0.5,1.2-0.8c0.8-0.8,1.2-1.9,1.1-2.8v-0.4l0.3-0.2c0.3-0.1,0.5-0.3,0.8-0.6
			c0.5-0.5,0.8-1.1,0.8-1.8s-0.1-1.2-0.4-1.5L81.3,17l0.2-0.3c0.3-0.4,0.5-1,0.5-1.6c0-0.9-0.4-1.7-0.9-2l0.5-0.7
			c0.8,0.6,1.3,1.6,1.3,2.8c0,0.6-0.2,1.3-0.4,1.8c0.3,0.5,0.4,1.1,0.4,1.8c0,0.9-0.4,1.8-1.1,2.4c-0.3,0.2-0.5,0.4-0.7,0.6
			c0.1,1.1-0.4,2.4-1.4,3.3C79.2,25.6,78.7,25.9,78.1,26.2z"/>
		<path class="st5" d="M73.8,23.8L73.8,23.8c0-1.2,0.5-2.3,1.4-3.2c0.5-0.5,0.9-0.7,1.4-0.8c0.1-0.9,0.6-1.9,1.3-2.5
			c0.1-0.1,0.3-0.3,0.4-0.4c-0.3-0.5-0.4-1.1-0.4-1.7c0-0.4,0-0.7,0.1-1l0.9,0.2c-0.1,0.3-0.1,0.5-0.1,0.8c0,0.6,0.2,1.2,0.5,1.6
			l0.3,0.4l-0.4,0.3c-0.2,0.1-0.4,0.3-0.6,0.5c-0.6,0.6-1,1.6-1.1,2.2v0.4H77c-0.5,0.1-0.8,0.2-1.2,0.7c-0.7,0.7-1.1,1.6-1.1,2.4
			v0.1H73.8z"/>
		<path class="st5" d="M67,25.7l-0.8-0.4c0.2-0.5,0.3-1,0.3-1.6c0-0.8-0.3-1.6-1-2.4l-0.1-0.2l0.1-0.2c0.1-0.4,0.2-0.8,0.2-1.2
			s-0.1-0.9-0.2-1.3l-0.1-0.2l0.1-0.2c0.7-0.9,1-2,1-2.9V15h0.9v0.1c0,1.4-0.6,2.6-1.1,3.2c0.1,0.4,0.2,0.9,0.2,1.3
			c0,0.4,0,0.8-0.1,1.2c0.7,0.9,1,1.9,1,2.8C67.4,24.5,67.3,25.1,67,25.7z"/>
		<path class="st5" d="M76.4,26.4c-0.5-0.4-0.8-0.9-0.8-1.5c0-0.5,0.2-0.9,0.5-1.3C76,23.4,76,23.2,76,23.1c0-1.1,1.1-2,2.5-2
			c1.1,0,2.1,0.6,2.4,1.5L80,22.9c-0.2-0.5-0.8-0.9-1.5-0.9c-0.9,0-1.6,0.5-1.6,1.1c0,0.1,0,0.3,0.1,0.4l0.2,0.4l-0.3,0.2
			c-0.2,0.1-0.5,0.4-0.5,0.8c0,0.3,0.2,0.6,0.4,0.8L76.4,26.4z"/>
		<polygon class="st5" points="78.7,22.9 77.8,22.9 77.8,23.8 78.7,23.8 		"/>
		<path class="st5" d="M73.3,29.7h-0.9v-2l0.2-0.1c0.5-0.3,0.7-0.9,0.7-1.4c0-0.2,0-0.3-0.1-0.5l-0.1-0.2l0.1-0.2
			c0.3-0.4,0.5-0.9,0.5-1.4c0-1.2-1-2.3-2.3-2.3s-2.3,1-2.3,2.3c0,0.5,0.2,1,0.5,1.4l0.1,0.2l-0.1,0.2c-0.1,0.2-0.1,0.3-0.1,0.5
			c0,0.6,0.3,1.1,0.7,1.4l0.2,0.1v2h-0.9v-1.6c-0.6-0.5-0.9-1.2-0.9-2c0-0.2,0-0.3,0.1-0.5c-0.3-0.5-0.5-1.1-0.5-1.7
			c0-1.7,1.4-3.2,3.2-3.2c1.7,0,3.2,1.4,3.2,3.2c0,0.6-0.2,1.2-0.5,1.7c0,0.2,0.1,0.4,0.1,0.5c0,0.8-0.3,1.5-0.9,2L73.3,29.7
			L73.3,29.7z"/>
		<path class="st5" d="M70.1,26.5c-0.4,0-0.8-0.1-1.2-0.4l0.5-0.7c0.2,0.1,0.4,0.2,0.6,0.2c0.7,0,1.4-0.9,1.4-2c0-0.9-0.4-1.7-1-2
			l0.4-0.8c0.9,0.4,1.5,1.5,1.5,2.8C72.4,25.2,71.4,26.5,70.1,26.5z"/>
		<rect x="68.8" y="23.3" class="st5" width="1.4" height="0.9"/>
		<path class="st5" d="M66.5,27.9c-0.1,0-0.2,0-0.4-0.1l-2.3-1.2c-0.6,0.3-1.3,0.4-1.9,0.3c-1.4-0.2-2.5-1.4-2.7-2.7
			c-0.1-0.9,0.1-1.7,0.7-2.4c-0.4-0.6-0.7-1.3-0.7-2.1s0.3-1.6,0.8-2.2c-0.5-0.7-0.8-1.5-0.8-2.3c0-1.1,0.4-2,1.1-2.7l0.6,0.6
			c-0.5,0.5-0.8,1.3-0.8,2.1c0,0.8,0.3,1.5,0.8,2.1l0.3,0.3L61,17.9c-0.5,0.4-0.8,1.1-0.8,1.8s0.3,1.3,0.7,1.8l0.3,0.3l-0.3,0.3
			c-0.5,0.5-0.8,1.2-0.7,1.9c0.1,1,0.9,1.8,1.9,2c0.6,0.1,1.1,0,1.5-0.3l0.2-0.1l2.7,1.4c-0.3-2-1.7-3.3-1.7-3.3l-0.1-0.1v-0.2
			c-0.1-0.7-0.7-1.3-1.2-1.6l-0.4-0.3l0.3-0.4c0.3-0.4,0.5-0.9,0.5-1.5s-0.2-1.1-0.5-1.5L63,17.8l0.4-0.3c0.6-0.4,1.3-1.3,1.3-2.3
			V14h0.9v1.2c0,1.2-0.6,2.2-1.3,2.8c0.3,0.5,0.4,1.1,0.4,1.7c0,0.6-0.1,1.1-0.4,1.6c0.5,0.4,1,1,1.2,1.8c0.4,0.4,1.6,1.7,1.9,3.7
			c0,0.3-0.1,0.6-0.3,0.8C66.9,27.8,66.7,27.9,66.5,27.9z"/>
		<path class="st5" d="M78.3,21.5c0-2,0.9-3.2,2.5-3.2c0.6,0,1.3,0.2,1.7,0.4l-0.3,0.8c-0.6-0.2-1-0.3-1.4-0.3
			c-1.3,0-1.6,1.2-1.6,2.3H78.3z"/>
		<path class="st5" d="M73.3,21.7l-0.8-0.4c0.3-0.7,0.8-1.3,1.4-1.9c0.4-0.4,0.8-0.7,1.2-1c0.2-0.7,0.6-1.4,1.1-2
			C76.1,16.2,76,16,76,15.6v-0.2h0.9v0.2c0,0.3,0,0.4,0.1,0.6l0.1,0.4L77,16.8c-0.5,0.6-0.9,1.3-1.1,2V19l-0.2,0.1
			c-0.4,0.3-0.8,0.6-1.2,0.9C74,20.5,73.6,21.1,73.3,21.7z"/>
	</g>
	<g>
		<path class="st5" d="M28.7,17c-0.7,0-1.4-0.2-2-0.5c-0.5,0.3-1,0.5-1.6,0.5c-1.1,0-2.2-0.6-2.7-1.4c-1.1-0.1-1.7-0.5-2.3-1
			l0.6-0.7c0.6,0.5,1.1,0.8,2,0.8H23V15c0.3,0.6,1.2,1.1,2.1,1.1c0.5,0,0.9-0.2,1.3-0.5l0.3-0.2l0.3,0.2c0.5,0.3,1.1,0.5,1.8,0.5
			c1.6,0,2.9-1.1,2.9-2.5c0-0.2,0-0.4-0.1-0.6l-0.1-0.5l0.5-0.1c1.4-0.2,2.4-1.3,2.4-2.7c0-0.1,0-0.3,0-0.4l0.9-0.1
			c0,0.2,0,0.3,0,0.5c0,1.6-1.1,3-2.7,3.5c0,0.1,0,0.3,0,0.4C32.6,15.5,30.9,17,28.7,17z"/>
		<polygon class="st5" points="39.4,27 38.5,27 38.5,27.9 39.4,27.9 		"/>
		<path class="st5" d="M24.7,14.3c-0.9,0-1.6-0.7-1.6-1.6c0-0.9,0.7-1.6,1.6-1.6s1.6,0.7,1.6,1.6C26.3,13.6,25.5,14.3,24.7,14.3z
			 M24.7,12c-0.4,0-0.7,0.3-0.7,0.7s0.3,0.7,0.7,0.7c0.4,0,0.7-0.3,0.7-0.7S25.1,12,24.7,12z"/>
		<path class="st5" d="M28.7,15.2c-0.9,0-1.6-0.7-1.6-1.6c0-0.9,0.7-1.6,1.6-1.6s1.6,0.7,1.6,1.6C30.3,14.5,29.6,15.2,28.7,15.2z
			 M28.7,12.9c-0.4,0-0.7,0.3-0.7,0.7s0.3,0.7,0.7,0.7c0.4,0,0.7-0.3,0.7-0.7C29.4,13.2,29.1,12.9,28.7,12.9z"/>
		<polygon class="st5" points="27.6,10.7 26.7,10.7 26.7,11.6 27.6,11.6 		"/>
		<polygon class="st5" points="32.6,10.7 31.7,10.7 31.7,11.6 32.6,11.6 		"/>
		<polygon class="st5" points="32.1,27 31.2,27 31.2,27.9 32.1,27.9 		"/>
		<polygon class="st5" points="34,27.9 33,27.9 33,28.8 34,28.8 		"/>
		<polygon class="st5" points="35.8,28.3 34.9,28.3 34.9,29.2 35.8,29.2 		"/>
		<polygon class="st5" points="40.3,25.1 39.4,25.1 39.4,26 40.3,26 		"/>
		<polygon class="st5" points="37.6,27.9 36.7,27.9 36.7,28.8 37.6,28.8 		"/>
		<polygon class="st5" points="40.7,23.3 39.8,23.3 39.8,24.2 40.7,24.2 		"/>
		<polygon class="st5" points="39.4,19.7 38.5,19.7 38.5,20.6 39.4,20.6 		"/>
		<polygon class="st5" points="40.3,21.5 39.4,21.5 39.4,22.4 40.3,22.4 		"/>
		<polygon class="st5" points="25.8,6.1 24.9,6.1 24.9,7 25.8,7 		"/>
		<polygon class="st5" points="27.6,7 26.7,7 26.7,8 27.6,8 		"/>
		<polygon class="st5" points="24,7 23.1,7 23.1,8 24,8 		"/>
		<polygon class="st5" points="19.9,24.7 19,24.7 19,25.6 19.9,25.6 		"/>
		<polygon class="st5" points="20.8,27 19.9,27 19.9,27.9 20.8,27.9 		"/>
		<polygon class="st5" points="23.1,27.9 22.2,27.9 22.2,28.8 23.1,28.8 		"/>
		<path class="st5" d="M26.3,26c-1.6,0-3.1-1-3.7-2.4l0.8-0.4c0.5,1.2,1.6,1.9,2.9,1.9c0.7,0,1.3-0.2,1.9-0.6l0.5,0.7
			C28,25.8,27.1,26,26.3,26z"/>
		<path class="st5" d="M40.8,9c-0.9-0.7-2.1-1.1-3.2-1.1h-4.1V7h4.1c1.4,0,2.7,0.4,3.8,1.2L40.8,9z"/>
		<path class="st5" d="M26,27.9c-3.4,0-6.1-2.7-6.1-6.1v-7.5c0-3,2.4-5.4,5.4-5.4h12.2c2.5,0,4.5,2,4.5,4.5c0,2.9-1.7,4.1-3.7,5.4
			c-0.8,0.5-1.6,1.1-2.4,1.8c-1.1,0.9-2,2-2.8,3C31.3,25.7,29.4,27.9,26,27.9z M25.4,9.8c-2.5,0-4.5,2-4.5,4.5v7.5
			c0,2.9,2.3,5.2,5.2,5.2c3,0,4.5-1.8,6.5-4.1c0.9-1,1.8-2.1,2.9-3c0.8-0.7,1.7-1.3,2.5-1.8c1.9-1.3,3.3-2.2,3.3-4.6
			c0-2-1.6-3.6-3.6-3.6H25.4V9.8z"/>
	</g>
</g>
</svg>
