<?xml version="1.0" encoding="utf-8"?>
<!-- Generator: Adobe Illustrator 23.1.1, SVG Export Plug-In . SVG Version: 6.00 Build 0)  -->
<svg version="1.1" id="Layer_1" xmlns="http://www.w3.org/2000/svg" xmlns:xlink="http://www.w3.org/1999/xlink" x="0px" y="0px"
	 viewBox="0 0 141 138.8" style="enable-background:new 0 0 141 138.8;" xml:space="preserve">
<style type="text/css">
	.st0{fill:#99D3CB;}
	.st1{fill:#FFF9EF;}
	.st2{fill:#6FCACD;}
	.st3{fill:#DAECCD;}
	.st4{fill:#871C1C;}
	.st5{fill:#00ACE1;}
	.st6{fill:#006D9C;}
	.st7{fill:#CDE9F1;}
	.st8{fill:#F8CEC7;}
	.st9{fill:#D42C4A;}
	.st10{opacity:0.5;fill:#F4AEA2;enable-background:new    ;}
	.st11{opacity:0.8;fill:#008DC9;enable-background:new    ;}
	.st12{fill:#7DCEF1;}
</style>
<g>
	<path class="st0" d="M85.8,7.3c0-2.3-1.7-4.1-3.8-4.1h-0.8c-2.1,0-3.8,1.8-3.8,4.1v6.6h8.5L85.8,7.3L85.8,7.3z"/>
	<path class="st1" d="M81.1,24.7h0.8c2.1,0,3.8-1.8,3.8-4.1V14h-8.5v6.6C77.3,22.8,79,24.7,81.1,24.7z"/>
	<path class="st2" d="M84.3,13.9h1.5V7.3c0-2.3-1.7-4.1-3.8-4.1h-0.8c-1.3,0-2.5,0.7-3.2,1.8c0.4-0.2,0.8-0.3,1.3-0.3
		C82,4.7,84.3,8.8,84.3,13.9z"/>
	<path class="st3" d="M84.3,13.9c0,5.1-2.3,9.2-5.1,9.2c-0.4,0-0.9-0.1-1.3-0.3c0.7,1.1,1.9,1.8,3.2,1.8H82c2.1,0,3.8-1.8,3.8-4.1
		v-6.6L84.3,13.9L84.3,13.9z"/>
	<path class="st4" d="M81.4,2.5h0.8c2.4,0,4.4,2.1,4.4,4.7v13.3c0,2.6-2,4.7-4.4,4.7h-0.8c-2.4,0-4.4-2.1-4.4-4.7V7.2
		C77,4.7,79,2.5,81.4,2.5z M82.3,24.1c1.8,0,3.2-1.6,3.2-3.5V7.3c0-1.9-1.4-3.5-3.2-3.5h-0.8c-1.8,0-3.2,1.6-3.2,3.5v13.3
		c0,1.9,1.4,3.5,3.2,3.5H82.3z"/>
	<path class="st4" d="M77.9,13.3h8.2c0.3,0,0.6,0.3,0.6,0.6s-0.3,0.6-0.6,0.6h-8.2c-0.3,0-0.6-0.3-0.6-0.6S77.6,13.3,77.9,13.3z"/>
</g>
<g>
	<path class="st0" d="M37.1,7.3c0-2.3-1.7-4.1-3.8-4.1h-0.8c-2.1,0-3.8,1.8-3.8,4.1v6.6h8.5V7.3H37.1z"/>
	<path class="st1" d="M32.4,24.7h0.8c2.1,0,3.8-1.8,3.8-4.1V14h-8.5v6.6C28.6,22.8,30.3,24.7,32.4,24.7z"/>
	<path class="st2" d="M35.6,13.9h1.5V7.3c0-2.3-1.7-4.1-3.8-4.1h-0.8c-1.3,0-2.5,0.7-3.2,1.8c0.4-0.2,0.8-0.3,1.3-0.3
		C33.3,4.7,35.6,8.8,35.6,13.9z"/>
	<path class="st3" d="M35.6,13.9c0,5.1-2.3,9.2-5.1,9.2c-0.4,0-0.9-0.1-1.3-0.3c0.7,1.1,1.9,1.8,3.2,1.8h0.8c2.1,0,3.8-1.8,3.8-4.1
		v-6.6L35.6,13.9L35.6,13.9z"/>
	<path class="st4" d="M32.7,2.5h0.8C36,2.5,38,4.7,38,7.3v13.3c0,2.6-2,4.7-4.4,4.7h-0.8c-2.4,0-4.4-2.1-4.4-4.7V7.3
		C28.3,4.7,30.3,2.5,32.7,2.5z M33.6,24.1c1.8,0,3.2-1.6,3.2-3.5V7.3c0-1.9-1.4-3.5-3.2-3.5h-0.8c-1.8,0-3.2,1.6-3.2,3.5v13.3
		c0,1.9,1.4,3.5,3.2,3.5H33.6z"/>
	<path class="st4" d="M29.2,13.3h8.2c0.3,0,0.6,0.3,0.6,0.6s-0.3,0.6-0.6,0.6h-8.2c-0.3,0-0.6-0.3-0.6-0.6S28.9,13.3,29.2,13.3z"/>
</g>
<g>
	<path class="st0" d="M134.4,7.3c0-2.3-1.7-4.1-3.8-4.1h-0.8c-2.1,0-3.8,1.8-3.8,4.1v6.6h8.5L134.4,7.3L134.4,7.3z"/>
	<path class="st1" d="M129.8,24.7h0.8c2.1,0,3.8-1.8,3.8-4.1V14h-8.5v6.6C126,22.8,127.7,24.7,129.8,24.7z"/>
	<path class="st2" d="M133,13.9h1.5V7.3c0-2.3-1.7-4.1-3.8-4.1h-0.8c-1.3,0-2.5,0.7-3.2,1.8c0.4-0.2,0.8-0.3,1.3-0.3
		C130.7,4.7,133,8.8,133,13.9z"/>
	<path class="st3" d="M133,13.9c0,5.1-2.3,9.2-5.1,9.2c-0.4,0-0.9-0.1-1.3-0.3c0.7,1.1,1.9,1.8,3.2,1.8h0.8c2.1,0,3.8-1.8,3.8-4.1
		v-6.6L133,13.9L133,13.9z"/>
	<path class="st4" d="M130.1,2.5h0.8c2.4,0,4.4,2.1,4.4,4.7v13.3c0,2.6-2,4.7-4.4,4.7h-0.8c-2.4,0-4.4-2.1-4.4-4.7V7.2
		C125.7,4.7,127.7,2.5,130.1,2.5z M131,24.1c1.8,0,3.2-1.6,3.2-3.5V7.3c0-1.9-1.4-3.5-3.2-3.5h-0.8c-1.8,0-3.2,1.6-3.2,3.5v13.3
		c0,1.9,1.4,3.5,3.2,3.5H131z"/>
	<path class="st4" d="M126.6,13.3h8.2c0.3,0,0.6,0.3,0.6,0.6s-0.3,0.6-0.6,0.6h-8.2c-0.3,0-0.6-0.3-0.6-0.6
		C126,13.6,126.3,13.3,126.6,13.3z"/>
</g>
<g>
	<path class="st0" d="M61.4,7.3c0-2.3-1.7-4.1-3.8-4.1h-0.8C54.7,3.2,53,5,53,7.3v6.6h8.5L61.4,7.3L61.4,7.3z"/>
	<path class="st1" d="M56.7,24.7h0.8c2.1,0,3.8-1.8,3.8-4.1V14h-8.5v6.6C52.9,22.8,54.6,24.7,56.7,24.7z"/>
	<path class="st2" d="M59.9,13.9h1.5V7.3c0-2.3-1.7-4.1-3.8-4.1h-0.8c-1.3,0-2.5,0.7-3.2,1.8c0.4-0.2,0.8-0.3,1.3-0.3
		C57.7,4.7,59.9,8.8,59.9,13.9z"/>
	<path class="st3" d="M59.9,13.9c0,5.1-2.3,9.2-5.1,9.2c-0.4,0-0.9-0.1-1.3-0.3c0.7,1.1,1.9,1.8,3.2,1.8h0.8c2.1,0,3.8-1.8,3.8-4.1
		v-6.6L59.9,13.9L59.9,13.9z"/>
	<path class="st4" d="M57.1,2.5h0.8c2.4,0,4.4,2.1,4.4,4.7v13.3c0,2.6-2,4.7-4.4,4.7h-0.8c-2.4,0-4.4-2.1-4.4-4.7V7.2
		C52.7,4.7,54.6,2.5,57.1,2.5z M57.9,24.1c1.8,0,3.2-1.6,3.2-3.5V7.3c0-1.9-1.4-3.5-3.2-3.5h-0.8c-1.8,0-3.2,1.6-3.2,3.5v13.3
		c0,1.9,1.4,3.5,3.2,3.5H57.9z"/>
	<path class="st4" d="M53.6,13.3h8.2c0.3,0,0.6,0.3,0.6,0.6s-0.3,0.6-0.6,0.6h-8.2c-0.3,0-0.6-0.3-0.6-0.6S53.2,13.3,53.6,13.3z"/>
</g>
<g>
	<path class="st0" d="M110.1,7.3c0-2.3-1.7-4.1-3.8-4.1h-0.8c-2.1,0-3.8,1.8-3.8,4.1v6.6h8.5L110.1,7.3L110.1,7.3z"/>
	<path class="st1" d="M105.4,24.7h0.8c2.1,0,3.8-1.8,3.8-4.1V14h-8.5v6.6C101.6,22.8,103.3,24.7,105.4,24.7z"/>
	<path class="st2" d="M108.6,13.9h1.5V7.3c0-2.3-1.7-4.1-3.8-4.1h-0.8c-1.3,0-2.5,0.7-3.2,1.8c0.4-0.2,0.8-0.3,1.3-0.3
		C106.4,4.7,108.6,8.8,108.6,13.9z"/>
	<path class="st3" d="M108.6,13.9c0,5.1-2.3,9.2-5.1,9.2c-0.4,0-0.9-0.1-1.3-0.3c0.7,1.1,1.9,1.8,3.2,1.8h0.8c2.1,0,3.8-1.8,3.8-4.1
		v-6.6L108.6,13.9L108.6,13.9z"/>
	<path class="st4" d="M105.8,2.5h0.8c2.4,0,4.4,2.1,4.4,4.7v13.3c0,2.6-2,4.7-4.4,4.7h-0.8c-2.4,0-4.4-2.1-4.4-4.7V7.2
		C101.3,4.7,103.3,2.5,105.8,2.5z M106.6,24.1c1.8,0,3.2-1.6,3.2-3.5V7.3c0-1.9-1.4-3.5-3.2-3.5h-0.8c-1.8,0-3.2,1.6-3.2,3.5v13.3
		c0,1.9,1.4,3.5,3.2,3.5H106.6z"/>
	<path class="st4" d="M102.3,13.3h8.2c0.3,0,0.6,0.3,0.6,0.6s-0.3,0.6-0.6,0.6h-8.2c-0.3,0-0.6-0.3-0.6-0.6
		C101.7,13.6,101.9,13.3,102.3,13.3z"/>
</g>
<g>
	<path class="st0" d="M12.7,7.3c0-2.3-1.7-4.1-3.8-4.1H8.1C6,3.2,4.2,5,4.2,7.3v6.6h8.5V7.3z"/>
	<path class="st1" d="M8.1,24.7h0.8c2.1,0,3.8-1.8,3.8-4.1V14H4.2v6.6C4.2,22.8,6,24.7,8.1,24.7z"/>
	<path class="st2" d="M11.2,13.9h1.5V7.3c0-2.3-1.7-4.1-3.8-4.1H8.1C6.8,3.2,5.6,3.9,4.9,5c0.4-0.2,0.8-0.3,1.3-0.3
		C9,4.7,11.2,8.8,11.2,13.9z"/>
	<path class="st3" d="M11.2,13.9c0,5.1-2.3,9.2-5.1,9.2c-0.4,0-0.9-0.1-1.3-0.3c0.7,1.1,1.9,1.8,3.2,1.8h0.8c2.1,0,3.8-1.8,3.8-4.1
		v-6.6L11.2,13.9L11.2,13.9z"/>
	<path class="st4" d="M8.4,2.5h0.8c2.4,0,4.4,2.1,4.4,4.7v13.3c0,2.6-2,4.7-4.4,4.7H8.4C6,25.3,4,23.2,4,20.6V7.3
		C4,4.7,6,2.5,8.4,2.5z M9.2,24.1c1.8,0,3.2-1.6,3.2-3.5V7.3c0-1.9-1.4-3.5-3.2-3.5H8.4c-1.8,0-3.2,1.6-3.2,3.5v13.3
		c0,1.9,1.4,3.5,3.2,3.5H9.2z"/>
	<path class="st4" d="M4.9,13.3h8.2c0.3,0,0.6,0.3,0.6,0.6s-0.3,0.6-0.6,0.6H4.9c-0.3,0-0.6-0.3-0.6-0.6S4.6,13.3,4.9,13.3z"/>
</g>
<g>
	<path class="st0" d="M86.6,113.5c0-2.3-1.7-4.1-3.8-4.1H82c-2.1,0-3.8,1.8-3.8,4.1v6.6h8.5L86.6,113.5L86.6,113.5z"/>
	<path class="st1" d="M81.9,130.9h0.8c2.1,0,3.8-1.8,3.8-4.1v-6.6H78v6.6C78.1,129,79.8,130.9,81.9,130.9z"/>
	<path class="st2" d="M85.1,120.1h1.5v-6.6c0-2.3-1.7-4.1-3.8-4.1H82c-1.3,0-2.5,0.7-3.2,1.8c0.4-0.2,0.8-0.3,1.3-0.3
		C82.8,110.9,85.1,115,85.1,120.1z"/>
	<path class="st3" d="M85.1,120.1c0,5.1-2.3,9.2-5.1,9.2c-0.4,0-0.9-0.1-1.3-0.3c0.7,1.1,1.9,1.8,3.2,1.8h0.8c2.1,0,3.8-1.8,3.8-4.1
		v-6.6L85.1,120.1L85.1,120.1z"/>
	<path class="st4" d="M82.2,108.7H83c2.4,0,4.4,2.1,4.4,4.7v13.3c0,2.6-2,4.7-4.4,4.7h-0.8c-2.4,0-4.4-2.1-4.4-4.7v-13.3
		C77.8,110.9,79.8,108.7,82.2,108.7z M83.1,130.2c1.8,0,3.2-1.6,3.2-3.5v-13.3c0-1.9-1.4-3.5-3.2-3.5h-0.8c-1.8,0-3.2,1.6-3.2,3.5
		v13.3c0,1.9,1.4,3.5,3.2,3.5H83.1z"/>
	<path class="st4" d="M78.8,119.5H87c0.3,0,0.6,0.3,0.6,0.6c0,0.3-0.3,0.6-0.6,0.6h-8.2c-0.3,0-0.6-0.3-0.6-0.6
		C78.1,119.8,78.4,119.5,78.8,119.5z"/>
</g>
<g>
	<path class="st0" d="M37.9,113.5c0-2.3-1.7-4.1-3.8-4.1h-0.8c-2.1,0-3.8,1.8-3.8,4.1v6.6H38L37.9,113.5L37.9,113.5z"/>
	<path class="st1" d="M33.2,130.9H34c2.1,0,3.8-1.8,3.8-4.1v-6.6h-8.5v6.6C29.4,129,31.1,130.9,33.2,130.9z"/>
	<path class="st2" d="M36.4,120.1h1.5v-6.6c0-2.3-1.7-4.1-3.8-4.1h-0.8c-1.3,0-2.5,0.7-3.2,1.8c0.4-0.2,0.8-0.3,1.3-0.3
		C34.1,110.9,36.4,115,36.4,120.1z"/>
	<path class="st3" d="M36.4,120.1c0,5.1-2.3,9.2-5.1,9.2c-0.4,0-0.9-0.1-1.3-0.3c0.7,1.1,1.9,1.8,3.2,1.8H34c2.1,0,3.8-1.8,3.8-4.1
		v-6.6L36.4,120.1L36.4,120.1z"/>
	<path class="st4" d="M33.6,108.7h0.8c2.4,0,4.4,2.1,4.4,4.7v13.3c0,2.6-2,4.7-4.4,4.7h-0.8c-2.4,0-4.4-2.1-4.4-4.7v-13.3
		C29.1,110.9,31.1,108.7,33.6,108.7z M34.4,130.2c1.8,0,3.2-1.6,3.2-3.5v-13.3c0-1.9-1.4-3.5-3.2-3.5h-0.8c-1.8,0-3.2,1.6-3.2,3.5
		v13.3c0,1.9,1.4,3.5,3.2,3.5H34.4z"/>
	<path class="st4" d="M30.1,119.5h8.2c0.3,0,0.6,0.3,0.6,0.6c0,0.3-0.3,0.6-0.6,0.6h-8.2c-0.3,0-0.6-0.3-0.6-0.6
		C29.4,119.8,29.7,119.5,30.1,119.5z"/>
</g>
<g>
	<path class="st0" d="M135.3,113.5c0-2.3-1.7-4.1-3.8-4.1h-0.8c-2.1,0-3.8,1.8-3.8,4.1v6.6h8.5L135.3,113.5L135.3,113.5z"/>
	<path class="st1" d="M130.6,130.9h0.8c2.1,0,3.8-1.8,3.8-4.1v-6.6h-8.5v6.6C126.8,129,128.5,130.9,130.6,130.9z"/>
	<path class="st2" d="M133.8,120.1h1.5v-6.6c0-2.3-1.7-4.1-3.8-4.1h-0.8c-1.3,0-2.5,0.7-3.2,1.8c0.4-0.2,0.8-0.3,1.3-0.3
		C131.5,110.9,133.8,115,133.8,120.1z"/>
	<path class="st3" d="M133.8,120.1c0,5.1-2.3,9.2-5.1,9.2c-0.4,0-0.9-0.1-1.3-0.3c0.7,1.1,1.9,1.8,3.2,1.8h0.8
		c2.1,0,3.8-1.8,3.8-4.1v-6.6L133.8,120.1L133.8,120.1z"/>
	<path class="st4" d="M130.9,108.7h0.8c2.4,0,4.4,2.1,4.4,4.7v13.3c0,2.6-2,4.7-4.4,4.7h-0.8c-2.4,0-4.4-2.1-4.4-4.7v-13.3
		C126.5,110.9,128.5,108.7,130.9,108.7z M131.8,130.2c1.8,0,3.2-1.6,3.2-3.5v-13.3c0-1.9-1.4-3.5-3.2-3.5H131
		c-1.8,0-3.2,1.6-3.2,3.5v13.3c0,1.9,1.4,3.5,3.2,3.5H131.8z"/>
	<path class="st4" d="M127.4,119.5h8.2c0.3,0,0.6,0.3,0.6,0.6c0,0.3-0.3,0.6-0.6,0.6h-8.2c-0.3,0-0.6-0.3-0.6-0.6
		C126.8,119.8,127.1,119.5,127.4,119.5z"/>
</g>
<g>
	<path class="st0" d="M62.2,113.5c0-2.3-1.7-4.1-3.8-4.1h-0.8c-2.1,0-3.8,1.8-3.8,4.1v6.6h8.5v-6.6H62.2z"/>
	<path class="st1" d="M57.6,130.9h0.8c2.1,0,3.8-1.8,3.8-4.1v-6.6h-8.5v6.6C53.7,129,55.5,130.9,57.6,130.9z"/>
	<path class="st2" d="M60.7,120.1h1.5v-6.6c0-2.3-1.7-4.1-3.8-4.1h-0.8c-1.3,0-2.5,0.7-3.2,1.8c0.4-0.2,0.8-0.3,1.3-0.3
		C58.5,110.9,60.7,115,60.7,120.1z"/>
	<path class="st3" d="M60.7,120.1c0,5.1-2.3,9.2-5.1,9.2c-0.4,0-0.9-0.1-1.3-0.3c0.7,1.1,1.9,1.8,3.2,1.8h0.8c2.1,0,3.8-1.8,3.8-4.1
		v-6.6L60.7,120.1L60.7,120.1z"/>
	<path class="st4" d="M57.9,108.7h0.8c2.4,0,4.4,2.1,4.4,4.7v13.3c0,2.6-2,4.7-4.4,4.7h-0.8c-2.4,0-4.4-2.1-4.4-4.7v-13.3
		C53.5,110.9,55.5,108.7,57.9,108.7z M58.8,130.2c1.8,0,3.2-1.6,3.2-3.5v-13.3c0-1.9-1.4-3.5-3.2-3.5H58c-1.8,0-3.2,1.6-3.2,3.5
		v13.3c0,1.9,1.4,3.5,3.2,3.5H58.8z"/>
	<path class="st4" d="M54.4,119.5h8.2c0.3,0,0.6,0.3,0.6,0.6c0,0.3-0.3,0.6-0.6,0.6h-8.2c-0.3,0-0.6-0.3-0.6-0.6
		C53.8,119.8,54.1,119.5,54.4,119.5z"/>
</g>
<g>
	<path class="st0" d="M110.9,113.5c0-2.3-1.7-4.1-3.8-4.1h-0.8c-2.1,0-3.8,1.8-3.8,4.1v6.6h8.5L110.9,113.5L110.9,113.5z"/>
	<path class="st1" d="M106.3,130.9h0.8c2.1,0,3.8-1.8,3.8-4.1v-6.6h-8.5v6.6C102.4,129,104.1,130.9,106.3,130.9z"/>
	<path class="st2" d="M109.4,120.1h1.5v-6.6c0-2.3-1.7-4.1-3.8-4.1h-0.8c-1.3,0-2.5,0.7-3.2,1.8c0.4-0.2,0.8-0.3,1.3-0.3
		C107.2,110.9,109.4,115,109.4,120.1z"/>
	<path class="st3" d="M109.4,120.1c0,5.1-2.3,9.2-5.1,9.2c-0.4,0-0.9-0.1-1.3-0.3c0.7,1.1,1.9,1.8,3.2,1.8h0.8
		c2.1,0,3.8-1.8,3.8-4.1v-6.6L109.4,120.1L109.4,120.1z"/>
	<path class="st4" d="M106.6,108.7h0.8c2.4,0,4.4,2.1,4.4,4.7v13.3c0,2.6-2,4.7-4.4,4.7h-0.8c-2.4,0-4.4-2.1-4.4-4.7v-13.3
		C102.2,110.9,104.1,108.7,106.6,108.7z M107.4,130.2c1.8,0,3.2-1.6,3.2-3.5v-13.3c0-1.9-1.4-3.5-3.2-3.5h-0.8
		c-1.8,0-3.2,1.6-3.2,3.5v13.3c0,1.9,1.4,3.5,3.2,3.5H107.4z"/>
	<path class="st4" d="M103.1,119.5h8.2c0.3,0,0.6,0.3,0.6,0.6c0,0.3-0.3,0.6-0.6,0.6h-8.2c-0.3,0-0.6-0.3-0.6-0.6
		S102.8,119.5,103.1,119.5z"/>
</g>
<g>
	<path class="st0" d="M13.5,113.5c0-2.3-1.7-4.1-3.8-4.1H8.9c-2.1,0-3.8,1.8-3.8,4.1v6.6h8.5L13.5,113.5L13.5,113.5z"/>
	<path class="st1" d="M8.9,130.9h0.8c2.1,0,3.8-1.8,3.8-4.1v-6.6H5v6.6C5.1,129,6.8,130.9,8.9,130.9z"/>
	<path class="st2" d="M12.1,120.1h1.5v-6.6c0-2.3-1.7-4.1-3.8-4.1H8.9c-1.3,0-2.5,0.7-3.2,1.8c0.4-0.2,0.8-0.3,1.3-0.3
		C9.8,110.9,12.1,115,12.1,120.1z"/>
	<path class="st3" d="M12.1,120.1c0,5.1-2.3,9.2-5.1,9.2c-0.4,0-0.9-0.1-1.3-0.3c0.7,1.1,1.9,1.8,3.2,1.8h0.8c2.1,0,3.8-1.8,3.8-4.1
		v-6.6L12.1,120.1L12.1,120.1z"/>
	<path class="st4" d="M9.2,108.7H10c2.4,0,4.4,2.1,4.4,4.7v13.3c0,2.6-2,4.7-4.4,4.7H9.2c-2.4,0-4.4-2.1-4.4-4.7v-13.3
		C4.8,110.9,6.8,108.7,9.2,108.7z M10.1,130.2c1.8,0,3.2-1.6,3.2-3.5v-13.3c0-1.9-1.4-3.5-3.2-3.5H9.2c-1.8,0-3.2,1.6-3.2,3.5v13.3
		c0,1.9,1.4,3.5,3.2,3.5H10.1z"/>
	<path class="st4" d="M5.7,119.5h8.2c0.3,0,0.6,0.3,0.6,0.6c0,0.3-0.3,0.6-0.6,0.6H5.7c-0.3,0-0.6-0.3-0.6-0.6S5.4,119.5,5.7,119.5z
		"/>
</g>
<g>
	<g>
		<path class="st5" d="M27.4,66.7c-3.3-1.2-7.1-1.7-10.7-0.9c-1.1,0.2-2,0.5-3,0.9c-2.8,1.3-5.3,3.6-7,6.2
			c-2.6,4.4-3.9,9.7-2.1,14.7c0.5,1.3,1.1,2.7,1.9,3.8c2,3.1,5,5.1,8.4,6.5c0.9,0.4,1.9,0.7,2.8,0.8c5.2,1.2,11,0,15.4-3.1
			c1.2-0.8,2.2-1.9,3.2-3c3.7-4.3,4.4-10.2,2.1-15.3c-1.5-3.4-3.9-6.6-7-8.8c-0.8-0.6-1.9-1.1-2.8-1.5C28.2,67,27.7,66.9,27.4,66.7z
			"/>
		<path class="st6" d="M21.9,99.3L21.9,99.3c-1.4,0-2.8-0.1-4.3-0.5c-1.1-0.2-2-0.6-2.8-0.9c-3.7-1.3-6.5-3.6-8.4-6.4
			c-0.7-1.1-1.3-2.4-1.9-3.9c-1.6-4.5-0.8-9.7,2.2-14.8c1.7-2.7,4.1-5,7-6.3c0.9-0.4,2-0.7,3-0.9c1.1-0.2,2.1-0.4,3.3-0.4
			c2.4,0,5,0.5,7.5,1.3c0.4,0.1,0.8,0.2,1.2,0.5c1.1,0.5,2,0.9,2.8,1.5c3,2,5.4,5.1,7.1,8.9c2.4,5.3,1.5,11.2-2.1,15.4
			c-0.9,1.1-2,2.1-3.2,3C30,98.1,26,99.3,21.9,99.3z M20,65.6c-1.2,0-2.2,0.1-3.3,0.4c-1.1,0.2-2,0.5-3,0.9
			c-2.7,1.2-5.3,3.4-6.9,6.2c-3,5-3.7,10.2-2.1,14.6c0.5,1.5,1.2,2.8,1.8,3.8c1.9,2.8,4.7,5,8.3,6.4c0.8,0.4,1.8,0.6,2.8,0.8
			c1.3,0.4,2.7,0.5,4.1,0.5l0,0c4,0,7.9-1.3,11.1-3.6c1.2-0.8,2.2-1.9,3.2-2.8c3.6-4.1,4.4-9.9,2.1-15.2c-1.7-3.7-4-6.6-7-8.8
			c-0.8-0.6-1.8-1.1-2.8-1.5c-0.4-0.1-0.8-0.4-1.2-0.5C24.9,66,22.4,65.6,20,65.6z"/>
	</g>
	<path class="st7" d="M27,67.3c-3.2-1.1-6.7-1.7-10.2-0.9c-0.9,0.2-1.9,0.5-2.8,0.8c-2.7,1.2-5.1,3.3-6.6,5.9
		c-2.5,4.3-3.7,9.4-2,14.1c0.5,1.2,1.1,2.6,1.8,3.7c1.9,2.8,4.7,4.9,7.9,6.2c0.8,0.4,1.8,0.6,2.7,0.8c5,1.2,10.5,0,14.7-3
		c1.1-0.8,2.1-1.8,3.1-2.7c3.6-4,4.1-9.7,2-14.6c-1.4-3.3-3.7-6.3-6.7-8.4c-0.9-0.6-1.9-1-2.8-1.4C27.7,67.6,27.4,67.5,27,67.3z"/>
	<g>
		<path class="st8" d="M26.8,68.4c-3-1.1-6.4-1.5-9.6-0.9c-0.9,0.1-1.8,0.5-2.6,0.8c-2.6,1-4.9,3.2-6.2,5.5c-2.3,4-3.5,8.8-1.9,13.2
			c0.4,1.2,0.9,2.4,1.7,3.4c1.8,2.7,4.5,4.6,7.5,5.8c0.8,0.4,1.7,0.6,2.6,0.8c4.6,1.1,9.9,0,13.7-2.7c1.1-0.7,2-1.7,2.8-2.6
			c3.3-3.8,3.9-9.1,1.9-13.6c-1.4-3.1-3.4-5.9-6.3-7.8c-0.8-0.6-1.7-0.9-2.5-1.3C27.5,68.6,27.1,68.5,26.8,68.4z"/>
		<path class="st9" d="M21.9,97.8L21.9,97.8c-1.3,0-2.6-0.1-3.8-0.5c-0.9-0.2-1.8-0.5-2.6-0.8c-3.3-1.3-5.8-3.3-7.6-5.9
			c-0.6-0.9-1.2-2.1-1.7-3.4c-1.4-4-0.7-8.9,2-13.4c1.4-2.5,3.8-4.5,6.4-5.7c0.8-0.4,1.8-0.7,2.7-0.8c0.9-0.2,2-0.2,3-0.2
			c2.1,0,4.5,0.4,6.6,1.2c0.4,0.1,0.7,0.2,1.1,0.4c0.9,0.4,1.8,0.8,2.6,1.4c2.7,1.9,5,4.6,6.4,7.9c2.1,4.9,1.4,10.2-1.9,14
			c-0.8,0.9-1.9,1.9-3,2.6C29.2,96.6,25.6,97.8,21.9,97.8z M20.2,67.5c-0.9,0-2,0.1-2.8,0.2c-0.9,0.1-1.8,0.5-2.6,0.8
			c-2.5,1.1-4.6,3.1-6,5.4c-1.5,2.6-3.8,7.7-2,12.9c0.5,1.3,1.1,2.5,1.7,3.3c1.7,2.5,4.1,4.5,7.3,5.7c0.8,0.4,1.7,0.6,2.5,0.8
			c1.2,0.2,2.4,0.5,3.7,0.5c3.6,0,7.1-1.1,9.8-3.2c1.1-0.7,2-1.7,2.8-2.6c3.2-3.7,3.9-8.8,1.9-13.4c-1.4-3.3-3.6-5.9-6.2-7.7
			c-0.7-0.5-1.5-0.9-2.5-1.3c-0.4-0.1-0.7-0.2-1.1-0.4C24.5,67.8,22.3,67.5,20.2,67.5z"/>
	</g>
	<path class="st10" d="M36.6,78c-1.4-3.1-3.4-5.9-6.3-7.8c-0.8-0.6-1.7-0.9-2.5-1.3c-0.4-0.1-0.7-0.2-1.1-0.4
		c-2.4-0.8-4.9-1.3-7.3-1.2c0.6,0,1.3,0.1,1.9,0.2c0.4,0.1,0.6,0.1,0.8,0.2c1.9,0.2,3.8,0.8,5.4,1.8c2.4,1.3,4.5,3.3,5,6.2
		c0.6,3-0.1,6.4-1.5,9c-1.9,3.9-5.3,6.9-9.5,8.2C17.8,94,14,93.8,11,91.5c-4.1-3.4-6-9.8-4-14.9c-1.3,3.3-1.8,7-0.6,10.4
		c0.4,1.2,0.9,2.4,1.7,3.4c1.8,2.7,4.5,4.6,7.5,5.8c0.8,0.4,1.7,0.6,2.6,0.8c4.6,1.1,9.9,0,13.7-2.7c1.1-0.7,2-1.7,2.8-2.6
		C38,87.8,38.6,82.5,36.6,78z"/>
	<path class="st5" d="M14.4,75.7c-1.3-1.1-2.8-0.7-3.8,0.4c-0.9,0.6-1.6,1.7-1.7,2.6c-0.2,1.8,1.1,3.7,3,3.6
		c1.4-0.1,2.6-1.3,3.1-2.5C15.5,78.5,15.5,76.8,14.4,75.7z"/>
	<path class="st11" d="M14.4,75.7c-0.5-0.5-1.1-0.6-1.5-0.6c0,0,0,0-0.1,0c0.4,0,0.8,0.1,1.1,0.4c0.5,0.5,1.1,1.2,0.9,1.9
		c-0.2,1.2-1.8,1.1-2.2,2c-0.4,0.7-0.8,1.3-1.8,1.3c-0.9,0-1.8-0.8-1.9-1.7c0,1.7,1.2,3.3,3,3.1c1.4-0.1,2.6-1.3,3.1-2.5
		C15.5,78.5,15.5,76.8,14.4,75.7z"/>
	<path class="st12" d="M14.1,76.5c-0.4-1.4-2.1-1.1-3-0.4s-1.7,2.1-1.1,3.3c0,0.1,0.1,0,0.1-0.1c-0.1-0.9,0.4-1.9,1.1-2.5
		c0.4-0.4,0.7-0.5,1.2-0.6s0.8,0.4,1.2,0.6C13.9,76.9,14.1,76.7,14.1,76.5z"/>
</g>
<g>
	<g>
		<path class="st5" d="M122.8,66.7c-3.3-1.2-7.1-1.7-10.7-0.9c-1.1,0.2-2,0.5-3,0.9c-2.8,1.3-5.3,3.6-7,6.2
			c-2.6,4.4-3.9,9.7-2.1,14.7c0.5,1.3,1.1,2.7,1.9,3.8c2,3.1,5,5.1,8.4,6.5c0.9,0.4,1.9,0.7,2.8,0.8c5.2,1.2,11,0,15.4-3.1
			c1.2-0.8,2.2-1.9,3.2-3c3.7-4.3,4.4-10.2,2.1-15.3c-1.5-3.4-3.9-6.6-7-8.8c-0.8-0.6-1.9-1.1-2.8-1.5
			C123.6,66.9,123.1,66.8,122.8,66.7z"/>
		<path class="st6" d="M117.3,99.3L117.3,99.3c-1.4,0-2.8-0.1-4.3-0.5c-1.1-0.2-2-0.6-2.8-0.9c-3.7-1.3-6.5-3.6-8.4-6.4
			c-0.7-1.1-1.3-2.4-1.9-3.9c-1.7-4.5-0.8-9.7,2.1-14.8c1.7-2.7,4.1-5,7-6.3c0.9-0.4,2-0.7,3-0.9c1.1-0.2,2.1-0.4,3.3-0.4
			c2.4,0,5,0.5,7.5,1.3c0.4,0.1,0.8,0.2,1.2,0.5c1.1,0.5,2,0.9,2.8,1.5c3,2,5.4,5.1,7.1,8.9c2.4,5.3,1.5,11.2-2.1,15.4
			c-0.9,1.1-2,2.1-3.2,3C125.4,98.1,121.3,99.3,117.3,99.3z M115.4,65.5c-1.2,0-2.2,0.1-3.3,0.4c-1.1,0.2-2,0.5-3,0.9
			c-2.7,1.2-5.3,3.4-6.9,6.2c-3,5-3.7,10.2-2.1,14.6c0.5,1.5,1.2,2.8,1.8,3.8c1.9,2.8,4.7,5,8.3,6.4c0.8,0.4,1.8,0.6,2.8,0.8
			c1.3,0.4,2.7,0.5,4.1,0.5l0,0c4,0,7.9-1.3,11.1-3.6c1.2-0.8,2.2-1.9,3.2-2.8c3.6-4.1,4.4-9.9,2.1-15.2c-1.7-3.7-4-6.6-7-8.8
			c-0.8-0.6-1.8-1.1-2.8-1.5c-0.4-0.1-0.8-0.4-1.2-0.5C120.3,66,117.8,65.5,115.4,65.5z"/>
	</g>
	<path class="st7" d="M122.4,67.3c-3.2-1.1-6.7-1.7-10.2-0.9c-0.9,0.2-1.9,0.5-2.8,0.8c-2.7,1.2-5.1,3.3-6.6,5.9
		c-2.5,4.3-3.7,9.4-2,14.1c0.5,1.2,1.1,2.6,1.8,3.7c1.9,2.8,4.7,4.9,7.9,6.2c0.8,0.4,1.8,0.6,2.7,0.8c5,1.2,10.5,0,14.7-3
		c1.1-0.8,2.1-1.8,3.1-2.7c3.6-4,4.1-9.7,2-14.6c-1.4-3.3-3.7-6.3-6.7-8.4c-0.8-0.6-1.8-1.1-2.7-1.4
		C123.1,67.5,122.8,67.4,122.4,67.3z"/>
	<g>
		<path class="st8" d="M122.2,68.4c-3-1.1-6.4-1.5-9.6-0.9c-0.9,0.1-1.8,0.5-2.6,0.8c-2.6,1.1-4.9,3.2-6.2,5.6
			c-2.4,3.9-3.6,8.8-1.9,13.1c0.4,1.2,0.9,2.4,1.7,3.4c1.8,2.7,4.5,4.6,7.5,5.8c0.8,0.4,1.7,0.6,2.6,0.8c4.6,1.1,9.9,0,13.7-2.7
			c1.1-0.7,2-1.7,2.8-2.6c3.3-3.8,3.9-9.1,1.9-13.6c-1.4-3.1-3.4-5.9-6.3-7.8c-0.8-0.6-1.7-0.9-2.5-1.3
			C122.9,68.6,122.5,68.5,122.2,68.4z"/>
		<path class="st9" d="M117.3,97.7L117.3,97.7c-1.3,0-2.6-0.1-3.8-0.5c-0.9-0.2-1.8-0.5-2.6-0.8c-3.3-1.3-5.8-3.3-7.6-5.9
			c-0.6-0.9-1.2-2.1-1.7-3.4c-1.4-4-0.7-8.9,2-13.4c1.4-2.5,3.8-4.5,6.4-5.7c0.8-0.4,1.8-0.7,2.7-0.8c0.9-0.2,2-0.2,3-0.2
			c2.1,0,4.5,0.4,6.6,1.2c0.4,0.1,0.7,0.2,1.1,0.4c0.9,0.4,1.8,0.8,2.6,1.4c2.7,1.9,5,4.6,6.4,7.9c2.1,4.9,1.4,10.2-1.9,14
			c-0.8,0.9-1.9,1.9-3,2.6C124.5,96.5,121,97.7,117.3,97.7z M115.5,67.4c-0.9,0-2,0.1-2.8,0.2c-0.9,0.1-1.8,0.5-2.6,0.8
			c-2.5,1.1-4.6,3.1-6,5.4c-1.5,2.6-3.8,7.7-2,12.9c0.5,1.3,1.1,2.5,1.7,3.3c1.7,2.5,4.1,4.5,7.3,5.7c0.8,0.4,1.7,0.6,2.5,0.8
			c1.2,0.2,2.4,0.5,3.7,0.5c3.6,0,7.1-1.1,9.8-3.2c1.1-0.7,2-1.7,2.8-2.6c3.2-3.7,3.9-8.8,1.9-13.4c-1.4-3.3-3.6-5.9-6.2-7.7
			c-0.7-0.5-1.5-0.9-2.5-1.3c-0.4-0.1-0.7-0.2-1.1-0.4C119.9,67.8,117.7,67.4,115.5,67.4z"/>
	</g>
	<path class="st10" d="M132,78c-1.4-3.1-3.4-5.9-6.3-7.8c-0.8-0.6-1.7-0.9-2.5-1.3c-0.4-0.1-0.7-0.2-1.1-0.4
		c-2.4-0.8-4.9-1.3-7.3-1.2c0.6,0,1.3,0.1,1.9,0.2c0.4,0.1,0.6,0.1,0.8,0.2c1.9,0.2,3.8,0.8,5.4,1.8c2.4,1.3,4.5,3.3,5,6.2
		c0.6,3-0.1,6.4-1.5,9c-1.9,3.9-5.3,6.9-9.5,8.2c-3.7,1.1-7.5,0.9-10.5-1.4c-4.1-3.4-6-9.8-4-14.9c-1.3,3.3-1.8,7-0.6,10.4
		c0.4,1.2,0.9,2.4,1.7,3.4c1.8,2.7,4.5,4.6,7.5,5.8c0.8,0.4,1.7,0.6,2.6,0.8c4.6,1.1,9.9,0,13.7-2.7c1.1-0.7,2-1.7,2.8-2.6
		C133.4,87.8,134,82.5,132,78z"/>
	<path class="st5" d="M109.7,75.7c-1.3-1.1-2.8-0.7-3.8,0.4c-0.8,0.6-1.5,1.7-1.7,2.6c-0.2,1.8,1.1,3.7,3,3.6
		c1.4-0.1,2.6-1.3,3.1-2.5C110.9,78.4,110.9,76.8,109.7,75.7z"/>
	<path class="st11" d="M109.7,75.7c-0.5-0.5-1.1-0.6-1.5-0.6c0,0,0,0-0.1,0c0.4,0,0.8,0.1,1.1,0.4c0.5,0.5,1.1,1.2,0.9,1.9
		c-0.2,1.2-1.8,1.1-2.2,2c-0.4,0.7-0.8,1.3-1.8,1.3s-1.8-0.8-1.9-1.7c0,1.7,1.2,3.3,3,3.1c1.4-0.1,2.6-1.3,3.1-2.5
		C110.9,78.4,110.9,76.8,109.7,75.7z"/>
	<path class="st12" d="M109.5,76.4c-0.4-1.4-2.1-1.1-3-0.4s-1.7,2.1-1.1,3.3c0,0.1,0.1,0,0.1-0.1c-0.1-0.9,0.4-1.9,1.1-2.5
		c0.4-0.4,0.7-0.5,1.2-0.6s0.8,0.4,1.2,0.6C109.3,76.9,109.5,76.7,109.5,76.4z"/>
</g>
<g>
	<g>
		<path class="st5" d="M75.1,66.7c-3.3-1.2-7.1-1.7-10.7-0.9c-1.1,0.2-2,0.5-3,0.9c-2.8,1.3-5.3,3.6-7,6.2
			c-2.6,4.4-3.9,9.7-2.1,14.7c0.5,1.3,1.1,2.7,1.9,3.8c2,3.1,5,5.1,8.4,6.5c0.9,0.4,1.9,0.7,2.8,0.8c5.2,1.2,11,0,15.4-3.1
			c1.2-0.8,2.2-1.9,3.2-3c3.7-4.3,4.4-10.2,2.1-15.3c-1.5-3.4-3.9-6.6-7-8.8c-0.8-0.6-1.9-1.1-2.8-1.5
			C75.9,66.9,75.4,66.8,75.1,66.7z"/>
		<path class="st6" d="M69.6,99.3L69.6,99.3c-1.4,0-2.8-0.1-4.3-0.5c-1.1-0.2-2-0.6-2.8-0.9c-3.7-1.3-6.5-3.6-8.4-6.4
			c-0.7-1.1-1.3-2.4-1.9-3.9c-1.7-4.5-0.8-9.7,2.1-14.8c1.7-2.7,4.1-5,7-6.3c0.9-0.4,2-0.7,3-0.9c1.1-0.2,2.1-0.4,3.3-0.4
			c2.4,0,5,0.5,7.5,1.3c0.4,0.1,0.8,0.2,1.2,0.5c1.1,0.5,2,0.9,2.8,1.5c3,2,5.4,5.1,7.1,8.9c2.4,5.3,1.5,11.2-2.1,15.4
			c-0.9,1.1-2,2.1-3.2,3C77.7,98.1,73.6,99.3,69.6,99.3z M67.7,65.5c-1.2,0-2.2,0.1-3.3,0.4c-1.1,0.2-2,0.5-3,0.9
			c-2.7,1.2-5.3,3.4-6.9,6.2c-3,5-3.7,10.2-2.1,14.6c0.5,1.5,1.2,2.8,1.8,3.8c1.9,2.8,4.7,5,8.3,6.4c0.8,0.4,1.8,0.6,2.8,0.8
			c1.3,0.4,2.7,0.5,4.1,0.5l0,0c4,0,7.9-1.3,11.1-3.6c1.2-0.8,2.2-1.9,3.2-2.8c3.6-4.1,4.4-9.9,2.1-15.2c-1.7-3.7-4-6.6-7-8.8
			C78,68.1,77,67.6,76,67.2c-0.4-0.1-0.8-0.4-1.2-0.5C72.6,66,70.1,65.5,67.7,65.5z"/>
	</g>
	<path class="st7" d="M74.7,67.3c-3.2-1.1-6.7-1.7-10.2-0.9c-0.9,0.2-1.9,0.5-2.8,0.8c-2.7,1.2-5.1,3.3-6.6,5.9
		c-2.5,4.3-3.7,9.4-2,14.1c0.5,1.2,1.1,2.6,1.8,3.7c1.9,2.8,4.7,4.9,7.9,6.2c0.8,0.4,1.8,0.6,2.7,0.8c5,1.2,10.5,0,14.7-3
		c1.1-0.8,2.1-1.8,3.1-2.7c3.6-4,4.1-9.7,2-14.6c-1.4-3.3-3.7-6.3-6.7-8.4c-0.8-0.6-1.8-1.1-2.7-1.4C75.4,67.5,75.1,67.4,74.7,67.3z
		"/>
	<g>
		<path class="st8" d="M74.5,68.4c-3-1.1-6.4-1.5-9.6-0.9c-0.9,0.1-1.8,0.5-2.6,0.8c-2.6,1.1-4.9,3.2-6.2,5.6
			c-2.4,3.9-3.6,8.8-1.9,13.1c0.4,1.2,0.9,2.4,1.7,3.4c1.8,2.7,4.5,4.6,7.5,5.8c0.8,0.4,1.7,0.6,2.6,0.8c4.6,1.1,9.9,0,13.7-2.7
			c1.1-0.7,2-1.7,2.8-2.6c3.3-3.8,3.9-9.1,1.9-13.6C83,75,81,72.2,78.1,70.3c-0.8-0.6-1.7-0.9-2.5-1.3
			C75.2,68.6,74.8,68.5,74.5,68.4z"/>
		<path class="st9" d="M69.6,97.7L69.6,97.7c-1.3,0-2.6-0.1-3.8-0.5c-0.9-0.2-1.8-0.5-2.6-0.8c-3.3-1.3-5.8-3.3-7.6-5.9
			c-0.6-0.9-1.2-2.1-1.7-3.4c-1.4-4-0.7-8.9,2-13.4c1.4-2.5,3.8-4.5,6.4-5.7c0.8-0.4,1.8-0.7,2.7-0.8c0.9-0.2,2-0.2,3-0.2
			c2.1,0,4.5,0.4,6.6,1.2c0.4,0.1,0.7,0.2,1.1,0.4c0.9,0.4,1.8,0.8,2.6,1.4c2.7,1.9,5,4.6,6.4,7.9c2.1,4.9,1.4,10.2-1.9,14
			c-0.8,0.9-1.9,1.9-3,2.6C76.8,96.5,73.3,97.7,69.6,97.7z M67.8,67.4c-0.9,0-2,0.1-2.8,0.2c-0.9,0.1-1.8,0.5-2.6,0.8
			c-2.5,1.1-4.6,3.1-6,5.4c-1.5,2.6-3.8,7.7-2,12.9c0.5,1.3,1.1,2.5,1.7,3.3c1.7,2.5,4.1,4.5,7.3,5.7c0.8,0.4,1.7,0.6,2.5,0.8
			c1.2,0.2,2.4,0.5,3.7,0.5c3.6,0,7.1-1.1,9.8-3.2c1.1-0.7,2-1.7,2.8-2.6c3.2-3.7,3.9-8.8,1.9-13.4c-1.4-3.3-3.6-5.9-6.2-7.7
			c-0.7-0.5-1.5-0.9-2.5-1.3c-0.4-0.1-0.7-0.2-1.1-0.4C72.2,67.8,70,67.4,67.8,67.4z"/>
	</g>
	<path class="st10" d="M84.3,78c-1.4-3.1-3.4-5.9-6.3-7.8c-0.8-0.6-1.7-0.9-2.5-1.3c-0.4-0.1-0.7-0.2-1.1-0.4
		c-2.4-0.8-4.9-1.3-7.3-1.2c0.6,0,1.3,0.1,1.9,0.2c0.4,0.1,0.6,0.1,0.8,0.2c1.9,0.2,3.8,0.8,5.4,1.8c2.4,1.3,4.5,3.3,5,6.2
		c0.6,3-0.1,6.4-1.5,9c-1.9,3.9-5.3,6.9-9.5,8.2c-3.7,1.1-7.5,0.9-10.5-1.4c-4.1-3.4-6-9.8-4-14.9c-1.3,3.3-1.8,7-0.6,10.4
		c0.4,1.2,0.9,2.4,1.7,3.4c1.8,2.7,4.5,4.6,7.5,5.8c0.8,0.4,1.7,0.6,2.6,0.8c4.6,1.1,9.9,0,13.7-2.7c1.1-0.7,2-1.7,2.8-2.6
		C85.7,87.8,86.3,82.5,84.3,78z"/>
	<path class="st5" d="M62,75.7c-1.3-1.1-2.8-0.7-3.8,0.4c-0.8,0.6-1.5,1.7-1.7,2.6c-0.2,1.8,1.1,3.7,3,3.6c1.4-0.1,2.6-1.3,3.1-2.5
		C63.2,78.4,63.2,76.8,62,75.7z"/>
	<path class="st11" d="M62,75.7c-0.5-0.5-1.1-0.6-1.5-0.6c0,0,0,0-0.1,0c0.4,0,0.8,0.1,1.1,0.4c0.5,0.5,1.1,1.2,0.9,1.9
		c-0.2,1.2-1.8,1.1-2.2,2c-0.4,0.7-0.8,1.3-1.8,1.3s-1.8-0.8-1.9-1.7c0,1.7,1.2,3.3,3,3.1c1.4-0.1,2.6-1.3,3.1-2.5
		C63.2,78.4,63.2,76.8,62,75.7z"/>
	<path class="st12" d="M61.8,76.4c-0.4-1.4-2.1-1.1-3-0.4s-1.7,2.1-1.1,3.3c0,0.1,0.1,0,0.1-0.1c-0.1-0.9,0.4-1.9,1.1-2.5
		c0.4-0.4,0.7-0.5,1.2-0.6s0.8,0.4,1.2,0.6C61.6,76.9,61.8,76.7,61.8,76.4z"/>
</g>
<g>
	<g>
		<path class="st5" d="M98.5,39.6c-3.3-1.2-7.1-1.7-10.7-0.9c-1.1,0.2-2,0.5-3,0.9c-2.8,1.3-5.3,3.6-7,6.2
			c-2.6,4.4-3.9,9.7-2.1,14.7c0.5,1.3,1.1,2.7,1.9,3.8c2,3.1,5,5.1,8.4,6.5c0.9,0.4,1.9,0.7,2.8,0.8c5.2,1.2,11,0,15.4-3.1
			c1.2-0.8,2.2-1.9,3.2-3c3.7-4.3,4.4-10.2,2.1-15.3c-1.5-3.4-3.9-6.6-7-8.8c-0.8-0.6-1.9-1.1-2.8-1.5
			C99.3,39.8,98.8,39.7,98.5,39.6z"/>
		<path class="st6" d="M93,72.2L93,72.2c-1.4,0-2.8-0.1-4.3-0.5c-1.1-0.2-2-0.6-2.8-0.9c-3.7-1.3-6.5-3.6-8.4-6.4
			c-0.7-1.1-1.3-2.4-1.9-3.9c-1.7-4.5-0.8-9.7,2.1-14.8c1.7-2.7,4.1-5,7-6.3c0.9-0.4,2-0.7,3-0.9c1.1-0.2,2.1-0.4,3.3-0.4
			c2.4,0,5,0.5,7.5,1.3c0.4,0.1,0.8,0.2,1.2,0.5c1.1,0.5,2,0.9,2.8,1.5c3,2,5.4,5.1,7.1,8.9c2.4,5.3,1.5,11.2-2.1,15.4
			c-0.9,1.1-2,2.1-3.2,3C101.1,71,97,72.2,93,72.2z M91.1,38.4c-1.2,0-2.2,0.1-3.3,0.4c-1.1,0.2-2,0.5-3,0.9
			c-2.7,1.2-5.3,3.4-6.9,6.2c-3,5-3.7,10.2-2.1,14.6c0.5,1.5,1.2,2.8,1.8,3.8c1.9,2.8,4.7,5,8.3,6.4c0.8,0.4,1.8,0.6,2.8,0.8
			c1.3,0.4,2.7,0.5,4.1,0.5l0,0c4,0,7.9-1.3,11.1-3.6c1.2-0.8,2.2-1.9,3.2-2.8c3.6-4.1,4.4-9.9,2.1-15.2c-1.7-3.7-4-6.6-7-8.8
			c-0.8-0.6-1.8-1.1-2.8-1.5c-0.4-0.1-0.8-0.4-1.2-0.5C96,38.9,93.5,38.4,91.1,38.4z"/>
	</g>
	<path class="st7" d="M98.1,40.2c-3.2-1.1-6.7-1.7-10.2-0.9c-0.9,0.2-1.9,0.5-2.8,0.8c-2.7,1.2-5.1,3.3-6.6,5.9
		c-2.5,4.3-3.7,9.4-2,14.1c0.5,1.2,1.1,2.6,1.8,3.7c1.9,2.8,4.7,4.9,7.9,6.2c0.8,0.4,1.8,0.6,2.7,0.8c5,1.2,10.5,0,14.7-3
		c1.1-0.8,2.1-1.8,3.1-2.7c3.6-4,4.1-9.7,2-14.6c-1.4-3.3-3.7-6.3-6.7-8.4c-0.8-0.6-1.8-1.1-2.7-1.4C98.8,40.4,98.5,40.3,98.1,40.2z
		"/>
	<g>
		<path class="st8" d="M97.9,41.3c-3-1.1-6.4-1.5-9.6-0.9c-0.9,0.1-1.8,0.5-2.6,0.8c-2.6,1.1-4.9,3.2-6.2,5.6
			c-2.4,3.9-3.6,8.8-1.9,13.1c0.4,1.2,0.9,2.4,1.7,3.4c1.8,2.7,4.5,4.6,7.5,5.8c0.8,0.4,1.7,0.6,2.6,0.8c4.6,1.1,9.9,0,13.7-2.7
			c1.1-0.7,2-1.7,2.8-2.6c3.3-3.8,3.9-9.1,1.9-13.6c-1.4-3.1-3.4-5.9-6.3-7.8c-0.8-0.6-1.7-0.9-2.5-1.3
			C98.6,41.5,98.2,41.4,97.9,41.3z"/>
		<path class="st9" d="M93,70.6L93,70.6c-1.3,0-2.6-0.1-3.8-0.5c-0.9-0.2-1.8-0.5-2.6-0.8C83.3,68,80.8,66,79,63.4
			c-0.6-0.9-1.2-2.1-1.7-3.4c-1.4-4-0.7-8.9,2-13.4c1.4-2.5,3.8-4.5,6.4-5.7c0.8-0.4,1.8-0.7,2.7-0.8c0.9-0.2,2-0.2,3-0.2
			c2.1,0,4.5,0.4,6.6,1.2c0.4,0.1,0.7,0.2,1.1,0.4c0.9,0.4,1.8,0.8,2.6,1.4c2.7,1.9,5,4.6,6.4,7.9c2.1,4.9,1.4,10.2-1.9,14
			c-0.8,0.9-1.9,1.9-3,2.6C100.2,69.4,96.7,70.6,93,70.6z M91.2,40.3c-0.9,0-2,0.1-2.8,0.2c-0.9,0.1-1.8,0.5-2.6,0.8
			c-2.5,1.1-4.6,3.1-6,5.4c-1.5,2.6-3.8,7.7-2,12.9c0.5,1.3,1.1,2.5,1.7,3.3c1.7,2.5,4.1,4.5,7.3,5.7c0.8,0.4,1.7,0.6,2.5,0.8
			c1.2,0.2,2.4,0.5,3.7,0.5c3.6,0,7.1-1.1,9.8-3.2c1.1-0.7,2-1.7,2.8-2.6c3.2-3.7,3.9-8.8,1.9-13.4c-1.4-3.3-3.6-5.9-6.2-7.7
			c-0.7-0.5-1.5-0.9-2.5-1.3c-0.4-0.1-0.7-0.2-1.1-0.4C95.6,40.7,93.4,40.3,91.2,40.3z"/>
	</g>
	<path class="st10" d="M107.7,50.9c-1.4-3.1-3.4-5.9-6.3-7.8c-0.8-0.6-1.7-0.9-2.5-1.3c-0.4-0.1-0.7-0.2-1.1-0.4
		c-2.4-0.8-4.9-1.3-7.3-1.2c0.6,0,1.3,0.1,1.9,0.2c0.4,0.1,0.6,0.1,0.8,0.2c1.9,0.2,3.8,0.8,5.4,1.8c2.4,1.3,4.5,3.3,5,6.2
		c0.6,3-0.1,6.4-1.5,9c-1.9,3.9-5.3,6.9-9.5,8.2c-3.7,1.1-7.5,0.9-10.5-1.4c-4.1-3.4-6-9.8-4-14.9c-1.3,3.3-1.8,7-0.6,10.4
		c0.4,1.2,0.9,2.4,1.7,3.4c1.8,2.7,4.5,4.6,7.5,5.8c0.8,0.4,1.7,0.6,2.6,0.8c4.6,1.1,9.9,0,13.7-2.7c1.1-0.7,2-1.7,2.8-2.6
		C109.1,60.7,109.7,55.4,107.7,50.9z"/>
	<path class="st5" d="M85.4,48.6c-1.3-1.1-2.8-0.7-3.8,0.4c-0.8,0.6-1.5,1.7-1.7,2.6c-0.2,1.8,1.1,3.7,3,3.6
		c1.4-0.1,2.6-1.3,3.1-2.5C86.6,51.3,86.6,49.7,85.4,48.6z"/>
	<path class="st11" d="M85.4,48.6c-0.5-0.5-1.1-0.6-1.5-0.6c0,0,0,0-0.1,0c0.4,0,0.8,0.1,1.1,0.4c0.5,0.5,1.1,1.2,0.9,1.9
		c-0.2,1.2-1.8,1.1-2.2,2c-0.4,0.7-0.8,1.3-1.8,1.3s-1.8-0.8-1.9-1.7c0,1.7,1.2,3.3,3,3.1c1.4-0.1,2.6-1.3,3.1-2.5
		C86.6,51.3,86.6,49.7,85.4,48.6z"/>
	<path class="st12" d="M85.2,49.3c-0.4-1.4-2.1-1.1-3-0.4s-1.7,2.1-1.1,3.3c0,0.1,0.1,0,0.1-0.1c-0.1-0.9,0.4-1.9,1.1-2.5
		c0.4-0.4,0.7-0.5,1.2-0.6s0.8,0.4,1.2,0.6C85,49.8,85.2,49.6,85.2,49.3z"/>
</g>
<g>
	<g>
		<path class="st5" d="M50.1,39.6c-3.3-1.2-7.1-1.7-10.7-0.9c-1.1,0.2-2,0.5-3,0.9c-2.8,1.3-5.3,3.6-7,6.2
			c-2.6,4.4-3.9,9.7-2.1,14.7c0.5,1.3,1.1,2.7,1.9,3.8c2,3.1,5,5.1,8.4,6.5c0.9,0.4,1.9,0.7,2.8,0.8c5.2,1.2,11,0,15.4-3.1
			c1.2-0.8,2.2-1.9,3.2-3c3.7-4.3,4.4-10.2,2.1-15.3c-1.5-3.4-3.9-6.6-7-8.8c-0.8-0.6-1.9-1.1-2.8-1.5
			C50.9,39.8,50.4,39.7,50.1,39.6z"/>
		<path class="st6" d="M44.6,72.2L44.6,72.2c-1.4,0-2.8-0.1-4.3-0.5c-1.1-0.2-2-0.6-2.8-0.9c-3.7-1.3-6.5-3.6-8.4-6.4
			c-0.7-1.1-1.3-2.4-1.9-3.9c-1.7-4.5-0.8-9.7,2.1-14.8c1.7-2.7,4.1-5,7-6.3c0.9-0.4,2-0.7,3-0.9c1.1-0.2,2.1-0.4,3.3-0.4
			c2.4,0,5,0.5,7.5,1.3c0.4,0.1,0.8,0.2,1.2,0.5c1.1,0.5,2,0.9,2.8,1.5c3,2,5.4,5.1,7.1,8.9c2.4,5.3,1.5,11.2-2.1,15.4
			c-0.9,1.1-2,2.1-3.2,3C52.7,71,48.6,72.2,44.6,72.2z M42.7,38.4c-1.2,0-2.2,0.1-3.3,0.4c-1.1,0.2-2,0.5-3,0.9
			c-2.7,1.2-5.3,3.4-6.9,6.2c-3,5-3.7,10.2-2.1,14.6c0.5,1.5,1.2,2.8,1.8,3.8c1.9,2.8,4.7,5,8.3,6.4c0.8,0.4,1.8,0.6,2.8,0.8
			c1.3,0.4,2.7,0.5,4.1,0.5l0,0c4,0,7.9-1.3,11.1-3.6c1.2-0.8,2.2-1.9,3.2-2.8c3.6-4.1,4.4-9.9,2.1-15.2c-1.7-3.7-4-6.6-7-8.8
			C53,41,52,40.5,51,40.1c-0.4-0.1-0.8-0.4-1.2-0.5C47.6,38.9,45.1,38.4,42.7,38.4z"/>
	</g>
	<path class="st7" d="M49.7,40.2c-3.2-1.1-6.7-1.7-10.2-0.9c-0.9,0.2-1.9,0.5-2.8,0.8c-2.7,1.2-5.1,3.3-6.6,5.9
		c-2.5,4.3-3.7,9.4-2,14.1c0.5,1.2,1.1,2.6,1.8,3.7c1.9,2.8,4.7,4.9,7.9,6.2c0.8,0.4,1.8,0.6,2.7,0.8c5,1.2,10.5,0,14.7-3
		c1.1-0.8,2.1-1.8,3.1-2.7c3.6-4,4.1-9.7,2-14.6c-1.4-3.3-3.7-6.3-6.7-8.4c-0.8-0.6-1.8-1.1-2.7-1.4C50.4,40.4,50.1,40.3,49.7,40.2z
		"/>
	<g>
		<path class="st8" d="M49.5,41.3c-3-1.1-6.4-1.5-9.6-0.9c-0.9,0.1-1.8,0.5-2.6,0.8c-2.6,1.1-4.9,3.2-6.2,5.6
			c-2.4,3.9-3.6,8.8-1.9,13.1c0.4,1.2,0.9,2.4,1.7,3.4c1.8,2.7,4.5,4.6,7.5,5.8c0.8,0.4,1.7,0.6,2.6,0.8c4.6,1.1,9.9,0,13.7-2.7
			c1.1-0.7,2-1.7,2.8-2.6c3.3-3.8,3.9-9.1,1.9-13.6c-1.4-3.1-3.4-5.9-6.3-7.8c-0.8-0.6-1.7-0.9-2.5-1.3
			C50.2,41.5,49.8,41.4,49.5,41.3z"/>
		<path class="st9" d="M44.6,70.6L44.6,70.6c-1.3,0-2.6-0.1-3.8-0.5c-0.9-0.2-1.8-0.5-2.6-0.8c-3.3-1.3-5.8-3.3-7.6-5.9
			c-0.6-0.9-1.2-2.1-1.7-3.4c-1.4-4-0.7-8.9,2-13.4c1.4-2.5,3.8-4.5,6.4-5.7c0.8-0.4,1.8-0.7,2.7-0.8c0.9-0.2,2-0.2,3-0.2
			c2.1,0,4.5,0.4,6.6,1.2c0.4,0.1,0.7,0.2,1.1,0.4c0.9,0.4,1.8,0.8,2.6,1.4c2.7,1.9,5,4.6,6.4,7.9c2.1,4.9,1.4,10.2-1.9,14
			c-0.8,0.9-1.9,1.9-3,2.6C51.8,69.4,48.3,70.6,44.6,70.6z M42.8,40.3c-0.9,0-2,0.1-2.8,0.2c-0.9,0.1-1.8,0.5-2.6,0.8
			c-2.5,1.1-4.6,3.1-6,5.4c-1.5,2.6-3.8,7.7-2,12.9c0.5,1.3,1.1,2.5,1.7,3.3c1.7,2.5,4.1,4.5,7.3,5.7c0.8,0.4,1.7,0.6,2.5,0.8
			c1.2,0.2,2.4,0.5,3.7,0.5c3.6,0,7.1-1.1,9.8-3.2c1.1-0.7,2-1.7,2.8-2.6c3.2-3.7,3.9-8.8,1.9-13.4c-1.4-3.3-3.6-5.9-6.2-7.7
			c-0.7-0.5-1.5-0.9-2.5-1.3c-0.4-0.1-0.7-0.2-1.1-0.4C47.2,40.7,45,40.3,42.8,40.3z"/>
	</g>
	<path class="st10" d="M59.3,50.9c-1.4-3.1-3.4-5.9-6.3-7.8c-0.8-0.6-1.7-0.9-2.5-1.3c-0.4-0.1-0.7-0.2-1.1-0.4
		c-2.4-0.8-4.9-1.3-7.3-1.2c0.6,0,1.3,0.1,1.9,0.2c0.4,0.1,0.6,0.1,0.8,0.2c1.9,0.2,3.8,0.8,5.4,1.8c2.4,1.3,4.5,3.3,5,6.2
		c0.6,3-0.1,6.4-1.5,9c-1.9,3.9-5.3,6.9-9.5,8.2c-3.7,1.1-7.5,0.9-10.5-1.4c-4.1-3.4-6-9.8-4-14.9c-1.3,3.3-1.8,7-0.6,10.4
		c0.4,1.2,0.9,2.4,1.7,3.4c1.8,2.7,4.5,4.6,7.5,5.8c0.8,0.4,1.7,0.6,2.6,0.8c4.6,1.1,9.9,0,13.7-2.7c1.1-0.7,2-1.7,2.8-2.6
		C60.7,60.7,61.3,55.4,59.3,50.9z"/>
	<path class="st5" d="M37,48.6c-1.3-1.1-2.8-0.7-3.8,0.4c-0.8,0.6-1.5,1.7-1.7,2.6c-0.2,1.8,1.1,3.7,3,3.6c1.4-0.1,2.6-1.3,3.1-2.5
		C38.2,51.3,38.2,49.7,37,48.6z"/>
	<path class="st11" d="M37,48.6c-0.5-0.5-1.1-0.6-1.5-0.6c0,0,0,0-0.1,0c0.4,0,0.8,0.1,1.1,0.4c0.5,0.5,1.1,1.2,0.9,1.9
		c-0.2,1.2-1.8,1.1-2.2,2c-0.4,0.7-0.8,1.3-1.8,1.3s-1.8-0.8-1.9-1.7c0,1.7,1.2,3.3,3,3.1c1.4-0.1,2.6-1.3,3.1-2.5
		C38.2,51.3,38.2,49.7,37,48.6z"/>
	<path class="st12" d="M36.8,49.3c-0.4-1.4-2.1-1.1-3-0.4s-1.7,2.1-1.1,3.3c0,0.1,0.1,0,0.1-0.1c-0.1-0.9,0.4-1.9,1.1-2.5
		c0.4-0.4,0.7-0.5,1.2-0.6s0.8,0.4,1.2,0.6C36.6,49.8,36.8,49.6,36.8,49.3z"/>
</g>
</svg>
