<?xml version="1.0" encoding="utf-8"?>
<!-- Generator: Adobe Illustrator 24.1.2, SVG Export Plug-In . SVG Version: 6.00 Build 0)  -->
<svg version="1.1" id="Layer_1" xmlns="http://www.w3.org/2000/svg" xmlns:xlink="http://www.w3.org/1999/xlink" x="0px" y="0px"
	 viewBox="0 0 141 138.8" style="enable-background:new 0 0 141 138.8;" xml:space="preserve">
<style type="text/css">
	.st0{fill:#99D3CB;}
	.st1{fill:#FFF9EF;}
	.st2{fill:#6FCACD;}
	.st3{fill:#DAECCD;}
	.st4{fill:#871C1C;}
	.st5{fill:#FFFFFF;}
	.st6{fill:none;}
	.st7{fill:#87B3E0;}
	.st8{fill:#004E9D;}
</style>
<g>
	<path class="st0" d="M85.1,7.3c0-2.3-1.7-4.1-3.8-4.1h-0.8c-2.1,0-3.8,1.8-3.8,4.1v6.5h8.4L85.1,7.3L85.1,7.3z"/>
	<path class="st1" d="M80.5,24.5h0.8c2.1,0,3.8-1.8,3.8-4.1v-6.5h-8.4v6.5C76.7,22.6,78.4,24.5,80.5,24.5z"/>
	<path class="st2" d="M83.6,13.8h1.5V7.3c0-2.3-1.7-4.1-3.8-4.1h-0.8c-1.3,0-2.5,0.7-3.2,1.8c0.4-0.2,0.8-0.3,1.3-0.3
		C81.4,4.7,83.6,8.7,83.6,13.8z"/>
	<path class="st3" d="M83.6,13.8c0,5.1-2.3,9.1-5.1,9.1c-0.4,0-0.9-0.1-1.3-0.3c0.7,1.1,1.9,1.8,3.2,1.8h0.9c2.1,0,3.8-1.8,3.8-4.1
		v-6.5L83.6,13.8L83.6,13.8z"/>
	<path class="st4" d="M80.8,2.5h0.8C84,2.5,86,4.6,86,7.2v13.2c0,2.6-2,4.7-4.4,4.7h-0.8c-2.4,0-4.4-2.1-4.4-4.7V7.2
		C76.4,4.7,78.4,2.5,80.8,2.5z M81.6,23.9c1.8,0,3.2-1.6,3.2-3.5V7.3c0-1.9-1.4-3.5-3.2-3.5h-0.8c-1.8,0-3.2,1.6-3.2,3.5v13.2
		c0,1.9,1.4,3.5,3.2,3.5h0.8V23.9z"/>
	<path class="st4" d="M77.3,13.2h8.1c0.3,0,0.6,0.3,0.6,0.6s-0.3,0.6-0.6,0.6h-8.1c-0.3,0-0.6-0.3-0.6-0.6S77,13.2,77.3,13.2z"/>
</g>
<g>
	<path class="st0" d="M36.8,7.3c0-2.3-1.7-4.1-3.8-4.1h-0.8c-2.1,0-3.8,1.8-3.8,4.1v6.5h8.4L36.8,7.3L36.8,7.3z"/>
	<path class="st1" d="M32.2,24.5H33c2.1,0,3.8-1.8,3.8-4.1v-6.5h-8.4v6.5C28.4,22.6,30.1,24.5,32.2,24.5z"/>
	<path class="st2" d="M35.3,13.8h1.5V7.3c0-2.3-1.7-4.1-3.8-4.1h-0.8c-1.3,0-2.5,0.7-3.2,1.8c0.4-0.2,0.8-0.3,1.3-0.3
		C33.1,4.7,35.3,8.7,35.3,13.8z"/>
	<path class="st3" d="M35.3,13.8c0,5.1-2.3,9.1-5.1,9.1c-0.4,0-0.9-0.1-1.3-0.3c0.7,1.1,1.9,1.8,3.2,1.8H33c2.1,0,3.8-1.8,3.8-4.1
		v-6.5L35.3,13.8L35.3,13.8z"/>
	<path class="st4" d="M32.5,2.5h0.8c2.5,0,4.5,2.2,4.5,4.8v13.2c0,2.6-2,4.7-4.4,4.7h-0.8c-2.4,0-4.4-2.1-4.4-4.7V7.3
		C28.1,4.7,30.1,2.5,32.5,2.5z M33.4,23.9c1.8,0,3.2-1.6,3.2-3.5V7.3c0-1.9-1.4-3.5-3.2-3.5h-0.8c-1.8,0-3.2,1.6-3.2,3.5v13.2
		c0,1.9,1.4,3.5,3.2,3.5h0.8V23.9z"/>
	<path class="st4" d="M29,13.2h8.1c0.3,0,0.6,0.3,0.6,0.6s-0.3,0.6-0.6,0.6H29c-0.3,0-0.6-0.3-0.6-0.6S28.7,13.2,29,13.2z"/>
</g>
<g>
	<path class="st0" d="M133.3,7.3c0-2.3-1.7-4.1-3.8-4.1h-0.8c-2.1,0-3.8,1.8-3.8,4.1v6.5h8.4L133.3,7.3L133.3,7.3z"/>
	<path class="st1" d="M128.8,24.5h0.8c2.1,0,3.8-1.8,3.8-4.1v-6.5H125v6.5C125,22.6,126.7,24.5,128.8,24.5z"/>
	<path class="st2" d="M131.9,13.8h1.5V7.3c0-2.3-1.7-4.1-3.8-4.1h-0.8c-1.3,0-2.5,0.7-3.2,1.8c0.4-0.2,0.8-0.3,1.3-0.3
		C129.6,4.7,131.9,8.7,131.9,13.8z"/>
	<path class="st3" d="M131.9,13.8c0,5.1-2.3,9.1-5.1,9.1c-0.4,0-0.9-0.1-1.3-0.3c0.7,1.1,1.9,1.8,3.2,1.8h0.8c2.1,0,3.8-1.8,3.8-4.1
		v-6.5L131.9,13.8L131.9,13.8z"/>
	<path class="st4" d="M129.1,2.5h0.8c2.4,0,4.4,2.1,4.4,4.7v13.2c0,2.6-2,4.7-4.4,4.7h-0.8c-2.4,0-4.4-2.1-4.4-4.7V7.2
		C124.7,4.7,126.7,2.5,129.1,2.5z M129.9,23.9c1.8,0,3.2-1.6,3.2-3.5V7.3c0-1.9-1.4-3.5-3.2-3.5h-0.8c-1.8,0-3.2,1.6-3.2,3.5v13.2
		c0,1.9,1.4,3.5,3.2,3.5h0.8V23.9z"/>
	<path class="st4" d="M125.6,13.2h8.1c0.3,0,0.6,0.3,0.6,0.6s-0.3,0.6-0.6,0.6h-8.1c-0.3,0-0.6-0.3-0.6-0.6S125.3,13.2,125.6,13.2z"
		/>
</g>
<g>
	<path class="st0" d="M60.9,7.3c0-2.3-1.7-4.1-3.8-4.1h-0.8c-2.1,0-3.8,1.8-3.8,4.1v6.5H61L60.9,7.3L60.9,7.3z"/>
	<path class="st1" d="M56.3,24.5h0.8c2.1,0,3.8-1.8,3.8-4.1v-6.5h-8.4v6.5C52.5,22.6,54.2,24.5,56.3,24.5z"/>
	<path class="st2" d="M59.4,13.8h1.5V7.3c0-2.3-1.7-4.1-3.8-4.1h-0.8c-1.3,0-2.5,0.7-3.2,1.8c0.4-0.2,0.8-0.3,1.3-0.3
		C57.3,4.7,59.4,8.7,59.4,13.8z"/>
	<path class="st3" d="M59.4,13.8c0,5.1-2.3,9.1-5.1,9.1c-0.4,0-0.9-0.1-1.3-0.3c0.7,1.1,1.9,1.8,3.2,1.8H57c2.1,0,3.8-1.8,3.8-4.1
		v-6.5L59.4,13.8L59.4,13.8z"/>
	<path class="st4" d="M56.7,2.5h0.8c2.4,0,4.4,2.1,4.4,4.7v13.2c0,2.6-2,4.7-4.4,4.7h-0.8c-2.4,0-4.4-2.1-4.4-4.7V7.2
		C52.3,4.7,54.2,2.5,56.7,2.5z M57.5,23.9c1.8,0,3.2-1.6,3.2-3.5V7.3c0-1.9-1.4-3.5-3.2-3.5h-0.8c-1.8,0-3.2,1.6-3.2,3.5v13.2
		c0,1.9,1.4,3.5,3.2,3.5h0.8V23.9z"/>
	<path class="st4" d="M53.2,13.2h8.1c0.3,0,0.6,0.3,0.6,0.6s-0.3,0.6-0.6,0.6h-8.1c-0.3,0-0.6-0.3-0.6-0.6S52.8,13.2,53.2,13.2z"/>
</g>
<g>
	<path class="st0" d="M109.2,7.3c0-2.3-1.7-4.1-3.8-4.1h-0.8c-2.1,0-3.8,1.8-3.8,4.1v6.5h8.4L109.2,7.3L109.2,7.3z"/>
	<path class="st1" d="M104.6,24.5h0.8c2.1,0,3.8-1.8,3.8-4.1v-6.5h-8.4v6.5C100.8,22.6,102.5,24.5,104.6,24.5z"/>
	<path class="st2" d="M107.7,13.8h1.5V7.3c0-2.3-1.7-4.1-3.8-4.1h-0.8c-1.3,0-2.5,0.7-3.2,1.8c0.4-0.2,0.8-0.3,1.3-0.3
		C105.6,4.7,107.7,8.7,107.7,13.8z"/>
	<path class="st3" d="M107.7,13.8c0,5.1-2.3,9.1-5.1,9.1c-0.4,0-0.9-0.1-1.3-0.3c0.7,1.1,1.9,1.8,3.2,1.8h0.8c2.1,0,3.8-1.8,3.8-4.1
		v-6.5L107.7,13.8L107.7,13.8z"/>
	<path class="st4" d="M105,2.5h0.8c2.4,0,4.4,2.1,4.4,4.7v13.2c0,2.6-2,4.7-4.4,4.7H105c-2.4,0-4.4-2.1-4.4-4.7V7.2
		C100.5,4.7,102.5,2.5,105,2.5z M105.7,23.9c1.8,0,3.2-1.6,3.2-3.5V7.3c0-1.9-1.4-3.5-3.2-3.5H105c-1.8,0-3.2,1.6-3.2,3.5v13.2
		c0,1.9,1.4,3.5,3.2,3.5h0.7V23.9z"/>
	<path class="st4" d="M101.5,13.2h8.1c0.3,0,0.6,0.3,0.6,0.6s-0.3,0.6-0.6,0.6h-8.1c-0.3,0-0.6-0.3-0.6-0.6S101.1,13.2,101.5,13.2z"
		/>
</g>
<g>
	<path class="st0" d="M12.6,7.3c0-2.3-1.7-4.1-3.8-4.1H8.1C6,3.2,4.2,5,4.2,7.3v6.5h8.4C12.6,13.8,12.6,7.3,12.6,7.3z"/>
	<path class="st1" d="M8.1,24.5h0.8c2.1,0,3.8-1.8,3.8-4.1v-6.5H4.2v6.5C4.2,22.6,6,24.5,8.1,24.5z"/>
	<path class="st2" d="M11.1,13.8h1.5V7.3c0-2.3-1.7-4.1-3.8-4.1H8.1C6.8,3.2,5.6,3.9,4.9,5c0.4-0.2,0.8-0.3,1.3-0.3
		C9,4.7,11.1,8.7,11.1,13.8z"/>
	<path class="st3" d="M11.1,13.8c0,5.1-2.3,9.1-5.1,9.1c-0.4,0-0.9-0.1-1.3-0.3c0.7,1.1,1.9,1.8,3.2,1.8h0.8c2.1,0,3.8-1.8,3.8-4.1
		v-6.5L11.1,13.8L11.1,13.8z"/>
	<path class="st4" d="M8.4,2.5h0.8c2.4,0,4.4,2.1,4.4,4.7v13.2c0,2.6-2,4.7-4.4,4.7H8.4C6,25.1,4,23,4,20.5V7.3C4,4.7,6,2.5,8.4,2.5
		z M9.2,23.9c1.8,0,3.2-1.6,3.2-3.5V7.3c0-1.9-1.4-3.5-3.2-3.5H8.4c-1.8,0-3.2,1.6-3.2,3.5v13.2c0,1.9,1.4,3.5,3.2,3.5h0.8V23.9z"/>
	<path class="st4" d="M4.9,13.2H13c0.3,0,0.6,0.3,0.6,0.6s-0.3,0.6-0.6,0.6H4.9c-0.3,0-0.6-0.3-0.6-0.6S4.6,13.2,4.9,13.2z"/>
</g>
<g>
	<path class="st0" d="M85.9,124.6c0-2.3-1.7-4.1-3.8-4.1h-0.8c-2.1,0-3.8,1.8-3.8,4.1v6.5H86L85.9,124.6L85.9,124.6z"/>
	<path class="st1" d="M81.3,141.8H82c2.1,0,3.8-1.8,3.8-4.1v-6.5h-8.4v6.5C77.5,140,79.2,141.8,81.3,141.8z"/>
	<path class="st2" d="M84.4,131.1h1.5v-6.5c0-2.3-1.7-4.1-3.8-4.1h-0.8c-1.3,0-2.5,0.7-3.2,1.8c0.4-0.2,0.8-0.3,1.3-0.3
		C82.1,122,84.4,126.1,84.4,131.1z"/>
	<path class="st3" d="M84.4,131.1c0,5.1-2.3,9.1-5.1,9.1c-0.4,0-0.9-0.1-1.3-0.3c0.7,1.1,1.9,1.8,3.2,1.8H82c2.1,0,3.8-1.8,3.8-4.1
		v-6.5H84.4L84.4,131.1z"/>
	<path class="st4" d="M81.6,119.8h0.8c2.4,0,4.4,2.1,4.4,4.7v13.2c0,2.6-2,4.7-4.4,4.7h-0.8c-2.4,0-4.4-2.1-4.4-4.7v-13.2
		C77.2,122,79.2,119.8,81.6,119.8z M82.4,141.1c1.8,0,3.2-1.6,3.2-3.5v-13.2c0-1.9-1.4-3.5-3.2-3.5h-0.8c-1.8,0-3.2,1.6-3.2,3.5
		v13.2c0,1.9,1.4,3.5,3.2,3.5H82.4z"/>
	<path class="st4" d="M78.2,130.5h8.1c0.3,0,0.6,0.3,0.6,0.6s-0.3,0.6-0.6,0.6h-8.1c-0.3,0-0.6-0.3-0.6-0.6
		C77.5,130.8,77.8,130.5,78.2,130.5z"/>
</g>
<g>
	<path class="st0" d="M37.6,124.6c0-2.3-1.7-4.1-3.8-4.1H33c-2.1,0-3.8,1.8-3.8,4.1v6.5h8.4V124.6L37.6,124.6z"/>
	<path class="st1" d="M33,141.8h0.8c2.1,0,3.8-1.8,3.8-4.1v-6.5h-8.4v6.5C29.2,140,30.9,141.8,33,141.8z"/>
	<path class="st2" d="M36.1,131.1h1.5v-6.5c0-2.3-1.7-4.1-3.8-4.1H33c-1.3,0-2.5,0.7-3.2,1.8c0.4-0.2,0.8-0.3,1.3-0.3
		C33.8,122,36.1,126.1,36.1,131.1z"/>
	<path class="st3" d="M36.1,131.1c0,5.1-2.3,9.1-5.1,9.1c-0.4,0-0.9-0.1-1.3-0.3c0.7,1.1,1.9,1.8,3.2,1.8h0.8c2.1,0,3.8-1.8,3.8-4.1
		v-6.5H36.1L36.1,131.1z"/>
	<path class="st4" d="M33.4,119.8h0.8c2.4,0,4.4,2.1,4.4,4.7v13.2c0,2.6-2,4.7-4.4,4.7h-0.8c-2.4,0-4.4-2.1-4.4-4.7v-13.2
		C28.9,122,30.9,119.8,33.4,119.8z M34.1,141.1c1.8,0,3.2-1.6,3.2-3.5v-13.2c0-1.9-1.4-3.5-3.2-3.5h-0.8c-1.8,0-3.2,1.6-3.2,3.5
		v13.2c0,1.9,1.4,3.5,3.2,3.5H34.1z"/>
	<path class="st4" d="M29.9,130.5H38c0.3,0,0.6,0.3,0.6,0.6s-0.3,0.6-0.6,0.6h-8.1c-0.3,0-0.6-0.3-0.6-0.6
		C29.2,130.8,29.5,130.5,29.9,130.5z"/>
</g>
<g>
	<path class="st0" d="M134.2,124.6c0-2.3-1.7-4.1-3.8-4.1h-0.8c-2.1,0-3.8,1.8-3.8,4.1v6.5h8.4L134.2,124.6L134.2,124.6z"/>
	<path class="st1" d="M129.6,141.8h0.8c2.1,0,3.8-1.8,3.8-4.1v-6.5h-8.4v6.5C125.8,140,127.5,141.8,129.6,141.8z"/>
	<path class="st2" d="M132.7,131.1h1.5v-6.5c0-2.3-1.7-4.1-3.8-4.1h-0.8c-1.3,0-2.5,0.7-3.2,1.8c0.4-0.2,0.8-0.3,1.3-0.3
		C130.4,122,132.7,126.1,132.7,131.1z"/>
	<path class="st3" d="M132.7,131.1c0,5.1-2.3,9.1-5.1,9.1c-0.4,0-0.9-0.1-1.3-0.3c0.7,1.1,1.9,1.8,3.2,1.8h0.8
		c2.1,0,3.8-1.8,3.8-4.1v-6.5H132.7L132.7,131.1z"/>
	<path class="st4" d="M129.8,119.8h0.8c2.4,0,4.4,2.1,4.4,4.7v13.2c0,2.6-2,4.7-4.4,4.7h-0.8c-2.4,0-4.4-2.1-4.4-4.7v-13.2
		C125.5,122,127.5,119.8,129.8,119.8z M130.7,141.1c1.8,0,3.2-1.6,3.2-3.5v-13.2c0-1.9-1.4-3.5-3.2-3.5h-0.8c-1.8,0-3.2,1.6-3.2,3.5
		v13.2c0,1.9,1.4,3.5,3.2,3.5H130.7z"/>
	<path class="st4" d="M126.4,130.5h8.1c0.3,0,0.6,0.3,0.6,0.6s-0.3,0.6-0.6,0.6h-8.1c-0.3,0-0.6-0.3-0.6-0.6
		S126.1,130.5,126.4,130.5z"/>
</g>
<g>
	<path class="st0" d="M61.7,124.6c0-2.3-1.7-4.1-3.8-4.1h-0.8c-2.1,0-3.8,1.8-3.8,4.1v6.5h8.4L61.7,124.6L61.7,124.6z"/>
	<path class="st1" d="M57.2,141.8H58c2.1,0,3.8-1.8,3.8-4.1v-6.5h-8.4v6.5C53.3,140,55.1,141.8,57.2,141.8z"/>
	<path class="st2" d="M60.2,131.1h1.5v-6.5c0-2.3-1.7-4.1-3.8-4.1h-0.8c-1.3,0-2.5,0.7-3.2,1.8c0.4-0.2,0.8-0.3,1.3-0.3
		C58,122,60.2,126.1,60.2,131.1z"/>
	<path class="st3" d="M60.2,131.1c0,5.1-2.3,9.1-5.1,9.1c-0.4,0-0.9-0.1-1.3-0.3c0.7,1.1,1.9,1.8,3.2,1.8h0.8c2.1,0,3.8-1.8,3.8-4.1
		v-6.5H60.2L60.2,131.1z"/>
	<path class="st4" d="M57.5,119.8h0.8c2.4,0,4.4,2.1,4.4,4.7v13.2c0,2.6-2,4.7-4.4,4.7h-0.8c-2.4,0-4.4-2.1-4.4-4.7v-13.2
		C53.1,122,55.1,119.8,57.5,119.8z M58.3,141.1c1.8,0,3.2-1.6,3.2-3.5v-13.2c0-1.9-1.4-3.5-3.2-3.5h-0.8c-1.8,0-3.2,1.6-3.2,3.5
		v13.2c0,1.9,1.4,3.5,3.2,3.5H58.3z"/>
	<path class="st4" d="M54,130.5h8.1c0.3,0,0.6,0.3,0.6,0.6s-0.3,0.6-0.6,0.6H54c-0.3,0-0.6-0.3-0.6-0.6S53.7,130.5,54,130.5z"/>
</g>
<g>
	<path class="st0" d="M110,124.6c0-2.3-1.7-4.1-3.8-4.1h-0.8c-2.1,0-3.8,1.8-3.8,4.1v6.5h8.4L110,124.6L110,124.6z"/>
	<path class="st1" d="M105.5,141.8h0.8c2.1,0,3.8-1.8,3.8-4.1v-6.5h-8.4v6.5C101.6,140,103.3,141.8,105.5,141.8z"/>
	<path class="st2" d="M108.5,131.1h1.5v-6.5c0-2.3-1.7-4.1-3.8-4.1h-0.8c-1.3,0-2.5,0.7-3.2,1.8c0.4-0.2,0.8-0.3,1.3-0.3
		C106.3,122,108.5,126.1,108.5,131.1z"/>
	<path class="st3" d="M108.5,131.1c0,5.1-2.3,9.1-5.1,9.1c-0.4,0-0.9-0.1-1.3-0.3c0.7,1.1,1.9,1.8,3.2,1.8h0.8
		c2.1,0,3.8-1.8,3.8-4.1v-6.5H108.5L108.5,131.1z"/>
	<path class="st4" d="M105.7,119.8h0.8c2.4,0,4.4,2.1,4.4,4.7v13.2c0,2.6-2,4.7-4.4,4.7h-0.8c-2.4,0-4.4-2.1-4.4-4.7v-13.2
		C101.4,122,103.3,119.8,105.7,119.8z M106.5,141.1c1.8,0,3.2-1.6,3.2-3.5v-13.2c0-1.9-1.4-3.5-3.2-3.5h-0.8c-1.8,0-3.2,1.6-3.2,3.5
		v13.2c0,1.9,1.4,3.5,3.2,3.5H106.5z"/>
	<path class="st4" d="M102.3,130.5h8.1c0.3,0,0.6,0.3,0.6,0.6s-0.3,0.6-0.6,0.6h-8.1c-0.3,0-0.6-0.3-0.6-0.6S102,130.5,102.3,130.5z
		"/>
</g>
<g>
	<path class="st0" d="M13.4,124.6c0-2.3-1.7-4.1-3.8-4.1H8.9c-2.1,0-3.8,1.8-3.8,4.1v6.5h8.4L13.4,124.6L13.4,124.6z"/>
	<path class="st1" d="M8.9,141.8h0.8c2.1,0,3.8-1.8,3.8-4.1v-6.5H5v6.5C5.1,140,6.8,141.8,8.9,141.8z"/>
	<path class="st2" d="M12,131.1h1.5v-6.5c0-2.3-1.7-4.1-3.8-4.1H8.9c-1.3,0-2.5,0.7-3.2,1.8c0.4-0.2,0.8-0.3,1.3-0.3
		C9.7,122,12,126.1,12,131.1z"/>
	<path class="st3" d="M12,131.1c0,5.1-2.3,9.1-5.1,9.1c-0.4,0-0.9-0.1-1.3-0.3c0.7,1.1,1.9,1.8,3.2,1.8h0.8c2.1,0,3.8-1.8,3.8-4.1
		v-6.5H12L12,131.1z"/>
	<path class="st4" d="M9.2,119.8H10c2.4,0,4.4,2.1,4.4,4.7v13.2c0,2.6-2,4.7-4.4,4.7H9.2c-2.4,0-4.4-2.1-4.4-4.7v-13.2
		C4.8,122,6.8,119.8,9.2,119.8z M10,141.1c1.8,0,3.2-1.6,3.2-3.5v-13.2c0-1.9-1.4-3.5-3.2-3.5H9.2c-1.8,0-3.2,1.6-3.2,3.5v13.2
		c0,1.9,1.4,3.5,3.2,3.5H10z"/>
	<path class="st4" d="M5.7,130.5h8.1c0.3,0,0.6,0.3,0.6,0.6s-0.3,0.6-0.6,0.6H5.7c-0.3,0-0.6-0.3-0.6-0.6S5.4,130.5,5.7,130.5z"/>
</g>
<rect x="-10.5" y="17.7" class="st5" width="162.1" height="162.1"/>
<rect x="-10.5" y="17.7" class="st6" width="162.1" height="161.7"/>
<path class="st7" d="M57.6,109.2c0.4,0.4,0.6,0.8,0.8,1.3c0.2,0.4,0.6,0.8,0.9,1.2c0.7,0.8,1.6,1.5,2.7,1.9c1.9,0.7,4.3,0.3,6-0.8
	c0.3-0.2,0-0.7-0.3-0.5c-1.7,1-3.8,1.3-5.7,0.6c-1-0.4-1.9-1.2-2.6-1.9c-0.6-0.6-1-1.5-1.7-1.9C57.6,109,57.5,109.1,57.6,109.2
	L57.6,109.2z"/>
<path class="st7" d="M71.4,102.1c1.3,1.8,0.9,4.3,2.9,5.5c1.9,1.1,4.6,0.9,6.6,0.3c0.3-0.1,0.2-0.5-0.1-0.5c-2,0.4-4.5,0.7-6.3-0.4
	c-1-0.6-1.4-1.8-1.7-2.8c-0.3-0.8-0.6-1.7-1.3-2.2C71.4,101.9,71.3,102,71.4,102.1L71.4,102.1z"/>
<path class="st7" d="M70.5,115.3c1.4,1.6,2.4,3.8,4.5,4.6c1.9,0.7,4,0.3,5.9,0.1c0.3,0,0.2-0.6-0.1-0.6c-1.8,0.2-3.7,0.5-5.5,0
	c-2.1-0.6-3.1-2.9-4.7-4.2C70.5,115,70.4,115.2,70.5,115.3L70.5,115.3z"/>
<path class="st7" d="M72,127.9c0.7,0.5,0.9,1.4,1.5,2.1c0.7,0.7,1.5,1.3,2.4,1.7c2.2,0.9,4.3-0.4,6.1-1.6c0.3-0.2,0-0.6-0.3-0.5
	c-1,0.5-1.9,1.1-2.9,1.5c-1.1,0.4-2.2,0.3-3.3-0.2c-0.9-0.4-1.7-1-2.2-1.8c-0.3-0.4-0.7-1.2-1.3-1.3C72,127.7,71.9,127.8,72,127.9
	L72,127.9z"/>
<path class="st7" d="M56.5,122.1c1.1,1.7,1.3,3.9,3.4,4.8c2.6,1,5.8,0.4,8.4-0.3c0.3-0.1,0.2-0.5-0.1-0.5c-2.6,0.5-5.3,1-7.9,0.3
	c-2.1-0.6-2.3-2.9-3.6-4.4C56.6,121.9,56.5,122,56.5,122.1L56.5,122.1z"/>
<path class="st7" d="M30.5,119c1.7,1.5,3.4-0.3,4.4-1.6c0.2-0.2-0.2-0.4-0.3-0.3c-1.1,1.1-2.3,3-4,1.8
	C30.5,118.8,30.4,118.9,30.5,119L30.5,119z"/>
<path class="st7" d="M33.7,112.2c0-0.5-0.4-0.7-0.8-0.6c-0.5,0.1-0.9,0.5-1.3,0.9c-0.2,0.1,0.1,0.4,0.2,0.3c0.3-0.2,0.6-0.4,0.9-0.6
	c0.3-0.2,0.7-0.5,0.9,0C33.6,112.3,33.7,112.2,33.7,112.2L33.7,112.2z"/>
<path class="st7" d="M20.2,106.7c1.1-1.2,3.2-0.6,4.6-0.5c0.2,0,0.3-0.4,0.1-0.4c-1.4-0.2-3.8-0.6-4.8,0.8
	C20,106.7,20.1,106.8,20.2,106.7L20.2,106.7z"/>
<path class="st7" d="M18.8,108.4c1.4,0.7,3,0.8,4.5,0.8c1.2,0,2.9,0,3.8-1c0.2-0.2-0.1-0.5-0.3-0.3c-1.1,0.7-2.4,0.8-3.7,0.8
	c-1.4,0.1-2.9,0.1-4.3-0.5C18.8,108.2,18.7,108.4,18.8,108.4L18.8,108.4z"/>
<path class="st7" d="M24.9,100.3c2.2,2.3,5.7,0,7.5-1.7c0.2-0.2-0.1-0.6-0.4-0.4c-1,0.7-1.9,1.5-3,2c-1.3,0.6-2.6,0.6-3.9-0.1
	C25,100.1,24.9,100.2,24.9,100.3L24.9,100.3z"/>
<path class="st7" d="M30.2,93.2c-1-0.4-2.1,0.3-2.9,0.8c-1,0.6-1.9,1.5-2.4,2.5c-0.1,0.2,0.2,0.4,0.3,0.2c0.5-0.9,1.3-1.6,2.1-2.2
	c0.8-0.6,1.9-1.3,2.9-1.2C30.3,93.4,30.3,93.3,30.2,93.2L30.2,93.2z"/>
<path class="st7" d="M12.3,99.7c1.2,1.8,4.4,0.1,5.9-0.4c0.3-0.1,0.2-0.5-0.1-0.4c-1.6,0.4-4.1,2-5.7,0.7
	C12.4,99.5,12.2,99.6,12.3,99.7L12.3,99.7z"/>
<path class="st7" d="M15.4,96.5c0.9-0.2,1.7-0.7,2.6-1c0.4-0.2,0.9-0.3,1.4-0.4c0.6-0.1,1.1,0,1.7,0.1c0.2,0,0.3-0.3,0.1-0.4
	c-0.9-0.5-2-0.1-2.9,0.2c-1,0.4-2,1-2.9,1.4C15.3,96.4,15.3,96.5,15.4,96.5L15.4,96.5z"/>
<path class="st7" d="M8.7,86.7c1.3,0.3,1.4,2.1,0.8,3c-0.1,0.2,0.2,0.4,0.3,0.2c0.9-1.1,0.5-3.2-1.1-3.4C8.6,86.5,8.6,86.7,8.7,86.7
	L8.7,86.7z"/>
<path class="st7" d="M8.8,88.7c0.2,0.3,0.2,0.7,0.3,1c0,0.3-0.1,0.7-0.1,1c0,0.2,0.2,0.3,0.3,0.1c0.3-0.3,0.2-0.8,0.2-1.1
	c-0.1-0.5-0.2-0.9-0.5-1.2C8.9,88.4,8.8,88.6,8.8,88.7L8.8,88.7z"/>
<path class="st7" d="M8.5,89.3c0,0.6-0.1,1.2,0.1,1.7C8.6,91.3,9,91.3,8.9,91c0-0.3-0.1-0.6-0.1-0.8c0-0.3-0.1-0.6-0.2-0.9
	C8.6,89.2,8.5,89.2,8.5,89.3L8.5,89.3z"/>
<path class="st7" d="M7.6,90.1c0.1,0.4-0.1,0.9,0,1.3c0,0.3,0.4,0.3,0.4,0c0.1-0.4,0-1-0.2-1.4C7.7,90,7.5,90,7.6,90.1L7.6,90.1z"/>
<path class="st7" d="M4.7,107.4c0,1.5,0.6,3,1.5,4.3c0.8,1.1,2.2,2.2,3.7,1.9c0.3-0.1,0.2-0.5-0.1-0.5c-1.5-0.1-2.5-0.7-3.5-1.9
	c-0.8-1.1-1.3-2.4-1.5-3.8C4.9,107.2,4.7,107.3,4.7,107.4L4.7,107.4z"/>
<path class="st7" d="M8.2,108c1.1,1.2,1.7,2.5,2.3,4c0.1,0.3,0.5,0.2,0.4-0.1c-0.5-1.6-1.3-2.9-2.5-4C8.3,107.7,8.1,107.9,8.2,108
	L8.2,108z"/>
<path class="st7" d="M113,86c0.2,0.6,0.1,1.3,0,1.9c-0.1,0.7-0.1,1.4-0.2,2.1c-0.1,0.8-0.3,1.7-0.6,2.4c-0.3,0.6-0.7,1.1-1.1,1.6
	c-0.1,0.2,0.1,0.5,0.3,0.4c1.3-0.6,1.8-2.4,2-3.7c0.1-0.9,0.1-1.8,0.1-2.8c0-0.7,0.2-1.4-0.2-2.1C113.1,85.8,112.9,85.9,113,86
	L113,86z"/>
<path class="st7" d="M110.9,95.3c-0.4,0.5-1.1,0.8-1.7,1c-0.4,0.1-0.8,0.1-1.2,0.1c-0.3,0-0.6-0.2-0.9-0.3c-0.2,0-0.4,0.2-0.3,0.4
	c0.4,0.7,1.7,0.5,2.4,0.3c0.8-0.2,1.7-0.6,2-1.4C111.2,95.3,111,95.1,110.9,95.3L110.9,95.3z"/>
<path class="st7" d="M110.7,96c0,1-1.1,1.5-1.9,1.7c-0.8,0.3-1.6,0.3-2.3,0.5c-0.2,0.1-0.2,0.4,0,0.4c0.9,0.3,2.2-0.3,3-0.7
	c0.8-0.4,1.7-1.1,1.5-2.1C110.9,95.8,110.7,95.8,110.7,96L110.7,96z"/>
<path class="st7" d="M109.9,98.1c-0.5,0.6-1.2,1-1.9,1.3c-0.7,0.3-1.4,0.2-2.1,0.4c-0.3,0.1-0.3,0.5,0,0.5c0.8,0.2,1.7-0.2,2.4-0.5
	c0.8-0.3,1.5-0.8,1.9-1.6C110.2,98.1,110,98,109.9,98.1L109.9,98.1z"/>
<path class="st7" d="M135.7,79.3c-0.4-0.3-1-0.3-1.4-0.1c-0.4,0.2-0.7,0.7-0.4,1.1c0.5,0.8,2.2-0.2,2.2-0.9
	C136,79.2,135.7,79.2,135.7,79.3c-0.2,0.3-0.4,0.5-0.7,0.7c-0.2,0.1-0.6,0.3-0.8,0.1c-0.1-0.1-0.1-0.3,0-0.4
	c0.1-0.1,0.3-0.2,0.5-0.2c0.3-0.1,0.7-0.1,1,0C135.8,79.6,135.8,79.4,135.7,79.3L135.7,79.3z"/>
<path class="st7" d="M131.9,81.5c-2.3,1.9-2.4,5.3-0.3,7.4c1.8,1.8,4.8,2.2,6.8,0.4c0.2-0.2-0.1-0.6-0.3-0.4
	c-1.8,1.3-4.1,1.1-5.8-0.4c-0.9-0.8-1.5-2-1.6-3.2c-0.1-1.4,0.5-2.7,1.4-3.7C132.1,81.6,131.9,81.4,131.9,81.5L131.9,81.5z"/>
<path class="st7" d="M140.6,87.1c0.2-0.3,0.2-0.7,0.3-1.1c0-0.1-0.2-0.1-0.2,0c0,0.4-0.1,0.7-0.3,1
	C140.4,87.1,140.6,87.2,140.6,87.1L140.6,87.1z"/>
<path class="st7" d="M125.8,65.1c0.1-0.6-0.4-0.9-1-0.9c-0.6,0-1.3,0.2-1.6,0.8c-0.2,0.6,0.6,0.8,1,0.8c0.6,0,1.4-0.3,1.7-0.9
	c0.1-0.2-0.2-0.4-0.4-0.2c-0.3,0.3-0.6,0.5-1,0.6c-0.1,0-0.8,0.1-0.9-0.1c0-0.1,0.2-0.3,0.2-0.3c0.2-0.1,0.4-0.2,0.6-0.2
	c0.3-0.1,1.2-0.2,1.1,0.4C125.6,65.1,125.8,65.2,125.8,65.1L125.8,65.1z"/>
<path class="st7" d="M120.6,67.7c-2.9,2-0.7,7.3,2,8.4c1.8,0.7,4,0.4,5.6-0.5c1.8-0.9,2.8-2.6,2.9-4.6c0-0.2-0.3-0.2-0.3,0
	c-0.3,3.6-4.6,5.4-7.8,4.4c-1.4-0.4-2.4-2.1-2.9-3.4c-0.5-1.4-0.7-3.2,0.6-4.3C120.8,67.8,120.7,67.7,120.6,67.7L120.6,67.7z"/>
<path class="st7" d="M78.7,80.2c0.1,0.1,0.3,0.2,0.5,0.1c0.1,0,0.1-0.1,0.1-0.2c0-0.1-0.1-0.1-0.2-0.1c-0.1,0-0.2,0-0.2-0.1
	c-0.1,0-0.1-0.1-0.2,0C78.7,80.1,78.7,80.2,78.7,80.2L78.7,80.2z"/>
<path class="st7" d="M67.2,80.6c2.6,2.7,7,3.7,10.7,3.3c2.5-0.3,4.8-1.3,7.1-2.3c2.2-0.9,4.2-2.3,6.6-2.8c0.3-0.1,0.2-0.6-0.1-0.5
	c-2.2,0.3-4.1,1.5-6.1,2.4c-2.2,1-4.5,2-6.9,2.4c-1.9,0.4-4,0.2-5.9-0.2c-1.9-0.4-3.8-1.2-5.2-2.5C67.2,80.3,67.1,80.5,67.2,80.6
	L67.2,80.6z"/>
<path class="st7" d="M81.1,76.4c1.6-0.2,3.1,0.2,4.7,0.2c0.3,0,0.3-0.4,0-0.4c-1.6,0-3.2-0.3-4.7,0C80.9,76.3,81,76.4,81.1,76.4
	L81.1,76.4z"/>
<path class="st7" d="M54.9,72.8c0.4,0.2,0.8,0.1,1.2,0c0.7-0.2,1.4-0.4,2.2-0.3c1.4,0,2.8,0.4,4.1,0.4c2.5,0.2,5-0.3,7.3-1.2
	c2.3-1,4.4-2.5,6.7-3.6c2.6-1.2,5.3-2,8.1-2.1c0.2,0,0.2-0.3,0-0.4c-2.5-0.1-5,0.5-7.3,1.5c-2.4,1-4.5,2.4-6.8,3.6
	c-2.4,1.2-5,1.7-7.6,1.7c-1.4,0-2.8-0.2-4.1-0.3c-0.6,0-1.2,0-1.7,0.1c-0.7,0.1-1.3,0.7-2.1,0.5C54.8,72.6,54.8,72.7,54.9,72.8
	L54.9,72.8z"/>
<path class="st7" d="M67.7,64.6c1.5-0.6,3.1-0.8,4.7-0.8c0.2,0,0.2-0.4,0-0.4c-1.7-0.1-3.3,0.3-4.8,1C67.5,64.5,67.6,64.7,67.7,64.6
	L67.7,64.6z"/>
<path class="st7" d="M68,67.6c0.3,0,0.6,0,0.9,0c0.2,0,0.3-0.4,0.1-0.4c-0.3-0.1-0.7,0-1,0.2C67.8,67.4,67.8,67.6,68,67.6L68,67.6z"
	/>
<path class="st7" d="M101.9,47c0.2,1,0.1,2,0.8,2.8c0.6,0.7,1.7,0.7,2.5,0.8c2.1,0.3,4.8,0.7,6.7-0.5c0.2-0.1,0.1-0.5-0.2-0.4
	c-1.9,0.7-3.8,0.7-5.8,0.5c-0.9-0.1-1.8-0.1-2.6-0.5c-1-0.5-0.7-1.9-1.2-2.7C102.1,46.8,101.9,46.9,101.9,47L101.9,47z"/>
<path class="st7" d="M112.2,46.6c-0.1,1.3-0.6,2.4-0.8,3.7c0,0.3,0.3,0.4,0.4,0.1c0.3-1.2,0.7-2.5,0.6-3.8
	C112.4,46.5,112.2,46.5,112.2,46.6L112.2,46.6z"/>
<path class="st7" d="M120.1,45.2c-0.5,1.4-0.6,2.9,0.2,4.2c0.8,1.3,2.4,1.6,3.8,1.2c0.2-0.1,0.2-0.4-0.1-0.4
	c-1.3,0.1-2.5-0.1-3.3-1.3c-0.7-1.1-0.8-2.5-0.5-3.8C120.3,45.1,120.1,45.1,120.1,45.2L120.1,45.2z"/>
<path class="st7" d="M130.7,45.2c0.5,0.7,0.6,2,0.4,2.8c-0.3,0.9-1.4,1.2-2.2,1.5c-0.3,0.1-0.2,0.5,0.1,0.5c1.1-0.2,2.1-0.5,2.5-1.6
	c0.4-1,0-2.5-0.7-3.2C130.8,45.1,130.6,45.2,130.7,45.2L130.7,45.2z"/>
<path class="st7" d="M68,42.6c1.8,2.9,5.6,2.6,8.5,2c0.3-0.1,0.2-0.5-0.1-0.5c-2.8,0.5-6.3,1-8.2-1.6C68.1,42.4,67.9,42.5,68,42.6
	L68,42.6z"/>
<path class="st7" d="M78.1,34.4c0.9,0.9,2.6,0.9,3.8,0.9c1.6,0,3-0.8,4.2-1.8c0.2-0.2-0.1-0.5-0.3-0.3c-1.1,0.9-2.2,1.6-3.6,1.7
	c-0.6,0.1-1.2,0-1.8,0c-0.7,0-1.5-0.1-2-0.5C78.2,34.2,78,34.3,78.1,34.4L78.1,34.4z"/>
<path class="st7" d="M60.8,33.8c0.2,1.9,2.3,2.4,3.9,2.4c1.8,0,4-0.3,5.5-1.3c0.2-0.1,0-0.4-0.2-0.3c-1.4,0.7-3.2,1-4.7,1.1
	c-1.5,0.1-3.9-0.1-4.2-2C61,33.7,60.8,33.7,60.8,33.8L60.8,33.8z"/>
<path class="st7" d="M53.4,43.5c0.8,3.5,5.5,2.3,7.7,1.1c0.3-0.1,0-0.5-0.2-0.4c-2.1,1-6.3,2.3-7.3-0.7
	C53.5,43.3,53.3,43.3,53.4,43.5L53.4,43.5z"/>
<path class="st7" d="M18.3,67.6c2-1.7,3.6-3.8,5.4-5.7c0.1-0.1-0.1-0.3-0.2-0.2c-1.9,1.8-3.4,3.9-5.3,5.7
	C18.1,67.5,18.2,67.7,18.3,67.6L18.3,67.6z"/>
<path class="st7" d="M25.8,61.3c0.7,1.8,0.2,3.6,0.6,5.5c0,0.2,0.4,0.2,0.4-0.1c0-1,0-2-0.1-3c-0.1-0.8-0.2-1.8-0.7-2.5
	C25.9,61.2,25.8,61.2,25.8,61.3L25.8,61.3z"/>
<path class="st7" d="M28.3,60.7c1.8,0.4,3.1,1.9,4.9,2.4c0.2,0.1,0.3-0.3,0.1-0.3c-1.7-0.6-3.1-2-4.9-2.2
	C28.2,60.5,28.2,60.7,28.3,60.7L28.3,60.7z"/>
<path class="st7" d="M22.5,37.4c-0.8,0.3-0.9,1.2-1,2c-0.1,0.9,0.1,2,0.4,2.8c0.1,0.2,0.5,0.1,0.4-0.2c-0.2-0.7-0.4-1.4-0.4-2.2
	c-0.1-0.7-0.1-1.9,0.6-2.3C22.7,37.5,22.6,37.3,22.5,37.4L22.5,37.4z"/>
<path class="st7" d="M15.3,39.8c1.1-0.8,2.2-1.4,3.5-0.8c0.2,0.1,0.4-0.2,0.2-0.3c-1.4-0.8-2.7,0.1-3.8,1
	C15.1,39.7,15.2,39.8,15.3,39.8L15.3,39.8z"/>
<path class="st7" d="M6.8,56.7c-0.3,0.7-0.8,1.2-1.3,1.8C5,59,4.7,59.5,4.4,60c-0.7,1.1-1.4,2.5-1.2,3.8c0,0.2,0.4,0.2,0.4,0
	c0-1.4,0.7-2.7,1.4-4c0.3-0.6,0.8-1.1,1.2-1.7c0.4-0.5,0.8-0.9,0.9-1.5C7,56.6,6.8,56.5,6.8,56.7L6.8,56.7z"/>
<path class="st7" d="M7.4,57c0.8-0.1,1.4,0.4,2.2,0.6c0.3,0.1,0.4-0.3,0.1-0.4c-0.8-0.2-1.5-0.6-2.3-0.3C7.3,56.8,7.3,57,7.4,57
	L7.4,57z"/>
<path class="st7" d="M0.8,55.9c1.1-0.2,2.1,0.2,3.2,0.4c0.3,0.1,0.5-0.4,0.1-0.5c-1.1-0.2-2.3-0.6-3.4-0.1
	C0.6,55.7,0.6,55.9,0.8,55.9L0.8,55.9z"/>
<path class="st8" d="M73.6,27.8c-0.8-0.5-1.6-1-2.5-1.4c-0.9-0.4-1.8-0.5-2.7-0.6c-1.8-0.1-3.6,0.3-5.3,1c-2.4,1.1-4.4,3.3-4.7,6
	c-0.3,3.1,2.9,4.5,5.5,4.8c3.1,0.3,6.7-0.2,9.3-2c1.6-1.1,3.1-3,2.8-5.1c-0.3-1.7-1.7-3.1-3.5-3.2c-0.4,0-0.5,0.6-0.1,0.7
	c1.5,0.2,2.4,1.2,2.5,2.7c0.1,1.6-0.9,2.9-2.1,3.8c-2.5,1.9-6.4,2.4-9.5,1.9c-1.4-0.2-2.9-0.8-3.5-2.2c-0.5-1.1-0.1-2.5,0.4-3.5
	c1.6-3,5.5-4.1,8.7-4c1.6,0.1,3.2,0.7,4.6,1.3C73.6,28.1,73.8,27.9,73.6,27.8L73.6,27.8z"/>
<path class="st8" d="M71.6,30.1c-1.5-1.2-4.9,0.9-2.9,2.4c0.9,0.7,2.7,0.5,3.4-0.4c0.7-0.8,0.3-2.8-1.1-2.3c-0.4,0.1-0.4,0.7,0,0.8
	c0.3,0.1,0.4,0.1,0.4,0.4c0,0.3-0.2,0.5-0.4,0.7c-0.6,0.3-1.5,0.3-2-0.1c-0.5-0.3,0.2-0.8,0.5-1c0.6-0.3,1.3-0.5,1.9-0.4
	C71.6,30.3,71.7,30.1,71.6,30.1L71.6,30.1z"/>
<path class="st8" d="M76.6,32.8c0.1-0.2,0.2-0.4,0.2-0.7c0.1-0.4,0.4-0.7,0.7-1c0.5-0.5,1.1-0.9,1.7-1.3c1.2-0.8,2.5-1.1,3.9-1.2
	c1.2-0.1,2.6,0,3.5,0.8c1.2,0.9,1.2,2.7,0.5,3.9c-1.1,1.9-3.8,2.5-5.9,2.6c-1.1,0-2.3-0.1-3.3-0.6c-0.6-0.3-1.1-0.7-1.3-1.3
	c-0.2-0.7,0.1-1.3,0.5-1.9c0.2-0.4-0.3-0.7-0.6-0.4c-1.1,1-1.1,2.5-0.2,3.7c0.9,1.1,2.5,1.4,3.8,1.6c2.7,0.3,5.9-0.4,7.7-2.5
	c1-1.2,1.4-3,0.7-4.5c-0.7-1.4-2-2.1-3.5-2.3c-1.5-0.2-3.2,0-4.6,0.6c-1.4,0.6-2.9,1.7-3.7,3c-0.3,0.5-0.4,1-0.2,1.6
	C76.5,32.8,76.6,32.8,76.6,32.8L76.6,32.8z"/>
<path class="st8" d="M80.5,32c-0.6-0.5-1.6,0-1.8,0.8c-0.2,0.9,0.7,1.5,1.5,1.4c0.6-0.1,1.3-0.5,1.5-1c0.1-0.3,0.1-0.6-0.1-0.9
	c-0.3-0.3-0.7-0.3-1-0.2c-0.5,0.1-0.3,0.7,0.1,0.8c0.1,0,0.1,0,0.2,0c0,0,0.1,0.1,0,0c0.1,0-0.1-0.1,0,0c0,0-0.1-0.1,0-0.1
	c0-0.1,0-0.1,0,0c0-0.1,0,0,0,0c-0.1,0.1-0.2,0.2-0.3,0.3c-0.2,0.1-0.3,0.2-0.5,0.2c-0.2,0.1-0.7,0-0.8-0.4c0-0.5,0.6-0.7,1-0.7
	C80.6,32.3,80.6,32.1,80.5,32L80.5,32z"/>
<path class="st8" d="M76.2,36.4c-0.9-0.8-2.7-0.5-3.8-0.4c-1.7,0.2-3.3,1.1-4.6,2.2c-1.1,0.9-2.3,1.9-2.2,3.5c0.1,1.4,1,2.7,2.2,3.4
	c1.4,0.8,3.1,0.9,4.6,0.9c1.8,0,3.7-0.4,5.3-1.3c1.3-0.7,2.8-1.6,3.2-3.1c0.4-1.4-0.4-3-1.5-3.9c-0.9-0.8-2.4-1.4-3.6-1.5
	c-0.3,0-0.4,0.4-0.2,0.6c1.1,0.6,2.3,0.8,3.3,1.7c1.1,1,1.4,2.6,0.4,3.8c-1,1.2-2.7,1.9-4.2,2.3c-1.6,0.5-3.4,0.5-5.1,0.2
	c-1.2-0.2-2.4-0.7-3.1-1.8c-0.4-0.6-0.6-1.4-0.5-2.1c0.1-0.7,0.7-1.2,1.2-1.6c1.2-1.1,2.6-2,4.2-2.5c1.2-0.4,2.8-0.7,4.1-0.4
	C76.2,36.6,76.3,36.5,76.2,36.4L76.2,36.4z"/>
<path class="st8" d="M77.3,40.4c0-0.7-1-0.6-1.5-0.3c-0.7,0.4-0.9,1.4-0.1,1.9c0.7,0.3,1.6,0,2.2-0.4c0.3-0.2,0.5-0.5,0.5-0.9
	c0-0.4-0.4-0.7-0.7-0.8c-0.4-0.1-0.7,0.5-0.3,0.7c0.1,0,0.1,0.1,0.2,0.1c0,0,0-0.2,0-0.1c0-0.1,0,0-0.1,0.1
	c-0.1,0.1-0.1,0.1-0.2,0.1c-0.3,0.2-0.7,0.4-1.1,0.3c-0.3-0.1-0.3-0.3-0.1-0.5c0.2-0.1,0.3-0.2,0.5-0.3c0.1,0,0.3-0.1,0.4,0
	C77.2,40.5,77.3,40.5,77.3,40.4L77.3,40.4z"/>
<path class="st8" d="M60.9,38.2c-2.7-1.3-6.4-0.6-8.7,1.3c-1.1,0.9-1.6,2.2-1.4,3.6c0.3,1.3,1.3,2.3,2.4,3c2.3,1.3,5.3,0.7,7.6-0.2
	c2.2-1,4.7-3,3.9-5.7c-0.5-1.9-3-2.6-4.8-2.4c-0.4,0-0.4,0.5,0,0.6c1.2,0.1,2.5,0.3,3.4,1.3c0.9,1,0.5,2.5-0.2,3.5
	c-1.5,1.9-4.3,2.7-6.6,2.8c-1.3,0.1-2.6-0.3-3.7-1.2c-1.1-0.9-1.6-2.3-0.9-3.6c0.8-1.5,2.6-2.3,4.1-2.6c1.6-0.4,3.2-0.2,4.7,0
	C60.9,38.4,61,38.2,60.9,38.2L60.9,38.2z"/>
<path class="st8" d="M61.4,40.4c-0.3-0.6-1-0.4-1.4,0.1c-0.4,0.6,0.2,1.3,0.8,1.4c0.5,0.2,1.2,0,1.6-0.4c0.2-0.2,0.4-0.7,0.2-1
	c-0.2-0.4-0.8-0.4-1.2-0.2C61,40.4,61.2,41,61.6,41c0.1,0,0.2,0,0.3,0.1c-0.1-0.1-0.2-0.3-0.2-0.4c0,0.3-0.4,0.4-0.7,0.4
	c-0.6-0.1-0.3-0.7,0.2-0.5C61.3,40.6,61.4,40.5,61.4,40.4L61.4,40.4z"/>
<path class="st8" d="M17.2,93.7c-0.9-0.2-1.8,0.2-2.6,0.5c-1.1,0.5-2.1,1.2-2.9,2c-0.7,0.7-1.4,1.6-1.5,2.6
	c-0.1,1.2,0.7,2.1,1.7,2.7c1.4,0.8,3.1,0.5,4.6,0c1.8-0.5,3.5-1.4,5.1-2.4c1.3-0.8,2.6-1.8,3.4-3.1c0.3-0.5,0.5-1.1,0.4-1.7
	c-0.2-0.7-0.9-1.3-1.5-1.7c-2.5-1.9-5.2,0.2-7.6,1.1c-0.3,0.1-0.3,0.6,0.1,0.6c1.6-0.2,2.9-1.1,4.5-1.5c0.9-0.2,1.8,0,2.5,0.5
	c0.7,0.5,1.4,1.1,1,2c-0.6,1.4-2.3,2.4-3.5,3.2c-1.6,1-3.3,1.8-5.2,2.4c-1.5,0.4-3.4,0.5-4.4-0.9c-0.6-0.8-0.1-1.9,0.4-2.6
	c0.7-1,1.7-1.7,2.7-2.3c0.8-0.5,1.8-1,2.8-1C17.3,94,17.4,93.8,17.2,93.7L17.2,93.7z"/>
<path class="st8" d="M13,97.6c-0.5,1.6,3.3,0.7,3.9,0.5c2.4-0.6,4.6-1.7,6-3.8c0.2-0.3-0.2-0.6-0.5-0.4c-0.9,0.8-1.6,1.6-2.6,2.2
	c-0.8,0.5-1.7,0.8-2.6,1.1c-0.6,0.2-3.8,1.3-4,0.3C13.1,97.5,13,97.5,13,97.6L13,97.6z"/>
<path class="st8" d="M15.5,105.8c0.7,0,1.4-0.3,2.1-0.5c1-0.2,1.9-0.4,2.9-0.5c1.5-0.2,2.9-0.4,4.4-0.4c1.3,0,2.8,0.2,3.8,1.2
	c1.2,1.2-0.5,2.7-1.5,3.3c-1.1,0.6-2.6,0.7-3.8,0.7c-1.5,0-3.2-0.2-4.7-0.6c-0.8-0.2-1.5-0.6-2.2-1.1c-0.4-0.2-0.7-0.5-1-0.9
	c-0.3-0.4,0.2-0.6,0.5-0.9c0.3-0.2,0.1-0.7-0.3-0.6c-0.9,0.2-1.4,1.1-0.9,2c0.5,0.9,1.6,1.4,2.4,1.8c1.3,0.6,2.7,0.8,4,0.9
	c1.6,0.2,3.1,0.2,4.7-0.1c1.5-0.3,2.7-1,3.6-2.2c0.9-1.2,0.6-2.7-0.6-3.6c-1.2-0.9-2.8-1.1-4.3-1c-1.7,0-3.4,0.4-5,0.7
	c-1.5,0.3-2.8,0.7-4.2,1.4C15.3,105.6,15.4,105.7,15.5,105.8L15.5,105.8z"/>
<path class="st8" d="M18.1,105.9c-0.7,1.4,4.8,1.7,5.5,1.7c0.9,0,1.8-0.2,2.7-0.4c0.4-0.1,1-0.3,1.3-0.7c0.2-0.3,0-0.7-0.3-0.8
	c-0.3-0.1-0.5,0.3-0.3,0.5c0.1,0.2,0.2-0.2,0-0.1c-0.2,0.1-0.4,0.1-0.5,0.2c-0.5,0.1-0.9,0.2-1.4,0.3c-0.6,0.1-1.1,0.2-1.6,0.2
	c-1,0-1.9-0.1-2.9-0.2c-0.4,0-2.1-0.1-2.2-0.7C18.3,105.8,18.2,105.8,18.1,105.9L18.1,105.9z"/>
<path class="st8" d="M6.2,104.1c0.5-0.1,1,0.6,1.3,0.9c0.5,0.5,1,1,1.4,1.5c0.9,1,1.7,2,2.4,3.1c0.6,0.9,1.2,2,0.9,3.1
	c-0.3,1.1-1.5,1.7-2.5,1.6c-1.1,0-2.2-0.9-3-1.6c-0.9-0.8-1.7-1.9-2.4-2.9c-0.7-1.1-1.1-2.2-1-3.5c0.1-1,1-2.4,2.1-1.9
	c0.4,0.1,0.6-0.4,0.3-0.7C4.7,103,3.5,104,2.9,105c-0.7,1.3-0.4,3,0.2,4.3c0.7,1.4,1.7,2.7,2.8,3.8c1,1,2.3,2,3.8,2.2
	c1.3,0.1,2.5-0.5,3.2-1.6c0.8-1.2,0.3-2.7-0.3-3.8c-0.8-1.4-2-2.7-3.1-3.8c-0.6-0.6-1.3-1.1-1.9-1.7c-0.4-0.3-0.9-0.7-1.4-0.5
	C6,103.9,6,104.1,6.2,104.1L6.2,104.1z"/>
<path class="st8" d="M6.2,105.5c-0.1,0.7,0.3,1.4,0.6,2c0.4,0.8,0.9,1.5,1.3,2.2c0.6,0.9,1.6,2.5,3,2.2c0.2-0.1,0.3-0.3,0.3-0.5
	c0-0.3-0.1-0.4-0.4-0.6c-0.2-0.2-0.5,0.1-0.4,0.3c0,0.1,0,0.2,0,0.4c0.1-0.1,0.2-0.3,0.3-0.4c-1,0.2-1.9-1.4-2.4-2.1
	c-0.4-0.6-0.8-1.2-1.2-1.8c-0.3-0.5-0.5-1.2-1-1.7C6.3,105.4,6.2,105.5,6.2,105.5L6.2,105.5z"/>
<path class="st8" d="M4.3,84.9c-1-0.5-1.9,0.6-2.4,1.4c-0.8,1.4-0.6,3.2,0,4.6c1.2,2.7,3.9,4.3,6.8,3.8c2.8-0.5,4.9-3.1,4.9-6
	c0-1.4-0.5-2.8-1.5-3.8c-0.8-0.9-2-1.4-3.1-1.7c-2.2-0.7-5.1-0.6-6,1.9c-0.1,0.3,0.3,0.5,0.5,0.2c1.3-2.2,4.3-1.7,6.3-0.7
	c1.2,0.6,2.1,1.4,2.6,2.8c0.4,1.4,0.2,2.9-0.6,4.1c-1.5,2.4-4.7,3.1-7,1.7c-1.5-0.9-2.5-2.6-2.7-4.3c-0.1-0.8,0-1.7,0.4-2.5
	c0.3-0.6,0.9-1.5,1.7-1.3C4.3,85.1,4.3,85,4.3,84.9L4.3,84.9z"/>
<path class="st8" d="M3.7,88.7c-0.4,1.8,1.7,3.5,3.3,3.7c1.8,0.2,4.1-0.9,4.4-2.9c0-0.3-0.4-0.4-0.6-0.2c-0.8,1.3-1.9,2.2-3.5,2.3
	c-1.5,0-3.3-1.3-3.4-2.9C3.9,88.6,3.8,88.6,3.7,88.7L3.7,88.7z"/>
<path class="st8" d="M5.5,85.9c0.9-0.6,2-0.4,3,0c0.3,0.1,0.6-0.3,0.3-0.5c-1.2-0.5-2.4-0.5-3.4,0.3C5.3,85.8,5.4,86,5.5,85.9
	L5.5,85.9z"/>
<path class="st8" d="M24.4,93.5c2-1.5,4.2-3,6.9-2.9c1.3,0.1,2.6,0.7,3.1,1.9c0.5,1.1,0.4,2.5,0.1,3.6c-0.8,2.5-3.6,4.3-5.9,5.1
	c-1.3,0.4-2.5,0.4-3.7-0.3c-0.6-0.3-1.2-0.8-1.6-1.3c-0.4-0.6-0.4-1.1-0.4-1.8c0-0.4-0.5-0.5-0.6-0.1c-0.4,1.4,0.3,2.7,1.5,3.5
	c1.3,1,2.6,1.4,4.2,1.1c1.5-0.2,3-1.1,4.2-2c1.3-0.9,2.5-2.2,3.1-3.7c0.6-1.4,0.6-2.9,0.1-4.3c-0.5-1.5-1.7-2.3-3.2-2.6
	c-2.8-0.6-6.3,1.2-7.9,3.4C24.1,93.5,24.3,93.6,24.4,93.5L24.4,93.5z"/>
<path class="st8" d="M24,97.9c0,1.3,1.4,1.7,2.4,1.7c1.4,0,2.9-0.6,4-1.4c1-0.6,1.6-1.9,2-2.9c0.3-0.6,1-2.8-0.3-2.9
	c-0.2,0-0.2,0.2-0.1,0.3c0.7,0.7-0.2,2-0.5,2.8c-0.4,0.8-0.8,1.6-1.5,2.1c-0.9,0.6-2,1-3.1,1.3c-1.1,0.2-2.1,0-2.7-1
	C24.1,97.8,24,97.8,24,97.9L24,97.9z"/>
<path class="st8" d="M26.3,94.3c1.2-0.7,2.2-1.1,3.5-1.1c0.3,0,0.3-0.4,0-0.4c-1.5-0.2-2.6,0.5-3.7,1.4
	C26.1,94.2,26.2,94.3,26.3,94.3L26.3,94.3z"/>
<path class="st8" d="M32.9,110.1c-2.5,0.2-3.9,3.3-4.4,5.4c-0.5,2.3,0.3,5,3,5.1c2.7,0.1,4.7-2.2,5.4-4.6c0.6-2,0.8-7.3-2.5-6.9
	c-0.7,0.1-1.3,0.4-1.9,0.7c-0.3,0.2-0.1,0.7,0.2,0.5c0.9-0.3,2.3-0.9,3,0.1c0.7,1,0.7,2.8,0.5,4c-0.3,2.4-1.6,4.7-4,5.1
	c-0.9,0.2-1.8-0.1-2.4-0.8c-0.7-0.9-0.7-2.1-0.5-3.1c0.3-2.1,1.5-4.6,3.6-5.4C33.1,110.3,33.1,110.1,32.9,110.1L32.9,110.1z"/>
<path class="st8" d="M33.9,111.5c0.8,0.7-0.1,2.6-0.4,3.3c-0.2,0.5-0.5,1.1-0.7,1.6c-0.1,0.2-0.3,0.5-0.6,0.7
	c-0.5,0.4-0.7,0.1-0.9-0.3c-0.1-0.2-0.5-0.1-0.5,0.1c0.1,0.9,0.7,1.4,1.6,1c0.7-0.4,1.1-1.3,1.4-2c0.4-0.9,0.6-1.8,0.8-2.7
	c0.1-0.6,0.1-1.4-0.6-1.7C33.9,111.3,33.8,111.4,33.9,111.5L33.9,111.5z"/>
<path class="st8" d="M53.6,72c1-1.3,2.6-2.1,4-2.9c1.5-1,2.9-2,4.5-2.9c1.7-0.9,3.5-1.5,5.3-2.1c1.9-0.6,3.9-1.1,5.9-1.2
	c2.1-0.1,4.3,0.3,6.4,0.3c0.9,0,1.8,0,2.7-0.1c0.7-0.1,1.3-0.4,2-0.4c0.8-0.1,0.7,0.6,0.6,1.2c-0.2,0.8-0.6,1.4-1.1,1.9
	c-1.1,1.1-2.8,1.6-4.3,2c-1.1,0.3-2.1,0.5-3.1,0.9c-1.1,0.5-2,1.2-3,1.9c-0.9,0.6-1.9,1.3-2.9,1.7c-1.2,0.5-2.7,0.7-4,0.9
	c-1.4,0.2-2.8,0.3-4.1,0.3c-1.4,0-2.7-0.4-4.1-0.4c-1.2,0-2.4,0.6-3.6,0.6c-0.7,0-2.7-0.6-1.4-1.4c0.5-0.3,0.1-0.9-0.4-0.7
	c-1.3,0.6-1.3,1.9-0.2,2.7c1.3,0.9,2.9,0.5,4.3,0.1c1.9-0.5,3.7,0.2,5.6,0.2c2,0,3.9-0.2,5.8-0.6c1.7-0.4,3.2-0.9,4.7-1.9
	c1.4-0.9,2.7-2,4.2-2.6c1.5-0.6,3.1-0.7,4.6-1.3c1.4-0.6,2.7-1.5,3.5-2.8c0.6-1,0.9-2.5,0.2-3.5c-0.7-0.9-2.6-0.2-3.4,0
	c-1.8,0.4-3.9,0.1-5.8,0c-2-0.1-3.8-0.2-5.8,0.2c-3.5,0.6-7,2-10.1,3.8c-1.4,0.9-2.7,1.9-4.1,2.9c-1.2,0.8-2.6,1.6-3.3,2.9
	C53.1,72,53.4,72.2,53.6,72L53.6,72z"/>
<path class="st8" d="M69.7,66c-0.6-0.2-1.4,0-2,0.2c-0.7,0.2-1.5,0.6-1.9,1.2c-0.9,1.3,0.8,2.5,2,2.4c1.3-0.1,2.5-1.2,3.1-2.3
	c0.2-0.4,0.3-0.9,0.1-1.3c-0.3-0.5-1-0.4-1.5-0.3c-0.5,0.1-0.3,0.8,0.2,0.7c0.1,0,0.6-0.1,0.7,0.1c0.1,0.3-0.2,0.6-0.3,0.8
	c-0.5,0.7-1.4,1.4-2.3,1.5c-0.5,0-0.9-0.1-1.2-0.4c-0.5-0.4-0.2-0.9,0.2-1.2c0.8-0.7,2-1,3-1.2C69.8,66.2,69.8,66,69.7,66L69.7,66z"
	/>
<path class="st8" d="M67.3,78.6c0.7-0.4,1.7-0.3,2.5-0.3c0.9,0,1.8-0.3,2.6-0.6c1.9-0.7,3.8-1.5,5.8-1.9c2.1-0.4,4.3-0.4,6.4-0.1
	c1.9,0.3,3.8,1,5.8,1c0.6,0,1.3-0.2,1.9,0c0.6,0.1,0.8,0.9,0.5,1.3c-0.5,0.9-1.8,1.5-2.8,1.8c-3.6,1.1-6.7,3.3-10.5,4
	c-3,0.5-6.3,0-9.3-0.7c-1.4-0.4-2.8-0.9-3.9-2c-0.3-0.3-0.7-0.8-0.6-1.2c0.2-0.5,1-0.7,1.5-0.9c0.5-0.2,0.3-0.9-0.2-0.8
	c-1.1,0.2-2.5,0.9-2.2,2.2c0.3,1.4,2,2.4,3.2,3c1.6,0.7,3.5,1,5.2,1.3c1.9,0.3,3.8,0.4,5.7,0.2c1.9-0.2,3.7-0.8,5.4-1.6
	c1.7-0.8,3.4-1.7,5.2-2.3c1.1-0.4,2.2-0.7,3.2-1.4c0.8-0.6,1.6-1.6,1.1-2.7c-0.4-0.7-1-1.1-1.8-1.1c-0.4,0-0.9,0-1.3,0.1
	c-0.6,0-1.1,0-1.7-0.1c-1.3-0.2-2.6-0.5-3.9-0.7c-1.3-0.2-2.7-0.3-4-0.2c-2.6,0.1-5,0.8-7.4,1.8c-1.2,0.5-2.4,1.1-3.6,1.3
	c-1,0.2-2,0-2.9,0.6C67,78.5,67.1,78.7,67.3,78.6L67.3,78.6z"/>
<path class="st8" d="M80.2,78.4c-0.9,0.1-2.1,0.3-2.7,1.1c-0.3,0.4-0.2,0.9,0.1,1.3c0.3,0.3,0.7,0.4,1.1,0.5c0.9,0.1,2-0.3,2.7-0.8
	c0.3-0.2,0.5-0.6,0.4-1c-0.1-0.5-0.6-0.7-1-0.8c-0.4-0.1-0.6,0.5-0.3,0.7c0.1,0.1,0.5,0.2,0.5,0.4c0,0.1-0.3,0.3-0.4,0.3
	c-0.5,0.3-1.2,0.5-1.8,0.5c-0.6,0-1.1-0.4-0.6-0.9c0.5-0.5,1.4-0.7,2-1C80.3,78.6,80.3,78.3,80.2,78.4L80.2,78.4z"/>
<path class="st8" d="M100.7,40c-0.1,1.6,0,3.2,0.1,4.8c0.1,1.5-0.2,3.1,0.2,4.6c0.7,2.6,4,2.4,6.1,2.3c2.2-0.1,5.1,0.5,6.6-1.6
	c0.9-1.2,0.7-3,0.5-4.4c-0.2-1.3-0.4-2.6-0.5-4c0-1.2-0.1-2.4-0.3-3.5c-0.2-0.8-0.5-1.7-1.5-1.7c-0.8,0-0.9,1-1,1.6
	c-0.1,1,0,2,0.1,3.1c0,0.3,0,0.7,0,1c0,0.3-0.2,0.6-0.3,0.8c-0.2,0.4-0.6-0.7-0.6-0.9c-0.4-1.3,0-2.9-0.1-4.2c0-1.7,0-3.7-0.8-5.3
	c-0.3-0.6-0.8-1-1.4-0.8c-0.6,0.1-0.9,0.9-1,1.4c-0.5,2-0.2,4.2,0,6.2c0.1,0.7,0.1,1.4,0.1,2c0,0.5,0,0.9-0.1,1.4
	c-0.1,0.3-0.6,0.8-0.8,0.3c-0.5-1.4,0.5-4.1-1.2-4.9c-0.2-0.1-0.4-0.1-0.5,0.1c-0.4,0.6-0.4,1.4-0.4,2.1c0,0.8,0.2,1.7-0.4,2.3
	c0.2,0,0.4,0.1,0.6,0.1c-1-1.3-0.8-3.1-0.6-4.6c0.1-1.6,0.2-3.3-0.6-4.7c-0.1-0.1-0.3-0.2-0.4-0.2c-1.1,0.4-1.4,2.1-1.5,3.1
	c-0.2,1.4-0.2,2.7-0.2,4.1c0,0.4,0.6,0.4,0.6,0c0-1.1,0.2-2.2,0.3-3.3c0.1-0.7,0.2-1.4,0.4-2c0.1-0.4,0.3-1,0.7-1.2
	c-0.1-0.1-0.3-0.1-0.4-0.2c1.6,2.8-0.8,6.6,1.3,9.3c0.2,0.2,0.4,0.3,0.6,0.1c1.4-1.2,0.1-3.1,0.9-4.5c-0.2,0-0.3,0.1-0.5,0.1
	c0.9,0.4,0.7,2,0.7,2.8c0,0.7-0.1,1.8,0.6,2.3c0.3,0.2,0.9,0.1,1.2-0.1c0.5-0.2,0.7-0.8,0.7-1.2c0.2-0.8,0.1-1.6,0-2.4
	c-0.2-2.2-0.6-4.5-0.2-6.7c0.1-0.5,0.4-1.6,1-0.8c0.5,0.8,0.6,2,0.7,2.9c0.1,0.8,0.1,1.6,0.1,2.4c0,1.4-0.2,2.8,0.1,4.3
	c0.1,0.8,1.1,2.5,2,1.3c0.6-0.8,0.5-1.7,0.5-2.6c-0.1-1-0.2-2.1,0-3c0-0.2,0.1-0.6,0.3-0.6c0.4,0,0.5,0.7,0.6,1
	c0.3,1.2,0.2,2.4,0.2,3.6c0,1.4,0.3,2.7,0.4,4c0.1,1.1,0.2,2.4-0.3,3.4c-0.4,0.9-1.5,1.2-2.4,1.3c-1,0.2-2,0.1-3,0.1
	c-0.7,0-1.4,0-2.1,0c-0.9,0-1.9,0-2.7-0.4c-1.2-0.5-1.2-2.1-1.2-3.2c0-2.4-0.4-4.8-0.6-7.2C101.1,39.8,100.7,39.8,100.7,40L100.7,40
	z"/>
<path class="st8" d="M108.1,47.4c-0.4-0.3-0.8-0.3-1.3-0.1c-0.4,0.1-1,0.4-1.2,0.8c-0.5,1.1,0.5,1.6,1.5,1.6c0.7,0,2.2-0.3,2.6-0.9
	c0.4-0.8-0.9-1.4-1.4-1.5c-0.3-0.1-0.6,0.4-0.2,0.6c0.3,0.1,0.6,0.3,0.8,0.5c0.3,0.3-0.5,0.4-0.7,0.4c-0.3,0.1-2,0.6-1.9-0.2
	c0.1-0.6,1.5-1,1.9-0.9C108.1,47.6,108.2,47.5,108.1,47.4L108.1,47.4z"/>
<path class="st8" d="M119,38c-0.1,0.9-0.3,1.8-0.4,2.7c-0.1,1.1-0.2,2.2-0.2,3.4c-0.1,1.7-0.5,3.6,0.1,5.2c1.2,3.3,5.2,2.3,7.8,2.2
	c1,0,2,0,3.1,0c0.9,0,1.8,0,2.7-0.2c1.6-0.4,2-2,1.8-3.5c-0.1-0.9-0.3-1.8-0.5-2.8c-0.2-1.1-0.2-2.2-0.3-3.3c-0.2-2-0.4-4-0.4-6
	c0-0.9,0-1.9-0.4-2.8c-0.4-0.9-1.6-0.7-2.1,0c-1.1,1.5-0.6,3.7-0.8,5.5c-0.1,1-0.2,1.9-0.5,2.8c-0.1,0.3-0.2,0.7-0.4,0.9
	c-0.1,0.1-0.2-0.5-0.2-0.7c0-0.6,0.1-1.2,0.2-1.9c0.1-1,0.1-2,0-2.9c0-1,0.4-3.4-1.2-3.5c-1.3-0.1-1.8,2.3-1.9,3.2
	c-0.3,1.7,0.3,3.6-0.2,5.2c-0.3,0.8-0.7-0.4-0.7-0.7c0-0.4,0-0.8,0-1.2c0-0.8-0.2-1.4-0.7-2c-0.4-0.4-1.1-0.5-1.5-0.1
	c-0.4,0.3-0.5,0.9-0.5,1.4c-0.1,0.6,0,1.2,0,1.8c0,0.3-0.1,0.6-0.3,0.9c0,0,0.1,0,0.1,0c-0.1-0.2-0.2-0.4-0.3-0.6
	c-0.1-0.3-0.1-0.7-0.1-1c0-1.8,0.7-3.6,0-5.3c-0.4-0.9-1.7-1.8-2.2-0.4c-0.3,0.8-0.3,1.7-0.3,2.6c0,1,0,2.1,0,3.1c0,0.1,0,0.2,0,0.2
	c0,0.4,0.6,0.5,0.7,0.1c0.1-0.9,0.2-1.8,0.2-2.7c0-1-0.1-2.3,0.4-3.1c0.2-0.3,0.6,0.6,0.6,0.7c0.2,0.4,0.2,0.9,0.2,1.4
	c0,0.9-0.2,1.9-0.3,2.8c-0.1,0.8-0.1,1.6,0.3,2.4c0.2,0.5,0.8,0.9,1.3,0.5c0.9-0.7,0.6-2.3,0.7-3.3c0-0.2,0-0.6,0.2-0.8
	c0.3-0.4,0.7,0.9,0.8,1.1c0.1,0.8-0.1,1.6,0.1,2.4c0.2,0.6,0.7,1.1,1.3,1.1c0.7,0,1-0.9,1.2-1.4c0.5-1.7-0.2-3.6,0.2-5.3
	c0.1-0.6,0.3-1.7,0.8-2c0.2-0.2,0.3,1,0.3,1.1c0,0.4,0,0.8,0,1.3c0,1,0.1,2,0,3c0,0.6-0.2,1.3-0.2,1.9c0,0.8,0.3,1.9,1.3,1.8
	c0.7-0.1,1-1.3,1.2-1.8c0.2-0.9,0.4-1.9,0.4-2.9c0.1-0.7,0-1.4,0.1-2.2c0-0.7,0-2.7,0.9-3c0.3-0.1,0.3,2.2,0.3,2.4
	c0,1.9,0.2,3.9,0.4,5.8c0.1,1.5,0.2,3.1,0.5,4.6c0.2,1.1,0.9,3.2-0.3,4c-0.4,0.3-1,0.3-1.5,0.3c-0.8,0-1.7,0-2.5,0
	c-1.4,0-2.8,0.1-4.2,0.2c-1.1,0.1-2.2,0.2-3.2-0.3c-1.3-0.6-1.4-2.1-1.4-3.3c0-1.5,0.1-2.9,0.1-4.4c0-1.5,0.3-3,0-4.5
	C119.3,37.8,119,37.8,119,38L119,38z"/>
<path class="st8" d="M127.7,47.3c-0.1-1.4-3.4-0.6-2.8,1c0.4,0.9,1.7,0.8,2.4,0.6c0.4-0.1,0.9-0.4,1-0.9c0.2-0.5-0.6-0.8-0.9-1
	c-0.4-0.1-0.5,0.4-0.2,0.6c0.1,0.1,0.2,0.2,0.4,0.3c0.1,0.1,0.1,0.1,0,0c-0.1,0.1-0.1,0.1-0.2,0.1c-0.2,0.1-0.4,0.2-0.6,0.2
	c-0.4,0.1-1.2,0.1-1.2-0.4c0-0.4,0.6-0.6,0.9-0.7c0.4-0.1,0.9-0.1,1.1,0.2C127.6,47.5,127.7,47.4,127.7,47.3L127.7,47.3z"/>
<path class="st8" d="M126.2,63.7c-0.7-1-2-0.8-3-0.6c-1.3,0.3-2.4,1-3.3,2c-2.1,2.2-2.8,5.8-1.7,8.6c1,2.5,3.4,4.2,6,4.6
	c2.9,0.5,6-0.7,8-2.9c1.8-2.1,2.1-4.8,0.9-7.2c-1.2-2.4-3.9-4.8-6.6-5.1C126.1,63,125.9,63.6,126.2,63.7c1.9,0.4,3.4,1.5,4.6,2.8
	c1.2,1.2,2,2.8,2,4.5c0,3.2-3,5.6-5.9,6.2c-2.7,0.5-5.7-0.6-7.2-2.9c-1.8-2.7-1-6.6,1.1-8.9c0.6-0.7,1.4-1.1,2.2-1.5
	c0.9-0.4,2.1-0.8,3-0.1C126.1,63.9,126.3,63.8,126.2,63.7L126.2,63.7z"/>
<path class="st8" d="M125,69.2c-0.4-0.2-0.6-0.3-1-0.2c-0.4,0.1-0.7,0.4-0.9,0.7c-0.5,0.7-0.9,1.7-0.7,2.6c0.4,2,2.9,2.5,4.6,1.9
	c1.9-0.6,2.5-2.5,1.5-4.2c-0.8-1.4-2.9-2.5-4.4-1.3c-0.2,0.2,0,0.6,0.3,0.5c1.2-0.4,2.3-0.1,3,1c0.8,1.1,0.7,2.4-0.5,3
	c-1,0.6-2.8,0.5-3.5-0.5c-0.6-0.9,0.1-3.8,1.5-3.2C125,69.4,125.1,69.2,125,69.2L125,69.2z"/>
<path class="st8" d="M125.3,71.6C125.3,71.6,125.3,71.6,125.3,71.6C125.3,71.6,125.3,71.5,125.3,71.6
	C125.3,71.5,125.3,71.5,125.3,71.6c0-0.2-0.1-0.3-0.2-0.3c-0.1,0-0.2,0-0.2,0.1c-0.1,0.1-0.1,0.2-0.1,0.3c0,0.1,0,0.1,0.1,0.2
	c0,0,0,0,0,0c0-0.1,0,0,0,0c0.1,0.2,0.3,0.3,0.5,0.2c0,0,0.1,0,0.1-0.1c0,0,0,0,0,0c0,0-0.1,0-0.1,0c0.2,0,0.4-0.2,0.4-0.4
	c0-0.2-0.1-0.3-0.3-0.4c-0.3-0.1-0.5,0.1-0.5,0.4c0-0.1,0-0.1,0.1-0.2c0,0,0,0,0,0c0,0,0,0,0,0c0,0.1-0.1,0.1-0.1,0.2
	C125,71.7,125.2,71.7,125.3,71.6C125.3,71.6,125.3,71.6,125.3,71.6C125.2,71.5,125.2,71.5,125.3,71.6
	C125.3,71.6,125.3,71.6,125.3,71.6C125.3,71.6,125.3,71.6,125.3,71.6C125.3,71.6,125.3,71.5,125.3,71.6c-0.1,0-0.1,0-0.2,0.1
	c0,0,0,0,0,0c0,0-0.1,0-0.1,0c0,0,0,0-0.1-0.1c0,0.1,0.1,0.1,0.2,0.1C125.3,71.8,125.3,71.6,125.3,71.6L125.3,71.6z"/>
<path class="st8" d="M136.4,77.7c-2.2-1.5-4.8,0.4-6.1,2.1c-1.6,2.1-2.5,4.6-1.8,7.1c1.6,5.6,9.3,6.9,13.1,2.9
	c1.7-1.8,2.6-4.6,1.7-7c-0.9-2.6-3.8-4.9-6.5-5.3c-0.4-0.1-0.6,0.5-0.2,0.7c1.8,0.5,3.2,1.7,4.4,3.1c1,1.3,1.6,2.6,1.4,4.3
	c-0.3,3-3,5.2-5.9,5.5c-2.7,0.3-5.4-1-6.6-3.4c-1.3-2.5-0.4-5.3,1.2-7.4c1.3-1.7,3.1-3,5.3-2.3C136.4,77.9,136.4,77.8,136.4,77.7
	L136.4,77.7z"/>
<path class="st8" d="M136.4,83.4c-1.2-0.8-2.3,0-2.8,1.1c-0.6,1.4-0.4,3,0.9,3.9c1.4,1,3.7,0.5,4.8-0.7c1.5-1.6-0.3-4.6-2.4-4.4
	c-0.3,0-0.5,0.6-0.1,0.6c1.5,0.3,3,2.1,1.5,3.4c-0.9,0.8-2.6,1-3.6,0.3c-1.6-1.1-0.6-5.3,1.5-4.1C136.4,83.6,136.5,83.5,136.4,83.4
	L136.4,83.4z"/>
<path class="st8" d="M137.3,86.4c0.1,0,0.1-0.1,0.1-0.2c0-0.1-0.1-0.2-0.2-0.2c-0.1,0-0.2,0-0.3,0c0,0,0,0,0,0c0,0,0,0,0,0
	c0,0-0.1,0-0.1,0.1c-0.1,0.1-0.1,0.2-0.1,0.3c0,0.1,0,0.2,0.1,0.3c0.1,0.1,0.3,0.1,0.4,0.1c0.1,0,0.2-0.1,0.3-0.2
	c0.1-0.1,0.2-0.3,0.1-0.5c-0.1-0.1-0.2-0.2-0.3-0.2c-0.1,0-0.1,0-0.2,0.1c-0.2,0.1-0.2,0.3-0.2,0.4c0,0.1,0.1,0.2,0.2,0.2
	c0.1,0.1,0.2,0.1,0.3,0c0,0,0,0,0,0c0,0-0.1,0-0.1,0c0,0,0,0,0,0c0,0-0.1,0-0.1,0c0,0,0,0,0,0c-0.1-0.1-0.2-0.2-0.3-0.3c0,0,0,0,0,0
	c0-0.1,0-0.1,0-0.2c0,0,0,0,0,0c0-0.1,0.1-0.1,0.1-0.2c0,0-0.1,0.1,0.1,0c-0.1,0.1-0.1,0.1-0.1,0.1c0,0,0,0,0,0.1
	c0,0-0.1,0.1-0.1,0.1C136.9,86.3,137.1,86.4,137.3,86.4C137.3,86.4,137.3,86.3,137.3,86.4C137.3,86.2,137.3,86.4,137.3,86.4
	c0-0.1,0.1-0.2,0.1-0.2c-0.1,0.1-0.1,0.1-0.2,0.2c0,0-0.1,0,0,0C137.2,86.4,137.2,86.4,137.3,86.4C137.2,86.4,137.2,86.4,137.3,86.4
	C137.3,86.4,137.2,86.4,137.3,86.4C137.2,86.4,137.2,86.4,137.3,86.4C137.3,86.4,137.3,86.4,137.3,86.4
	C137.2,86.4,137.2,86.4,137.3,86.4c-0.1-0.1-0.1-0.1-0.1-0.1c0,0,0,0,0,0C137.2,86.3,137.2,86.4,137.3,86.4L137.3,86.4z"/>
<path class="st8" d="M107.5,93.8c0.9-2.4,1.2-4.9,2.6-7.1c0.6-1,1.7-2,2.9-2.1c0.9-0.1,1.2,0.9,1.3,1.6c0.3,1.8-0.1,3.8-0.8,5.5
	c-0.4,1.1-1.1,2.2-2.2,2.7c-1.3,0.7-2.8-0.7-3.8-1.4c-0.4-0.2-0.9,0.3-0.5,0.7c1,0.9,2.4,1.8,3.8,1.8c1.2-0.1,2.1-1,2.8-1.9
	c1.2-1.7,1.6-4,1.7-6c0-1.7-0.3-4.2-2.6-3.8c-2.7,0.5-4,3.5-4.6,5.8c-0.4,1.3-0.6,2.8-0.8,4.2C107.1,94,107.4,94,107.5,93.8
	L107.5,93.8z"/>
<path class="st8" d="M107.2,93.6c-0.6,2.1-3,5.2-1,7.2c1.2,1.3,2.9,0.4,3.8-0.8c0.5-0.7,0.9-1.5,1.3-2.3c0.4-0.8,0.7-1.6,0.9-2.4
	c0.1-0.5-0.6-0.7-0.7-0.2c-0.4,1.3-1,2.6-1.7,3.8c-0.7,1.1-2.3,2.4-3.2,0.8c-0.5-0.9,0-2.2,0.3-3.1c0.3-0.9,0.7-1.8,0.8-2.8
	C107.6,93.5,107.3,93.5,107.2,93.6L107.2,93.6z"/>
<path class="st8" d="M106.9,101.2c-1,1.4-1.4,3.4-1.4,5.1c-0.1,1.9,0.3,3.7,0.8,5.5c0.9,2.9,2.7,5.4,5.4,6.8
	c3.1,1.5,6.6,1.3,9.6-0.2c3.1-1.5,4.9-4.4,7.5-6.6c1.7-1.4,4-2.3,6.2-1.7c2,0.5,3.4,2.3,4,4.2c0.4,1.4,0.7,2.9,0.4,4.3
	c-0.2,0.7-0.5,1.2-1.2,1.5c-1.3,0.4-1.9-0.7-1.9-1.8c0-0.5-0.8-0.5-0.8,0c-0.1,1.2,0.5,2.6,1.9,2.8c1.1,0.1,2.1-0.4,2.6-1.4
	c1-1.8,0.4-4.5-0.3-6.3c-1.1-2.8-3.7-4.7-6.7-4.5c-3.3,0.2-5.7,2.7-7.8,5c-1.9,2.1-4.1,3.8-6.9,4.4c-2.7,0.6-5.6,0-7.8-1.6
	c-2.1-1.5-3.2-3.9-3.8-6.4c-0.4-1.5-0.6-3-0.5-4.6c0-1.6,0.5-3,0.9-4.5C107.3,101.1,107,101,106.9,101.2L106.9,101.2z"/>
<g>
	<path class="st8" d="M25.4,149.4c-1.4-0.9-3.2-0.3-4.4,0.7c-1.1,0.9-1.6,2.6-0.3,3.6c1.4,1.1,3.9,1.1,5.3,0.1
		c1.7-1.2,1.6-4.1-0.7-4.3c-0.5,0-0.5,0.7-0.1,0.8c0.8,0.3,1.2,0.8,1,1.7c-0.2,0.8-0.8,1.2-1.5,1.4c-1.1,0.3-2.8,0.3-3.7-0.6
		c-0.7-0.7,0.3-1.9,0.9-2.3c1-0.8,2.2-1,3.4-0.6C25.5,149.8,25.6,149.5,25.4,149.4L25.4,149.4z"/>
	<path class="st8" d="M22.2,137.5c0,0.3,0.1,0.5,0.1,0.7c0.1,0.4,0.1,0.8,0.2,1.3c0.1,0.9,0,1.7,0,2.6c-0.1,1.4,0,3.1-1.7,3.3
		c-2,0.2-4-0.6-5.7-1.4c-1.7-0.7-3.5-1.8-5.4-1.9c-0.5,0-0.6,0.7-0.1,0.8c1.1,0.3,2.2,0.6,3.3,1.1c1,0.4,2,0.9,3.1,1.4
		c1.7,0.7,4,1.5,5.9,0.7c1.6-0.6,1.6-2.5,1.6-3.9c0-1,0-1.9-0.2-2.9c-0.1-0.6-0.2-1.6-0.8-2C22.3,137.4,22.2,137.4,22.2,137.5
		L22.2,137.5z"/>
	<path class="st8" d="M9.8,143.2C9.9,143,9.7,143,9.8,143.2c0.1,0.2,0.2,0.4,0.3,0.5c0.2,0.3,0.5,0.5,0.8,0.8c0.6,0.5,1.3,1,2,1.5
		c1.3,0.9,3.1,1.9,3.6,3.5c0.5,1.9-1.2,3.8-2.5,5c-0.8,0.7-1.6,1.4-2.4,2c-0.8,0.6-1.6,1.2-2.2,2.1c-0.3,0.4,0.3,0.8,0.7,0.5
		c0.8-0.7,1.5-1.4,2.3-2c0.9-0.7,1.8-1.5,2.7-2.3c1.5-1.4,2.8-3.3,2.3-5.4c-0.3-1.7-2.1-2.8-3.5-3.7c-0.8-0.5-1.7-1-2.5-1.5
		c-0.4-0.3-0.7-0.5-1-0.9c-0.2-0.2-0.4-0.6-0.7-0.6c-0.1,0-0.2,0.1-0.2,0.2c0,0.1,0,0.2,0.1,0.3C9.7,143.2,9.8,143.3,9.8,143.2
		L9.8,143.2z"/>
	<path class="st8" d="M10,159.4c1.2-0.1,2.3-1.1,3.5-1.4c1.6-0.4,3.3-0.6,4.7,0.2c2.6,1.4,2.5,4.6,3.9,6.9c0.4,0.6,1.2,0.1,0.9-0.5
		c-1.3-2.6-1.6-5.6-4.3-7.2c-1.4-0.8-3.1-0.6-4.5-0.3c-1.6,0.3-2.8,1.2-4.2,2.1C9.8,159.2,9.9,159.4,10,159.4L10,159.4z"/>
	<path class="st8" d="M22.2,165.5c0.9-1,1-2.4,1.7-3.5c0.7-1.4,1.8-2.6,3.4-3c1.4-0.3,2.4,0.8,3.2,1.8c0.6,0.7,1.5,1.7,1.6,2.7
		c0.1,0.6,0.8,0.7,1,0.1c0.3-1-1-2.5-1.6-3.2c-0.9-1.2-2.1-2.3-3.6-2.4c-1.6-0.1-3.1,1.2-4,2.4c-0.5,0.7-0.8,1.4-1.1,2.2
		c-0.3,0.9-0.3,1.9-0.7,2.8C22,165.5,22.1,165.6,22.2,165.5L22.2,165.5z"/>
	<path class="st8" d="M22.7,137.9c0.1,1.5,0.4,3.1,0.8,4.5c0.3,1.4,0.9,3,2.3,3.7c1.4,0.6,3.1,0.1,4.3-0.4c1.4-0.6,2.9-1.4,4-2.6
		c0.4-0.5-0.2-1.1-0.7-0.7c-1,0.8-2.2,1.6-3.4,2.2c-1.2,0.6-2.8,1.2-4.1,0.6c-1.2-0.6-1.6-2.3-1.9-3.4c-0.3-1.2-0.5-2.8-1.2-3.9
		C22.8,137.8,22.7,137.8,22.7,137.9L22.7,137.9z"/>
	<path class="st8" d="M33.8,143.4c-1.1,0.5-2.1,1.4-2.8,2.4c-0.8,0.9-1.4,2.1-1.2,3.3c0.3,2.3,3.8,2.4,5.6,2.4c1.2,0,2.3-0.1,3.5,0
		c2.2,0,4.4,0.1,6.6,0.2c4.4,0.2,8.8,0.5,13.2,0.8c5.8,0.3,11.6,0.4,17.4,0c1.3-0.1,2.6-0.2,4-0.4c0.4,0,0.7-0.1,1-0.1
		c0.1,0,0.1,0,0.2,0c0,0,0.1,0,0.1,0c0.3,0-0.2,0-0.1,0c-0.1,0-0.2-0.2-0.2-0.4c-0.1,0.4,0.6,0.6,0.7,0.2c0.1-0.7-0.8-0.5-1.3-0.4
		c-1.3,0.1-2.7,0.2-4,0.3c-6.6,0.3-13.2,0.1-19.8-0.2c-6.8-0.4-13.6-1-20.4-0.8c-1,0-2,0-3-0.1c-0.9-0.1-1.9-0.4-2.3-1.2
		c-0.5-0.9,0.3-2.1,0.8-2.9c0.6-0.9,1.5-1.8,2.4-2.5C34.3,143.6,34.1,143.2,33.8,143.4L33.8,143.4z"/>
	<path class="st8" d="M33.8,164.1c0.7-1,0.5-2.1,0.1-3.2c-0.4-1.3-1.1-2.5-1.5-3.9c-0.1-0.5-0.2-1.2,0-1.7c0.3-0.6,0.9-0.8,1.5-0.9
		c1.4-0.3,2.9,0,4.2,0.1c2.1,0.1,4.3-0.1,6.4-0.1c2.2-0.1,4.4,0.1,6.6,0.1c4.4,0.1,8.8,0.2,13.2,0.2c5.4,0,10.8,0,16.1-0.1
		c0.7,0,0.7-1,0-1c-8.7,0.2-17.4,0.1-26.1,0c-2.2,0-4.4-0.1-6.6-0.1c-2.2-0.1-4.3,0-6.4,0.1c-1.8,0.1-3.6,0-5.4-0.1
		c-1.2-0.1-2.5,0-3.5,0.7c-1.5,1.1-0.9,3.2-0.3,4.6c0.4,0.9,0.8,1.7,1.2,2.6c0.3,0.8,0.6,1.8,0.3,2.6
		C33.3,164.1,33.7,164.3,33.8,164.1L33.8,164.1z"/>
	<path class="st8" d="M88.4,142.3c0.2,2-1.7,3.7-2.9,5c-0.7,0.7-1.3,1.4-2,2.1c-0.8,0.9-1.8,1.6-2.7,2.4c-0.3,0.3,0,0.9,0.4,0.7
		c1.2-0.5,2.1-1.5,3-2.5c0.7-0.8,1.4-1.6,2.2-2.5c1.2-1.4,3-3.4,2.5-5.4C88.8,142,88.4,142,88.4,142.3L88.4,142.3z"/>
	<path class="st8" d="M91.9,153.5c-1.5,0.5-3.4-0.2-4.9-0.5c-0.9-0.2-1.7-0.4-2.6-0.5c-1.1-0.2-2.3-0.7-3.4-0.6
		c-0.4,0-0.6,0.6-0.2,0.8c1.1,0.5,2.5,0.6,3.6,0.8c0.9,0.1,1.8,0.3,2.8,0.4c1.6,0.3,3.4,0.7,4.9,0C92.2,153.7,92.1,153.4,91.9,153.5
		L91.9,153.5z"/>
	<path class="st8" d="M89.6,159.6c-0.8,0-1.5-0.6-2-1.1c-0.6-0.5-1.1-1-1.7-1.6c-0.7-0.7-1.3-1.3-2-1.9c-0.4-0.4-0.9-0.8-1.3-1.2
		c-0.4-0.4-0.7-0.8-1.2-0.9c-0.3-0.1-0.5,0.2-0.5,0.5c0.2,0.5,0.6,0.8,1,1.1c0.5,0.5,1,0.9,1.5,1.4c0.7,0.7,1.5,1.3,2.2,2
		c1.1,1,2.4,2.3,4,2.1C89.8,159.9,89.7,159.6,89.6,159.6L89.6,159.6z"/>
	<path class="st8" d="M84.1,164.6c0.2-3.5-0.6-7.4-2.7-10.2c-0.4-0.6-1.4,0-1,0.6c1,1.3,1.6,2.9,2.1,4.5c0.5,1.6,0.9,3.4,1.1,5.1
		C83.7,164.9,84,164.9,84.1,164.6L84.1,164.6z"/>
	<path class="st8" d="M83.2,143.4c0.5,0.6,0.6,1.6,0.7,2.3c0.1,0.8,0.1,1.7,0.2,2.5c0.1,0.6,0.8,0.3,0.9-0.1
		c0.1-0.9-0.2-1.9-0.4-2.7c-0.2-0.8-0.5-1.6-1.1-2.2C83.3,142.9,83,143.2,83.2,143.4L83.2,143.4z"/>
	<path class="st8" d="M90.1,150.3c-0.6,1.4-2.3,1.9-3.4,2.8c-0.3,0.3,0,0.9,0.4,0.7c0.7-0.3,1.4-0.9,2-1.4c0.6-0.5,1.2-1.2,1.3-2
		C90.4,150.3,90.2,150.1,90.1,150.3L90.1,150.3z"/>
	<path class="st8" d="M87.4,162.4c-1.1-0.7-2.7-1.8-4.1-1.4c-0.4,0.1-0.3,0.7,0.1,0.7c1.4,0,2.6,0.6,3.8,1.1
		C87.4,162.9,87.6,162.6,87.4,162.4L87.4,162.4z"/>
	<path class="st8" d="M79.7,163.9c0.5-1,1.1-1.9,1.7-2.9c0.5-0.9,1.2-2,1.2-3c0-0.3-0.5-0.5-0.6-0.2c-0.2,0.4-0.3,0.9-0.5,1.3
		c-0.2,0.6-0.5,1.2-0.8,1.7c-0.5,0.9-1,1.9-1.4,2.9C79.3,163.9,79.6,164.1,79.7,163.9L79.7,163.9z"/>
	<path class="st8" d="M34.1,138.5c0.1,0.1-0.1,0.7-0.1,0.8c-0.1,0.5-0.2,0.9-0.4,1.4c-0.1,0.5-0.3,0.9-0.5,1.4
		c-0.1,0.3-0.3,0.7-0.2,1c0.1,0.3,0.5,0.4,0.7,0.2c0.3-0.3,0.3-0.9,0.4-1.2c0.2-0.6,0.3-1.3,0.4-1.9c0.1-0.4,0.4-1.7-0.3-1.8
		C34.1,138.4,34,138.5,34.1,138.5L34.1,138.5z"/>
	<path class="st8" d="M39.6,139.3c-0.9,0.8-1.9,1.4-3,2c-0.5,0.3-1.1,0.6-1.6,0.9c-0.4,0.2-1,0.5-1.2,0.9c-0.2,0.3,0.1,0.5,0.4,0.5
		c0.5-0.1,1-0.5,1.4-0.8c0.5-0.3,1.1-0.7,1.6-1c1-0.6,2-1.3,2.7-2.2C40.1,139.3,39.8,139.1,39.6,139.3L39.6,139.3z"/>
	<path class="st8" d="M40.4,141.6c-0.7-0.1-1.3-0.2-2-0.3c-0.6-0.1-1.4-0.1-1.9,0.3c-0.2,0.2-0.2,0.6,0.2,0.6c0.6,0,1.1-0.2,1.7-0.2
		c0.7,0,1.3,0,2-0.1C40.6,141.9,40.6,141.6,40.4,141.6L40.4,141.6z"/>
	<path class="st8" d="M24.5,134.6c-0.3,0.9-0.6,1.8-1,2.7c-0.3,0.8-0.7,1.8-0.7,2.7c0,0.4,0.7,0.6,0.8,0.1c0.1-1,0.3-1.9,0.6-2.8
		c0.3-0.9,0.6-1.8,0.5-2.7C24.8,134.4,24.6,134.4,24.5,134.6L24.5,134.6z"/>
	<path class="st8" d="M21,132.5c0.2,1.2,0.2,2.5,0.4,3.7c0.1,0.9,0.4,2.7,1.4,3.2c0.3,0.1,0.7-0.1,0.5-0.4c-0.2-0.5-0.6-0.9-0.8-1.4
		c-0.2-0.6-0.4-1.2-0.5-1.7c-0.2-1.2-0.3-2.4-0.8-3.5C21.1,132.3,21,132.4,21,132.5L21,132.5z"/>
	<path class="st8" d="M19,135c0.9,0.6,1.5,1.6,2.5,2.1c0.3,0.2,0.5-0.2,0.3-0.4c-0.6-0.8-1.7-1.7-2.7-1.9
		C19,134.7,18.9,134.9,19,135L19,135z"/>
	<path class="st8" d="M5.4,140c0.9,0.4,1.6,1.1,2.3,1.8c0.7,0.6,1.8,1.6,2.8,1.5c0.5,0,0.6-0.8,0.1-0.8c-1.2-0.2-2.1-0.9-3-1.6
		c-0.5-0.3-1.6-1.4-2.2-1C5.4,139.9,5.3,140,5.4,140L5.4,140z"/>
	<path class="st8" d="M9.9,138.8c0.4,0.6,0.6,1.3,0.7,1.9c0.2,0.7,0.2,1.5,0.6,2.1c0.2,0.4,0.8,0.1,0.7-0.3
		c-0.1-0.7-0.5-1.4-0.7-2.1c-0.2-0.7-0.5-1.3-1-1.8C10.1,138.4,9.8,138.6,9.9,138.8L9.9,138.8z"/>
	<path class="st8" d="M7,144.3c1-0.2,2-0.7,2.9-1.2c0.3-0.2,0.1-0.6-0.2-0.5c-1,0.3-1.8,1.1-2.8,1.5C6.8,144.2,6.9,144.3,7,144.3
		L7,144.3z"/>
	<path class="st8" d="M10.4,146.7c0.3,0,0.6-0.1,0.9-0.3c0.3-0.2,0.6-0.3,1-0.3c0.3,0,0.4-0.5,0.1-0.6c-0.8-0.2-1.5,0.6-2,1
		C10.2,146.6,10.3,146.7,10.4,146.7L10.4,146.7z"/>
	<path class="st8" d="M5.7,163.1c0.8-0.8,1.7-1.5,2.5-2.2c0.9-0.7,1.9-1.3,2.7-2c0.3-0.3-0.1-0.8-0.5-0.6c-0.9,0.5-1.7,1.3-2.5,2
		c-0.9,0.8-1.7,1.6-2.5,2.6C5.3,163.1,5.6,163.3,5.7,163.1L5.7,163.1z"/>
	<path class="st8" d="M3.6,158.7c1,0.1,2,0.1,3,0.1c1.1,0,2.2,0.2,3.3,0.1c0.4,0,0.6-0.7,0.1-0.8c-1-0.2-2.1-0.1-3.1,0
		c-1.1,0-2.2,0.1-3.3,0.2C3.3,158.3,3.3,158.7,3.6,158.7L3.6,158.7z"/>
	<path class="st8" d="M5.7,156.3c0.4,1,1.3,1.6,2.1,2.3c0.3,0.3,0.8-0.2,0.5-0.5c-0.7-0.7-1.7-1.1-2.2-2
		C5.9,155.9,5.6,156.1,5.7,156.3L5.7,156.3z"/>
	<path class="st8" d="M23.2,169.6c0.4-0.8,0.4-1.7,0.2-2.6c-0.1-0.5-0.3-1-0.5-1.6c-0.2-0.4-0.3-1-0.7-1.3c-0.2-0.2-0.7-0.1-0.7,0.3
		c0,0.3,0.2,0.6,0.3,0.8c0.2,0.4,0.4,0.9,0.5,1.4c0.3,0.9,0.6,1.9,0.5,2.8C22.9,169.7,23.1,169.8,23.2,169.6L23.2,169.6z"/>
	<path class="st8" d="M20.4,170.2c0.6-0.8,0.9-1.8,1.1-2.8c0.3-1.1,0.6-2.1,1-3.1c0.1-0.3-0.3-0.5-0.5-0.3c-0.6,0.7-0.8,1.7-1,2.6
		c-0.2,1.2-0.4,2.3-1,3.4C20,170.2,20.3,170.4,20.4,170.2L20.4,170.2z"/>
	<path class="st8" d="M33,167.9c0.1-0.9-0.1-1.6-0.2-2.4c-0.2-1,0.2-2-0.1-2.9c-0.1-0.4-0.7-0.4-0.8,0c-0.2,0.7-0.1,1.7,0,2.4
		c0.2,1,0.7,1.9,0.7,2.9C32.6,168,33,168.1,33,167.9L33,167.9z"/>
	<path class="st8" d="M37.6,169.9c-0.2-1.4-1.3-2.4-2.2-3.5c-0.9-1.2-1.2-3.2-2.6-4.1c-0.3-0.2-0.8,0.2-0.6,0.6
		c0.4,0.6,0.9,1.1,1.2,1.7c0.4,0.7,0.7,1.4,1.2,2c0.8,1.1,2.2,1.9,2.6,3.3C37.4,170.2,37.7,170.1,37.6,169.9L37.6,169.9z"/>
	<path class="st8" d="M37.3,166.5c-0.9,0-1.9-0.4-2.8-0.3c-0.4,0-0.4,0.5,0,0.6c0.9,0.1,2.1,0.6,2.9,0
		C37.5,166.6,37.5,166.5,37.3,166.5L37.3,166.5z"/>
	<path class="st8" d="M7.6,164.9c0.1-0.6,0.2-1.3,0.3-1.9c0.1-0.6,0.4-1.1,0.5-1.7c0-0.3-0.4-0.4-0.6-0.2c-0.4,0.4-0.5,1.1-0.6,1.7
		c-0.1,0.7-0.1,1.4-0.1,2.2C7.3,165.1,7.6,165.1,7.6,164.9L7.6,164.9z"/>
</g>
<path class="st8" d="M55.8,108.8c0.5-0.3,0.8-0.8,1.2-1.3c0.5-0.7,0.9-1.5,1.5-2.2c0.6-0.8,1.3-1.8,2.2-2.3c0.9-0.5,2-0.4,2.9-0.4
	c0.9,0,1.8,0,2.7,0.1c0.9,0,1.6,0.3,2.2,0.9c0.7,0.8,1.1,1.9,1.5,2.9c0.4,1,0.8,2.2,1.6,3c0.3,0.3,0.9,0,0.8-0.5
	c-0.2-0.5-0.5-1-0.8-1.6c-0.3-0.6-0.5-1.1-0.8-1.7c-0.5-1-1-2.1-1.7-3c-1.2-1.4-3.4-1.1-5-1.2c-1,0-2,0-3,0.2c-1,0.3-1.8,1-2.4,1.8
	c-0.7,0.8-1.3,1.7-1.8,2.6c-0.2,0.4-0.4,0.8-0.6,1.2c-0.2,0.3-0.3,0.8-0.6,1C55.3,108.5,55.5,108.9,55.8,108.8L55.8,108.8z"/>
<path class="st8" d="M55.4,108.6c0.5,1.9,1.7,3.5,3.2,4.7c1.5,1.2,3,1.6,4.9,1.6c1.8,0,3.7,0.3,5.4-0.5c0.8-0.4,1.5-1.3,2-2
	c0.7-0.8,1-1.7,1.5-2.7c0.2-0.4-0.3-0.7-0.6-0.3c-0.4,0.7-1,1.4-1.5,2.1c-0.5,0.7-1.2,1.4-1.9,1.9c-0.7,0.4-1.6,0.4-2.4,0.4
	c-0.8,0-1.6,0-2.4,0c-1.7,0-3-0.2-4.4-1.2c-1.4-1.1-2.4-2.7-3.5-4.1C55.6,108.2,55.3,108.4,55.4,108.6L55.4,108.6z"/>
<path class="st8" d="M69,115c0.2-0.7,0.9-1.3,1.3-1.8c0.5-0.6,1-1.2,1.5-1.8c0.6-0.7,1.2-1.3,2-1.6c0.8-0.3,1.7-0.2,2.5-0.2
	c0.7,0,1.5-0.1,2.2-0.1c0.8,0.1,1.4,0.5,1.9,1.1c0.6,0.7,1,1.6,1.5,2.5c0.5,0.9,1,1.9,1.6,2.8c0.4,0.5,1.2,0,0.9-0.5
	c-0.6-1-1.2-2-1.7-3c-0.5-0.9-1-1.9-1.8-2.7c-1.3-1.4-3.1-1.1-4.8-1c-0.9,0-1.7,0.1-2.6,0.3c-0.9,0.3-1.6,1-2.2,1.7
	c-0.6,0.7-1.2,1.5-1.8,2.2c-0.5,0.6-1,1.2-0.9,2C68.8,115.1,69,115.2,69,115L69,115z"/>
<path class="st8" d="M68.9,114.6c-0.5,1.8,1.3,3.1,2.4,4.2c1.3,1.3,2.5,2.5,4.5,2.3c1.7-0.1,3.6,0.3,5.3-0.3
	c0.9-0.3,1.5-1.1,2.1-1.7c0.6-0.7,1.3-1.8,1.1-2.8c0-0.4-0.5-0.5-0.7-0.1c-0.3,0.9-0.6,1.6-1.3,2.3c-0.5,0.6-1.1,1.1-1.9,1.4
	c-1.4,0.5-3.1,0.1-4.5,0.2c-0.8,0.1-1.5,0-2.2-0.4c-0.6-0.4-1.2-1-1.7-1.5c-0.5-0.5-1.1-1-1.7-1.5c-0.6-0.6-0.9-1.3-1.2-2.1
	C69.2,114.5,69,114.4,68.9,114.6L68.9,114.6z"/>
<path class="st8" d="M54.9,121.1c0.4-0.1,0.7-0.5,0.9-0.9c0.5-0.6,0.9-1.2,1.5-1.7c0.6-0.6,1.3-1.3,2.1-1.8c0.6-0.4,1.3-0.4,1.9-0.5
	c1.5-0.1,2.9-0.4,4.4-0.3c1.7,0.1,2.6,1.6,3.4,2.9c0.4,0.7,0.9,1.3,1.4,1.9c0.3,0.3,0.4,0.7,0.3,1.1c-0.1,0.5-0.6,1.1-0.9,1.5
	c-0.6,0.8-1.2,1.5-1.8,2.3c-0.3,0.3-0.5,0.7-0.8,1.1c-0.3,0.4-0.7,0.5-1.2,0.5c-2,0.3-4.1-0.1-6.1-0.1c-0.4,0-0.8,0-1.1,0
	c-0.4,0-0.7-0.4-0.9-0.6c-0.6-0.7-1-1.6-1.4-2.4c-0.6-1-1.1-2.1-1.6-3.2c-0.2-0.4-0.8-0.1-0.7,0.3c0.7,1.8,1.5,3.5,2.5,5.1
	c0.4,0.6,0.8,1.2,1.4,1.5c0.2,0.1,0.5,0.1,0.7,0.1c0.5,0,1,0,1.5,0c1.9,0.1,4,0.5,6,0.2c0.6-0.1,1.2-0.3,1.6-0.8
	c0.6-0.8,1.2-1.6,1.8-2.4c1-1.2,2.5-2.7,1.6-4.3c-0.4-0.7-1-1.2-1.4-1.9c-0.5-0.7-0.9-1.4-1.5-2c-1-1.2-2-1.6-3.5-1.6
	c-1.4,0-2.9,0.2-4.3,0.4c-1.5,0.1-2.5,1-3.6,2c-0.5,0.5-1,1-1.4,1.7c-0.3,0.4-0.6,1.3-1.1,1.6C54.6,120.8,54.7,121.2,54.9,121.1
	L54.9,121.1z"/>
<path class="st8" d="M64.3,120.5c-0.7-0.8-1.8-0.3-2.2,0.5c-0.5,1,0.2,2,1.2,2.3c1,0.3,2.2,0,2.7-1c0.6-1.2-0.6-2.3-1.6-2.6
	c-0.4-0.1-0.7,0.5-0.3,0.7c0.5,0.3,1.3,0.7,1.2,1.3c-0.1,0.6-0.9,0.7-1.4,0.7c-0.6,0-1.2-0.5-1.1-1.1c0.1-0.7,0.9-1,1.5-0.8
	C64.4,120.7,64.4,120.6,64.3,120.5L64.3,120.5z"/>
<path class="st8" d="M66.4,110c-0.2-1.1-1.7-0.3-2.1,0.2c-0.5,0.7-0.3,1.9,0.7,2.1c0.8,0.2,1.6-0.3,2-0.9c0.5-0.7,0.3-1.6-0.6-1.7
	c-0.4,0-0.4,0.5-0.2,0.7c0.1,0,0.1,0.1,0.2,0.1c0.1,0.1,0.1,0.1,0.1,0c0,0.1-0.1,0.2-0.2,0.4c-0.2,0.3-0.6,0.6-1,0.6
	c-0.4,0-0.7-0.5-0.5-0.8c0.2-0.5,1-1.1,1.5-0.7C66.3,110.2,66.4,110.1,66.4,110L66.4,110z"/>
<path class="st8" d="M75.9,116.1c0.1-0.3-0.2-0.5-0.5-0.5c-0.5,0-1,0.3-1.3,0.6c-0.7,0.7-0.3,1.7,0.5,2.1c0.7,0.3,1.6,0.1,2.2-0.3
	c0.8-0.6,0.6-1.5-0.1-2c-0.4-0.3-0.8,0.3-0.5,0.6c0.2,0.2,0.4,0.4,0.2,0.6c-0.3,0.2-0.7,0.3-1.1,0.3c-0.3,0-0.7-0.2-0.7-0.6
	c0.1-0.4,0.8-1.1,1.2-0.8C75.8,116.2,75.8,116.2,75.9,116.1L75.9,116.1z"/>
<path class="st8" d="M69.7,101.9c0.4,0.3,0.4,1.3,0.5,1.8c0.1,0.8,0.5,1.5,0.8,2.3c0.6,1.3,1.3,2.7,2.7,3.1c0.8,0.2,1.6,0.2,2.4,0.3
	c1.1,0.1,2.2,0.1,3.3,0c0.8,0,1.7,0,2.5-0.1c0.6-0.1,1-0.7,1.3-1.2c0.5-0.7,1-1.4,1.5-2.1c0.3-0.5,0.7-1,0.5-1.6
	c-0.2-0.6-0.8-1.1-1.1-1.6c-0.5-0.9-1.1-1.7-1.6-2.6c-0.8-1.2-1.4-2.8-2.8-3.4c-0.8-0.3-1.6-0.2-2.4-0.1c-1,0.1-2,0.3-3,0.2
	c-0.7,0-1.6-0.1-2.2,0.3c-0.5,0.3-0.9,0.8-1.2,1.3c-0.7,0.9-1.5,2.4-1.2,3.6c0.1,0.4,0.8,0.3,0.8-0.1c-0.1-1.2,0.7-2.4,1.4-3.3
	c0.3-0.5,0.7-0.9,1.3-1c0.9-0.1,1.8,0.1,2.7,0c1-0.1,2-0.3,3-0.3c0.9,0,1.5,0.6,2,1.3c1,1.5,2,3.2,2.9,4.8c0.2,0.3,0.4,0.5,0.6,0.8
	c0.2,0.3,0.2,0.5,0,0.8c-0.5,0.7-1.1,1.5-1.6,2.1c-0.3,0.3-0.5,0.7-0.8,0.9c-0.1,0.1-0.4,0.1-0.6,0.1c-1.1,0-2.2,0.1-3.3,0.1
	c-1,0-2-0.1-3.1-0.1c-0.7-0.1-1.3-0.2-1.8-0.7c-1.2-1.2-1.9-2.9-2.3-4.5c-0.2-0.5-0.4-1.2-0.9-1.4C69.7,101.5,69.6,101.7,69.7,101.9
	L69.7,101.9z"/>
<path class="st8" d="M77.5,102.3c0.1-0.3-0.4-0.5-0.7-0.6c-0.5-0.1-1.1,0.1-1.4,0.5c-0.7,0.6-0.7,1.8,0.2,2.3c0.8,0.3,1.7,0,2.4-0.4
	c0.6-0.5,0.6-1.4-0.3-1.6c-0.4-0.1-0.7,0.5-0.3,0.7c0,0,0.2,0.1,0.2,0.1c0,0.1,0-0.1,0,0c0,0-0.2,0.2-0.3,0.3
	c-0.3,0.2-0.8,0.4-1.3,0.3c-0.5-0.1-0.5-0.7-0.2-1.1c0.2-0.2,0.5-0.4,0.9-0.4C77,102.2,77.2,102.4,77.5,102.3
	C77.4,102.4,77.5,102.3,77.5,102.3L77.5,102.3z"/>
<path class="st8" d="M70.6,127c1-0.5,1.6-1.6,2.3-2.5c0.4-0.5,0.9-1,1.5-1.3c0.8-0.4,1.9-0.3,2.8-0.2c1,0.1,2,0.2,3,0.4
	c0.6,0.1,1.5,0,2,0.4c0.4,0.4,0.6,1.2,0.8,1.7c0.2,0.6,0.4,1.2,0.6,1.8c0.1,0.3,0.9,1.2,0.7,1.3c-0.5,0.4-1.1,0.7-1.6,1.1
	c-0.8,0.6-1.5,1.1-2.3,1.6c-0.8,0.5-1.6,1.1-2.6,1.2c-0.8,0.1-1.7-0.2-2.5-0.4c-0.7-0.1-1.5-0.2-2.2-0.7c-0.6-0.5-1.1-1.4-1.5-2
	c-0.5-0.8-0.8-1.6-0.9-2.5c-0.1-0.6-0.8-0.6-0.9,0c-0.2,1.6,1,3.2,2,4.5c0.5,0.6,0.9,1.1,1.6,1.4c0.8,0.3,1.6,0.3,2.4,0.5
	c0.7,0.2,1.5,0.3,2.3,0.2c0.9-0.2,1.7-0.7,2.5-1.2c0.8-0.5,1.6-1,2.3-1.6c0.6-0.4,1.2-0.8,1.8-1.2c1.3-0.9-0.1-2-0.5-3
	c-0.4-1.2-0.7-2.6-1.6-3.5c-0.5-0.5-1.1-0.5-1.7-0.5c-1,0-2-0.3-3-0.4c-1.7-0.1-3.4-0.4-4.8,0.8c-1.3,1-1.7,2.8-2.9,3.9
	C70.2,126.9,70.4,127.1,70.6,127L70.6,127z"/>
<path class="st8" d="M76.6,126.9c-0.3-0.8-1.1-0.6-1.6-0.2c-0.6,0.5-0.5,1.5,0.2,1.8c0.6,0.4,1.6,0.3,2.2-0.2c0.7-0.7,0-2-0.6-2.4
	c-0.3-0.2-0.8,0.2-0.5,0.5c0.2,0.3,0.8,0.8,0.6,1.2c-0.1,0.3-0.8,0.2-1,0.2c-0.4-0.1-0.6-0.3-0.4-0.7c0.2-0.4,0.7-0.5,1.1-0.2
	C76.5,127.1,76.6,127,76.6,126.9L76.6,126.9z"/>
<path class="st8" d="M20.5,35.2c-0.5-0.5-1.3-0.6-1.9-0.2c-0.6,0.5-0.3,1.3,0.3,1.6c0.6,0.3,1.4,0.4,2,0.1c0.7-0.3,0.7-1.2,0.1-1.6
	c-0.3-0.2-0.7,0.1-0.5,0.4c0.2,0.3,0.3,0.4,0,0.6c-0.3,0.1-0.8,0.1-1.1,0c-0.2-0.1-0.7-0.2-0.5-0.6c0.3-0.3,1.1-0.4,1.4-0.1
	C20.4,35.4,20.6,35.2,20.5,35.2L20.5,35.2z"/>
<path class="st8" d="M6.8,53.2c-0.7-1.2-2.9,1.1-1.3,2c0.6,0.3,1.3,0.1,1.8-0.3c0.6-0.5,0.6-1.3,0.1-1.9c-0.3-0.3-0.7,0.1-0.5,0.4
	C7,53.7,7.1,54,6.8,54.3c-0.2,0.3-0.6,0.4-0.9,0.4c-1-0.1-0.1-2,0.7-1.4C6.7,53.4,6.8,53.3,6.8,53.2L6.8,53.2z"/>
<path class="st8" d="M117.7,138.9c0.4,0,0.6,0.8,0.8,1c0.3,0.5,0.6,0.9,0.9,1.4c0.7,1,1.3,2.1,2.1,3c0.4,0.5,1.1,1,1.8,0.9
	c0.6-0.1,1-0.7,1.3-1.2c0.8-1.7,0.8-3.7,1-5.5c0.3-2.7,0.9-5.6-0.2-8.2c-0.1-0.2-0.4-0.1-0.4,0.1c0.4,1.2,0.3,2.5,0.2,3.8
	c-0.1,1.3-0.2,2.5-0.4,3.8c-0.2,1.8-0.3,3.8-0.9,5.5c-0.2,0.4-0.5,1.1-1.1,0.8c-0.9-0.4-1.6-1.6-2.1-2.4c-0.6-0.8-1.2-1.7-1.8-2.5
	c-0.3-0.4-0.7-1-1.2-0.7C117.5,138.8,117.6,138.9,117.7,138.9L117.7,138.9z"/>
<path class="st8" d="M4.8,51c-0.3-1.2-0.3-2.5-0.2-3.7c0-0.6,0.1-1.2,0.3-1.8c0.1-0.2,0.4-0.8,0.6-0.7c0.2,0.2,0.3,0.8,0.4,1.1
	c0.1,0.5,0.2,1.1,0.3,1.7c0.1,0.9,0.1,1.9,0.6,2.7c0.6,1.2,2.6,0.8,3.6,0.7c1-0.2,2-0.4,3-0.4c0.3,0,0.9-0.1,1.1,0.1
	c-0.1-0.1,0-0.1,0,0.1c-0.1,0.1-0.2,0.2-0.2,0.3c-0.3,0.3-0.7,0.4-1.1,0.5c-1.2,0.3-2.8,0.2-3.7,1.3c-0.7,0.9-0.1,2,0.4,2.8
	c0.3,0.5,0.7,1,1.1,1.5c0.1,0.2,0.7,1.3,0.4,1.3c-0.5,0-1-0.4-1.4-0.6c-0.4-0.3-0.9-0.5-1.4-0.7c-0.9-0.3-1.8,0.2-2.3,0.9
	c-0.7,0.9-1,2-1.3,3c-0.4,0.9-0.9,1.8-1.4,2.7c-0.1,0.2-0.3,0.4-0.5,0.6c-0.1,0.1-0.2-0.2-0.2-0.3c-0.1-0.5-0.1-1.1,0-1.7
	c0.2-1.7,1.1-3.3,1.5-5c0.1-0.4,0.2-0.7,0.2-1.1c0-0.2,0-0.4-0.3-0.5c-1-0.3-2.1,0.1-3.1,0.4C0,56.7-1.5,56.6-2.6,56
	c0.1,0.2,0.1,0.3,0.2,0.5c0.2-0.6,1.2-0.9,1.8-1.2c1-0.4,2-0.7,3-1.1c1.6-0.7,3.3-1.9,2.5-3.8c-0.2-0.4-0.7-0.1-0.6,0.3
	c0.6,2-1.7,2.7-3.2,3.2c-1.3,0.5-3.6,0.9-4.1,2.3c-0.1,0.2,0,0.4,0.2,0.5c1.1,0.6,2.3,0.7,3.6,0.6c1.1,0,2.3-0.8,3.5-0.5
	c-0.1-0.2-0.2-0.3-0.3-0.5c-0.3,1.9-1.3,3.6-1.7,5.5c-0.2,0.9-0.3,2.1,0,2.9c0.2,0.4,0.5,0.6,0.9,0.6c0.5,0,0.8-0.5,1-0.8
	c0.6-0.8,1.1-1.7,1.5-2.7c0.4-1,0.7-2.2,1.3-3.1c0.2-0.4,0.5-0.7,1-0.8c0.5-0.1,1,0.3,1.4,0.5c0.7,0.4,1.8,1.3,2.6,0.8
	c0.9-0.5,0-2.1-0.4-2.6c-0.5-0.7-2-2.2-1.4-3.1c0.3-0.6,1.2-0.7,1.8-0.8c0.7-0.1,1.5-0.2,2.2-0.5c0.7-0.3,1.7-1.2,1.1-2
	c-0.5-0.6-1.8-0.4-2.5-0.3c-1.2,0.1-2.3,0.4-3.5,0.5c-0.7,0-1.5,0-1.8-0.7c-0.1-0.4-0.2-0.9-0.3-1.4c-0.1-0.8-0.2-4.8-1.8-4.2
	c-1.1,0.4-1.2,2-1.3,2.9c-0.1,1.3,0,2.8,0.5,4.1C4.5,51.4,4.9,51.3,4.8,51L4.8,51z"/>
<path class="st8" d="M23.6,55.4C23.6,55.4,23.6,55.4,23.6,55.4c0,0.1,0.2,0.1,0.3,0.1c0-0.1-0.1-1-0.1-1.1c-0.1-0.5-0.1-1-0.1-1.5
	c-0.1-0.8-0.2-1.5-0.3-2.3c-0.1-0.8-0.2-1.6-0.1-2.4c0-0.2,0.1-0.4,0.2-0.5c0.1-0.1-0.1-0.1,0,0c0.6,0.6,0.9,1.7,1.1,2.4
	c0.2,0.7,0.4,1.5,0.6,2.2c0.2,0.9,0.3,2.4,1.4,2.8c1,0.4,2.4-0.9,3.1-1.4c1-0.7,2.1-1.4,3.2-2c0.3-0.2,0.6-0.3,1-0.4
	c0.1,0,0.9-0.1,0.9,0c0,0.2-0.3,0.5-0.5,0.6c-0.4,0.4-0.8,0.7-1.3,1c-0.7,0.6-1.5,1.1-2.2,1.8c-0.6,0.6-1.3,1-1.9,1.7
	c-0.7,0.8-0.6,1.8,0.1,2.6c1.4,1.7,3.7,2.5,5.6,3.6c0.5,0.3,1.1,0.6,1.4,1.1c0.4,0.6-1.2,0.4-1.4,0.3c-1.4-0.3-2.9-0.9-4.2-1.5
	c-0.9-0.4-1.7-1.9-2.9-1.6c-0.7,0.2-0.8,0.9-0.8,1.5c0,1,0.3,2.1,0.4,3.1c0.1,0.8,0.2,2-0.8,2.1c0.1,0,0.3,0.1,0.4,0.1
	c-1.4-1.6-1.2-4-2.3-5.7c-0.1-0.2-0.4-0.3-0.6-0.1c-0.8,0.6-1.2,1.6-1.9,2.4c-0.7,0.9-1.5,1.7-2.4,2.4c-0.5,0.5-1,0.9-1.6,1.3
	C17.8,68,16.9,68.7,17,68c0.1-0.8,0.8-1.5,1.2-2.1c0.5-0.6,1.1-1.2,1.6-1.9c1.1-1.3,2.8-2.6,3-4.4c0-0.2-0.1-0.3-0.3-0.4
	c-0.9-0.2-1.7-0.4-2.6-0.7c-0.8-0.3-1.9-0.7-2.1-1.6c-0.1,0.2-0.1,0.3-0.2,0.5c0.9-0.6,2-0.6,3.1-0.6c1-0.1,2-0.4,2.9-0.7
	c0.5-0.2,0.3-0.9-0.2-0.8c-1.1,0.3-2.2,0.6-3.4,0.7c-1,0.1-2,0.2-2.9,0.7c-0.2,0.1-0.2,0.3-0.2,0.5c0.6,2.1,3.6,2.3,5.3,2.8
	c-0.1-0.1-0.2-0.3-0.3-0.4c-0.1,1.1-1.2,2-1.9,2.8c-0.6,0.6-1.1,1.3-1.7,2c-0.7,0.7-1.3,1.5-1.8,2.4c-0.4,0.6-0.7,1.3-0.3,2
	c0.6,1.3,2.8-0.7,3.4-1.2c0.7-0.6,1.5-1.3,2.1-2c0.5-0.5,0.9-1,1.3-1.6c0.4-0.5,0.6-1.2,1.2-1.6c-0.2,0-0.4-0.1-0.6-0.1
	c0.9,1.3,1,3,1.6,4.4c0.2,0.4,0.6,1.4,1.1,1.5c0.4,0.1,0.8-0.2,1.1-0.4c0.6-0.5,0.6-1.5,0.6-2.2c-0.1-1-0.3-1.9-0.4-2.8
	c-0.1-0.4-0.3-1.5,0.5-1.2c0.6,0.3,1,0.8,1.5,1.2c0.7,0.5,1.6,0.8,2.4,1.1c1.1,0.4,2.4,0.9,3.6,1c1.1,0,1.7-1,1-1.9
	c-0.6-0.8-1.6-1.3-2.5-1.8c-1.1-0.6-2.2-1.1-3.2-1.8c-0.8-0.5-2-1.5-1.4-2.5c0.4-0.6,1.2-1.1,1.7-1.6c0.8-0.8,1.7-1.4,2.6-2.1
	c0.5-0.4,2.5-1.7,1.5-2.5c-1-0.8-2.4,0-3.4,0.5c-1.1,0.6-2.1,1.3-3.1,2c-0.5,0.4-1,0.8-1.6,1c-0.7,0.3-0.9-0.5-1-1.1
	c-0.3-1.1-0.5-2.2-0.9-3.3c-0.3-0.9-0.7-2.5-1.6-3c-1.3-0.7-1.5,2-1.4,2.6c0.1,1,0.3,2.1,0.5,3.1c0.1,0.6,0.2,1.2,0.3,1.8
	c0.1,0.4,0.1,1.1,0.4,1.4c0.1,0.1,0.3,0.1,0.4,0c0,0,0,0,0.1-0.1C24.2,55.5,23.9,55.2,23.6,55.4L23.6,55.4z"/>
<path class="st8" d="M26,56.7c-0.5-0.8-1.5-0.2-1.9,0.4c-0.6,0.8-0.7,2,0.4,2.5c1,0.5,2.2,0.1,2.6-0.9c0.4-1-0.4-2.2-1.5-2.2
	c-0.3,0-0.4,0.4-0.2,0.6c0.5,0.3,1.1,0.5,0.9,1.2c-0.2,0.6-0.9,0.8-1.4,0.6c-1.2-0.4,0.1-2.5,1-2C25.9,56.9,26,56.8,26,56.7L26,56.7
	z"/>
<path class="st8" d="M19.3,32.7c0.5-1.1,0.6-2.4,0.8-3.6c0.2-1,0.5-3.1,1.7-3.3c-0.1,0-0.2-0.1-0.3-0.1c1.2,2.1-1.3,5.1,0.6,7
	c1,0.9,2.8,0.9,4,0.9c1.6,0,3.4-0.1,4.8,0.9c0-0.2,0-0.3-0.1-0.5c-0.9,1.1-2.5,1.2-3.9,1.4c-1.3,0.2-2.6,0.4-3.6,1.3
	c-1,0.9-0.8,2.7-0.9,3.9c0,0.5,0,1.1,0,1.7c0,0.4,0,1.3-0.5,1.5c0.2,0,0.3,0,0.5,0.1c-1.3-1.5-1.9-5.3-4.6-5c-1,0.1-1.9,0.9-2.7,1.6
	c-0.4,0.4-0.9,0.8-1.3,1.2c-0.2,0.2-0.4,0.3-0.7,0.4c-0.2,0.1-0.3,0.1-0.5,0.1c-0.2,0,0,0.2,0,0c0.3-1.1,1.6-2,2.4-2.7
	c0.6-0.6,2.2-1.9,1.6-2.9c-0.5-0.9-2-0.7-2.8-0.9c-1.8-0.4-3.5-0.8-5.1-1.6c0,0.2,0,0.4,0,0.7c3.3-1.6,7.2-0.3,10.5-1.8
	c0.4-0.2,0.1-0.8-0.3-0.7c-3.4,1.4-7.2,0.2-10.6,1.8c-0.3,0.1-0.2,0.5,0,0.7c1.5,0.7,3.1,1.2,4.7,1.6c0.7,0.2,1.3,0.3,2,0.4
	c0.3,0,0.5,0.1,0.8,0.1c0.4,0.1,0.2,0.5,0.1,0.7c-0.6,1.2-2,1.9-2.9,2.9c-0.4,0.5-1.4,1.6-0.9,2.3c0.5,0.8,1.9,0,2.4-0.4
	c0.9-0.7,1.7-1.6,2.7-2.2c1.2-0.8,2.1-0.1,2.8,1c0.7,1.1,1.1,2.4,2,3.4c0.1,0.1,0.3,0.1,0.5,0.1c1-0.4,0.9-2.1,0.8-3
	c0-0.6,0-1.1,0-1.7c0-0.8,0-1.8,0.5-2.5c0.7-1.1,2.8-1.2,4-1.4c1.3-0.2,2.7-0.4,3.6-1.5c0.1-0.2,0.1-0.4-0.1-0.5
	c-1.2-0.9-2.7-0.9-4.1-1c-1.4,0-3.4,0.3-4.5-0.7c-0.9-0.8-0.5-2.5-0.3-3.6c0.1-1.1,0.3-2.3-0.3-3.3c-0.1-0.1-0.2-0.2-0.3-0.1
	c-1.3,0.2-1.7,1.9-2,3c-0.2,0.8-0.3,1.6-0.4,2.5c-0.1,0.6-0.1,1.3-0.3,1.9C18.9,32.8,19.2,32.9,19.3,32.7L19.3,32.7z"/>
</svg>
