<?xml version="1.0" encoding="utf-8"?>
<!-- Generator: Adobe Illustrator 23.0.6, SVG Export Plug-In . SVG Version: 6.00 Build 0)  -->
<svg version="1.1" id="Layer_1" xmlns="http://www.w3.org/2000/svg" xmlns:xlink="http://www.w3.org/1999/xlink" x="0px" y="0px"
	 viewBox="0 0 141 138.8" style="enable-background:new 0 0 141 138.8;" xml:space="preserve">
<style type="text/css">
	.st0{fill:#99D3CB;}
	.st1{fill:#FFF9EF;}
	.st2{fill:#6FCACD;}
	.st3{fill:#DAECCD;}
	.st4{fill:#871C1C;}
	.st5{fill:#00ACE1;}
	.st6{fill:#006D9C;}
	.st7{fill:#CDE9F1;}
	.st8{fill:#F8CEC7;}
	.st9{fill:#D42C4A;}
	.st10{opacity:0.5;fill:#F4AEA2;enable-background:new    ;}
	.st11{opacity:0.8;fill:#008DC9;enable-background:new    ;}
	.st12{fill:#7DCEF1;}
	.st13{opacity:0.5;fill:#F4AEA2;}
	.st14{opacity:0.8;}
	.st15{fill:#008DC9;}
</style>
<g>
	<path class="st0" d="M85.8,7.3c0-2.3-1.7-4.1-3.8-4.1h-0.8c-2.1,0-3.8,1.8-3.8,4.1v6.6h8.5L85.8,7.3L85.8,7.3z"/>
	<path class="st1" d="M81.1,24.7h0.8c2.1,0,3.8-1.8,3.8-4.1V14h-8.5v6.6C77.3,22.8,79,24.7,81.1,24.7z"/>
	<path class="st2" d="M84.3,13.9h1.5V7.3c0-2.3-1.7-4.1-3.8-4.1h-0.8c-1.3,0-2.5,0.7-3.2,1.8c0.4-0.2,0.8-0.3,1.3-0.3
		C82,4.7,84.3,8.8,84.3,13.9z"/>
	<path class="st3" d="M84.3,13.9c0,5.1-2.3,9.2-5.1,9.2c-0.4,0-0.9-0.1-1.3-0.3c0.7,1.1,1.9,1.8,3.2,1.8H82c2.1,0,3.8-1.8,3.8-4.1
		v-6.6L84.3,13.9L84.3,13.9z"/>
	<path class="st4" d="M81.4,2.5h0.8c2.4,0,4.4,2.1,4.4,4.7v13.3c0,2.6-2,4.7-4.4,4.7h-0.8c-2.4,0-4.4-2.1-4.4-4.7V7.2
		C77,4.7,79,2.5,81.4,2.5z M82.3,24.1c1.8,0,3.2-1.6,3.2-3.5V7.3c0-1.9-1.4-3.5-3.2-3.5h-0.8c-1.8,0-3.2,1.6-3.2,3.5v13.3
		c0,1.9,1.4,3.5,3.2,3.5H82.3z"/>
	<path class="st4" d="M77.9,13.3h8.2c0.3,0,0.6,0.3,0.6,0.6s-0.3,0.6-0.6,0.6h-8.2c-0.3,0-0.6-0.3-0.6-0.6S77.6,13.3,77.9,13.3z"/>
</g>
<g>
	<path class="st0" d="M37.1,7.3c0-2.3-1.7-4.1-3.8-4.1h-0.8c-2.1,0-3.8,1.8-3.8,4.1v6.6h8.5V7.3H37.1z"/>
	<path class="st1" d="M32.4,24.7h0.8c2.1,0,3.8-1.8,3.8-4.1V14h-8.5v6.6C28.6,22.8,30.3,24.7,32.4,24.7z"/>
	<path class="st2" d="M35.6,13.9h1.5V7.3c0-2.3-1.7-4.1-3.8-4.1h-0.8c-1.3,0-2.5,0.7-3.2,1.8c0.4-0.2,0.8-0.3,1.3-0.3
		C33.3,4.7,35.6,8.8,35.6,13.9z"/>
	<path class="st3" d="M35.6,13.9c0,5.1-2.3,9.2-5.1,9.2c-0.4,0-0.9-0.1-1.3-0.3c0.7,1.1,1.9,1.8,3.2,1.8h0.8c2.1,0,3.8-1.8,3.8-4.1
		v-6.6L35.6,13.9L35.6,13.9z"/>
	<path class="st4" d="M32.7,2.5h0.8C36,2.5,38,4.7,38,7.3v13.3c0,2.6-2,4.7-4.4,4.7h-0.8c-2.4,0-4.4-2.1-4.4-4.7V7.3
		C28.3,4.7,30.3,2.5,32.7,2.5z M33.6,24.1c1.8,0,3.2-1.6,3.2-3.5V7.3c0-1.9-1.4-3.5-3.2-3.5h-0.8c-1.8,0-3.2,1.6-3.2,3.5v13.3
		c0,1.9,1.4,3.5,3.2,3.5H33.6z"/>
	<path class="st4" d="M29.2,13.3h8.2c0.3,0,0.6,0.3,0.6,0.6s-0.3,0.6-0.6,0.6h-8.2c-0.3,0-0.6-0.3-0.6-0.6S28.9,13.3,29.2,13.3z"/>
</g>
<g>
	<path class="st0" d="M134.4,7.3c0-2.3-1.7-4.1-3.8-4.1h-0.8c-2.1,0-3.8,1.8-3.8,4.1v6.6h8.5L134.4,7.3L134.4,7.3z"/>
	<path class="st1" d="M129.8,24.7h0.8c2.1,0,3.8-1.8,3.8-4.1V14h-8.5v6.6C126,22.8,127.7,24.7,129.8,24.7z"/>
	<path class="st2" d="M133,13.9h1.5V7.3c0-2.3-1.7-4.1-3.8-4.1h-0.8c-1.3,0-2.5,0.7-3.2,1.8c0.4-0.2,0.8-0.3,1.3-0.3
		C130.7,4.7,133,8.8,133,13.9z"/>
	<path class="st3" d="M133,13.9c0,5.1-2.3,9.2-5.1,9.2c-0.4,0-0.9-0.1-1.3-0.3c0.7,1.1,1.9,1.8,3.2,1.8h0.8c2.1,0,3.8-1.8,3.8-4.1
		v-6.6L133,13.9L133,13.9z"/>
	<path class="st4" d="M130.1,2.5h0.8c2.4,0,4.4,2.1,4.4,4.7v13.3c0,2.6-2,4.7-4.4,4.7h-0.8c-2.4,0-4.4-2.1-4.4-4.7V7.2
		C125.7,4.7,127.7,2.5,130.1,2.5z M131,24.1c1.8,0,3.2-1.6,3.2-3.5V7.3c0-1.9-1.4-3.5-3.2-3.5h-0.8c-1.8,0-3.2,1.6-3.2,3.5v13.3
		c0,1.9,1.4,3.5,3.2,3.5H131z"/>
	<path class="st4" d="M126.6,13.3h8.2c0.3,0,0.6,0.3,0.6,0.6s-0.3,0.6-0.6,0.6h-8.2c-0.3,0-0.6-0.3-0.6-0.6
		C126,13.6,126.3,13.3,126.6,13.3z"/>
</g>
<g>
	<path class="st0" d="M61.4,7.3c0-2.3-1.7-4.1-3.8-4.1h-0.8C54.7,3.2,53,5,53,7.3v6.6h8.5L61.4,7.3L61.4,7.3z"/>
	<path class="st1" d="M56.7,24.7h0.8c2.1,0,3.8-1.8,3.8-4.1V14h-8.5v6.6C52.9,22.8,54.6,24.7,56.7,24.7z"/>
	<path class="st2" d="M59.9,13.9h1.5V7.3c0-2.3-1.7-4.1-3.8-4.1h-0.8c-1.3,0-2.5,0.7-3.2,1.8c0.4-0.2,0.8-0.3,1.3-0.3
		C57.7,4.7,59.9,8.8,59.9,13.9z"/>
	<path class="st3" d="M59.9,13.9c0,5.1-2.3,9.2-5.1,9.2c-0.4,0-0.9-0.1-1.3-0.3c0.7,1.1,1.9,1.8,3.2,1.8h0.8c2.1,0,3.8-1.8,3.8-4.1
		v-6.6L59.9,13.9L59.9,13.9z"/>
	<path class="st4" d="M57.1,2.5h0.8c2.4,0,4.4,2.1,4.4,4.7v13.3c0,2.6-2,4.7-4.4,4.7h-0.8c-2.4,0-4.4-2.1-4.4-4.7V7.2
		C52.7,4.7,54.6,2.5,57.1,2.5z M57.9,24.1c1.8,0,3.2-1.6,3.2-3.5V7.3c0-1.9-1.4-3.5-3.2-3.5h-0.8c-1.8,0-3.2,1.6-3.2,3.5v13.3
		c0,1.9,1.4,3.5,3.2,3.5H57.9z"/>
	<path class="st4" d="M53.6,13.3h8.2c0.3,0,0.6,0.3,0.6,0.6s-0.3,0.6-0.6,0.6h-8.2c-0.3,0-0.6-0.3-0.6-0.6S53.2,13.3,53.6,13.3z"/>
</g>
<g>
	<path class="st0" d="M110.1,7.3c0-2.3-1.7-4.1-3.8-4.1h-0.8c-2.1,0-3.8,1.8-3.8,4.1v6.6h8.5L110.1,7.3L110.1,7.3z"/>
	<path class="st1" d="M105.4,24.7h0.8c2.1,0,3.8-1.8,3.8-4.1V14h-8.5v6.6C101.6,22.8,103.3,24.7,105.4,24.7z"/>
	<path class="st2" d="M108.6,13.9h1.5V7.3c0-2.3-1.7-4.1-3.8-4.1h-0.8c-1.3,0-2.5,0.7-3.2,1.8c0.4-0.2,0.8-0.3,1.3-0.3
		C106.4,4.7,108.6,8.8,108.6,13.9z"/>
	<path class="st3" d="M108.6,13.9c0,5.1-2.3,9.2-5.1,9.2c-0.4,0-0.9-0.1-1.3-0.3c0.7,1.1,1.9,1.8,3.2,1.8h0.8c2.1,0,3.8-1.8,3.8-4.1
		v-6.6L108.6,13.9L108.6,13.9z"/>
	<path class="st4" d="M105.8,2.5h0.8c2.4,0,4.4,2.1,4.4,4.7v13.3c0,2.6-2,4.7-4.4,4.7h-0.8c-2.4,0-4.4-2.1-4.4-4.7V7.2
		C101.3,4.7,103.3,2.5,105.8,2.5z M106.6,24.1c1.8,0,3.2-1.6,3.2-3.5V7.3c0-1.9-1.4-3.5-3.2-3.5h-0.8c-1.8,0-3.2,1.6-3.2,3.5v13.3
		c0,1.9,1.4,3.5,3.2,3.5H106.6z"/>
	<path class="st4" d="M102.3,13.3h8.2c0.3,0,0.6,0.3,0.6,0.6s-0.3,0.6-0.6,0.6h-8.2c-0.3,0-0.6-0.3-0.6-0.6
		C101.7,13.6,101.9,13.3,102.3,13.3z"/>
</g>
<g>
	<path class="st0" d="M12.7,7.3c0-2.3-1.7-4.1-3.8-4.1H8.1C6,3.2,4.2,5,4.2,7.3v6.6h8.5V7.3z"/>
	<path class="st1" d="M8.1,24.7h0.8c2.1,0,3.8-1.8,3.8-4.1V14H4.2v6.6C4.2,22.8,6,24.7,8.1,24.7z"/>
	<path class="st2" d="M11.2,13.9h1.5V7.3c0-2.3-1.7-4.1-3.8-4.1H8.1C6.8,3.2,5.6,3.9,4.9,5c0.4-0.2,0.8-0.3,1.3-0.3
		C9,4.7,11.2,8.8,11.2,13.9z"/>
	<path class="st3" d="M11.2,13.9c0,5.1-2.3,9.2-5.1,9.2c-0.4,0-0.9-0.1-1.3-0.3c0.7,1.1,1.9,1.8,3.2,1.8h0.8c2.1,0,3.8-1.8,3.8-4.1
		v-6.6L11.2,13.9L11.2,13.9z"/>
	<path class="st4" d="M8.4,2.5h0.8c2.4,0,4.4,2.1,4.4,4.7v13.3c0,2.6-2,4.7-4.4,4.7H8.4C6,25.3,4,23.2,4,20.6V7.3
		C4,4.7,6,2.5,8.4,2.5z M9.2,24.1c1.8,0,3.2-1.6,3.2-3.5V7.3c0-1.9-1.4-3.5-3.2-3.5H8.4c-1.8,0-3.2,1.6-3.2,3.5v13.3
		c0,1.9,1.4,3.5,3.2,3.5H9.2z"/>
	<path class="st4" d="M4.9,13.3h8.2c0.3,0,0.6,0.3,0.6,0.6s-0.3,0.6-0.6,0.6H4.9c-0.3,0-0.6-0.3-0.6-0.6S4.6,13.3,4.9,13.3z"/>
</g>
<g>
	<path class="st0" d="M86.6,113.5c0-2.3-1.7-4.1-3.8-4.1H82c-2.1,0-3.8,1.8-3.8,4.1v6.6h8.5L86.6,113.5L86.6,113.5z"/>
	<path class="st1" d="M81.9,130.9h0.8c2.1,0,3.8-1.8,3.8-4.1v-6.6H78v6.6C78.1,129,79.8,130.9,81.9,130.9z"/>
	<path class="st2" d="M85.1,120.1h1.5v-6.6c0-2.3-1.7-4.1-3.8-4.1H82c-1.3,0-2.5,0.7-3.2,1.8c0.4-0.2,0.8-0.3,1.3-0.3
		C82.8,110.9,85.1,115,85.1,120.1z"/>
	<path class="st3" d="M85.1,120.1c0,5.1-2.3,9.2-5.1,9.2c-0.4,0-0.9-0.1-1.3-0.3c0.7,1.1,1.9,1.8,3.2,1.8h0.8c2.1,0,3.8-1.8,3.8-4.1
		v-6.6L85.1,120.1L85.1,120.1z"/>
	<path class="st4" d="M82.2,108.7H83c2.4,0,4.4,2.1,4.4,4.7v13.3c0,2.6-2,4.7-4.4,4.7h-0.8c-2.4,0-4.4-2.1-4.4-4.7v-13.3
		C77.8,110.9,79.8,108.7,82.2,108.7z M83.1,130.2c1.8,0,3.2-1.6,3.2-3.5v-13.3c0-1.9-1.4-3.5-3.2-3.5h-0.8c-1.8,0-3.2,1.6-3.2,3.5
		v13.3c0,1.9,1.4,3.5,3.2,3.5H83.1z"/>
	<path class="st4" d="M78.8,119.5H87c0.3,0,0.6,0.3,0.6,0.6c0,0.3-0.3,0.6-0.6,0.6h-8.2c-0.3,0-0.6-0.3-0.6-0.6
		C78.1,119.8,78.4,119.5,78.8,119.5z"/>
</g>
<g>
	<path class="st0" d="M37.9,113.5c0-2.3-1.7-4.1-3.8-4.1h-0.8c-2.1,0-3.8,1.8-3.8,4.1v6.6H38L37.9,113.5L37.9,113.5z"/>
	<path class="st1" d="M33.2,130.9H34c2.1,0,3.8-1.8,3.8-4.1v-6.6h-8.5v6.6C29.4,129,31.1,130.9,33.2,130.9z"/>
	<path class="st2" d="M36.4,120.1h1.5v-6.6c0-2.3-1.7-4.1-3.8-4.1h-0.8c-1.3,0-2.5,0.7-3.2,1.8c0.4-0.2,0.8-0.3,1.3-0.3
		C34.1,110.9,36.4,115,36.4,120.1z"/>
	<path class="st3" d="M36.4,120.1c0,5.1-2.3,9.2-5.1,9.2c-0.4,0-0.9-0.1-1.3-0.3c0.7,1.1,1.9,1.8,3.2,1.8H34c2.1,0,3.8-1.8,3.8-4.1
		v-6.6L36.4,120.1L36.4,120.1z"/>
	<path class="st4" d="M33.6,108.7h0.8c2.4,0,4.4,2.1,4.4,4.7v13.3c0,2.6-2,4.7-4.4,4.7h-0.8c-2.4,0-4.4-2.1-4.4-4.7v-13.3
		C29.1,110.9,31.1,108.7,33.6,108.7z M34.4,130.2c1.8,0,3.2-1.6,3.2-3.5v-13.3c0-1.9-1.4-3.5-3.2-3.5h-0.8c-1.8,0-3.2,1.6-3.2,3.5
		v13.3c0,1.9,1.4,3.5,3.2,3.5H34.4z"/>
	<path class="st4" d="M30.1,119.5h8.2c0.3,0,0.6,0.3,0.6,0.6c0,0.3-0.3,0.6-0.6,0.6h-8.2c-0.3,0-0.6-0.3-0.6-0.6
		C29.4,119.8,29.7,119.5,30.1,119.5z"/>
</g>
<g>
	<path class="st0" d="M135.3,113.5c0-2.3-1.7-4.1-3.8-4.1h-0.8c-2.1,0-3.8,1.8-3.8,4.1v6.6h8.5L135.3,113.5L135.3,113.5z"/>
	<path class="st1" d="M130.6,130.9h0.8c2.1,0,3.8-1.8,3.8-4.1v-6.6h-8.5v6.6C126.8,129,128.5,130.9,130.6,130.9z"/>
	<path class="st2" d="M133.8,120.1h1.5v-6.6c0-2.3-1.7-4.1-3.8-4.1h-0.8c-1.3,0-2.5,0.7-3.2,1.8c0.4-0.2,0.8-0.3,1.3-0.3
		C131.5,110.9,133.8,115,133.8,120.1z"/>
	<path class="st3" d="M133.8,120.1c0,5.1-2.3,9.2-5.1,9.2c-0.4,0-0.9-0.1-1.3-0.3c0.7,1.1,1.9,1.8,3.2,1.8h0.8
		c2.1,0,3.8-1.8,3.8-4.1v-6.6L133.8,120.1L133.8,120.1z"/>
	<path class="st4" d="M130.9,108.7h0.8c2.4,0,4.4,2.1,4.4,4.7v13.3c0,2.6-2,4.7-4.4,4.7h-0.8c-2.4,0-4.4-2.1-4.4-4.7v-13.3
		C126.5,110.9,128.5,108.7,130.9,108.7z M131.8,130.2c1.8,0,3.2-1.6,3.2-3.5v-13.3c0-1.9-1.4-3.5-3.2-3.5H131
		c-1.8,0-3.2,1.6-3.2,3.5v13.3c0,1.9,1.4,3.5,3.2,3.5H131.8z"/>
	<path class="st4" d="M127.4,119.5h8.2c0.3,0,0.6,0.3,0.6,0.6c0,0.3-0.3,0.6-0.6,0.6h-8.2c-0.3,0-0.6-0.3-0.6-0.6
		C126.8,119.8,127.1,119.5,127.4,119.5z"/>
</g>
<g>
	<path class="st0" d="M62.2,113.5c0-2.3-1.7-4.1-3.8-4.1h-0.8c-2.1,0-3.8,1.8-3.8,4.1v6.6h8.5v-6.6H62.2z"/>
	<path class="st1" d="M57.6,130.9h0.8c2.1,0,3.8-1.8,3.8-4.1v-6.6h-8.5v6.6C53.7,129,55.5,130.9,57.6,130.9z"/>
	<path class="st2" d="M60.7,120.1h1.5v-6.6c0-2.3-1.7-4.1-3.8-4.1h-0.8c-1.3,0-2.5,0.7-3.2,1.8c0.4-0.2,0.8-0.3,1.3-0.3
		C58.5,110.9,60.7,115,60.7,120.1z"/>
	<path class="st3" d="M60.7,120.1c0,5.1-2.3,9.2-5.1,9.2c-0.4,0-0.9-0.1-1.3-0.3c0.7,1.1,1.9,1.8,3.2,1.8h0.8c2.1,0,3.8-1.8,3.8-4.1
		v-6.6L60.7,120.1L60.7,120.1z"/>
	<path class="st4" d="M57.9,108.7h0.8c2.4,0,4.4,2.1,4.4,4.7v13.3c0,2.6-2,4.7-4.4,4.7h-0.8c-2.4,0-4.4-2.1-4.4-4.7v-13.3
		C53.5,110.9,55.5,108.7,57.9,108.7z M58.8,130.2c1.8,0,3.2-1.6,3.2-3.5v-13.3c0-1.9-1.4-3.5-3.2-3.5H58c-1.8,0-3.2,1.6-3.2,3.5
		v13.3c0,1.9,1.4,3.5,3.2,3.5H58.8z"/>
	<path class="st4" d="M54.4,119.5h8.2c0.3,0,0.6,0.3,0.6,0.6c0,0.3-0.3,0.6-0.6,0.6h-8.2c-0.3,0-0.6-0.3-0.6-0.6
		C53.8,119.8,54.1,119.5,54.4,119.5z"/>
</g>
<g>
	<path class="st0" d="M110.9,113.5c0-2.3-1.7-4.1-3.8-4.1h-0.8c-2.1,0-3.8,1.8-3.8,4.1v6.6h8.5L110.9,113.5L110.9,113.5z"/>
	<path class="st1" d="M106.3,130.9h0.8c2.1,0,3.8-1.8,3.8-4.1v-6.6h-8.5v6.6C102.4,129,104.1,130.9,106.3,130.9z"/>
	<path class="st2" d="M109.4,120.1h1.5v-6.6c0-2.3-1.7-4.1-3.8-4.1h-0.8c-1.3,0-2.5,0.7-3.2,1.8c0.4-0.2,0.8-0.3,1.3-0.3
		C107.2,110.9,109.4,115,109.4,120.1z"/>
	<path class="st3" d="M109.4,120.1c0,5.1-2.3,9.2-5.1,9.2c-0.4,0-0.9-0.1-1.3-0.3c0.7,1.1,1.9,1.8,3.2,1.8h0.8
		c2.1,0,3.8-1.8,3.8-4.1v-6.6L109.4,120.1L109.4,120.1z"/>
	<path class="st4" d="M106.6,108.7h0.8c2.4,0,4.4,2.1,4.4,4.7v13.3c0,2.6-2,4.7-4.4,4.7h-0.8c-2.4,0-4.4-2.1-4.4-4.7v-13.3
		C102.2,110.9,104.1,108.7,106.6,108.7z M107.4,130.2c1.8,0,3.2-1.6,3.2-3.5v-13.3c0-1.9-1.4-3.5-3.2-3.5h-0.8
		c-1.8,0-3.2,1.6-3.2,3.5v13.3c0,1.9,1.4,3.5,3.2,3.5H107.4z"/>
	<path class="st4" d="M103.1,119.5h8.2c0.3,0,0.6,0.3,0.6,0.6c0,0.3-0.3,0.6-0.6,0.6h-8.2c-0.3,0-0.6-0.3-0.6-0.6
		S102.8,119.5,103.1,119.5z"/>
</g>
<g>
	<path class="st0" d="M13.5,113.5c0-2.3-1.7-4.1-3.8-4.1H8.9c-2.1,0-3.8,1.8-3.8,4.1v6.6h8.5L13.5,113.5L13.5,113.5z"/>
	<path class="st1" d="M8.9,130.9h0.8c2.1,0,3.8-1.8,3.8-4.1v-6.6H5v6.6C5.1,129,6.8,130.9,8.9,130.9z"/>
	<path class="st2" d="M12.1,120.1h1.5v-6.6c0-2.3-1.7-4.1-3.8-4.1H8.9c-1.3,0-2.5,0.7-3.2,1.8c0.4-0.2,0.8-0.3,1.3-0.3
		C9.8,110.9,12.1,115,12.1,120.1z"/>
	<path class="st3" d="M12.1,120.1c0,5.1-2.3,9.2-5.1,9.2c-0.4,0-0.9-0.1-1.3-0.3c0.7,1.1,1.9,1.8,3.2,1.8h0.8c2.1,0,3.8-1.8,3.8-4.1
		v-6.6L12.1,120.1L12.1,120.1z"/>
	<path class="st4" d="M9.2,108.7H10c2.4,0,4.4,2.1,4.4,4.7v13.3c0,2.6-2,4.7-4.4,4.7H9.2c-2.4,0-4.4-2.1-4.4-4.7v-13.3
		C4.8,110.9,6.8,108.7,9.2,108.7z M10.1,130.2c1.8,0,3.2-1.6,3.2-3.5v-13.3c0-1.9-1.4-3.5-3.2-3.5H9.2c-1.8,0-3.2,1.6-3.2,3.5v13.3
		c0,1.9,1.4,3.5,3.2,3.5H10.1z"/>
	<path class="st4" d="M5.7,119.5h8.2c0.3,0,0.6,0.3,0.6,0.6c0,0.3-0.3,0.6-0.6,0.6H5.7c-0.3,0-0.6-0.3-0.6-0.6S5.4,119.5,5.7,119.5z
		"/>
</g>
<g>
	<g>
		<path class="st5" d="M27.4,72.9c-3.3-1.2-7.1-1.7-10.7-0.9c-1.1,0.2-2,0.5-3,0.9c-2.8,1.3-5.3,3.6-7,6.2
			c-2.6,4.4-3.9,9.7-2.1,14.7c0.5,1.3,1.1,2.7,1.9,3.8c2,3.1,5,5.1,8.4,6.5c0.9,0.4,1.9,0.7,2.8,0.8c5.2,1.2,11,0,15.4-3.1
			c1.2-0.8,2.2-1.9,3.2-3c3.7-4.3,4.4-10.2,2.1-15.3c-1.5-3.4-3.9-6.6-7-8.8c-0.8-0.6-1.9-1.1-2.8-1.5
			C28.2,73.2,27.7,73.1,27.4,72.9z"/>
		<path class="st6" d="M21.9,105.5L21.9,105.5c-1.4,0-2.8-0.1-4.3-0.5c-1.1-0.2-2-0.6-2.8-0.9c-3.7-1.3-6.5-3.6-8.4-6.4
			c-0.7-1.1-1.3-2.4-1.9-3.9C2.9,89.3,3.7,84.1,6.7,79c1.7-2.7,4.1-5,7-6.3c0.9-0.4,2-0.7,3-0.9c1.1-0.2,2.1-0.4,3.3-0.4
			c2.4,0,5,0.5,7.5,1.3c0.4,0.1,0.8,0.2,1.2,0.5c1.1,0.5,2,0.9,2.8,1.5c3,2,5.4,5.1,7.1,8.9c2.4,5.3,1.5,11.2-2.1,15.4
			c-0.9,1.1-2,2.1-3.2,3C30,104.3,26,105.5,21.9,105.5z M20,71.8c-1.2,0-2.2,0.1-3.3,0.4c-1.1,0.2-2,0.5-3,0.9
			c-2.7,1.2-5.3,3.4-6.9,6.2c-3,5-3.7,10.2-2.1,14.6c0.5,1.5,1.2,2.8,1.8,3.8c1.9,2.8,4.7,5,8.3,6.4c0.8,0.4,1.8,0.6,2.8,0.8
			c1.3,0.4,2.7,0.5,4.1,0.5l0,0c4,0,7.9-1.3,11.1-3.6c1.2-0.8,2.2-1.9,3.2-2.8c3.6-4.1,4.4-9.9,2.1-15.2c-1.7-3.7-4-6.6-7-8.8
			c-0.8-0.6-1.8-1.1-2.8-1.5c-0.4-0.1-0.8-0.4-1.2-0.5C24.9,72.2,22.4,71.8,20,71.8z"/>
	</g>
	<path class="st7" d="M27,73.5c-3.2-1.1-6.7-1.7-10.2-0.9c-0.9,0.2-1.9,0.5-2.8,0.8c-2.7,1.2-5.1,3.3-6.6,5.9
		c-2.5,4.3-3.7,9.4-2,14.1c0.5,1.2,1.1,2.6,1.8,3.7c1.9,2.8,4.7,4.9,7.9,6.2c0.8,0.4,1.8,0.6,2.7,0.8c5,1.2,10.5,0,14.7-3
		c1.1-0.8,2.1-1.8,3.1-2.7c3.6-4,4.1-9.7,2-14.6c-1.4-3.3-3.7-6.3-6.7-8.4C30,74.8,29,74.4,28.1,74C27.7,73.8,27.4,73.7,27,73.5z"/>
	<g>
		<path class="st8" d="M26.8,74.6c-3-1.1-6.4-1.5-9.6-0.9c-0.9,0.1-1.8,0.5-2.6,0.8C12,75.5,9.7,77.7,8.4,80
			C6.1,84,4.9,88.8,6.5,93.2c0.4,1.2,0.9,2.4,1.7,3.4c1.8,2.7,4.5,4.6,7.5,5.8c0.8,0.4,1.7,0.6,2.6,0.8c4.6,1.1,9.9,0,13.7-2.7
			c1.1-0.7,2-1.7,2.8-2.6c3.3-3.8,3.9-9.1,1.9-13.6c-1.4-3.1-3.4-5.9-6.3-7.8c-0.8-0.6-1.7-0.9-2.5-1.3
			C27.5,74.8,27.1,74.7,26.8,74.6z"/>
		<path class="st9" d="M21.9,104L21.9,104c-1.3,0-2.6-0.1-3.8-0.5c-0.9-0.2-1.8-0.5-2.6-0.8c-3.3-1.3-5.8-3.3-7.6-5.9
			c-0.6-0.9-1.2-2.1-1.7-3.4c-1.4-4-0.7-8.9,2-13.4c1.4-2.5,3.8-4.5,6.4-5.7c0.8-0.4,1.8-0.7,2.7-0.8c0.9-0.2,2-0.2,3-0.2
			c2.1,0,4.5,0.4,6.6,1.2c0.4,0.1,0.7,0.2,1.1,0.4c0.9,0.4,1.8,0.8,2.6,1.4c2.7,1.9,5,4.6,6.4,7.9c2.1,4.9,1.4,10.2-1.9,14
			c-0.8,0.9-1.9,1.9-3,2.6C29.2,102.8,25.6,104,21.9,104z M20.2,73.7c-0.9,0-2,0.1-2.8,0.2c-0.9,0.1-1.8,0.5-2.6,0.8
			c-2.5,1.1-4.6,3.1-6,5.4c-1.5,2.6-3.8,7.7-2,12.9c0.5,1.3,1.1,2.5,1.7,3.3c1.7,2.5,4.1,4.5,7.3,5.7c0.8,0.4,1.7,0.6,2.5,0.8
			c1.2,0.2,2.4,0.5,3.7,0.5c3.6,0,7.1-1.1,9.8-3.2c1.1-0.7,2-1.7,2.8-2.6c3.2-3.7,3.9-8.8,1.9-13.4c-1.4-3.3-3.6-5.9-6.2-7.7
			c-0.7-0.5-1.5-0.9-2.5-1.3c-0.4-0.1-0.7-0.2-1.1-0.4C24.5,74,22.3,73.7,20.2,73.7z"/>
	</g>
	<path class="st10" d="M36.6,84.2c-1.4-3.1-3.4-5.9-6.3-7.8c-0.8-0.6-1.7-0.9-2.5-1.3c-0.4-0.1-0.7-0.2-1.1-0.4
		c-2.4-0.8-4.9-1.3-7.3-1.2c0.6,0,1.3,0.1,1.9,0.2c0.4,0.1,0.6,0.1,0.8,0.2c1.9,0.2,3.8,0.8,5.4,1.8c2.4,1.3,4.5,3.3,5,6.2
		c0.6,3-0.1,6.4-1.5,9c-1.9,3.9-5.3,6.9-9.5,8.2c-3.7,1.1-7.5,0.9-10.5-1.4c-4.1-3.4-6-9.8-4-14.9c-1.3,3.3-1.8,7-0.6,10.4
		c0.4,1.2,0.9,2.4,1.7,3.4c1.8,2.7,4.5,4.6,7.5,5.8c0.8,0.4,1.7,0.6,2.6,0.8c4.6,1.1,9.9,0,13.7-2.7c1.1-0.7,2-1.7,2.8-2.6
		C38,94,38.6,88.7,36.6,84.2z"/>
	<path class="st5" d="M14.4,81.9c-1.3-1.1-2.8-0.7-3.8,0.4C9.7,82.9,9,84,8.9,84.9c-0.2,1.8,1.1,3.7,3,3.6c1.4-0.1,2.6-1.3,3.1-2.5
		C15.5,84.7,15.5,83,14.4,81.9z"/>
	<path class="st11" d="M14.4,81.9c-0.5-0.5-1.1-0.6-1.5-0.6c0,0,0,0-0.1,0c0.4,0,0.8,0.1,1.1,0.4c0.5,0.5,1.1,1.2,0.9,1.9
		c-0.2,1.2-1.8,1.1-2.2,2c-0.4,0.7-0.8,1.3-1.8,1.3c-0.9,0-1.8-0.8-1.9-1.7c0,1.7,1.2,3.3,3,3.1c1.4-0.1,2.6-1.3,3.1-2.5
		C15.5,84.7,15.5,83,14.4,81.9z"/>
	<path class="st12" d="M14.1,82.7c-0.4-1.4-2.1-1.1-3-0.4c-0.9,0.7-1.7,2.1-1.1,3.3c0,0.1,0.1,0,0.1-0.1c-0.1-0.9,0.4-1.9,1.1-2.5
		c0.4-0.4,0.7-0.5,1.2-0.6s0.8,0.4,1.2,0.6C13.9,83.1,14.1,82.9,14.1,82.7z"/>
</g>
<g>
	<g>
		<path class="st5" d="M89.7,78.7c-1.1-2.8-2.8-5.3-5.1-7.3c-1.5-1.3-3.4-2.6-5.3-3.5c-4.8-2.1-9.6-2.3-14.6-1.3
			c-4,0.8-7.4,2.8-10.5,5.4c-2,1.7-3.7,3.7-4.8,6c-2.6,5.5-1.6,11.8,1.4,17c0.8,1.4,1.8,2.7,2.9,3.9c2.4,2.6,5.1,4.5,8.5,5.5
			c3.2,0.9,6.5,1,9.8,0.8c3-0.2,5.9-0.9,8.5-2.3c3.8-2,7.3-5.8,8.9-9.7C91.4,88.5,91.5,83.2,89.7,78.7z"/>
		<path class="st6" d="M69.2,105.4C69.2,105.4,69.2,105.4,69.2,105.4c-2.7,0-5-0.3-7-0.9c-3.3-1-6.1-2.8-8.6-5.5
			c-1.1-1.2-2.1-2.6-2.9-4c-3.3-5.6-3.8-12-1.4-17.1c1.1-2.3,2.7-4.3,4.8-6.1c3.6-3,7-4.7,10.5-5.4c2-0.4,3.8-0.6,5.6-0.6
			c3.3,0,6.2,0.6,9.1,1.9c1.7,0.8,3.6,2,5.3,3.5c2.3,2,4.1,4.5,5.2,7.3c1.8,4.7,1.7,10-0.2,14.6c-1.7,4-5.2,7.8-9,9.8
			c-2.6,1.3-5.4,2.1-8.5,2.3C71.1,105.4,70.1,105.4,69.2,105.4z M70.2,66.2c-1.8,0-3.6,0.2-5.5,0.6c-3.5,0.7-6.8,2.4-10.4,5.4
			c-2.1,1.7-3.7,3.8-4.7,6c-2.4,5-1.8,11.3,1.4,16.8c0.8,1.3,1.8,2.7,2.9,3.9c2.5,2.7,5.3,4.5,8.5,5.5c2.1,0.6,4.3,0.9,7,0.9
			c0,0,0,0,0,0c0.9,0,1.8,0,2.8-0.1c3.1-0.2,5.9-1,8.4-2.3c3.7-1.9,7.2-5.7,8.8-9.7c1.9-4.6,2-9.8,0.2-14.4
			c-1.1-2.8-2.8-5.3-5.1-7.2c-1.7-1.5-3.6-2.7-5.3-3.4C76.4,66.8,73.4,66.2,70.2,66.2z"/>
	</g>
	<path class="st7" d="M88.6,78.9c-1-2.6-2.6-4.9-4.8-6.8c-1.4-1.2-4.2-2.4-6.1-2.7c-5.2-0.8-7.8-2.7-12.5-1.8
		c-3.8,0.7-6.9,2.6-9.8,5c-1.9,1.6-3.4,3.5-4.4,5.7c-0.7,1.5-0.8,3.2-0.7,4.8c0,0.7,0.1,1.5,0.4,2.3c0.2,0.7,0.8,1.3,0.9,2
		c0.1,1-0.4,2-0.4,3c0.3,3.6,2.1,6.8,4.5,9.4c2.2,2.4,5.6,1.9,8.7,2.8c3,0.9,4.6,1.4,7.7,1.1c2.8-0.2,5.5-0.9,7.9-2.2
		c3.6-1.9,6.8-5.5,8.3-9.1C90.2,88.1,90.2,83.2,88.6,78.9z"/>
	<path class="st8" d="M84.5,74.6c-2.1-2.4-4.9-3.7-8-4.3c0,0-0.1,0-0.1,0c-0.1,0-0.2,0-0.2-0.1c-0.7-0.2-1.3-0.5-2-0.6
		c-0.6-0.1-1.3-0.1-1.9-0.2c-0.6-0.1-1.2-0.4-1.9-0.6c-1.6-0.4-3.5-0.4-5,0.5c-0.5,0.3-0.8,0.4-1.2,0.4c0,0-0.1,0-0.1,0
		c-4.1,0-7.8,2.4-10.1,5.7c-1.1,1.6-2,3.4-2.5,5.3c-0.3,1.3-0.6,2.8,0,4.1c0.4,0.8,0.8,1.3,1.5,1.8c0.1,0.1,0.5,0.2,0.4,0.2
		c-1.7,1-1.1,3.6-0.7,5.1c0.4,2,1,4,2.3,5.7c1.5,2.1,3.9,3.5,6.5,3.4c1,0,1.8-0.3,2.8-0.3c0.5,0,0.9,0,1.2,0.3
		c0.5,0.1,1,0.4,1.5,0.6c1.6,0.5,3.1,0.7,4.8,0.6c1.6-0.1,3.2-0.4,4.7-1.1c1.2-0.6,2.4-1,3.6-1.6c4.5-2.3,7.8-9.1,8.1-14
		c0,0,0,0,0-0.1c-0.1-0.2-0.2-0.6-0.1-0.9c0.1-0.2,0.3-0.4,0.4-0.6c0.1-0.2,0.1-0.3,0.1-0.5c0-1.6-0.7-3.2-1.5-4.6
		C86.4,77.4,85.6,75.8,84.5,74.6z"/>
	<path class="st13" d="M88.6,84c0.1-0.2,0.1-0.3,0.1-0.5c0-0.1,0-0.2,0-0.4c-0.7,0.9-2.1,1.2-2.6-0.2c-0.5-1.3-0.7-2.7-1.2-4
		c-0.5-1.3-1.1-2.5-1.8-3.7c-1-1.6-2.2-2.9-3.6-4.1c-0.9-0.4-1.9-0.6-2.9-0.8c0,0-0.1,0-0.1,0c-0.1,0-0.2,0-0.2-0.1
		c-0.5-0.2-1-0.4-1.5-0.5c0.3,0.1,0.7,0.3,1,0.5c1.1,0.9,2,2.1,2.9,3.2c0.9,1.1,1.8,2.3,2.5,3.6c0.9,1.8,1.5,4.1,0.7,6.1
		c-0.6,1.5-1.9,2.5-3.4,2.9c-2,0.5-4.1,0.7-6.1,0.7c-2.1,0-4.3-0.3-6-1.6c-2.6-1.9-2.2-5.6-1.2-8.2c1.5-3.7,4.3-6.3,8.2-7.3
		c0.1,0,0.2,0,0.2,0.1c0.3-0.1,0.5-0.1,0.8-0.1c-0.6-0.1-1.3-0.1-1.9-0.2c-0.6-0.1-1.2-0.4-1.9-0.6c-1.6-0.4-3.5-0.4-5,0.5
		c-0.5,0.3-0.8,0.4-1.2,0.4c0,0-0.1,0-0.1,0c-0.3,0-0.6,0-0.9,0.1c0.6,0.3,1,0.9,1.2,1.7c0.3,1.9-1.2,3.8-2,5.4
		c-0.9,1.9-1.8,4-3,5.8c-0.9,1.3-2.2,2.3-3.8,2.6c-2.1,0.3-3.6-0.9-4.3-2.6c-0.1,0.8,0,1.5,0.4,2.3c0.4,0.8,0.8,1.3,1.5,1.8
		c0.1,0.1,0.5,0.2,0.4,0.2c-0.5,0.3-0.8,0.8-1,1.3c0.6,0.6,1.6,1,2.5,1c1.1-0.1,2.4-0.3,3.3,0.5c1.9,1.7,2.1,4.7,2.3,7
		c0.1,0.9,0,2-0.8,2.6c-0.7,0.5-1.7,0.6-2.6,0.5c1.3,0.9,2.8,1.4,4.4,1.4c1,0,1.8-0.3,2.8-0.3c0.5,0,0.9,0,1.2,0.3
		c0.5,0.1,1,0.4,1.5,0.6c1.6,0.5,3.1,0.7,4.8,0.6c1.6-0.1,3.2-0.4,4.7-1.1c1.2-0.6,2.4-1,3.6-1.6c0.7-0.3,1.3-0.8,1.9-1.3
		c0.2-0.3,0.5-0.7,0.7-1.1c0.9-1.8,1.5-3.8,2-5.8c0.3-1.3,0.7-3.2,1.7-4.2c0.5-0.5,1.2-0.7,1.8-1c0-0.2,0-0.5,0.1-0.7c0,0,0,0,0-0.1
		c-0.1-0.2-0.2-0.6-0.1-0.9C88.3,84.4,88.5,84.2,88.6,84z M79.7,95.7c-2.3,3.7-8.2,5.9-12.1,3.6c-1.4-0.8-2.9-2.2-3.5-3.7
		c-0.7-1.7-1.7-4.2-0.6-6c0.8-1.3,3-0.1,4.1,0.1c2,0.4,4.1,0.6,6.2,0.5c1.4-0.1,2.9-0.4,4.3-0.7c1-0.2,2.5-0.5,3.3,0.4
		c1,1-0.4,3.4-0.9,4.4C80.2,94.7,79.9,95.2,79.7,95.7z"/>
	<path class="st9" d="M88.8,82c-0.2-1.1-0.7-2.1-1.2-3.1c-0.7-1.1-1.4-2.2-2-3.3c-0.6-1-1.4-1.8-2.3-2.5c-1-0.7-2-1.3-3.2-1.7
		c-1-0.6-2.2-0.8-3.2-1.3c-1.3-0.7-2.7-0.6-4.1-0.8c-0.7-0.1-1.4-0.5-2-0.7c-0.6-0.2-1.2-0.4-1.8-0.4c-0.7,0-1.4,0.2-2,0.4
		c-0.6,0.2-1.1,0.6-1.7,0.9c-0.1,0-0.2-0.1-0.4-0.1c-1.9-0.3-3.9,0.8-5.6,1.7c-1.6,0.8-3.1,1.8-4.3,3.1c-1.4,1.4-2.3,3-2.9,4.8
		c-0.9,2.6-1.5,6.5,1.2,8.1c-1.2,1.2-1.1,3.1-0.9,4.6c0.4,2.4,1.5,4.6,2.9,6.6c0.6,0.8,1.4,1.6,2.3,2.2c1.1,0.7,2.2,0.8,3.5,0.9
		c1.4,0,3-0.3,4.3,0.1c1.2,0.4,2.2,0.9,3.4,1.1c0,0,0,0,0,0c0,0,0.1,0,0.1,0c1,0.2,2.1,0.1,3.1,0c1.4-0.2,2.9-0.4,4.1-1.1
		c2.1-0.5,4-1.4,5.7-2.7c1.8-1.3,3.1-3,4-4.9c1-2.1,1.9-4.3,2.4-6.5c0.1-0.5,0.3-1.8-0.2-2.1c0.2-0.2,0.3-0.3,0.4-0.5
		C89,83.8,88.9,82.8,88.8,82z M72.5,69.6c2.7-0.1,6.6,2.5,7.7,3.7c2.4,2.5,3.6,5.6,4.2,9c0.2,1.2,0.1,3.1-1.3,4.4
		c-1.6,1.4-3.9,1.9-6,2.1c-2.4,0.3-4.8,0.4-7.2,0.3c-1.8-0.1-3.6-0.4-5.3-1.2c-0.7-0.3-3.2-0.7-3.6-3.4c-0.4-3.1,2.3-8.3,2.4-8.4
		c0.9-1.8,2.2-3.5,3.7-4.8c0.8-0.6,1.6-1.1,2.5-1.5c0.5-0.2,1.1-0.3,1.7-0.3C71.7,69.5,72.4,69.6,72.5,69.6z M66.3,69.1
		c0.7-0.3,1.4-0.5,2.2-0.6c0.8-0.1,1.5,0.1,2.3,0.4c0.3,0.1,0.6,0.2,0.9,0.4c-0.2,0-0.4-0.1-0.6-0.1c-0.5,0-1,0.1-1.5,0.3
		c-1,0.3-1.8,0.8-2.6,1.5c0.1-0.7-0.7-1.3-1.5-1.5C65.8,69.4,66,69.2,66.3,69.1z M52.4,85.6c-1.1-1.4-0.9-3.3-0.5-4.8
		c0.8-3.4,2.5-6.1,5.4-8.1c1.3-0.9,2.8-1.7,4.2-2.3c0.9-0.4,1.8-0.6,2.7-0.7c1-0.1,2.8,0.4,2.3,1.6c-1.5,1.3-2.7,3-3.6,4.8
		c-3.1,5.9-2.6,8.7-2.6,8.7c0.4,2.4-3,2.5-4.6,2.3C54.6,87.1,53.3,86.7,52.4,85.6z M62.7,100.8c-1.3,0-2.6,0.1-3.8-0.3
		c-1.1-0.3-1.9-1.1-2.7-1.9c-1.6-1.7-2.7-4-3.3-6.2c-0.5-1.8-0.6-3.8,0.5-5.3c0.1,0.1,0.3,0.1,0.4,0.2c1.9,0.7,5.1,0.9,6.6-0.7
		c0.2-0.2,0.3-0.5,0.4-0.8c0.1,0.2,0.3,0.5,0.5,0.7c-1.3,1.7-0.7,4.3-0.1,6.3c0.2,1,0.4,2,0.8,3c0.7,1.9,1.6,3.8,3.1,5.1
		C64.3,100.7,63.6,100.8,62.7,100.8z M76.7,100.7c-0.3,0.2-0.7,0.3-1,0.5c-2.2,0.9-4.5,1.4-6.9,1c-1-0.2-2.2-0.6-3-1.2
		c-1.5-1.1-2.2-2.8-2.9-4.5c-0.8-2.1-1.4-4.4-1.6-6.6c-0.1-1-0.2-2,0.2-2.9c0-0.1,0-0.1,0.1-0.1c0.4,0.3,0.7,0.5,1.1,0.7
		c3.8,2.5,8.9,2.3,13.3,1.8c1.4-0.1,2.9-0.4,4.3-0.8c1.2-0.4,2.5-1,3.3-2c0.1-0.1,0.3,0,0.4,0.1C85.3,87.7,82,98.1,76.7,100.7z
		 M87.5,89c-0.6,1.8-1.4,3.7-2.3,5.4c-1,1.7-2.3,3.1-3.9,4.2c-0.8,0.6-1.8,1.1-2.7,1.5c-0.3,0.1-0.5,0.2-0.8,0.3
		c0.6-0.4,1.1-0.8,1.6-1.2c1.3-1.1,2.4-2.4,3.1-4c0.8-1.7,1.6-3.4,2-5.2c0.2-0.8,0.3-1.6,0.3-2.4c0-0.3-0.1-0.6-0.3-0.9
		c0,0-0.1-0.1-0.1-0.1c0.6,0,1.1-0.3,1.7-0.5c0.6-0.2,1.2-0.5,1.7-0.9C88.6,85.9,87.6,88.5,87.5,89z M86.6,85.5
		c-0.8,0.4-1.7,0.8-2.5,0.7c0,0,0.1-0.3,0.1-0.3c0.4-0.5,0.6-1.2,0.7-1.8c0.2-1.9-0.6-5.3-2.3-8.2c-0.5-0.8-1.1-1.6-1.7-2.3
		c-1-1.2-2.3-2.1-3.7-3c0,0,0,0,0,0c0.1,0,0.2,0.1,0.4,0.1c1.6,0.5,3.2,1.2,4.7,2.2c0.8,0.5,1.5,1.2,2.1,1.9
		c0.7,0.8,1.1,1.8,1.7,2.7c1.1,1.8,2.3,3.5,2.3,5.7C88.4,84.4,87.7,85,86.6,85.5z"/>
	<g>
		<path class="st5" d="M73,79.6c-0.2-0.9-1.2-2.4-2.3-1.6c-0.1,0.1-0.2,0.2-0.3,0.3c-0.6,0.6-0.6,1.7-0.6,2.4c0,1.1,0.8,2.2,2,1.8
			C72.9,81.9,73.2,80.6,73,79.6z"/>
		<path class="st5" d="M75.1,92.8c-0.3-0.3-0.6-0.6-1-0.7c-0.5-0.1-1,0.3-1.3,0.8c-0.3,0.7-0.2,1.6,0.2,2.3c0.1,0.2,0.1,0.3,0.2,0.5
			c0.5,1.1,2.2,0.9,2.5-0.1C76.1,94.5,75.7,93.5,75.1,92.8z"/>
		<path class="st5" d="M58.8,94.1c-0.2-0.8-0.6-1.8-1.2-2.3c-0.3-0.3-0.8-0.3-1.1-0.1c0,0,0,0-0.1,0c-0.1,0.1-0.2,0.1-0.3,0.2
			c-0.3,0.3-0.4,0.7-0.4,1.1c0,0,0,0.1,0,0.1c0,0.3,0,0.5,0,0.7c0,0.9,0.4,2.1,1.3,2.4c0,0,0.1,0,0.1,0.1c0.7,0.2,1.5-0.2,1.7-1
			C59,95,58.9,94.5,58.8,94.1z"/>
		<path class="st5" d="M58,77c-0.9,0-1.5,0.9-1.9,1.6c-0.4,0.7-0.6,1.7,0,2.4c0.9,1.2,2.7,0.1,2.9-1.2c0.2-0.2,0.3-0.5,0.3-0.7
			C59.4,78.2,59,77.1,58,77z"/>
		<path class="st5" d="M87.6,79.2c-0.1-0.5-0.6-1-0.9-1.4c-0.3-0.4-0.7-0.9-1.2-0.4c-0.2,0.2-0.2,0.4-0.2,0.7c0,0.2,0.1,0.4,0.1,0.6
			c0.2,0.7,0.6,1.4,1.2,1.6c0.6,0.2,1-0.3,0.9-0.8C87.6,79.3,87.6,79.3,87.6,79.2z"/>
		<path class="st5" d="M87.3,89.5c-0.3-0.5-0.7-0.5-1.1-0.2c-0.7,0.5-0.9,1.9-1.1,2.7c-0.1,0.4-0.2,1.2,0.2,1.4
			c0.6,0.3,1.2-1.1,1.4-1.4c0.2-0.4,0.3-0.8,0.5-1.2C87.4,90.4,87.5,89.9,87.3,89.5z"/>
	</g>
	<g class="st14">
		<path class="st15" d="M73,79.6C73,79.6,73,79.5,73,79.6C73,79.6,73,79.6,73,79.6c-0.1,0.9-1.1,2.6-2.2,1.7
			c-0.6-0.5-0.7-1.8-0.5-2.8c-0.4,0.6-0.5,1.5-0.5,2.2c0,1.1,0.8,2.2,2,1.8C72.9,81.9,73.2,80.6,73,79.6z"/>
		<path class="st15" d="M75.7,93.8c0.1,0.5,0,1-0.6,1.3c-0.4,0.2-0.9,0.3-1.2,0c-0.1-0.1-0.3-0.3-0.3-0.5c0-0.3,0-0.6-0.3-0.8
			c-0.1-0.1-0.2-0.1-0.3-0.2c-0.2-0.2-0.3-0.5-0.3-0.7c-0.3,0.7-0.2,1.6,0.2,2.2c0.1,0.2,0.1,0.3,0.2,0.5c0.5,1.1,2.2,0.9,2.5-0.1
			C75.9,94.9,75.9,94.3,75.7,93.8z"/>
		<path class="st15" d="M58.8,94.1c-0.2-0.8-0.6-1.8-1.2-2.3c-0.3-0.3-0.8-0.3-1.1-0.1c0,0,0,0-0.1,0c-0.1,0.1-0.2,0.1-0.3,0.2
			c0,0,0,0,0,0.1c0.6-0.1,1.2,0,1.4,0.7c0.1,0.3,0.1,0.5,0.1,0.8c0,0.4,0.2,0.5,0.4,0.8c0.3,0.4,0.4,0.8,0.1,1.2
			c-0.4,0.7-1.5,0.5-2-0.1c0.2,0.4,0.5,0.7,0.9,0.8c0,0,0.1,0,0.1,0.1c0.7,0.2,1.5-0.2,1.7-1C59,95,58.9,94.5,58.8,94.1z"/>
		<path class="st15" d="M58.4,77.1c0.1,0.1,0.1,0.2,0.2,0.3c0.2,0.3,0.2,0.7-0.1,1c-0.1,0.2-0.3,0.3-0.5,0.4c-0.3,0.2-0.1,0.7-0.1,1
			c-0.2,0.8-1.5,1.5-2.1,0.6c0,0.2,0.1,0.4,0.3,0.6c0.9,1.2,2.7,0.1,2.9-1.2c0.2-0.2,0.3-0.5,0.3-0.7C59.4,78.3,59.1,77.4,58.4,77.1
			z"/>
		<path class="st15" d="M87.6,79.4c0-0.1,0-0.1,0-0.2c0-0.1-0.1-0.2-0.1-0.3c0,0,0,0.1,0,0.1c-0.1,0.5-0.7,0.8-1.1,0.5
			c-0.3-0.2-0.4-0.7-0.5-1c-0.1-0.3-0.2-0.6-0.2-0.9c0-0.2,0.1-0.4,0.2-0.5c-0.1,0-0.2,0.1-0.3,0.2c-0.2,0.2-0.2,0.4-0.2,0.7
			c0,0.2,0.1,0.4,0.1,0.6c0.2,0.7,0.6,1.4,1.2,1.6C87.2,80.4,87.6,79.9,87.6,79.4z"/>
		<path class="st15" d="M85.6,92.7c-0.3-0.4-0.1-0.9,0.1-1.4c0.2-0.5,0.2-1,0.5-1.5c0.2-0.4,0.7-0.5,1.1-0.3
			c-0.3-0.4-0.7-0.4-1.1-0.2c-0.7,0.5-0.9,1.9-1.1,2.7c-0.1,0.4-0.2,1.2,0.2,1.4c0.3,0.2,0.7-0.2,0.9-0.6C86,93,85.8,93,85.6,92.7z"
			/>
	</g>
	<path class="st12" d="M57.5,77.5c-0.6,0.2-1,0.8-1.3,1.4c-0.2,0.5-0.3,1.2,0.1,1.6c0.1,0.1,0.2,0,0.1-0.1c-0.2-0.5,0-1,0.1-1.5
		c0.2-0.5,0.6-0.8,1-1.2C57.7,77.6,57.6,77.5,57.5,77.5z"/>
	<path class="st12" d="M56.6,92.3c-0.6,0.2-0.7,1.3-0.4,1.8c0.1,0.1,0.2,0,0.2-0.1c0-0.3-0.1-0.5-0.1-0.8
		C56.3,92.8,56.5,92.6,56.6,92.3C56.7,92.3,56.6,92.2,56.6,92.3z"/>
	<path class="st12" d="M57.5,95.3c-0.3,0.1-0.5,0.2-0.7,0c-0.3-0.2-0.4-0.6-0.6-0.9c0-0.1-0.1,0-0.1,0c0,0.5,0.2,0.9,0.5,1.2
		c0.3,0.3,0.7,0.2,1,0C57.7,95.5,57.6,95.3,57.5,95.3z"/>
	<path class="st12" d="M73.1,92.8C73,92.9,73.1,93,73.1,92.8c0.6-0.2,1-0.2,1.4,0.2c0.4,0.4,0.4,0.8,0.5,1.3c0,0.1,0.2,0.2,0.3,0
		C75.6,93.2,74,91.6,73.1,92.8z"/>
	<path class="st12" d="M71.9,78.3c-0.2-0.2-0.5-0.2-0.8-0.2c-0.4,0.1-0.5,0.3-0.7,0.6c-0.1,0.1,0.1,0.1,0.1,0.1
		c0.2-0.2,0.3-0.3,0.6-0.4c0.3-0.1,0.6,0.2,0.7,0.4c0.3,0.3,0.2,0.8,0.3,1.1c0,0.1,0.2,0.1,0.3,0C72.6,79.3,72.4,78.6,71.9,78.3z"/>
	<path class="st12" d="M86.7,89.6C86.7,89.6,86.7,89.6,86.7,89.6c0.3,0.3,0.1,1,0,1.3c-0.1,0.4-0.4,0.8-0.6,1.3
		c0,0.1,0.1,0.2,0.2,0.1c0.5-0.5,0.7-1.2,0.9-1.9C87.2,90.1,87.2,89.6,86.7,89.6z"/>
	<path class="st12" d="M86.6,78.2c-0.2-0.1-0.2-0.4-0.3-0.6c-0.1-0.2-0.3-0.2-0.4-0.2c0,0-0.1,0.1,0,0.1c0.3,0.2,0.2,0.6,0.5,0.9
		c0.1,0.1,0.3,0.2,0.4,0.3c0.2,0.1,0.2,0.4,0.3,0.6c0,0.1,0.1,0,0.1,0C87.3,78.7,87,78.4,86.6,78.2z"/>
</g>
<g>
	<g>
		<path class="st5" d="M122.8,70.7c-3.3-1.2-7.1-1.7-10.7-0.9c-1.1,0.2-2,0.5-3,0.9c-2.8,1.3-5.3,3.6-7,6.2
			c-2.6,4.4-3.9,9.7-2.1,14.7c0.5,1.3,1.1,2.7,1.9,3.8c2,3.1,5,5.1,8.4,6.5c0.9,0.4,1.9,0.7,2.8,0.8c5.2,1.2,11,0,15.4-3.1
			c1.2-0.8,2.2-1.9,3.2-3c3.7-4.3,4.4-10.2,2.1-15.3c-1.5-3.4-3.9-6.6-7-8.8c-0.8-0.6-1.9-1.1-2.8-1.5
			C123.6,70.9,123.1,70.8,122.8,70.7z"/>
		<path class="st6" d="M117.3,103.3L117.3,103.3c-1.4,0-2.8-0.1-4.3-0.5c-1.1-0.2-2-0.6-2.8-0.9c-3.7-1.3-6.5-3.6-8.4-6.4
			c-0.7-1.1-1.3-2.4-1.9-3.9c-1.7-4.5-0.8-9.7,2.1-14.8c1.7-2.7,4.1-5,7-6.3c0.9-0.4,2-0.7,3-0.9c1.1-0.2,2.1-0.4,3.3-0.4
			c2.4,0,5,0.5,7.5,1.3c0.4,0.1,0.8,0.2,1.2,0.5c1.1,0.5,2,0.9,2.8,1.5c3,2,5.4,5.1,7.1,8.9c2.4,5.3,1.5,11.2-2.1,15.4
			c-0.9,1.1-2,2.1-3.2,3C125.4,102.1,121.3,103.3,117.3,103.3z M115.4,69.5c-1.2,0-2.2,0.1-3.3,0.4c-1.1,0.2-2,0.5-3,0.9
			c-2.7,1.2-5.3,3.4-6.9,6.2c-3,5-3.7,10.2-2.1,14.6c0.5,1.5,1.2,2.8,1.8,3.8c1.9,2.8,4.7,5,8.3,6.4c0.8,0.4,1.8,0.6,2.8,0.8
			c1.3,0.4,2.7,0.5,4.1,0.5l0,0c4,0,7.9-1.3,11.1-3.6c1.2-0.8,2.2-1.9,3.2-2.8c3.6-4.1,4.4-9.9,2.1-15.2c-1.7-3.7-4-6.6-7-8.8
			c-0.8-0.6-1.8-1.1-2.8-1.5c-0.4-0.1-0.8-0.4-1.2-0.5C120.3,70,117.8,69.5,115.4,69.5z"/>
	</g>
	<path class="st7" d="M122.4,71.3c-3.2-1.1-6.7-1.7-10.2-0.9c-0.9,0.2-1.9,0.5-2.8,0.8c-2.7,1.2-5.1,3.3-6.6,5.9
		c-2.5,4.3-3.7,9.4-2,14.1c0.5,1.2,1.1,2.6,1.8,3.7c1.9,2.8,4.7,4.9,7.9,6.2c0.8,0.4,1.8,0.6,2.7,0.8c5,1.2,10.5,0,14.7-3
		c1.1-0.8,2.1-1.8,3.1-2.7c3.6-4,4.1-9.7,2-14.6c-1.4-3.3-3.7-6.3-6.7-8.4c-0.8-0.6-1.8-1.1-2.7-1.4
		C123.1,71.5,122.8,71.4,122.4,71.3z"/>
	<g>
		<path class="st8" d="M122.2,72.4c-3-1.1-6.4-1.5-9.6-0.9c-0.9,0.1-1.8,0.5-2.6,0.8c-2.6,1.1-4.9,3.2-6.2,5.6
			c-2.4,3.9-3.6,8.8-1.9,13.1c0.4,1.2,0.9,2.4,1.7,3.4c1.8,2.7,4.5,4.6,7.5,5.8c0.8,0.4,1.7,0.6,2.6,0.8c4.6,1.1,9.9,0,13.7-2.7
			c1.1-0.7,2-1.7,2.8-2.6c3.3-3.8,3.9-9.1,1.9-13.6c-1.4-3.1-3.4-5.9-6.3-7.8c-0.8-0.6-1.7-0.9-2.5-1.3
			C122.9,72.6,122.5,72.5,122.2,72.4z"/>
		<path class="st9" d="M117.3,101.7L117.3,101.7c-1.3,0-2.6-0.1-3.8-0.5c-0.9-0.2-1.8-0.5-2.6-0.8c-3.3-1.3-5.8-3.3-7.6-5.9
			c-0.6-0.9-1.2-2.1-1.7-3.4c-1.4-4-0.7-8.9,2-13.4c1.4-2.5,3.8-4.5,6.4-5.7c0.8-0.4,1.8-0.7,2.7-0.8c0.9-0.2,2-0.2,3-0.2
			c2.1,0,4.5,0.4,6.6,1.2c0.4,0.1,0.7,0.2,1.1,0.4c0.9,0.4,1.8,0.8,2.6,1.4c2.7,1.9,5,4.6,6.4,7.9c2.1,4.9,1.4,10.2-1.9,14
			c-0.8,0.9-1.9,1.9-3,2.6C124.5,100.5,121,101.7,117.3,101.7z M115.5,71.4c-0.9,0-2,0.1-2.8,0.2c-0.9,0.1-1.8,0.5-2.6,0.8
			c-2.5,1.1-4.6,3.1-6,5.4c-1.5,2.6-3.8,7.7-2,12.9c0.5,1.3,1.1,2.5,1.7,3.3c1.7,2.5,4.1,4.5,7.3,5.7c0.8,0.4,1.7,0.6,2.5,0.8
			c1.2,0.2,2.4,0.5,3.7,0.5c3.6,0,7.1-1.1,9.8-3.2c1.1-0.7,2-1.7,2.8-2.6c3.2-3.7,3.9-8.8,1.9-13.4c-1.4-3.3-3.6-5.9-6.2-7.7
			c-0.7-0.5-1.5-0.9-2.5-1.3c-0.4-0.1-0.7-0.2-1.1-0.4C119.9,71.8,117.7,71.4,115.5,71.4z"/>
	</g>
	<path class="st10" d="M132,82c-1.4-3.1-3.4-5.9-6.3-7.8c-0.8-0.6-1.7-0.9-2.5-1.3c-0.4-0.1-0.7-0.2-1.1-0.4
		c-2.4-0.8-4.9-1.3-7.3-1.2c0.6,0,1.3,0.1,1.9,0.2c0.4,0.1,0.6,0.1,0.8,0.2c1.9,0.2,3.8,0.8,5.4,1.8c2.4,1.3,4.5,3.3,5,6.2
		c0.6,3-0.1,6.4-1.5,9c-1.9,3.9-5.3,6.9-9.5,8.2c-3.7,1.1-7.5,0.9-10.5-1.4c-4.1-3.4-6-9.8-4-14.9c-1.3,3.3-1.8,7-0.6,10.4
		c0.4,1.2,0.9,2.4,1.7,3.4c1.8,2.7,4.5,4.6,7.5,5.8c0.8,0.4,1.7,0.6,2.6,0.8c4.6,1.1,9.9,0,13.7-2.7c1.1-0.7,2-1.7,2.8-2.6
		C133.4,91.8,134,86.5,132,82z"/>
	<path class="st5" d="M109.7,79.7c-1.3-1.1-2.8-0.7-3.8,0.4c-0.8,0.6-1.5,1.7-1.7,2.6c-0.2,1.8,1.1,3.7,3,3.6
		c1.4-0.1,2.6-1.3,3.1-2.5C110.9,82.4,110.9,80.8,109.7,79.7z"/>
	<path class="st11" d="M109.7,79.7c-0.5-0.5-1.1-0.6-1.5-0.6c0,0,0,0-0.1,0c0.4,0,0.8,0.1,1.1,0.4c0.5,0.5,1.1,1.2,0.9,1.9
		c-0.2,1.2-1.8,1.1-2.2,2c-0.4,0.7-0.8,1.3-1.8,1.3s-1.8-0.8-1.9-1.7c0,1.7,1.2,3.3,3,3.1c1.4-0.1,2.6-1.3,3.1-2.5
		C110.9,82.4,110.9,80.8,109.7,79.7z"/>
	<path class="st12" d="M109.5,80.4c-0.4-1.4-2.1-1.1-3-0.4c-0.9,0.7-1.7,2.1-1.1,3.3c0,0.1,0.1,0,0.1-0.1c-0.1-0.9,0.4-1.9,1.1-2.5
		c0.4-0.4,0.7-0.5,1.2-0.6c0.5-0.1,0.8,0.4,1.2,0.6C109.3,80.9,109.5,80.7,109.5,80.4z"/>
</g>
<g>
	<g>
		<path class="st5" d="M59.1,47.4c-1.3-3.7-3.8-6.9-7.6-9.2c-6.1-3.7-13.2-4.8-20-2.3c-1.7,0.6-3.5,1.5-5,2.5
			c-1.7,1.2-3.3,2.7-4.6,4.3c-4.7,6-5.4,14.5-1.6,21.2c0.8,1.4,1.8,2.7,2.8,3.9c4.7,5.3,13.4,6.9,20,5.7c1.9-0.3,3.9-0.9,5.6-1.8
			c4.4-2.2,7.9-5.6,9.8-10.2C60.3,57.1,60.8,52.1,59.1,47.4z"/>
		<path class="st6" d="M38.8,74.1C38.8,74.1,38.8,74.1,38.8,74.1c-6.5,0-12.4-2.3-15.8-6.1c-1.1-1.2-2.1-2.6-2.9-4
			c-3.8-6.7-3.2-15.2,1.6-21.4c1.2-1.6,2.9-3.1,4.6-4.3c1.5-1,3.2-1.9,5-2.6c2.5-0.9,5-1.4,7.6-1.4c4.3,0,8.6,1.3,12.5,3.7
			c3.7,2.2,6.3,5.4,7.7,9.3c1.6,4.4,1.3,9.5-0.7,14.3c-1.8,4.4-5.2,7.9-9.8,10.2c-2,1-4.2,1.5-5.6,1.8C41.8,74,40.3,74.1,38.8,74.1z
			 M39.1,34.7c-2.6,0-5.1,0.5-7.5,1.3c-1.8,0.7-3.5,1.5-5,2.5c-1.7,1.2-3.4,2.7-4.6,4.3c-4.7,6-5.4,14.5-1.6,21
			c0.8,1.3,1.7,2.7,2.8,3.9c3.3,3.8,9.2,6,15.6,6h0c1.5,0,2.9-0.1,4.3-0.4c2-0.4,4-1,5.6-1.8c4.6-2.3,7.9-5.7,9.7-10.1
			c1.9-4.8,2.2-9.8,0.6-14.1c-1.3-3.8-3.9-6.9-7.5-9.1C47.6,36,43.3,34.7,39.1,34.7z"/>
	</g>
	<path class="st7" d="M57.1,47.9c-1.2-3.3-3.5-6.2-6.9-8.3c-5.5-3.4-11.9-4.3-18-2.1c-1.6,0.6-3.1,1.3-4.5,2.3c-1.5,1-3,2.4-4.2,3.9
		c-4.2,5.4-4.9,13.1-1.5,19.1c0.7,1.3,1.6,2.5,2.6,3.5c4.2,4.7,12,6.2,18,5.1c1.7-0.3,3.5-0.8,5-1.6c3.9-1.9,7.1-5.1,8.8-9.2
		C58.2,56.6,58.6,52,57.1,47.9z"/>
	<path class="st8" d="M56.1,53c-0.2-1.2-0.7-2.4-1.4-3.4c0.4-2.1-0.5-4.5-1.7-6.2c-0.7-1.1-1.8-2.1-3.1-2.5
		c-0.5-0.2-1.1-0.3-1.7-0.3c-1.3-1.2-3-2-4.5-2.4c-1.7-0.4-3.4-0.2-5.1,0.2c-0.9,0.2-1.6,0.5-2.2,1.1c-1-0.3-2.2-0.3-3.3-0.2
		c-1.8,0.2-3.5,1.2-4.7,2.5c-0.6,0.7-1,1.6-1.2,2.5c-0.5,0.5-1,1-1.3,1.6c-0.2,0.3-0.3,0.6-0.4,0.9c-1.1,0.5-1.9,1.5-2.6,2.4
		c-1,1.3-1.5,3-1.5,4.6c0,1.6,0.6,3.3,1.7,4.5c0.2,0.2,0.5,0.5,0.7,0.6c-0.1,0.1-0.2,0.3-0.2,0.4c-0.4,1.4,0.2,2.8,1.1,3.8
		c1.2,1.5,3.3,2.3,5.3,2.2c0,0.2,0.1,0.4,0.1,0.6c0.4,1.3,1.7,2.3,2.9,2.9c1.7,0.9,3.7,0.6,5.4-0.2c0.5,0.6,1.1,1,1.7,1.4
		c1.3,0.8,3,0.6,4.4,0.1c1.4-0.5,2.5-1.4,3.3-2.7c0-0.1,0.1-0.1,0.1-0.2c0.7-0.1,1.5-0.3,2.2-0.5c1.1-0.4,2.1-1.1,2.7-1.9
		c0.8-1.1,1.2-2.6,0.9-4c0.5-0.8,0.9-1.7,1.1-2.6c0-0.1,0-0.2,0-0.2c0.5-0.3,0.8-0.9,1.1-1.3C56.3,55.6,56.3,54.3,56.1,53z"/>
	<path class="st13" d="M55.3,56.9c-0.1-0.9-0.5-1.7-0.9-2.5c-0.4-0.9-0.2-2-0.3-3c0-0.4-0.1-1.4,0.5-1.3c0.1,0,0.3,0,0.4,0.1
		c-0.1-0.2-0.2-0.3-0.3-0.5c0.1-0.6,0.1-1.2,0-1.9c-0.8,1.1-1.4-0.6-1.8-1.1c-0.5-0.7-0.9-1.1-1.6-1.5c-0.3-0.2-0.7-0.4-0.8-0.8
		c-0.3-0.7-0.7-1.4-1-2.1c-0.2-0.4-0.3-1.1,0.2-1.3c0.1,0,0.2-0.1,0.3-0.1c0,0,0,0,0,0c-0.5-0.2-1.1-0.3-1.7-0.3
		c-0.2-0.2-0.4-0.3-0.6-0.5c-0.1,0.1-0.3,0.2-0.5,0.1c-0.9-0.2-1.5-0.9-2.4-1.1c-1-0.2-2.3-0.3-3.4,0c-0.8,0.2-2.6,0.9-2.8-0.5
		c0-0.1,0-0.2,0-0.2c-0.8,0.2-1.5,0.5-2.1,1c-0.4-0.1-0.9-0.2-1.3-0.2c0.1,0.1,0.1,0.2,0,0.4c-0.1,0.5-1.4,0.8-1.8,0.9
		c-0.6,0.2-1.2,0.5-1.7,0.8c-0.4,0.3-1,1-1.5,1c-0.8,0.1-1.7,0.1-2.4,0.5c-0.2,0.4-0.4,0.9-0.5,1.4c-0.1,0.1-0.3,0.3-0.4,0.4
		c0.8-0.5,1.9-1,2.5,0c0.8,1.3-1,2.4-1.3,3.4c-0.3,0.9-0.7,2.3-1.7,1.1c-0.7-0.8-0.8-1.8-0.6-2.8c-0.1,0.1-0.1,0.2-0.2,0.4
		c-0.9,0.4-1.6,1.1-2.2,1.9c0.6,0,1,0.4,1,1.1c-0.1,1-1,1.8-1.2,2.8c-0.3,1.4-0.3,2.9,0.5,4.1c0.3,0.4,0.8,1.2,0.3,1.6
		c-0.3,0.3-0.9-0.2-1.2-0.5c0.1,0.2,0.3,0.4,0.4,0.6c0.2,0.2,0.5,0.5,0.7,0.6c-0.1,0.1-0.2,0.3-0.2,0.4c-0.2,0.6-0.2,1.2,0,1.8
		c0.1-0.2,0.3-0.4,0.7-0.5c0.6-0.1,1.1,0,1.6,0.3c0.7,0.5,0.8,1.5,1.5,2.1c0.4,0.4,1.3,0.5,1.3,1.2c0,0.4-0.6,0.7-0.9,0.7
		c0.7,0.2,1.5,0.3,2.2,0.3c0,0.2,0.1,0.4,0.1,0.6c0.1,0.4,0.4,0.8,0.6,1.2c-0.2-0.7-0.2-1.5,0.6-1.9c0.6-0.3,1.2-0.2,1.6,0.3
		c0.7,1.1,1.5,1.8,2.7,2.3c0.5,0.2,1,0.5,1,1.2c0,0.1,0,0.2-0.1,0.3c0.6-0.1,1.3-0.3,1.9-0.7c0.5,0.6,1.1,1,1.7,1.4
		c0.2,0.1,0.4,0.2,0.7,0.3c-0.1-0.1-0.1-0.3-0.1-0.5c0-0.5,0.8-0.9,1.2-1.2c1.3-0.9,3-1.9,4.7-1.4c0.5,0.1,0.7,0.4,0.8,0.8
		c0.2-0.2,0.3-0.4,0.5-0.7c0-0.1,0.1-0.1,0.1-0.2c0.5-0.1,1.1-0.2,1.6-0.4c-0.3-0.1-0.5-0.4-0.4-0.7c0.5-2.4,3.7-2.6,4.7-4.6
		c0-0.1,0-0.2,0-0.4c-0.6,0.2-1.2,0.6-1.9,0.5c-1.1,0-0.7-1.4-0.4-2c0.4-0.8,0.9-3.2,2.1-3.2c0.4,0,0.6,0.5,0.7,0.8
		c0.1,0.6,0.2,1.2,0.3,1.8c0.1-0.3,0.2-0.6,0.2-0.9c0-0.1,0-0.2,0-0.2c0.2-0.2,0.5-0.4,0.6-0.7C55.3,57.2,55.3,57.1,55.3,56.9z
		 M49.4,48.3c0.3,1.2,0.1,3.4-1.6,3.5c-0.8,0-1.3-0.3-1.5-1.1c-0.1-0.5-0.2-1-0.4-1.4c-0.3-0.6-0.7-1.1-1-1.6
		c-0.3-0.6-0.7-1.7-0.1-2.3c0.6-0.6,1.3-0.5,2,0c0,0,0,0,0,0c0.5,0.2,1,0.7,1.3,1.1C48.6,47,49.2,47.6,49.4,48.3z M44.6,40
		c0.1,0,0.1,0.1,0.1,0.2c0.9,0.2,1.7,0.7,2.3,1.4c0.4,0.5,1,1.3,0.9,2c-0.4,1.6-2.6-0.4-3.4-0.6c-0.8-0.2-3.4-0.5-3.2-1.8
		C41.4,39.6,43.4,39.7,44.6,40z M43,46.6c0.1,0.1,0.1,0.3,0,0.3c1.1,1.3,1.7,3.3,0,4.4c-1,0.7-3.1,1.3-3.9,0
		c-0.7-1.1,0.1-2.5-0.6-3.6c-0.4-0.7-1.3-1.5-0.7-2.3C39,43.6,41.9,45.9,43,46.6z M35.6,40.8c0.1,0,0.2,0,0.2,0.1
		c1.2-0.2,2.5,0.3,3.3,1.1c0.4,0.4,0.5,1-0.1,1.3c-0.3,0.2-0.7,0.2-1,0.1c-0.6,0-1.2,0-1.8,0.2c-0.6,0.2-4.1,1.9-4.1,0.1
		C32.2,41.9,34.2,41.2,35.6,40.8z M29.8,49c0.6-0.9,1.7-2.6,3-2.4c1.3,0.2,2.1,1.9,2.5,3c0.5,1.1,1.4,3.1,0.1,4
		c-0.1,0.1-0.2,0.1-0.3,0.2c-0.5,0.4-1.1,0.5-1.8,0.6c-1.5,0.2-3.1,0.1-4.1-1.1C28.4,52,29,50.1,29.8,49z M26,58.2
		c-0.9-0.3-1.8-1.2-1.9-2.2c-0.1,0-0.2,0-0.2-0.1c-0.2-1-0.1-3,1.3-3.1c1.4-0.1,2.4,1.2,2.1,2.5c-0.1,0.6-0.4,1.2-0.3,1.9
		c0.1,0.3,0.1,0.5,0,0.8C26.9,58.3,26.3,58.3,26,58.2z M30.7,63.2c-0.1,0.4-0.7,0.4-1,0.4c-0.5-0.1-1.3-0.5-1.9-0.9c0,0-0.1,0-0.1,0
		c-0.5-0.4-1.5-2.2-0.5-2.6c1.2-0.5,1.9,1.4,2.6,2C30.3,62.3,30.8,62.7,30.7,63.2z M31.7,62.7c-0.8-0.5-1.7-1.1-2.1-2
		c-0.5-0.6-0.6-1.8-0.3-2.4c0.6-0.9,1.7-1.2,2.7-1.2c2,0,5.4,0.9,5.7,3.4c0.2,1.8-1.9,2.6-3.4,2.7C33.5,63.2,32.5,63.2,31.7,62.7z
		 M39.9,68.2C39.9,68.2,39.9,68.2,39.9,68.2c-0.8,0.4-1.7,0.2-2.5-0.2c-0.7-0.3-1.8-0.9-2.1-1.7c-0.7-1.7,1.7-3,3-3.3
		c1.5-0.3,3.6,0.1,4,1.9C42.8,66.5,41.4,67.8,39.9,68.2z M42.8,61.9c-2.3,0.6-3-2.6-3.4-4.2c-0.2-0.9-0.4-2.2,0.3-3
		c0.7-0.7,1.7-0.9,2.6-0.9c2.2,0,3.5,1.1,4.2,3.1c0,0.1,0,0.2-0.1,0.2C46.4,59,44.8,61.8,42.8,61.9C42.8,61.9,42.8,61.9,42.8,61.9z
		 M48.2,65.1c0,0,0,0.1-0.1,0.1c-1.3,1.2-4,1.1-4.2-1.1c-0.1-1.8,1.6-4.3,3.5-4.6C50.5,59,50.2,63.8,48.2,65.1z M51.4,57.8
		c-0.2,0.6-0.4,1.1-0.9,1.3c-0.6,0.2-0.8-0.8-0.9-1.1c-0.3-1-1.5-1.3-1.8-2.2c-0.2-0.7-0.1-1.6,0.4-2.2c1.1-1.3,2.7-0.7,3.4,0.7
		c0,0.1,0,0.1,0,0.2C52,55.4,51.7,56.9,51.4,57.8z M52.9,54.3c-0.1,0.1-0.2,0-0.3-0.1c-0.3-0.4-0.3-1-0.5-1.4
		c-0.3-0.5-0.7-0.9-1-1.3c-0.5-0.7-0.6-1.4-0.7-2.2c-0.1-0.7-0.2-1.8,0.5-2.2c0.5-0.3,1-0.3,1.4,0.2c0,0,0.1,0.1,0,0.1
		c0.7,1,1,2.5,1.1,3.6C53.7,52,53.9,53.7,52.9,54.3z"/>
	<path class="st9" d="M56.4,53.3c-0.2-1.3-0.6-2.7-1.5-3.6c0,0,0-0.1,0-0.1c0.1-1.2,0.1-2.2-0.3-3.4c-0.4-1.2-1-2.3-1.8-3.3
		c-0.8-0.9-1.7-1.5-2.8-1.9c-0.4-0.2-0.8-0.3-1.2-0.3c0,0,0,0,0,0c-1.8-1.5-4.1-2.7-6.4-3c-2.1-0.2-4.6,0-6,1.7
		c-0.1,0-0.2-0.1-0.3-0.1c-1.4-0.4-2.9-0.5-4.3-0.2c-2.5,0.6-4,2.5-4.8,4.8c0,0,0,0.1,0,0.1c-0.7,0.6-1.2,1.4-1.5,2.2
		c-0.1,0.2-0.1,0.3-0.2,0.5c-2.3,1.2-3.8,4.2-4,6.7c-0.1,1.9,0.8,4.2,2.4,5.5c-0.5,0.5-0.4,1.4-0.3,2.1c0.1,1,0.7,2.1,1.4,2.8
		c0.7,0.8,1.5,1.3,2.6,1.5c0.6,0.1,1.8,0.3,2.4-0.1c0.1,1.5,1.5,3.1,2.7,3.8c1.1,0.6,2.3,0.9,3.6,0.8c0.9-0.1,1.9-0.4,2.4-1.1
		c1.2,2.1,4,2.5,6.1,1.9c1.5-0.4,2.8-1.6,3.4-3.1c1.4,0.1,2.8-0.9,3.7-1.9c1-1,1.7-2.7,1.6-4.1c0.4-0.5,0.7-1.1,0.9-1.7
		c0.1-0.3,0.2-0.7,0.2-1c0.7-0.5,1.3-1.3,1.6-2.1C56.5,55.6,56.6,54.4,56.4,53.3z M50.3,41.7c1,0.4,1.8,1.1,2.4,1.9
		c0.7,0.9,1.2,1.8,1.5,2.8c0.3,1,0.3,1.9,0.3,2.9c-0.4-0.3-0.9-0.5-1.4-0.7c-0.2-0.7-0.5-1.3-1-1.9c-0.6-0.8-1.3-1.5-2.3-1.5
		c-0.1-0.5-0.2-0.9-0.4-1.3c-0.5-1.1-1.3-2-2.2-2.7c0.4-0.1,0.8-0.2,1.2-0.2C49.1,41.2,49.7,41.4,50.3,41.7z M51.5,52.9
		c-0.3-0.7-0.9-1.5-1.6-1.7c0.3-0.6,0.3-1.3,0.2-2.1c-0.1-0.6-0.3-1.2-0.6-1.7c0.4-0.5,0.5-1.2,0.5-1.9c0.9,0.3,1.6,1.1,2.2,1.9
		c0.6,0.9,0.9,2,1.1,3.1c0.2,1.1,0.2,2.2,0,3.2c-0.1,0.8-0.5,1.8-1.1,2.4c0,0,0-0.1,0-0.1C52.1,55,52,53.9,51.5,52.9z M46.4,55.3
		c-0.2-0.7-0.6-1.4-1.1-1.9c1,0.1,2.3-0.2,3.1-0.7c0.7-0.4,1.1-0.8,1.4-1.3c1.6,1.1,2,3,1.8,4.8c-0.1,1-0.4,1.9-0.8,2.8
		c-0.2,0.4-0.3,0.9-0.5,1.3c-0.1,0.2-0.2,0.4-0.4,0.6c-0.4-1.6-1.6-3.1-3.3-3.3C46.7,56.9,46.6,56.1,46.4,55.3z M38.2,57.9
		c-0.2-0.6-0.4-1.3-0.7-1.9c-0.2-0.5-0.5-0.9-0.8-1.3c0.3,0,0.5-0.2,0.8-0.3c0.6-0.3,1.4-0.5,2-0.7c0.7-0.2,1.5-0.4,2.3-0.4
		c0.6,0,1.2,0,1.8-0.1c0.1,0,0.3-0.1,0.4-0.1c1,0.4,1.6,1.3,1.9,2.3c0.4,1.5,0.1,2.8-0.6,4.2c-0.7,1.3-1.9,2.3-3.4,2.4
		c-0.7,0.1-1.4,0-2.1-0.2c-0.5-0.2-0.9-0.6-1.2-0.9C38.9,59.8,38.6,58.9,38.2,57.9z M27.7,53.5c0.2,0.8,0.7,1.3,1.3,1.7
		c-1.3,0.6-1.2,2.4-0.8,3.7c-0.8,0.1-1.7-0.3-2.4-0.7c-0.8-0.5-1.3-1.4-1.7-2.3c-0.4-0.8-0.4-1.7-0.2-2.6c0.1-0.6,0.5-1,0.9-1.3
		c0.3-0.2,0.6-0.3,0.9-0.5c0.4,0.4,1.1,0.7,1.8,0.8C27.6,52.7,27.7,53.1,27.7,53.5z M37.5,51.8c-0.1-1.7-0.9-3.2-2-4.5
		c-0.4-0.5-0.7-0.9-1.2-1.2c0.7-0.7,1.5-1.1,2.5-1.4c1.1-0.4,2.1-0.6,3.3-0.3c2,0.6,2.7,2.7,3.9,4.2c0.6,0.8,1.5,2.1,1.1,3.1
		c-0.4,1-1.9,1.2-2.8,1.2c-1,0-1.9,0.2-2.9,0.5c-0.5,0.2-1,0.3-1.5,0.5c-0.4,0.2-0.8,0.5-1.2,0.6C37.4,53.8,37.6,52.8,37.5,51.8z
		 M45.7,51.6c0.3-1.1-0.3-2.1-0.9-3c-0.3-0.5-0.8-1-1.1-1.5c-0.3-0.5-0.6-1.1-1-1.6c-0.2-0.2-0.4-0.5-0.6-0.7
		c0.2-0.1,0.3-0.2,0.5-0.2c0.2-0.1,0.5-0.1,0.7-0.1c1.1,0,2.2,0.5,3.1,1c1.2,0.7,2.4,1.5,3,2.9c0.3,0.7,0.3,1.6,0.2,2.4
		c-0.1,0.7-0.6,1.1-1.2,1.5c-1.1,0.6-2.3,0.8-3.5,0.5C45.2,52.4,45.6,52.1,45.7,51.6z M49.2,47.1c-0.6-0.8-1.3-1.4-2.2-1.9
		c-0.7-0.4-1.5-0.8-2.4-1c-0.3-0.1-0.7-0.1-1.1-0.1c-0.5,0-1,0.1-1.4,0.4c0,0,0,0,0,0c-0.4-1.4-1.4-2.7-2.7-3.4c0,0-0.1-0.1-0.1-0.1
		c0.9-0.4,1.8-0.8,2.8-0.9c1.3-0.2,2.5,0.1,3.6,0.6C47.8,41.9,50.1,44.6,49.2,47.1z M39.4,41.9c0.2,0.2,0.5,0.4,0.7,0.6
		c0.2,0.2,0.4,0.4,0.6,0.7c0.3,0.4,0.5,0.8,0.7,1.2c-0.4-0.2-0.8-0.4-1.2-0.5c-1.2-0.3-2.3,0-3.4,0.4c-1.1,0.3-2.1,0.8-2.8,1.7
		c-0.6-0.2-1.3-0.1-1.9,0.1c-0.3,0.1-0.5,0.2-0.8,0.3c0,0,0,0-0.1,0c-0.2-0.4-0.1-1-0.1-1.4c0.1-0.7,0.3-1.3,0.7-1.8
		c0.8-1.1,2.4-1.6,3.6-1.8C36.7,40.8,38.4,41.1,39.4,41.9z M32.2,46.4c0.7-0.3,1.6-0.2,2.2,0.3c0.5,0.4,0.9,1,1.2,1.5
		c0.8,1.1,1.3,2.4,1.5,3.7c0.1,0.7,0,1.3-0.3,1.9c-0.3,0.7-1.2,0.9-1.9,1.1c-2.2,0.6-6.5,1.1-6.8-2.2c-0.1-1.3,0.4-2.7,1.1-3.8
		C29.9,47.7,30.9,46.9,32.2,46.4z M28.4,59.4c0,0.1,0.1,0.2,0.1,0.3c0.8,1.8,2.5,3.3,4.4,3.9c-1.6,0.6-3.2,0.2-4.6-0.8
		c-0.7-0.5-1.2-1.1-1.7-1.9c-0.4-0.7-0.6-1.4-0.7-2.1C26.6,59.2,27.6,59.5,28.4,59.4z M29.4,60.2c-0.5-0.8-0.9-1.7-1-2.6
		c-0.1-1,0.2-1.7,1-2.2c0.5,0.2,1.1,0.3,1.6,0.4c1.6,0.1,3.5-0.1,5-0.7c0.1,0,0.2-0.1,0.3-0.2c0,0,0,0,0,0c0.5,0.8,0.9,1.6,1.2,2.5
		c0.3,0.9,0.7,1.8,0.8,2.8c0.1,2.1-2.9,3.3-4.6,3.1C32,63.1,30.4,61.6,29.4,60.2z M39.6,38.3c1.1-0.2,2.4-0.1,3.5,0.1
		c1.2,0.2,2.3,0.8,3.3,1.4c0.5,0.3,1,0.6,1.5,0.9c0,0,0.1,0,0.1,0.1c-0.4,0-0.7,0.1-1,0.3c-0.2-0.2-0.4-0.3-0.7-0.5
		c-2.1-1.4-5.4-1.3-7.4,0.3c0,0-0.1,0-0.1-0.1c-0.5-0.6-1.2-1-2-1.3C37.6,39,38.5,38.5,39.6,38.3z M28.9,41.5
		c0.8-0.9,1.9-1.5,3.1-1.8c1.9-0.5,3.8,0,5.6,0.9c-1-0.1-2-0.1-2.9,0.2c-1.4,0.4-2.8,1.1-3.5,2.3c-0.1,0.1-0.1,0.2-0.2,0.4
		c-0.7-0.5-2.2-0.2-2.9,0c-0.2,0-0.3,0.1-0.4,0.2C28,42.8,28.3,42.1,28.9,41.5z M25.8,46.8c0.3-1.1,1-2.1,1.9-2.7
		c0.8-0.5,2.3-0.8,3.2-0.4c-0.4,0.9-0.5,2.1-0.1,2.8c-0.6,0.4-1.1,0.9-1.5,1.5c-0.1,0.2-0.3,0.4-0.4,0.6c-0.6,0.9-1,2-1.1,3.2
		c-1.2-0.3-2-0.9-2.2-2.2C25.4,48.7,25.5,47.7,25.8,46.8z M21.6,53.3c0.3-2.3,1.6-4.9,3.6-6.2c-0.2,0.9-0.3,2-0.1,2.9
		c0.1,0.6,0.3,1,0.6,1.4c-0.9,0.3-1.5,0.6-1.9,1.5c-0.5,1-0.4,2.1,0,3.1c0.3,1,1,2,1.9,2.7c0,0,0.1,0.1,0.2,0.1c0,0.3,0,0.6,0,1
		C23.1,58.9,21.4,55.9,21.6,53.3z M29.9,64.6c0,0.1-0.1,0.1-0.2,0.2C29.2,65.3,28,65,27.5,65c-0.9-0.1-1.6-0.6-2.3-1.3
		c-0.6-0.6-1.1-1.5-1.4-2.3c-0.2-0.6-0.3-1.6,0-2.3c0.6,0.4,1.2,0.7,2,0.8c0,0,0,0,0,0c0.1,0.4,0.3,0.8,0.5,1.2
		c0.5,0.9,1.3,1.7,2.1,2.3c0.4,0.3,1,0.6,1.6,0.7C30,64.3,29.9,64.5,29.9,64.6z M32.9,68.8c-0.9-0.5-1.6-1.3-2.2-2.1
		c-0.5-0.6-0.6-1.4-0.5-2.2c0,0,0,0,0,0c0,0,0,0,0,0c0-0.1,0-0.2,0.1-0.3c1.1,0.3,2.2,0.2,3-0.5c0,0,0,0,0.1,0
		c0.3,0.1,0.7,0.1,1,0.1c-0.2,0.4-0.1,1.1,0,1.5c0.2,0.8,0.6,1.5,1.2,2.1c0.7,0.8,1.7,1.2,2.7,1.3C36.7,69.9,34.5,69.7,32.9,68.8z
		 M36.2,67.3c-0.5-0.4-0.8-0.8-1.1-1.4c-0.3-0.5-0.7-1.6-0.4-2.2c0.6-0.1,1.2-0.3,1.7-0.5c0.8-0.3,1.8-1,2.1-1.8c0,0,0,0,0,0
		c0,0,0,0,0,0c0.7,0.9,1.7,1.1,2.9,1.1c0,0,0,0,0.1,0.1c1.2,0.7,1.5,2,1.3,3.3c-0.2,1.1-1.8,1.8-2.8,2.1
		C38.6,68.4,37.3,68.1,36.2,67.3z M44.5,70.2c-2.2,0.7-4.2-0.1-5.8-1.5c0.4,0,0.8,0,1.2-0.1c1.3-0.3,3-1.2,3.4-2.6
		c0-0.1,0-0.2,0.1-0.3c0.1,0.2,0.3,0.3,0.5,0.4c0,0,0,0,0,0c0.9,0.8,2.4,0.5,3.5,0.1c0.2-0.1,0.4-0.2,0.6-0.3
		C47.9,68,46.5,69.5,44.5,70.2z M47.3,65.6c-0.8,0.4-1.5,0.5-2.2,0.4c-0.3-0.1-0.6-0.1-0.9-0.2c-0.4-0.1-0.6-0.3-0.9-0.6
		c0.1-1.1-0.3-2.2-1.1-2.8c1.5-0.2,2.8-1.2,3.5-2.5c0.4-0.7,0.7-1.4,0.8-2c0.9,0.3,1.7,0.7,2.3,1.6c0.6,0.9,0.9,2.2,0.7,3.3
		C49.4,64,48.3,65.1,47.3,65.6z M51.7,65c-0.8,1-2.2,2.1-3.5,2.1c0.1-0.5,0.1-0.9,0-1.4c0.8-0.6,1.4-1.4,1.6-2.2c0,0,0,0,0,0
		c1,0,1.8-0.5,2.6-1.1c0.2-0.1,0.3-0.3,0.5-0.4C52.8,63,52.5,64,51.7,65z M54.1,58.6c0,0,0,0.1,0,0.1c0,0.2-0.1,0.4-0.1,0.5
		c-0.5,2-2,3.2-4,3.7c0.1-0.5,0.1-1,0-1.4c0.6-0.6,0.9-1.5,1.2-2.3c0.3-0.8,0.6-1.7,0.8-2.5c0,0,0,0,0,0c0.7-0.5,1.1-1.3,1.3-2
		C54.1,55.7,54.2,57.3,54.1,58.6z M54.5,58.2c0.1-1.4-0.1-3-1.2-3.7c0-0.1,0-0.1,0.1-0.2c0.4-1.2,0.4-2.6,0.1-3.9
		c-0.1-0.5-0.2-1-0.3-1.4c0.7,0.4,1.3,0.8,1.8,1.4c0.6,0.7,0.7,1.7,0.9,2.5C56.3,54.8,55.9,56.8,54.5,58.2z"/>
	<g>
		<g>
			<path class="st5" d="M25.8,62C26,62.2,25.8,61.9,25.8,62L25.8,62z"/>
			<path class="st5" d="M26.1,62.4c0-0.1-0.1-0.2-0.1-0.2c0,0,0-0.1-0.1-0.1C25.8,62,25.8,62,25.8,62c0,0,0,0,0,0
				c-0.2-0.2-0.4-0.3-0.6-0.3c-0.7-0.1-1.1,0.6-0.9,1.2c0.1,0.4,0.5,0.9,1,1.1c0.2,0.1,0.6,0.1,0.7-0.2c0.2-0.1,0.3-0.3,0.4-0.5
				C26.3,62.9,26.2,62.7,26.1,62.4z"/>
		</g>
		<path class="st5" d="M34.6,59.4C34.6,59.3,34.6,59.3,34.6,59.4c-0.2-0.5-0.7-0.8-1.2-0.7c0,0,0,0-0.1,0c-0.3,0-0.5,0.2-0.7,0.5
			c-0.3,0.4-0.4,1-0.2,1.5c0,0.1,0,0.1,0,0.2c0.1,0.7,0.7,1,1.3,0.9c0.1,0,0.2,0,0.3-0.1c0,0,0,0,0,0c0,0,0,0,0,0c0,0,0.1,0,0.1,0
			C34.9,61.1,35,60.1,34.6,59.4z"/>
		<path class="st5" d="M32.9,48.3c-0.1,0-0.2-0.1-0.4-0.1c-1,0-1.5,1.4-1.6,2.2c-0.2,0.9,0,2.2,1.2,2.2c1.2,0,1.9-1.1,2-2.2
			C34.2,49.7,33.8,48.4,32.9,48.3z"/>
		<path class="st5" d="M33.6,65.2C33.6,65.2,33.6,65.2,33.6,65.2c0-0.3-0.1-0.5-0.4-0.6c-0.1,0-0.1-0.1-0.2-0.1
			c-0.3-0.1-0.6,0.2-0.6,0.5c0,0.3,0.1,0.5,0.3,0.7c0.1,0.1,0.1,0.1,0.2,0.1c0.3,0.1,0.6,0,0.7-0.4C33.6,65.4,33.6,65.3,33.6,65.2z"
			/>
		<path class="st5" d="M28.3,60.5C28.3,60.5,28.3,60.5,28.3,60.5c-0.2-0.1-0.4,0-0.5,0.1c-0.1,0.1-0.1,0.2-0.1,0.2
			c-0.1,0.1-0.1,0.3,0,0.4c0.1,0.2,0.3,0.4,0.6,0.5c0.2,0,0.5-0.1,0.5-0.4C28.9,61,28.7,60.6,28.3,60.5z"/>
		<path class="st5" d="M26.5,55c0-0.1,0-0.2-0.1-0.2c0-0.1,0-0.1-0.1-0.2c-0.1-0.2-0.3-0.3-0.5-0.4c-0.2-0.1-0.4,0-0.5,0.1
			c-0.5,0.3-0.4,1.1-0.1,1.4c0,0,0.1,0.1,0.1,0.1c0,0,0,0,0,0c0.1,0.2,0.4,0.3,0.6,0.2c0.1,0,0.2-0.1,0.3-0.2
			C26.5,55.5,26.6,55.2,26.5,55z"/>
		<path class="st5" d="M23.5,50.6c-0.4-0.3-0.8,0-1,0.3c-0.1,0.2-0.2,0.4-0.2,0.6c-0.1,0.3-0.2,0.6-0.1,0.9c0.1,0.3,0.3,0.5,0.7,0.5
			c0.4,0,0.6-0.3,0.7-0.6C23.8,51.8,24,51,23.5,50.6z"/>
		<path class="st5" d="M27.9,46.9c0-0.2-0.1-0.4-0.2-0.5c-0.2-0.2-0.4-0.2-0.6,0c-0.3,0.2-0.3,0.6-0.3,0.9c0,0.3,0,0.5,0.2,0.8
			c0.1,0.1,0.2,0.2,0.4,0.2c0.1,0,0.1,0,0.1,0c0.2,0,0.3-0.2,0.4-0.4C27.9,47.4,27.9,47.1,27.9,46.9z"/>
		<path class="st5" d="M32.9,39.9c-0.3-0.8-1.2-0.3-1.6,0.1c-0.4,0.4-0.9,1.1-0.6,1.7c0.4,0.7,1.2-0.1,1.7-0.6
			c0.1-0.1,0.2-0.2,0.2-0.3C32.8,40.5,33,40.1,32.9,39.9z"/>
		<path class="st5" d="M36.4,42.4c0-0.1,0-0.2,0-0.2c0,0,0-0.1,0-0.1c0-0.1-0.1-0.2-0.1-0.3c-0.1-0.2-0.2-0.3-0.3-0.4
			c-0.3-0.2-0.7,0-0.8,0.3c0,0,0,0.1,0,0.1c-0.1,0.1-0.1,0.2-0.1,0.4c0,0.1,0,0.2,0,0.2c0,0,0,0,0,0.1c0,0.1,0,0.1,0.1,0.2
			c0.2,0.4,0.9,0.5,1.1,0c0-0.1,0-0.1,0-0.2C36.4,42.5,36.4,42.5,36.4,42.4C36.4,42.4,36.4,42.4,36.4,42.4z"/>
		<path class="st5" d="M39.7,65c0-0.2-0.1-0.4-0.2-0.5c-0.2-0.3-0.6-0.4-0.9-0.3c-0.3,0.1-0.5,0.4-0.6,0.7c0,0,0,0,0,0
			c-0.1,0.3-0.1,0.6,0,0.9c0,0.3,0.2,0.6,0.5,0.7c0.5,0.2,0.9-0.2,1.1-0.6c0-0.1,0-0.1,0.1-0.2c0-0.1,0-0.1,0.1-0.2
			C39.8,65.3,39.8,65.2,39.7,65z"/>
		<path class="st5" d="M44,68.3c-0.1-0.1-0.1-0.1-0.2-0.1c-0.4-0.2-0.9-0.1-1.2,0.2c-0.3,0.3-0.3,0.8,0.1,1.1
			c0.2,0.2,0.5,0.2,0.8,0.2c0.3,0,0.6-0.2,0.8-0.5C44.6,68.9,44.3,68.5,44,68.3z"/>
		<path class="st5" d="M47,61.9c-0.1-0.1-0.2-0.3-0.3-0.4c-0.2-0.2-0.5-0.2-0.8,0c-0.2,0.1-0.3,0.4-0.4,0.6c0,0.2-0.1,0.3-0.1,0.5
			c0,0.3,0,0.5,0.2,0.8c0.1,0.2,0.3,0.3,0.5,0.4C47.2,63.7,47.4,62.5,47,61.9z"/>
		<path class="st5" d="M43.2,57.1c-0.1-0.1-0.1-0.3-0.2-0.4c-0.4-0.8-1.3-0.6-1.7,0.1c-0.1,0.1-0.1,0.3-0.1,0.5c0,0,0,0,0,0
			c-0.1,0.5,0,1,0.1,1.4c0,0,0,0.1,0,0.1c0,0,0,0,0,0.1c0.2,0.4,0.6,0.5,1,0.5c0.5,0,0.8-0.5,1-0.9C43.6,58,43.5,57.5,43.2,57.1z"/>
		<path class="st5" d="M42.7,48.4c-0.1-0.8-0.7-1.9-1.7-1.5c-0.8,0.4-0.9,1.3-0.7,2.1c0.1,0.6,0.4,1.1,1,1.2
			C42.4,50.5,42.8,49.3,42.7,48.4z"/>
		<path class="st5" d="M49.6,54.8c0-0.1-0.1-0.2-0.2-0.4c-0.2-0.3-0.4-0.5-0.7-0.4c-1.2,0.2-1,2.4,0.2,2.4c0,0,0,0,0,0
			c0.3,0,0.6-0.2,0.7-0.5c0-0.1,0-0.1,0-0.2c0,0,0,0,0,0C49.8,55.5,49.7,55.1,49.6,54.8z"/>
		<path class="st5" d="M47.4,47.7c-0.1-0.2-0.3-0.3-0.5-0.3c-0.2,0-0.5,0.1-0.6,0.3c-0.1,0.3-0.1,0.6,0,0.9c0.1,0.2,0.2,0.5,0.5,0.6
			c0.1,0.1,0.2,0.1,0.4,0.1c0.2,0,0.4-0.2,0.5-0.3C47.8,48.6,47.7,48,47.4,47.7z"/>
		<path class="st5" d="M45.3,42.2c0-0.2-0.1-0.4-0.3-0.6c-0.2-0.2-0.5-0.1-0.7,0.2c-0.1,0.1-0.1,0.2-0.2,0.3
			c-0.1,0.3,0.1,0.6,0.4,0.8c0.3,0.1,0.5,0,0.6-0.3c0,0,0-0.1,0-0.1C45.3,42.4,45.3,42.3,45.3,42.2z"/>
		<path class="st5" d="M43.4,38.6c-0.1-0.3-0.4-0.4-0.7-0.5c-0.1,0-0.1,0-0.2,0c0,0-0.1,0-0.1,0c-0.2,0-0.3,0.1-0.4,0.3c0,0,0,0,0,0
			C42,38.6,42,38.9,42.2,39c0,0,0.1,0.1,0.1,0.1c0.1,0.1,0.2,0.2,0.4,0.2c0.1,0,0.1,0.1,0.2,0.1C43.3,39.4,43.7,39,43.4,38.6z"/>
		<path class="st5" d="M52.8,43.9C52.8,43.9,52.8,43.9,52.8,43.9c-0.1-0.7-0.7-1.4-1.4-1.3c-0.3,0-0.5,0.3-0.5,0.6
			c0,0.7,0.7,1.3,1.4,1.3C52.6,44.5,52.8,44.2,52.8,43.9C52.8,44,52.8,44,52.8,43.9z"/>
		<path class="st5" d="M52.6,50.4c-0.1-0.3-0.2-0.6-0.5-0.8c-0.1,0-0.1,0-0.2,0c-0.3-0.1-0.6,0.1-0.7,0.4c-0.2,0.5,0,1.4,0.5,1.7
			c0.2,0.2,0.5,0.1,0.7-0.1c0.1-0.1,0.1-0.2,0.2-0.2c0,0,0,0,0-0.1C52.7,51.1,52.6,50.7,52.6,50.4z"/>
		<path class="st5" d="M55.8,52.2c-0.1-0.1-0.1-0.2-0.2-0.3c-0.1-0.1-0.2-0.1-0.2-0.1c0,0-0.1,0-0.2,0c-0.3,0-0.5,0.2-0.6,0.4
			c-0.1,0.5,0,1.2,0.4,1.5c0,0.1,0.1,0.1,0.1,0.2c0.3,0.4,0.9,0.2,0.9-0.2C56.1,53.2,56.1,52.6,55.8,52.2z"/>
		<path class="st5" d="M53.2,58.7c0,0,0-0.1,0-0.1c-0.1-0.2-0.3-0.3-0.4-0.2c-0.2,0.1-0.3,0.2-0.4,0.3c-0.2,0.3-0.3,0.7-0.2,0.9
			c0,0,0,0.1,0.1,0.1c0,0,0,0,0,0c0,0,0,0,0,0c0,0,0,0,0,0c0.1,0.1,0.1,0.1,0.2,0.1c0.1,0,0.1,0,0.2,0c0.1-0.1,0.3-0.1,0.3-0.3
			C53.2,59.4,53.3,59,53.2,58.7z"/>
		<path class="st5" d="M51.3,64.4c0-0.1-0.2-0.2-0.3-0.2c-0.2-0.1-0.5,0-0.6,0.2c-0.1,0.1-0.3,0.3-0.4,0.4c-0.2,0.3-0.3,0.6,0,0.8
			c0.3,0.2,0.6,0.1,0.9-0.1C51.2,65.2,51.4,64.8,51.3,64.4z"/>
	</g>
	<g class="st14">
		<g>
			<path class="st15" d="M25.8,62C26,62.2,25.8,61.9,25.8,62L25.8,62z"/>
			<path class="st15" d="M26.1,62.4c0-0.1-0.1-0.2-0.1-0.2c0,0,0-0.1-0.1-0.1C25.8,62,25.8,62,25.8,62c0,0,0,0,0,0
				c-0.2-0.2-0.4-0.3-0.6-0.3c-0.2,0-0.4,0-0.6,0.1c0.3,0.1,0.5,0.2,0.5,0.5c0,0.2,0.1,0.4,0.4,0.4c0.1,0,0.2,0,0.3,0.1
				c0.1,0.1,0.3,0.2,0.3,0.4c0,0.2,0,0.3-0.1,0.5c0.1-0.1,0.2-0.2,0.2-0.4C26.3,62.9,26.2,62.7,26.1,62.4z"/>
		</g>
		<path class="st15" d="M33.1,60.8c0-0.3,0.1-0.5,0.1-0.7c0.1-0.4-0.2-0.5-0.3-0.8c0-0.2,0-0.3,0.1-0.5c-0.2,0.1-0.3,0.2-0.5,0.4
			c-0.3,0.4-0.4,1-0.2,1.5c0,0.1,0,0.1,0,0.2c0.1,0.7,0.7,1,1.3,0.9c0.1,0,0.2,0,0.3-0.1c0,0,0,0,0,0c0,0,0,0,0,0c0,0,0,0,0.1,0
			C33.6,61.6,33.1,61.3,33.1,60.8z"/>
		<path class="st15" d="M33.4,48.5c0.2,0.4,0,0.9-0.3,1.2c-0.2,0.2-0.5,0.4-0.3,0.7c0.1,0.1,0.2,0.3,0.3,0.4c0.1,0.3,0,0.5-0.1,0.7
			c-0.3,0.8-1.2,1-1.8,0.6c0.2,0.3,0.5,0.5,0.9,0.5c1.2,0,1.9-1.1,2-2.2C34.1,49.9,33.9,49,33.4,48.5z"/>
		<path class="st15" d="M33.5,65.6c-0.2,0.1-0.4,0-0.5-0.1c-0.1-0.1-0.1-0.2-0.1-0.3c0,0,0-0.1,0-0.1c0,0,0,0,0,0c0,0,0,0-0.1,0
			c-0.2,0-0.3-0.2-0.3-0.4c-0.1,0.1-0.1,0.2-0.2,0.3c0,0.3,0.1,0.5,0.3,0.7c0.1,0.1,0.1,0.1,0.2,0.1C33.1,66,33.5,65.8,33.5,65.6
			C33.5,65.5,33.5,65.5,33.5,65.6z"/>
		<path class="st15" d="M28.3,60.5C28.3,60.5,28.3,60.5,28.3,60.5c-0.2-0.1-0.3,0-0.4,0.1c0.1,0,0.1,0,0.2,0.1
			c0.1,0.1,0.2,0.1,0.2,0.2c0,0.1-0.1,0.2,0.1,0.3c0.2,0.1,0.3,0.3,0.4,0.5c0.1-0.1,0.1-0.2,0.2-0.3C28.9,61,28.7,60.6,28.3,60.5z"
			/>
		<path class="st15" d="M26.5,55c0-0.1,0-0.2-0.1-0.2c0-0.1,0-0.1-0.1-0.2c-0.1-0.1-0.2-0.3-0.4-0.3c0.1,0.1,0.1,0.1,0.1,0.2
			c0,0.1,0,0.2,0,0.4c0,0.1-0.1,0.1-0.1,0.1c0,0,0.1,0.1,0.1,0.1c0.3,0.3,0.4,0.9-0.2,0.9c-0.1,0-0.2,0-0.3,0c0.1,0.1,0.3,0.1,0.5,0
			c0.1,0,0.2-0.1,0.3-0.2C26.5,55.5,26.6,55.2,26.5,55z"/>
		<path class="st15" d="M23.6,50.7c0,0,0,0.1,0,0.1c0,0.1-0.1,0.4-0.2,0.4c-0.1,0.1-0.1,0.1-0.2,0.1c-0.2,0.1-0.1,0.4-0.1,0.6
			c0.1,0.3,0,0.7-0.2,0.9c0.3-0.1,0.5-0.3,0.6-0.6C23.7,51.9,23.9,51.2,23.6,50.7z"/>
		<path class="st15" d="M27.9,46.9c0-0.2-0.1-0.4-0.2-0.5c-0.1-0.1-0.1-0.1-0.2-0.1c0.1,0.1,0.1,0.2,0.2,0.4c0,0.2-0.2,0.3-0.2,0.4
			c0,0,0.2,0.3,0.2,0.3c0.1,0.2,0,0.4-0.1,0.6c0.2-0.1,0.3-0.2,0.3-0.4C27.9,47.4,27.9,47.1,27.9,46.9z"/>
		<path class="st15" d="M32.9,39.9c-0.1-0.3-0.3-0.4-0.6-0.4c0.1,0.1,0.1,0.2,0.1,0.4c0,0.5-0.4,0.5-0.6,0.7
			c-0.3,0.3-0.2,0.8-0.6,1.1c-0.1,0.1-0.3,0.1-0.4,0.1c0.4,0.4,1.2-0.2,1.6-0.7c0.1-0.1,0.2-0.2,0.2-0.3
			C32.8,40.5,33,40.1,32.9,39.9z"/>
		<path class="st15" d="M36.5,42.2C36.5,42.1,36.4,42.1,36.5,42.2c0-0.2-0.1-0.3-0.1-0.3c0,0.3-0.2,0.7-0.5,0.7
			c-0.3,0-0.5-0.3-0.6-0.6c0,0.1-0.1,0.2-0.1,0.4c0,0.1,0,0.2,0,0.2c0,0,0,0,0,0.1c0,0.1,0,0.1,0.1,0.2c0.2,0.4,0.9,0.5,1.1,0
			c0-0.1,0-0.1,0-0.2c0,0,0-0.1,0-0.1c0,0,0,0,0,0C36.5,42.3,36.5,42.3,36.5,42.2z"/>
		<path class="st15" d="M38.5,65.6c0-0.2,0.1-0.3,0.2-0.5c0.2-0.2-0.2-0.4-0.2-0.6c0-0.1,0-0.2,0-0.3c-0.2,0.1-0.3,0.4-0.4,0.6
			c0,0,0,0,0,0c-0.1,0.3-0.1,0.6,0,0.9c0,0.3,0.2,0.6,0.5,0.7c0.3,0.1,0.5,0,0.7-0.2C38.9,66.4,38.5,66.1,38.5,65.6z"/>
		<path class="st15" d="M43.8,69.3c-0.1,0-0.2-0.1-0.3-0.2c-0.1-0.1-0.1-0.2-0.2-0.1c-0.3,0.2-0.6,0-0.7-0.2c-0.1,0.3,0,0.6,0.2,0.8
			c0.2,0.2,0.5,0.2,0.8,0.2c0.3,0,0.6-0.2,0.8-0.5c0.1-0.1,0.1-0.2,0.1-0.3C44.3,69.1,44,69.3,43.8,69.3z"/>
		<path class="st15" d="M46.5,63.3c-0.3-0.2-0.5-0.5-0.4-0.8c0-0.2,0.1-0.3-0.1-0.5c-0.1,0-0.1-0.1-0.2-0.2c0-0.1-0.1-0.2-0.1-0.2
			c-0.1,0.1-0.1,0.2-0.2,0.4c0,0.2-0.1,0.3-0.1,0.5c0,0.3,0,0.5,0.2,0.8c0.1,0.2,0.3,0.3,0.5,0.4c0.3,0,0.5-0.1,0.7-0.3
			C46.8,63.4,46.7,63.4,46.5,63.3z"/>
		<path class="st15" d="M41.8,57.9c-0.1-0.6,0.1-1.5,0.9-1.4c0.1,0,0.3,0.1,0.4,0.1c-0.4-0.7-1.3-0.6-1.7,0.1
			c-0.1,0.1-0.1,0.3-0.1,0.5c0,0,0,0,0,0c-0.1,0.5,0,1,0.1,1.4c0,0,0,0.1,0,0.1c0,0,0,0,0,0.1c0.2,0.4,0.6,0.5,1,0.5
			c0.2,0,0.4-0.1,0.6-0.3C42.3,59.1,41.9,58.6,41.8,57.9z"/>
		<path class="st15" d="M42.3,49.8c-0.7,0.5-1.5-0.1-1.3-0.9c0.1-0.4,0.1-0.6-0.1-1c0-0.2-0.1-0.4,0-0.5c0.1-0.2,0.3-0.4,0.5-0.4
			c-0.1,0-0.3,0-0.5,0.1c-0.8,0.4-0.9,1.3-0.7,2.1c0.1,0.6,0.4,1.1,1,1.2c0.6,0.1,1-0.2,1.2-0.7C42.4,49.7,42.4,49.7,42.3,49.8z"/>
		<path class="st15" d="M49.1,56.4c-0.3-0.1-0.5-0.3-0.5-0.7c0-0.1,0.1-0.4-0.1-0.5c0,0-0.1,0-0.1-0.1c-0.1-0.1-0.1-0.2-0.1-0.3
			c0.1-0.4,0.3-0.6,0.5-0.8c-0.1,0-0.1,0-0.2,0c-1.2,0.2-1,2.4,0.2,2.4c0,0,0,0,0,0c0.1,0,0.2,0,0.3-0.1
			C49.2,56.4,49.2,56.4,49.1,56.4z"/>
		<path class="st15" d="M46.9,48.9c-0.2-0.2,0.1-0.5-0.1-0.6c-0.2-0.1-0.3-0.4-0.3-0.6c0-0.1,0.1-0.3,0.1-0.4
			c-0.1,0.1-0.3,0.2-0.3,0.3c-0.1,0.3-0.1,0.6,0,0.9c0.1,0.2,0.2,0.5,0.5,0.6c0.1,0.1,0.2,0.1,0.4,0.1c0.2,0,0.3-0.1,0.4-0.3
			C47.4,49.1,47.1,49.1,46.9,48.9z"/>
		<path class="st15" d="M44.7,42.7c-0.2-0.1-0.2-0.4-0.2-0.6c0-0.1,0-0.2,0-0.2c0-0.1,0.1-0.2,0.1-0.2c-0.1,0-0.2,0.1-0.2,0.2
			c-0.1,0.1-0.1,0.2-0.2,0.3c-0.1,0.3,0.1,0.6,0.4,0.8c0.2,0.1,0.3,0,0.5-0.1C44.9,42.7,44.8,42.7,44.7,42.7z"/>
		<path class="st15" d="M42.9,38.9c0-0.1-0.3-0.2-0.4-0.2c-0.1-0.1-0.2-0.1-0.2-0.2c-0.1-0.1-0.1-0.2-0.1-0.3
			c-0.1,0-0.1,0.1-0.1,0.2c0,0,0,0,0,0C42,38.6,42,38.9,42.2,39c0,0,0.1,0.1,0.1,0.1c0.1,0.1,0.2,0.2,0.4,0.2c0.1,0,0.1,0.1,0.2,0.1
			c0.2,0,0.4-0.1,0.5-0.2C43.2,39.2,43,39.1,42.9,38.9z"/>
		<path class="st15" d="M52.4,44.3c-0.1-0.1-0.1-0.2-0.2-0.3c0,0-0.2-0.3-0.2-0.3c-0.1,0-0.2,0-0.3-0.1c-0.1,0-0.3-0.2-0.4-0.3
			c-0.1-0.2-0.2-0.4-0.1-0.7c-0.2,0.1-0.3,0.3-0.3,0.5c0,0.7,0.7,1.3,1.4,1.3c0.1,0,0.3-0.1,0.3-0.2C52.5,44.4,52.5,44.4,52.4,44.3z
			"/>
		<path class="st15" d="M52,51.7c-0.2-0.3,0-0.6-0.3-0.8c-0.3-0.3-0.3-0.9,0.1-1.2c0,0,0,0,0,0c-0.3-0.1-0.6,0.2-0.7,0.4
			c-0.2,0.5,0,1.4,0.5,1.7c0.2,0.1,0.4,0.1,0.6,0C52.2,51.8,52.1,51.7,52,51.7z"/>
		<path class="st15" d="M55.7,53.7c-0.6-0.2-1.1-1.1-1-1.7c0,0,0-0.1,0-0.1c-0.1,0.1-0.1,0.2-0.2,0.3c-0.1,0.5,0,1.2,0.4,1.5
			c0,0.1,0.1,0.1,0.1,0.2c0.3,0.4,0.8,0.2,0.9-0.2C55.9,53.7,55.9,53.7,55.7,53.7z"/>
		<path class="st15" d="M52.4,59.5c-0.1-0.3,0-0.4,0.2-0.5c0.1,0,0-0.2,0-0.3c0-0.1,0.1-0.2,0.1-0.3c0,0,0.1-0.1,0.1-0.1
			c0,0-0.1,0-0.1,0c-0.2,0.1-0.3,0.2-0.4,0.3c-0.2,0.3-0.3,0.7-0.2,0.9c0,0,0,0.1,0.1,0.1c0,0,0,0,0,0c0,0,0,0,0,0c0,0,0,0,0,0
			c0.1,0.1,0.1,0.1,0.2,0.1c0.1,0,0.1,0,0.2,0c0,0,0,0,0,0C52.5,59.8,52.4,59.7,52.4,59.5z"/>
		<path class="st15" d="M50.2,65c0.1-0.1,0.2-0.2,0.3-0.2c0.1,0,0.2,0,0.3-0.1c0-0.2,0.1-0.4,0.3-0.4c0,0,0.1,0,0.1,0
			c-0.1-0.1-0.1-0.1-0.2-0.1c-0.2-0.1-0.5,0-0.6,0.2c-0.1,0.1-0.3,0.3-0.4,0.4c-0.2,0.3-0.3,0.6,0,0.8c0.1,0.1,0.2,0.1,0.3,0.1
			C50.1,65.5,50,65.2,50.2,65z"/>
	</g>
	<path class="st12" d="M32.3,39.7c-0.2-0.2-0.6,0.1-0.7,0.2c-0.3,0.3-0.7,0.8-0.6,1.3c0,0.1,0.2,0.1,0.2,0c0.2-0.3,0.2-0.6,0.5-0.9
		c0.2-0.2,0.4-0.4,0.6-0.5C32.3,39.7,32.3,39.7,32.3,39.7z"/>
	<path class="st12" d="M27.1,47.2c0-0.2,0.1-0.4,0.1-0.7c0-0.1,0-0.1-0.1-0.1c-0.3,0.4-0.5,1.1-0.1,1.5c0.1,0.1,0.2,0,0.2-0.1
		C27.2,47.6,27.1,47.4,27.1,47.2z"/>
	<path class="st12" d="M23.3,50.7c-0.2-0.5-0.8,0.2-0.9,0.5c-0.2,0.4-0.4,1.4,0.3,1.5c0.1,0,0.2-0.1,0.1-0.2
		c-0.1-0.2-0.2-0.3-0.2-0.5c0-0.2,0-0.4,0.1-0.6C22.7,51.2,22.9,50.8,23.3,50.7C23.3,50.8,23.3,50.8,23.3,50.7z"/>
	<path class="st12" d="M26,55.7c-0.2-0.2-0.4-0.2-0.5-0.5c0-0.3,0-0.6,0.3-0.7c0.1,0,0.1-0.2,0-0.2c-0.8,0-0.8,1.6,0.1,1.5
		C26,55.8,26,55.7,26,55.7z"/>
	<path class="st12" d="M28.5,61.6c-0.1-0.1-0.2-0.2-0.3-0.3C28.1,61.2,28,61,28,60.8c0-0.1-0.1-0.1-0.1,0c-0.1,0.2-0.1,0.4,0.1,0.6
		c0.1,0.2,0.3,0.4,0.5,0.3C28.5,61.7,28.5,61.6,28.5,61.6z"/>
	<path class="st12" d="M25.5,63.4c-0.3-0.1-0.6-0.1-0.7-0.4c-0.2-0.3-0.2-0.7-0.2-1c0-0.1-0.1-0.1-0.1,0c-0.2,0.4-0.2,0.8,0,1.2
		c0.2,0.4,0.5,0.6,1,0.5C25.6,63.7,25.6,63.5,25.5,63.4z"/>
	<path class="st12" d="M33.3,58.8c-0.1,0-0.1,0.1,0,0.1c0.5,0,0.7,0.4,0.9,0.8c0.2,0.5,0,0.9-0.1,1.3c-0.1,0.2,0.2,0.2,0.2,0.1
		C35,60.5,34.6,58.4,33.3,58.8z"/>
	<path class="st12" d="M33.3,64.9c-0.1-0.2-0.3-0.3-0.6-0.2c-0.1,0-0.1,0.1,0,0.1c0.2,0,0.3,0.1,0.3,0.3c0,0.1,0,0.3,0.2,0.4
		c0,0,0.1,0,0.1,0C33.5,65.3,33.4,65,33.3,64.9z"/>
	<path class="st12" d="M39.6,64.8c-0.2-0.4-0.6-0.7-1-0.4c-0.1,0,0,0.1,0,0.1c0.4-0.1,0.6,0.2,0.7,0.5c0.1,0.4,0,0.6-0.2,0.9
		c-0.1,0.1,0.1,0.2,0.2,0.2C39.8,65.8,39.8,65.3,39.6,64.8z"/>
	<path class="st12" d="M43.4,68.2c-0.2,0-0.9,0.2-0.7,0.5c0,0,0.1,0.1,0.1,0c0.2-0.2,0.4-0.3,0.7-0.3c0.3,0,0.4,0.3,0.6,0.4
		c0.1,0,0.2,0,0.2-0.1C44.2,68.4,43.7,68.2,43.4,68.2z"/>
	<path class="st12" d="M46.2,61.5c0,0-0.1,0.1,0,0.1c0.5,0.1,0.5,0.8,0.5,1.2c0,0.1,0.2,0.2,0.2,0C47.2,62.4,46.9,61.3,46.2,61.5z"
		/>
	<path class="st12" d="M51.2,64.5c0-0.1-0.1,0-0.1,0c0,0.2-0.1,0.4-0.3,0.5c-0.1,0.1-0.3,0.2-0.4,0.3c0,0.1,0,0.2,0.1,0.2
		c0.2,0,0.4-0.2,0.6-0.4C51.1,65,51.2,64.7,51.2,64.5z"/>
	<path class="st12" d="M53,58.6C52.9,58.6,52.8,58.6,53,58.6c-0.1,0.2-0.1,0.4-0.1,0.6c-0.1,0.1-0.2,0.2-0.2,0.4
		c0,0.1,0,0.1,0.1,0.1c0.2-0.1,0.3-0.3,0.4-0.5C53.1,59,53.1,58.8,53,58.6z"/>
	<path class="st12" d="M48.9,54.3c-0.1,0-0.1,0.1-0.1,0.1c0.5,0.5,0.3,1.1,0.3,1.7c0,0.1,0.2,0.1,0.2,0
		C49.6,55.6,49.5,54.6,48.9,54.3z"/>
	<path class="st12" d="M42.8,56.7c-0.1-0.1-0.1,0-0.1,0.1c0.2,0.3,0.3,0.7,0.3,1c0,0.3-0.1,0.6-0.1,0.9c0,0.1,0.1,0.1,0.2,0.1
		C43.6,58.2,43.3,57.1,42.8,56.7z"/>
	<path class="st12" d="M55,51.9C55,51.9,55,52,55,52c0.5,0.2,0.5,0.8,0.6,1.3c0,0.2,0.3,0.1,0.3,0C55.9,52.7,55.7,51.8,55,51.9z"/>
	<path class="st12" d="M51.8,49.7C51.8,49.7,51.7,49.8,51.8,49.7c0.4,0.4,0.4,1.1,0.4,1.6c0,0.1,0.2,0.2,0.2,0.1
		C52.7,50.9,52.4,49.8,51.8,49.7z"/>
	<path class="st12" d="M47.4,47.9c-0.1-0.3-0.4-0.5-0.7-0.5c0,0-0.1,0.1,0,0.1c0.3,0.1,0.4,0.4,0.5,0.7c0.1,0.2,0,0.5,0.1,0.7
		c0,0.1,0.2,0.1,0.2,0C47.7,48.6,47.5,48.2,47.4,47.9z"/>
	<path class="st12" d="M52.3,43.1c-0.2-0.3-0.5-0.4-0.9-0.3c-0.1,0-0.1,0.1,0,0.1c0.3,0,0.5,0.3,0.7,0.5c0.1,0.2,0.2,0.5,0.3,0.7
		c0.1,0.1,0.2,0,0.3-0.1C52.7,43.8,52.5,43.4,52.3,43.1z"/>
	<path class="st12" d="M44.8,41.6c-0.1,0-0.1,0.1-0.1,0.1c0.1,0.1,0.1,0.2,0.1,0.4c0,0.1,0,0.2,0,0.4c0,0.1,0.1,0.1,0.2,0.1
		C45.2,42.2,45.1,41.8,44.8,41.6z"/>
	<path class="st12" d="M42.5,38.2c-0.1,0-0.1,0.2,0,0.2c0.2,0,0.3,0.1,0.5,0.2c0.1,0.1,0.2,0.3,0.3,0.4c0.1,0.1,0.2,0,0.2-0.1
		C43.5,38.5,42.9,38.1,42.5,38.2z"/>
	<path class="st12" d="M35.9,41.4c-0.2-0.1-0.4,0-0.5,0.2c0,0,0,0.1,0.1,0.1c0.1-0.1,0.3-0.1,0.4,0c0.1,0.1,0.2,0.2,0.3,0.2
		c0.1,0,0.1-0.1,0.1-0.1C36.2,41.7,36.1,41.5,35.9,41.4z"/>
	<path class="st12" d="M33.1,48.6c-0.6-0.5-1.4,0.2-1.7,0.7C31,50,30.9,51,31.3,51.7c0.1,0.2,0.4,0,0.3-0.2c-0.2-0.6-0.2-1.1,0-1.7
		c0.2-0.6,0.8-1.2,1.4-1.1C33.2,48.9,33.2,48.7,33.1,48.6z"/>
	<path class="st12" d="M42.4,48.2c-0.1-0.5-0.4-0.8-0.7-1.1c-0.1-0.1-0.2,0.1-0.2,0.1c0.2,0.3,0.4,0.5,0.5,0.8c0.1,0.4,0,0.8,0,1.2
		c0,0.1,0.2,0.2,0.3,0.1C42.5,49,42.5,48.6,42.4,48.2z"/>
</g>
<g>
	<g>
		<path class="st5" d="M117,45.9c-1.1-2.8-2.8-5.3-5.1-7.3c-1.5-1.3-3.4-2.6-5.3-3.5c-4.8-2.1-9.6-2.3-14.6-1.3
			c-4,0.8-7.4,2.8-10.5,5.4c-2,1.7-3.7,3.7-4.8,6c-2.6,5.5-1.6,11.8,1.4,17c0.8,1.4,1.8,2.7,2.9,3.9c2.4,2.6,5.1,4.5,8.5,5.5
			c3.2,0.9,6.5,1,9.8,0.8c3-0.2,5.9-0.9,8.5-2.3c3.8-2,7.3-5.8,8.9-9.7C118.7,55.7,118.7,50.5,117,45.9z"/>
		<path class="st6" d="M96.5,72.7C96.5,72.7,96.5,72.7,96.5,72.7c-2.7,0-5-0.3-7-0.9c-3.3-1-6.1-2.8-8.6-5.5c-1.1-1.2-2.1-2.6-2.9-4
			c-3.3-5.6-3.8-12-1.4-17.1c1.1-2.3,2.7-4.3,4.8-6.1c3.6-3,7-4.7,10.5-5.4c2-0.4,3.8-0.6,5.6-0.6c3.3,0,6.2,0.6,9.1,1.9
			c1.7,0.8,3.6,2,5.3,3.5c2.3,2,4.1,4.5,5.2,7.3c1.8,4.7,1.7,10-0.2,14.6c-1.7,4-5.2,7.8-9,9.8c-2.6,1.3-5.4,2.1-8.5,2.3
			C98.3,72.7,97.4,72.7,96.5,72.7z M97.5,33.4c-1.8,0-3.6,0.2-5.5,0.6c-3.5,0.7-6.8,2.4-10.4,5.4c-2.1,1.7-3.7,3.8-4.7,6
			c-2.4,5-1.8,11.3,1.4,16.8c0.8,1.3,1.8,2.7,2.9,3.9c2.5,2.7,5.3,4.5,8.5,5.5c2.1,0.6,4.3,0.9,7,0.9c0,0,0,0,0,0
			c0.9,0,1.8,0,2.8-0.1c3.1-0.2,5.9-1,8.4-2.3c3.7-1.9,7.2-5.7,8.8-9.7c1.9-4.6,2-9.8,0.2-14.4c-1.1-2.8-2.8-5.3-5.1-7.2
			c-1.7-1.5-3.6-2.7-5.3-3.4C103.6,34,100.7,33.4,97.5,33.4z"/>
	</g>
	<path class="st7" d="M115.9,46.1c-1-2.6-2.6-4.9-4.8-6.8c-1.4-1.2-4.2-2.4-6.1-2.7c-5.2-0.8-7.8-2.7-12.5-1.8
		c-3.8,0.7-6.9,2.6-9.8,5c-1.9,1.6-3.4,3.5-4.4,5.7c-0.7,1.5-0.8,3.2-0.7,4.8c0,0.7,0.1,1.5,0.4,2.3c0.2,0.7,0.8,1.3,0.9,2
		c0.1,1-0.4,2-0.4,3c0.3,3.6,2.1,6.8,4.5,9.4c2.2,2.4,5.6,1.9,8.7,2.8c3,0.9,4.6,1.4,7.7,1.1c2.8-0.2,5.5-0.9,7.9-2.2
		c3.6-1.9,6.8-5.5,8.3-9.1C117.5,55.3,117.5,50.4,115.9,46.1z"/>
	<path class="st8" d="M111.8,41.8c-2.1-2.4-4.9-3.7-8-4.3c0,0-0.1,0-0.1,0c-0.1,0-0.2,0-0.2-0.1c-0.7-0.2-1.3-0.5-2-0.6
		c-0.6-0.1-1.3-0.1-1.9-0.2c-0.6-0.1-1.2-0.4-1.9-0.6c-1.6-0.4-3.5-0.4-5,0.5c-0.5,0.3-0.8,0.4-1.2,0.4c0,0-0.1,0-0.1,0
		c-4.1,0-7.8,2.4-10.1,5.7c-1.1,1.6-2,3.4-2.5,5.3c-0.3,1.3-0.6,2.8,0,4.1c0.4,0.8,0.8,1.3,1.5,1.8c0.1,0.1,0.5,0.2,0.4,0.2
		c-1.7,1-1.1,3.6-0.7,5.1c0.4,2,1,4,2.3,5.7c1.5,2.1,3.9,3.5,6.5,3.4c1,0,1.8-0.3,2.8-0.3c0.5,0,0.9,0,1.2,0.3
		c0.5,0.1,1,0.4,1.5,0.6c1.6,0.5,3.1,0.7,4.8,0.6c1.6-0.1,3.2-0.4,4.7-1.1c1.2-0.6,2.4-1,3.6-1.6c4.5-2.3,7.8-9.1,8.1-14
		c0,0,0,0,0-0.1c-0.1-0.2-0.2-0.6-0.1-0.9c0.1-0.2,0.3-0.4,0.4-0.6c0.1-0.2,0.1-0.3,0.1-0.5c0-1.6-0.7-3.2-1.5-4.6
		C113.7,44.7,112.9,43.1,111.8,41.8z"/>
	<path class="st13" d="M115.8,51.3c0.1-0.2,0.1-0.3,0.1-0.5c0-0.1,0-0.2,0-0.4c-0.7,0.9-2.1,1.2-2.6-0.2c-0.5-1.3-0.7-2.7-1.2-4
		c-0.5-1.3-1.1-2.5-1.8-3.7c-1-1.6-2.2-2.9-3.6-4.1c-0.9-0.4-1.9-0.6-2.9-0.8c0,0-0.1,0-0.1,0c-0.1,0-0.2,0-0.2-0.1
		c-0.5-0.2-1-0.4-1.5-0.5c0.3,0.1,0.7,0.3,1,0.5c1.1,0.9,2,2.1,2.9,3.2c0.9,1.1,1.8,2.3,2.5,3.6c0.9,1.8,1.5,4.1,0.7,6.1
		c-0.6,1.5-1.9,2.5-3.4,2.9c-2,0.5-4.1,0.7-6.1,0.7c-2.1,0-4.3-0.3-6-1.6c-2.6-1.9-2.2-5.6-1.2-8.2c1.5-3.7,4.3-6.3,8.2-7.3
		c0.1,0,0.2,0,0.2,0.1c0.3-0.1,0.5-0.1,0.8-0.1c-0.6-0.1-1.3-0.1-1.9-0.2c-0.6-0.1-1.2-0.4-1.9-0.6c-1.6-0.4-3.5-0.4-5,0.5
		c-0.5,0.3-0.8,0.4-1.2,0.4c0,0-0.1,0-0.1,0c-0.3,0-0.6,0-0.9,0.1c0.6,0.3,1,0.9,1.2,1.7c0.3,1.9-1.2,3.8-2,5.4
		c-0.9,1.9-1.8,4-3,5.8c-0.9,1.3-2.2,2.3-3.8,2.6c-2.1,0.3-3.6-0.9-4.3-2.6c-0.1,0.8,0,1.5,0.4,2.3c0.4,0.8,0.8,1.3,1.5,1.8
		c0.1,0.1,0.5,0.2,0.4,0.2c-0.5,0.3-0.8,0.8-1,1.3c0.6,0.6,1.6,1,2.5,1c1.1-0.1,2.4-0.3,3.3,0.5c1.9,1.7,2.1,4.7,2.3,7
		c0.1,0.9,0,2-0.8,2.6c-0.7,0.5-1.7,0.6-2.6,0.5c1.3,0.9,2.8,1.4,4.4,1.4c1,0,1.8-0.3,2.8-0.3c0.5,0,0.9,0,1.2,0.3
		c0.5,0.1,1,0.4,1.5,0.6c1.6,0.5,3.1,0.7,4.8,0.6c1.6-0.1,3.2-0.4,4.7-1.1c1.2-0.6,2.4-1,3.6-1.6c0.7-0.3,1.3-0.8,1.9-1.3
		c0.2-0.3,0.5-0.7,0.7-1.1c0.9-1.8,1.5-3.8,2-5.8c0.3-1.3,0.7-3.2,1.7-4.2c0.5-0.5,1.2-0.7,1.8-1c0-0.2,0-0.5,0.1-0.7c0,0,0,0,0-0.1
		c-0.1-0.2-0.2-0.6-0.1-0.9C115.6,51.7,115.7,51.5,115.8,51.3z M106.9,62.9c-2.3,3.7-8.2,5.9-12.1,3.6c-1.4-0.8-2.9-2.2-3.5-3.7
		c-0.7-1.7-1.7-4.2-0.6-6c0.8-1.3,3-0.1,4.1,0.1c2,0.4,4.1,0.6,6.2,0.5c1.4-0.1,2.9-0.4,4.3-0.7c1-0.2,2.5-0.5,3.3,0.4
		c1,1-0.4,3.4-0.9,4.4C107.5,62,107.2,62.5,106.9,62.9z"/>
	<path class="st9" d="M116,49.2c-0.2-1.1-0.7-2.1-1.2-3.1c-0.7-1.1-1.4-2.2-2-3.3c-0.6-1-1.4-1.8-2.3-2.5c-1-0.7-2-1.3-3.2-1.7
		c-1-0.6-2.2-0.8-3.2-1.3c-1.3-0.7-2.7-0.6-4.1-0.8c-0.7-0.1-1.4-0.5-2-0.7c-0.6-0.2-1.2-0.4-1.8-0.4c-0.7,0-1.4,0.2-2,0.4
		c-0.6,0.2-1.1,0.6-1.7,0.9c-0.1,0-0.2-0.1-0.4-0.1c-1.9-0.3-3.9,0.8-5.6,1.7c-1.6,0.8-3.1,1.8-4.3,3.1c-1.4,1.4-2.3,3-2.9,4.8
		c-0.9,2.6-1.5,6.5,1.2,8.1c-1.2,1.2-1.1,3.1-0.9,4.6c0.4,2.4,1.5,4.6,2.9,6.6c0.6,0.8,1.4,1.6,2.3,2.2c1.1,0.7,2.2,0.8,3.5,0.9
		c1.4,0,3-0.3,4.3,0.1c1.2,0.4,2.2,0.9,3.4,1.1c0,0,0,0,0,0c0,0,0.1,0,0.1,0c1,0.2,2.1,0.1,3.1,0c1.4-0.2,2.9-0.4,4.1-1.1
		c2.1-0.5,4-1.4,5.7-2.7c1.8-1.3,3.1-3,4-4.9c1-2.1,1.9-4.3,2.4-6.5c0.1-0.5,0.3-1.8-0.2-2.1c0.2-0.2,0.3-0.3,0.4-0.5
		C116.3,51.1,116.2,50,116,49.2z M99.7,36.8c2.7-0.1,6.6,2.5,7.7,3.7c2.4,2.5,3.6,5.6,4.2,9c0.2,1.2,0.1,3.1-1.3,4.4
		c-1.6,1.4-3.9,1.9-6,2.1c-2.4,0.3-4.8,0.4-7.2,0.3c-1.8-0.1-3.6-0.4-5.3-1.2c-0.7-0.3-3.2-0.7-3.6-3.4c-0.4-3.1,2.3-8.3,2.4-8.4
		c0.9-1.8,2.2-3.5,3.7-4.8c0.8-0.6,1.6-1.1,2.5-1.5c0.5-0.2,1.1-0.3,1.7-0.3C98.9,36.7,99.7,36.8,99.7,36.8z M93.6,36.4
		c0.7-0.3,1.4-0.5,2.2-0.6c0.8-0.1,1.5,0.1,2.3,0.4c0.3,0.1,0.6,0.2,0.9,0.4c-0.2,0-0.4-0.1-0.6-0.1c-0.5,0-1,0.1-1.5,0.3
		c-1,0.3-1.8,0.8-2.6,1.5c0.1-0.7-0.7-1.3-1.5-1.5C93,36.6,93.3,36.5,93.6,36.4z M79.7,52.9c-1.1-1.4-0.9-3.3-0.5-4.8
		c0.8-3.4,2.5-6.1,5.4-8.1c1.3-0.9,2.8-1.7,4.2-2.3c0.9-0.4,1.8-0.6,2.7-0.7c1-0.1,2.8,0.4,2.3,1.6c-1.5,1.3-2.7,3-3.6,4.8
		c-3.1,5.9-2.6,8.7-2.6,8.7c0.4,2.4-3,2.5-4.6,2.3C81.8,54.3,80.5,54,79.7,52.9z M90,68c-1.3,0-2.6,0.1-3.8-0.3
		c-1.1-0.3-1.9-1.1-2.7-1.9c-1.6-1.7-2.7-4-3.3-6.2c-0.5-1.8-0.6-3.8,0.5-5.3c0.1,0.1,0.3,0.1,0.4,0.2c1.9,0.7,5.1,0.9,6.6-0.7
		c0.2-0.2,0.3-0.5,0.4-0.8c0.1,0.2,0.3,0.5,0.5,0.7c-1.3,1.7-0.7,4.3-0.1,6.3c0.2,1,0.4,2,0.8,3c0.7,1.9,1.6,3.8,3.1,5.1
		C91.6,68,90.8,68,90,68z M103.9,67.9c-0.3,0.2-0.7,0.3-1,0.5c-2.2,0.9-4.5,1.4-6.9,1c-1-0.2-2.2-0.6-3-1.2
		c-1.5-1.1-2.2-2.8-2.9-4.5c-0.8-2.1-1.4-4.4-1.6-6.6c-0.1-1-0.2-2,0.2-2.9c0-0.1,0-0.1,0.1-0.1c0.4,0.3,0.7,0.5,1.1,0.7
		c3.8,2.5,8.9,2.3,13.3,1.8c1.4-0.1,2.9-0.4,4.3-0.8c1.2-0.4,2.5-1,3.3-2c0.1-0.1,0.3,0,0.4,0.1C112.5,55,109.3,65.3,103.9,67.9z
		 M114.7,56.2c-0.6,1.8-1.4,3.7-2.3,5.4c-1,1.7-2.3,3.1-3.9,4.2c-0.8,0.6-1.8,1.1-2.7,1.5c-0.3,0.1-0.5,0.2-0.8,0.3
		c0.6-0.4,1.1-0.8,1.6-1.2c1.3-1.1,2.4-2.4,3.1-4c0.8-1.7,1.6-3.4,2-5.2c0.2-0.8,0.3-1.6,0.3-2.4c0-0.3-0.1-0.6-0.3-0.9
		c0,0-0.1-0.1-0.1-0.1c0.6,0,1.1-0.3,1.7-0.5c0.6-0.2,1.2-0.5,1.7-0.9C115.9,53.1,114.9,55.7,114.7,56.2z M113.9,52.8
		c-0.8,0.4-1.7,0.8-2.5,0.7c0,0,0.1-0.3,0.1-0.3c0.4-0.5,0.6-1.2,0.7-1.8c0.2-1.9-0.6-5.3-2.3-8.2c-0.5-0.8-1.1-1.6-1.7-2.3
		c-1-1.2-2.3-2.1-3.7-3c0,0,0,0,0,0c0.1,0,0.2,0.1,0.4,0.1c1.6,0.5,3.2,1.2,4.7,2.2c0.8,0.5,1.5,1.2,2.1,1.9
		c0.7,0.8,1.1,1.8,1.7,2.7c1.1,1.8,2.3,3.5,2.3,5.7C115.7,51.7,115,52.3,113.9,52.8z"/>
	<g>
		<path class="st5" d="M100.2,46.8c-0.2-0.9-1.2-2.4-2.3-1.6c-0.1,0.1-0.2,0.2-0.3,0.3c-0.6,0.6-0.6,1.7-0.6,2.4
			c0,1.1,0.8,2.2,2,1.8C100.2,49.2,100.4,47.9,100.2,46.8z"/>
		<path class="st5" d="M102.4,60c-0.3-0.3-0.6-0.6-1-0.7c-0.5-0.1-1,0.3-1.3,0.8c-0.3,0.7-0.2,1.6,0.2,2.3c0.1,0.2,0.1,0.3,0.2,0.5
			c0.5,1.1,2.2,0.9,2.5-0.1C103.3,61.8,102.9,60.7,102.4,60z"/>
		<path class="st5" d="M86.1,61.4c-0.2-0.8-0.6-1.8-1.2-2.3c-0.3-0.3-0.8-0.3-1.1-0.1c0,0,0,0-0.1,0c-0.1,0.1-0.2,0.1-0.3,0.2
			c-0.3,0.3-0.4,0.7-0.4,1.1c0,0,0,0.1,0,0.1c0,0.3,0,0.5,0,0.7c0,0.9,0.4,2.1,1.3,2.4c0,0,0.1,0,0.1,0.1c0.7,0.2,1.5-0.2,1.7-1
			C86.3,62.3,86.2,61.8,86.1,61.4z"/>
		<path class="st5" d="M85.3,44.3c-0.9,0-1.5,0.9-1.9,1.6c-0.4,0.7-0.6,1.7,0,2.4c0.9,1.2,2.7,0.1,2.9-1.2c0.2-0.2,0.3-0.5,0.3-0.7
			C86.7,45.5,86.3,44.3,85.3,44.3z"/>
		<path class="st5" d="M114.8,46.5c-0.1-0.5-0.6-1-0.9-1.4c-0.3-0.4-0.7-0.9-1.2-0.4c-0.2,0.2-0.2,0.4-0.2,0.7
			c0,0.2,0.1,0.4,0.1,0.6c0.2,0.7,0.6,1.4,1.2,1.6c0.6,0.2,1-0.3,0.9-0.8C114.8,46.6,114.8,46.5,114.8,46.5z"/>
		<path class="st5" d="M114.6,56.8c-0.3-0.5-0.7-0.5-1.1-0.2c-0.7,0.5-0.9,1.9-1.1,2.7c-0.1,0.4-0.2,1.2,0.2,1.4
			c0.6,0.3,1.2-1.1,1.4-1.4c0.2-0.4,0.3-0.8,0.5-1.2C114.6,57.7,114.8,57.2,114.6,56.8z"/>
	</g>
	<g class="st14">
		<path class="st15" d="M100.2,46.8C100.2,46.8,100.2,46.8,100.2,46.8C100.2,46.8,100.2,46.8,100.2,46.8c-0.1,0.9-1.1,2.6-2.2,1.7
			c-0.6-0.5-0.7-1.8-0.5-2.8c-0.4,0.6-0.5,1.5-0.5,2.2c0,1.1,0.8,2.2,2,1.8C100.2,49.2,100.4,47.9,100.2,46.8z"/>
		<path class="st15" d="M103,61.1c0.1,0.5,0,1-0.6,1.3c-0.4,0.2-0.9,0.3-1.2,0c-0.1-0.1-0.3-0.3-0.3-0.5c0-0.3,0-0.6-0.3-0.8
			c-0.1-0.1-0.2-0.1-0.3-0.2c-0.2-0.2-0.3-0.5-0.3-0.7c-0.3,0.7-0.2,1.6,0.2,2.2c0.1,0.2,0.1,0.3,0.2,0.5c0.5,1.1,2.2,0.9,2.5-0.1
			C103.2,62.2,103.2,61.6,103,61.1z"/>
		<path class="st15" d="M86.1,61.4c-0.2-0.8-0.6-1.8-1.2-2.3c-0.3-0.3-0.8-0.3-1.1-0.1c0,0,0,0-0.1,0c-0.1,0.1-0.2,0.1-0.3,0.2
			c0,0,0,0,0,0.1c0.6-0.1,1.2,0,1.4,0.7c0.1,0.3,0.1,0.5,0.1,0.8c0,0.4,0.2,0.5,0.4,0.8c0.3,0.4,0.4,0.8,0.1,1.2
			c-0.4,0.7-1.5,0.5-2-0.1c0.2,0.4,0.5,0.7,0.9,0.8c0,0,0.1,0,0.1,0.1c0.7,0.2,1.5-0.2,1.7-1C86.3,62.3,86.2,61.8,86.1,61.4z"/>
		<path class="st15" d="M85.6,44.4c0.1,0.1,0.1,0.2,0.2,0.3c0.2,0.3,0.2,0.7-0.1,1c-0.1,0.2-0.3,0.3-0.5,0.4c-0.3,0.2-0.1,0.7-0.1,1
			c-0.2,0.8-1.5,1.5-2.1,0.6c0,0.2,0.1,0.4,0.3,0.6c0.9,1.2,2.7,0.1,2.9-1.2c0.2-0.2,0.3-0.5,0.3-0.7C86.7,45.6,86.4,44.6,85.6,44.4
			z"/>
		<path class="st15" d="M114.9,46.6c0-0.1,0-0.1,0-0.2c0-0.1-0.1-0.2-0.1-0.3c0,0,0,0.1,0,0.1c-0.1,0.5-0.7,0.8-1.1,0.5
			c-0.3-0.2-0.4-0.7-0.5-1c-0.1-0.3-0.2-0.6-0.2-0.9c0-0.2,0.1-0.4,0.2-0.5c-0.1,0-0.2,0.1-0.3,0.2c-0.2,0.2-0.2,0.4-0.2,0.7
			c0,0.2,0.1,0.4,0.1,0.6c0.2,0.7,0.6,1.4,1.2,1.6C114.5,47.7,114.9,47.1,114.9,46.6z"/>
		<path class="st15" d="M112.9,59.9c-0.3-0.4-0.1-0.9,0.1-1.4c0.2-0.5,0.2-1,0.5-1.5c0.2-0.4,0.7-0.5,1.1-0.3
			c-0.3-0.4-0.7-0.4-1.1-0.2c-0.7,0.5-0.9,1.9-1.1,2.7c-0.1,0.4-0.2,1.2,0.2,1.4c0.3,0.2,0.7-0.2,0.9-0.6
			C113.3,60.3,113.1,60.2,112.9,59.9z"/>
	</g>
	<path class="st12" d="M84.7,44.7c-0.6,0.2-1,0.8-1.3,1.4c-0.2,0.5-0.3,1.2,0.1,1.6c0.1,0.1,0.2,0,0.1-0.1c-0.2-0.5,0-1,0.1-1.5
		c0.2-0.5,0.6-0.8,1-1.2C85,44.8,84.9,44.7,84.7,44.7z"/>
	<path class="st12" d="M83.8,59.5c-0.6,0.2-0.7,1.3-0.4,1.8c0.1,0.1,0.2,0,0.2-0.1c0-0.3-0.1-0.5-0.1-0.8
		C83.6,60.1,83.7,59.8,83.8,59.5C83.9,59.5,83.9,59.5,83.8,59.5z"/>
	<path class="st12" d="M84.7,62.6c-0.3,0.1-0.5,0.2-0.7,0c-0.3-0.2-0.4-0.6-0.6-0.9c0-0.1-0.1,0-0.1,0c0,0.5,0.2,0.9,0.5,1.2
		c0.3,0.3,0.7,0.2,1,0C84.9,62.7,84.9,62.5,84.7,62.6z"/>
	<path class="st12" d="M100.3,60.1C100.3,60.1,100.4,60.2,100.3,60.1c0.6-0.2,1-0.2,1.4,0.2c0.4,0.4,0.4,0.8,0.5,1.3
		c0,0.1,0.2,0.2,0.3,0C102.9,60.5,101.3,58.8,100.3,60.1z"/>
	<path class="st12" d="M99.1,45.5c-0.2-0.2-0.5-0.2-0.8-0.2c-0.4,0.1-0.5,0.3-0.7,0.6c-0.1,0.1,0.1,0.1,0.1,0.1
		c0.2-0.2,0.3-0.3,0.6-0.4c0.3-0.1,0.6,0.2,0.7,0.4c0.3,0.3,0.2,0.8,0.3,1.1c0,0.1,0.2,0.1,0.3,0C99.9,46.5,99.6,45.9,99.1,45.5z"/>
	<path class="st12" d="M114,56.8C114,56.8,114,56.9,114,56.8c0.3,0.3,0.1,1,0,1.3c-0.1,0.4-0.4,0.8-0.6,1.3c0,0.1,0.1,0.2,0.2,0.1
		c0.5-0.5,0.7-1.2,0.9-1.9C114.5,57.3,114.5,56.8,114,56.8z"/>
	<path class="st12" d="M113.9,45.4c-0.2-0.1-0.2-0.4-0.3-0.6c-0.1-0.2-0.3-0.2-0.4-0.2c0,0-0.1,0.1,0,0.1c0.3,0.2,0.2,0.6,0.5,0.9
		c0.1,0.1,0.3,0.2,0.4,0.3c0.2,0.1,0.2,0.4,0.3,0.6c0,0.1,0.1,0,0.1,0C114.5,45.9,114.2,45.7,113.9,45.4z"/>
</g>
</svg>
