<?xml version="1.0" encoding="utf-8"?>
<!-- Generator: Adobe Illustrator 25.1.0, SVG Export Plug-In . SVG Version: 6.00 Build 0)  -->
<svg version="1.1" id="Layer_1" xmlns="http://www.w3.org/2000/svg" xmlns:xlink="http://www.w3.org/1999/xlink" x="0px" y="0px"
	 viewBox="0 0 141 84" style="enable-background:new 0 0 141 84;" xml:space="preserve">
<style type="text/css">
	.st0{fill:#99D3CB;}
	.st1{fill:#FFF9EF;}
	.st2{fill:#6FCACD;}
	.st3{fill:#DAECCD;}
	.st4{fill:#871C1C;}
	.st5{fill:#FFFFFF;}
	.st6{fill:none;}
	.st7{fill:#87B3E0;}
	.st8{fill:#004E9D;}
</style>
<g>
	<path class="st0" d="M85.1-20.1c0-2.3-1.7-4.1-3.8-4.1h-0.8c-2.1,0-3.8,1.8-3.8,4.1v6.5h8.4L85.1-20.1L85.1-20.1z"/>
	<path class="st1" d="M80.5-2.9h0.8c2.1,0,3.8-1.8,3.8-4.1v-6.5h-8.4V-7C76.7-4.8,78.4-2.9,80.5-2.9z"/>
	<path class="st2" d="M83.6-13.6h1.5v-6.5c0-2.3-1.7-4.1-3.8-4.1h-0.8c-1.3,0-2.5,0.7-3.2,1.8c0.4-0.2,0.8-0.3,1.3-0.3
		C81.4-22.7,83.6-18.7,83.6-13.6z"/>
	<path class="st3" d="M83.6-13.6c0,5.1-2.3,9.1-5.1,9.1c-0.4,0-0.9-0.1-1.3-0.3C77.9-3.7,79.1-3,80.4-3h0.9c2.1,0,3.8-1.8,3.8-4.1
		v-6.5L83.6-13.6L83.6-13.6z"/>
	<path class="st4" d="M80.8-24.9h0.8c2.4,0,4.4,2.1,4.4,4.7V-7c0,2.6-2,4.7-4.4,4.7h-0.8c-2.4,0-4.4-2.1-4.4-4.7v-13.2
		C76.4-22.7,78.4-24.9,80.8-24.9z M81.6-3.5c1.8,0,3.2-1.6,3.2-3.5v-13.1c0-1.9-1.4-3.5-3.2-3.5h-0.8c-1.8,0-3.2,1.6-3.2,3.5v13.2
		c0,1.9,1.4,3.5,3.2,3.5h0.8V-3.5z"/>
	<path class="st4" d="M77.3-14.2h8.1c0.3,0,0.6,0.3,0.6,0.6S85.7-13,85.4-13h-8.1c-0.3,0-0.6-0.3-0.6-0.6S77-14.2,77.3-14.2z"/>
</g>
<g>
	<path class="st0" d="M36.8-20.1c0-2.3-1.7-4.1-3.8-4.1h-0.8c-2.1,0-3.8,1.8-3.8,4.1v6.5h8.4L36.8-20.1L36.8-20.1z"/>
	<path class="st1" d="M32.2-2.9H33c2.1,0,3.8-1.8,3.8-4.1v-6.5h-8.4V-7C28.4-4.8,30.1-2.9,32.2-2.9z"/>
	<path class="st2" d="M35.3-13.6h1.5v-6.5c0-2.3-1.7-4.1-3.8-4.1h-0.8c-1.3,0-2.5,0.7-3.2,1.8c0.4-0.2,0.8-0.3,1.3-0.3
		C33.1-22.7,35.3-18.7,35.3-13.6z"/>
	<path class="st3" d="M35.3-13.6c0,5.1-2.3,9.1-5.1,9.1c-0.4,0-0.9-0.1-1.3-0.3C29.6-3.7,30.8-3,32.1-3H33c2.1,0,3.8-1.8,3.8-4.1
		v-6.5L35.3-13.6L35.3-13.6z"/>
	<path class="st4" d="M32.5-24.9h0.8c2.5,0,4.5,2.2,4.5,4.8v13.2c0,2.6-2,4.7-4.4,4.7h-0.8c-2.4,0-4.4-2.1-4.4-4.7v-13.2
		C28.1-22.7,30.1-24.9,32.5-24.9z M33.4-3.5c1.8,0,3.2-1.6,3.2-3.5v-13.1c0-1.9-1.4-3.5-3.2-3.5h-0.8c-1.8,0-3.2,1.6-3.2,3.5v13.2
		c0,1.9,1.4,3.5,3.2,3.5h0.8V-3.5z"/>
	<path class="st4" d="M29-14.2h8.1c0.3,0,0.6,0.3,0.6,0.6S37.4-13,37.1-13H29c-0.3,0-0.6-0.3-0.6-0.6S28.7-14.2,29-14.2z"/>
</g>
<g>
	<path class="st0" d="M133.3-20.1c0-2.3-1.7-4.1-3.8-4.1h-0.8c-2.1,0-3.8,1.8-3.8,4.1v6.5h8.4L133.3-20.1L133.3-20.1z"/>
	<path class="st1" d="M128.8-2.9h0.8c2.1,0,3.8-1.8,3.8-4.1v-6.5H125V-7C125-4.8,126.7-2.9,128.8-2.9z"/>
	<path class="st2" d="M131.9-13.6h1.5v-6.5c0-2.3-1.7-4.1-3.8-4.1h-0.8c-1.3,0-2.5,0.7-3.2,1.8c0.4-0.2,0.8-0.3,1.3-0.3
		C129.6-22.7,131.9-18.7,131.9-13.6z"/>
	<path class="st3" d="M131.9-13.6c0,5.1-2.3,9.1-5.1,9.1c-0.4,0-0.9-0.1-1.3-0.3c0.7,1.1,1.9,1.8,3.2,1.8h0.8c2.1,0,3.8-1.8,3.8-4.1
		v-6.5L131.9-13.6L131.9-13.6z"/>
	<path class="st4" d="M129.1-24.9h0.8c2.4,0,4.4,2.1,4.4,4.7V-7c0,2.6-2,4.7-4.4,4.7h-0.8c-2.4,0-4.4-2.1-4.4-4.7v-13.2
		C124.7-22.7,126.7-24.9,129.1-24.9z M129.9-3.5c1.8,0,3.2-1.6,3.2-3.5v-13.1c0-1.9-1.4-3.5-3.2-3.5h-0.8c-1.8,0-3.2,1.6-3.2,3.5
		v13.2c0,1.9,1.4,3.5,3.2,3.5h0.8V-3.5z"/>
	<path class="st4" d="M125.6-14.2h8.1c0.3,0,0.6,0.3,0.6,0.6S134-13,133.7-13h-8.1c-0.3,0-0.6-0.3-0.6-0.6S125.3-14.2,125.6-14.2z"
		/>
</g>
<g>
	<path class="st0" d="M60.9-20.1c0-2.3-1.7-4.1-3.8-4.1h-0.8c-2.1,0-3.8,1.8-3.8,4.1v6.5H61L60.9-20.1L60.9-20.1z"/>
	<path class="st1" d="M56.3-2.9h0.8c2.1,0,3.8-1.8,3.8-4.1v-6.5h-8.4V-7C52.5-4.8,54.2-2.9,56.3-2.9z"/>
	<path class="st2" d="M59.4-13.6h1.5v-6.5c0-2.3-1.7-4.1-3.8-4.1h-0.8c-1.3,0-2.5,0.7-3.2,1.8c0.4-0.2,0.8-0.3,1.3-0.3
		C57.3-22.7,59.4-18.7,59.4-13.6z"/>
	<path class="st3" d="M59.4-13.6c0,5.1-2.3,9.1-5.1,9.1c-0.4,0-0.9-0.1-1.3-0.3C53.7-3.7,54.9-3,56.2-3H57c2.1,0,3.8-1.8,3.8-4.1
		v-6.5L59.4-13.6L59.4-13.6z"/>
	<path class="st4" d="M56.7-24.9h0.8c2.4,0,4.4,2.1,4.4,4.7V-7c0,2.6-2,4.7-4.4,4.7h-0.8c-2.4,0-4.4-2.1-4.4-4.7v-13.2
		C52.3-22.7,54.2-24.9,56.7-24.9z M57.5-3.5c1.8,0,3.2-1.6,3.2-3.5v-13.1c0-1.9-1.4-3.5-3.2-3.5h-0.8c-1.8,0-3.2,1.6-3.2,3.5v13.2
		c0,1.9,1.4,3.5,3.2,3.5h0.8V-3.5z"/>
	<path class="st4" d="M53.2-14.2h8.1c0.3,0,0.6,0.3,0.6,0.6S61.6-13,61.3-13h-8.1c-0.3,0-0.6-0.3-0.6-0.6S52.8-14.2,53.2-14.2z"/>
</g>
<g>
	<path class="st0" d="M109.2-20.1c0-2.3-1.7-4.1-3.8-4.1h-0.8c-2.1,0-3.8,1.8-3.8,4.1v6.5h8.4L109.2-20.1L109.2-20.1z"/>
	<path class="st1" d="M104.6-2.9h0.8c2.1,0,3.8-1.8,3.8-4.1v-6.5h-8.4V-7C100.8-4.8,102.5-2.9,104.6-2.9z"/>
	<path class="st2" d="M107.7-13.6h1.5v-6.5c0-2.3-1.7-4.1-3.8-4.1h-0.8c-1.3,0-2.5,0.7-3.2,1.8c0.4-0.2,0.8-0.3,1.3-0.3
		C105.6-22.7,107.7-18.7,107.7-13.6z"/>
	<path class="st3" d="M107.7-13.6c0,5.1-2.3,9.1-5.1,9.1c-0.4,0-0.9-0.1-1.3-0.3c0.7,1.1,1.9,1.8,3.2,1.8h0.8c2.1,0,3.8-1.8,3.8-4.1
		v-6.5L107.7-13.6L107.7-13.6z"/>
	<path class="st4" d="M105-24.9h0.8c2.4,0,4.4,2.1,4.4,4.7V-7c0,2.6-2,4.7-4.4,4.7H105c-2.4,0-4.4-2.1-4.4-4.7v-13.2
		C100.5-22.7,102.5-24.9,105-24.9z M105.7-3.5c1.8,0,3.2-1.6,3.2-3.5v-13.1c0-1.9-1.4-3.5-3.2-3.5H105c-1.8,0-3.2,1.6-3.2,3.5v13.2
		c0,1.9,1.4,3.5,3.2,3.5h0.7V-3.5z"/>
	<path class="st4" d="M101.5-14.2h8.1c0.3,0,0.6,0.3,0.6,0.6s-0.3,0.6-0.6,0.6h-8.1c-0.3,0-0.6-0.3-0.6-0.6S101.1-14.2,101.5-14.2z"
		/>
</g>
<g>
	<path class="st0" d="M12.6-20.1c0-2.3-1.7-4.1-3.8-4.1H8.1c-2.1,0-3.9,1.8-3.9,4.1v6.5h8.4C12.6-13.6,12.6-20.1,12.6-20.1z"/>
	<path class="st1" d="M8.1-2.9h0.8c2.1,0,3.8-1.8,3.8-4.1v-6.5H4.2V-7C4.2-4.8,6-2.9,8.1-2.9z"/>
	<path class="st2" d="M11.1-13.6h1.5v-6.5c0-2.3-1.7-4.1-3.8-4.1H8.1c-1.3,0-2.5,0.7-3.2,1.8c0.4-0.2,0.8-0.3,1.3-0.3
		C9-22.7,11.1-18.7,11.1-13.6z"/>
	<path class="st3" d="M11.1-13.6c0,5.1-2.3,9.1-5.1,9.1c-0.4,0-0.9-0.1-1.3-0.3C5.4-3.7,6.6-3,7.9-3h0.8c2.1,0,3.8-1.8,3.8-4.1v-6.5
		L11.1-13.6L11.1-13.6z"/>
	<path class="st4" d="M8.4-24.9h0.8c2.4,0,4.4,2.1,4.4,4.7V-7c0,2.6-2,4.7-4.4,4.7H8.4C6-2.3,4-4.4,4-6.9v-13.2
		C4-22.7,6-24.9,8.4-24.9z M9.2-3.5c1.8,0,3.2-1.6,3.2-3.5v-13.1c0-1.9-1.4-3.5-3.2-3.5H8.4c-1.8,0-3.2,1.6-3.2,3.5v13.2
		c0,1.9,1.4,3.5,3.2,3.5h0.8V-3.5z"/>
	<path class="st4" d="M4.9-14.2H13c0.3,0,0.6,0.3,0.6,0.6S13.3-13,13-13H4.9c-0.3,0-0.6-0.3-0.6-0.6S4.6-14.2,4.9-14.2z"/>
</g>
<g>
	<path class="st0" d="M85.9,97.2c0-2.3-1.7-4.1-3.8-4.1h-0.8c-2.1,0-3.8,1.8-3.8,4.1v6.5H86L85.9,97.2L85.9,97.2z"/>
	<path class="st1" d="M81.3,114.4H82c2.1,0,3.8-1.8,3.8-4.1v-6.5h-8.4v6.5C77.5,112.6,79.2,114.4,81.3,114.4z"/>
	<path class="st2" d="M84.4,103.7h1.5v-6.5c0-2.3-1.7-4.1-3.8-4.1h-0.8c-1.3,0-2.5,0.7-3.2,1.8c0.4-0.2,0.8-0.3,1.3-0.3
		C82.1,94.6,84.4,98.7,84.4,103.7z"/>
	<path class="st3" d="M84.4,103.7c0,5.1-2.3,9.1-5.1,9.1c-0.4,0-0.9-0.1-1.3-0.3c0.7,1.1,1.9,1.8,3.2,1.8H82c2.1,0,3.8-1.8,3.8-4.1
		v-6.5H84.4L84.4,103.7z"/>
	<path class="st4" d="M81.6,92.4h0.8c2.4,0,4.4,2.1,4.4,4.7v13.2c0,2.6-2,4.7-4.4,4.7h-0.8c-2.4,0-4.4-2.1-4.4-4.7V97.1
		C77.2,94.6,79.2,92.4,81.6,92.4z M82.4,113.7c1.8,0,3.2-1.6,3.2-3.5V97c0-1.9-1.4-3.5-3.2-3.5h-0.8c-1.8,0-3.2,1.6-3.2,3.5v13.2
		c0,1.9,1.4,3.5,3.2,3.5H82.4z"/>
	<path class="st4" d="M78.2,103.1h8.1c0.3,0,0.6,0.3,0.6,0.6s-0.3,0.6-0.6,0.6h-8.1c-0.3,0-0.6-0.3-0.6-0.6
		C77.5,103.4,77.8,103.1,78.2,103.1z"/>
</g>
<g>
	<path class="st0" d="M37.6,97.2c0-2.3-1.7-4.1-3.8-4.1H33c-2.1,0-3.8,1.8-3.8,4.1v6.5h8.4V97.2L37.6,97.2z"/>
	<path class="st1" d="M33,114.4h0.8c2.1,0,3.8-1.8,3.8-4.1v-6.5h-8.4v6.5C29.2,112.6,30.9,114.4,33,114.4z"/>
	<path class="st2" d="M36.1,103.7h1.5v-6.5c0-2.3-1.7-4.1-3.8-4.1H33c-1.3,0-2.5,0.7-3.2,1.8c0.4-0.2,0.8-0.3,1.3-0.3
		C33.8,94.6,36.1,98.7,36.1,103.7z"/>
	<path class="st3" d="M36.1,103.7c0,5.1-2.3,9.1-5.1,9.1c-0.4,0-0.9-0.1-1.3-0.3c0.7,1.1,1.9,1.8,3.2,1.8h0.8c2.1,0,3.8-1.8,3.8-4.1
		v-6.5H36.1L36.1,103.7z"/>
	<path class="st4" d="M33.4,92.4h0.8c2.4,0,4.4,2.1,4.4,4.7v13.2c0,2.6-2,4.7-4.4,4.7h-0.8c-2.4,0-4.4-2.1-4.4-4.7V97.1
		C28.9,94.6,30.9,92.4,33.4,92.4z M34.1,113.7c1.8,0,3.2-1.6,3.2-3.5V97c0-1.9-1.4-3.5-3.2-3.5h-0.8c-1.8,0-3.2,1.6-3.2,3.5v13.2
		c0,1.9,1.4,3.5,3.2,3.5H34.1z"/>
	<path class="st4" d="M29.9,103.1H38c0.3,0,0.6,0.3,0.6,0.6s-0.3,0.6-0.6,0.6h-8.1c-0.3,0-0.6-0.3-0.6-0.6
		C29.2,103.4,29.5,103.1,29.9,103.1z"/>
</g>
<g>
	<path class="st0" d="M134.2,97.2c0-2.3-1.7-4.1-3.8-4.1h-0.8c-2.1,0-3.8,1.8-3.8,4.1v6.5h8.4L134.2,97.2L134.2,97.2z"/>
	<path class="st1" d="M129.6,114.4h0.8c2.1,0,3.8-1.8,3.8-4.1v-6.5h-8.4v6.5C125.8,112.6,127.5,114.4,129.6,114.4z"/>
	<path class="st2" d="M132.7,103.7h1.5v-6.5c0-2.3-1.7-4.1-3.8-4.1h-0.8c-1.3,0-2.5,0.7-3.2,1.8c0.4-0.2,0.8-0.3,1.3-0.3
		C130.4,94.6,132.7,98.7,132.7,103.7z"/>
	<path class="st3" d="M132.7,103.7c0,5.1-2.3,9.1-5.1,9.1c-0.4,0-0.9-0.1-1.3-0.3c0.7,1.1,1.9,1.8,3.2,1.8h0.8
		c2.1,0,3.8-1.8,3.8-4.1v-6.5H132.7L132.7,103.7z"/>
	<path class="st4" d="M129.8,92.4h0.8c2.4,0,4.4,2.1,4.4,4.7v13.2c0,2.6-2,4.7-4.4,4.7h-0.8c-2.4,0-4.4-2.1-4.4-4.7V97.1
		C125.5,94.6,127.5,92.4,129.8,92.4z M130.7,113.7c1.8,0,3.2-1.6,3.2-3.5V97c0-1.9-1.4-3.5-3.2-3.5h-0.8c-1.8,0-3.2,1.6-3.2,3.5
		v13.2c0,1.9,1.4,3.5,3.2,3.5H130.7z"/>
	<path class="st4" d="M126.4,103.1h8.1c0.3,0,0.6,0.3,0.6,0.6s-0.3,0.6-0.6,0.6h-8.1c-0.3,0-0.6-0.3-0.6-0.6
		S126.1,103.1,126.4,103.1z"/>
</g>
<g>
	<path class="st0" d="M61.7,97.2c0-2.3-1.7-4.1-3.8-4.1h-0.8c-2.1,0-3.8,1.8-3.8,4.1v6.5h8.4L61.7,97.2L61.7,97.2z"/>
	<path class="st1" d="M57.2,114.4H58c2.1,0,3.8-1.8,3.8-4.1v-6.5h-8.4v6.5C53.3,112.6,55.1,114.4,57.2,114.4z"/>
	<path class="st2" d="M60.2,103.7h1.5v-6.5c0-2.3-1.7-4.1-3.8-4.1h-0.8c-1.3,0-2.5,0.7-3.2,1.8c0.4-0.2,0.8-0.3,1.3-0.3
		C58,94.6,60.2,98.7,60.2,103.7z"/>
	<path class="st3" d="M60.2,103.7c0,5.1-2.3,9.1-5.1,9.1c-0.4,0-0.9-0.1-1.3-0.3c0.7,1.1,1.9,1.8,3.2,1.8h0.8c2.1,0,3.8-1.8,3.8-4.1
		v-6.5H60.2L60.2,103.7z"/>
	<path class="st4" d="M57.5,92.4h0.8c2.4,0,4.4,2.1,4.4,4.7v13.2c0,2.6-2,4.7-4.4,4.7h-0.8c-2.4,0-4.4-2.1-4.4-4.7V97.1
		C53.1,94.6,55.1,92.4,57.5,92.4z M58.3,113.7c1.8,0,3.2-1.6,3.2-3.5V97c0-1.9-1.4-3.5-3.2-3.5h-0.8c-1.8,0-3.2,1.6-3.2,3.5v13.2
		c0,1.9,1.4,3.5,3.2,3.5H58.3z"/>
	<path class="st4" d="M54,103.1h8.1c0.3,0,0.6,0.3,0.6,0.6s-0.3,0.6-0.6,0.6H54c-0.3,0-0.6-0.3-0.6-0.6S53.7,103.1,54,103.1z"/>
</g>
<g>
	<path class="st0" d="M110,97.2c0-2.3-1.7-4.1-3.8-4.1h-0.8c-2.1,0-3.8,1.8-3.8,4.1v6.5h8.4L110,97.2L110,97.2z"/>
	<path class="st1" d="M105.5,114.4h0.8c2.1,0,3.8-1.8,3.8-4.1v-6.5h-8.4v6.5C101.6,112.6,103.3,114.4,105.5,114.4z"/>
	<path class="st2" d="M108.5,103.7h1.5v-6.5c0-2.3-1.7-4.1-3.8-4.1h-0.8c-1.3,0-2.5,0.7-3.2,1.8c0.4-0.2,0.8-0.3,1.3-0.3
		C106.3,94.6,108.5,98.7,108.5,103.7z"/>
	<path class="st3" d="M108.5,103.7c0,5.1-2.3,9.1-5.1,9.1c-0.4,0-0.9-0.1-1.3-0.3c0.7,1.1,1.9,1.8,3.2,1.8h0.8
		c2.1,0,3.8-1.8,3.8-4.1v-6.5H108.5L108.5,103.7z"/>
	<path class="st4" d="M105.7,92.4h0.8c2.4,0,4.4,2.1,4.4,4.7v13.2c0,2.6-2,4.7-4.4,4.7h-0.8c-2.4,0-4.4-2.1-4.4-4.7V97.1
		C101.4,94.6,103.3,92.4,105.7,92.4z M106.5,113.7c1.8,0,3.2-1.6,3.2-3.5V97c0-1.9-1.4-3.5-3.2-3.5h-0.8c-1.8,0-3.2,1.6-3.2,3.5
		v13.2c0,1.9,1.4,3.5,3.2,3.5H106.5z"/>
	<path class="st4" d="M102.3,103.1h8.1c0.3,0,0.6,0.3,0.6,0.6s-0.3,0.6-0.6,0.6h-8.1c-0.3,0-0.6-0.3-0.6-0.6S102,103.1,102.3,103.1z
		"/>
</g>
<g>
	<path class="st0" d="M13.4,97.2c0-2.3-1.7-4.1-3.8-4.1H8.9c-2.1,0-3.8,1.8-3.8,4.1v6.5h8.4L13.4,97.2L13.4,97.2z"/>
	<path class="st1" d="M8.9,114.4h0.8c2.1,0,3.8-1.8,3.8-4.1v-6.5H5v6.5C5.1,112.6,6.8,114.4,8.9,114.4z"/>
	<path class="st2" d="M12,103.7h1.5v-6.5c0-2.3-1.7-4.1-3.8-4.1H8.9c-1.3,0-2.5,0.7-3.2,1.8c0.4-0.2,0.8-0.3,1.3-0.3
		C9.7,94.6,12,98.7,12,103.7z"/>
	<path class="st3" d="M12,103.7c0,5.1-2.3,9.1-5.1,9.1c-0.4,0-0.9-0.1-1.3-0.3c0.7,1.1,1.9,1.8,3.2,1.8h0.8c2.1,0,3.8-1.8,3.8-4.1
		v-6.5H12L12,103.7z"/>
	<path class="st4" d="M9.2,92.4H10c2.4,0,4.4,2.1,4.4,4.7v13.2c0,2.6-2,4.7-4.4,4.7H9.2c-2.4,0-4.4-2.1-4.4-4.7V97.1
		C4.8,94.6,6.8,92.4,9.2,92.4z M10,113.7c1.8,0,3.2-1.6,3.2-3.5V97c0-1.9-1.4-3.5-3.2-3.5H9.2C7.4,93.5,6,95.1,6,97v13.2
		c0,1.9,1.4,3.5,3.2,3.5H10z"/>
	<path class="st4" d="M5.7,103.1h8.1c0.3,0,0.6,0.3,0.6,0.6s-0.3,0.6-0.6,0.6H5.7c-0.3,0-0.6-0.3-0.6-0.6S5.4,103.1,5.7,103.1z"/>
</g>
<rect x="-10.5" y="-9.7" class="st5" width="162.1" height="162.1"/>
<rect x="-10.5" y="-9.7" class="st6" width="162.1" height="161.7"/>
<path class="st7" d="M57.6,81.8c0.4,0.4,0.6,0.8,0.8,1.3c0.2,0.4,0.6,0.8,0.9,1.2c0.7,0.8,1.6,1.5,2.7,1.9c1.9,0.7,4.3,0.3,6-0.8
	c0.3-0.2,0-0.7-0.3-0.5c-1.7,1-3.8,1.3-5.7,0.6c-1-0.4-1.9-1.2-2.6-1.9c-0.6-0.6-1-1.5-1.7-1.9C57.6,81.6,57.5,81.7,57.6,81.8
	L57.6,81.8z"/>
<path class="st7" d="M71.4,74.7c1.3,1.8,0.9,4.3,2.9,5.5c1.9,1.1,4.6,0.9,6.6,0.3c0.3-0.1,0.2-0.5-0.1-0.5c-2,0.4-4.5,0.7-6.3-0.4
	c-1-0.6-1.4-1.8-1.7-2.8C72.5,76,72.2,75.1,71.4,74.7C71.4,74.5,71.3,74.6,71.4,74.7L71.4,74.7z"/>
<path class="st7" d="M70.5,87.9c1.4,1.6,2.4,3.8,4.5,4.6c1.9,0.7,4,0.3,5.9,0.1c0.3,0,0.2-0.6-0.1-0.6c-1.8,0.2-3.7,0.5-5.5,0
	c-2.1-0.6-3.1-2.9-4.7-4.2C70.5,87.6,70.4,87.8,70.5,87.9L70.5,87.9z"/>
<path class="st7" d="M72,100.5c0.7,0.5,0.9,1.4,1.5,2.1c0.7,0.7,1.5,1.3,2.4,1.7c2.2,0.9,4.3-0.4,6.1-1.6c0.3-0.2,0-0.6-0.3-0.5
	c-1,0.5-1.9,1.1-2.9,1.5c-1.1,0.4-2.2,0.3-3.3-0.2c-0.9-0.4-1.7-1-2.2-1.8c-0.3-0.4-0.7-1.2-1.3-1.3C72,100.3,71.9,100.4,72,100.5
	L72,100.5z"/>
<path class="st7" d="M56.5,94.7c1.1,1.7,1.3,3.9,3.4,4.8c2.6,1,5.8,0.4,8.4-0.3c0.3-0.1,0.2-0.5-0.1-0.5c-2.6,0.5-5.3,1-7.9,0.3
	c-2.1-0.6-2.3-2.9-3.6-4.4C56.6,94.5,56.5,94.6,56.5,94.7L56.5,94.7z"/>
<path class="st7" d="M30.5,91.6c1.7,1.5,3.4-0.3,4.4-1.6c0.2-0.2-0.2-0.4-0.3-0.3c-1.1,1.1-2.3,3-4,1.8
	C30.5,91.4,30.4,91.5,30.5,91.6L30.5,91.6z"/>
<path class="st7" d="M33.7,84.8c0-0.5-0.4-0.7-0.8-0.6c-0.5,0.1-0.9,0.5-1.3,0.9c-0.2,0.1,0.1,0.4,0.2,0.3c0.3-0.2,0.6-0.4,0.9-0.6
	C33,84.6,33.4,84.3,33.7,84.8C33.6,84.9,33.7,84.8,33.7,84.8L33.7,84.8z"/>
<path class="st7" d="M20.2,79.3c1.1-1.2,3.2-0.6,4.6-0.5c0.2,0,0.3-0.4,0.1-0.4C23.5,78.2,21.1,77.8,20.2,79.3
	C20,79.3,20.1,79.4,20.2,79.3L20.2,79.3z"/>
<path class="st7" d="M18.8,81c1.4,0.7,3,0.8,4.5,0.8c1.2,0,2.9,0,3.8-1c0.2-0.2-0.1-0.5-0.3-0.3c-1.1,0.7-2.4,0.8-3.7,0.8
	c-1.4,0.1-2.9,0.1-4.3-0.5C18.8,80.8,18.7,81,18.8,81L18.8,81z"/>
<path class="st7" d="M24.9,72.9c2.2,2.3,5.7,0,7.5-1.7c0.2-0.2-0.1-0.6-0.4-0.4c-1,0.7-1.9,1.5-3,2c-1.3,0.6-2.6,0.6-3.9-0.1
	C25,72.7,24.9,72.8,24.9,72.9L24.9,72.9z"/>
<path class="st7" d="M30.2,65.8c-1-0.4-2.1,0.3-2.9,0.8c-1,0.6-1.9,1.5-2.4,2.5c-0.1,0.2,0.2,0.4,0.3,0.2c0.5-0.9,1.3-1.6,2.1-2.2
	c0.8-0.6,1.9-1.3,2.9-1.2C30.3,66,30.3,65.9,30.2,65.8L30.2,65.8z"/>
<path class="st7" d="M12.3,72.3c1.2,1.8,4.4,0.1,5.9-0.4c0.3-0.1,0.2-0.5-0.1-0.4c-1.6,0.4-4.1,2-5.7,0.7
	C12.4,72.1,12.2,72.2,12.3,72.3L12.3,72.3z"/>
<path class="st7" d="M15.4,69.1c0.9-0.2,1.7-0.7,2.6-1c0.4-0.2,0.9-0.3,1.4-0.4c0.6-0.1,1.1,0,1.7,0.1c0.2,0,0.3-0.3,0.1-0.4
	c-0.9-0.5-2-0.1-2.9,0.2c-1,0.4-2,1-2.9,1.4C15.3,69,15.3,69.1,15.4,69.1L15.4,69.1z"/>
<path class="st7" d="M8.7,59.3c1.3,0.3,1.4,2.1,0.8,3c-0.1,0.2,0.2,0.4,0.3,0.2c0.9-1.1,0.5-3.2-1.1-3.4C8.6,59.1,8.6,59.3,8.7,59.3
	L8.7,59.3z"/>
<path class="st7" d="M8.8,61.3C9,61.6,9,62,9.1,62.3c0,0.3-0.1,0.7-0.1,1c0,0.2,0.2,0.3,0.3,0.1c0.3-0.3,0.2-0.8,0.2-1.1
	c-0.1-0.5-0.2-0.9-0.5-1.2C8.9,61,8.8,61.2,8.8,61.3L8.8,61.3z"/>
<path class="st7" d="M8.5,61.9c0,0.6-0.1,1.2,0.1,1.7c0,0.3,0.4,0.3,0.3,0c0-0.3-0.1-0.6-0.1-0.8C8.8,62.5,8.7,62.2,8.5,61.9
	C8.6,61.8,8.5,61.8,8.5,61.9L8.5,61.9z"/>
<path class="st7" d="M7.6,62.7c0.1,0.4-0.1,0.9,0,1.3c0,0.3,0.4,0.3,0.4,0c0.1-0.4,0-1-0.2-1.4C7.7,62.6,7.5,62.6,7.6,62.7L7.6,62.7
	z"/>
<path class="st7" d="M4.7,80c0,1.5,0.6,3,1.5,4.3c0.8,1.1,2.2,2.2,3.7,1.9c0.3-0.1,0.2-0.5-0.1-0.5c-1.5-0.1-2.5-0.7-3.5-1.9
	C5.5,82.7,5,81.4,4.7,80C4.9,79.8,4.7,79.9,4.7,80L4.7,80z"/>
<path class="st7" d="M8.2,80.6c1.1,1.2,1.7,2.5,2.3,4c0.1,0.3,0.5,0.2,0.4-0.1c-0.5-1.6-1.3-2.9-2.5-4C8.3,80.3,8.1,80.5,8.2,80.6
	L8.2,80.6z"/>
<path class="st7" d="M113,58.6c0.2,0.6,0.1,1.3,0,1.9c-0.1,0.7-0.1,1.4-0.2,2.1c-0.1,0.8-0.3,1.7-0.6,2.4c-0.3,0.6-0.7,1.1-1.1,1.6
	c-0.1,0.2,0.1,0.5,0.3,0.4c1.3-0.6,1.8-2.4,2-3.7c0.1-0.9,0.1-1.8,0.1-2.8c0-0.7,0.2-1.4-0.2-2.1C113.1,58.4,112.9,58.5,113,58.6
	L113,58.6z"/>
<path class="st7" d="M110.9,67.9c-0.4,0.5-1.1,0.8-1.7,1c-0.4,0.1-0.8,0.1-1.2,0.1c-0.3,0-0.6-0.2-0.9-0.3c-0.2,0-0.4,0.2-0.3,0.4
	c0.4,0.7,1.7,0.5,2.4,0.3c0.8-0.2,1.7-0.6,2-1.4C111.2,67.9,111,67.7,110.9,67.9L110.9,67.9z"/>
<path class="st7" d="M110.7,68.6c0,1-1.1,1.5-1.9,1.7c-0.8,0.3-1.6,0.3-2.3,0.5c-0.2,0.1-0.2,0.4,0,0.4c0.9,0.3,2.2-0.3,3-0.7
	c0.8-0.4,1.7-1.1,1.5-2.1C110.9,68.4,110.7,68.4,110.7,68.6L110.7,68.6z"/>
<path class="st7" d="M109.9,70.7c-0.5,0.6-1.2,1-1.9,1.3c-0.7,0.3-1.4,0.2-2.1,0.4c-0.3,0.1-0.3,0.5,0,0.5c0.8,0.2,1.7-0.2,2.4-0.5
	c0.8-0.3,1.5-0.8,1.9-1.6C110.2,70.7,110,70.6,109.9,70.7L109.9,70.7z"/>
<path class="st7" d="M135.7,51.9c-0.4-0.3-1-0.3-1.4-0.1c-0.4,0.2-0.7,0.7-0.4,1.1c0.5,0.8,2.2-0.2,2.2-0.9
	C136,51.8,135.7,51.8,135.7,51.9c-0.2,0.3-0.4,0.5-0.7,0.7c-0.2,0.1-0.6,0.3-0.8,0.1c-0.1-0.1-0.1-0.3,0-0.4s0.3-0.2,0.5-0.2
	c0.3-0.1,0.7-0.1,1,0C135.8,52.2,135.8,52,135.7,51.9L135.7,51.9z"/>
<path class="st7" d="M131.9,54.1c-2.3,1.9-2.4,5.3-0.3,7.4c1.8,1.8,4.8,2.2,6.8,0.4c0.2-0.2-0.1-0.6-0.3-0.4
	c-1.8,1.3-4.1,1.1-5.8-0.4c-0.9-0.8-1.5-2-1.6-3.2c-0.1-1.4,0.5-2.7,1.4-3.7C132.1,54.2,131.9,54,131.9,54.1L131.9,54.1z"/>
<path class="st7" d="M140.6,59.7c0.2-0.3,0.2-0.7,0.3-1.1c0-0.1-0.2-0.1-0.2,0c0,0.4-0.1,0.7-0.3,1
	C140.4,59.7,140.6,59.8,140.6,59.7L140.6,59.7z"/>
<path class="st7" d="M125.8,37.7c0.1-0.6-0.4-0.9-1-0.9s-1.3,0.2-1.6,0.8c-0.2,0.6,0.6,0.8,1,0.8c0.6,0,1.4-0.3,1.7-0.9
	c0.1-0.2-0.2-0.4-0.4-0.2c-0.3,0.3-0.6,0.5-1,0.6c-0.1,0-0.8,0.1-0.9-0.1c0-0.1,0.2-0.3,0.2-0.3c0.2-0.1,0.4-0.2,0.6-0.2
	c0.3-0.1,1.2-0.2,1.1,0.4C125.6,37.7,125.8,37.8,125.8,37.7L125.8,37.7z"/>
<path class="st7" d="M120.6,40.3c-2.9,2-0.7,7.3,2,8.4c1.8,0.7,4,0.4,5.6-0.5c1.8-0.9,2.8-2.6,2.9-4.6c0-0.2-0.3-0.2-0.3,0
	c-0.3,3.6-4.6,5.4-7.8,4.4c-1.4-0.4-2.4-2.1-2.9-3.4C119.6,43.2,119.4,41.4,120.6,40.3C120.8,40.4,120.7,40.3,120.6,40.3L120.6,40.3
	z"/>
<path class="st7" d="M78.7,52.8c0.1,0.1,0.3,0.2,0.5,0.1c0.1,0,0.1-0.1,0.1-0.2s-0.1-0.1-0.2-0.1s-0.2,0-0.2-0.1
	c-0.1,0-0.1-0.1-0.2,0C78.7,52.7,78.7,52.8,78.7,52.8L78.7,52.8z"/>
<path class="st7" d="M67.2,53.2c2.6,2.7,7,3.7,10.7,3.3c2.5-0.3,4.8-1.3,7.1-2.3c2.2-0.9,4.2-2.3,6.6-2.8c0.3-0.1,0.2-0.6-0.1-0.5
	c-2.2,0.3-4.1,1.5-6.1,2.4c-2.2,1-4.5,2-6.9,2.4c-1.9,0.4-4,0.2-5.9-0.2c-1.9-0.4-3.8-1.2-5.2-2.5C67.2,52.9,67.1,53.1,67.2,53.2
	L67.2,53.2z"/>
<path class="st7" d="M81.1,49c1.6-0.2,3.1,0.2,4.7,0.2c0.3,0,0.3-0.4,0-0.4c-1.6,0-3.2-0.3-4.7,0C80.9,48.9,81,49,81.1,49L81.1,49z"
	/>
<path class="st7" d="M54.9,45.4c0.4,0.2,0.8,0.1,1.2,0c0.7-0.2,1.4-0.4,2.2-0.3c1.4,0,2.8,0.4,4.1,0.4c2.5,0.2,5-0.3,7.3-1.2
	c2.3-1,4.4-2.5,6.7-3.6c2.6-1.2,5.3-2,8.1-2.1c0.2,0,0.2-0.3,0-0.4c-2.5-0.1-5,0.5-7.3,1.5c-2.4,1-4.5,2.4-6.8,3.6
	c-2.4,1.2-5,1.7-7.6,1.7c-1.4,0-2.8-0.2-4.1-0.3c-0.6,0-1.2,0-1.7,0.1c-0.7,0.1-1.3,0.7-2.1,0.5C54.8,45.2,54.8,45.3,54.9,45.4
	L54.9,45.4z"/>
<path class="st7" d="M67.7,37.2c1.5-0.6,3.1-0.8,4.7-0.8c0.2,0,0.2-0.4,0-0.4c-1.7-0.1-3.3,0.3-4.8,1C67.5,37.1,67.6,37.3,67.7,37.2
	L67.7,37.2z"/>
<path class="st7" d="M68,40.2c0.3,0,0.6,0,0.9,0c0.2,0,0.3-0.4,0.1-0.4c-0.3-0.1-0.7,0-1,0.2C67.8,40,67.8,40.2,68,40.2L68,40.2z"/>
<path class="st7" d="M101.9,19.6c0.2,1,0.1,2,0.8,2.8c0.6,0.7,1.7,0.7,2.5,0.8c2.1,0.3,4.8,0.7,6.7-0.5c0.2-0.1,0.1-0.5-0.2-0.4
	c-1.9,0.7-3.8,0.7-5.8,0.5c-0.9-0.1-1.8-0.1-2.6-0.5c-1-0.5-0.7-1.9-1.2-2.7C102.1,19.4,101.9,19.5,101.9,19.6L101.9,19.6z"/>
<path class="st7" d="M112.2,19.2c-0.1,1.3-0.6,2.4-0.8,3.7c0,0.3,0.3,0.4,0.4,0.1c0.3-1.2,0.7-2.5,0.6-3.8
	C112.4,19.1,112.2,19.1,112.2,19.2L112.2,19.2z"/>
<path class="st7" d="M120.1,17.8c-0.5,1.4-0.6,2.9,0.2,4.2c0.8,1.3,2.4,1.6,3.8,1.2c0.2-0.1,0.2-0.4-0.1-0.4
	c-1.3,0.1-2.5-0.1-3.3-1.3C120,20.4,119.9,19,120.1,17.8C120.3,17.7,120.1,17.7,120.1,17.8L120.1,17.8z"/>
<path class="st7" d="M130.7,17.8c0.5,0.7,0.6,2,0.4,2.8c-0.3,0.9-1.4,1.2-2.2,1.5c-0.3,0.1-0.2,0.5,0.1,0.5c1.1-0.2,2.1-0.5,2.5-1.6
	c0.4-1,0-2.5-0.7-3.2C130.8,17.7,130.6,17.8,130.7,17.8L130.7,17.8z"/>
<path class="st7" d="M68,15.2c1.8,2.9,5.6,2.6,8.5,2c0.3-0.1,0.2-0.5-0.1-0.5c-2.8,0.5-6.3,1-8.2-1.6C68.1,15,67.9,15.1,68,15.2
	L68,15.2z"/>
<path class="st7" d="M78.1,7c0.9,0.9,2.6,0.9,3.8,0.9c1.6,0,3-0.8,4.2-1.8c0.2-0.2-0.1-0.5-0.3-0.3c-1.1,0.9-2.2,1.6-3.6,1.7
	c-0.6,0.1-1.2,0-1.8,0c-0.7,0-1.5-0.1-2-0.5C78.2,6.8,78,6.9,78.1,7L78.1,7z"/>
<path class="st7" d="M60.8,6.4c0.2,1.9,2.3,2.4,3.9,2.4c1.8,0,4-0.3,5.5-1.3c0.2-0.1,0-0.4-0.2-0.3c-1.4,0.7-3.2,1-4.7,1.1
	s-3.9-0.1-4.2-2C61,6.3,60.8,6.3,60.8,6.4L60.8,6.4z"/>
<path class="st7" d="M53.4,16.1c0.8,3.5,5.5,2.3,7.7,1.1c0.3-0.1,0-0.5-0.2-0.4c-2.1,1-6.3,2.3-7.3-0.7
	C53.5,15.9,53.3,15.9,53.4,16.1L53.4,16.1z"/>
<path class="st7" d="M18.3,40.2c2-1.7,3.6-3.8,5.4-5.7c0.1-0.1-0.1-0.3-0.2-0.2c-1.9,1.8-3.4,3.9-5.3,5.7
	C18.1,40.1,18.2,40.3,18.3,40.2L18.3,40.2z"/>
<path class="st7" d="M25.8,33.9c0.7,1.8,0.2,3.6,0.6,5.5c0,0.2,0.4,0.2,0.4-0.1c0-1,0-2-0.1-3c-0.1-0.8-0.2-1.8-0.7-2.5
	C25.9,33.8,25.8,33.8,25.8,33.9L25.8,33.9z"/>
<path class="st7" d="M28.3,33.3c1.8,0.4,3.1,1.9,4.9,2.4c0.2,0.1,0.3-0.3,0.1-0.3c-1.7-0.6-3.1-2-4.9-2.2
	C28.2,33.1,28.2,33.3,28.3,33.3L28.3,33.3z"/>
<path class="st7" d="M22.5,10c-0.8,0.3-0.9,1.2-1,2c-0.1,0.9,0.1,2,0.4,2.8c0.1,0.2,0.5,0.1,0.4-0.2c-0.2-0.7-0.4-1.4-0.4-2.2
	C21.8,11.7,21.8,10.5,22.5,10C22.7,10.1,22.6,9.9,22.5,10L22.5,10z"/>
<path class="st7" d="M15.3,12.4c1.1-0.8,2.2-1.4,3.5-0.8c0.2,0.1,0.4-0.2,0.2-0.3c-1.4-0.8-2.7,0.1-3.8,1
	C15.1,12.3,15.2,12.4,15.3,12.4L15.3,12.4z"/>
<path class="st7" d="M6.8,29.3C6.5,30,6,30.5,5.5,31.1c-0.5,0.5-0.8,1-1.1,1.5c-0.7,1.1-1.4,2.5-1.2,3.8c0,0.2,0.4,0.2,0.4,0
	c0-1.4,0.7-2.7,1.4-4c0.3-0.6,0.8-1.1,1.2-1.7c0.4-0.5,0.8-0.9,0.9-1.5C7,29.2,6.8,29.1,6.8,29.3L6.8,29.3z"/>
<path class="st7" d="M7.4,29.6c0.8-0.1,1.4,0.4,2.2,0.6c0.3,0.1,0.4-0.3,0.1-0.4c-0.8-0.2-1.5-0.6-2.3-0.3
	C7.3,29.4,7.3,29.6,7.4,29.6L7.4,29.6z"/>
<path class="st7" d="M0.8,28.5c1.1-0.2,2.1,0.2,3.2,0.4c0.3,0.1,0.5-0.4,0.1-0.5c-1.1-0.2-2.3-0.6-3.4-0.1
	C0.6,28.3,0.6,28.5,0.8,28.5L0.8,28.5z"/>
<path class="st8" d="M73.6,0.4c-0.8-0.5-1.6-1-2.5-1.4s-1.8-0.5-2.7-0.6c-1.8-0.1-3.6,0.3-5.3,1c-2.4,1.1-4.4,3.3-4.7,6
	c-0.3,3.1,2.9,4.5,5.5,4.8c3.1,0.3,6.7-0.2,9.3-2c1.6-1.1,3.1-3,2.8-5.1c-0.3-1.7-1.7-3.1-3.5-3.2c-0.4,0-0.5,0.6-0.1,0.7
	c1.5,0.2,2.4,1.2,2.5,2.7C75,4.9,74,6.2,72.8,7.1C70.3,9,66.4,9.5,63.3,9c-1.4-0.2-2.9-0.8-3.5-2.2c-0.5-1.1-0.1-2.5,0.4-3.5
	c1.6-3,5.5-4.1,8.7-4c1.6,0.1,3.2,0.7,4.6,1.3C73.6,0.7,73.8,0.5,73.6,0.4L73.6,0.4z"/>
<path class="st8" d="M71.6,2.7c-1.5-1.2-4.9,0.9-2.9,2.4c0.9,0.7,2.7,0.5,3.4-0.4c0.7-0.8,0.3-2.8-1.1-2.3c-0.4,0.1-0.4,0.7,0,0.8
	c0.3,0.1,0.4,0.1,0.4,0.4S71.2,4.1,71,4.3c-0.6,0.3-1.5,0.3-2-0.1c-0.5-0.3,0.2-0.8,0.5-1c0.6-0.3,1.3-0.5,1.9-0.4
	C71.6,2.9,71.7,2.7,71.6,2.7L71.6,2.7z"/>
<path class="st8" d="M76.6,5.4c0.1-0.2,0.2-0.4,0.2-0.7c0.1-0.4,0.4-0.7,0.7-1c0.5-0.5,1.1-0.9,1.7-1.3c1.2-0.8,2.5-1.1,3.9-1.2
	c1.2-0.1,2.6,0,3.5,0.8c1.2,0.9,1.2,2.7,0.5,3.9c-1.1,1.9-3.8,2.5-5.9,2.6c-1.1,0-2.3-0.1-3.3-0.6c-0.6-0.3-1.1-0.7-1.3-1.3
	c-0.2-0.7,0.1-1.3,0.5-1.9c0.2-0.4-0.3-0.7-0.6-0.4c-1.1,1-1.1,2.5-0.2,3.7c0.9,1.1,2.5,1.4,3.8,1.6c2.7,0.3,5.9-0.4,7.7-2.5
	c1-1.2,1.4-3,0.7-4.5c-0.7-1.4-2-2.1-3.5-2.3c-1.5-0.2-3.2,0-4.6,0.6s-2.9,1.7-3.7,3c-0.3,0.5-0.4,1-0.2,1.6
	C76.5,5.4,76.6,5.4,76.6,5.4L76.6,5.4z"/>
<path class="st8" d="M80.5,4.6c-0.6-0.5-1.6,0-1.8,0.8c-0.2,0.9,0.7,1.5,1.5,1.4c0.6-0.1,1.3-0.5,1.5-1c0.1-0.3,0.1-0.6-0.1-0.9
	C81.3,4.6,80.9,4.6,80.5,4.6c-0.4,0.2-0.2,0.8,0.2,0.9c0.1,0,0.1,0,0.2,0c0,0,0.1,0.1,0,0c0.1,0-0.1-0.1,0,0c0,0-0.1-0.1,0-0.1
	c0-0.1,0-0.1,0,0c0-0.1,0,0,0,0c-0.1,0.1-0.2,0.2-0.3,0.3c-0.2,0.1-0.3,0.2-0.5,0.2c-0.2,0.1-0.7,0-0.8-0.4c0-0.5,0.6-0.7,1-0.7
	C80.6,4.9,80.6,4.7,80.5,4.6L80.5,4.6z"/>
<path class="st8" d="M76.2,9c-0.9-0.8-2.7-0.5-3.8-0.4c-1.7,0.2-3.3,1.1-4.6,2.2c-1.1,0.9-2.3,1.9-2.2,3.5c0.1,1.4,1,2.7,2.2,3.4
	c1.4,0.8,3.1,0.9,4.6,0.9c1.8,0,3.7-0.4,5.3-1.3c1.3-0.7,2.8-1.6,3.2-3.1c0.4-1.4-0.4-3-1.5-3.9c-0.9-0.8-2.4-1.4-3.6-1.5
	c-0.3,0-0.4,0.4-0.2,0.6c1.1,0.6,2.3,0.8,3.3,1.7c1.1,1,1.4,2.6,0.4,3.8s-2.7,1.9-4.2,2.3c-1.6,0.5-3.4,0.5-5.1,0.2
	c-1.2-0.2-2.4-0.7-3.1-1.8c-0.4-0.6-0.6-1.4-0.5-2.1c0.1-0.7,0.7-1.2,1.2-1.6c1.2-1.1,2.6-2,4.2-2.5C73,9,74.6,8.7,75.9,9
	C76.2,9.2,76.3,9.1,76.2,9L76.2,9z"/>
<path class="st8" d="M77.3,13c0-0.7-1-0.6-1.5-0.3c-0.7,0.4-0.9,1.4-0.1,1.9c0.7,0.3,1.6,0,2.2-0.4c0.3-0.2,0.5-0.5,0.5-0.9
	s-0.4-0.7-0.7-0.8c-0.4-0.1-0.7,0.5-0.3,0.7c0.1,0,0.1,0.1,0.2,0.1c0,0,0-0.2,0-0.1c0-0.1,0,0-0.1,0.1s-0.1,0.1-0.2,0.1
	c-0.3,0.2-0.7,0.4-1.1,0.3c-0.3-0.1-0.3-0.3-0.1-0.5c0.2-0.1,0.3-0.2,0.5-0.3c0.1,0,0.3-0.1,0.4,0C77.2,13.1,77.3,13.1,77.3,13
	L77.3,13z"/>
<path class="st8" d="M60.9,10.8c-2.7-1.3-6.4-0.6-8.7,1.3c-1.1,0.9-1.6,2.2-1.4,3.6c0.3,1.3,1.3,2.3,2.4,3c2.3,1.3,5.3,0.7,7.6-0.2
	c2.2-1,4.7-3,3.9-5.7c-0.5-1.9-3-2.6-4.8-2.4c-0.4,0-0.4,0.5,0,0.6c1.2,0.1,2.5,0.3,3.4,1.3c0.9,1,0.5,2.5-0.2,3.5
	c-1.5,1.9-4.3,2.7-6.6,2.8c-1.3,0.1-2.6-0.3-3.7-1.2c-1.1-0.9-1.6-2.3-0.9-3.6c0.8-1.5,2.6-2.3,4.1-2.6c1.6-0.4,3.2-0.2,4.7,0
	C60.9,11,61,10.8,60.9,10.8L60.9,10.8z"/>
<path class="st8" d="M61.4,13c-0.3-0.6-1-0.4-1.4,0.1c-0.4,0.6,0.2,1.3,0.8,1.4c0.5,0.2,1.2,0,1.6-0.4c0.2-0.2,0.4-0.7,0.2-1
	c-0.2-0.4-0.8-0.4-1.2-0.2c-0.4,0.1-0.2,0.7,0.2,0.7c0.1,0,0.2,0,0.3,0.1c-0.1-0.1-0.2-0.3-0.2-0.4c0,0.3-0.4,0.4-0.7,0.4
	c-0.6-0.1-0.3-0.7,0.2-0.5C61.3,13.2,61.4,13.1,61.4,13L61.4,13z"/>
<path class="st8" d="M17.2,66.3c-0.9-0.2-1.8,0.2-2.6,0.5c-1.1,0.5-2.1,1.2-2.9,2c-0.7,0.7-1.4,1.6-1.5,2.6
	c-0.1,1.2,0.7,2.1,1.7,2.7c1.4,0.8,3.1,0.5,4.6,0c1.8-0.5,3.5-1.4,5.1-2.4c1.3-0.8,2.6-1.8,3.4-3.1c0.3-0.5,0.5-1.1,0.4-1.7
	c-0.2-0.7-0.9-1.3-1.5-1.7c-2.5-1.9-5.2,0.2-7.6,1.1c-0.3,0.1-0.3,0.6,0.1,0.6c1.6-0.2,2.9-1.1,4.5-1.5c0.9-0.2,1.8,0,2.5,0.5
	s1.4,1.1,1,2c-0.6,1.4-2.3,2.4-3.5,3.2c-1.6,1-3.3,1.8-5.2,2.4c-1.5,0.4-3.4,0.5-4.4-0.9c-0.6-0.8-0.1-1.9,0.4-2.6
	c0.7-1,1.7-1.7,2.7-2.3c0.8-0.5,1.8-1,2.8-1C17.3,66.6,17.4,66.4,17.2,66.3L17.2,66.3z"/>
<path class="st8" d="M13,70.2c-0.5,1.6,3.3,0.7,3.9,0.5c2.4-0.6,4.6-1.7,6-3.8c0.2-0.3-0.2-0.6-0.5-0.4c-0.9,0.8-1.6,1.6-2.6,2.2
	c-0.8,0.5-1.7,0.8-2.6,1.1c-0.6,0.2-3.8,1.3-4,0.3C13.1,70.1,13,70.1,13,70.2L13,70.2z"/>
<path class="st8" d="M15.5,78.4c0.7,0,1.4-0.3,2.1-0.5c1-0.2,1.9-0.4,2.9-0.5c1.5-0.2,2.9-0.4,4.4-0.4c1.3,0,2.8,0.2,3.8,1.2
	c1.2,1.2-0.5,2.7-1.5,3.3c-1.1,0.6-2.6,0.7-3.8,0.7c-1.5,0-3.2-0.2-4.7-0.6c-0.8-0.2-1.5-0.6-2.2-1.1c-0.4-0.2-0.7-0.5-1-0.9
	s0.2-0.6,0.5-0.9c0.3-0.2,0.1-0.7-0.3-0.6c-0.9,0.2-1.4,1.1-0.9,2s1.6,1.4,2.4,1.8c1.3,0.6,2.7,0.8,4,0.9c1.6,0.2,3.1,0.2,4.7-0.1
	c1.5-0.3,2.7-1,3.6-2.2s0.6-2.7-0.6-3.6s-2.8-1.1-4.3-1c-1.7,0-3.4,0.4-5,0.7c-1.5,0.3-2.8,0.7-4.2,1.4
	C15.3,78.2,15.4,78.3,15.5,78.4L15.5,78.4z"/>
<path class="st8" d="M18.1,78.5c-0.7,1.4,4.8,1.7,5.5,1.7c0.9,0,1.8-0.2,2.7-0.4c0.4-0.1,1-0.3,1.3-0.7c0.2-0.3,0-0.7-0.3-0.8
	c-0.3-0.1-0.5,0.3-0.3,0.5c0.1,0.2,0.2-0.2,0-0.1s-0.4,0.1-0.5,0.2c-0.5,0.1-0.9,0.2-1.4,0.3c-0.6,0.1-1.1,0.2-1.6,0.2
	c-1,0-1.9-0.1-2.9-0.2c-0.4,0-2.1-0.1-2.2-0.7C18.3,78.4,18.2,78.4,18.1,78.5L18.1,78.5z"/>
<path class="st8" d="M6.2,76.7c0.5-0.1,1,0.6,1.3,0.9c0.5,0.5,1,1,1.4,1.5c0.9,1,1.7,2,2.4,3.1c0.6,0.9,1.2,2,0.9,3.1
	s-1.5,1.7-2.5,1.6c-1.1,0-2.2-0.9-3-1.6c-0.9-0.8-1.7-1.9-2.4-2.9c-0.7-1.1-1.1-2.2-1-3.5c0.1-1,1-2.4,2.1-1.9
	c0.4,0.1,0.6-0.4,0.3-0.7c-1-0.7-2.2,0.3-2.8,1.3c-0.7,1.3-0.4,3,0.2,4.3c0.7,1.4,1.7,2.7,2.8,3.8c1,1,2.3,2,3.8,2.2
	c1.3,0.1,2.5-0.5,3.2-1.6c0.8-1.2,0.3-2.7-0.3-3.8c-0.8-1.4-2-2.7-3.1-3.8c-0.6-0.6-1.3-1.1-1.9-1.7c-0.4-0.3-0.9-0.7-1.4-0.5
	C6,76.5,6,76.7,6.2,76.7L6.2,76.7z"/>
<path class="st8" d="M6.2,78.1c-0.1,0.7,0.3,1.4,0.6,2c0.4,0.8,0.9,1.5,1.3,2.2c0.6,0.9,1.6,2.5,3,2.2c0.2-0.1,0.3-0.3,0.3-0.5
	c0-0.3-0.1-0.4-0.4-0.6c-0.2-0.2-0.5,0.1-0.4,0.3c0,0.1,0,0.2,0,0.4c0.1-0.1,0.2-0.3,0.3-0.4c-1,0.2-1.9-1.4-2.4-2.1
	c-0.4-0.6-0.8-1.2-1.2-1.8c-0.3-0.5-0.5-1.2-1-1.7C6.3,78,6.2,78.1,6.2,78.1L6.2,78.1z"/>
<path class="st8" d="M4.3,57.5c-1-0.5-1.9,0.6-2.4,1.4c-0.8,1.4-0.6,3.2,0,4.6c1.2,2.7,3.9,4.3,6.8,3.8c2.8-0.5,4.9-3.1,4.9-6
	c0-1.4-0.5-2.8-1.5-3.8c-0.8-0.9-2-1.4-3.1-1.7c-2.2-0.7-5.1-0.6-6,1.9c-0.1,0.3,0.3,0.5,0.5,0.2c1.3-2.2,4.3-1.7,6.3-0.7
	c1.2,0.6,2.1,1.4,2.6,2.8c0.4,1.4,0.2,2.9-0.6,4.1c-1.5,2.4-4.7,3.1-7,1.7c-1.5-0.9-2.5-2.6-2.7-4.3c-0.1-0.8,0-1.7,0.4-2.5
	c0.3-0.6,0.9-1.5,1.7-1.3C4.3,57.7,4.3,57.6,4.3,57.5L4.3,57.5z"/>
<path class="st8" d="M3.7,61.3C3.3,63.1,5.4,64.8,7,65c1.8,0.2,4.1-0.9,4.4-2.9c0-0.3-0.4-0.4-0.6-0.2c-0.8,1.3-1.9,2.2-3.5,2.3
	c-1.5,0-3.3-1.3-3.4-2.9C3.9,61.2,3.8,61.2,3.7,61.3L3.7,61.3z"/>
<path class="st8" d="M5.5,58.5c0.9-0.6,2-0.4,3,0c0.3,0.1,0.6-0.3,0.3-0.5c-1.2-0.5-2.4-0.5-3.4,0.3C5.3,58.4,5.4,58.6,5.5,58.5
	L5.5,58.5z"/>
<path class="st8" d="M24.4,66.1c2-1.5,4.2-3,6.9-2.9c1.3,0.1,2.6,0.7,3.1,1.9c0.5,1.1,0.4,2.5,0.1,3.6c-0.8,2.5-3.6,4.3-5.9,5.1
	c-1.3,0.4-2.5,0.4-3.7-0.3c-0.6-0.3-1.2-0.8-1.6-1.3c-0.4-0.6-0.4-1.1-0.4-1.8c0-0.4-0.5-0.5-0.6-0.1c-0.4,1.4,0.3,2.7,1.5,3.5
	c1.3,1,2.6,1.4,4.2,1.1c1.5-0.2,3-1.1,4.2-2c1.3-0.9,2.5-2.2,3.1-3.7c0.6-1.4,0.6-2.9,0.1-4.3c-0.5-1.5-1.7-2.3-3.2-2.6
	c-2.8-0.6-6.3,1.2-7.9,3.4C24.1,66.1,24.3,66.2,24.4,66.1L24.4,66.1z"/>
<path class="st8" d="M24,70.5c0,1.3,1.4,1.7,2.4,1.7c1.4,0,2.9-0.6,4-1.4c1-0.6,1.6-1.9,2-2.9c0.3-0.6,1-2.8-0.3-2.9
	c-0.2,0-0.2,0.2-0.1,0.3c0.7,0.7-0.2,2-0.5,2.8c-0.4,0.8-0.8,1.6-1.5,2.1c-0.9,0.6-2,1-3.1,1.3c-1.1,0.2-2.1,0-2.7-1
	C24.1,70.4,24,70.4,24,70.5L24,70.5z"/>
<path class="st8" d="M26.3,66.9c1.2-0.7,2.2-1.1,3.5-1.1c0.3,0,0.3-0.4,0-0.4c-1.5-0.2-2.6,0.5-3.7,1.4
	C26.1,66.8,26.2,66.9,26.3,66.9L26.3,66.9z"/>
<path class="st8" d="M32.9,82.7c-2.5,0.2-3.9,3.3-4.4,5.4c-0.5,2.3,0.3,5,3,5.1s4.7-2.2,5.4-4.6c0.6-2,0.8-7.3-2.5-6.9
	c-0.7,0.1-1.3,0.4-1.9,0.7c-0.3,0.2-0.1,0.7,0.2,0.5c0.9-0.3,2.3-0.9,3,0.1s0.7,2.8,0.5,4c-0.3,2.4-1.6,4.7-4,5.1
	c-0.9,0.2-1.8-0.1-2.4-0.8c-0.7-0.9-0.7-2.1-0.5-3.1C29.6,86.1,30.8,83.6,32.9,82.7C33.1,82.9,33.1,82.7,32.9,82.7L32.9,82.7z"/>
<path class="st8" d="M33.9,84.1c0.8,0.7-0.1,2.6-0.4,3.3c-0.2,0.5-0.5,1.1-0.7,1.6c-0.1,0.2-0.3,0.5-0.6,0.7
	c-0.5,0.4-0.7,0.1-0.9-0.3c-0.1-0.2-0.5-0.1-0.5,0.1c0.1,0.9,0.7,1.4,1.6,1c0.7-0.4,1.1-1.3,1.4-2c0.4-0.9,0.6-1.8,0.8-2.7
	c0.1-0.6,0.1-1.4-0.6-1.7C33.9,83.9,33.8,84,33.9,84.1L33.9,84.1z"/>
<path class="st8" d="M53.6,44.6c1-1.3,2.6-2.1,4-2.9c1.5-1,2.9-2,4.5-2.9c1.7-0.9,3.5-1.5,5.3-2.1c1.9-0.6,3.9-1.1,5.9-1.2
	c2.1-0.1,4.3,0.3,6.4,0.3c0.9,0,1.8,0,2.7-0.1c0.7-0.1,1.3-0.4,2-0.4c0.8-0.1,0.7,0.6,0.6,1.2c-0.2,0.8-0.6,1.4-1.1,1.9
	c-1.1,1.1-2.8,1.6-4.3,2c-1.1,0.3-2.1,0.5-3.1,0.9c-1.1,0.5-2,1.2-3,1.9c-0.9,0.6-1.9,1.3-2.9,1.7c-1.2,0.5-2.7,0.7-4,0.9
	c-1.4,0.2-2.8,0.3-4.1,0.3c-1.4,0-2.7-0.4-4.1-0.4c-1.2,0-2.4,0.6-3.6,0.6c-0.7,0-2.7-0.6-1.4-1.4c0.5-0.3,0.1-0.9-0.4-0.7
	c-1.3,0.6-1.3,1.9-0.2,2.7c1.3,0.9,2.9,0.5,4.3,0.1c1.9-0.5,3.7,0.2,5.6,0.2c2,0,3.9-0.2,5.8-0.6c1.7-0.4,3.2-0.9,4.7-1.9
	c1.4-0.9,2.7-2,4.2-2.6s3.1-0.7,4.6-1.3c1.4-0.6,2.7-1.5,3.5-2.8c0.6-1,0.9-2.5,0.2-3.5c-0.7-0.9-2.6-0.2-3.4,0
	c-1.8,0.4-3.9,0.1-5.8,0c-2-0.1-3.8-0.2-5.8,0.2c-3.5,0.6-7,2-10.1,3.8c-1.4,0.9-2.7,1.9-4.1,2.9c-1.2,0.8-2.6,1.6-3.3,2.9
	C53.1,44.6,53.4,44.8,53.6,44.6L53.6,44.6z"/>
<path class="st8" d="M69.7,38.6c-0.6-0.2-1.4,0-2,0.2C67,39,66.2,39.4,65.8,40c-0.9,1.3,0.8,2.5,2,2.4c1.3-0.1,2.5-1.2,3.1-2.3
	c0.2-0.4,0.3-0.9,0.1-1.3c-0.3-0.5-1-0.4-1.5-0.3s-0.3,0.8,0.2,0.7c0.1,0,0.6-0.1,0.7,0.1c0.1,0.3-0.2,0.6-0.3,0.8
	c-0.5,0.7-1.4,1.4-2.3,1.5c-0.5,0-0.9-0.1-1.2-0.4c-0.5-0.4-0.2-0.9,0.2-1.2c0.8-0.7,2-1,3-1.2C69.8,38.8,69.8,38.6,69.7,38.6
	L69.7,38.6z"/>
<path class="st8" d="M67.3,51.2c0.7-0.4,1.7-0.3,2.5-0.3c0.9,0,1.8-0.3,2.6-0.6c1.9-0.7,3.8-1.5,5.8-1.9c2.1-0.4,4.3-0.4,6.4-0.1
	c1.9,0.3,3.8,1,5.8,1c0.6,0,1.3-0.2,1.9,0c0.6,0.1,0.8,0.9,0.5,1.3c-0.5,0.9-1.8,1.5-2.8,1.8c-3.6,1.1-6.7,3.3-10.5,4
	c-3,0.5-6.3,0-9.3-0.7c-1.4-0.4-2.8-0.9-3.9-2c-0.3-0.3-0.7-0.8-0.6-1.2c0.2-0.5,1-0.7,1.5-0.9c0.5-0.2,0.3-0.9-0.2-0.8
	c-1.1,0.2-2.5,0.9-2.2,2.2c0.3,1.4,2,2.4,3.2,3c1.6,0.7,3.5,1,5.2,1.3c1.9,0.3,3.8,0.4,5.7,0.2c1.9-0.2,3.7-0.8,5.4-1.6
	c1.7-0.8,3.4-1.7,5.2-2.3c1.1-0.4,2.2-0.7,3.2-1.4c0.8-0.6,1.6-1.6,1.1-2.7c-0.4-0.7-1-1.1-1.8-1.1c-0.4,0-0.9,0-1.3,0.1
	c-0.6,0-1.1,0-1.7-0.1c-1.3-0.2-2.6-0.5-3.9-0.7s-2.7-0.3-4-0.2c-2.6,0.1-5,0.8-7.4,1.8c-1.2,0.5-2.4,1.1-3.6,1.3
	c-1,0.2-2,0-2.9,0.6C67,51.1,67.1,51.3,67.3,51.2L67.3,51.2z"/>
<path class="st8" d="M80.2,51c-0.9,0.1-2.1,0.3-2.7,1.1c-0.3,0.4-0.2,0.9,0.1,1.3c0.3,0.3,0.7,0.4,1.1,0.5c0.9,0.1,2-0.3,2.7-0.8
	c0.3-0.2,0.5-0.6,0.4-1c-0.1-0.5-0.6-0.7-1-0.8c-0.4-0.1-0.6,0.5-0.3,0.7c0.1,0.1,0.5,0.2,0.5,0.4c0,0.1-0.3,0.3-0.4,0.3
	c-0.5,0.3-1.2,0.5-1.8,0.5c-0.6,0-1.1-0.4-0.6-0.9s1.4-0.7,2-1C80.3,51.2,80.3,50.9,80.2,51L80.2,51z"/>
<path class="st8" d="M100.7,12.6c-0.1,1.6,0,3.2,0.1,4.8c0.1,1.5-0.2,3.1,0.2,4.6c0.7,2.6,4,2.4,6.1,2.3c2.2-0.1,5.1,0.5,6.6-1.6
	c0.9-1.2,0.7-3,0.5-4.4c-0.2-1.3-0.4-2.6-0.5-4c0-1.2-0.1-2.4-0.3-3.5c-0.2-0.8-0.5-1.7-1.5-1.7c-0.8,0-0.9,1-1,1.6
	c-0.1,1,0,2,0.1,3.1c0,0.3,0,0.7,0,1s-0.2,0.6-0.3,0.8c-0.2,0.4-0.6-0.7-0.6-0.9c-0.4-1.3,0-2.9-0.1-4.2c0-1.7,0-3.7-0.8-5.3
	c-0.3-0.6-0.8-1-1.4-0.8c-0.6,0.1-0.9,0.9-1,1.4c-0.5,2-0.2,4.2,0,6.2c0.1,0.7,0.1,1.4,0.1,2c0,0.5,0,0.9-0.1,1.4
	c-0.1,0.3-0.6,0.8-0.8,0.3c-0.5-1.4,0.5-4.1-1.2-4.9c-0.2-0.1-0.4-0.1-0.5,0.1c-0.4,0.6-0.4,1.4-0.4,2.1c0,0.8,0.2,1.7-0.4,2.3
	c0.2,0,0.4,0.1,0.6,0.1c-1-1.3-0.8-3.1-0.6-4.6c0.1-1.6,0.2-3.3-0.6-4.7c-0.1-0.1-0.3-0.2-0.4-0.2C101.4,6.3,101.1,8,101,9
	c-0.2,1.4-0.2,2.7-0.2,4.1c0,0.4,0.6,0.4,0.6,0c0-1.1,0.2-2.2,0.3-3.3c0.1-0.7,0.2-1.4,0.4-2c0.1-0.4,0.3-1,0.7-1.2
	c-0.1-0.1-0.3-0.1-0.4-0.2c1.6,2.8-0.8,6.6,1.3,9.3c0.2,0.2,0.4,0.3,0.6,0.1c1.4-1.2,0.1-3.1,0.9-4.5c-0.2,0-0.3,0.1-0.5,0.1
	c0.9,0.4,0.7,2,0.7,2.8c0,0.7-0.1,1.8,0.6,2.3c0.3,0.2,0.9,0.1,1.2-0.1c0.5-0.2,0.7-0.8,0.7-1.2c0.2-0.8,0.1-1.6,0-2.4
	c-0.2-2.2-0.6-4.5-0.2-6.7c0.1-0.5,0.4-1.6,1-0.8c0.5,0.8,0.6,2,0.7,2.9c0.1,0.8,0.1,1.6,0.1,2.4c0,1.4-0.2,2.8,0.1,4.3
	c0.1,0.8,1.1,2.5,2,1.3c0.6-0.8,0.5-1.7,0.5-2.6c-0.1-1-0.2-2.1,0-3c0-0.2,0.1-0.6,0.3-0.6c0.4,0,0.5,0.7,0.6,1
	c0.3,1.2,0.2,2.4,0.2,3.6c0,1.4,0.3,2.7,0.4,4c0.1,1.1,0.2,2.4-0.3,3.4c-0.4,0.9-1.5,1.2-2.4,1.3c-1,0.2-2,0.1-3,0.1
	c-0.7,0-1.4,0-2.1,0c-0.9,0-1.9,0-2.7-0.4c-1.2-0.5-1.2-2.1-1.2-3.2c0-2.4-0.4-4.8-0.6-7.2C101.1,12.4,100.7,12.4,100.7,12.6
	L100.7,12.6z"/>
<path class="st8" d="M108.1,20c-0.4-0.3-0.8-0.3-1.3-0.1c-0.4,0.1-1,0.4-1.2,0.8c-0.5,1.1,0.5,1.6,1.5,1.6c0.7,0,2.2-0.3,2.6-0.9
	c0.4-0.8-0.9-1.4-1.4-1.5c-0.3-0.1-0.6,0.4-0.2,0.6c0.3,0.1,0.6,0.3,0.8,0.5c0.3,0.3-0.5,0.4-0.7,0.4c-0.3,0.1-2,0.6-1.9-0.2
	c0.1-0.6,1.5-1,1.9-0.9C108.1,20.2,108.2,20.1,108.1,20L108.1,20z"/>
<path class="st8" d="M119,10.6c-0.1,0.9-0.3,1.8-0.4,2.7c-0.1,1.1-0.2,2.2-0.2,3.4c-0.1,1.7-0.5,3.6,0.1,5.2
	c1.2,3.3,5.2,2.3,7.8,2.2c1,0,2,0,3.1,0c0.9,0,1.8,0,2.7-0.2c1.6-0.4,2-2,1.8-3.5c-0.1-0.9-0.3-1.8-0.5-2.8
	c-0.2-1.1-0.2-2.2-0.3-3.3c-0.2-2-0.4-4-0.4-6c0-0.9,0-1.9-0.4-2.8c-0.4-0.9-1.6-0.7-2.1,0c-1.1,1.5-0.6,3.7-0.8,5.5
	c-0.1,1-0.2,1.9-0.5,2.8c-0.1,0.3-0.2,0.7-0.4,0.9c-0.1,0.1-0.2-0.5-0.2-0.7c0-0.6,0.1-1.2,0.2-1.9c0.1-1,0.1-2,0-2.9
	c0-1,0.4-3.4-1.2-3.5c-1.3-0.1-1.8,2.3-1.9,3.2c-0.3,1.7,0.3,3.6-0.2,5.2c-0.3,0.8-0.7-0.4-0.7-0.7c0-0.4,0-0.8,0-1.2
	c0-0.8-0.2-1.4-0.7-2c-0.4-0.4-1.1-0.5-1.5-0.1c-0.4,0.3-0.5,0.9-0.5,1.4c-0.1,0.6,0,1.2,0,1.8c0,0.3-0.1,0.6-0.3,0.9h0.1
	c-0.1-0.2-0.2-0.4-0.3-0.6c-0.1-0.3-0.1-0.7-0.1-1c0-1.8,0.7-3.6,0-5.3c-0.4-0.9-1.7-1.8-2.2-0.4c-0.3,0.8-0.3,1.7-0.3,2.6
	c0,1,0,2.1,0,3.1c0,0.1,0,0.2,0,0.2c0,0.4,0.6,0.5,0.7,0.1c0.1-0.9,0.2-1.8,0.2-2.7c0-1-0.1-2.3,0.4-3.1c0.2-0.3,0.6,0.6,0.6,0.7
	c0.2,0.4,0.2,0.9,0.2,1.4c0,0.9-0.2,1.9-0.3,2.8c-0.1,0.8-0.1,1.6,0.3,2.4c0.2,0.5,0.8,0.9,1.3,0.5c0.9-0.7,0.6-2.3,0.7-3.3
	c0-0.2,0-0.6,0.2-0.8c0.3-0.4,0.7,0.9,0.8,1.1c0.1,0.8-0.1,1.6,0.1,2.4c0.2,0.6,0.7,1.1,1.3,1.1c0.7,0,1-0.9,1.2-1.4
	c0.5-1.7-0.2-3.6,0.2-5.3c0.1-0.6,0.3-1.7,0.8-2c0.2-0.2,0.3,1,0.3,1.1c0,0.4,0,0.8,0,1.3c0,1,0.1,2,0,3c0,0.6-0.2,1.3-0.2,1.9
	c0,0.8,0.3,1.9,1.3,1.8c0.7-0.1,1-1.3,1.2-1.8c0.2-0.9,0.4-1.9,0.4-2.9c0.1-0.7,0-1.4,0.1-2.2c0-0.7,0-2.7,0.9-3
	c0.3-0.1,0.3,2.2,0.3,2.4c0,1.9,0.2,3.9,0.4,5.8c0.1,1.5,0.2,3.1,0.5,4.6c0.2,1.1,0.9,3.2-0.3,4c-0.4,0.3-1,0.3-1.5,0.3
	c-0.8,0-1.7,0-2.5,0c-1.4,0-2.8,0.1-4.2,0.2c-1.1,0.1-2.2,0.2-3.2-0.3c-1.3-0.6-1.4-2.1-1.4-3.3c0-1.5,0.1-2.9,0.1-4.4s0.3-3,0-4.5
	C119.3,10.4,119,10.4,119,10.6L119,10.6z"/>
<path class="st8" d="M127.7,19.9c-0.1-1.4-3.4-0.6-2.8,1c0.4,0.9,1.7,0.8,2.4,0.6c0.4-0.1,0.9-0.4,1-0.9c0.2-0.5-0.6-0.8-0.9-1
	c-0.4-0.1-0.5,0.4-0.2,0.6c0.1,0.1,0.2,0.2,0.4,0.3c0.1,0.1,0.1,0.1,0,0c-0.1,0.1-0.1,0.1-0.2,0.1c-0.2,0.1-0.4,0.2-0.6,0.2
	c-0.4,0.1-1.2,0.1-1.2-0.4c0-0.4,0.6-0.6,0.9-0.7C126.9,19.6,127.4,19.6,127.7,19.9C127.6,20.1,127.7,20,127.7,19.9L127.7,19.9z"/>
<path class="st8" d="M126.2,36.3c-0.7-1-2-0.8-3-0.6c-1.3,0.3-2.4,1-3.3,2c-2.1,2.2-2.8,5.8-1.7,8.6c1,2.5,3.4,4.2,6,4.6
	c2.9,0.5,6-0.7,8-2.9c1.8-2.1,2.1-4.8,0.9-7.2c-1.2-2.4-3.9-4.8-6.6-5.1C126.1,35.6,125.9,36.2,126.2,36.3c1.9,0.4,3.4,1.5,4.6,2.8
	c1.2,1.2,2,2.8,2,4.5c0,3.2-3,5.6-5.9,6.2c-2.7,0.5-5.7-0.6-7.2-2.9c-1.8-2.7-1-6.6,1.1-8.9c0.6-0.7,1.4-1.1,2.2-1.5
	c0.9-0.4,2.1-0.8,3-0.1C126.1,36.5,126.3,36.4,126.2,36.3L126.2,36.3z"/>
<path class="st8" d="M125,41.8c-0.4-0.2-0.6-0.3-1-0.2c-0.4,0.1-0.7,0.4-0.9,0.7c-0.5,0.7-0.9,1.7-0.7,2.6c0.4,2,2.9,2.5,4.6,1.9
	c1.9-0.6,2.5-2.5,1.5-4.2c-0.8-1.4-2.9-2.5-4.4-1.3c-0.2,0.2,0,0.6,0.3,0.5c1.2-0.4,2.3-0.1,3,1c0.8,1.1,0.7,2.4-0.5,3
	c-1,0.6-2.8,0.5-3.5-0.5c-0.6-0.9,0.1-3.8,1.5-3.2C125,42,125.1,41.8,125,41.8L125,41.8z"/>
<path class="st8" d="M125.3,44.2L125.3,44.2C125.3,44.2,125.3,44.1,125.3,44.2C125.3,44.1,125.3,44.1,125.3,44.2
	c0-0.2-0.1-0.3-0.2-0.3s-0.2,0-0.2,0.1c-0.1,0.1-0.1,0.2-0.1,0.3c0,0.1,0,0.1,0.1,0.2l0,0c0-0.1,0,0,0,0c0.1,0.2,0.3,0.3,0.5,0.2
	c0,0,0.1,0,0.1-0.1l0,0h-0.1c0.2,0,0.4-0.2,0.4-0.4c0-0.2-0.1-0.3-0.3-0.4c-0.3-0.1-0.5,0.1-0.5,0.4c0-0.1,0-0.1,0.1-0.2l0,0l0,0
	c0,0.1-0.1,0.1-0.1,0.2C125,44.3,125.2,44.3,125.3,44.2L125.3,44.2C125.2,44.1,125.2,44.1,125.3,44.2L125.3,44.2L125.3,44.2
	C125.3,44.2,125.3,44.1,125.3,44.2c-0.1,0-0.1,0-0.2,0.1l0,0H125c0,0,0,0-0.1-0.1c0,0.1,0.1,0.1,0.2,0.1
	C125.3,44.4,125.3,44.2,125.3,44.2L125.3,44.2z"/>
<path class="st8" d="M136.4,50.3c-2.2-1.5-4.8,0.4-6.1,2.1c-1.6,2.1-2.5,4.6-1.8,7.1c1.6,5.6,9.3,6.9,13.1,2.9
	c1.7-1.8,2.6-4.6,1.7-7c-0.9-2.6-3.8-4.9-6.5-5.3c-0.4-0.1-0.6,0.5-0.2,0.7c1.8,0.5,3.2,1.7,4.4,3.1c1,1.3,1.6,2.6,1.4,4.3
	c-0.3,3-3,5.2-5.9,5.5c-2.7,0.3-5.4-1-6.6-3.4c-1.3-2.5-0.4-5.3,1.2-7.4c1.3-1.7,3.1-3,5.3-2.3C136.4,50.5,136.4,50.4,136.4,50.3
	L136.4,50.3z"/>
<path class="st8" d="M136.4,56c-1.2-0.8-2.3,0-2.8,1.1c-0.6,1.4-0.4,3,0.9,3.9c1.4,1,3.7,0.5,4.8-0.7c1.5-1.6-0.3-4.6-2.4-4.4
	c-0.3,0-0.5,0.6-0.1,0.6c1.5,0.3,3,2.1,1.5,3.4c-0.9,0.8-2.6,1-3.6,0.3c-1.6-1.1-0.6-5.3,1.5-4.1C136.4,56.2,136.5,56.1,136.4,56
	L136.4,56z"/>
<path class="st8" d="M137.3,59c0.1,0,0.1-0.1,0.1-0.2s-0.1-0.2-0.2-0.2c-0.1,0-0.2,0-0.3,0l0,0l0,0c0,0-0.1,0-0.1,0.1
	c-0.1,0.1-0.1,0.2-0.1,0.3c0,0.1,0,0.2,0.1,0.3c0.1,0.1,0.3,0.1,0.4,0.1c0.1,0,0.2-0.1,0.3-0.2s0.2-0.3,0.1-0.5
	c-0.1-0.1-0.2-0.2-0.3-0.2s-0.1,0-0.2,0.1c-0.2,0.1-0.2,0.3-0.2,0.4s0.1,0.2,0.2,0.2c0.1,0.1,0.2,0.1,0.3,0l0,0h-0.1l0,0h-0.1l0,0
	c-0.1-0.1-0.2-0.2-0.3-0.3l0,0c0-0.1,0-0.1,0-0.2l0,0c0-0.1,0.1-0.1,0.1-0.2c0,0-0.1,0.1,0.1,0c-0.1,0.1-0.1,0.1-0.1,0.1s0,0,0,0.1
	l-0.1,0.1C136.9,58.9,137.1,59,137.3,59C137.3,59,137.3,58.9,137.3,59C137.3,58.8,137.3,59,137.3,59c0-0.1,0.1-0.2,0.1-0.2
	C137.3,58.9,137.3,58.9,137.3,59C137.2,59,137.1,59,137.3,59C137.2,59,137.2,59,137.3,59C137.2,59,137.2,59,137.3,59
	C137.3,59,137.2,59,137.3,59C137.2,59,137.2,59,137.3,59L137.3,59C137.2,59,137.2,59,137.3,59c-0.1-0.1-0.1-0.1-0.1-0.1l0,0
	C137.2,58.9,137.2,59,137.3,59L137.3,59z"/>
<path class="st8" d="M107.5,66.4c0.9-2.4,1.2-4.9,2.6-7.1c0.6-1,1.7-2,2.9-2.1c0.9-0.1,1.2,0.9,1.3,1.6c0.3,1.8-0.1,3.8-0.8,5.5
	c-0.4,1.1-1.1,2.2-2.2,2.7c-1.3,0.7-2.8-0.7-3.8-1.4c-0.4-0.2-0.9,0.3-0.5,0.7c1,0.9,2.4,1.8,3.8,1.8c1.2-0.1,2.1-1,2.8-1.9
	c1.2-1.7,1.6-4,1.7-6c0-1.7-0.3-4.2-2.6-3.8c-2.7,0.5-4,3.5-4.6,5.8c-0.4,1.3-0.6,2.8-0.8,4.2C107.1,66.6,107.4,66.6,107.5,66.4
	L107.5,66.4z"/>
<path class="st8" d="M107.2,66.2c-0.6,2.1-3,5.2-1,7.2c1.2,1.3,2.9,0.4,3.8-0.8c0.5-0.7,0.9-1.5,1.3-2.3s0.7-1.6,0.9-2.4
	c0.1-0.5-0.6-0.7-0.7-0.2c-0.4,1.3-1,2.6-1.7,3.8c-0.7,1.1-2.3,2.4-3.2,0.8c-0.5-0.9,0-2.2,0.3-3.1s0.7-1.8,0.8-2.8
	C107.6,66.1,107.3,66.1,107.2,66.2L107.2,66.2z"/>
<path class="st8" d="M106.9,73.8c-1,1.4-1.4,3.4-1.4,5.1c-0.1,1.9,0.3,3.7,0.8,5.5c0.9,2.9,2.7,5.4,5.4,6.8c3.1,1.5,6.6,1.3,9.6-0.2
	c3.1-1.5,4.9-4.4,7.5-6.6c1.7-1.4,4-2.3,6.2-1.7c2,0.5,3.4,2.3,4,4.2c0.4,1.4,0.7,2.9,0.4,4.3c-0.2,0.7-0.5,1.2-1.2,1.5
	c-1.3,0.4-1.9-0.7-1.9-1.8c0-0.5-0.8-0.5-0.8,0c-0.1,1.2,0.5,2.6,1.9,2.8c1.1,0.1,2.1-0.4,2.6-1.4c1-1.8,0.4-4.5-0.3-6.3
	c-1.1-2.8-3.7-4.7-6.7-4.5c-3.3,0.2-5.7,2.7-7.8,5c-1.9,2.1-4.1,3.8-6.9,4.4c-2.7,0.6-5.6,0-7.8-1.6c-2.1-1.5-3.2-3.9-3.8-6.4
	c-0.4-1.5-0.6-3-0.5-4.6c0-1.6,0.5-3,0.9-4.5C107.3,73.7,107,73.6,106.9,73.8L106.9,73.8z"/>
<g>
	<path class="st8" d="M25.4,122c-1.4-0.9-3.2-0.3-4.4,0.7c-1.1,0.9-1.6,2.6-0.3,3.6c1.4,1.1,3.9,1.1,5.3,0.1
		c1.7-1.2,1.6-4.1-0.7-4.3c-0.5,0-0.5,0.7-0.1,0.8c0.8,0.3,1.2,0.8,1,1.7c-0.2,0.8-0.8,1.2-1.5,1.4c-1.1,0.3-2.8,0.3-3.7-0.6
		c-0.7-0.7,0.3-1.9,0.9-2.3c1-0.8,2.2-1,3.4-0.6C25.5,122.4,25.6,122.1,25.4,122L25.4,122z"/>
	<path class="st8" d="M22.2,110.1c0,0.3,0.1,0.5,0.1,0.7c0.1,0.4,0.1,0.8,0.2,1.3c0.1,0.9,0,1.7,0,2.6c-0.1,1.4,0,3.1-1.7,3.3
		c-2,0.2-4-0.6-5.7-1.4c-1.7-0.7-3.5-1.8-5.4-1.9c-0.5,0-0.6,0.7-0.1,0.8c1.1,0.3,2.2,0.6,3.3,1.1c1,0.4,2,0.9,3.1,1.4
		c1.7,0.7,4,1.5,5.9,0.7c1.6-0.6,1.6-2.5,1.6-3.9c0-1,0-1.9-0.2-2.9c-0.1-0.6-0.2-1.6-0.8-2C22.3,110,22.2,110,22.2,110.1
		L22.2,110.1z"/>
	<path class="st8" d="M9.8,115.8C9.9,115.6,9.7,115.6,9.8,115.8s0.2,0.4,0.3,0.5c0.2,0.3,0.5,0.5,0.8,0.8c0.6,0.5,1.3,1,2,1.5
		c1.3,0.9,3.1,1.9,3.6,3.5c0.5,1.9-1.2,3.8-2.5,5c-0.8,0.7-1.6,1.4-2.4,2c-0.8,0.6-1.6,1.2-2.2,2.1c-0.3,0.4,0.3,0.8,0.7,0.5
		c0.8-0.7,1.5-1.4,2.3-2c0.9-0.7,1.8-1.5,2.7-2.3c1.5-1.4,2.8-3.3,2.3-5.4c-0.3-1.7-2.1-2.8-3.5-3.7c-0.8-0.5-1.7-1-2.5-1.5
		c-0.4-0.3-0.7-0.5-1-0.9c-0.2-0.2-0.4-0.6-0.7-0.6c-0.1,0-0.2,0.1-0.2,0.2c0,0.1,0,0.2,0.1,0.3C9.7,115.8,9.8,115.9,9.8,115.8
		L9.8,115.8z"/>
	<path class="st8" d="M10,132c1.2-0.1,2.3-1.1,3.5-1.4c1.6-0.4,3.3-0.6,4.7,0.2c2.6,1.4,2.5,4.6,3.9,6.9c0.4,0.6,1.2,0.1,0.9-0.5
		c-1.3-2.6-1.6-5.6-4.3-7.2c-1.4-0.8-3.1-0.6-4.5-0.3c-1.6,0.3-2.8,1.2-4.2,2.1C9.8,131.8,9.9,132,10,132L10,132z"/>
	<path class="st8" d="M22.2,138.1c0.9-1,1-2.4,1.7-3.5c0.7-1.4,1.8-2.6,3.4-3c1.4-0.3,2.4,0.8,3.2,1.8c0.6,0.7,1.5,1.7,1.6,2.7
		c0.1,0.6,0.8,0.7,1,0.1c0.3-1-1-2.5-1.6-3.2c-0.9-1.2-2.1-2.3-3.6-2.4c-1.6-0.1-3.1,1.2-4,2.4c-0.5,0.7-0.8,1.4-1.1,2.2
		c-0.3,0.9-0.3,1.9-0.7,2.8C22,138.1,22.1,138.2,22.2,138.1L22.2,138.1z"/>
	<path class="st8" d="M22.7,110.5c0.1,1.5,0.4,3.1,0.8,4.5c0.3,1.4,0.9,3,2.3,3.7c1.4,0.6,3.1,0.1,4.3-0.4c1.4-0.6,2.9-1.4,4-2.6
		c0.4-0.5-0.2-1.1-0.7-0.7c-1,0.8-2.2,1.6-3.4,2.2c-1.2,0.6-2.8,1.2-4.1,0.6c-1.2-0.6-1.6-2.3-1.9-3.4
		C23.7,113.2,23.5,111.6,22.7,110.5C22.8,110.4,22.7,110.4,22.7,110.5L22.7,110.5z"/>
	<path class="st8" d="M33.8,116c-1.1,0.5-2.1,1.4-2.8,2.4c-0.8,0.9-1.4,2.1-1.2,3.3c0.3,2.3,3.8,2.4,5.6,2.4c1.2,0,2.3-0.1,3.5,0
		c2.2,0,4.4,0.1,6.6,0.2c4.4,0.2,8.8,0.5,13.2,0.8c5.8,0.3,11.6,0.4,17.4,0c1.3-0.1,2.6-0.2,4-0.4c0.4,0,0.7-0.1,1-0.1
		c0.1,0,0.1,0,0.2,0h0.1c0.3,0-0.2,0-0.1,0c-0.1,0-0.2-0.2-0.2-0.4c-0.1,0.4,0.6,0.6,0.7,0.2c0.1-0.7-0.8-0.5-1.3-0.4
		c-1.3,0.1-2.7,0.2-4,0.3c-6.6,0.3-13.2,0.1-19.8-0.2c-6.8-0.4-13.6-1-20.4-0.8c-1,0-2,0-3-0.1c-0.9-0.1-1.9-0.4-2.3-1.2
		c-0.5-0.9,0.3-2.1,0.8-2.9c0.6-0.9,1.5-1.8,2.4-2.5C34.3,116.2,34.1,115.8,33.8,116L33.8,116z"/>
	<path class="st8" d="M33.8,136.7c0.7-1,0.5-2.1,0.1-3.2c-0.4-1.3-1.1-2.5-1.5-3.9c-0.1-0.5-0.2-1.2,0-1.7c0.3-0.6,0.9-0.8,1.5-0.9
		c1.4-0.3,2.9,0,4.2,0.1c2.1,0.1,4.3-0.1,6.4-0.1c2.2-0.1,4.4,0.1,6.6,0.1c4.4,0.1,8.8,0.2,13.2,0.2c5.4,0,10.8,0,16.1-0.1
		c0.7,0,0.7-1,0-1c-8.7,0.2-17.4,0.1-26.1,0c-2.2,0-4.4-0.1-6.6-0.1c-2.2-0.1-4.3,0-6.4,0.1c-1.8,0.1-3.6,0-5.4-0.1
		c-1.2-0.1-2.5,0-3.5,0.7c-1.5,1.1-0.9,3.2-0.3,4.6c0.4,0.9,0.8,1.7,1.2,2.6c0.3,0.8,0.6,1.8,0.3,2.6
		C33.3,136.7,33.7,136.9,33.8,136.7L33.8,136.7z"/>
	<path class="st8" d="M88.4,114.9c0.2,2-1.7,3.7-2.9,5c-0.7,0.7-1.3,1.4-2,2.1c-0.8,0.9-1.8,1.6-2.7,2.4c-0.3,0.3,0,0.9,0.4,0.7
		c1.2-0.5,2.1-1.5,3-2.5c0.7-0.8,1.4-1.6,2.2-2.5c1.2-1.4,3-3.4,2.5-5.4C88.8,114.6,88.4,114.6,88.4,114.9L88.4,114.9z"/>
	<path class="st8" d="M91.9,126.1c-1.5,0.5-3.4-0.2-4.9-0.5c-0.9-0.2-1.7-0.4-2.6-0.5c-1.1-0.2-2.3-0.7-3.4-0.6
		c-0.4,0-0.6,0.6-0.2,0.8c1.1,0.5,2.5,0.6,3.6,0.8c0.9,0.1,1.8,0.3,2.8,0.4c1.6,0.3,3.4,0.7,4.9,0C92.2,126.3,92.1,126,91.9,126.1
		L91.9,126.1z"/>
	<path class="st8" d="M89.6,132.2c-0.8,0-1.5-0.6-2-1.1c-0.6-0.5-1.1-1-1.7-1.6c-0.7-0.7-1.3-1.3-2-1.9c-0.4-0.4-0.9-0.8-1.3-1.2
		s-0.7-0.8-1.2-0.9c-0.3-0.1-0.5,0.2-0.5,0.5c0.2,0.5,0.6,0.8,1,1.1c0.5,0.5,1,0.9,1.5,1.4c0.7,0.7,1.5,1.3,2.2,2
		c1.1,1,2.4,2.3,4,2.1C89.8,132.5,89.7,132.2,89.6,132.2L89.6,132.2z"/>
	<path class="st8" d="M84.1,137.2c0.2-3.5-0.6-7.4-2.7-10.2c-0.4-0.6-1.4,0-1,0.6c1,1.3,1.6,2.9,2.1,4.5s0.9,3.4,1.1,5.1
		C83.7,137.5,84,137.5,84.1,137.2L84.1,137.2z"/>
	<path class="st8" d="M83.2,116c0.5,0.6,0.6,1.6,0.7,2.3c0.1,0.8,0.1,1.7,0.2,2.5c0.1,0.6,0.8,0.3,0.9-0.1c0.1-0.9-0.2-1.9-0.4-2.7
		c-0.2-0.8-0.5-1.6-1.1-2.2C83.3,115.5,83,115.8,83.2,116L83.2,116z"/>
	<path class="st8" d="M90.1,122.9c-0.6,1.4-2.3,1.9-3.4,2.8c-0.3,0.3,0,0.9,0.4,0.7c0.7-0.3,1.4-0.9,2-1.4s1.2-1.2,1.3-2
		C90.4,122.9,90.2,122.7,90.1,122.9L90.1,122.9z"/>
	<path class="st8" d="M87.4,135c-1.1-0.7-2.7-1.8-4.1-1.4c-0.4,0.1-0.3,0.7,0.1,0.7c1.4,0,2.6,0.6,3.8,1.1
		C87.4,135.5,87.6,135.2,87.4,135L87.4,135z"/>
	<path class="st8" d="M79.7,136.5c0.5-1,1.1-1.9,1.7-2.9c0.5-0.9,1.2-2,1.2-3c0-0.3-0.5-0.5-0.6-0.2c-0.2,0.4-0.3,0.9-0.5,1.3
		c-0.2,0.6-0.5,1.2-0.8,1.7c-0.5,0.9-1,1.9-1.4,2.9C79.3,136.5,79.6,136.7,79.7,136.5L79.7,136.5z"/>
	<path class="st8" d="M34.1,111.1c0.1,0.1-0.1,0.7-0.1,0.8c-0.1,0.5-0.2,0.9-0.4,1.4c-0.1,0.5-0.3,0.9-0.5,1.4
		c-0.1,0.3-0.3,0.7-0.2,1s0.5,0.4,0.7,0.2c0.3-0.3,0.3-0.9,0.4-1.2c0.2-0.6,0.3-1.3,0.4-1.9c0.1-0.4,0.4-1.7-0.3-1.8
		C34.1,111,34,111.1,34.1,111.1L34.1,111.1z"/>
	<path class="st8" d="M39.6,111.9c-0.9,0.8-1.9,1.4-3,2c-0.5,0.3-1.1,0.6-1.6,0.9c-0.4,0.2-1,0.5-1.2,0.9c-0.2,0.3,0.1,0.5,0.4,0.5
		c0.5-0.1,1-0.5,1.4-0.8c0.5-0.3,1.1-0.7,1.6-1c1-0.6,2-1.3,2.7-2.2C40.1,111.9,39.8,111.7,39.6,111.9L39.6,111.9z"/>
	<path class="st8" d="M40.4,114.2c-0.7-0.1-1.3-0.2-2-0.3c-0.6-0.1-1.4-0.1-1.9,0.3c-0.2,0.2-0.2,0.6,0.2,0.6c0.6,0,1.1-0.2,1.7-0.2
		c0.7,0,1.3,0,2-0.1C40.6,114.5,40.6,114.2,40.4,114.2L40.4,114.2z"/>
	<path class="st8" d="M24.5,107.2c-0.3,0.9-0.6,1.8-1,2.7c-0.3,0.8-0.7,1.8-0.7,2.7c0,0.4,0.7,0.6,0.8,0.1c0.1-1,0.3-1.9,0.6-2.8
		c0.3-0.9,0.6-1.8,0.5-2.7C24.8,107,24.6,107,24.5,107.2L24.5,107.2z"/>
	<path class="st8" d="M21,105.1c0.2,1.2,0.2,2.5,0.4,3.7c0.1,0.9,0.4,2.7,1.4,3.2c0.3,0.1,0.7-0.1,0.5-0.4c-0.2-0.5-0.6-0.9-0.8-1.4
		c-0.2-0.6-0.4-1.2-0.5-1.7c-0.2-1.2-0.3-2.4-0.8-3.5C21.1,104.9,21,105,21,105.1L21,105.1z"/>
	<path class="st8" d="M19,107.6c0.9,0.6,1.5,1.6,2.5,2.1c0.3,0.2,0.5-0.2,0.3-0.4c-0.6-0.8-1.7-1.7-2.7-1.9
		C19,107.3,18.9,107.5,19,107.6L19,107.6z"/>
	<path class="st8" d="M5.4,112.6c0.9,0.4,1.6,1.1,2.3,1.8c0.7,0.6,1.8,1.6,2.8,1.5c0.5,0,0.6-0.8,0.1-0.8c-1.2-0.2-2.1-0.9-3-1.6
		c-0.5-0.3-1.6-1.4-2.2-1C5.4,112.5,5.3,112.6,5.4,112.6L5.4,112.6z"/>
	<path class="st8" d="M9.9,111.4c0.4,0.6,0.6,1.3,0.7,1.9c0.2,0.7,0.2,1.5,0.6,2.1c0.2,0.4,0.8,0.1,0.7-0.3
		c-0.1-0.7-0.5-1.4-0.7-2.1c-0.2-0.7-0.5-1.3-1-1.8C10.1,111,9.8,111.2,9.9,111.4L9.9,111.4z"/>
	<path class="st8" d="M7,116.9c1-0.2,2-0.7,2.9-1.2c0.3-0.2,0.1-0.6-0.2-0.5c-1,0.3-1.8,1.1-2.8,1.5C6.8,116.8,6.9,116.9,7,116.9
		L7,116.9z"/>
	<path class="st8" d="M10.4,119.3c0.3,0,0.6-0.1,0.9-0.3c0.3-0.2,0.6-0.3,1-0.3c0.3,0,0.4-0.5,0.1-0.6c-0.8-0.2-1.5,0.6-2,1
		C10.2,119.2,10.3,119.3,10.4,119.3L10.4,119.3z"/>
	<path class="st8" d="M5.7,135.7c0.8-0.8,1.7-1.5,2.5-2.2c0.9-0.7,1.9-1.3,2.7-2c0.3-0.3-0.1-0.8-0.5-0.6c-0.9,0.5-1.7,1.3-2.5,2
		c-0.9,0.8-1.7,1.6-2.5,2.6C5.3,135.7,5.6,135.9,5.7,135.7L5.7,135.7z"/>
	<path class="st8" d="M3.6,131.3c1,0.1,2,0.1,3,0.1c1.1,0,2.2,0.2,3.3,0.1c0.4,0,0.6-0.7,0.1-0.8c-1-0.2-2.1-0.1-3.1,0
		c-1.1,0-2.2,0.1-3.3,0.2C3.3,130.9,3.3,131.3,3.6,131.3L3.6,131.3z"/>
	<path class="st8" d="M5.7,128.9c0.4,1,1.3,1.6,2.1,2.3c0.3,0.3,0.8-0.2,0.5-0.5c-0.7-0.7-1.7-1.1-2.2-2
		C5.9,128.5,5.6,128.7,5.7,128.9L5.7,128.9z"/>
	<path class="st8" d="M23.2,142.2c0.4-0.8,0.4-1.7,0.2-2.6c-0.1-0.5-0.3-1-0.5-1.6c-0.2-0.4-0.3-1-0.7-1.3c-0.2-0.2-0.7-0.1-0.7,0.3
		c0,0.3,0.2,0.6,0.3,0.8c0.2,0.4,0.4,0.9,0.5,1.4c0.3,0.9,0.6,1.9,0.5,2.8C22.9,142.3,23.1,142.4,23.2,142.2L23.2,142.2z"/>
	<path class="st8" d="M20.4,142.8c0.6-0.8,0.9-1.8,1.1-2.8c0.3-1.1,0.6-2.1,1-3.1c0.1-0.3-0.3-0.5-0.5-0.3c-0.6,0.7-0.8,1.7-1,2.6
		c-0.2,1.2-0.4,2.3-1,3.4C20,142.8,20.3,143,20.4,142.8L20.4,142.8z"/>
	<path class="st8" d="M33,140.5c0.1-0.9-0.1-1.6-0.2-2.4c-0.2-1,0.2-2-0.1-2.9c-0.1-0.4-0.7-0.4-0.8,0c-0.2,0.7-0.1,1.7,0,2.4
		c0.2,1,0.7,1.9,0.7,2.9C32.6,140.6,33,140.7,33,140.5L33,140.5z"/>
	<path class="st8" d="M37.6,142.5c-0.2-1.4-1.3-2.4-2.2-3.5c-0.9-1.2-1.2-3.2-2.6-4.1c-0.3-0.2-0.8,0.2-0.6,0.6
		c0.4,0.6,0.9,1.1,1.2,1.7c0.4,0.7,0.7,1.4,1.2,2c0.8,1.1,2.2,1.9,2.6,3.3C37.4,142.8,37.7,142.7,37.6,142.5L37.6,142.5z"/>
	<path class="st8" d="M37.3,139.1c-0.9,0-1.9-0.4-2.8-0.3c-0.4,0-0.4,0.5,0,0.6c0.9,0.1,2.1,0.6,2.9,0
		C37.5,139.2,37.5,139.1,37.3,139.1L37.3,139.1z"/>
	<path class="st8" d="M7.6,137.5c0.1-0.6,0.2-1.3,0.3-1.9c0.1-0.6,0.4-1.1,0.5-1.7c0-0.3-0.4-0.4-0.6-0.2c-0.4,0.4-0.5,1.1-0.6,1.7
		c-0.1,0.7-0.1,1.4-0.1,2.2C7.3,137.7,7.6,137.7,7.6,137.5L7.6,137.5z"/>
</g>
<path class="st8" d="M55.8,81.4c0.5-0.3,0.8-0.8,1.2-1.3c0.5-0.7,0.9-1.5,1.5-2.2c0.6-0.8,1.3-1.8,2.2-2.3s2-0.4,2.9-0.4
	c0.9,0,1.8,0,2.7,0.1c0.9,0,1.6,0.3,2.2,0.9c0.7,0.8,1.1,1.9,1.5,2.9s0.8,2.2,1.6,3c0.3,0.3,0.9,0,0.8-0.5c-0.2-0.5-0.5-1-0.8-1.6
	s-0.5-1.1-0.8-1.7c-0.5-1-1-2.1-1.7-3c-1.2-1.4-3.4-1.1-5-1.2c-1,0-2,0-3,0.2c-1,0.3-1.8,1-2.4,1.8c-0.7,0.8-1.3,1.7-1.8,2.6
	c-0.2,0.4-0.4,0.8-0.6,1.2c-0.2,0.3-0.3,0.8-0.6,1C55.3,81.1,55.5,81.5,55.8,81.4L55.8,81.4z"/>
<path class="st8" d="M55.4,81.2c0.5,1.9,1.7,3.5,3.2,4.7s3,1.6,4.9,1.6c1.8,0,3.7,0.3,5.4-0.5c0.8-0.4,1.5-1.3,2-2
	c0.7-0.8,1-1.7,1.5-2.7c0.2-0.4-0.3-0.7-0.6-0.3c-0.4,0.7-1,1.4-1.5,2.1s-1.2,1.4-1.9,1.9c-0.7,0.4-1.6,0.4-2.4,0.4s-1.6,0-2.4,0
	c-1.7,0-3-0.2-4.4-1.2c-1.4-1.1-2.4-2.7-3.5-4.1C55.6,80.8,55.3,81,55.4,81.2L55.4,81.2z"/>
<path class="st8" d="M69,87.6c0.2-0.7,0.9-1.3,1.3-1.8c0.5-0.6,1-1.2,1.5-1.8c0.6-0.7,1.2-1.3,2-1.6c0.8-0.3,1.7-0.2,2.5-0.2
	c0.7,0,1.5-0.1,2.2-0.1c0.8,0.1,1.4,0.5,1.9,1.1c0.6,0.7,1,1.6,1.5,2.5s1,1.9,1.6,2.8c0.4,0.5,1.2,0,0.9-0.5c-0.6-1-1.2-2-1.7-3
	c-0.5-0.9-1-1.9-1.8-2.7c-1.3-1.4-3.1-1.1-4.8-1c-0.9,0-1.7,0.1-2.6,0.3c-0.9,0.3-1.6,1-2.2,1.7s-1.2,1.5-1.8,2.2
	c-0.5,0.6-1,1.2-0.9,2C68.8,87.7,69,87.8,69,87.6L69,87.6z"/>
<path class="st8" d="M68.9,87.2c-0.5,1.8,1.3,3.1,2.4,4.2c1.3,1.3,2.5,2.5,4.5,2.3c1.7-0.1,3.6,0.3,5.3-0.3c0.9-0.3,1.5-1.1,2.1-1.7
	c0.6-0.7,1.3-1.8,1.1-2.8c0-0.4-0.5-0.5-0.7-0.1c-0.3,0.9-0.6,1.6-1.3,2.3c-0.5,0.6-1.1,1.1-1.9,1.4c-1.4,0.5-3.1,0.1-4.5,0.2
	c-0.8,0.1-1.5,0-2.2-0.4c-0.6-0.4-1.2-1-1.7-1.5s-1.1-1-1.7-1.5c-0.6-0.6-0.9-1.3-1.2-2.1C69.2,87.1,69,87,68.9,87.2L68.9,87.2z"/>
<path class="st8" d="M54.9,93.7c0.4-0.1,0.7-0.5,0.9-0.9c0.5-0.6,0.9-1.2,1.5-1.7c0.6-0.6,1.3-1.3,2.1-1.8c0.6-0.4,1.3-0.4,1.9-0.5
	c1.5-0.1,2.9-0.4,4.4-0.3c1.7,0.1,2.6,1.6,3.4,2.9c0.4,0.7,0.9,1.3,1.4,1.9c0.3,0.3,0.4,0.7,0.3,1.1c-0.1,0.5-0.6,1.1-0.9,1.5
	c-0.6,0.8-1.2,1.5-1.8,2.3c-0.3,0.3-0.5,0.7-0.8,1.1s-0.7,0.5-1.2,0.5c-2,0.3-4.1-0.1-6.1-0.1c-0.4,0-0.8,0-1.1,0
	c-0.4,0-0.7-0.4-0.9-0.6c-0.6-0.7-1-1.6-1.4-2.4c-0.6-1-1.1-2.1-1.6-3.2c-0.2-0.4-0.8-0.1-0.7,0.3c0.7,1.8,1.5,3.5,2.5,5.1
	c0.4,0.6,0.8,1.2,1.4,1.5c0.2,0.1,0.5,0.1,0.7,0.1c0.5,0,1,0,1.5,0c1.9,0.1,4,0.5,6,0.2c0.6-0.1,1.2-0.3,1.6-0.8
	c0.6-0.8,1.2-1.6,1.8-2.4c1-1.2,2.5-2.7,1.6-4.3c-0.4-0.7-1-1.2-1.4-1.9c-0.5-0.7-0.9-1.4-1.5-2c-1-1.2-2-1.6-3.5-1.6
	c-1.4,0-2.9,0.2-4.3,0.4c-1.5,0.1-2.5,1-3.6,2c-0.5,0.5-1,1-1.4,1.7c-0.3,0.4-0.6,1.3-1.1,1.6C54.6,93.4,54.7,93.8,54.9,93.7
	L54.9,93.7z"/>
<path class="st8" d="M64.3,93.1c-0.7-0.8-1.8-0.3-2.2,0.5c-0.5,1,0.2,2,1.2,2.3s2.2,0,2.7-1c0.6-1.2-0.6-2.3-1.6-2.6
	c-0.4-0.1-0.7,0.5-0.3,0.7c0.5,0.3,1.3,0.7,1.2,1.3c-0.1,0.6-0.9,0.7-1.4,0.7c-0.6,0-1.2-0.5-1.1-1.1C62.9,93.2,63.7,92.9,64.3,93.1
	C64.4,93.3,64.4,93.2,64.3,93.1L64.3,93.1z"/>
<path class="st8" d="M66.4,82.6c-0.2-1.1-1.7-0.3-2.1,0.2c-0.5,0.7-0.3,1.9,0.7,2.1c0.8,0.2,1.6-0.3,2-0.9c0.5-0.7,0.3-1.6-0.6-1.7
	c-0.4,0-0.4,0.5-0.2,0.7c0.1,0,0.1,0.1,0.2,0.1c0.1,0.1,0.1,0.1,0.1,0c0,0.1-0.1,0.2-0.2,0.4c-0.2,0.3-0.6,0.6-1,0.6
	s-0.7-0.5-0.5-0.8C65,82.8,65.8,82.2,66.4,82.6C66.3,82.8,66.4,82.7,66.4,82.6L66.4,82.6z"/>
<path class="st8" d="M75.9,88.7c0.1-0.3-0.2-0.5-0.5-0.5c-0.5,0-1,0.3-1.3,0.6c-0.7,0.7-0.3,1.7,0.5,2.1c0.7,0.3,1.6,0.1,2.2-0.3
	c0.8-0.6,0.6-1.5-0.1-2c-0.4-0.3-0.8,0.3-0.5,0.6c0.2,0.2,0.4,0.4,0.2,0.6c-0.3,0.2-0.7,0.3-1.1,0.3c-0.3,0-0.7-0.2-0.7-0.6
	c0.1-0.4,0.8-1.1,1.2-0.8C75.8,88.8,75.8,88.8,75.9,88.7L75.9,88.7z"/>
<path class="st8" d="M69.7,74.5c0.4,0.3,0.4,1.3,0.5,1.8c0.1,0.8,0.5,1.5,0.8,2.3c0.6,1.3,1.3,2.7,2.7,3.1c0.8,0.2,1.6,0.2,2.4,0.3
	c1.1,0.1,2.2,0.1,3.3,0c0.8,0,1.7,0,2.5-0.1c0.6-0.1,1-0.7,1.3-1.2c0.5-0.7,1-1.4,1.5-2.1c0.3-0.5,0.7-1,0.5-1.6s-0.8-1.1-1.1-1.6
	c-0.5-0.9-1.1-1.7-1.6-2.6c-0.8-1.2-1.4-2.8-2.8-3.4c-0.8-0.3-1.6-0.2-2.4-0.1c-1,0.1-2,0.3-3,0.2c-0.7,0-1.6-0.1-2.2,0.3
	c-0.5,0.3-0.9,0.8-1.2,1.3c-0.7,0.9-1.5,2.4-1.2,3.6c0.1,0.4,0.8,0.3,0.8-0.1c-0.1-1.2,0.7-2.4,1.4-3.3c0.3-0.5,0.7-0.9,1.3-1
	c0.9-0.1,1.8,0.1,2.7,0c1-0.1,2-0.3,3-0.3c0.9,0,1.5,0.6,2,1.3c1,1.5,2,3.2,2.9,4.8c0.2,0.3,0.4,0.5,0.6,0.8s0.2,0.5,0,0.8
	c-0.5,0.7-1.1,1.5-1.6,2.1c-0.3,0.3-0.5,0.7-0.8,0.9c-0.1,0.1-0.4,0.1-0.6,0.1c-1.1,0-2.2,0.1-3.3,0.1c-1,0-2-0.1-3.1-0.1
	c-0.7-0.1-1.3-0.2-1.8-0.7c-1.2-1.2-1.9-2.9-2.3-4.5c-0.2-0.5-0.4-1.2-0.9-1.4C69.7,74.1,69.6,74.3,69.7,74.5L69.7,74.5z"/>
<path class="st8" d="M77.5,74.9c0.1-0.3-0.4-0.5-0.7-0.6c-0.5-0.1-1.1,0.1-1.4,0.5c-0.7,0.6-0.7,1.8,0.2,2.3c0.8,0.3,1.7,0,2.4-0.4
	c0.6-0.5,0.6-1.4-0.3-1.6c-0.4-0.1-0.7,0.5-0.3,0.7l0.2,0.1c0,0.1,0-0.1,0,0c0,0-0.2,0.2-0.3,0.3c-0.3,0.2-0.8,0.4-1.3,0.3
	s-0.5-0.7-0.2-1.1c0.2-0.2,0.5-0.4,0.9-0.4C77,74.8,77.2,75,77.5,74.9C77.4,75,77.5,74.9,77.5,74.9L77.5,74.9z"/>
<path class="st8" d="M70.6,99.6c1-0.5,1.6-1.6,2.3-2.5c0.4-0.5,0.9-1,1.5-1.3c0.8-0.4,1.9-0.3,2.8-0.2c1,0.1,2,0.2,3,0.4
	c0.6,0.1,1.5,0,2,0.4c0.4,0.4,0.6,1.2,0.8,1.7c0.2,0.6,0.4,1.2,0.6,1.8c0.1,0.3,0.9,1.2,0.7,1.3c-0.5,0.4-1.1,0.7-1.6,1.1
	c-0.8,0.6-1.5,1.1-2.3,1.6s-1.6,1.1-2.6,1.2c-0.8,0.1-1.7-0.2-2.5-0.4c-0.7-0.1-1.5-0.2-2.2-0.7c-0.6-0.5-1.1-1.4-1.5-2
	c-0.5-0.8-0.8-1.6-0.9-2.5c-0.1-0.6-0.8-0.6-0.9,0c-0.2,1.6,1,3.2,2,4.5c0.5,0.6,0.9,1.1,1.6,1.4c0.8,0.3,1.6,0.3,2.4,0.5
	c0.7,0.2,1.5,0.3,2.3,0.2c0.9-0.2,1.7-0.7,2.5-1.2s1.6-1,2.3-1.6c0.6-0.4,1.2-0.8,1.8-1.2c1.3-0.9-0.1-2-0.5-3
	c-0.4-1.2-0.7-2.6-1.6-3.5c-0.5-0.5-1.1-0.5-1.7-0.5c-1,0-2-0.3-3-0.4c-1.7-0.1-3.4-0.4-4.8,0.8c-1.3,1-1.7,2.8-2.9,3.9
	C70.2,99.5,70.4,99.7,70.6,99.6L70.6,99.6z"/>
<path class="st8" d="M76.6,99.5c-0.3-0.8-1.1-0.6-1.6-0.2c-0.6,0.5-0.5,1.5,0.2,1.8c0.6,0.4,1.6,0.3,2.2-0.2c0.7-0.7,0-2-0.6-2.4
	c-0.3-0.2-0.8,0.2-0.5,0.5c0.2,0.3,0.8,0.8,0.6,1.2c-0.1,0.3-0.8,0.2-1,0.2c-0.4-0.1-0.6-0.3-0.4-0.7C75.7,99.3,76.2,99.2,76.6,99.5
	C76.5,99.7,76.6,99.6,76.6,99.5L76.6,99.5z"/>
<path class="st8" d="M20.5,7.8c-0.5-0.5-1.3-0.6-1.9-0.2c-0.6,0.5-0.3,1.3,0.3,1.6c0.6,0.3,1.4,0.4,2,0.1C21.6,9,21.6,8.1,21,7.7
	c-0.3-0.2-0.7,0.1-0.5,0.4c0.2,0.3,0.3,0.4,0,0.6c-0.3,0.1-0.8,0.1-1.1,0c-0.2-0.1-0.7-0.2-0.5-0.6C19.2,7.8,20,7.7,20.3,8
	C20.4,8,20.6,7.8,20.5,7.8L20.5,7.8z"/>
<path class="st8" d="M6.8,25.8c-0.7-1.2-2.9,1.1-1.3,2c0.6,0.3,1.3,0.1,1.8-0.3c0.6-0.5,0.6-1.3,0.1-1.9c-0.3-0.3-0.7,0.1-0.5,0.4
	c0.1,0.3,0.2,0.6-0.1,0.9c-0.2,0.3-0.6,0.4-0.9,0.4c-1-0.1-0.1-2,0.7-1.4C6.7,26,6.8,25.9,6.8,25.8L6.8,25.8z"/>
<path class="st8" d="M117.7,111.5c0.4,0,0.6,0.8,0.8,1c0.3,0.5,0.6,0.9,0.9,1.4c0.7,1,1.3,2.1,2.1,3c0.4,0.5,1.1,1,1.8,0.9
	c0.6-0.1,1-0.7,1.3-1.2c0.8-1.7,0.8-3.7,1-5.5c0.3-2.7,0.9-5.6-0.2-8.2c-0.1-0.2-0.4-0.1-0.4,0.1c0.4,1.2,0.3,2.5,0.2,3.8
	c-0.1,1.3-0.2,2.5-0.4,3.8c-0.2,1.8-0.3,3.8-0.9,5.5c-0.2,0.4-0.5,1.1-1.1,0.8c-0.9-0.4-1.6-1.6-2.1-2.4c-0.6-0.8-1.2-1.7-1.8-2.5
	c-0.3-0.4-0.7-1-1.2-0.7C117.5,111.4,117.6,111.5,117.7,111.5L117.7,111.5z"/>
<path class="st8" d="M4.8,23.6c-0.3-1.2-0.3-2.5-0.2-3.7c0-0.6,0.1-1.2,0.3-1.8c0.1-0.2,0.4-0.8,0.6-0.7c0.2,0.2,0.3,0.8,0.4,1.1
	C6,19,6.1,19.6,6.2,20.2c0.1,0.9,0.1,1.9,0.6,2.7c0.6,1.2,2.6,0.8,3.6,0.7c1-0.2,2-0.4,3-0.4c0.3,0,0.9-0.1,1.1,0.1
	c-0.1-0.1,0-0.1,0,0.1c-0.1,0.1-0.2,0.2-0.2,0.3c-0.3,0.3-0.7,0.4-1.1,0.5c-1.2,0.3-2.8,0.2-3.7,1.3c-0.7,0.9-0.1,2,0.4,2.8
	c0.3,0.5,0.7,1,1.1,1.5c0.1,0.2,0.7,1.3,0.4,1.3c-0.5,0-1-0.4-1.4-0.6c-0.4-0.3-0.9-0.5-1.4-0.7c-0.9-0.3-1.8,0.2-2.3,0.9
	c-0.7,0.9-1,2-1.3,3c-0.4,0.9-0.9,1.8-1.4,2.7c-0.1,0.2-0.3,0.4-0.5,0.6c-0.1,0.1-0.2-0.2-0.2-0.3c-0.1-0.5-0.1-1.1,0-1.7
	c0.2-1.7,1.1-3.3,1.5-5c0.1-0.4,0.2-0.7,0.2-1.1c0-0.2,0-0.4-0.3-0.5c-1-0.3-2.1,0.1-3.1,0.4c-1.2,0.5-2.7,0.4-3.8-0.2
	c0.1,0.2,0.1,0.3,0.2,0.5c0.2-0.6,1.2-0.9,1.8-1.2c1-0.4,2-0.7,3-1.1C4,26.1,5.7,24.9,4.9,23c-0.2-0.4-0.7-0.1-0.6,0.3
	c0.6,2-1.7,2.7-3.2,3.2C-0.2,27-2.5,27.4-3,28.8c-0.1,0.2,0,0.4,0.2,0.5c1.1,0.6,2.3,0.7,3.6,0.6c1.1,0,2.3-0.8,3.5-0.5
	c-0.1-0.2-0.2-0.3-0.3-0.5c-0.3,1.9-1.3,3.6-1.7,5.5c-0.2,0.9-0.3,2.1,0,2.9c0.2,0.4,0.5,0.6,0.9,0.6c0.5,0,0.8-0.5,1-0.8
	c0.6-0.8,1.1-1.7,1.5-2.7s0.7-2.2,1.3-3.1c0.2-0.4,0.5-0.7,1-0.8s1,0.3,1.4,0.5c0.7,0.4,1.8,1.3,2.6,0.8c0.9-0.5,0-2.1-0.4-2.6
	c-0.5-0.7-2-2.2-1.4-3.1c0.3-0.6,1.2-0.7,1.8-0.8c0.7-0.1,1.5-0.2,2.2-0.5s1.7-1.2,1.1-2c-0.5-0.6-1.8-0.4-2.5-0.3
	c-1.2,0.1-2.3,0.4-3.5,0.5c-0.7,0-1.5,0-1.8-0.7c-0.1-0.4-0.2-0.9-0.3-1.4c-0.1-0.8-0.2-4.8-1.8-4.2c-1.1,0.4-1.2,2-1.3,2.9
	c-0.1,1.3,0,2.8,0.5,4.1C4.5,24,4.9,23.9,4.8,23.6L4.8,23.6z"/>
<path class="st8" d="M23.6,28L23.6,28c0,0.1,0.2,0.1,0.3,0.1c0-0.1-0.1-1-0.1-1.1c-0.1-0.5-0.1-1-0.1-1.5c-0.1-0.8-0.2-1.5-0.3-2.3
	c-0.1-0.8-0.2-1.6-0.1-2.4c0-0.2,0.1-0.4,0.2-0.5s-0.1-0.1,0,0c0.6,0.6,0.9,1.7,1.1,2.4s0.4,1.5,0.6,2.2c0.2,0.9,0.3,2.4,1.4,2.8
	c1,0.4,2.4-0.9,3.1-1.4c1-0.7,2.1-1.4,3.2-2c0.3-0.2,0.6-0.3,1-0.4c0.1,0,0.9-0.1,0.9,0c0,0.2-0.3,0.5-0.5,0.6
	c-0.4,0.4-0.8,0.7-1.3,1c-0.7,0.6-1.5,1.1-2.2,1.8c-0.6,0.6-1.3,1-1.9,1.7c-0.7,0.8-0.6,1.8,0.1,2.6c1.4,1.7,3.7,2.5,5.6,3.6
	c0.5,0.3,1.1,0.6,1.4,1.1c0.4,0.6-1.2,0.4-1.4,0.3c-1.4-0.3-2.9-0.9-4.2-1.5c-0.9-0.4-1.7-1.9-2.9-1.6c-0.7,0.2-0.8,0.9-0.8,1.5
	c0,1,0.3,2.1,0.4,3.1c0.1,0.8,0.2,2-0.8,2.1c0.1,0,0.3,0.1,0.4,0.1c-1.4-1.6-1.2-4-2.3-5.7c-0.1-0.2-0.4-0.3-0.6-0.1
	c-0.8,0.6-1.2,1.6-1.9,2.4c-0.7,0.9-1.5,1.7-2.4,2.4c-0.5,0.5-1,0.9-1.6,1.3c-0.1,0-1,0.7-0.9,0c0.1-0.8,0.8-1.5,1.2-2.1
	c0.5-0.6,1.1-1.2,1.6-1.9c1.1-1.3,2.8-2.6,3-4.4c0-0.2-0.1-0.3-0.3-0.4c-0.9-0.2-1.7-0.4-2.6-0.7c-0.8-0.3-1.9-0.7-2.1-1.6
	c-0.1,0.2-0.1,0.3-0.2,0.5c0.9-0.6,2-0.6,3.1-0.6c1-0.1,2-0.4,2.9-0.7c0.5-0.2,0.3-0.9-0.2-0.8c-1.1,0.3-2.2,0.6-3.4,0.7
	c-1,0.1-2,0.2-2.9,0.7c-0.2,0.1-0.2,0.3-0.2,0.5c0.6,2.1,3.6,2.3,5.3,2.8c-0.1-0.1-0.2-0.3-0.3-0.4c-0.1,1.1-1.2,2-1.9,2.8
	c-0.6,0.6-1.1,1.3-1.7,2c-0.7,0.7-1.3,1.5-1.8,2.4c-0.4,0.6-0.7,1.3-0.3,2c0.6,1.3,2.8-0.7,3.4-1.2c0.7-0.6,1.5-1.3,2.1-2
	c0.5-0.5,0.9-1,1.3-1.6c0.4-0.5,0.6-1.2,1.2-1.6c-0.2,0-0.4-0.1-0.6-0.1c0.9,1.3,1,3,1.6,4.4c0.2,0.4,0.6,1.4,1.1,1.5
	c0.4,0.1,0.8-0.2,1.1-0.4c0.6-0.5,0.6-1.5,0.6-2.2c-0.1-1-0.3-1.9-0.4-2.8c-0.1-0.4-0.3-1.5,0.5-1.2c0.6,0.3,1,0.8,1.5,1.2
	c0.7,0.5,1.6,0.8,2.4,1.1c1.1,0.4,2.4,0.9,3.6,1c1.1,0,1.7-1,1-1.9c-0.6-0.8-1.6-1.3-2.5-1.8c-1.1-0.6-2.2-1.1-3.2-1.8
	c-0.8-0.5-2-1.5-1.4-2.5c0.4-0.6,1.2-1.1,1.7-1.6c0.8-0.8,1.7-1.4,2.6-2.1c0.5-0.4,2.5-1.7,1.5-2.5s-2.4,0-3.4,0.5
	c-1.1,0.6-2.1,1.3-3.1,2c-0.5,0.4-1,0.8-1.6,1c-0.7,0.3-0.9-0.5-1-1.1c-0.3-1.1-0.5-2.2-0.9-3.3c-0.3-0.9-0.7-2.5-1.6-3
	c-1.3-0.7-1.5,2-1.4,2.6c0.1,1,0.3,2.1,0.5,3.1c0.1,0.6,0.2,1.2,0.3,1.8c0.1,0.4,0.1,1.1,0.4,1.4c0.1,0.1,0.3,0.1,0.4,0
	c0,0,0,0,0.1-0.1C24.2,28.1,23.9,27.8,23.6,28L23.6,28z"/>
<path class="st8" d="M26,29.3c-0.5-0.8-1.5-0.2-1.9,0.4c-0.6,0.8-0.7,2,0.4,2.5c1,0.5,2.2,0.1,2.6-0.9s-0.4-2.2-1.5-2.2
	c-0.3,0-0.4,0.4-0.2,0.6c0.5,0.3,1.1,0.5,0.9,1.2c-0.2,0.6-0.9,0.8-1.4,0.6c-1.2-0.4,0.1-2.5,1-2C25.9,29.5,26,29.4,26,29.3L26,29.3
	z"/>
<path class="st8" d="M19.3,5.3c0.5-1.1,0.6-2.4,0.8-3.6c0.2-1,0.5-3.1,1.7-3.3c-0.1,0-0.2-0.1-0.3-0.1c1.2,2.1-1.3,5.1,0.6,7
	c1,0.9,2.8,0.9,4,0.9c1.6,0,3.4-0.1,4.8,0.9c0-0.2,0-0.3-0.1-0.5c-0.9,1.1-2.5,1.2-3.9,1.4c-1.3,0.2-2.6,0.4-3.6,1.3
	c-1,0.9-0.8,2.7-0.9,3.9c0,0.5,0,1.1,0,1.7c0,0.4,0,1.3-0.5,1.5c0.2,0,0.3,0,0.5,0.1c-1.3-1.5-1.9-5.3-4.6-5c-1,0.1-1.9,0.9-2.7,1.6
	c-0.4,0.4-0.9,0.8-1.3,1.2c-0.2,0.2-0.4,0.3-0.7,0.4c-0.2,0.1-0.3,0.1-0.5,0.1s0,0.2,0,0c0.3-1.1,1.6-2,2.4-2.7
	c0.6-0.6,2.2-1.9,1.6-2.9c-0.5-0.9-2-0.7-2.8-0.9C12,7.9,10.3,7.5,8.7,6.7c0,0.2,0,0.4,0,0.7c3.3-1.6,7.2-0.3,10.5-1.8
	c0.4-0.2,0.1-0.8-0.3-0.7c-3.4,1.4-7.2,0.2-10.6,1.8C8,6.8,8.1,7.2,8.3,7.4C9.8,8.1,11.4,8.6,13,9c0.7,0.2,1.3,0.3,2,0.4
	c0.3,0,0.5,0.1,0.8,0.1c0.4,0.1,0.2,0.5,0.1,0.7c-0.6,1.2-2,1.9-2.9,2.9c-0.4,0.5-1.4,1.6-0.9,2.3c0.5,0.8,1.9,0,2.4-0.4
	c0.9-0.7,1.7-1.6,2.7-2.2c1.2-0.8,2.1-0.1,2.8,1c0.7,1.1,1.1,2.4,2,3.4c0.1,0.1,0.3,0.1,0.5,0.1c1-0.4,0.9-2.1,0.8-3
	c0-0.6,0-1.1,0-1.7c0-0.8,0-1.8,0.5-2.5c0.7-1.1,2.8-1.2,4-1.4c1.3-0.2,2.7-0.4,3.6-1.5c0.1-0.2,0.1-0.4-0.1-0.5
	c-1.2-0.9-2.7-0.9-4.1-1c-1.4,0-3.4,0.3-4.5-0.7c-0.9-0.8-0.5-2.5-0.3-3.6c0.1-1.1,0.3-2.3-0.3-3.3C22-2,21.9-2.1,21.8-2
	c-1.3,0.2-1.7,1.9-2,3c-0.2,0.8-0.3,1.6-0.4,2.5c-0.1,0.6-0.1,1.3-0.3,1.9C18.9,5.4,19.2,5.5,19.3,5.3L19.3,5.3z"/>
</svg>
