<?xml version="1.0" encoding="utf-8"?>
<!-- Generator: Adobe Illustrator 25.1.0, SVG Export Plug-In . SVG Version: 6.00 Build 0)  -->
<svg version="1.1" id="Layer_1" xmlns="http://www.w3.org/2000/svg" xmlns:xlink="http://www.w3.org/1999/xlink" x="0px" y="0px"
	 viewBox="0 0 141 84" style="enable-background:new 0 0 141 84;" xml:space="preserve">
<style type="text/css">
	.st0{fill:#99D3CB;}
	.st1{fill:#FFF9EF;}
	.st2{fill:#6FCACD;}
	.st3{fill:#DAECCD;}
	.st4{fill:#871C1C;}
	.st5{fill:none;}
	.st6{opacity:0.3;fill:#505050;enable-background:new    ;}
	.st7{fill:#505050;}
</style>
<g>
	<path class="st0" d="M76.6-25.9c0-2.6-1.9-4.7-4.3-4.7h-0.9c-2.4,0-4.3,2.1-4.3,4.7v7.5h9.7L76.6-25.9L76.6-25.9z"/>
	<path class="st1" d="M71.2-6h0.9c2.4,0,4.3-2.1,4.3-4.7v-7.5h-9.7v7.5C66.8-8.2,68.8-6,71.2-6z"/>
	<path class="st2" d="M74.9-18.4h1.7v-7.5c0-2.6-1.9-4.7-4.3-4.7h-0.9c-1.5,0-2.9,0.8-3.7,2.1c0.5-0.2,0.9-0.3,1.5-0.3
		C72.2-28.9,74.9-24.2,74.9-18.4z"/>
	<path class="st3" d="M74.9-18.4c0,5.8-2.6,10.5-5.8,10.5c-0.5,0-1-0.1-1.5-0.3c0.8,1.3,2.2,2.1,3.7,2.1h1c2.4,0,4.3-2.1,4.3-4.7
		v-7.6H74.9L74.9-18.4z"/>
	<path class="st4" d="M71.5-31.4h0.9c2.7,0,5,2.4,5,5.4v15.2c0,3-2.3,5.4-5,5.4h-0.9c-2.7,0-5-2.4-5-5.4V-26
		C66.5-28.9,68.8-31.4,71.5-31.4z M72.6-6.7c2.1,0,3.7-1.8,3.7-4v-15.2c0-2.2-1.6-4-3.7-4h-0.9c-2.1,0-3.7,1.8-3.7,4v15.2
		c0,2.2,1.6,4,3.7,4H72.6z"/>
	<path class="st4" d="M67.5-19h9.4c0.3,0,0.7,0.3,0.7,0.7c0,0.3-0.3,0.7-0.7,0.7h-9.4c-0.3,0-0.7-0.3-0.7-0.7S67.2-19,67.5-19z"/>
</g>
<g>
	<path class="st0" d="M20.9-25.9c0-2.6-1.9-4.7-4.3-4.7h-0.9c-2.4,0-4.3,2.1-4.3,4.7v7.5H21v-7.5H20.9z"/>
	<path class="st1" d="M15.5-6h0.9c2.4,0,4.3-2.1,4.3-4.7v-7.5H11v7.5C11.2-8.2,13.1-6,15.5-6z"/>
	<path class="st2" d="M19.2-18.4h1.7v-7.5c0-2.6-1.9-4.7-4.3-4.7h-0.9c-1.5,0-2.9,0.8-3.7,2.1c0.5-0.2,0.9-0.3,1.5-0.3
		C16.5-28.9,19.2-24.2,19.2-18.4z"/>
	<path class="st3" d="M19.2-18.4c0,5.8-2.6,10.5-5.8,10.5c-0.5,0-1-0.1-1.5-0.3c0.8,1.3,2.2,2.1,3.7,2.1h0.9c2.4,0,4.3-2.1,4.3-4.7
		v-7.6H19.2L19.2-18.4z"/>
	<path class="st4" d="M15.8-31.4h0.9c2.9,0,5.1,2.5,5.1,5.5v15.2c0,3-2.3,5.4-5,5.4H16c-2.7,0-5-2.4-5-5.4v-15.2
		C10.8-28.9,13.1-31.4,15.8-31.4z M16.9-6.7c2.1,0,3.7-1.8,3.7-4v-15.2c0-2.2-1.6-4-3.7-4H16c-2.1,0-3.7,1.8-3.7,4v15.2
		c0,2.2,1.6,4,3.7,4H16.9z"/>
	<path class="st4" d="M11.8-19h9.4c0.3,0,0.7,0.3,0.7,0.7c0,0.3-0.3,0.7-0.7,0.7h-9.4c-0.3,0-0.7-0.3-0.7-0.7
		C11.2-18.7,11.5-19,11.8-19z"/>
</g>
<g>
	<path class="st0" d="M132.1-25.9c0-2.6-1.9-4.7-4.3-4.7h-0.9c-2.4,0-4.3,2.1-4.3,4.7v7.5h9.7L132.1-25.9L132.1-25.9z"/>
	<path class="st1" d="M126.9-6h0.9c2.4,0,4.3-2.1,4.3-4.7v-7.5h-9.7v7.5C122.5-8.2,124.5-6,126.9-6z"/>
	<path class="st2" d="M130.5-18.4h1.7v-7.5c0-2.6-1.9-4.7-4.3-4.7H127c-1.5,0-2.9,0.8-3.7,2.1c0.5-0.2,0.9-0.3,1.5-0.3
		C127.9-28.9,130.5-24.2,130.5-18.4z"/>
	<path class="st3" d="M130.5-18.4c0,5.8-2.6,10.5-5.8,10.5c-0.5,0-1-0.1-1.5-0.3c0.8,1.3,2.2,2.1,3.7,2.1h0.9c2.4,0,4.3-2.1,4.3-4.7
		v-7.6H130.5L130.5-18.4z"/>
	<path class="st4" d="M127.2-31.4h0.9c2.7,0,5,2.4,5,5.4v15.2c0,3-2.3,5.4-5,5.4h-0.9c-2.7,0-5-2.4-5-5.4V-26
		C122.2-28.9,124.5-31.4,127.2-31.4z M128.3-6.7c2.1,0,3.7-1.8,3.7-4v-15.2c0-2.2-1.6-4-3.7-4h-0.9c-2.1,0-3.7,1.8-3.7,4v15.2
		c0,2.2,1.6,4,3.7,4H128.3z"/>
	<path class="st4" d="M123.2-19h9.4c0.3,0,0.7,0.3,0.7,0.7c0,0.3-0.3,0.7-0.7,0.7h-9.4c-0.3,0-0.7-0.3-0.7-0.7
		C122.5-18.7,122.9-19,123.2-19z"/>
</g>
<g>
	<path class="st0" d="M48.7-25.9c0-2.6-1.9-4.7-4.3-4.7h-0.9c-2.4,0-4.3,2.1-4.3,4.7v7.5h9.7v-7.5C48.8-25.9,48.7-25.9,48.7-25.9z"
		/>
	<path class="st1" d="M43.3-6h0.9c2.4,0,4.3-2.1,4.3-4.7v-7.5h-9.7v7.5C38.9-8.2,40.9-6,43.3-6z"/>
	<path class="st2" d="M46.9-18.4h1.7v-7.5c0-2.6-1.9-4.7-4.3-4.7h-0.9c-1.5,0-2.9,0.8-3.7,2.1c0.5-0.2,0.9-0.3,1.5-0.3
		C44.4-28.9,46.9-24.2,46.9-18.4z"/>
	<path class="st3" d="M46.9-18.4c0,5.8-2.6,10.5-5.8,10.5c-0.5,0-1-0.1-1.5-0.3c0.8,1.3,2.2,2.1,3.7,2.1h0.9c2.4,0,4.3-2.1,4.3-4.7
		v-7.6H46.9L46.9-18.4z"/>
	<path class="st4" d="M43.7-31.4h0.9c2.7,0,5,2.4,5,5.4v15.2c0,3-2.3,5.4-5,5.4h-0.9c-2.7,0-5-2.4-5-5.4V-26
		C38.7-28.9,40.9-31.4,43.7-31.4z M44.7-6.7c2.1,0,3.7-1.8,3.7-4v-15.2c0-2.2-1.6-4-3.7-4h-0.9c-2.1,0-3.7,1.8-3.7,4v15.2
		c0,2.2,1.6,4,3.7,4H44.7z"/>
	<path class="st4" d="M39.7-19h9.4c0.3,0,0.7,0.3,0.7,0.7c0,0.3-0.3,0.7-0.7,0.7h-9.4c-0.3,0-0.7-0.3-0.7-0.7
		C39.1-18.7,39.3-19,39.7-19z"/>
</g>
<g>
	<path class="st0" d="M104.4-25.9c0-2.6-1.9-4.7-4.3-4.7h-0.9c-2.4,0-4.3,2.1-4.3,4.7v7.5h9.7L104.4-25.9L104.4-25.9z"/>
	<path class="st1" d="M99-6h0.9c2.4,0,4.3-2.1,4.3-4.7v-7.5h-9.7v7.5C94.6-8.2,96.6-6,99-6z"/>
	<path class="st2" d="M102.6-18.4h1.7v-7.5c0-2.6-1.9-4.7-4.3-4.7h-0.9c-1.5,0-2.9,0.8-3.7,2.1c0.5-0.2,0.9-0.3,1.5-0.3
		C100.1-28.9,102.6-24.2,102.6-18.4z"/>
	<path class="st3" d="M102.6-18.4c0,5.8-2.6,10.5-5.8,10.5c-0.5,0-1-0.1-1.5-0.3c0.8,1.3,2.2,2.1,3.7,2.1h0.9c2.4,0,4.3-2.1,4.3-4.7
		v-7.6H102.6L102.6-18.4z"/>
	<path class="st4" d="M99.4-31.4h0.9c2.7,0,5,2.4,5,5.4v15.2c0,3-2.3,5.4-5,5.4h-0.9c-2.7,0-5-2.4-5-5.4V-26
		C94.3-28.9,96.6-31.4,99.4-31.4z M100.4-6.7c2.1,0,3.7-1.8,3.7-4v-15.2c0-2.2-1.6-4-3.7-4h-0.9c-2.1,0-3.7,1.8-3.7,4v15.2
		c0,2.2,1.6,4,3.7,4H100.4z"/>
	<path class="st4" d="M95.4-19h9.4c0.3,0,0.7,0.3,0.7,0.7c0,0.3-0.3,0.7-0.7,0.7h-9.4c-0.3,0-0.7-0.3-0.7-0.7
		C94.7-18.7,95-19,95.4-19z"/>
</g>
<g>
	<path class="st0" d="M-7-25.9c0-2.6-1.9-4.7-4.3-4.7h-0.9c-2.4,0-4.5,2.1-4.5,4.7v7.5H-7V-25.9z"/>
	<path class="st1" d="M-12.3-6h0.9c2.4,0,4.3-2.1,4.3-4.7v-7.5h-9.7v7.5C-16.7-8.2-14.7-6-12.3-6z"/>
	<path class="st2" d="M-8.7-18.4H-7v-7.5c0-2.6-1.9-4.7-4.3-4.7h-0.9c-1.5,0-2.9,0.8-3.7,2.1c0.5-0.2,0.9-0.3,1.5-0.3
		C-11.3-28.9-8.7-24.2-8.7-18.4z"/>
	<path class="st3" d="M-8.7-18.4c0,5.8-2.6,10.5-5.8,10.5c-0.5,0-1-0.1-1.5-0.3c0.8,1.3,2.2,2.1,3.7,2.1h0.9c2.4,0,4.3-2.1,4.3-4.7
		v-7.6H-8.7L-8.7-18.4z"/>
	<path class="st4" d="M-11.9-31.4h0.9c2.7,0,5,2.4,5,5.4v15.2c0,3-2.3,5.4-5,5.4h-0.9c-2.7,0.1-5-2.3-5-5.3v-15.2
		C-17-28.9-14.7-31.4-11.9-31.4z M-11-6.7c2.1,0,3.7-1.8,3.7-4v-15.2c0-2.2-1.6-4-3.7-4h-0.9c-2.1,0-3.7,1.8-3.7,4v15.2
		c0,2.2,1.6,4,3.7,4H-11z"/>
	<path class="st4" d="M-15.9-19h9.4c0.3,0,0.7,0.3,0.7,0.7c0,0.3-0.3,0.7-0.7,0.7h-9.4c-0.3,0-0.7-0.3-0.7-0.7S-16.3-19-15.9-19z"/>
</g>
<g>
	<path class="st0" d="M-8.1,11.4c0-2.6-1.9-4.7-4.3-4.7h-1c-2.4,0-4.3,2.1-4.3,4.7v7.5H-8L-8.1,11.4L-8.1,11.4z"/>
	<path class="st1" d="M-13.4,31.3h0.9c2.4,0,4.3-2.1,4.3-4.7v-7.5h-9.7v7.5C-17.8,29.1-15.8,31.3-13.4,31.3z"/>
	<path class="st2" d="M-9.8,18.9h1.7v-7.5c0-2.6-1.9-4.7-4.3-4.7h-1c-1.5,0-2.9,0.8-3.7,2.1c0.5-0.2,0.9-0.3,1.5-0.3
		C-12.4,8.4-9.8,13.1-9.8,18.9z"/>
	<path class="st3" d="M-9.8,18.9c0,5.8-2.6,10.5-5.8,10.5c-0.5,0-1-0.1-1.5-0.3c0.8,1.3,2.2,2.1,3.7,2.1h1c2.4,0,4.3-2.1,4.3-4.7V19
		L-9.8,18.9L-9.8,18.9z"/>
	<path class="st4" d="M-13.1,5.9h0.9c2.7,0,5,2.4,5,5.4v15.2c0,3-2.3,5.4-5,5.4h-0.9c-2.7,0.1-5-2.3-5-5.3V11.4
		C-18.1,8.4-15.8,5.9-13.1,5.9z M-12.1,30.6c2.1,0,3.7-1.8,3.7-4V11.4c0-2.2-1.6-4-3.7-4h-1c-2.1,0-3.7,1.8-3.7,4v15.2
		c0,2.2,1.6,4,3.7,4H-12.1z"/>
	<path class="st4" d="M-17.1,18.2h9.4c0.3,0,0.7,0.3,0.7,0.7s-0.4,0.7-0.7,0.7h-9.4c-0.3,0-0.7-0.3-0.7-0.7S-17.4,18.2-17.1,18.2z"
		/>
</g>
<g>
	<path class="st0" d="M-8.1,53.4c0-2.6-1.9-4.7-4.3-4.7h-1c-2.4,0-4.3,2.1-4.3,4.7v7.5H-8L-8.1,53.4L-8.1,53.4z"/>
	<path class="st1" d="M-13.4,73.3h0.9c2.4,0,4.3-2.1,4.3-4.7v-7.5h-9.7v7.5C-17.8,71.2-15.8,73.3-13.4,73.3z"/>
	<path class="st2" d="M-9.8,61h1.7v-7.5c0-2.6-1.9-4.7-4.3-4.7h-1c-1.5,0-2.9,0.8-3.7,2.1c0.5-0.2,0.9-0.3,1.5-0.3
		C-12.4,50.5-9.8,55.2-9.8,61z"/>
	<path class="st3" d="M-9.8,61c0,5.8-2.6,10.5-5.8,10.5c-0.5,0-1-0.1-1.5-0.3c0.8,1.3,2.2,2.1,3.7,2.1h1c2.4,0,4.3-2.1,4.3-4.7v-7.5
		L-9.8,61L-9.8,61z"/>
	<path class="st4" d="M-13.1,48h0.9c2.7,0,5,2.4,5,5.4v15.3c0,3-2.3,5.4-5,5.4h-0.9c-2.7,0-5-2.4-5-5.4V53.4
		C-18.1,50.5-15.8,48-13.1,48z M-12.1,72.7c2.1,0,3.7-1.8,3.7-4V53.4c0-2.2-1.6-4-3.7-4h-1c-2.1,0-3.7,1.8-3.7,4v15.2
		c0,2.2,1.6,4,3.7,4L-12.1,72.7L-12.1,72.7z"/>
	<path class="st4" d="M-17.1,60.3h9.4c0.3,0,0.7,0.3,0.7,0.7s-0.3,0.7-0.7,0.7h-9.4c-0.3,0-0.7-0.3-0.7-0.7
		C-17.8,60.7-17.4,60.3-17.1,60.3z"/>
</g>
<g>
	<path class="st0" d="M77.5,95.5c0-2.6-1.9-4.7-4.3-4.7h-0.9c-2.4,0-4.3,2.1-4.3,4.7v7.5h9.7L77.5,95.5L77.5,95.5z"/>
	<path class="st1" d="M72.1,115.4H73c2.4,0,4.3-2.1,4.3-4.7v-7.5h-9.7v7.5C67.8,113.3,69.7,115.4,72.1,115.4z"/>
	<path class="st2" d="M75.8,103.1h1.7v-7.5c0-2.6-1.9-4.7-4.3-4.7h-0.9c-1.5,0-2.9,0.8-3.7,2.1c0.5-0.2,0.9-0.3,1.5-0.3
		C73.1,92.6,75.8,97.2,75.8,103.1z"/>
	<path class="st3" d="M75.8,103.1c0,5.8-2.6,10.5-5.8,10.5c-0.5,0-1-0.1-1.5-0.3c0.8,1.3,2.2,2.1,3.7,2.1H73c2.4,0,4.3-2.1,4.3-4.7
		v-7.5h-1.5V103.1z"/>
	<path class="st4" d="M72.4,90h0.9c2.7,0,5,2.4,5,5.4v15.2c0,3-2.3,5.4-5,5.4h-0.9c-2.7,0-5-2.4-5-5.4V95.4
		C67.4,92.6,69.7,90,72.4,90z M73.5,114.6c2.1,0,3.7-1.8,3.7-4V95.4c0-2.2-1.6-4-3.7-4h-0.9c-2.1,0-3.7,1.8-3.7,4v15.2
		c0,2.2,1.6,4,3.7,4H73.5z"/>
	<path class="st4" d="M68.6,102.4H78c0.3,0,0.7,0.3,0.7,0.7c0,0.3-0.3,0.7-0.7,0.7h-9.4c-0.3,0-0.7-0.3-0.7-0.7
		C67.8,102.7,68.1,102.4,68.6,102.4z"/>
</g>
<g>
	<path class="st0" d="M21.8,95.5c0-2.6-1.9-4.7-4.3-4.7h-0.9c-2.4,0-4.3,2.1-4.3,4.7v7.5H22v-7.5C22,95.5,21.8,95.5,21.8,95.5z"/>
	<path class="st1" d="M16.4,115.4h0.9c2.4,0,4.3-2.1,4.3-4.7v-7.5H12v7.5C12.1,113.3,14,115.4,16.4,115.4z"/>
	<path class="st2" d="M20.1,103.1h1.7v-7.5c0-2.6-1.9-4.7-4.3-4.7h-0.9c-1.5,0-2.9,0.8-3.7,2.1c0.5-0.2,0.9-0.3,1.5-0.3
		C17.4,92.6,20.1,97.2,20.1,103.1z"/>
	<path class="st3" d="M20.1,103.1c0,5.8-2.6,10.5-5.8,10.5c-0.5,0-1-0.1-1.5-0.3c0.8,1.3,2.2,2.1,3.7,2.1h0.9c2.4,0,4.3-2.1,4.3-4.7
		v-7.5h-1.6V103.1z"/>
	<path class="st4" d="M16.9,90h0.9c2.7,0,5,2.4,5,5.4v15.2c0,3-2.3,5.4-5,5.4h-0.9c-2.7,0-5-2.4-5-5.4V95.4C11.7,92.6,14,90,16.9,90
		z M17.8,114.6c2.1,0,3.7-1.8,3.7-4V95.4c0-2.2-1.6-4-3.7-4h-0.9c-2.1,0-3.7,1.8-3.7,4v15.2c0,2.2,1.6,4,3.7,4H17.8z"/>
	<path class="st4" d="M12.9,102.4h9.4c0.3,0,0.7,0.3,0.7,0.7c0,0.3-0.3,0.7-0.7,0.7h-9.4c-0.3,0-0.7-0.3-0.7-0.7
		C12.1,102.7,12.4,102.4,12.9,102.4z"/>
</g>
<g>
	<path class="st0" d="M133.2,95.5c0-2.6-1.9-4.7-4.3-4.7H128c-2.4,0-4.3,2.1-4.3,4.7v7.5h9.7L133.2,95.5L133.2,95.5z"/>
	<path class="st1" d="M127.8,115.4h0.9c2.4,0,4.3-2.1,4.3-4.7v-7.5h-9.7v7.5C123.5,113.3,125.4,115.4,127.8,115.4z"/>
	<path class="st2" d="M131.5,103.1h1.7v-7.5c0-2.6-1.9-4.7-4.3-4.7H128c-1.5,0-2.9,0.8-3.7,2.1c0.5-0.2,0.9-0.3,1.5-0.3
		C128.8,92.6,131.5,97.2,131.5,103.1z"/>
	<path class="st3" d="M131.5,103.1c0,5.8-2.6,10.5-5.8,10.5c-0.5,0-1-0.1-1.5-0.3c0.8,1.3,2.2,2.1,3.7,2.1h0.9
		c2.4,0,4.3-2.1,4.3-4.7v-7.5h-1.6L131.5,103.1L131.5,103.1z"/>
	<path class="st4" d="M128.1,90h0.9c2.7,0,5,2.4,5,5.4v15.2c0,3-2.3,5.4-5,5.4h-0.9c-2.7,0-5-2.4-5-5.4V95.4
		C123.1,92.6,125.4,90,128.1,90z M129.2,114.6c2.1,0,3.7-1.8,3.7-4V95.4c0-2.2-1.6-4-3.7-4h-0.9c-2.1,0-3.7,1.8-3.7,4v15.2
		c0,2.2,1.6,4,3.7,4H129.2z"/>
	<path class="st4" d="M124.1,102.4h9.4c0.3,0,0.7,0.3,0.7,0.7c0,0.3-0.3,0.7-0.7,0.7h-9.4c-0.3,0-0.7-0.3-0.7-0.7
		C123.5,102.7,123.8,102.4,124.1,102.4z"/>
</g>
<g>
	<path class="st0" d="M49.6,95.5c0-2.6-1.9-4.7-4.3-4.7h-0.9c-2.4,0-4.3,2.1-4.3,4.7v7.5h9.7v-7.5C49.8,95.5,49.6,95.5,49.6,95.5z"
		/>
	<path class="st1" d="M44.3,115.4h0.9c2.4,0,4.3-2.1,4.3-4.7v-7.5h-9.7v7.5C39.9,113.3,41.9,115.4,44.3,115.4z"/>
	<path class="st2" d="M47.9,103.1h1.7v-7.5c0-2.6-1.9-4.7-4.3-4.7h-0.9c-1.5,0-2.9,0.8-3.7,2.1c0.5-0.2,0.9-0.3,1.5-0.3
		C45.3,92.6,47.9,97.2,47.9,103.1z"/>
	<path class="st3" d="M47.9,103.1c0,5.8-2.6,10.5-5.8,10.5c-0.5,0-1-0.1-1.5-0.3c0.8,1.3,2.2,2.1,3.7,2.1h0.9c2.4,0,4.3-2.1,4.3-4.7
		v-7.5h-1.6C47.9,103.2,47.9,103.1,47.9,103.1z"/>
	<path class="st4" d="M44.7,90h0.9c2.7,0,5,2.4,5,5.4v15.2c0,3-2.3,5.4-5,5.4h-0.9c-2.7,0-5-2.4-5-5.4V95.4
		C39.6,92.6,41.9,90,44.7,90z M45.7,114.6c2.1,0,3.7-1.8,3.7-4V95.4c0-2.2-1.6-4-3.7-4h-0.9c-2.1,0-3.7,1.8-3.7,4v15.2
		c0,2.2,1.6,4,3.7,4H45.7z"/>
	<path class="st4" d="M40.7,102.4H50c0.3,0,0.7,0.3,0.7,0.7c0,0.3-0.3,0.7-0.7,0.7h-9.4c-0.3,0-0.7-0.3-0.7-0.7
		C40,102.7,40.3,102.4,40.7,102.4z"/>
</g>
<g>
	<path class="st0" d="M105.3,95.5c0-2.6-1.9-4.7-4.3-4.7h-1c-2.4,0-4.3,2.1-4.3,4.7v7.5h9.7L105.3,95.5L105.3,95.5z"/>
	<path class="st1" d="M100,115.4h0.9c2.4,0,4.3-2.1,4.3-4.7v-7.5h-9.7v7.5C95.5,113.3,97.5,115.4,100,115.4z"/>
	<path class="st2" d="M103.6,103.1h1.7v-7.5c0-2.6-1.9-4.7-4.3-4.7h-1c-1.5,0-2.9,0.8-3.7,2.1c0.5-0.2,0.9-0.3,1.5-0.3
		C101,92.6,103.6,97.2,103.6,103.1z"/>
	<path class="st3" d="M103.6,103.1c0,5.8-2.6,10.5-5.8,10.5c-0.5,0-1-0.1-1.5-0.3c0.8,1.3,2.2,2.1,3.7,2.1h0.9
		c2.4,0,4.3-2.1,4.3-4.7v-7.5h-1.6V103.1z"/>
	<path class="st4" d="M100.4,90h0.9c2.7,0,5,2.4,5,5.4v15.2c0,3-2.3,5.4-5,5.4h-0.9c-2.7,0-5-2.4-5-5.4V95.4
		C95.3,92.6,97.5,90,100.4,90z M101.3,114.6c2.1,0,3.7-1.8,3.7-4V95.4c0-2.2-1.6-4-3.7-4h-0.9c-2.1,0-3.7,1.8-3.7,4v15.2
		c0,2.2,1.6,4,3.7,4H101.3z"/>
	<path class="st4" d="M96.3,102.4h9.4c0.3,0,0.7,0.3,0.7,0.7c0,0.3-0.3,0.7-0.7,0.7h-9.4c-0.3,0-0.7-0.3-0.7-0.7
		S96,102.4,96.3,102.4z"/>
</g>
<g>
	<path class="st0" d="M-6.1,95.5c0-2.6-1.9-4.7-4.3-4.7h-0.9c-2.4,0-4.3,2.1-4.3,4.7v7.5H-6L-6.1,95.5L-6.1,95.5z"/>
	<path class="st1" d="M-11.4,115.4h0.9c2.4,0,4.3-2.1,4.3-4.7v-7.5h-9.7v7.5C-15.7,113.3-13.8,115.4-11.4,115.4z"/>
	<path class="st2" d="M-7.7,103.1H-6v-7.5c0-2.6-1.9-4.7-4.3-4.7h-1c-1.5,0-2.9,0.8-3.7,2.1c0.5-0.2,0.9-0.3,1.5-0.3
		C-10.3,92.6-7.7,97.2-7.7,103.1z"/>
	<path class="st3" d="M-7.7,103.1c0,5.8-2.6,10.5-5.8,10.5c-0.5,0-1-0.1-1.5-0.3c0.8,1.3,2.2,2.1,3.7,2.1h0.9c2.4,0,4.3-2.1,4.3-4.7
		v-7.5h-1.6C-7.7,103.2-7.7,103.1-7.7,103.1z"/>
	<path class="st4" d="M-11,90h0.9c2.7,0,5,2.4,5,5.4v15.2c0,3-2.3,5.4-5,5.4H-11c-2.7,0-5-2.4-5-5.4V95.4C-16.1,92.6-13.8,90-11,90z
		 M-10,114.6c2.1,0,3.7-1.8,3.7-4V95.4c0-2.2-1.6-4-3.7-4h-1c-2.1,0-3.7,1.8-3.7,4v15.2c0,2.2,1.6,4,3.7,4H-10z"/>
	<path class="st4" d="M-15,102.4h9.4c0.3,0,0.7,0.3,0.7,0.7c0,0.3-0.3,0.7-0.7,0.7H-15c-0.3,0-0.7-0.3-0.7-0.7S-15.4,102.4-15,102.4
		z"/>
</g>
<g>
	<path class="st5" d="M21.5,12.3c0-2.4-1.8-4.3-4-4.3h-0.8c-2.2,0-4,1.9-4,4.3v7h9v-7H21.5z"/>
	<path class="st1" d="M16.5,30.6h0.8c2.2,0,4-1.9,4-4.3v-7h-9v7C12.5,28.6,14.3,30.6,16.5,30.6z"/>
	<path class="st6" d="M19.9,19.2h1.6v-7c0-2.4-1.8-4.3-4-4.3h-0.8c-1.4,0-2.6,0.7-3.4,1.9c0.4-0.2,0.8-0.3,1.4-0.3
		C17.6,9.5,19.9,13.8,19.9,19.2z"/>
	<path class="st3" d="M19.9,19.2c0,5.4-2.4,9.7-5.4,9.7c-0.4,0-0.9-0.1-1.4-0.3c0.7,1.2,2,1.9,3.4,1.9h0.8c2.2,0,4-1.9,4-4.3v-7
		L19.9,19.2L19.9,19.2z"/>
	<path class="st7" d="M17,7.2h0.8c2.5,0,4.6,2.2,4.6,5v14.1c0,2.7-2.1,5-4.6,5H17c-2.5,0-4.6-2.2-4.6-5v-14
		C12.2,9.5,14.3,7.2,17,7.2z M17.8,30c1.9,0,3.4-1.7,3.4-3.7v-14c0-2-1.5-3.7-3.4-3.7H17c-1.9,0-3.4,1.7-3.4,3.7v14
		c0,2,1.5,3.7,3.4,3.7H17.8z"/>
	<path class="st7" d="M13.3,18.6h8.6c0.3,0,0.6,0.3,0.6,0.6s-0.3,0.6-0.6,0.6h-8.6c-0.3,0-0.6-0.3-0.6-0.6
		C12.6,18.9,12.8,18.6,13.3,18.6z"/>
</g>
<g>
	<path class="st5" d="M48,12.3C48,9.9,46.2,8,44,8h-0.8c-2.2,0-4,1.9-4,4.3v7h9v-7H48z"/>
	<path class="st1" d="M43,30.6h0.8c2.2,0,4-1.9,4-4.3v-7h-9v7C39,28.6,40.8,30.6,43,30.6z"/>
	<path class="st6" d="M46.4,19.2H48v-7c0-2.4-1.8-4.3-4-4.3h-0.8c-1.4,0-2.6,0.7-3.4,1.9c0.4-0.2,0.8-0.3,1.4-0.3
		C44.2,9.5,46.4,13.8,46.4,19.2z"/>
	<path class="st3" d="M46.4,19.2c0,5.4-2.4,9.7-5.4,9.7c-0.4,0-0.9-0.1-1.4-0.3c0.7,1.2,2,1.9,3.4,1.9h0.8c2.2,0,4-1.9,4-4.3v-7
		L46.4,19.2L46.4,19.2z"/>
	<path class="st7" d="M43.5,7.2h0.8c2.5,0,4.6,2.2,4.6,5v14.1c0,2.7-2.1,5-4.6,5h-0.8c-2.5,0-4.6-2.2-4.6-5v-14
		C38.8,9.5,40.8,7.2,43.5,7.2z M44.3,30c1.9,0,3.4-1.7,3.4-3.7v-14c0-2-1.5-3.7-3.4-3.7h-0.8c-1.9,0-3.4,1.7-3.4,3.7v14
		c0,2,1.5,3.7,3.4,3.7H44.3z"/>
	<path class="st7" d="M39.8,18.6h8.6c0.3,0,0.6,0.3,0.6,0.6s-0.3,0.6-0.6,0.6h-8.6c-0.3,0-0.6-0.3-0.6-0.6
		C39.2,18.9,39.3,18.6,39.8,18.6z"/>
</g>
<g>
	<path class="st5" d="M76.2,12.3c0-2.4-1.8-4.3-4-4.3h-0.8c-2.2,0-4,1.9-4,4.3v7h9v-7H76.2z"/>
	<path class="st1" d="M71.2,30.6H72c2.2,0,4-1.9,4-4.3v-7h-9v7C67.2,28.6,68.9,30.6,71.2,30.6z"/>
	<path class="st6" d="M74.6,19.2h1.6v-7c0-2.4-1.8-4.3-4-4.3h-0.8c-1.4,0-2.6,0.7-3.4,1.9c0.4-0.2,0.8-0.3,1.4-0.3
		C72.2,9.5,74.6,13.8,74.6,19.2z"/>
	<path class="st3" d="M74.6,19.2c0,5.4-2.4,9.7-5.4,9.7c-0.4,0-0.9-0.1-1.4-0.3c0.7,1.2,2,1.9,3.4,1.9H72c2.2,0,4-1.9,4-4.3v-7
		L74.6,19.2L74.6,19.2z"/>
	<path class="st7" d="M71.7,7.2h0.8c2.5,0,4.6,2.2,4.6,5v14.1c0,2.7-2.1,5-4.6,5h-0.8c-2.5,0-4.6-2.2-4.6-5v-14
		C66.8,9.5,68.9,7.2,71.7,7.2z M72.4,30c1.9,0,3.4-1.7,3.4-3.7v-14c0-2-1.5-3.7-3.4-3.7h-0.8c-1.9,0-3.4,1.7-3.4,3.7v14
		c0,2,1.5,3.7,3.4,3.7H72.4z"/>
	<path class="st7" d="M67.9,18.6h8.6c0.3,0,0.6,0.3,0.6,0.6s-0.3,0.6-0.6,0.6h-8.6c-0.3,0-0.6-0.3-0.6-0.6
		C67.2,18.9,67.4,18.6,67.9,18.6z"/>
</g>
<g>
	<path class="st5" d="M104.4,12.3c0-2.4-1.8-4.3-4-4.3h-0.8c-2.2,0-4,1.9-4,4.3v7h9v-7H104.4z"/>
	<path class="st1" d="M99.4,30.6h0.8c2.2,0,4-1.9,4-4.3v-7h-9v7C95.4,28.6,97.2,30.6,99.4,30.6z"/>
	<path class="st6" d="M102.8,19.2h1.6v-7c0-2.4-1.8-4.3-4-4.3h-0.8c-1.4,0-2.6,0.7-3.4,1.9c0.4-0.2,0.8-0.3,1.4-0.3
		C100.5,9.5,102.8,13.8,102.8,19.2z"/>
	<path class="st3" d="M102.8,19.2c0,5.4-2.4,9.7-5.4,9.7c-0.4,0-0.9-0.1-1.4-0.3c0.7,1.2,2,1.9,3.4,1.9h0.8c2.2,0,4-1.9,4-4.3v-7
		L102.8,19.2L102.8,19.2z"/>
	<path class="st7" d="M99.9,7.2h0.8c2.5,0,4.6,2.2,4.6,5v14.1c0,2.7-2.1,5-4.6,5h-0.8c-2.5,0-4.6-2.2-4.6-5v-14
		C95.1,9.5,97.2,7.2,99.9,7.2z M100.7,30c1.9,0,3.4-1.7,3.4-3.7v-14c0-2-1.5-3.7-3.4-3.7h-0.8c-1.9,0-3.4,1.7-3.4,3.7v14
		c0,2,1.5,3.7,3.4,3.7H100.7z"/>
	<path class="st7" d="M96.2,18.6h8.6c0.3,0,0.6,0.3,0.6,0.6s-0.3,0.6-0.6,0.6h-8.6c-0.3,0-0.6-0.3-0.6-0.6
		C95.5,18.9,95.7,18.6,96.2,18.6z"/>
</g>
<g>
	<path class="st5" d="M131.4,12.3c0-2.4-1.8-4.3-4-4.3h-0.8c-2.2,0-4,1.9-4,4.3v7h9v-7H131.4z"/>
	<path class="st1" d="M126.4,30.6h0.8c2.2,0,4-1.9,4-4.3v-7h-9v7C122.4,28.6,124.2,30.6,126.4,30.6z"/>
	<path class="st6" d="M129.8,19.2h1.6v-7c0-2.4-1.8-4.3-4-4.3h-0.8c-1.4,0-2.6,0.7-3.4,1.9c0.4-0.2,0.8-0.3,1.4-0.3
		C127.5,9.5,129.8,13.8,129.8,19.2z"/>
	<path class="st3" d="M129.8,19.2c0,5.4-2.4,9.7-5.4,9.7c-0.4,0-0.9-0.1-1.4-0.3c0.7,1.2,2,1.9,3.4,1.9h0.8c2.2,0,4-1.9,4-4.3v-7
		L129.8,19.2L129.8,19.2z"/>
	<path class="st7" d="M126.9,7.2h0.8c2.5,0,4.6,2.2,4.6,5v14.1c0,2.7-2.1,5-4.6,5h-0.8c-2.5,0-4.6-2.2-4.6-5v-14
		C122.1,9.5,124.2,7.2,126.9,7.2z M127.7,30c1.9,0,3.4-1.7,3.4-3.7v-14c0-2-1.5-3.7-3.4-3.7h-0.8c-1.9,0-3.4,1.7-3.4,3.7v14
		c0,2,1.5,3.7,3.4,3.7H127.7z"/>
	<path class="st7" d="M123.2,18.6h8.6c0.3,0,0.6,0.3,0.6,0.6s-0.3,0.6-0.6,0.6h-8.6c-0.3,0-0.6-0.3-0.6-0.6
		C122.5,18.9,122.7,18.6,123.2,18.6z"/>
</g>
<g>
	<path class="st5" d="M22.4,53.5c0-2.4-1.8-4.3-4-4.3h-0.8c-2.2,0-4,1.9-4,4.3v7h9v-7H22.4z"/>
	<path class="st1" d="M17.4,71.8h0.8c2.2,0,4-1.9,4-4.3v-7h-9v7C13.4,69.8,15.2,71.8,17.4,71.8z"/>
	<path class="st6" d="M20.8,60.4h1.6v-7c0-2.4-1.8-4.3-4-4.3h-0.8c-1.4,0-2.6,0.7-3.4,1.9c0.4-0.2,0.8-0.3,1.4-0.3
		C18.5,50.7,20.8,55,20.8,60.4z"/>
	<path class="st3" d="M20.8,60.4c0,5.4-2.4,9.7-5.4,9.7c-0.4,0-0.9-0.1-1.4-0.3c0.7,1.2,2,1.9,3.4,1.9h0.8c2.2,0,4-1.9,4-4.3v-7
		L20.8,60.4L20.8,60.4z"/>
	<path class="st7" d="M17.9,48.4h0.8c2.5,0,4.6,2.2,4.6,5v14.1c0,2.7-2.1,5-4.6,5h-0.8c-2.5,0-4.6-2.2-4.6-5v-14
		C13.1,50.7,15.2,48.4,17.9,48.4z M18.7,71.2c1.9,0,3.4-1.7,3.4-3.7v-14c0-2-1.5-3.7-3.4-3.7h-0.8c-1.9,0-3.4,1.7-3.4,3.7v14
		c0,2,1.5,3.7,3.4,3.7H18.7z"/>
	<path class="st7" d="M14.2,59.8h8.6c0.3,0,0.6,0.3,0.6,0.6S23.1,61,22.8,61h-8.6c-0.3,0-0.6-0.3-0.6-0.6
		C13.5,60.1,13.7,59.8,14.2,59.8z"/>
</g>
<g>
	<path class="st5" d="M49,53.5c0-2.4-1.8-4.3-4-4.3h-0.8c-2.2,0-4,1.9-4,4.3v7h9v-7H49z"/>
	<path class="st1" d="M44,71.8h0.8c2.2,0,4-1.9,4-4.3v-7h-9v7C40,69.8,41.8,71.8,44,71.8z"/>
	<path class="st6" d="M47.4,60.4H49v-7c0-2.4-1.8-4.3-4-4.3h-0.8c-1.4,0-2.6,0.7-3.4,1.9c0.4-0.2,0.8-0.3,1.4-0.3
		C45.1,50.7,47.4,55,47.4,60.4z"/>
	<path class="st3" d="M47.4,60.4c0,5.4-2.4,9.7-5.4,9.7c-0.4,0-0.9-0.1-1.4-0.3c0.7,1.2,2,1.9,3.4,1.9h0.8c2.2,0,4-1.9,4-4.3v-7
		L47.4,60.4L47.4,60.4z"/>
	<path class="st7" d="M44.5,48.4h0.8c2.5,0,4.6,2.2,4.6,5v14.1c0,2.7-2.1,5-4.6,5h-0.8c-2.5,0-4.6-2.2-4.6-5v-14
		C39.7,50.7,41.8,48.4,44.5,48.4z M45.3,71.2c1.9,0,3.4-1.7,3.4-3.7v-14c0-2-1.5-3.7-3.4-3.7h-0.8c-1.9,0-3.4,1.7-3.4,3.7v14
		c0,2,1.5,3.7,3.4,3.7H45.3z"/>
	<path class="st7" d="M40.8,59.8h8.6c0.3,0,0.6,0.3,0.6,0.6S49.7,61,49.4,61h-8.6c-0.3,0-0.6-0.3-0.6-0.6
		C40.1,60.1,40.3,59.8,40.8,59.8z"/>
</g>
<g>
	<path class="st5" d="M77.1,53.5c0-2.4-1.8-4.3-4-4.3h-0.8c-2.2,0-4,1.9-4,4.3v7h9v-7H77.1z"/>
	<path class="st1" d="M72.1,71.8h0.8c2.2,0,4-1.9,4-4.3v-7h-9v7C68.1,69.8,69.9,71.8,72.1,71.8z"/>
	<path class="st6" d="M75.5,60.4h1.6v-7c0-2.4-1.8-4.3-4-4.3h-0.8c-1.4,0-2.6,0.7-3.4,1.9c0.4-0.2,0.8-0.3,1.4-0.3
		C73.2,50.7,75.5,55,75.5,60.4z"/>
	<path class="st3" d="M75.5,60.4c0,5.4-2.4,9.7-5.4,9.7c-0.4,0-0.9-0.1-1.4-0.3c0.7,1.2,2,1.9,3.4,1.9h0.8c2.2,0,4-1.9,4-4.3v-7
		L75.5,60.4L75.5,60.4z"/>
	<path class="st7" d="M72.6,48.4h0.8c2.5,0,4.6,2.2,4.6,5v14.1c0,2.7-2.1,5-4.6,5h-0.8c-2.5,0-4.6-2.2-4.6-5v-14
		C67.8,50.7,69.9,48.4,72.6,48.4z M73.4,71.2c1.9,0,3.4-1.7,3.4-3.7v-14c0-2-1.5-3.7-3.4-3.7h-0.8c-1.9,0-3.4,1.7-3.4,3.7v14
		c0,2,1.5,3.7,3.4,3.7H73.4z"/>
	<path class="st7" d="M68.9,59.8h8.6c0.3,0,0.6,0.3,0.6,0.6S77.8,61,77.5,61h-8.6c-0.3,0-0.6-0.3-0.6-0.6
		C68.2,60.1,68.4,59.8,68.9,59.8z"/>
</g>
<g>
	<path class="st5" d="M105.3,53.5c0-2.4-1.8-4.3-4-4.3h-0.8c-2.2,0-4,1.9-4,4.3v7h9v-7H105.3z"/>
	<path class="st1" d="M100.3,71.8h0.8c2.2,0,4-1.9,4-4.3v-7h-9v7C96.3,69.8,98.1,71.8,100.3,71.8z"/>
	<path class="st6" d="M103.7,60.4h1.6v-7c0-2.4-1.8-4.3-4-4.3h-0.8c-1.4,0-2.6,0.7-3.4,1.9c0.4-0.2,0.8-0.3,1.4-0.3
		C101.4,50.7,103.7,55,103.7,60.4z"/>
	<path class="st3" d="M103.7,60.4c0,5.4-2.4,9.7-5.4,9.7c-0.4,0-0.9-0.1-1.4-0.3c0.7,1.2,2,1.9,3.4,1.9h0.8c2.2,0,4-1.9,4-4.3v-7
		L103.7,60.4L103.7,60.4z"/>
	<path class="st7" d="M100.8,48.4h0.8c2.5,0,4.6,2.2,4.6,5v14.1c0,2.7-2.1,5-4.6,5h-0.8c-2.5,0-4.6-2.2-4.6-5v-14
		C96,50.7,98.1,48.4,100.8,48.4z M101.6,71.2c1.9,0,3.4-1.7,3.4-3.7v-14c0-2-1.5-3.7-3.4-3.7h-0.8c-1.9,0-3.4,1.7-3.4,3.7v14
		c0,2,1.5,3.7,3.4,3.7H101.6z"/>
	<path class="st7" d="M97.1,59.8h8.6c0.3,0,0.6,0.3,0.6,0.6S106,61,105.7,61h-8.6c-0.3,0-0.6-0.3-0.6-0.6
		C96.4,60.1,96.6,59.8,97.1,59.8z"/>
</g>
<g>
	<path class="st5" d="M132.3,53.5c0-2.4-1.8-4.3-4-4.3h-0.8c-2.2,0-4,1.9-4,4.3v7h9v-7H132.3z"/>
	<path class="st1" d="M127.3,71.8h0.8c2.2,0,4-1.9,4-4.3v-7h-9v7C123.3,69.8,125.1,71.8,127.3,71.8z"/>
	<path class="st6" d="M130.7,60.4h1.6v-7c0-2.4-1.8-4.3-4-4.3h-0.8c-1.4,0-2.6,0.7-3.4,1.9c0.4-0.2,0.8-0.3,1.4-0.3
		C128.4,50.7,130.7,55,130.7,60.4z"/>
	<path class="st3" d="M130.7,60.4c0,5.4-2.4,9.7-5.4,9.7c-0.4,0-0.9-0.1-1.4-0.3c0.7,1.2,2,1.9,3.4,1.9h0.8c2.2,0,4-1.9,4-4.3v-7
		L130.7,60.4L130.7,60.4z"/>
	<path class="st7" d="M127.8,48.4h0.8c2.5,0,4.6,2.2,4.6,5v14.1c0,2.7-2.1,5-4.6,5h-0.8c-2.5,0-4.6-2.2-4.6-5v-14
		C123,50.7,125.1,48.4,127.8,48.4z M128.6,71.2c1.9,0,3.4-1.7,3.4-3.7v-14c0-2-1.5-3.7-3.4-3.7h-0.8c-1.9,0-3.4,1.7-3.4,3.7v14
		c0,2,1.5,3.7,3.4,3.7H128.6z"/>
	<path class="st7" d="M124.1,59.8h8.6c0.3,0,0.6,0.3,0.6,0.6S133,61,132.7,61h-8.6c-0.3,0-0.6-0.3-0.6-0.6
		C123.4,60.1,123.6,59.8,124.1,59.8z"/>
</g>
</svg>
