<?xml version="1.0" encoding="utf-8"?>
<!-- Generator: Adobe Illustrator 23.1.1, SVG Export Plug-In . SVG Version: 6.00 Build 0)  -->
<svg version="1.1" id="Layer_1" xmlns="http://www.w3.org/2000/svg" xmlns:xlink="http://www.w3.org/1999/xlink" x="0px" y="0px"
	 viewBox="0 0 141 138.8" style="enable-background:new 0 0 141 138.8;" xml:space="preserve">
<style type="text/css">
	.st0{fill:#99D3CB;}
	.st1{fill:#FFF9EF;}
	.st2{fill:#6FCACD;}
	.st3{fill:#DAECCD;}
	.st4{fill:#871C1C;}
</style>
<g>
	<path class="st0" d="M85.8,10.3c0-2.3-1.7-4.1-3.8-4.1h-0.8c-2.1,0-3.8,1.8-3.8,4.1v6.6h8.5L85.8,10.3L85.8,10.3z"/>
	<path class="st1" d="M81.1,27.7h0.8c2.1,0,3.8-1.8,3.8-4.1V17h-8.5v6.6C77.3,25.8,79,27.7,81.1,27.7z"/>
	<path class="st2" d="M84.3,16.9h1.5v-6.6c0-2.3-1.7-4.1-3.8-4.1h-0.8c-1.3,0-2.5,0.7-3.2,1.8c0.4-0.2,0.8-0.3,1.3-0.3
		C82,7.7,84.3,11.8,84.3,16.9z"/>
	<path class="st3" d="M84.3,16.9c0,5.1-2.3,9.2-5.1,9.2c-0.4,0-0.9-0.1-1.3-0.3c0.7,1.1,1.9,1.8,3.2,1.8H82c2.1,0,3.8-1.8,3.8-4.1
		v-6.6L84.3,16.9L84.3,16.9z"/>
	<path class="st4" d="M81.4,5.5h0.8c2.4,0,4.4,2.1,4.4,4.7v13.3c0,2.6-2,4.7-4.4,4.7h-0.8c-2.4,0-4.4-2.1-4.4-4.7V10.2
		C77,7.7,79,5.5,81.4,5.5z M82.3,27.1c1.8,0,3.2-1.6,3.2-3.5V10.3c0-1.9-1.4-3.5-3.2-3.5h-0.8c-1.8,0-3.2,1.6-3.2,3.5v13.3
		c0,1.9,1.4,3.5,3.2,3.5H82.3z"/>
	<path class="st4" d="M77.9,16.3h8.2c0.3,0,0.6,0.3,0.6,0.6c0,0.3-0.3,0.6-0.6,0.6h-8.2c-0.3,0-0.6-0.3-0.6-0.6
		C77.3,16.6,77.6,16.3,77.9,16.3z"/>
</g>
<g>
	<path class="st0" d="M37.1,10.3c0-2.3-1.7-4.1-3.8-4.1h-0.8c-2.1,0-3.8,1.8-3.8,4.1v6.6h8.5v-6.6H37.1z"/>
	<path class="st1" d="M32.4,27.7h0.8c2.1,0,3.8-1.8,3.8-4.1V17h-8.5v6.6C28.6,25.8,30.3,27.7,32.4,27.7z"/>
	<path class="st2" d="M35.6,16.9h1.5v-6.6c0-2.3-1.7-4.1-3.8-4.1h-0.8c-1.3,0-2.5,0.7-3.2,1.8c0.4-0.2,0.8-0.3,1.3-0.3
		C33.3,7.7,35.6,11.8,35.6,16.9z"/>
	<path class="st3" d="M35.6,16.9c0,5.1-2.3,9.2-5.1,9.2c-0.4,0-0.9-0.1-1.3-0.3c0.7,1.1,1.9,1.8,3.2,1.8h0.8c2.1,0,3.8-1.8,3.8-4.1
		v-6.6L35.6,16.9L35.6,16.9z"/>
	<path class="st4" d="M32.7,5.5h0.8c2.5,0,4.5,2.2,4.5,4.8v13.3c0,2.6-2,4.7-4.4,4.7h-0.8c-2.4,0-4.4-2.1-4.4-4.7V10.3
		C28.3,7.7,30.3,5.5,32.7,5.5z M33.6,27.1c1.8,0,3.2-1.6,3.2-3.5V10.3c0-1.9-1.4-3.5-3.2-3.5h-0.8c-1.8,0-3.2,1.6-3.2,3.5v13.3
		c0,1.9,1.4,3.5,3.2,3.5H33.6z"/>
	<path class="st4" d="M29.2,16.3h8.2c0.3,0,0.6,0.3,0.6,0.6c0,0.3-0.3,0.6-0.6,0.6h-8.2c-0.3,0-0.6-0.3-0.6-0.6
		C28.6,16.6,28.9,16.3,29.2,16.3z"/>
</g>
<g>
	<path class="st0" d="M134.4,10.3c0-2.3-1.7-4.1-3.8-4.1h-0.8c-2.1,0-3.8,1.8-3.8,4.1v6.6h8.5L134.4,10.3L134.4,10.3z"/>
	<path class="st1" d="M129.8,27.7h0.8c2.1,0,3.8-1.8,3.8-4.1V17h-8.5v6.6C126,25.8,127.7,27.7,129.8,27.7z"/>
	<path class="st2" d="M133,16.9h1.5v-6.6c0-2.3-1.7-4.1-3.8-4.1h-0.8c-1.3,0-2.5,0.7-3.2,1.8c0.4-0.2,0.8-0.3,1.3-0.3
		C130.7,7.7,133,11.8,133,16.9z"/>
	<path class="st3" d="M133,16.9c0,5.1-2.3,9.2-5.1,9.2c-0.4,0-0.9-0.1-1.3-0.3c0.7,1.1,1.9,1.8,3.2,1.8h0.8c2.1,0,3.8-1.8,3.8-4.1
		v-6.6L133,16.9L133,16.9z"/>
	<path class="st4" d="M130.1,5.5h0.8c2.4,0,4.4,2.1,4.4,4.7v13.3c0,2.6-2,4.7-4.4,4.7h-0.8c-2.4,0-4.4-2.1-4.4-4.7V10.2
		C125.7,7.7,127.7,5.5,130.1,5.5z M131,27.1c1.8,0,3.2-1.6,3.2-3.5V10.3c0-1.9-1.4-3.5-3.2-3.5h-0.8c-1.8,0-3.2,1.6-3.2,3.5v13.3
		c0,1.9,1.4,3.5,3.2,3.5H131z"/>
	<path class="st4" d="M126.6,16.3h8.2c0.3,0,0.6,0.3,0.6,0.6c0,0.3-0.3,0.6-0.6,0.6h-8.2c-0.3,0-0.6-0.3-0.6-0.6
		C126,16.6,126.3,16.3,126.6,16.3z"/>
</g>
<g>
	<path class="st0" d="M61.4,10.3c0-2.3-1.7-4.1-3.8-4.1h-0.8C54.7,6.2,53,8,53,10.3v6.6h8.5v-6.6H61.4z"/>
	<path class="st1" d="M56.7,27.7h0.8c2.1,0,3.8-1.8,3.8-4.1V17h-8.5v6.6C52.9,25.8,54.6,27.7,56.7,27.7z"/>
	<path class="st2" d="M59.9,16.9h1.5v-6.6c0-2.3-1.7-4.1-3.8-4.1h-0.8c-1.3,0-2.5,0.7-3.2,1.8c0.4-0.2,0.8-0.3,1.3-0.3
		C57.7,7.7,59.9,11.8,59.9,16.9z"/>
	<path class="st3" d="M59.9,16.9c0,5.1-2.3,9.2-5.1,9.2c-0.4,0-0.9-0.1-1.3-0.3c0.7,1.1,1.9,1.8,3.2,1.8h0.8c2.1,0,3.8-1.8,3.8-4.1
		v-6.6L59.9,16.9L59.9,16.9z"/>
	<path class="st4" d="M57.1,5.5h0.8c2.4,0,4.4,2.1,4.4,4.7v13.3c0,2.6-2,4.7-4.4,4.7h-0.8c-2.4,0-4.4-2.1-4.4-4.7V10.2
		C52.7,7.7,54.6,5.5,57.1,5.5z M57.9,27.1c1.8,0,3.2-1.6,3.2-3.5V10.3c0-1.9-1.4-3.5-3.2-3.5h-0.8c-1.8,0-3.2,1.6-3.2,3.5v13.3
		c0,1.9,1.4,3.5,3.2,3.5H57.9z"/>
	<path class="st4" d="M53.6,16.3h8.2c0.3,0,0.6,0.3,0.6,0.6c0,0.3-0.3,0.6-0.6,0.6h-8.2c-0.3,0-0.6-0.3-0.6-0.6
		C53,16.6,53.2,16.3,53.6,16.3z"/>
</g>
<g>
	<path class="st0" d="M110.1,10.3c0-2.3-1.7-4.1-3.8-4.1h-0.8c-2.1,0-3.8,1.8-3.8,4.1v6.6h8.5L110.1,10.3L110.1,10.3z"/>
	<path class="st1" d="M105.4,27.7h0.8c2.1,0,3.8-1.8,3.8-4.1V17h-8.5v6.6C101.6,25.8,103.3,27.7,105.4,27.7z"/>
	<path class="st2" d="M108.6,16.9h1.5v-6.6c0-2.3-1.7-4.1-3.8-4.1h-0.8c-1.3,0-2.5,0.7-3.2,1.8c0.4-0.2,0.8-0.3,1.3-0.3
		C106.4,7.7,108.6,11.8,108.6,16.9z"/>
	<path class="st3" d="M108.6,16.9c0,5.1-2.3,9.2-5.1,9.2c-0.4,0-0.9-0.1-1.3-0.3c0.7,1.1,1.9,1.8,3.2,1.8h0.8c2.1,0,3.8-1.8,3.8-4.1
		v-6.6L108.6,16.9L108.6,16.9z"/>
	<path class="st4" d="M105.8,5.5h0.8c2.4,0,4.4,2.1,4.4,4.7v13.3c0,2.6-2,4.7-4.4,4.7h-0.8c-2.4,0-4.4-2.1-4.4-4.7V10.2
		C101.3,7.7,103.3,5.5,105.8,5.5z M106.6,27.1c1.8,0,3.2-1.6,3.2-3.5V10.3c0-1.9-1.4-3.5-3.2-3.5h-0.8c-1.8,0-3.2,1.6-3.2,3.5v13.3
		c0,1.9,1.4,3.5,3.2,3.5H106.6z"/>
	<path class="st4" d="M102.3,16.3h8.2c0.3,0,0.6,0.3,0.6,0.6c0,0.3-0.3,0.6-0.6,0.6h-8.2c-0.3,0-0.6-0.3-0.6-0.6
		C101.7,16.6,101.9,16.3,102.3,16.3z"/>
</g>
<g>
	<path class="st0" d="M12.7,10.3c0-2.3-1.7-4.1-3.8-4.1H8.1C6,6.2,4.2,8,4.2,10.3v6.6h8.5V10.3z"/>
	<path class="st1" d="M8.1,27.7h0.8c2.1,0,3.8-1.8,3.8-4.1V17H4.2v6.6C4.2,25.8,6,27.7,8.1,27.7z"/>
	<path class="st2" d="M11.2,16.9h1.5v-6.6c0-2.3-1.7-4.1-3.8-4.1H8.1C6.8,6.2,5.6,6.9,4.9,8c0.4-0.2,0.8-0.3,1.3-0.3
		C9,7.7,11.2,11.8,11.2,16.9z"/>
	<path class="st3" d="M11.2,16.9c0,5.1-2.3,9.2-5.1,9.2c-0.4,0-0.9-0.1-1.3-0.3c0.7,1.1,1.9,1.8,3.2,1.8h0.8c2.1,0,3.8-1.8,3.8-4.1
		v-6.6L11.2,16.9L11.2,16.9z"/>
	<path class="st4" d="M8.4,5.5h0.8c2.4,0,4.4,2.1,4.4,4.7v13.3c0,2.6-2,4.7-4.4,4.7H8.4C6,28.3,4,26.2,4,23.6V10.3
		C4,7.7,6,5.5,8.4,5.5z M9.2,27.1c1.8,0,3.2-1.6,3.2-3.5V10.3c0-1.9-1.4-3.5-3.2-3.5H8.4c-1.8,0-3.2,1.6-3.2,3.5v13.3
		c0,1.9,1.4,3.5,3.2,3.5H9.2z"/>
	<path class="st4" d="M4.9,16.3h8.2c0.3,0,0.6,0.3,0.6,0.6c0,0.3-0.3,0.6-0.6,0.6H4.9c-0.3,0-0.6-0.3-0.6-0.6
		C4.3,16.6,4.6,16.3,4.9,16.3z"/>
</g>
<g>
	<path class="st0" d="M84.8,42.9c0-2.3-1.7-4.1-3.8-4.1h-0.8c-2.1,0-3.8,1.8-3.8,4.1v6.6h8.5L84.8,42.9L84.8,42.9z"/>
	<path class="st1" d="M80.1,60.3H81c2.1,0,3.8-1.8,3.8-4.1v-6.6h-8.5v6.6C76.3,58.4,78,60.3,80.1,60.3z"/>
	<path class="st2" d="M83.3,49.5h1.5v-6.6c0-2.3-1.7-4.1-3.8-4.1h-0.8c-1.3,0-2.5,0.7-3.2,1.8c0.4-0.2,0.8-0.3,1.3-0.3
		C81,40.3,83.3,44.4,83.3,49.5z"/>
	<path class="st3" d="M83.3,49.5c0,5.1-2.3,9.2-5.1,9.2c-0.4,0-0.9-0.1-1.3-0.3c0.7,1.1,1.9,1.8,3.2,1.8H81c2.1,0,3.8-1.8,3.8-4.1
		v-6.6L83.3,49.5L83.3,49.5z"/>
	<path class="st4" d="M80.5,38.1h0.8c2.4,0,4.4,2.1,4.4,4.7v13.3c0,2.6-2,4.7-4.4,4.7h-0.8c-2.4,0-4.4-2.1-4.4-4.7V42.8
		C76,40.3,78,38.1,80.5,38.1z M81.3,59.7c1.8,0,3.2-1.6,3.2-3.5V42.9c0-1.9-1.4-3.5-3.2-3.5h-0.8c-1.8,0-3.2,1.6-3.2,3.5v13.3
		c0,1.9,1.4,3.5,3.2,3.5H81.3z"/>
	<path class="st4" d="M77,48.9h8.2c0.3,0,0.6,0.3,0.6,0.6s-0.3,0.6-0.6,0.6H77c-0.3,0-0.6-0.3-0.6-0.6S76.6,48.9,77,48.9z"/>
</g>
<g>
	<path class="st0" d="M36.1,42.9c0-2.3-1.7-4.1-3.8-4.1h-0.8c-2.1,0-3.8,1.8-3.8,4.1v6.6h8.5v-6.6H36.1z"/>
	<path class="st1" d="M31.4,60.3h0.8c2.1,0,3.8-1.8,3.8-4.1v-6.6h-8.5v6.6C27.6,58.4,29.3,60.3,31.4,60.3z"/>
	<path class="st2" d="M34.6,49.5h1.5v-6.6c0-2.3-1.7-4.1-3.8-4.1h-0.8c-1.3,0-2.5,0.7-3.2,1.8c0.4-0.2,0.8-0.3,1.3-0.3
		C32.4,40.3,34.6,44.4,34.6,49.5z"/>
	<path class="st3" d="M34.6,49.5c0,5.1-2.3,9.2-5.1,9.2c-0.4,0-0.9-0.1-1.3-0.3c0.7,1.1,1.9,1.8,3.2,1.8h0.8c2.1,0,3.8-1.8,3.8-4.1
		v-6.6L34.6,49.5L34.6,49.5z"/>
	<path class="st4" d="M31.8,38.1h0.8c2.4,0,4.4,2.1,4.4,4.7v13.3c0,2.6-2,4.7-4.4,4.7h-0.8c-2.4,0-4.4-2.1-4.4-4.7V42.8
		C27.3,40.3,29.3,38.1,31.8,38.1z M32.6,59.7c1.8,0,3.2-1.6,3.2-3.5V42.9c0-1.9-1.4-3.5-3.2-3.5h-0.8c-1.8,0-3.2,1.6-3.2,3.5v13.3
		c0,1.9,1.4,3.5,3.2,3.5H32.6z"/>
	<path class="st4" d="M28.3,48.9h8.2c0.3,0,0.6,0.3,0.6,0.6s-0.3,0.6-0.6,0.6h-8.2c-0.3,0-0.6-0.3-0.6-0.6
		C27.7,49.2,27.9,48.9,28.3,48.9z"/>
</g>
<g>
	<path class="st0" d="M133.5,42.9c0-2.3-1.7-4.1-3.8-4.1h-0.8c-2.1,0-3.8,1.8-3.8,4.1v6.6h8.5L133.5,42.9L133.5,42.9z"/>
	<path class="st1" d="M128.8,60.3h0.8c2.1,0,3.8-1.8,3.8-4.1v-6.6h-8.5v6.6C125,58.4,126.7,60.3,128.8,60.3z"/>
	<path class="st2" d="M132,49.5h1.5v-6.6c0-2.3-1.7-4.1-3.8-4.1h-0.8c-1.3,0-2.5,0.7-3.2,1.8c0.4-0.2,0.8-0.3,1.3-0.3
		C129.7,40.3,132,44.4,132,49.5z"/>
	<path class="st3" d="M132,49.5c0,5.1-2.3,9.2-5.1,9.2c-0.4,0-0.9-0.1-1.3-0.3c0.7,1.1,1.9,1.8,3.2,1.8h0.8c2.1,0,3.8-1.8,3.8-4.1
		v-6.6L132,49.5L132,49.5z"/>
	<path class="st4" d="M129.2,38.1h0.8c2.4,0,4.4,2.1,4.4,4.7v13.3c0,2.6-2,4.7-4.4,4.7h-0.8c-2.4,0-4.4-2.1-4.4-4.7V42.8
		C124.7,40.3,126.7,38.1,129.2,38.1z M130,59.7c1.8,0,3.2-1.6,3.2-3.5V42.9c0-1.9-1.4-3.5-3.2-3.5h-0.8c-1.8,0-3.2,1.6-3.2,3.5v13.3
		c0,1.9,1.4,3.5,3.2,3.5H130z"/>
	<path class="st4" d="M125.7,48.9h8.2c0.3,0,0.6,0.3,0.6,0.6s-0.3,0.6-0.6,0.6h-8.2c-0.3,0-0.6-0.3-0.6-0.6
		C125,49.2,125.3,48.9,125.7,48.9z"/>
</g>
<g>
	<path class="st0" d="M60.4,42.9c0-2.3-1.7-4.1-3.8-4.1h-0.8c-2.1,0-3.8,1.8-3.8,4.1v6.6h8.5v-6.6H60.4z"/>
	<path class="st1" d="M55.8,60.3h0.8c2.1,0,3.8-1.8,3.8-4.1v-6.6h-8.5v6.6C52,58.4,53.7,60.3,55.8,60.3z"/>
	<path class="st2" d="M59,49.5h1.5v-6.6c0-2.3-1.7-4.1-3.8-4.1h-0.8c-1.3,0-2.5,0.7-3.2,1.8c0.4-0.2,0.8-0.3,1.3-0.3
		C56.7,40.3,59,44.4,59,49.5z"/>
	<path class="st3" d="M59,49.5c0,5.1-2.3,9.2-5.1,9.2c-0.4,0-0.9-0.1-1.3-0.3c0.7,1.1,1.9,1.8,3.2,1.8h0.8c2.1,0,3.8-1.8,3.8-4.1
		v-6.6L59,49.5L59,49.5z"/>
	<path class="st4" d="M56.1,38.1H57c2.4,0,4.4,2.1,4.4,4.7v13.3c0,2.6-2,4.7-4.4,4.7h-0.8c-2.4,0-4.4-2.1-4.4-4.7V42.8
		C51.7,40.3,53.7,38.1,56.1,38.1z M57,59.7c1.8,0,3.2-1.6,3.2-3.5V42.9c0-1.9-1.4-3.5-3.2-3.5h-0.8c-1.8,0-3.2,1.6-3.2,3.5v13.3
		c0,1.9,1.4,3.5,3.2,3.5H57z"/>
	<path class="st4" d="M52.6,48.9h8.2c0.3,0,0.6,0.3,0.6,0.6s-0.3,0.6-0.6,0.6h-8.2c-0.3,0-0.6-0.3-0.6-0.6S52.3,48.9,52.6,48.9z"/>
</g>
<g>
	<path class="st0" d="M109.1,42.9c0-2.3-1.7-4.1-3.8-4.1h-0.8c-2.1,0-3.8,1.8-3.8,4.1v6.6h8.5L109.1,42.9L109.1,42.9z"/>
	<path class="st1" d="M104.5,60.3h0.8c2.1,0,3.8-1.8,3.8-4.1v-6.6h-8.5v6.6C100.7,58.4,102.4,60.3,104.5,60.3z"/>
	<path class="st2" d="M107.7,49.5h1.5v-6.6c0-2.3-1.7-4.1-3.8-4.1h-0.8c-1.3,0-2.5,0.7-3.2,1.8c0.4-0.2,0.8-0.3,1.3-0.3
		C105.4,40.3,107.7,44.4,107.7,49.5z"/>
	<path class="st3" d="M107.7,49.5c0,5.1-2.3,9.2-5.1,9.2c-0.4,0-0.9-0.1-1.3-0.3c0.7,1.1,1.9,1.8,3.2,1.8h0.8c2.1,0,3.8-1.8,3.8-4.1
		v-6.6L107.7,49.5L107.7,49.5z"/>
	<path class="st4" d="M104.8,38.1h0.8c2.4,0,4.4,2.1,4.4,4.7v13.3c0,2.6-2,4.7-4.4,4.7h-0.8c-2.4,0-4.4-2.1-4.4-4.7V42.8
		C100.4,40.3,102.4,38.1,104.8,38.1z M105.7,59.7c1.8,0,3.2-1.6,3.2-3.5V42.9c0-1.9-1.4-3.5-3.2-3.5h-0.8c-1.8,0-3.2,1.6-3.2,3.5
		v13.3c0,1.9,1.4,3.5,3.2,3.5H105.7z"/>
	<path class="st4" d="M101.3,48.9h8.2c0.3,0,0.6,0.3,0.6,0.6s-0.3,0.6-0.6,0.6h-8.2c-0.3,0-0.6-0.3-0.6-0.6
		C100.7,49.2,101,48.9,101.3,48.9z"/>
</g>
<g>
	<path class="st0" d="M11.8,42.9c0-2.3-1.7-4.1-3.8-4.1H7.1c-2.1,0-3.8,1.8-3.8,4.1v6.6h8.5V42.9z"/>
	<path class="st1" d="M7.1,60.3h0.8c2.1,0,3.8-1.8,3.8-4.1v-6.6H3.2v6.6C3.3,58.4,5,60.3,7.1,60.3z"/>
	<path class="st2" d="M10.3,49.5h1.5v-6.6c0-2.3-1.7-4.1-3.8-4.1H7.1c-1.3,0-2.5,0.7-3.2,1.8c0.4-0.2,0.8-0.3,1.3-0.3
		C8,40.3,10.3,44.4,10.3,49.5z"/>
	<path class="st3" d="M10.3,49.5c0,5.1-2.3,9.2-5.1,9.2c-0.4,0-0.9-0.1-1.3-0.3c0.7,1.1,1.9,1.8,3.2,1.8H8c2.1,0,3.8-1.8,3.8-4.1
		v-6.6L10.3,49.5L10.3,49.5z"/>
	<path class="st4" d="M7.4,38.1h0.8c2.4,0,4.4,2.1,4.4,4.7v13.3c0,2.6-2,4.7-4.4,4.7H7.4C5,60.9,3,58.8,3,56.2V42.9
		C3,40.3,5,38.1,7.4,38.1z M8.3,59.7c1.8,0,3.2-1.6,3.2-3.5V42.9c0-1.9-1.4-3.5-3.2-3.5H7.4c-1.8,0-3.2,1.6-3.2,3.5v13.3
		c0,1.9,1.4,3.5,3.2,3.5H8.3z"/>
	<path class="st4" d="M3.9,48.9h8.2c0.3,0,0.6,0.3,0.6,0.6s-0.3,0.6-0.6,0.6H3.9c-0.3,0-0.6-0.3-0.6-0.6C3.3,49.2,3.6,48.9,3.9,48.9
		z"/>
</g>
<g>
	<path class="st0" d="M84.8,79.7c0-2.3-1.7-4.1-3.8-4.1h-0.8c-2.1,0-3.8,1.8-3.8,4.1v6.6h8.5L84.8,79.7L84.8,79.7z"/>
	<path class="st1" d="M80.1,97.1H81c2.1,0,3.8-1.8,3.8-4.1v-6.6h-8.5V93C76.3,95.2,78,97.1,80.1,97.1z"/>
	<path class="st2" d="M83.3,86.3h1.5v-6.6c0-2.3-1.7-4.1-3.8-4.1h-0.8c-1.3,0-2.5,0.7-3.2,1.8c0.4-0.2,0.8-0.3,1.3-0.3
		C81,77.1,83.3,81.2,83.3,86.3z"/>
	<path class="st3" d="M83.3,86.3c0,5.1-2.3,9.2-5.1,9.2c-0.4,0-0.9-0.1-1.3-0.3c0.7,1.1,1.9,1.8,3.2,1.8H81c2.1,0,3.8-1.8,3.8-4.1
		v-6.6H83.3L83.3,86.3z"/>
	<path class="st4" d="M80.5,74.9h0.8c2.4,0,4.4,2.1,4.4,4.7V93c0,2.6-2,4.7-4.4,4.7h-0.8C78,97.7,76,95.6,76,93V79.7
		C76,77.1,78,74.9,80.5,74.9z M81.3,96.5c1.8,0,3.2-1.6,3.2-3.5V79.7c0-1.9-1.4-3.5-3.2-3.5h-0.8c-1.8,0-3.2,1.6-3.2,3.5V93
		c0,1.9,1.4,3.5,3.2,3.5H81.3z"/>
	<path class="st4" d="M77,85.7h8.2c0.3,0,0.6,0.3,0.6,0.6c0,0.3-0.3,0.6-0.6,0.6H77c-0.3,0-0.6-0.3-0.6-0.6S76.6,85.7,77,85.7z"/>
</g>
<g>
	<path class="st0" d="M36.1,79.7c0-2.3-1.7-4.1-3.8-4.1h-0.8c-2.1,0-3.8,1.8-3.8,4.1v6.6h8.5v-6.6H36.1z"/>
	<path class="st1" d="M31.4,97.1h0.8c2.1,0,3.8-1.8,3.8-4.1v-6.6h-8.5V93C27.6,95.2,29.3,97.1,31.4,97.1z"/>
	<path class="st2" d="M34.6,86.3h1.5v-6.6c0-2.3-1.7-4.1-3.8-4.1h-0.8c-1.3,0-2.5,0.7-3.2,1.8c0.4-0.2,0.8-0.3,1.3-0.3
		C32.4,77.1,34.6,81.2,34.6,86.3z"/>
	<path class="st3" d="M34.6,86.3c0,5.1-2.3,9.2-5.1,9.2c-0.4,0-0.9-0.1-1.3-0.3c0.7,1.1,1.9,1.8,3.2,1.8h0.8c2.1,0,3.8-1.8,3.8-4.1
		v-6.6H34.6L34.6,86.3z"/>
	<path class="st4" d="M31.8,74.9h0.8c2.4,0,4.4,2.1,4.4,4.7V93c0,2.6-2,4.7-4.4,4.7h-0.8c-2.4,0-4.4-2.1-4.4-4.7V79.7
		C27.3,77.1,29.3,74.9,31.8,74.9z M32.6,96.5c1.8,0,3.2-1.6,3.2-3.5V79.7c0-1.9-1.4-3.5-3.2-3.5h-0.8c-1.8,0-3.2,1.6-3.2,3.5V93
		c0,1.9,1.4,3.5,3.2,3.5H32.6z"/>
	<path class="st4" d="M28.3,85.7h8.2c0.3,0,0.6,0.3,0.6,0.6c0,0.3-0.3,0.6-0.6,0.6h-8.2c-0.3,0-0.6-0.3-0.6-0.6
		C27.7,86,27.9,85.7,28.3,85.7z"/>
</g>
<g>
	<path class="st0" d="M133.5,79.7c0-2.3-1.7-4.1-3.8-4.1h-0.8c-2.1,0-3.8,1.8-3.8,4.1v6.6h8.5L133.5,79.7L133.5,79.7z"/>
	<path class="st1" d="M128.8,97.1h0.8c2.1,0,3.8-1.8,3.8-4.1v-6.6h-8.5V93C125,95.2,126.7,97.1,128.8,97.1z"/>
	<path class="st2" d="M132,86.3h1.5v-6.6c0-2.3-1.7-4.1-3.8-4.1h-0.8c-1.3,0-2.5,0.7-3.2,1.8c0.4-0.2,0.8-0.3,1.3-0.3
		C129.7,77.1,132,81.2,132,86.3z"/>
	<path class="st3" d="M132,86.3c0,5.1-2.3,9.2-5.1,9.2c-0.4,0-0.9-0.1-1.3-0.3c0.7,1.1,1.9,1.8,3.2,1.8h0.8c2.1,0,3.8-1.8,3.8-4.1
		v-6.6H132L132,86.3z"/>
	<path class="st4" d="M129.2,74.9h0.8c2.4,0,4.4,2.1,4.4,4.7V93c0,2.6-2,4.7-4.4,4.7h-0.8c-2.4,0-4.4-2.1-4.4-4.7V79.7
		C124.7,77.1,126.7,74.9,129.2,74.9z M130,96.5c1.8,0,3.2-1.6,3.2-3.5V79.7c0-1.9-1.4-3.5-3.2-3.5h-0.8c-1.8,0-3.2,1.6-3.2,3.5V93
		c0,1.9,1.4,3.5,3.2,3.5H130z"/>
	<path class="st4" d="M125.7,85.7h8.2c0.3,0,0.6,0.3,0.6,0.6c0,0.3-0.3,0.6-0.6,0.6h-8.2c-0.3,0-0.6-0.3-0.6-0.6
		C125,86,125.3,85.7,125.7,85.7z"/>
</g>
<g>
	<path class="st0" d="M60.4,79.7c0-2.3-1.7-4.1-3.8-4.1h-0.8c-2.1,0-3.8,1.8-3.8,4.1v6.6h8.5v-6.6H60.4z"/>
	<path class="st1" d="M55.8,97.1h0.8c2.1,0,3.8-1.8,3.8-4.1v-6.6h-8.5V93C52,95.2,53.7,97.1,55.8,97.1z"/>
	<path class="st2" d="M59,86.3h1.5v-6.6c0-2.3-1.7-4.1-3.8-4.1h-0.8c-1.3,0-2.5,0.7-3.2,1.8c0.4-0.2,0.8-0.3,1.3-0.3
		C56.7,77.1,59,81.2,59,86.3z"/>
	<path class="st3" d="M59,86.3c0,5.1-2.3,9.2-5.1,9.2c-0.4,0-0.9-0.1-1.3-0.3c0.7,1.1,1.9,1.8,3.2,1.8h0.8c2.1,0,3.8-1.8,3.8-4.1
		v-6.6H59L59,86.3z"/>
	<path class="st4" d="M56.1,74.9H57c2.4,0,4.4,2.1,4.4,4.7V93c0,2.6-2,4.7-4.4,4.7h-0.8c-2.4,0-4.4-2.1-4.4-4.7V79.7
		C51.7,77.1,53.7,74.9,56.1,74.9z M57,96.5c1.8,0,3.2-1.6,3.2-3.5V79.7c0-1.9-1.4-3.5-3.2-3.5h-0.8c-1.8,0-3.2,1.6-3.2,3.5V93
		c0,1.9,1.4,3.5,3.2,3.5H57z"/>
	<path class="st4" d="M52.6,85.7h8.2c0.3,0,0.6,0.3,0.6,0.6c0,0.3-0.3,0.6-0.6,0.6h-8.2c-0.3,0-0.6-0.3-0.6-0.6S52.3,85.7,52.6,85.7
		z"/>
</g>
<g>
	<path class="st0" d="M109.1,79.7c0-2.3-1.7-4.1-3.8-4.1h-0.8c-2.1,0-3.8,1.8-3.8,4.1v6.6h8.5L109.1,79.7L109.1,79.7z"/>
	<path class="st1" d="M104.5,97.1h0.8c2.1,0,3.8-1.8,3.8-4.1v-6.6h-8.5V93C100.7,95.2,102.4,97.1,104.5,97.1z"/>
	<path class="st2" d="M107.7,86.3h1.5v-6.6c0-2.3-1.7-4.1-3.8-4.1h-0.8c-1.3,0-2.5,0.7-3.2,1.8c0.4-0.2,0.8-0.3,1.3-0.3
		C105.4,77.1,107.7,81.2,107.7,86.3z"/>
	<path class="st3" d="M107.7,86.3c0,5.1-2.3,9.2-5.1,9.2c-0.4,0-0.9-0.1-1.3-0.3c0.7,1.1,1.9,1.8,3.2,1.8h0.8c2.1,0,3.8-1.8,3.8-4.1
		v-6.6H107.7L107.7,86.3z"/>
	<path class="st4" d="M104.8,74.9h0.8c2.4,0,4.4,2.1,4.4,4.7V93c0,2.6-2,4.7-4.4,4.7h-0.8c-2.4,0-4.4-2.1-4.4-4.7V79.7
		C100.4,77.1,102.4,74.9,104.8,74.9z M105.7,96.5c1.8,0,3.2-1.6,3.2-3.5V79.7c0-1.9-1.4-3.5-3.2-3.5h-0.8c-1.8,0-3.2,1.6-3.2,3.5V93
		c0,1.9,1.4,3.5,3.2,3.5H105.7z"/>
	<path class="st4" d="M101.3,85.7h8.2c0.3,0,0.6,0.3,0.6,0.6c0,0.3-0.3,0.6-0.6,0.6h-8.2c-0.3,0-0.6-0.3-0.6-0.6
		C100.7,86,101,85.7,101.3,85.7z"/>
</g>
<g>
	<path class="st0" d="M11.8,79.7c0-2.3-1.7-4.1-3.8-4.1H7.1c-2.1,0-3.8,1.8-3.8,4.1v6.6h8.5V79.7z"/>
	<path class="st1" d="M7.1,97.1h0.8c2.1,0,3.8-1.8,3.8-4.1v-6.6H3.2V93C3.3,95.2,5,97.1,7.1,97.1z"/>
	<path class="st2" d="M10.3,86.3h1.5v-6.6c0-2.3-1.7-4.1-3.8-4.1H7.1c-1.3,0-2.5,0.7-3.2,1.8c0.4-0.2,0.8-0.3,1.3-0.3
		C8,77.1,10.3,81.2,10.3,86.3z"/>
	<path class="st3" d="M10.3,86.3c0,5.1-2.3,9.2-5.1,9.2c-0.4,0-0.9-0.1-1.3-0.3C4.6,96.3,5.8,97,7.1,97H8c2.1,0,3.8-1.8,3.8-4.1
		v-6.6H10.3L10.3,86.3z"/>
	<path class="st4" d="M7.4,74.9h0.8c2.4,0,4.4,2.1,4.4,4.7V93c0,2.6-2,4.7-4.4,4.7H7.4C5,97.7,3,95.6,3,93V79.7
		C3,77.1,5,74.9,7.4,74.9z M8.3,96.5c1.8,0,3.2-1.6,3.2-3.5V79.7c0-1.9-1.4-3.5-3.2-3.5H7.4c-1.8,0-3.2,1.6-3.2,3.5V93
		c0,1.9,1.4,3.5,3.2,3.5H8.3z"/>
	<path class="st4" d="M3.9,85.7h8.2c0.3,0,0.6,0.3,0.6,0.6c0,0.3-0.3,0.6-0.6,0.6H3.9c-0.3,0-0.6-0.3-0.6-0.6
		C3.3,86,3.6,85.7,3.9,85.7z"/>
</g>
<g>
	<path class="st0" d="M86.6,116.5c0-2.3-1.7-4.1-3.8-4.1H82c-2.1,0-3.8,1.8-3.8,4.1v6.6h8.5L86.6,116.5L86.6,116.5z"/>
	<path class="st1" d="M81.9,133.9h0.8c2.1,0,3.8-1.8,3.8-4.1v-6.6H78v6.6C78.1,132,79.8,133.9,81.9,133.9z"/>
	<path class="st2" d="M85.1,123.1h1.5v-6.6c0-2.3-1.7-4.1-3.8-4.1H82c-1.3,0-2.5,0.7-3.2,1.8c0.4-0.2,0.8-0.3,1.3-0.3
		C82.8,113.9,85.1,118,85.1,123.1z"/>
	<path class="st3" d="M85.1,123.1c0,5.1-2.3,9.2-5.1,9.2c-0.4,0-0.9-0.1-1.3-0.3c0.7,1.1,1.9,1.8,3.2,1.8h0.8c2.1,0,3.8-1.8,3.8-4.1
		v-6.6L85.1,123.1L85.1,123.1z"/>
	<path class="st4" d="M82.2,111.7H83c2.4,0,4.4,2.1,4.4,4.7v13.3c0,2.6-2,4.7-4.4,4.7h-0.8c-2.4,0-4.4-2.1-4.4-4.7v-13.3
		C77.8,113.9,79.8,111.7,82.2,111.7z M83.1,133.2c1.8,0,3.2-1.6,3.2-3.5v-13.3c0-1.9-1.4-3.5-3.2-3.5h-0.8c-1.8,0-3.2,1.6-3.2,3.5
		v13.3c0,1.9,1.4,3.5,3.2,3.5H83.1z"/>
	<path class="st4" d="M78.8,122.5H87c0.3,0,0.6,0.3,0.6,0.6c0,0.3-0.3,0.6-0.6,0.6h-8.2c-0.3,0-0.6-0.3-0.6-0.6
		C78.1,122.8,78.4,122.5,78.8,122.5z"/>
</g>
<g>
	<path class="st0" d="M37.9,116.5c0-2.3-1.7-4.1-3.8-4.1h-0.8c-2.1,0-3.8,1.8-3.8,4.1v6.6H38v-6.6H37.9z"/>
	<path class="st1" d="M33.2,133.9H34c2.1,0,3.8-1.8,3.8-4.1v-6.6h-8.5v6.6C29.4,132,31.1,133.9,33.2,133.9z"/>
	<path class="st2" d="M36.4,123.1h1.5v-6.6c0-2.3-1.7-4.1-3.8-4.1h-0.8c-1.3,0-2.5,0.7-3.2,1.8c0.4-0.2,0.8-0.3,1.3-0.3
		C34.1,113.9,36.4,118,36.4,123.1z"/>
	<path class="st3" d="M36.4,123.1c0,5.1-2.3,9.2-5.1,9.2c-0.4,0-0.9-0.1-1.3-0.3c0.7,1.1,1.9,1.8,3.2,1.8H34c2.1,0,3.8-1.8,3.8-4.1
		v-6.6L36.4,123.1L36.4,123.1z"/>
	<path class="st4" d="M33.6,111.7h0.8c2.4,0,4.4,2.1,4.4,4.7v13.3c0,2.6-2,4.7-4.4,4.7h-0.8c-2.4,0-4.4-2.1-4.4-4.7v-13.3
		C29.1,113.9,31.1,111.7,33.6,111.7z M34.4,133.2c1.8,0,3.2-1.6,3.2-3.5v-13.3c0-1.9-1.4-3.5-3.2-3.5h-0.8c-1.8,0-3.2,1.6-3.2,3.5
		v13.3c0,1.9,1.4,3.5,3.2,3.5H34.4z"/>
	<path class="st4" d="M30.1,122.5h8.2c0.3,0,0.6,0.3,0.6,0.6c0,0.3-0.3,0.6-0.6,0.6h-8.2c-0.3,0-0.6-0.3-0.6-0.6
		C29.4,122.8,29.7,122.5,30.1,122.5z"/>
</g>
<g>
	<path class="st0" d="M135.3,116.5c0-2.3-1.7-4.1-3.8-4.1h-0.8c-2.1,0-3.8,1.8-3.8,4.1v6.6h8.5L135.3,116.5L135.3,116.5z"/>
	<path class="st1" d="M130.6,133.9h0.8c2.1,0,3.8-1.8,3.8-4.1v-6.6h-8.5v6.6C126.8,132,128.5,133.9,130.6,133.9z"/>
	<path class="st2" d="M133.8,123.1h1.5v-6.6c0-2.3-1.7-4.1-3.8-4.1h-0.8c-1.3,0-2.5,0.7-3.2,1.8c0.4-0.2,0.8-0.3,1.3-0.3
		C131.5,113.9,133.8,118,133.8,123.1z"/>
	<path class="st3" d="M133.8,123.1c0,5.1-2.3,9.2-5.1,9.2c-0.4,0-0.9-0.1-1.3-0.3c0.7,1.1,1.9,1.8,3.2,1.8h0.8
		c2.1,0,3.8-1.8,3.8-4.1v-6.6L133.8,123.1L133.8,123.1z"/>
	<path class="st4" d="M130.9,111.7h0.8c2.4,0,4.4,2.1,4.4,4.7v13.3c0,2.6-2,4.7-4.4,4.7h-0.8c-2.4,0-4.4-2.1-4.4-4.7v-13.3
		C126.5,113.9,128.5,111.7,130.9,111.7z M131.8,133.2c1.8,0,3.2-1.6,3.2-3.5v-13.3c0-1.9-1.4-3.5-3.2-3.5H131
		c-1.8,0-3.2,1.6-3.2,3.5v13.3c0,1.9,1.4,3.5,3.2,3.5H131.8z"/>
	<path class="st4" d="M127.4,122.5h8.2c0.3,0,0.6,0.3,0.6,0.6c0,0.3-0.3,0.6-0.6,0.6h-8.2c-0.3,0-0.6-0.3-0.6-0.6
		C126.8,122.8,127.1,122.5,127.4,122.5z"/>
</g>
<g>
	<path class="st0" d="M62.2,116.5c0-2.3-1.7-4.1-3.8-4.1h-0.8c-2.1,0-3.8,1.8-3.8,4.1v6.6h8.5v-6.6H62.2z"/>
	<path class="st1" d="M57.6,133.9h0.8c2.1,0,3.8-1.8,3.8-4.1v-6.6h-8.5v6.6C53.7,132,55.5,133.9,57.6,133.9z"/>
	<path class="st2" d="M60.7,123.1h1.5v-6.6c0-2.3-1.7-4.1-3.8-4.1h-0.8c-1.3,0-2.5,0.7-3.2,1.8c0.4-0.2,0.8-0.3,1.3-0.3
		C58.5,113.9,60.7,118,60.7,123.1z"/>
	<path class="st3" d="M60.7,123.1c0,5.1-2.3,9.2-5.1,9.2c-0.4,0-0.9-0.1-1.3-0.3c0.7,1.1,1.9,1.8,3.2,1.8h0.8c2.1,0,3.8-1.8,3.8-4.1
		v-6.6L60.7,123.1L60.7,123.1z"/>
	<path class="st4" d="M57.9,111.7h0.8c2.4,0,4.4,2.1,4.4,4.7v13.3c0,2.6-2,4.7-4.4,4.7h-0.8c-2.4,0-4.4-2.1-4.4-4.7v-13.3
		C53.5,113.9,55.5,111.7,57.9,111.7z M58.8,133.2c1.8,0,3.2-1.6,3.2-3.5v-13.3c0-1.9-1.4-3.5-3.2-3.5H58c-1.8,0-3.2,1.6-3.2,3.5
		v13.3c0,1.9,1.4,3.5,3.2,3.5H58.8z"/>
	<path class="st4" d="M54.4,122.5h8.2c0.3,0,0.6,0.3,0.6,0.6c0,0.3-0.3,0.6-0.6,0.6h-8.2c-0.3,0-0.6-0.3-0.6-0.6
		C53.8,122.8,54.1,122.5,54.4,122.5z"/>
</g>
<g>
	<path class="st0" d="M110.9,116.5c0-2.3-1.7-4.1-3.8-4.1h-0.8c-2.1,0-3.8,1.8-3.8,4.1v6.6h8.5L110.9,116.5L110.9,116.5z"/>
	<path class="st1" d="M106.3,133.9h0.8c2.1,0,3.8-1.8,3.8-4.1v-6.6h-8.5v6.6C102.4,132,104.1,133.9,106.3,133.9z"/>
	<path class="st2" d="M109.4,123.1h1.5v-6.6c0-2.3-1.7-4.1-3.8-4.1h-0.8c-1.3,0-2.5,0.7-3.2,1.8c0.4-0.2,0.8-0.3,1.3-0.3
		C107.2,113.9,109.4,118,109.4,123.1z"/>
	<path class="st3" d="M109.4,123.1c0,5.1-2.3,9.2-5.1,9.2c-0.4,0-0.9-0.1-1.3-0.3c0.7,1.1,1.9,1.8,3.2,1.8h0.8
		c2.1,0,3.8-1.8,3.8-4.1v-6.6L109.4,123.1L109.4,123.1z"/>
	<path class="st4" d="M106.6,111.7h0.8c2.4,0,4.4,2.1,4.4,4.7v13.3c0,2.6-2,4.7-4.4,4.7h-0.8c-2.4,0-4.4-2.1-4.4-4.7v-13.3
		C102.2,113.9,104.1,111.7,106.6,111.7z M107.4,133.2c1.8,0,3.2-1.6,3.2-3.5v-13.3c0-1.9-1.4-3.5-3.2-3.5h-0.8
		c-1.8,0-3.2,1.6-3.2,3.5v13.3c0,1.9,1.4,3.5,3.2,3.5H107.4z"/>
	<path class="st4" d="M103.1,122.5h8.2c0.3,0,0.6,0.3,0.6,0.6c0,0.3-0.3,0.6-0.6,0.6h-8.2c-0.3,0-0.6-0.3-0.6-0.6
		S102.8,122.5,103.1,122.5z"/>
</g>
<g>
	<path class="st0" d="M13.5,116.5c0-2.3-1.7-4.1-3.8-4.1H8.9c-2.1,0-3.8,1.8-3.8,4.1v6.6h8.5L13.5,116.5L13.5,116.5z"/>
	<path class="st1" d="M8.9,133.9h0.8c2.1,0,3.8-1.8,3.8-4.1v-6.6H5v6.6C5.1,132,6.8,133.9,8.9,133.9z"/>
	<path class="st2" d="M12.1,123.1h1.5v-6.6c0-2.3-1.7-4.1-3.8-4.1H8.9c-1.3,0-2.5,0.7-3.2,1.8c0.4-0.2,0.8-0.3,1.3-0.3
		C9.8,113.9,12.1,118,12.1,123.1z"/>
	<path class="st3" d="M12.1,123.1c0,5.1-2.3,9.2-5.1,9.2c-0.4,0-0.9-0.1-1.3-0.3c0.7,1.1,1.9,1.8,3.2,1.8h0.8c2.1,0,3.8-1.8,3.8-4.1
		v-6.6L12.1,123.1L12.1,123.1z"/>
	<path class="st4" d="M9.2,111.7H10c2.4,0,4.4,2.1,4.4,4.7v13.3c0,2.6-2,4.7-4.4,4.7H9.2c-2.4,0-4.4-2.1-4.4-4.7v-13.3
		C4.8,113.9,6.8,111.7,9.2,111.7z M10.1,133.2c1.8,0,3.2-1.6,3.2-3.5v-13.3c0-1.9-1.4-3.5-3.2-3.5H9.2c-1.8,0-3.2,1.6-3.2,3.5v13.3
		c0,1.9,1.4,3.5,3.2,3.5H10.1z"/>
	<path class="st4" d="M5.7,122.5h8.2c0.3,0,0.6,0.3,0.6,0.6c0,0.3-0.3,0.6-0.6,0.6H5.7c-0.3,0-0.6-0.3-0.6-0.6S5.4,122.5,5.7,122.5z
		"/>
</g>
</svg>
