<?xml version="1.0" encoding="utf-8"?>
<!-- Generator: Adobe Illustrator 24.1.2, SVG Export Plug-In . SVG Version: 6.00 Build 0)  -->
<svg version="1.1" id="Layer_1" xmlns="http://www.w3.org/2000/svg" xmlns:xlink="http://www.w3.org/1999/xlink" x="0px" y="0px"
	 viewBox="0 0 141 138.8" style="enable-background:new 0 0 141 138.8;" xml:space="preserve">
<style type="text/css">
	.st0{fill:#99D3CB;}
	.st1{fill:#FFF9EF;}
	.st2{fill:#6FCACD;}
	.st3{fill:#DAECCD;}
	.st4{fill:#871C1C;}
	.st5{fill:none;}
	.st6{opacity:0.3;fill:#505050;}
	.st7{fill:#505050;}
</style>
<g>
	<path class="st0" d="M76.6,1.5c0-2.6-1.9-4.7-4.3-4.7h-0.9c-2.4,0-4.3,2.1-4.3,4.7V9h9.7L76.6,1.5L76.6,1.5z"/>
	<path class="st1" d="M71.2,21.4h0.9c2.4,0,4.3-2.1,4.3-4.7V9.2h-9.7v7.5C66.8,19.2,68.8,21.4,71.2,21.4z"/>
	<path class="st2" d="M74.9,9h1.7V1.5c0-2.6-1.9-4.7-4.3-4.7h-0.9c-1.5,0-2.9,0.8-3.7,2.1c0.5-0.2,0.9-0.3,1.5-0.3
		C72.2-1.5,74.9,3.2,74.9,9z"/>
	<path class="st3" d="M74.9,9c0,5.8-2.6,10.5-5.8,10.5c-0.5,0-1-0.1-1.5-0.3c0.8,1.3,2.2,2.1,3.7,2.1h1c2.4,0,4.3-2.1,4.3-4.7V9
		H74.9L74.9,9z"/>
	<path class="st4" d="M71.5-4h0.9c2.7,0,5,2.4,5,5.4v15.2c0,3-2.3,5.4-5,5.4h-0.9c-2.7,0-5-2.4-5-5.4V1.4C66.5-1.5,68.8-4,71.5-4z
		 M72.6,20.7c2.1,0,3.7-1.8,3.7-4V1.5c0-2.2-1.6-4-3.7-4h-0.9c-2.1,0-3.7,1.8-3.7,4v15.2c0,2.2,1.6,4,3.7,4H72.6z"/>
	<path class="st4" d="M67.5,8.4h9.4c0.3,0,0.7,0.3,0.7,0.7c0,0.3-0.3,0.7-0.7,0.7h-9.4c-0.3,0-0.7-0.3-0.7-0.7S67.2,8.4,67.5,8.4z"
		/>
</g>
<g>
	<path class="st0" d="M20.9,1.5c0-2.6-1.9-4.7-4.3-4.7h-0.9c-2.4,0-4.3,2.1-4.3,4.7V9H21V1.5H20.9z"/>
	<path class="st1" d="M15.5,21.4h0.9c2.4,0,4.3-2.1,4.3-4.7V9.2H11v7.5C11.2,19.2,13.1,21.4,15.5,21.4z"/>
	<path class="st2" d="M19.2,9h1.7V1.5c0-2.6-1.9-4.7-4.3-4.7h-0.9c-1.5,0-2.9,0.8-3.7,2.1c0.5-0.2,0.9-0.3,1.5-0.3
		C16.5-1.5,19.2,3.2,19.2,9z"/>
	<path class="st3" d="M19.2,9c0,5.8-2.6,10.5-5.8,10.5c-0.5,0-1-0.1-1.5-0.3c0.8,1.3,2.2,2.1,3.7,2.1h0.9c2.4,0,4.3-2.1,4.3-4.7V9
		H19.2L19.2,9z"/>
	<path class="st4" d="M15.8-4h0.9c2.9,0,5.1,2.5,5.1,5.5v15.2c0,3-2.3,5.4-5,5.4H16c-2.7,0-5-2.4-5-5.4V1.5C10.8-1.5,13.1-4,15.8-4z
		 M16.9,20.7c2.1,0,3.7-1.8,3.7-4V1.5c0-2.2-1.6-4-3.7-4H16c-2.1,0-3.7,1.8-3.7,4v15.2c0,2.2,1.6,4,3.7,4H16.9z"/>
	<path class="st4" d="M11.8,8.4h9.4c0.3,0,0.7,0.3,0.7,0.7c0,0.3-0.3,0.7-0.7,0.7h-9.4c-0.3,0-0.7-0.3-0.7-0.7
		C11.2,8.7,11.5,8.4,11.8,8.4z"/>
</g>
<g>
	<path class="st0" d="M132.1,1.5c0-2.6-1.9-4.7-4.3-4.7h-0.9c-2.4,0-4.3,2.1-4.3,4.7V9h9.7L132.1,1.5L132.1,1.5z"/>
	<path class="st1" d="M126.9,21.4h0.9c2.4,0,4.3-2.1,4.3-4.7V9.2h-9.7v7.5C122.5,19.2,124.5,21.4,126.9,21.4z"/>
	<path class="st2" d="M130.5,9h1.7V1.5c0-2.6-1.9-4.7-4.3-4.7H127c-1.5,0-2.9,0.8-3.7,2.1c0.5-0.2,0.9-0.3,1.5-0.3
		C127.9-1.5,130.5,3.2,130.5,9z"/>
	<path class="st3" d="M130.5,9c0,5.8-2.6,10.5-5.8,10.5c-0.5,0-1-0.1-1.5-0.3c0.8,1.3,2.2,2.1,3.7,2.1h0.9c2.4,0,4.3-2.1,4.3-4.7V9
		H130.5L130.5,9z"/>
	<path class="st4" d="M127.2-4h0.9c2.7,0,5,2.4,5,5.4v15.2c0,3-2.3,5.4-5,5.4h-0.9c-2.7,0-5-2.4-5-5.4V1.4
		C122.2-1.5,124.5-4,127.2-4z M128.3,20.7c2.1,0,3.7-1.8,3.7-4V1.5c0-2.2-1.6-4-3.7-4h-0.9c-2.1,0-3.7,1.8-3.7,4v15.2
		c0,2.2,1.6,4,3.7,4H128.3z"/>
	<path class="st4" d="M123.2,8.4h9.4c0.3,0,0.7,0.3,0.7,0.7c0,0.3-0.3,0.7-0.7,0.7h-9.4c-0.3,0-0.7-0.3-0.7-0.7
		C122.5,8.7,122.9,8.4,123.2,8.4z"/>
</g>
<g>
	<path class="st0" d="M48.7,1.5c0-2.6-1.9-4.7-4.3-4.7h-0.9c-2.4,0-4.3,2.1-4.3,4.7V9h9.7V1.5C48.8,1.5,48.7,1.5,48.7,1.5z"/>
	<path class="st1" d="M43.3,21.4h0.9c2.4,0,4.3-2.1,4.3-4.7V9.2h-9.7v7.5C38.9,19.2,40.9,21.4,43.3,21.4z"/>
	<path class="st2" d="M46.9,9h1.7V1.5c0-2.6-1.9-4.7-4.3-4.7h-0.9c-1.5,0-2.9,0.8-3.7,2.1c0.5-0.2,0.9-0.3,1.5-0.3
		C44.4-1.5,46.9,3.2,46.9,9z"/>
	<path class="st3" d="M46.9,9c0,5.8-2.6,10.5-5.8,10.5c-0.5,0-1-0.1-1.5-0.3c0.8,1.3,2.2,2.1,3.7,2.1h0.9c2.4,0,4.3-2.1,4.3-4.7V9
		H46.9L46.9,9z"/>
	<path class="st4" d="M43.7-4h0.9c2.7,0,5,2.4,5,5.4v15.2c0,3-2.3,5.4-5,5.4h-0.9c-2.7,0-5-2.4-5-5.4V1.4C38.7-1.5,40.9-4,43.7-4z
		 M44.7,20.7c2.1,0,3.7-1.8,3.7-4V1.5c0-2.2-1.6-4-3.7-4h-0.9c-2.1,0-3.7,1.8-3.7,4v15.2c0,2.2,1.6,4,3.7,4H44.7z"/>
	<path class="st4" d="M39.7,8.4h9.4c0.3,0,0.7,0.3,0.7,0.7c0,0.3-0.3,0.7-0.7,0.7h-9.4c-0.3,0-0.7-0.3-0.7-0.7
		C39.1,8.7,39.3,8.4,39.7,8.4z"/>
</g>
<g>
	<path class="st0" d="M104.4,1.5c0-2.6-1.9-4.7-4.3-4.7h-0.9c-2.4,0-4.3,2.1-4.3,4.7V9h9.7L104.4,1.5L104.4,1.5z"/>
	<path class="st1" d="M99,21.4h0.9c2.4,0,4.3-2.1,4.3-4.7V9.2h-9.7v7.5C94.6,19.2,96.6,21.4,99,21.4z"/>
	<path class="st2" d="M102.6,9h1.7V1.5c0-2.6-1.9-4.7-4.3-4.7h-0.9c-1.5,0-2.9,0.8-3.7,2.1c0.5-0.2,0.9-0.3,1.5-0.3
		C100.1-1.5,102.6,3.2,102.6,9z"/>
	<path class="st3" d="M102.6,9c0,5.8-2.6,10.5-5.8,10.5c-0.5,0-1-0.1-1.5-0.3c0.8,1.3,2.2,2.1,3.7,2.1h0.9c2.4,0,4.3-2.1,4.3-4.7V9
		H102.6L102.6,9z"/>
	<path class="st4" d="M99.4-4h0.9c2.7,0,5,2.4,5,5.4v15.2c0,3-2.3,5.4-5,5.4h-0.9c-2.7,0-5-2.4-5-5.4V1.4C94.3-1.5,96.6-4,99.4-4z
		 M100.4,20.7c2.1,0,3.7-1.8,3.7-4V1.5c0-2.2-1.6-4-3.7-4h-0.9c-2.1,0-3.7,1.8-3.7,4v15.2c0,2.2,1.6,4,3.7,4H100.4z"/>
	<path class="st4" d="M95.4,8.4h9.4c0.3,0,0.7,0.3,0.7,0.7c0,0.3-0.3,0.7-0.7,0.7h-9.4c-0.3,0-0.7-0.3-0.7-0.7
		C94.7,8.7,95,8.4,95.4,8.4z"/>
</g>
<g>
	<path class="st0" d="M-7,1.5c0-2.6-1.9-4.7-4.3-4.7h-0.9c-2.4,0-4.5,2.1-4.5,4.7V9H-7V1.5z"/>
	<path class="st1" d="M-12.3,21.4h0.9c2.4,0,4.3-2.1,4.3-4.7V9.2h-9.7v7.5C-16.7,19.2-14.7,21.4-12.3,21.4z"/>
	<path class="st2" d="M-8.7,9H-7V1.5c0-2.6-1.9-4.7-4.3-4.7h-0.9c-1.5,0-2.9,0.8-3.7,2.1c0.5-0.2,0.9-0.3,1.5-0.3
		C-11.3-1.5-8.7,3.2-8.7,9z"/>
	<path class="st3" d="M-8.7,9c0,5.8-2.6,10.5-5.8,10.5c-0.5,0-1-0.1-1.5-0.3c0.8,1.3,2.2,2.1,3.7,2.1h0.9c2.4,0,4.3-2.1,4.3-4.7V9
		H-8.7L-8.7,9z"/>
	<path class="st4" d="M-11.9-4h0.9c2.7,0,5,2.4,5,5.4v15.2c0,3-2.3,5.4-5,5.4h-0.9c-2.7,0.1-5-2.3-5-5.3V1.5C-17-1.5-14.7-4-11.9-4z
		 M-11,20.7c2.1,0,3.7-1.8,3.7-4V1.5c0-2.2-1.6-4-3.7-4h-0.9c-2.1,0-3.7,1.8-3.7,4v15.2c0,2.2,1.6,4,3.7,4H-11z"/>
	<path class="st4" d="M-15.9,8.4h9.4c0.3,0,0.7,0.3,0.7,0.7c0,0.3-0.3,0.7-0.7,0.7h-9.4c-0.3,0-0.7-0.3-0.7-0.7S-16.3,8.4-15.9,8.4z
		"/>
</g>
<g>
	<path class="st0" d="M-8.1,38.8c0-2.6-1.9-4.7-4.3-4.7h-1c-2.4,0-4.3,2.1-4.3,4.7v7.5H-8L-8.1,38.8L-8.1,38.8z"/>
	<path class="st1" d="M-13.4,58.7h0.9c2.4,0,4.3-2.1,4.3-4.7v-7.5h-9.7V54C-17.8,56.5-15.8,58.7-13.4,58.7z"/>
	<path class="st2" d="M-9.8,46.3h1.7v-7.5c0-2.6-1.9-4.7-4.3-4.7h-1c-1.5,0-2.9,0.8-3.7,2.1c0.5-0.2,0.9-0.3,1.5-0.3
		C-12.4,35.8-9.8,40.5-9.8,46.3z"/>
	<path class="st3" d="M-9.8,46.3c0,5.8-2.6,10.5-5.8,10.5c-0.5,0-1-0.1-1.5-0.3c0.8,1.3,2.2,2.1,3.7,2.1h1c2.4,0,4.3-2.1,4.3-4.7
		v-7.5L-9.8,46.3L-9.8,46.3z"/>
	<path class="st4" d="M-13.1,33.3h0.9c2.7,0,5,2.4,5,5.4v15.2c0,3-2.3,5.4-5,5.4h-0.9c-2.7,0.1-5-2.3-5-5.3V38.8
		C-18.1,35.8-15.8,33.3-13.1,33.3z M-12.1,58c2.1,0,3.7-1.8,3.7-4V38.8c0-2.2-1.6-4-3.7-4h-1c-2.1,0-3.7,1.8-3.7,4V54
		c0,2.2,1.6,4,3.7,4H-12.1z"/>
	<path class="st4" d="M-17.1,45.6h9.4c0.3,0,0.7,0.3,0.7,0.7S-7.4,47-7.7,47h-9.4c-0.3,0-0.7-0.3-0.7-0.7S-17.4,45.6-17.1,45.6z"/>
</g>
<g>
	<path class="st0" d="M-8.1,80.8c0-2.6-1.9-4.7-4.3-4.7h-1c-2.4,0-4.3,2.1-4.3,4.7v7.5H-8L-8.1,80.8L-8.1,80.8z"/>
	<path class="st1" d="M-13.4,100.7h0.9c2.4,0,4.3-2.1,4.3-4.7v-7.5h-9.7V96C-17.8,98.6-15.8,100.7-13.4,100.7z"/>
	<path class="st2" d="M-9.8,88.4h1.7v-7.5c0-2.6-1.9-4.7-4.3-4.7h-1c-1.5,0-2.9,0.8-3.7,2.1c0.5-0.2,0.9-0.3,1.5-0.3
		C-12.4,77.9-9.8,82.6-9.8,88.4z"/>
	<path class="st3" d="M-9.8,88.4c0,5.8-2.6,10.5-5.8,10.5c-0.5,0-1-0.1-1.5-0.3c0.8,1.3,2.2,2.1,3.7,2.1h1c2.4,0,4.3-2.1,4.3-4.7
		v-7.5L-9.8,88.4L-9.8,88.4z"/>
	<path class="st4" d="M-13.1,75.4h0.9c2.7,0,5,2.4,5,5.4v15.3c0,3-2.3,5.4-5,5.4h-0.9c-2.7,0-5-2.4-5-5.4V80.8
		C-18.1,77.9-15.8,75.4-13.1,75.4z M-12.1,100.1c2.1,0,3.7-1.8,3.7-4V80.8c0-2.2-1.6-4-3.7-4h-1c-2.1,0-3.7,1.8-3.7,4V96
		c0,2.2,1.6,4,3.7,4L-12.1,100.1L-12.1,100.1z"/>
	<path class="st4" d="M-17.1,87.7h9.4c0.3,0,0.7,0.3,0.7,0.7s-0.3,0.7-0.7,0.7h-9.4c-0.3,0-0.7-0.3-0.7-0.7
		C-17.8,88.1-17.4,87.7-17.1,87.7z"/>
</g>
<g>
	<path class="st0" d="M77.5,122.9c0-2.6-1.9-4.7-4.3-4.7h-0.9c-2.4,0-4.3,2.1-4.3,4.7v7.5h9.7L77.5,122.9L77.5,122.9z"/>
	<path class="st1" d="M72.1,142.8H73c2.4,0,4.3-2.1,4.3-4.7v-7.5h-9.7v7.5C67.8,140.7,69.7,142.8,72.1,142.8z"/>
	<path class="st2" d="M75.8,130.5h1.7V123c0-2.6-1.9-4.7-4.3-4.7h-0.9c-1.5,0-2.9,0.8-3.7,2.1c0.5-0.2,0.9-0.3,1.5-0.3
		C73.1,120,75.8,124.6,75.8,130.5z"/>
	<path class="st3" d="M75.8,130.5c0,5.8-2.6,10.5-5.8,10.5c-0.5,0-1-0.1-1.5-0.3c0.8,1.3,2.2,2.1,3.7,2.1H73c2.4,0,4.3-2.1,4.3-4.7
		v-7.5h-1.5V130.5z"/>
	<path class="st4" d="M72.4,117.4h0.9c2.7,0,5,2.4,5,5.4V138c0,3-2.3,5.4-5,5.4h-0.9c-2.7,0-5-2.4-5-5.4v-15.2
		C67.4,120,69.7,117.4,72.4,117.4z M73.5,142c2.1,0,3.7-1.8,3.7-4v-15.2c0-2.2-1.6-4-3.7-4h-0.9c-2.1,0-3.7,1.8-3.7,4V138
		c0,2.2,1.6,4,3.7,4H73.5z"/>
	<path class="st4" d="M68.6,129.8H78c0.3,0,0.7,0.3,0.7,0.7c0,0.3-0.3,0.7-0.7,0.7h-9.4c-0.3,0-0.7-0.3-0.7-0.7
		C67.8,130.1,68.1,129.8,68.6,129.8z"/>
</g>
<g>
	<path class="st0" d="M21.8,122.9c0-2.6-1.9-4.7-4.3-4.7h-0.9c-2.4,0-4.3,2.1-4.3,4.7v7.5H22v-7.5C22,122.9,21.8,122.9,21.8,122.9z"
		/>
	<path class="st1" d="M16.4,142.8h0.9c2.4,0,4.3-2.1,4.3-4.7v-7.5H12v7.5C12.1,140.7,14,142.8,16.4,142.8z"/>
	<path class="st2" d="M20.1,130.5h1.7V123c0-2.6-1.9-4.7-4.3-4.7h-0.9c-1.5,0-2.9,0.8-3.7,2.1c0.5-0.2,0.9-0.3,1.5-0.3
		C17.4,120,20.1,124.6,20.1,130.5z"/>
	<path class="st3" d="M20.1,130.5c0,5.8-2.6,10.5-5.8,10.5c-0.5,0-1-0.1-1.5-0.3c0.8,1.3,2.2,2.1,3.7,2.1h0.9c2.4,0,4.3-2.1,4.3-4.7
		v-7.5h-1.6V130.5z"/>
	<path class="st4" d="M16.9,117.4h0.9c2.7,0,5,2.4,5,5.4V138c0,3-2.3,5.4-5,5.4h-0.9c-2.7,0-5-2.4-5-5.4v-15.2
		C11.7,120,14,117.4,16.9,117.4z M17.8,142c2.1,0,3.7-1.8,3.7-4v-15.2c0-2.2-1.6-4-3.7-4h-0.9c-2.1,0-3.7,1.8-3.7,4V138
		c0,2.2,1.6,4,3.7,4H17.8z"/>
	<path class="st4" d="M12.9,129.8h9.4c0.3,0,0.7,0.3,0.7,0.7c0,0.3-0.3,0.7-0.7,0.7h-9.4c-0.3,0-0.7-0.3-0.7-0.7
		C12.1,130.1,12.4,129.8,12.9,129.8z"/>
</g>
<g>
	<path class="st0" d="M133.2,122.9c0-2.6-1.9-4.7-4.3-4.7H128c-2.4,0-4.3,2.1-4.3,4.7v7.5h9.7L133.2,122.9L133.2,122.9z"/>
	<path class="st1" d="M127.8,142.8h0.9c2.4,0,4.3-2.1,4.3-4.7v-7.5h-9.7v7.5C123.5,140.7,125.4,142.8,127.8,142.8z"/>
	<path class="st2" d="M131.5,130.5h1.7V123c0-2.6-1.9-4.7-4.3-4.7H128c-1.5,0-2.9,0.8-3.7,2.1c0.5-0.2,0.9-0.3,1.5-0.3
		C128.8,120,131.5,124.6,131.5,130.5z"/>
	<path class="st3" d="M131.5,130.5c0,5.8-2.6,10.5-5.8,10.5c-0.5,0-1-0.1-1.5-0.3c0.8,1.3,2.2,2.1,3.7,2.1h0.9
		c2.4,0,4.3-2.1,4.3-4.7v-7.5h-1.6V130.5z"/>
	<path class="st4" d="M128.1,117.4h0.9c2.7,0,5,2.4,5,5.4V138c0,3-2.3,5.4-5,5.4h-0.9c-2.7,0-5-2.4-5-5.4v-15.2
		C123.1,120,125.4,117.4,128.1,117.4z M129.2,142c2.1,0,3.7-1.8,3.7-4v-15.2c0-2.2-1.6-4-3.7-4h-0.9c-2.1,0-3.7,1.8-3.7,4V138
		c0,2.2,1.6,4,3.7,4H129.2z"/>
	<path class="st4" d="M124.1,129.8h9.4c0.3,0,0.7,0.3,0.7,0.7c0,0.3-0.3,0.7-0.7,0.7h-9.4c-0.3,0-0.7-0.3-0.7-0.7
		C123.5,130.1,123.8,129.8,124.1,129.8z"/>
</g>
<g>
	<path class="st0" d="M49.6,122.9c0-2.6-1.9-4.7-4.3-4.7h-0.9c-2.4,0-4.3,2.1-4.3,4.7v7.5h9.7v-7.5
		C49.8,122.9,49.6,122.9,49.6,122.9z"/>
	<path class="st1" d="M44.3,142.8h0.9c2.4,0,4.3-2.1,4.3-4.7v-7.5h-9.7v7.5C39.9,140.7,41.9,142.8,44.3,142.8z"/>
	<path class="st2" d="M47.9,130.5h1.7V123c0-2.6-1.9-4.7-4.3-4.7h-0.9c-1.5,0-2.9,0.8-3.7,2.1c0.5-0.2,0.9-0.3,1.5-0.3
		C45.3,120,47.9,124.6,47.9,130.5z"/>
	<path class="st3" d="M47.9,130.5c0,5.8-2.6,10.5-5.8,10.5c-0.5,0-1-0.1-1.5-0.3c0.8,1.3,2.2,2.1,3.7,2.1h0.9c2.4,0,4.3-2.1,4.3-4.7
		v-7.5h-1.6V130.5z"/>
	<path class="st4" d="M44.7,117.4h0.9c2.7,0,5,2.4,5,5.4V138c0,3-2.3,5.4-5,5.4h-0.9c-2.7,0-5-2.4-5-5.4v-15.2
		C39.6,120,41.9,117.4,44.7,117.4z M45.7,142c2.1,0,3.7-1.8,3.7-4v-15.2c0-2.2-1.6-4-3.7-4h-0.9c-2.1,0-3.7,1.8-3.7,4V138
		c0,2.2,1.6,4,3.7,4H45.7z"/>
	<path class="st4" d="M40.7,129.8H50c0.3,0,0.7,0.3,0.7,0.7c0,0.3-0.3,0.7-0.7,0.7h-9.4c-0.3,0-0.7-0.3-0.7-0.7
		C40,130.1,40.3,129.8,40.7,129.8z"/>
</g>
<g>
	<path class="st0" d="M105.3,122.9c0-2.6-1.9-4.7-4.3-4.7h-1c-2.4,0-4.3,2.1-4.3,4.7v7.5h9.7L105.3,122.9L105.3,122.9z"/>
	<path class="st1" d="M100,142.8h0.9c2.4,0,4.3-2.1,4.3-4.7v-7.5h-9.7v7.5C95.5,140.7,97.5,142.8,100,142.8z"/>
	<path class="st2" d="M103.6,130.5h1.7V123c0-2.6-1.9-4.7-4.3-4.7h-1c-1.5,0-2.9,0.8-3.7,2.1c0.5-0.2,0.9-0.3,1.5-0.3
		C101,120,103.6,124.6,103.6,130.5z"/>
	<path class="st3" d="M103.6,130.5c0,5.8-2.6,10.5-5.8,10.5c-0.5,0-1-0.1-1.5-0.3c0.8,1.3,2.2,2.1,3.7,2.1h0.9
		c2.4,0,4.3-2.1,4.3-4.7v-7.5h-1.6V130.5z"/>
	<path class="st4" d="M100.4,117.4h0.9c2.7,0,5,2.4,5,5.4V138c0,3-2.3,5.4-5,5.4h-0.9c-2.7,0-5-2.4-5-5.4v-15.2
		C95.3,120,97.5,117.4,100.4,117.4z M101.3,142c2.1,0,3.7-1.8,3.7-4v-15.2c0-2.2-1.6-4-3.7-4h-0.9c-2.1,0-3.7,1.8-3.7,4V138
		c0,2.2,1.6,4,3.7,4H101.3z"/>
	<path class="st4" d="M96.3,129.8h9.4c0.3,0,0.7,0.3,0.7,0.7c0,0.3-0.3,0.7-0.7,0.7h-9.4c-0.3,0-0.7-0.3-0.7-0.7
		S96,129.8,96.3,129.8z"/>
</g>
<g>
	<path class="st0" d="M-6.1,122.9c0-2.6-1.9-4.7-4.3-4.7h-0.9c-2.4,0-4.3,2.1-4.3,4.7v7.5H-6L-6.1,122.9L-6.1,122.9z"/>
	<path class="st1" d="M-11.4,142.8h0.9c2.4,0,4.3-2.1,4.3-4.7v-7.5h-9.7v7.5C-15.7,140.7-13.8,142.8-11.4,142.8z"/>
	<path class="st2" d="M-7.7,130.5H-6V123c0-2.6-1.9-4.7-4.3-4.7h-1c-1.5,0-2.9,0.8-3.7,2.1c0.5-0.2,0.9-0.3,1.5-0.3
		C-10.3,120-7.7,124.6-7.7,130.5z"/>
	<path class="st3" d="M-7.7,130.5c0,5.8-2.6,10.5-5.8,10.5c-0.5,0-1-0.1-1.5-0.3c0.8,1.3,2.2,2.1,3.7,2.1h0.9c2.4,0,4.3-2.1,4.3-4.7
		v-7.5h-1.6V130.5z"/>
	<path class="st4" d="M-11,117.4h0.9c2.7,0,5,2.4,5,5.4V138c0,3-2.3,5.4-5,5.4H-11c-2.7,0-5-2.4-5-5.4v-15.2
		C-16.1,120-13.8,117.4-11,117.4z M-10,142c2.1,0,3.7-1.8,3.7-4v-15.2c0-2.2-1.6-4-3.7-4h-1c-2.1,0-3.7,1.8-3.7,4V138
		c0,2.2,1.6,4,3.7,4H-10z"/>
	<path class="st4" d="M-15,129.8h9.4c0.3,0,0.7,0.3,0.7,0.7c0,0.3-0.3,0.7-0.7,0.7H-15c-0.3,0-0.7-0.3-0.7-0.7S-15.4,129.8-15,129.8
		z"/>
</g>
<g>
	<path class="st5" d="M21.5,39.7c0-2.4-1.8-4.3-4-4.3h-0.8c-2.2,0-4,1.9-4,4.3v7h9v-7H21.5z"/>
	<path class="st1" d="M16.5,58h0.8c2.2,0,4-1.9,4-4.3v-7h-9v7C12.5,56,14.3,58,16.5,58z"/>
	<path class="st6" d="M19.9,46.6h1.6v-7c0-2.4-1.8-4.3-4-4.3h-0.8c-1.4,0-2.6,0.7-3.4,1.9c0.4-0.2,0.8-0.3,1.4-0.3
		C17.6,36.9,19.9,41.2,19.9,46.6z"/>
	<path class="st3" d="M19.9,46.6c0,5.4-2.4,9.7-5.4,9.7c-0.4,0-0.9-0.1-1.4-0.3c0.7,1.2,2,1.9,3.4,1.9h0.8c2.2,0,4-1.9,4-4.3v-7
		L19.9,46.6L19.9,46.6z"/>
	<path class="st7" d="M17,34.6h0.8c2.5,0,4.6,2.2,4.6,5v14.1c0,2.7-2.1,5-4.6,5H17c-2.5,0-4.6-2.2-4.6-5v-14
		C12.2,36.9,14.3,34.6,17,34.6z M17.8,57.4c1.9,0,3.4-1.7,3.4-3.7v-14c0-2-1.5-3.7-3.4-3.7H17c-1.9,0-3.4,1.7-3.4,3.7v14
		c0,2,1.5,3.7,3.4,3.7H17.8z"/>
	<path class="st7" d="M13.3,46h8.6c0.3,0,0.6,0.3,0.6,0.6s-0.3,0.6-0.6,0.6h-8.6c-0.3,0-0.6-0.3-0.6-0.6C12.6,46.3,12.8,46,13.3,46z
		"/>
</g>
<g>
	<path class="st5" d="M48,39.7c0-2.4-1.8-4.3-4-4.3h-0.8c-2.2,0-4,1.9-4,4.3v7h9v-7H48z"/>
	<path class="st1" d="M43,58h0.8c2.2,0,4-1.9,4-4.3v-7h-9v7C39,56,40.8,58,43,58z"/>
	<path class="st6" d="M46.4,46.6H48v-7c0-2.4-1.8-4.3-4-4.3h-0.8c-1.4,0-2.6,0.7-3.4,1.9c0.4-0.2,0.8-0.3,1.4-0.3
		C44.2,36.9,46.4,41.2,46.4,46.6z"/>
	<path class="st3" d="M46.4,46.6c0,5.4-2.4,9.7-5.4,9.7c-0.4,0-0.9-0.1-1.4-0.3c0.7,1.2,2,1.9,3.4,1.9h0.8c2.2,0,4-1.9,4-4.3v-7
		L46.4,46.6L46.4,46.6z"/>
	<path class="st7" d="M43.5,34.6h0.8c2.5,0,4.6,2.2,4.6,5v14.1c0,2.7-2.1,5-4.6,5h-0.8c-2.5,0-4.6-2.2-4.6-5v-14
		C38.8,36.9,40.8,34.6,43.5,34.6z M44.3,57.4c1.9,0,3.4-1.7,3.4-3.7v-14c0-2-1.5-3.7-3.4-3.7h-0.8c-1.9,0-3.4,1.7-3.4,3.7v14
		c0,2,1.5,3.7,3.4,3.7H44.3z"/>
	<path class="st7" d="M39.8,46h8.6c0.3,0,0.6,0.3,0.6,0.6s-0.3,0.6-0.6,0.6h-8.6c-0.3,0-0.6-0.3-0.6-0.6C39.2,46.3,39.3,46,39.8,46z
		"/>
</g>
<g>
	<path class="st5" d="M76.2,39.7c0-2.4-1.8-4.3-4-4.3h-0.8c-2.2,0-4,1.9-4,4.3v7h9v-7H76.2z"/>
	<path class="st1" d="M71.2,58h0.8c2.2,0,4-1.9,4-4.3v-7h-9v7C67.2,56,68.9,58,71.2,58z"/>
	<path class="st6" d="M74.6,46.6h1.6v-7c0-2.4-1.8-4.3-4-4.3h-0.8c-1.4,0-2.6,0.7-3.4,1.9c0.4-0.2,0.8-0.3,1.4-0.3
		C72.2,36.9,74.6,41.2,74.6,46.6z"/>
	<path class="st3" d="M74.6,46.6c0,5.4-2.4,9.7-5.4,9.7c-0.4,0-0.9-0.1-1.4-0.3c0.7,1.2,2,1.9,3.4,1.9h0.8c2.2,0,4-1.9,4-4.3v-7
		L74.6,46.6L74.6,46.6z"/>
	<path class="st7" d="M71.7,34.6h0.8c2.5,0,4.6,2.2,4.6,5v14.1c0,2.7-2.1,5-4.6,5h-0.8c-2.5,0-4.6-2.2-4.6-5v-14
		C66.8,36.9,68.9,34.6,71.7,34.6z M72.4,57.4c1.9,0,3.4-1.7,3.4-3.7v-14c0-2-1.5-3.7-3.4-3.7h-0.8c-1.9,0-3.4,1.7-3.4,3.7v14
		c0,2,1.5,3.7,3.4,3.7H72.4z"/>
	<path class="st7" d="M67.9,46h8.6c0.3,0,0.6,0.3,0.6,0.6s-0.3,0.6-0.6,0.6h-8.6c-0.3,0-0.6-0.3-0.6-0.6C67.2,46.3,67.4,46,67.9,46z
		"/>
</g>
<g>
	<path class="st5" d="M104.4,39.7c0-2.4-1.8-4.3-4-4.3h-0.8c-2.2,0-4,1.9-4,4.3v7h9v-7H104.4z"/>
	<path class="st1" d="M99.4,58h0.8c2.2,0,4-1.9,4-4.3v-7h-9v7C95.4,56,97.2,58,99.4,58z"/>
	<path class="st6" d="M102.8,46.6h1.6v-7c0-2.4-1.8-4.3-4-4.3h-0.8c-1.4,0-2.6,0.7-3.4,1.9c0.4-0.2,0.8-0.3,1.4-0.3
		C100.5,36.9,102.8,41.2,102.8,46.6z"/>
	<path class="st3" d="M102.8,46.6c0,5.4-2.4,9.7-5.4,9.7c-0.4,0-0.9-0.1-1.4-0.3c0.7,1.2,2,1.9,3.4,1.9h0.8c2.2,0,4-1.9,4-4.3v-7
		L102.8,46.6L102.8,46.6z"/>
	<path class="st7" d="M99.9,34.6h0.8c2.5,0,4.6,2.2,4.6,5v14.1c0,2.7-2.1,5-4.6,5h-0.8c-2.5,0-4.6-2.2-4.6-5v-14
		C95.1,36.9,97.2,34.6,99.9,34.6z M100.7,57.4c1.9,0,3.4-1.7,3.4-3.7v-14c0-2-1.5-3.7-3.4-3.7h-0.8c-1.9,0-3.4,1.7-3.4,3.7v14
		c0,2,1.5,3.7,3.4,3.7H100.7z"/>
	<path class="st7" d="M96.2,46h8.6c0.3,0,0.6,0.3,0.6,0.6s-0.3,0.6-0.6,0.6h-8.6c-0.3,0-0.6-0.3-0.6-0.6C95.5,46.3,95.7,46,96.2,46z
		"/>
</g>
<g>
	<path class="st5" d="M131.4,39.7c0-2.4-1.8-4.3-4-4.3h-0.8c-2.2,0-4,1.9-4,4.3v7h9v-7H131.4z"/>
	<path class="st1" d="M126.4,58h0.8c2.2,0,4-1.9,4-4.3v-7h-9v7C122.4,56,124.2,58,126.4,58z"/>
	<path class="st6" d="M129.8,46.6h1.6v-7c0-2.4-1.8-4.3-4-4.3h-0.8c-1.4,0-2.6,0.7-3.4,1.9c0.4-0.2,0.8-0.3,1.4-0.3
		C127.5,36.9,129.8,41.2,129.8,46.6z"/>
	<path class="st3" d="M129.8,46.6c0,5.4-2.4,9.7-5.4,9.7c-0.4,0-0.9-0.1-1.4-0.3c0.7,1.2,2,1.9,3.4,1.9h0.8c2.2,0,4-1.9,4-4.3v-7
		L129.8,46.6L129.8,46.6z"/>
	<path class="st7" d="M126.9,34.6h0.8c2.5,0,4.6,2.2,4.6,5v14.1c0,2.7-2.1,5-4.6,5h-0.8c-2.5,0-4.6-2.2-4.6-5v-14
		C122.1,36.9,124.2,34.6,126.9,34.6z M127.7,57.4c1.9,0,3.4-1.7,3.4-3.7v-14c0-2-1.5-3.7-3.4-3.7h-0.8c-1.9,0-3.4,1.7-3.4,3.7v14
		c0,2,1.5,3.7,3.4,3.7H127.7z"/>
	<path class="st7" d="M123.2,46h8.6c0.3,0,0.6,0.3,0.6,0.6s-0.3,0.6-0.6,0.6h-8.6c-0.3,0-0.6-0.3-0.6-0.6
		C122.5,46.3,122.7,46,123.2,46z"/>
</g>
<g>
	<path class="st5" d="M22.4,80.9c0-2.4-1.8-4.3-4-4.3h-0.8c-2.2,0-4,1.9-4,4.3v7h9v-7H22.4z"/>
	<path class="st1" d="M17.4,99.2h0.8c2.2,0,4-1.9,4-4.3v-7h-9v7C13.4,97.2,15.2,99.2,17.4,99.2z"/>
	<path class="st6" d="M20.8,87.8h1.6v-7c0-2.4-1.8-4.3-4-4.3h-0.8c-1.4,0-2.6,0.7-3.4,1.9c0.4-0.2,0.8-0.3,1.4-0.3
		C18.5,78.1,20.8,82.4,20.8,87.8z"/>
	<path class="st3" d="M20.8,87.8c0,5.4-2.4,9.7-5.4,9.7c-0.4,0-0.9-0.1-1.4-0.3c0.7,1.2,2,1.9,3.4,1.9h0.8c2.2,0,4-1.9,4-4.3v-7
		H20.8L20.8,87.8z"/>
	<path class="st7" d="M17.9,75.8h0.8c2.5,0,4.6,2.2,4.6,5v14.1c0,2.7-2.1,5-4.6,5h-0.8c-2.5,0-4.6-2.2-4.6-5v-14
		C13.1,78.1,15.2,75.8,17.9,75.8z M18.7,98.6c1.9,0,3.4-1.7,3.4-3.7v-14c0-2-1.5-3.7-3.4-3.7h-0.8c-1.9,0-3.4,1.7-3.4,3.7v14
		c0,2,1.5,3.7,3.4,3.7H18.7z"/>
	<path class="st7" d="M14.2,87.2h8.6c0.3,0,0.6,0.3,0.6,0.6s-0.3,0.6-0.6,0.6h-8.6c-0.3,0-0.6-0.3-0.6-0.6
		C13.5,87.5,13.7,87.2,14.2,87.2z"/>
</g>
<g>
	<path class="st5" d="M49,80.9c0-2.4-1.8-4.3-4-4.3h-0.8c-2.2,0-4,1.9-4,4.3v7h9v-7H49z"/>
	<path class="st1" d="M44,99.2h0.8c2.2,0,4-1.9,4-4.3v-7h-9v7C40,97.2,41.8,99.2,44,99.2z"/>
	<path class="st6" d="M47.4,87.8H49v-7c0-2.4-1.8-4.3-4-4.3h-0.8c-1.4,0-2.6,0.7-3.4,1.9c0.4-0.2,0.8-0.3,1.4-0.3
		C45.1,78.1,47.4,82.4,47.4,87.8z"/>
	<path class="st3" d="M47.4,87.8c0,5.4-2.4,9.7-5.4,9.7c-0.4,0-0.9-0.1-1.4-0.3c0.7,1.2,2,1.9,3.4,1.9h0.8c2.2,0,4-1.9,4-4.3v-7
		H47.4L47.4,87.8z"/>
	<path class="st7" d="M44.5,75.8h0.8c2.5,0,4.6,2.2,4.6,5v14.1c0,2.7-2.1,5-4.6,5h-0.8c-2.5,0-4.6-2.2-4.6-5v-14
		C39.7,78.1,41.8,75.8,44.5,75.8z M45.3,98.6c1.9,0,3.4-1.7,3.4-3.7v-14c0-2-1.5-3.7-3.4-3.7h-0.8c-1.9,0-3.4,1.7-3.4,3.7v14
		c0,2,1.5,3.7,3.4,3.7H45.3z"/>
	<path class="st7" d="M40.8,87.2h8.6c0.3,0,0.6,0.3,0.6,0.6s-0.3,0.6-0.6,0.6h-8.6c-0.3,0-0.6-0.3-0.6-0.6
		C40.1,87.5,40.3,87.2,40.8,87.2z"/>
</g>
<g>
	<path class="st5" d="M77.1,80.9c0-2.4-1.8-4.3-4-4.3h-0.8c-2.2,0-4,1.9-4,4.3v7h9v-7H77.1z"/>
	<path class="st1" d="M72.1,99.2h0.8c2.2,0,4-1.9,4-4.3v-7h-9v7C68.1,97.2,69.9,99.2,72.1,99.2z"/>
	<path class="st6" d="M75.5,87.8h1.6v-7c0-2.4-1.8-4.3-4-4.3h-0.8c-1.4,0-2.6,0.7-3.4,1.9c0.4-0.2,0.8-0.3,1.4-0.3
		C73.2,78.1,75.5,82.4,75.5,87.8z"/>
	<path class="st3" d="M75.5,87.8c0,5.4-2.4,9.7-5.4,9.7c-0.4,0-0.9-0.1-1.4-0.3c0.7,1.2,2,1.9,3.4,1.9h0.8c2.2,0,4-1.9,4-4.3v-7
		H75.5L75.5,87.8z"/>
	<path class="st7" d="M72.6,75.8h0.8c2.5,0,4.6,2.2,4.6,5v14.1c0,2.7-2.1,5-4.6,5h-0.8c-2.5,0-4.6-2.2-4.6-5v-14
		C67.8,78.1,69.9,75.8,72.6,75.8z M73.4,98.6c1.9,0,3.4-1.7,3.4-3.7v-14c0-2-1.5-3.7-3.4-3.7h-0.8c-1.9,0-3.4,1.7-3.4,3.7v14
		c0,2,1.5,3.7,3.4,3.7H73.4z"/>
	<path class="st7" d="M68.9,87.2h8.6c0.3,0,0.6,0.3,0.6,0.6s-0.3,0.6-0.6,0.6h-8.6c-0.3,0-0.6-0.3-0.6-0.6
		C68.2,87.5,68.4,87.2,68.9,87.2z"/>
</g>
<g>
	<path class="st5" d="M105.3,80.9c0-2.4-1.8-4.3-4-4.3h-0.8c-2.2,0-4,1.9-4,4.3v7h9v-7H105.3z"/>
	<path class="st1" d="M100.3,99.2h0.8c2.2,0,4-1.9,4-4.3v-7h-9v7C96.3,97.2,98.1,99.2,100.3,99.2z"/>
	<path class="st6" d="M103.7,87.8h1.6v-7c0-2.4-1.8-4.3-4-4.3h-0.8c-1.4,0-2.6,0.7-3.4,1.9c0.4-0.2,0.8-0.3,1.4-0.3
		C101.4,78.1,103.7,82.4,103.7,87.8z"/>
	<path class="st3" d="M103.7,87.8c0,5.4-2.4,9.7-5.4,9.7c-0.4,0-0.9-0.1-1.4-0.3c0.7,1.2,2,1.9,3.4,1.9h0.8c2.2,0,4-1.9,4-4.3v-7
		H103.7L103.7,87.8z"/>
	<path class="st7" d="M100.8,75.8h0.8c2.5,0,4.6,2.2,4.6,5v14.1c0,2.7-2.1,5-4.6,5h-0.8c-2.5,0-4.6-2.2-4.6-5v-14
		C96,78.1,98.1,75.8,100.8,75.8z M101.6,98.6c1.9,0,3.4-1.7,3.4-3.7v-14c0-2-1.5-3.7-3.4-3.7h-0.8c-1.9,0-3.4,1.7-3.4,3.7v14
		c0,2,1.5,3.7,3.4,3.7H101.6z"/>
	<path class="st7" d="M97.1,87.2h8.6c0.3,0,0.6,0.3,0.6,0.6s-0.3,0.6-0.6,0.6h-8.6c-0.3,0-0.6-0.3-0.6-0.6
		C96.4,87.5,96.6,87.2,97.1,87.2z"/>
</g>
<g>
	<path class="st5" d="M132.3,80.9c0-2.4-1.8-4.3-4-4.3h-0.8c-2.2,0-4,1.9-4,4.3v7h9v-7H132.3z"/>
	<path class="st1" d="M127.3,99.2h0.8c2.2,0,4-1.9,4-4.3v-7h-9v7C123.3,97.2,125.1,99.2,127.3,99.2z"/>
	<path class="st6" d="M130.7,87.8h1.6v-7c0-2.4-1.8-4.3-4-4.3h-0.8c-1.4,0-2.6,0.7-3.4,1.9c0.4-0.2,0.8-0.3,1.4-0.3
		C128.4,78.1,130.7,82.4,130.7,87.8z"/>
	<path class="st3" d="M130.7,87.8c0,5.4-2.4,9.7-5.4,9.7c-0.4,0-0.9-0.1-1.4-0.3c0.7,1.2,2,1.9,3.4,1.9h0.8c2.2,0,4-1.9,4-4.3v-7
		H130.7L130.7,87.8z"/>
	<path class="st7" d="M127.8,75.8h0.8c2.5,0,4.6,2.2,4.6,5v14.1c0,2.7-2.1,5-4.6,5h-0.8c-2.5,0-4.6-2.2-4.6-5v-14
		C123,78.1,125.1,75.8,127.8,75.8z M128.6,98.6c1.9,0,3.4-1.7,3.4-3.7v-14c0-2-1.5-3.7-3.4-3.7h-0.8c-1.9,0-3.4,1.7-3.4,3.7v14
		c0,2,1.5,3.7,3.4,3.7H128.6z"/>
	<path class="st7" d="M124.1,87.2h8.6c0.3,0,0.6,0.3,0.6,0.6s-0.3,0.6-0.6,0.6h-8.6c-0.3,0-0.6-0.3-0.6-0.6
		C123.4,87.5,123.6,87.2,124.1,87.2z"/>
</g>
</svg>
