<?xml version="1.0" encoding="utf-8"?>
<!-- Generator: Adobe Illustrator 23.0.6, SVG Export Plug-In . SVG Version: 6.00 Build 0)  -->
<svg version="1.1" id="Layer_1" xmlns="http://www.w3.org/2000/svg" xmlns:xlink="http://www.w3.org/1999/xlink" x="0px" y="0px"
	 viewBox="0 0 141 138.8" style="enable-background:new 0 0 141 138.8;" xml:space="preserve">
<style type="text/css">
	.st0{fill:#99D3CB;}
	.st1{fill:#FFF9EF;}
	.st2{fill:#6FCACD;}
	.st3{fill:#DAECCD;}
	.st4{fill:#871C1C;}
</style>
<g>
	<path class="st0" d="M85.8,7.3c0-2.3-1.7-4.1-3.8-4.1h-0.8c-2.1,0-3.8,1.8-3.8,4.1l0,6.6l8.5,0V7.3z"/>
	<path class="st1" d="M81.1,24.7h0.8c2.1,0,3.8-1.8,3.8-4.1v-6.6l-8.5,0v6.6C77.3,22.8,79,24.7,81.1,24.7z"/>
	<path class="st2" d="M84.3,13.9l1.5,0V7.3c0-2.3-1.7-4.1-3.8-4.1h-0.8c-1.3,0-2.5,0.7-3.2,1.8c0.4-0.2,0.8-0.3,1.3-0.3
		C82,4.7,84.3,8.8,84.3,13.9z"/>
	<path class="st3" d="M84.3,13.9c0,5.1-2.3,9.2-5.1,9.2c-0.4,0-0.9-0.1-1.3-0.3c0.7,1.1,1.9,1.8,3.2,1.8H82c2.1,0,3.8-1.8,3.8-4.1
		v-6.6L84.3,13.9L84.3,13.9z"/>
	<path class="st4" d="M81.4,2.5h0.8c2.4,0,4.4,2.1,4.4,4.7v13.3c0,2.6-2,4.7-4.4,4.7h-0.8c-2.4,0-4.4-2.1-4.4-4.7l0-13.3
		C77,4.7,79,2.5,81.4,2.5z M82.3,24.1c1.8,0,3.2-1.6,3.2-3.5l0-13.3c0-1.9-1.4-3.5-3.2-3.5h-0.8c-1.8,0-3.2,1.6-3.2,3.5l0,13.3
		c0,1.9,1.4,3.5,3.2,3.5H82.3z"/>
	<path class="st4" d="M77.9,13.3l8.2,0c0.3,0,0.6,0.3,0.6,0.6c0,0.3-0.3,0.6-0.6,0.6l-8.2,0c-0.3,0-0.6-0.3-0.6-0.6
		C77.3,13.6,77.6,13.3,77.9,13.3z"/>
</g>
<g>
	<path class="st0" d="M37.1,7.3c0-2.3-1.7-4.1-3.8-4.1h-0.8c-2.1,0-3.8,1.8-3.8,4.1l0,6.6l8.5,0V7.3z"/>
	<path class="st1" d="M32.4,24.7h0.8c2.1,0,3.8-1.8,3.8-4.1v-6.6l-8.5,0v6.6C28.6,22.8,30.3,24.7,32.4,24.7z"/>
	<path class="st2" d="M35.6,13.9l1.5,0V7.3c0-2.3-1.7-4.1-3.8-4.1h-0.8c-1.3,0-2.5,0.7-3.2,1.8c0.4-0.2,0.8-0.3,1.3-0.3
		C33.3,4.7,35.6,8.8,35.6,13.9z"/>
	<path class="st3" d="M35.6,13.9c0,5.1-2.3,9.2-5.1,9.2c-0.4,0-0.9-0.1-1.3-0.3c0.7,1.1,1.9,1.8,3.2,1.8h0.8c2.1,0,3.8-1.8,3.8-4.1
		v-6.6L35.6,13.9L35.6,13.9z"/>
	<path class="st4" d="M32.7,2.5h0.8C36,2.5,38,4.7,38,7.3v13.3c0,2.6-2,4.7-4.4,4.7h-0.8c-2.4,0-4.4-2.1-4.4-4.7l0-13.3
		C28.3,4.7,30.3,2.5,32.7,2.5z M33.6,24.1c1.8,0,3.2-1.6,3.2-3.5l0-13.3c0-1.9-1.4-3.5-3.2-3.5h-0.8c-1.8,0-3.2,1.6-3.2,3.5l0,13.3
		c0,1.9,1.4,3.5,3.2,3.5H33.6z"/>
	<path class="st4" d="M29.2,13.3l8.2,0c0.3,0,0.6,0.3,0.6,0.6c0,0.3-0.3,0.6-0.6,0.6l-8.2,0c-0.3,0-0.6-0.3-0.6-0.6
		C28.6,13.6,28.9,13.3,29.2,13.3z"/>
</g>
<g>
	<path class="st0" d="M134.4,7.3c0-2.3-1.7-4.1-3.8-4.1h-0.8c-2.1,0-3.8,1.8-3.8,4.1l0,6.6l8.5,0V7.3z"/>
	<path class="st1" d="M129.8,24.7h0.8c2.1,0,3.8-1.8,3.8-4.1v-6.6l-8.5,0v6.6C126,22.8,127.7,24.7,129.8,24.7z"/>
	<path class="st2" d="M133,13.9l1.5,0V7.3c0-2.3-1.7-4.1-3.8-4.1h-0.8c-1.3,0-2.5,0.7-3.2,1.8c0.4-0.2,0.8-0.3,1.3-0.3
		C130.7,4.7,133,8.8,133,13.9z"/>
	<path class="st3" d="M133,13.9c0,5.1-2.3,9.2-5.1,9.2c-0.4,0-0.9-0.1-1.3-0.3c0.7,1.1,1.9,1.8,3.2,1.8h0.8c2.1,0,3.8-1.8,3.8-4.1
		v-6.6L133,13.9L133,13.9z"/>
	<path class="st4" d="M130.1,2.5h0.8c2.4,0,4.4,2.1,4.4,4.7v13.3c0,2.6-2,4.7-4.4,4.7h-0.8c-2.4,0-4.4-2.1-4.4-4.7l0-13.3
		C125.7,4.7,127.7,2.5,130.1,2.5z M131,24.1c1.8,0,3.2-1.6,3.2-3.5l0-13.3c0-1.9-1.4-3.5-3.2-3.5h-0.8c-1.8,0-3.2,1.6-3.2,3.5
		l0,13.3c0,1.9,1.4,3.5,3.2,3.5H131z"/>
	<path class="st4" d="M126.6,13.3l8.2,0c0.3,0,0.6,0.3,0.6,0.6c0,0.3-0.3,0.6-0.6,0.6l-8.2,0c-0.3,0-0.6-0.3-0.6-0.6
		C126,13.6,126.3,13.3,126.6,13.3z"/>
</g>
<g>
	<path class="st0" d="M61.4,7.3c0-2.3-1.7-4.1-3.8-4.1h-0.8c-2.1,0-3.8,1.8-3.8,4.1l0,6.6l8.5,0V7.3z"/>
	<path class="st1" d="M56.7,24.7h0.8c2.1,0,3.8-1.8,3.8-4.1v-6.6l-8.5,0v6.6C52.9,22.8,54.6,24.7,56.7,24.7z"/>
	<path class="st2" d="M59.9,13.9l1.5,0V7.3c0-2.3-1.7-4.1-3.8-4.1h-0.8c-1.3,0-2.5,0.7-3.2,1.8c0.4-0.2,0.8-0.3,1.3-0.3
		C57.7,4.7,59.9,8.8,59.9,13.9z"/>
	<path class="st3" d="M59.9,13.9c0,5.1-2.3,9.2-5.1,9.2c-0.4,0-0.9-0.1-1.3-0.3c0.7,1.1,1.9,1.8,3.2,1.8h0.8c2.1,0,3.8-1.8,3.8-4.1
		v-6.6L59.9,13.9L59.9,13.9z"/>
	<path class="st4" d="M57.1,2.5h0.8c2.4,0,4.4,2.1,4.4,4.7v13.3c0,2.6-2,4.7-4.4,4.7h-0.8c-2.4,0-4.4-2.1-4.4-4.7l0-13.3
		C52.7,4.7,54.6,2.5,57.1,2.5z M57.9,24.1c1.8,0,3.2-1.6,3.2-3.5l0-13.3c0-1.9-1.4-3.5-3.2-3.5h-0.8c-1.8,0-3.2,1.6-3.2,3.5l0,13.3
		c0,1.9,1.4,3.5,3.2,3.5H57.9z"/>
	<path class="st4" d="M53.6,13.3l8.2,0c0.3,0,0.6,0.3,0.6,0.6c0,0.3-0.3,0.6-0.6,0.6l-8.2,0c-0.3,0-0.6-0.3-0.6-0.6
		C53,13.6,53.2,13.3,53.6,13.3z"/>
</g>
<g>
	<path class="st0" d="M110.1,7.3c0-2.3-1.7-4.1-3.8-4.1h-0.8c-2.1,0-3.8,1.8-3.8,4.1l0,6.6l8.5,0V7.3z"/>
	<path class="st1" d="M105.4,24.7h0.8c2.1,0,3.8-1.8,3.8-4.1v-6.6l-8.5,0v6.6C101.6,22.8,103.3,24.7,105.4,24.7z"/>
	<path class="st2" d="M108.6,13.9l1.5,0V7.3c0-2.3-1.7-4.1-3.8-4.1h-0.8c-1.3,0-2.5,0.7-3.2,1.8c0.4-0.2,0.8-0.3,1.3-0.3
		C106.4,4.7,108.6,8.8,108.6,13.9z"/>
	<path class="st3" d="M108.6,13.9c0,5.1-2.3,9.2-5.1,9.2c-0.4,0-0.9-0.1-1.3-0.3c0.7,1.1,1.9,1.8,3.2,1.8h0.8c2.1,0,3.8-1.8,3.8-4.1
		v-6.6L108.6,13.9L108.6,13.9z"/>
	<path class="st4" d="M105.8,2.5h0.8c2.4,0,4.4,2.1,4.4,4.7v13.3c0,2.6-2,4.7-4.4,4.7h-0.8c-2.4,0-4.4-2.1-4.4-4.7l0-13.3
		C101.3,4.7,103.3,2.5,105.8,2.5z M106.6,24.1c1.8,0,3.2-1.6,3.2-3.5l0-13.3c0-1.9-1.4-3.5-3.2-3.5h-0.8c-1.8,0-3.2,1.6-3.2,3.5
		l0,13.3c0,1.9,1.4,3.5,3.2,3.5H106.6z"/>
	<path class="st4" d="M102.3,13.3l8.2,0c0.3,0,0.6,0.3,0.6,0.6c0,0.3-0.3,0.6-0.6,0.6l-8.2,0c-0.3,0-0.6-0.3-0.6-0.6
		C101.7,13.6,101.9,13.3,102.3,13.3z"/>
</g>
<g>
	<path class="st0" d="M12.7,7.3c0-2.3-1.7-4.1-3.8-4.1H8.1C6,3.2,4.2,5,4.2,7.3l0,6.6l8.5,0V7.3z"/>
	<path class="st1" d="M8.1,24.7h0.8c2.1,0,3.8-1.8,3.8-4.1v-6.6l-8.5,0v6.6C4.2,22.8,6,24.7,8.1,24.7z"/>
	<path class="st2" d="M11.2,13.9l1.5,0V7.3c0-2.3-1.7-4.1-3.8-4.1H8.1C6.8,3.2,5.6,3.9,4.9,5c0.4-0.2,0.8-0.3,1.3-0.3
		C9,4.7,11.2,8.8,11.2,13.9z"/>
	<path class="st3" d="M11.2,13.9c0,5.1-2.3,9.2-5.1,9.2c-0.4,0-0.9-0.1-1.3-0.3c0.7,1.1,1.9,1.8,3.2,1.8h0.8c2.1,0,3.8-1.8,3.8-4.1
		v-6.6L11.2,13.9L11.2,13.9z"/>
	<path class="st4" d="M8.4,2.5h0.8c2.4,0,4.4,2.1,4.4,4.7v13.3c0,2.6-2,4.7-4.4,4.7H8.4C6,25.3,4,23.2,4,20.6L4,7.3
		C4,4.7,6,2.5,8.4,2.5z M9.2,24.1c1.8,0,3.2-1.6,3.2-3.5l0-13.3c0-1.9-1.4-3.5-3.2-3.5H8.4c-1.8,0-3.2,1.6-3.2,3.5l0,13.3
		c0,1.9,1.4,3.5,3.2,3.5H9.2z"/>
	<path class="st4" d="M4.9,13.3l8.2,0c0.3,0,0.6,0.3,0.6,0.6c0,0.3-0.3,0.6-0.6,0.6l-8.2,0c-0.3,0-0.6-0.3-0.6-0.6
		C4.3,13.6,4.6,13.3,4.9,13.3z"/>
</g>
<g>
	<path class="st0" d="M84.8,39.9c0-2.3-1.7-4.1-3.8-4.1h-0.8c-2.1,0-3.8,1.8-3.8,4.1l0,6.6l8.5,0V39.9z"/>
	<path class="st1" d="M80.1,57.3H81c2.1,0,3.8-1.8,3.8-4.1v-6.6l-8.5,0v6.6C76.3,55.4,78,57.3,80.1,57.3z"/>
	<path class="st2" d="M83.3,46.5l1.5,0v-6.6c0-2.3-1.7-4.1-3.8-4.1h-0.8c-1.3,0-2.5,0.7-3.2,1.8c0.4-0.2,0.8-0.3,1.3-0.3
		C81,37.3,83.3,41.4,83.3,46.5z"/>
	<path class="st3" d="M83.3,46.5c0,5.1-2.3,9.2-5.1,9.2c-0.4,0-0.9-0.1-1.3-0.3c0.7,1.1,1.9,1.8,3.2,1.8H81c2.1,0,3.8-1.8,3.8-4.1
		v-6.6L83.3,46.5L83.3,46.5z"/>
	<path class="st4" d="M80.5,35.1h0.8c2.4,0,4.4,2.1,4.4,4.7v13.3c0,2.6-2,4.7-4.4,4.7h-0.8c-2.4,0-4.4-2.1-4.4-4.7l0-13.3
		C76,37.3,78,35.1,80.5,35.1z M81.3,56.7c1.8,0,3.2-1.6,3.2-3.5l0-13.3c0-1.9-1.4-3.5-3.2-3.5h-0.8c-1.8,0-3.2,1.6-3.2,3.5l0,13.3
		c0,1.9,1.4,3.5,3.2,3.5H81.3z"/>
	<path class="st4" d="M77,45.9l8.2,0c0.3,0,0.6,0.3,0.6,0.6c0,0.3-0.3,0.6-0.6,0.6l-8.2,0c-0.3,0-0.6-0.3-0.6-0.6
		C76.4,46.2,76.6,45.9,77,45.9z"/>
</g>
<g>
	<path class="st0" d="M36.1,39.9c0-2.3-1.7-4.1-3.8-4.1h-0.8c-2.1,0-3.8,1.8-3.8,4.1l0,6.6l8.5,0V39.9z"/>
	<path class="st1" d="M31.4,57.3h0.8c2.1,0,3.8-1.8,3.8-4.1v-6.6l-8.5,0v6.6C27.6,55.4,29.3,57.3,31.4,57.3z"/>
	<path class="st2" d="M34.6,46.5l1.5,0v-6.6c0-2.3-1.7-4.1-3.8-4.1h-0.8c-1.3,0-2.5,0.7-3.2,1.8c0.4-0.2,0.8-0.3,1.3-0.3
		C32.4,37.3,34.6,41.4,34.6,46.5z"/>
	<path class="st3" d="M34.6,46.5c0,5.1-2.3,9.2-5.1,9.2c-0.4,0-0.9-0.1-1.3-0.3c0.7,1.1,1.9,1.8,3.2,1.8h0.8c2.1,0,3.8-1.8,3.8-4.1
		v-6.6L34.6,46.5L34.6,46.5z"/>
	<path class="st4" d="M31.8,35.1h0.8c2.4,0,4.4,2.1,4.4,4.7v13.3c0,2.6-2,4.7-4.4,4.7h-0.8c-2.4,0-4.4-2.1-4.4-4.7l0-13.3
		C27.3,37.3,29.3,35.1,31.8,35.1z M32.6,56.7c1.8,0,3.2-1.6,3.2-3.5l0-13.3c0-1.9-1.4-3.5-3.2-3.5h-0.8c-1.8,0-3.2,1.6-3.2,3.5
		l0,13.3c0,1.9,1.4,3.5,3.2,3.5H32.6z"/>
	<path class="st4" d="M28.3,45.9l8.2,0c0.3,0,0.6,0.3,0.6,0.6c0,0.3-0.3,0.6-0.6,0.6l-8.2,0c-0.3,0-0.6-0.3-0.6-0.6
		C27.7,46.2,27.9,45.9,28.3,45.9z"/>
</g>
<g>
	<path class="st0" d="M133.5,39.9c0-2.3-1.7-4.1-3.8-4.1h-0.8c-2.1,0-3.8,1.8-3.8,4.1l0,6.6l8.5,0V39.9z"/>
	<path class="st1" d="M128.8,57.3h0.8c2.1,0,3.8-1.8,3.8-4.1v-6.6l-8.5,0v6.6C125,55.4,126.7,57.3,128.8,57.3z"/>
	<path class="st2" d="M132,46.5l1.5,0v-6.6c0-2.3-1.7-4.1-3.8-4.1h-0.8c-1.3,0-2.5,0.7-3.2,1.8c0.4-0.2,0.8-0.3,1.3-0.3
		C129.7,37.3,132,41.4,132,46.5z"/>
	<path class="st3" d="M132,46.5c0,5.1-2.3,9.2-5.1,9.2c-0.4,0-0.9-0.1-1.3-0.3c0.7,1.1,1.9,1.8,3.2,1.8h0.8c2.1,0,3.8-1.8,3.8-4.1
		v-6.6L132,46.5L132,46.5z"/>
	<path class="st4" d="M129.2,35.1h0.8c2.4,0,4.4,2.1,4.4,4.7v13.3c0,2.6-2,4.7-4.4,4.7h-0.8c-2.4,0-4.4-2.1-4.4-4.7l0-13.3
		C124.7,37.3,126.7,35.1,129.2,35.1z M130,56.7c1.8,0,3.2-1.6,3.2-3.5l0-13.3c0-1.9-1.4-3.5-3.2-3.5h-0.8c-1.8,0-3.2,1.6-3.2,3.5
		l0,13.3c0,1.9,1.4,3.5,3.2,3.5H130z"/>
	<path class="st4" d="M125.7,45.9l8.2,0c0.3,0,0.6,0.3,0.6,0.6c0,0.3-0.3,0.6-0.6,0.6l-8.2,0c-0.3,0-0.6-0.3-0.6-0.6
		C125,46.2,125.3,45.9,125.7,45.9z"/>
</g>
<g>
	<path class="st0" d="M60.4,39.9c0-2.3-1.7-4.1-3.8-4.1h-0.8c-2.1,0-3.8,1.8-3.8,4.1l0,6.6l8.5,0V39.9z"/>
	<path class="st1" d="M55.8,57.3h0.8c2.1,0,3.8-1.8,3.8-4.1v-6.6l-8.5,0v6.6C52,55.4,53.7,57.3,55.8,57.3z"/>
	<path class="st2" d="M59,46.5l1.5,0v-6.6c0-2.3-1.7-4.1-3.8-4.1h-0.8c-1.3,0-2.5,0.7-3.2,1.8c0.4-0.2,0.8-0.3,1.3-0.3
		C56.7,37.3,59,41.4,59,46.5z"/>
	<path class="st3" d="M59,46.5c0,5.1-2.3,9.2-5.1,9.2c-0.4,0-0.9-0.1-1.3-0.3c0.7,1.1,1.9,1.8,3.2,1.8h0.8c2.1,0,3.8-1.8,3.8-4.1
		v-6.6L59,46.5L59,46.5z"/>
	<path class="st4" d="M56.1,35.1H57c2.4,0,4.4,2.1,4.4,4.7v13.3c0,2.6-2,4.7-4.4,4.7h-0.8c-2.4,0-4.4-2.1-4.4-4.7l0-13.3
		C51.7,37.3,53.7,35.1,56.1,35.1z M57,56.7c1.8,0,3.2-1.6,3.2-3.5l0-13.3c0-1.9-1.4-3.5-3.2-3.5h-0.8c-1.8,0-3.2,1.6-3.2,3.5l0,13.3
		c0,1.9,1.4,3.5,3.2,3.5H57z"/>
	<path class="st4" d="M52.6,45.9l8.2,0c0.3,0,0.6,0.3,0.6,0.6c0,0.3-0.3,0.6-0.6,0.6l-8.2,0c-0.3,0-0.6-0.3-0.6-0.6
		C52,46.2,52.3,45.9,52.6,45.9z"/>
</g>
<g>
	<path class="st0" d="M109.1,39.9c0-2.3-1.7-4.1-3.8-4.1h-0.8c-2.1,0-3.8,1.8-3.8,4.1l0,6.6l8.5,0V39.9z"/>
	<path class="st1" d="M104.5,57.3h0.8c2.1,0,3.8-1.8,3.8-4.1v-6.6l-8.5,0v6.6C100.7,55.4,102.4,57.3,104.5,57.3z"/>
	<path class="st2" d="M107.7,46.5l1.5,0v-6.6c0-2.3-1.7-4.1-3.8-4.1h-0.8c-1.3,0-2.5,0.7-3.2,1.8c0.4-0.2,0.8-0.3,1.3-0.3
		C105.4,37.3,107.7,41.4,107.7,46.5z"/>
	<path class="st3" d="M107.7,46.5c0,5.1-2.3,9.2-5.1,9.2c-0.4,0-0.9-0.1-1.3-0.3c0.7,1.1,1.9,1.8,3.2,1.8h0.8c2.1,0,3.8-1.8,3.8-4.1
		v-6.6L107.7,46.5L107.7,46.5z"/>
	<path class="st4" d="M104.8,35.1h0.8c2.4,0,4.4,2.1,4.4,4.7v13.3c0,2.6-2,4.7-4.4,4.7h-0.8c-2.4,0-4.4-2.1-4.4-4.7l0-13.3
		C100.4,37.3,102.4,35.1,104.8,35.1z M105.7,56.7c1.8,0,3.2-1.6,3.2-3.5l0-13.3c0-1.9-1.4-3.5-3.2-3.5h-0.8c-1.8,0-3.2,1.6-3.2,3.5
		l0,13.3c0,1.9,1.4,3.5,3.2,3.5H105.7z"/>
	<path class="st4" d="M101.3,45.9l8.2,0c0.3,0,0.6,0.3,0.6,0.6c0,0.3-0.3,0.6-0.6,0.6l-8.2,0c-0.3,0-0.6-0.3-0.6-0.6
		C100.7,46.2,101,45.9,101.3,45.9z"/>
</g>
<g>
	<path class="st0" d="M11.8,39.9c0-2.3-1.7-4.1-3.8-4.1H7.1c-2.1,0-3.8,1.8-3.8,4.1l0,6.6l8.5,0V39.9z"/>
	<path class="st1" d="M7.1,57.3h0.8c2.1,0,3.8-1.8,3.8-4.1v-6.6l-8.5,0v6.6C3.3,55.4,5,57.3,7.1,57.3z"/>
	<path class="st2" d="M10.3,46.5l1.5,0v-6.6c0-2.3-1.7-4.1-3.8-4.1H7.1c-1.3,0-2.5,0.7-3.2,1.8c0.4-0.2,0.8-0.3,1.3-0.3
		C8,37.3,10.3,41.4,10.3,46.5z"/>
	<path class="st3" d="M10.3,46.5c0,5.1-2.3,9.2-5.1,9.2c-0.4,0-0.9-0.1-1.3-0.3c0.7,1.1,1.9,1.8,3.2,1.8H8c2.1,0,3.8-1.8,3.8-4.1
		v-6.6L10.3,46.5L10.3,46.5z"/>
	<path class="st4" d="M7.4,35.1h0.8c2.4,0,4.4,2.1,4.4,4.7v13.3c0,2.6-2,4.7-4.4,4.7H7.4C5,57.9,3,55.8,3,53.2l0-13.3
		C3,37.3,5,35.1,7.4,35.1z M8.3,56.7c1.8,0,3.2-1.6,3.2-3.5l0-13.3c0-1.9-1.4-3.5-3.2-3.5H7.4c-1.8,0-3.2,1.6-3.2,3.5l0,13.3
		c0,1.9,1.4,3.5,3.2,3.5H8.3z"/>
	<path class="st4" d="M3.9,45.9l8.2,0c0.3,0,0.6,0.3,0.6,0.6c0,0.3-0.3,0.6-0.6,0.6l-8.2,0c-0.3,0-0.6-0.3-0.6-0.6
		C3.3,46.2,3.6,45.9,3.9,45.9z"/>
</g>
<g>
	<path class="st0" d="M84.8,76.7c0-2.3-1.7-4.1-3.8-4.1h-0.8c-2.1,0-3.8,1.8-3.8,4.1l0,6.6l8.5,0V76.7z"/>
	<path class="st1" d="M80.1,94.1H81c2.1,0,3.8-1.8,3.8-4.1v-6.6l-8.5,0V90C76.3,92.2,78,94.1,80.1,94.1z"/>
	<path class="st2" d="M83.3,83.3l1.5,0v-6.6c0-2.3-1.7-4.1-3.8-4.1h-0.8c-1.3,0-2.5,0.7-3.2,1.8c0.4-0.2,0.8-0.3,1.3-0.3
		C81,74.1,83.3,78.2,83.3,83.3z"/>
	<path class="st3" d="M83.3,83.3c0,5.1-2.3,9.2-5.1,9.2c-0.4,0-0.9-0.1-1.3-0.3c0.7,1.1,1.9,1.8,3.2,1.8H81c2.1,0,3.8-1.8,3.8-4.1
		v-6.6L83.3,83.3L83.3,83.3z"/>
	<path class="st4" d="M80.5,71.9h0.8c2.4,0,4.4,2.1,4.4,4.7V90c0,2.6-2,4.7-4.4,4.7h-0.8C78,94.7,76,92.6,76,90l0-13.3
		C76,74.1,78,71.9,80.5,71.9z M81.3,93.5c1.8,0,3.2-1.6,3.2-3.5l0-13.3c0-1.9-1.4-3.5-3.2-3.5h-0.8c-1.8,0-3.2,1.6-3.2,3.5l0,13.3
		c0,1.9,1.4,3.5,3.2,3.5H81.3z"/>
	<path class="st4" d="M77,82.7l8.2,0c0.3,0,0.6,0.3,0.6,0.6c0,0.3-0.3,0.6-0.6,0.6l-8.2,0c-0.3,0-0.6-0.3-0.6-0.6
		C76.4,83,76.6,82.7,77,82.7z"/>
</g>
<g>
	<path class="st0" d="M36.1,76.7c0-2.3-1.7-4.1-3.8-4.1h-0.8c-2.1,0-3.8,1.8-3.8,4.1l0,6.6l8.5,0V76.7z"/>
	<path class="st1" d="M31.4,94.1h0.8c2.1,0,3.8-1.8,3.8-4.1v-6.6l-8.5,0V90C27.6,92.2,29.3,94.1,31.4,94.1z"/>
	<path class="st2" d="M34.6,83.3l1.5,0v-6.6c0-2.3-1.7-4.1-3.8-4.1h-0.8c-1.3,0-2.5,0.7-3.2,1.8c0.4-0.2,0.8-0.3,1.3-0.3
		C32.4,74.1,34.6,78.2,34.6,83.3z"/>
	<path class="st3" d="M34.6,83.3c0,5.1-2.3,9.2-5.1,9.2c-0.4,0-0.9-0.1-1.3-0.3c0.7,1.1,1.9,1.8,3.2,1.8h0.8c2.1,0,3.8-1.8,3.8-4.1
		v-6.6L34.6,83.3L34.6,83.3z"/>
	<path class="st4" d="M31.8,71.9h0.8c2.4,0,4.4,2.1,4.4,4.7V90c0,2.6-2,4.7-4.4,4.7h-0.8c-2.4,0-4.4-2.1-4.4-4.7l0-13.3
		C27.3,74.1,29.3,71.9,31.8,71.9z M32.6,93.5c1.8,0,3.2-1.6,3.2-3.5l0-13.3c0-1.9-1.4-3.5-3.2-3.5h-0.8c-1.8,0-3.2,1.6-3.2,3.5
		l0,13.3c0,1.9,1.4,3.5,3.2,3.5H32.6z"/>
	<path class="st4" d="M28.3,82.7l8.2,0c0.3,0,0.6,0.3,0.6,0.6c0,0.3-0.3,0.6-0.6,0.6l-8.2,0c-0.3,0-0.6-0.3-0.6-0.6
		C27.7,83,27.9,82.7,28.3,82.7z"/>
</g>
<g>
	<path class="st0" d="M133.5,76.7c0-2.3-1.7-4.1-3.8-4.1h-0.8c-2.1,0-3.8,1.8-3.8,4.1l0,6.6l8.5,0V76.7z"/>
	<path class="st1" d="M128.8,94.1h0.8c2.1,0,3.8-1.8,3.8-4.1v-6.6l-8.5,0V90C125,92.2,126.7,94.1,128.8,94.1z"/>
	<path class="st2" d="M132,83.3l1.5,0v-6.6c0-2.3-1.7-4.1-3.8-4.1h-0.8c-1.3,0-2.5,0.7-3.2,1.8c0.4-0.2,0.8-0.3,1.3-0.3
		C129.7,74.1,132,78.2,132,83.3z"/>
	<path class="st3" d="M132,83.3c0,5.1-2.3,9.2-5.1,9.2c-0.4,0-0.9-0.1-1.3-0.3c0.7,1.1,1.9,1.8,3.2,1.8h0.8c2.1,0,3.8-1.8,3.8-4.1
		v-6.6L132,83.3L132,83.3z"/>
	<path class="st4" d="M129.2,71.9h0.8c2.4,0,4.4,2.1,4.4,4.7V90c0,2.6-2,4.7-4.4,4.7h-0.8c-2.4,0-4.4-2.1-4.4-4.7l0-13.3
		C124.7,74.1,126.7,71.9,129.2,71.9z M130,93.5c1.8,0,3.2-1.6,3.2-3.5l0-13.3c0-1.9-1.4-3.5-3.2-3.5h-0.8c-1.8,0-3.2,1.6-3.2,3.5
		l0,13.3c0,1.9,1.4,3.5,3.2,3.5H130z"/>
	<path class="st4" d="M125.7,82.7l8.2,0c0.3,0,0.6,0.3,0.6,0.6c0,0.3-0.3,0.6-0.6,0.6l-8.2,0c-0.3,0-0.6-0.3-0.6-0.6
		C125,83,125.3,82.7,125.7,82.7z"/>
</g>
<g>
	<path class="st0" d="M60.4,76.7c0-2.3-1.7-4.1-3.8-4.1h-0.8c-2.1,0-3.8,1.8-3.8,4.1l0,6.6l8.5,0V76.7z"/>
	<path class="st1" d="M55.8,94.1h0.8c2.1,0,3.8-1.8,3.8-4.1v-6.6l-8.5,0V90C52,92.2,53.7,94.1,55.8,94.1z"/>
	<path class="st2" d="M59,83.3l1.5,0v-6.6c0-2.3-1.7-4.1-3.8-4.1h-0.8c-1.3,0-2.5,0.7-3.2,1.8c0.4-0.2,0.8-0.3,1.3-0.3
		C56.7,74.1,59,78.2,59,83.3z"/>
	<path class="st3" d="M59,83.3c0,5.1-2.3,9.2-5.1,9.2c-0.4,0-0.9-0.1-1.3-0.3c0.7,1.1,1.9,1.8,3.2,1.8h0.8c2.1,0,3.8-1.8,3.8-4.1
		v-6.6L59,83.3L59,83.3z"/>
	<path class="st4" d="M56.1,71.9H57c2.4,0,4.4,2.1,4.4,4.7V90c0,2.6-2,4.7-4.4,4.7h-0.8c-2.4,0-4.4-2.1-4.4-4.7l0-13.3
		C51.7,74.1,53.7,71.9,56.1,71.9z M57,93.5c1.8,0,3.2-1.6,3.2-3.5l0-13.3c0-1.9-1.4-3.5-3.2-3.5h-0.8c-1.8,0-3.2,1.6-3.2,3.5l0,13.3
		c0,1.9,1.4,3.5,3.2,3.5H57z"/>
	<path class="st4" d="M52.6,82.7l8.2,0c0.3,0,0.6,0.3,0.6,0.6c0,0.3-0.3,0.6-0.6,0.6l-8.2,0c-0.3,0-0.6-0.3-0.6-0.6
		C52,83,52.3,82.7,52.6,82.7z"/>
</g>
<g>
	<path class="st0" d="M109.1,76.7c0-2.3-1.7-4.1-3.8-4.1h-0.8c-2.1,0-3.8,1.8-3.8,4.1l0,6.6l8.5,0V76.7z"/>
	<path class="st1" d="M104.5,94.1h0.8c2.1,0,3.8-1.8,3.8-4.1v-6.6l-8.5,0V90C100.7,92.2,102.4,94.1,104.5,94.1z"/>
	<path class="st2" d="M107.7,83.3l1.5,0v-6.6c0-2.3-1.7-4.1-3.8-4.1h-0.8c-1.3,0-2.5,0.7-3.2,1.8c0.4-0.2,0.8-0.3,1.3-0.3
		C105.4,74.1,107.7,78.2,107.7,83.3z"/>
	<path class="st3" d="M107.7,83.3c0,5.1-2.3,9.2-5.1,9.2c-0.4,0-0.9-0.1-1.3-0.3c0.7,1.1,1.9,1.8,3.2,1.8h0.8c2.1,0,3.8-1.8,3.8-4.1
		v-6.6L107.7,83.3L107.7,83.3z"/>
	<path class="st4" d="M104.8,71.9h0.8c2.4,0,4.4,2.1,4.4,4.7V90c0,2.6-2,4.7-4.4,4.7h-0.8c-2.4,0-4.4-2.1-4.4-4.7l0-13.3
		C100.4,74.1,102.4,71.9,104.8,71.9z M105.7,93.5c1.8,0,3.2-1.6,3.2-3.5l0-13.3c0-1.9-1.4-3.5-3.2-3.5h-0.8c-1.8,0-3.2,1.6-3.2,3.5
		l0,13.3c0,1.9,1.4,3.5,3.2,3.5H105.7z"/>
	<path class="st4" d="M101.3,82.7l8.2,0c0.3,0,0.6,0.3,0.6,0.6c0,0.3-0.3,0.6-0.6,0.6l-8.2,0c-0.3,0-0.6-0.3-0.6-0.6
		C100.7,83,101,82.7,101.3,82.7z"/>
</g>
<g>
	<path class="st0" d="M11.8,76.7c0-2.3-1.7-4.1-3.8-4.1H7.1c-2.1,0-3.8,1.8-3.8,4.1l0,6.6l8.5,0V76.7z"/>
	<path class="st1" d="M7.1,94.1h0.8c2.1,0,3.8-1.8,3.8-4.1v-6.6l-8.5,0V90C3.3,92.2,5,94.1,7.1,94.1z"/>
	<path class="st2" d="M10.3,83.3l1.5,0v-6.6c0-2.3-1.7-4.1-3.8-4.1H7.1c-1.3,0-2.5,0.7-3.2,1.8c0.4-0.2,0.8-0.3,1.3-0.3
		C8,74.1,10.3,78.2,10.3,83.3z"/>
	<path class="st3" d="M10.3,83.3c0,5.1-2.3,9.2-5.1,9.2c-0.4,0-0.9-0.1-1.3-0.3c0.7,1.1,1.9,1.8,3.2,1.8H8c2.1,0,3.8-1.8,3.8-4.1
		v-6.6L10.3,83.3L10.3,83.3z"/>
	<path class="st4" d="M7.4,71.9h0.8c2.4,0,4.4,2.1,4.4,4.7V90c0,2.6-2,4.7-4.4,4.7H7.4C5,94.7,3,92.6,3,90l0-13.3
		C3,74.1,5,71.9,7.4,71.9z M8.3,93.5c1.8,0,3.2-1.6,3.2-3.5l0-13.3c0-1.9-1.4-3.5-3.2-3.5H7.4c-1.8,0-3.2,1.6-3.2,3.5l0,13.3
		c0,1.9,1.4,3.5,3.2,3.5H8.3z"/>
	<path class="st4" d="M3.9,82.7l8.2,0c0.3,0,0.6,0.3,0.6,0.6c0,0.3-0.3,0.6-0.6,0.6l-8.2,0c-0.3,0-0.6-0.3-0.6-0.6
		C3.3,83,3.6,82.7,3.9,82.7z"/>
</g>
<g>
	<path class="st0" d="M86.6,113.5c0-2.3-1.7-4.1-3.8-4.1h-0.8c-2.1,0-3.8,1.8-3.8,4.1l0,6.6l8.5,0V113.5z"/>
	<path class="st1" d="M81.9,130.9h0.8c2.1,0,3.8-1.8,3.8-4.1v-6.6l-8.5,0v6.6C78.1,129,79.8,130.9,81.9,130.9z"/>
	<path class="st2" d="M85.1,120.1l1.5,0v-6.6c0-2.3-1.7-4.1-3.8-4.1h-0.8c-1.3,0-2.5,0.7-3.2,1.8c0.4-0.2,0.8-0.3,1.3-0.3
		C82.8,110.9,85.1,115,85.1,120.1z"/>
	<path class="st3" d="M85.1,120.1c0,5.1-2.3,9.2-5.1,9.2c-0.4,0-0.9-0.1-1.3-0.3c0.7,1.1,1.9,1.8,3.2,1.8h0.8c2.1,0,3.8-1.8,3.8-4.1
		v-6.6L85.1,120.1L85.1,120.1z"/>
	<path class="st4" d="M82.2,108.7h0.8c2.4,0,4.4,2.1,4.4,4.7v13.3c0,2.6-2,4.7-4.4,4.7h-0.8c-2.4,0-4.4-2.1-4.4-4.7l0-13.3
		C77.8,110.9,79.8,108.7,82.2,108.7z M83.1,130.2c1.8,0,3.2-1.6,3.2-3.5l0-13.3c0-1.9-1.4-3.5-3.2-3.5h-0.8c-1.8,0-3.2,1.6-3.2,3.5
		l0,13.3c0,1.9,1.4,3.5,3.2,3.5H83.1z"/>
	<path class="st4" d="M78.8,119.5l8.2,0c0.3,0,0.6,0.3,0.6,0.6c0,0.3-0.3,0.6-0.6,0.6l-8.2,0c-0.3,0-0.6-0.3-0.6-0.6
		C78.1,119.8,78.4,119.5,78.8,119.5z"/>
</g>
<g>
	<path class="st0" d="M37.9,113.5c0-2.3-1.7-4.1-3.8-4.1h-0.8c-2.1,0-3.8,1.8-3.8,4.1l0,6.6l8.5,0V113.5z"/>
	<path class="st1" d="M33.2,130.9h0.8c2.1,0,3.8-1.8,3.8-4.1v-6.6l-8.5,0v6.6C29.4,129,31.1,130.9,33.2,130.9z"/>
	<path class="st2" d="M36.4,120.1l1.5,0v-6.6c0-2.3-1.7-4.1-3.8-4.1h-0.8c-1.3,0-2.5,0.7-3.2,1.8c0.4-0.2,0.8-0.3,1.3-0.3
		C34.1,110.9,36.4,115,36.4,120.1z"/>
	<path class="st3" d="M36.4,120.1c0,5.1-2.3,9.2-5.1,9.2c-0.4,0-0.9-0.1-1.3-0.3c0.7,1.1,1.9,1.8,3.2,1.8h0.8c2.1,0,3.8-1.8,3.8-4.1
		v-6.6L36.4,120.1L36.4,120.1z"/>
	<path class="st4" d="M33.6,108.7h0.8c2.4,0,4.4,2.1,4.4,4.7v13.3c0,2.6-2,4.7-4.4,4.7h-0.8c-2.4,0-4.4-2.1-4.4-4.7l0-13.3
		C29.1,110.9,31.1,108.7,33.6,108.7z M34.4,130.2c1.8,0,3.2-1.6,3.2-3.5l0-13.3c0-1.9-1.4-3.5-3.2-3.5h-0.8c-1.8,0-3.2,1.6-3.2,3.5
		l0,13.3c0,1.9,1.4,3.5,3.2,3.5H34.4z"/>
	<path class="st4" d="M30.1,119.5l8.2,0c0.3,0,0.6,0.3,0.6,0.6c0,0.3-0.3,0.6-0.6,0.6l-8.2,0c-0.3,0-0.6-0.3-0.6-0.6
		C29.4,119.8,29.7,119.5,30.1,119.5z"/>
</g>
<g>
	<path class="st0" d="M135.3,113.5c0-2.3-1.7-4.1-3.8-4.1h-0.8c-2.1,0-3.8,1.8-3.8,4.1l0,6.6l8.5,0V113.5z"/>
	<path class="st1" d="M130.6,130.9h0.8c2.1,0,3.8-1.8,3.8-4.1v-6.6l-8.5,0v6.6C126.8,129,128.5,130.9,130.6,130.9z"/>
	<path class="st2" d="M133.8,120.1l1.5,0v-6.6c0-2.3-1.7-4.1-3.8-4.1h-0.8c-1.3,0-2.5,0.7-3.2,1.8c0.4-0.2,0.8-0.3,1.3-0.3
		C131.5,110.9,133.8,115,133.8,120.1z"/>
	<path class="st3" d="M133.8,120.1c0,5.1-2.3,9.2-5.1,9.2c-0.4,0-0.9-0.1-1.3-0.3c0.7,1.1,1.9,1.8,3.2,1.8h0.8
		c2.1,0,3.8-1.8,3.8-4.1v-6.6L133.8,120.1L133.8,120.1z"/>
	<path class="st4" d="M130.9,108.7h0.8c2.4,0,4.4,2.1,4.4,4.7v13.3c0,2.6-2,4.7-4.4,4.7h-0.8c-2.4,0-4.4-2.1-4.4-4.7l0-13.3
		C126.5,110.9,128.5,108.7,130.9,108.7z M131.8,130.2c1.8,0,3.2-1.6,3.2-3.5l0-13.3c0-1.9-1.4-3.5-3.2-3.5h-0.8
		c-1.8,0-3.2,1.6-3.2,3.5l0,13.3c0,1.9,1.4,3.5,3.2,3.5H131.8z"/>
	<path class="st4" d="M127.4,119.5l8.2,0c0.3,0,0.6,0.3,0.6,0.6c0,0.3-0.3,0.6-0.6,0.6l-8.2,0c-0.3,0-0.6-0.3-0.6-0.6
		C126.8,119.8,127.1,119.5,127.4,119.5z"/>
</g>
<g>
	<path class="st0" d="M62.2,113.5c0-2.3-1.7-4.1-3.8-4.1h-0.8c-2.1,0-3.8,1.8-3.8,4.1l0,6.6l8.5,0V113.5z"/>
	<path class="st1" d="M57.6,130.9h0.8c2.1,0,3.8-1.8,3.8-4.1v-6.6l-8.5,0v6.6C53.7,129,55.5,130.9,57.6,130.9z"/>
	<path class="st2" d="M60.7,120.1l1.5,0v-6.6c0-2.3-1.7-4.1-3.8-4.1h-0.8c-1.3,0-2.5,0.7-3.2,1.8c0.4-0.2,0.8-0.3,1.3-0.3
		C58.5,110.9,60.7,115,60.7,120.1z"/>
	<path class="st3" d="M60.7,120.1c0,5.1-2.3,9.2-5.1,9.2c-0.4,0-0.9-0.1-1.3-0.3c0.7,1.1,1.9,1.8,3.2,1.8h0.8c2.1,0,3.8-1.8,3.8-4.1
		v-6.6L60.7,120.1L60.7,120.1z"/>
	<path class="st4" d="M57.9,108.7h0.8c2.4,0,4.4,2.1,4.4,4.7v13.3c0,2.6-2,4.7-4.4,4.7h-0.8c-2.4,0-4.4-2.1-4.4-4.7l0-13.3
		C53.5,110.9,55.5,108.7,57.9,108.7z M58.8,130.2c1.8,0,3.2-1.6,3.2-3.5l0-13.3c0-1.9-1.4-3.5-3.2-3.5h-0.8c-1.8,0-3.2,1.6-3.2,3.5
		l0,13.3c0,1.9,1.4,3.5,3.2,3.5H58.8z"/>
	<path class="st4" d="M54.4,119.5l8.2,0c0.3,0,0.6,0.3,0.6,0.6c0,0.3-0.3,0.6-0.6,0.6l-8.2,0c-0.3,0-0.6-0.3-0.6-0.6
		C53.8,119.8,54.1,119.5,54.4,119.5z"/>
</g>
<g>
	<path class="st0" d="M110.9,113.5c0-2.3-1.7-4.1-3.8-4.1h-0.8c-2.1,0-3.8,1.8-3.8,4.1l0,6.6l8.5,0V113.5z"/>
	<path class="st1" d="M106.3,130.9h0.8c2.1,0,3.8-1.8,3.8-4.1v-6.6l-8.5,0v6.6C102.4,129,104.1,130.9,106.3,130.9z"/>
	<path class="st2" d="M109.4,120.1l1.5,0v-6.6c0-2.3-1.7-4.1-3.8-4.1h-0.8c-1.3,0-2.5,0.7-3.2,1.8c0.4-0.2,0.8-0.3,1.3-0.3
		C107.2,110.9,109.4,115,109.4,120.1z"/>
	<path class="st3" d="M109.4,120.1c0,5.1-2.3,9.2-5.1,9.2c-0.4,0-0.9-0.1-1.3-0.3c0.7,1.1,1.9,1.8,3.2,1.8h0.8
		c2.1,0,3.8-1.8,3.8-4.1v-6.6L109.4,120.1L109.4,120.1z"/>
	<path class="st4" d="M106.6,108.7h0.8c2.4,0,4.4,2.1,4.4,4.7v13.3c0,2.6-2,4.7-4.4,4.7h-0.8c-2.4,0-4.4-2.1-4.4-4.7l0-13.3
		C102.2,110.9,104.1,108.7,106.6,108.7z M107.4,130.2c1.8,0,3.2-1.6,3.2-3.5l0-13.3c0-1.9-1.4-3.5-3.2-3.5h-0.8
		c-1.8,0-3.2,1.6-3.2,3.5l0,13.3c0,1.9,1.4,3.5,3.2,3.5H107.4z"/>
	<path class="st4" d="M103.1,119.5l8.2,0c0.3,0,0.6,0.3,0.6,0.6c0,0.3-0.3,0.6-0.6,0.6l-8.2,0c-0.3,0-0.6-0.3-0.6-0.6
		C102.5,119.8,102.8,119.5,103.1,119.5z"/>
</g>
<g>
	<path class="st0" d="M13.5,113.5c0-2.3-1.7-4.1-3.8-4.1H8.9c-2.1,0-3.8,1.8-3.8,4.1l0,6.6l8.5,0V113.5z"/>
	<path class="st1" d="M8.9,130.9h0.8c2.1,0,3.8-1.8,3.8-4.1v-6.6l-8.5,0v6.6C5.1,129,6.8,130.9,8.9,130.9z"/>
	<path class="st2" d="M12.1,120.1l1.5,0v-6.6c0-2.3-1.7-4.1-3.8-4.1H8.9c-1.3,0-2.5,0.7-3.2,1.8c0.4-0.2,0.8-0.3,1.3-0.3
		C9.8,110.9,12.1,115,12.1,120.1z"/>
	<path class="st3" d="M12.1,120.1c0,5.1-2.3,9.2-5.1,9.2c-0.4,0-0.9-0.1-1.3-0.3c0.7,1.1,1.9,1.8,3.2,1.8h0.8c2.1,0,3.8-1.8,3.8-4.1
		v-6.6L12.1,120.1L12.1,120.1z"/>
	<path class="st4" d="M9.2,108.7h0.8c2.4,0,4.4,2.1,4.4,4.7v13.3c0,2.6-2,4.7-4.4,4.7H9.2c-2.4,0-4.4-2.1-4.4-4.7l0-13.3
		C4.8,110.9,6.8,108.7,9.2,108.7z M10.1,130.2c1.8,0,3.2-1.6,3.2-3.5l0-13.3c0-1.9-1.4-3.5-3.2-3.5H9.2c-1.8,0-3.2,1.6-3.2,3.5
		l0,13.3c0,1.9,1.4,3.5,3.2,3.5H10.1z"/>
	<path class="st4" d="M5.7,119.5l8.2,0c0.3,0,0.6,0.3,0.6,0.6c0,0.3-0.3,0.6-0.6,0.6l-8.2,0c-0.3,0-0.6-0.3-0.6-0.6
		C5.1,119.8,5.4,119.5,5.7,119.5z"/>
</g>
</svg>
