<?xml version="1.0" encoding="utf-8"?>
<!-- Generator: Adobe Illustrator 24.1.2, SVG Export Plug-In . SVG Version: 6.00 Build 0)  -->
<svg version="1.1" id="Layer_1" xmlns="http://www.w3.org/2000/svg" xmlns:xlink="http://www.w3.org/1999/xlink" x="0px" y="0px"
	 viewBox="0 0 497.5 116" style="enable-background:new 0 0 497.5 116;" xml:space="preserve">
<style type="text/css">
	.st0{fill:#FFFFFF;}
	.st1{fill:none;stroke:#FFFFFF;stroke-miterlimit:10;}
</style>
<g>
	<path class="st0" d="M55,31.3c0,0.3-0.1,0.7-0.3,0.9c-0.2,0.3-0.5,0.4-0.9,0.4c-0.3,0-0.6-0.1-0.9-0.3c-0.3-0.2-0.4-0.5-0.4-0.9
		c0-0.1-0.1-0.5-0.2-1.3c-0.1-0.9-0.3-1.9-0.7-2.8c-0.4-1.2-1-2.4-1.7-3.5c-0.8-1.3-1.9-2.5-3.1-3.5c-1.5-1.2-3.2-2.1-5-2.6
		c-2.4-0.8-4.9-1.1-7.3-1.1c-2.6,0-5.2,0.4-7.7,1.1c-2.6,0.8-5.1,1.9-7.4,3.2c-2.4,1.4-4.6,3.1-6.6,5s-3.8,4-5.4,6.3
		c-1.5,2.3-2.7,4.8-3.6,7.4c-0.9,2.6-1.3,5.3-1.3,8.1c-0.1,2.2,0.3,4.4,1,6.4c1.2,3.3,3.8,5.8,7.2,6.8c1.7,0.5,3.5,0.8,5.3,0.8
		c3.2,0,6.3-0.6,9.2-1.7c2.9-1.1,5.6-2.7,8-4.6c2.5-2,4.7-4.3,6.7-6.8c2-2.6,3.8-5.3,5.4-8.2c0.1-2.1,0.4-4.2,0.9-6.2
		c0.5-1.4,1.1-2.1,2-2.1c0.5,0,1,0.2,1.3,0.6c0.4,0.5,0.5,1,0.5,1.6c0,1-0.2,1.9-0.6,2.8c-0.5,1.3-1,2.7-1.7,3.9
		c-0.1,1-0.1,2.2-0.1,3.3c0,1.8,0.1,3.7,0.2,5.8s0.4,4.3,0.7,6.6c0.9-0.5,1.7-0.8,2.2-1s0.9-0.4,1.2-0.4c0.1-0.1,0.3-0.1,0.5-0.1
		c0.1,0,0.1,0,0.2,0c0.3,0,0.6,0.1,0.9,0.3c0.3,0.2,0.4,0.6,0.4,0.9c0,0.3-0.1,0.5-0.2,0.7c-0.2,0.2-0.4,0.4-0.6,0.4
		c-0.1,0-0.4,0.2-1.2,0.4s-1.7,0.7-2.9,1.3c0.1,1.2,0.2,2.4,0.3,3.6s0.1,2.4,0.1,3.7c0,2.8-0.2,5.6-0.7,8.4c-0.4,2.4-1,4.8-2.1,7
		c-0.9,1.9-2.2,3.5-3.8,4.8c-1.7,1.2-3.8,1.8-5.9,1.8c-1.1,0-2.2-0.2-3.2-0.6c-0.9-0.4-1.8-0.9-2.5-1.7c-0.7-0.7-1.3-1.6-1.7-2.5
		c-0.4-1-0.6-2.1-0.6-3.2c0-1.7,0.3-3.3,0.8-4.9c0.6-1.6,1.3-3.2,2.3-4.7c0.9-1.5,2-2.9,3.2-4.3c1.2-1.3,2.5-2.5,3.8-3.7
		c1.2-1.1,2.5-2.1,3.8-3c1.1-0.8,2.2-1.5,3.4-2.1c-0.3-2.2-0.5-4.4-0.7-6.5s-0.3-4.2-0.3-6.2c-1.8,2.9-4,5.6-6.4,8.1
		c-2.2,2.2-4.6,4.2-7.2,5.9c-2.4,1.5-5,2.8-7.8,3.6c-2.6,0.8-5.3,1.2-8,1.2c-2.2,0-4.4-0.3-6.5-1.1c-1.9-0.7-3.6-1.8-5-3.2
		c-1.4-1.5-2.5-3.2-3.2-5.2c-0.8-2.3-1.2-4.7-1.1-7.1c0-2.8,0.4-5.7,1.3-8.4C2.2,36.1,3.4,33.5,5,31s3.5-4.8,5.6-6.9
		s4.5-3.9,7.1-5.5c2.5-1.5,5.3-2.8,8.1-3.6c2.8-0.5,5.7-0.9,8.7-0.9c2.5,0,5,0.3,7.4,1c1.9,0.6,3.7,1.4,5.4,2.5
		c1.4,0.9,2.6,2,3.6,3.3c0.8,1.1,1.6,2.2,2.2,3.4c0.4,0.8,0.8,1.7,1.1,2.6c0.2,0.7,0.4,1.5,0.6,2.2c0.1,0.6,0.2,1.2,0.2,1.6
		S55,31.2,55,31.3z M46.5,60.8c-1.2,0.7-2.3,1.4-3.4,2.2c-1.2,0.9-2.4,1.8-3.4,2.8c-1.1,1-2.2,2.1-3.2,3.3c-1,1.1-1.9,2.4-2.7,3.7
		c-0.7,1.2-1.3,2.5-1.8,3.9c-0.4,1.3-0.6,2.6-0.7,4c0,0.8,0.1,1.6,0.4,2.3c0.2,0.6,0.6,1.2,1.1,1.7s1.1,0.9,1.7,1.1
		c0.7,0.3,1.4,0.4,2.2,0.4c3.1,0,5.6-1.7,7.3-5s2.6-8.1,2.7-14.4c0-1,0-1.9-0.1-2.9S46.6,61.8,46.5,60.8z"/>
	<path class="st0" d="M61,49.5c-0.1,0.6-0.2,1.2-0.3,1.7s-0.3,1-0.4,1.4s-0.2,0.7-0.3,1c0,0.1-0.1,0.3-0.2,0.4
		c-0.2,0.5-0.6,0.8-1.2,0.8c-0.3,0-0.6-0.1-0.9-0.3c-0.3-0.2-0.4-0.5-0.4-0.9c0-0.1,0-0.2,0.1-0.3s0.1-0.3,0.2-0.4
		c0.1-0.3,0.2-0.7,0.3-1c0.1-0.5,0.3-1.2,0.5-2.2h-1.2c-0.4,0-0.8-0.1-1.1-0.2c-0.3-0.1-0.6-0.3-0.8-0.6s-0.4-0.8-0.3-1.2
		c0-0.5,0.1-1,0.3-1.5c0.2-0.7,0.5-1.3,0.8-1.9c0.3-0.6,0.7-1.1,1.2-1.6c0.3-0.4,0.8-0.6,1.3-0.7c0.5,0,0.9,0.2,1.2,0.6
		c0.3,0.4,0.6,0.9,0.7,1.4c0.2,0.6,0.3,1.1,0.4,1.7c0.1,0.5,0.1,1,0.1,1.6c0.4,0,0.8,0,1.1,0h1c1-0.1,2.1,0.2,2.9,0.8
		c0.7,0.7,1.1,1.7,1,2.7c0,0.5,0,1.1-0.1,1.6c-0.1,0.6-0.1,1.1-0.2,1.7c-0.1,0.6-0.2,1.2-0.2,1.8c-0.1,0.6-0.1,1.1-0.1,1.7
		c0,0.7,0.1,1.4,0.3,2c0.2,0.5,0.5,0.9,0.8,1.2s0.7,0.5,1.1,0.6c0.3,0.1,0.7,0.2,1,0.2c1,0,1.9-0.3,2.7-0.9c0.9-0.7,1.6-1.4,2.3-2.2
		c0.7-0.9,1.3-1.8,1.9-2.8s1-1.8,1.4-2.6c0.1-0.2,0.3-0.4,0.5-0.5s0.4-0.2,0.6-0.2c0.4,0,0.7,0.1,0.9,0.4c0.2,0.2,0.3,0.5,0.3,0.8
		c0,0.2,0,0.4-0.1,0.6c-0.5,0.9-1.1,1.9-1.8,3.1c-0.7,1.1-1.4,2.2-2.3,3.2c-0.8,1-1.8,1.8-2.9,2.5s-2.3,1-3.5,1
		c-0.8,0-1.5-0.1-2.3-0.4c-0.7-0.3-1.3-0.7-1.8-1.3s-1-1.3-1.2-2.1c-0.3-0.9-0.5-1.9-0.4-2.8c0-1.1,0.1-2.2,0.3-3.3
		c0.2-1,0.3-2.1,0.3-3.1c0-0.3-0.1-0.7-0.3-0.9c-0.4-0.3-0.8-0.4-1.2-0.3h-1L61,49.5z M58.8,47.1c0-0.2,0-0.4,0-0.6s0-0.5-0.1-0.7
		c0-0.2-0.1-0.4-0.1-0.6s-0.1-0.3-0.2-0.3s-0.2,0.1-0.2,0.2c-0.1,0.2-0.2,0.4-0.3,0.6s-0.2,0.5-0.3,0.7c-0.1,0.3-0.2,0.5-0.2,0.7
		C57.4,47.1,58.8,47.1,58.8,47.1z"/>
	<path class="st0" d="M103.8,53.9c-0.1,0.2-0.3,0.5-0.6,1.1s-0.6,1.2-1.1,1.9c-0.5,0.8-1,1.6-1.5,2.3c-0.6,0.8-1.2,1.5-1.9,2.2
		c-0.7,0.7-1.5,1.2-2.3,1.7c-0.8,0.4-1.7,0.6-2.6,0.6c-1.2,0-2.4-0.4-3.2-1.2c-0.9-0.8-1.6-1.9-1.9-3.1c-0.7,1.2-1.6,2.2-2.7,3
		c-0.9,0.7-2,1.1-3.1,1.1c-0.8,0-1.5-0.1-2.2-0.4c-0.6-0.3-1.2-0.7-1.7-1.3s-0.8-1.2-1.1-1.9c-0.3-0.8-0.4-1.6-0.4-2.4
		c0-1.6,0.3-3.1,0.9-4.6c0.5-1.2,1.3-2.4,2.2-3.3c0.9-0.9,1.9-1.5,3-2c1-0.4,2.1-0.6,3.2-0.7c0.6,0,1.3,0.1,1.9,0.3
		c0.5,0.2,1,0.4,1.5,0.6c0.3,0.2,0.6,0.4,0.9,0.6l0.4,0.3c0.2,0.2,0.4,0.6,0.4,0.9c0,0.3-0.1,0.6-0.4,0.9c-0.2,0.2-0.5,0.4-0.9,0.4
		c-0.3,0-0.7-0.1-0.9-0.4l-0.3-0.2c-0.2-0.1-0.4-0.3-0.6-0.4c-0.3-0.1-0.7-0.3-1-0.3c-0.4-0.1-0.8-0.2-1.2-0.2
		c-0.8,0-1.5,0.2-2.2,0.5c-0.8,0.3-1.5,0.8-2.1,1.4c-0.7,0.7-1.2,1.5-1.6,2.5c-0.5,1.1-0.7,2.3-0.7,3.5c0,0.4,0,0.9,0.1,1.3
		c0.1,0.4,0.2,0.8,0.5,1.2c0.2,0.4,0.5,0.7,0.9,0.9s0.9,0.3,1.4,0.3s1-0.2,1.4-0.4c0.6-0.3,1.1-0.7,1.5-1.2c0.5-0.6,1-1.3,1.3-2.1
		c0.4-1,0.7-2,0.8-3c0-0.3,0.2-0.6,0.4-0.8c0.2-0.2,0.6-0.3,0.9-0.3s0.6,0.1,0.8,0.4c0.2,0.2,0.4,0.5,0.4,0.8c0,0.4,0.1,1,0.1,1.8
		c0.1,0.8,0.2,1.5,0.4,2.3c0.2,0.7,0.5,1.4,1,1.9c0.5,0.6,1.2,0.9,1.9,0.8c0.6,0,1.1-0.2,1.6-0.4c0.6-0.3,1.1-0.7,1.5-1.1
		c0.5-0.5,1-1,1.4-1.6s0.9-1.2,1.2-1.8s0.7-1.2,1-1.8s0.5-1.1,0.7-1.5c0.1-0.2,0.3-0.4,0.5-0.6c0.2-0.1,0.4-0.2,0.7-0.2
		c0.4,0,0.7,0.1,0.9,0.4c0.2,0.2,0.3,0.6,0.4,0.9C103.9,53.6,103.9,53.8,103.8,53.9z"/>
	<path class="st0" d="M108.9,60.2c0.4-0.7,0.8-1.5,1.2-2.4s1-1.8,1.5-2.7s1.1-1.8,1.7-2.7s1.2-1.7,1.8-2.5c0.5-0.7,1.2-1.2,1.9-1.7
		c0.6-0.3,1.2-0.5,1.8-0.5c1-0.1,2,0.4,2.6,1.3c0.6,0.9,0.9,2,0.8,3.1c0,0.3,0,0.6,0,1s-0.1,0.8-0.1,1.3s-0.1,0.9-0.1,1.4
		s0,0.9,0,1.3c0,0.5,0,1,0.1,1.5c0,0.4,0.2,0.9,0.3,1.3c0.1,0.3,0.4,0.6,0.7,0.9c0.3,0.2,0.7,0.3,1.1,0.3c0.9,0,1.8-0.4,2.5-1
		c0.8-0.7,1.6-1.5,2.2-2.3c0.6-0.9,1.2-1.8,1.7-2.7s0.9-1.7,1.1-2.3c0.1-0.2,0.3-0.4,0.5-0.6c0.2-0.1,0.4-0.2,0.7-0.2
		s0.7,0.1,0.9,0.4c0.2,0.2,0.3,0.6,0.4,0.9c0,0.2,0,0.3-0.1,0.5s-0.3,0.5-0.5,1.1s-0.6,1.2-1,1.9s-0.9,1.5-1.5,2.3s-1.2,1.5-1.9,2.2
		s-1.5,1.2-2.3,1.7c-0.8,0.4-1.7,0.7-2.5,0.7c-0.9,0.1-1.7-0.1-2.5-0.6c-0.6-0.4-1.1-0.9-1.5-1.5c-0.4-0.7-0.6-1.4-0.7-2.1
		c-0.1-0.8-0.2-1.5-0.2-2.3c0-0.3,0-0.7,0-1.1s0.1-0.9,0.1-1.3s0.1-0.9,0.1-1.4s0.1-0.9,0.1-1.3c0.1-0.5-0.1-1-0.3-1.5
		c-0.1-0.2-0.4-0.3-0.6-0.4c-0.5,0.1-0.9,0.3-1.2,0.6c-0.5,0.5-1,1-1.4,1.6c-0.5,0.7-1,1.4-1.5,2.2s-1,1.7-1.5,2.5s-0.9,1.6-1.3,2.3
		s-0.7,1.4-0.9,1.8c-0.3,0.7-0.7,1.3-1.2,1.9c-0.4,0.3-0.9,0.5-1.4,0.5c-0.6,0-1.1-0.2-1.6-0.6c-0.4-0.4-0.6-1-0.6-1.6
		c0-0.2,0-0.5,0.1-0.9s0.1-1,0.2-1.6s0.1-1.3,0.2-2s0.1-1.5,0.2-2.2s0.1-1.4,0.2-2s0.1-1.1,0.1-1.6s0-1.1-0.1-1.6s-0.1-0.8-0.3-0.9
		c-0.2,0.1-0.6,0.5-1.1,1.2c-0.8,1.3-1.4,2.6-2,4c-0.1,0.2-0.3,0.4-0.5,0.6c-0.2,0.1-0.4,0.2-0.7,0.2c-0.3,0-0.7-0.1-0.9-0.4
		c-0.2-0.2-0.3-0.6-0.3-0.9c0-0.2,0-0.3,0.1-0.5c0.7-1.9,1.7-3.6,2.8-5.2c0.6-0.9,1.5-1.6,2.6-1.7c0.5,0,0.9,0.1,1.3,0.4
		s0.6,0.6,0.8,1c0.2,0.4,0.4,0.9,0.5,1.4s0.2,1,0.1,1.6c0,0.4,0,1-0.1,1.9c-0.1,0.8-0.1,1.8-0.2,2.7s-0.2,1.9-0.2,2.9
		C109,58.7,109,59.5,108.9,60.2z"/>
	<path class="st0" d="M144.7,53.5c1.1,5.1,2.7,7.7,4.7,7.7c0.8,0,1.7-0.3,2.3-0.9c0.8-0.6,1.4-1.4,2-2.2c0.6-0.9,1.2-1.8,1.7-2.7
		c0.5-1,0.9-1.8,1.2-2.5c0.2-0.5,0.7-0.8,1.2-0.8c0.3,0,0.7,0.1,0.9,0.4c0.2,0.2,0.4,0.5,0.4,0.9c0,0.2,0,0.3-0.1,0.5
		c-0.2,0.4-0.4,0.9-0.7,1.5s-0.7,1.3-1.1,2s-0.9,1.5-1.4,2.2s-1.1,1.4-1.8,2c-0.6,0.6-1.3,1.1-2.1,1.6c-0.7,0.4-1.5,0.6-2.3,0.6
		c-1.4,0-2.7-0.6-3.7-1.6c-1.3-1.5-2.2-3.2-2.8-5.1c-0.8,1.8-1.9,3.5-3.2,4.9c-0.9,1-2.2,1.5-3.5,1.5c-0.7,0-1.3-0.1-1.9-0.3
		c-0.6-0.2-1.2-0.5-1.6-1c-0.5-0.5-0.9-1.2-1.1-1.9c-0.3-0.9-0.5-1.8-0.4-2.8c0-1.4,0.3-2.9,0.8-4.2c0.5-1.2,1.2-2.3,2.1-3.3
		c0.8-0.9,1.7-1.6,2.8-2.1c0.9-0.5,2-0.8,3.1-0.8c0.3,0,0.6,0.1,0.9,0.3c0.2,0.2,0.4,0.5,0.4,0.9c0,0.3-0.1,0.6-0.3,0.8
		s-0.5,0.4-0.8,0.4c-0.7,0.1-1.5,0.3-2.1,0.6c-0.8,0.3-1.5,0.8-2.1,1.4c-0.7,0.7-1.2,1.5-1.6,2.4c-0.4,1.1-0.6,2.3-0.6,3.5
		c-0.1,0.9,0.2,1.8,0.7,2.6c0.5,0.6,1.2,1,2,0.9c0.4,0,0.8-0.1,1.1-0.3c0.5-0.3,0.9-0.7,1.3-1.1c0.6-0.7,1.1-1.5,1.5-2.4
		c0.7-1.3,1.3-2.6,1.8-4c-0.4-1.9-0.7-4.2-1-6.7c-0.3-2.8-0.5-5.7-0.5-8.5c0-1.4,0-2.8,0.1-4.3s0.2-3,0.4-4.4s0.5-2.7,0.8-4.1
		c0.3-1.2,0.7-2.3,1.2-3.4c0.4-0.9,1-1.7,1.7-2.3c0.6-0.5,1.4-0.8,2.2-0.8c0.7,0,1.3,0.2,1.9,0.6c0.5,0.4,1,1,1.2,1.7
		c0.4,0.8,0.6,1.7,0.7,2.5c0.2,1.1,0.2,2.2,0.2,3.3c0,2.6-0.2,5.2-0.7,7.7c-0.4,2.5-1,4.9-1.6,7.4c-0.6,2.3-1.4,4.5-2.1,6.5
		S145.3,52.1,144.7,53.5z M148.6,26.7c0-0.6,0-1.2-0.1-1.8c0-0.6-0.1-1.2-0.2-1.8c-0.1-0.5-0.3-1-0.5-1.4c-0.1-0.3-0.4-0.5-0.8-0.6
		c-0.6,0-1.1,0.5-1.6,1.5c-0.6,1.2-1,2.5-1.2,3.8c-0.4,1.8-0.7,3.6-0.9,5.4c-0.2,2-0.3,4-0.3,6.1c0,2,0.1,3.9,0.2,5.8
		s0.3,3.7,0.5,5.2c0.6-1.7,1.2-3.5,1.8-5.3s1.1-3.7,1.5-5.5s0.8-3.8,1-5.7C148.4,30.6,148.5,28.7,148.6,26.7z"/>
</g>
<g>
	<path class="st0" d="M124.5,89c-1,0.4-2,0.6-3,0.6c-1.2,0-2.4-0.2-3.4-0.7s-1.9-1.1-2.6-1.9s-1.3-1.8-1.6-2.8
		c-0.4-1-0.5-2.1-0.6-3.2c0-1.2,0.2-2.4,0.5-3.6c0.3-1.1,0.8-2.1,1.5-3c0.7-0.8,1.6-1.5,2.6-2c1.1-0.5,2.3-0.8,3.6-0.8
		c0.9,0,1.8,0.1,2.6,0.3c0.8,0.2,1.5,0.5,2.2,1s1.2,1.1,1.6,1.8c0.5,0.8,0.8,1.7,0.9,2.6h-2.3c-0.1-0.6-0.3-1.2-0.6-1.7
		c-0.3-0.4-0.7-0.8-1.2-1.1c-0.5-0.3-1-0.5-1.5-0.7c-0.6-0.2-1.2-0.2-1.8-0.2c-1.8-0.1-3.5,0.8-4.5,2.3c-0.5,0.7-0.8,1.5-1,2.3
		c-0.2,0.9-0.3,1.8-0.3,2.7c0,0.9,0.1,1.7,0.4,2.6c0.2,0.8,0.6,1.5,1.1,2.2c0.5,0.6,1.1,1.1,1.8,1.5c0.8,0.4,1.7,0.6,2.5,0.6
		s1.6-0.1,2.4-0.4c0.7-0.3,1.3-0.7,1.7-1.2c0.5-0.5,0.8-1.1,1.1-1.8c0.2-0.7,0.3-1.4,0.3-2.2h-5.5v-1.9h7.5v9h-1.4l-0.6-2.1
		C126.4,87.9,125.5,88.6,124.5,89z"/>
	<path class="st0" d="M140.8,88.4c-1,0.7-2.3,1.1-3.5,1.1c-0.9,0-1.8-0.1-2.6-0.5c-0.7-0.3-1.3-0.8-1.8-1.3
		c-0.5-0.6-0.9-1.3-1.1-2.1c-0.3-0.9-0.4-1.7-0.4-2.6s0.1-1.8,0.4-2.6c0.3-0.7,0.7-1.4,1.2-2s1.1-1,1.9-1.3c0.7-0.3,1.5-0.5,2.3-0.5
		c1,0,1.9,0.2,2.8,0.7c0.7,0.4,1.3,1,1.8,1.7c0.4,0.7,0.8,1.5,0.9,2.3c0.2,0.8,0.2,1.6,0.2,2.4h-9.3c0,0.5,0,1,0.2,1.6
		c0.1,0.5,0.4,0.9,0.7,1.3s0.8,0.7,1.2,0.9c0.6,0.2,1.1,0.4,1.8,0.3c0.8,0,1.5-0.2,2.1-0.6c0.6-0.5,1-1.1,1.1-1.8h2
		C142.5,86.5,141.8,87.6,140.8,88.4z M140.3,80.4c-0.2-0.4-0.4-0.8-0.7-1.1c-0.3-0.3-0.7-0.6-1.1-0.7c-0.9-0.4-1.9-0.4-2.8,0
		c-0.4,0.2-0.8,0.4-1.1,0.8c-0.3,0.3-0.5,0.7-0.7,1.1s-0.3,0.9-0.3,1.4h7.1C140.7,81.3,140.6,80.8,140.3,80.4L140.3,80.4z"/>
	<path class="st0" d="M146.9,76.8v2h0.1c0.8-1.5,2.3-2.3,4-2.3c0.7,0,1.4,0.1,2,0.3c0.5,0.2,1,0.5,1.3,0.9s0.6,0.9,0.7,1.4
		c0.1,0.6,0.2,1.2,0.2,1.8V89h-2v-8.4c0-0.7-0.2-1.3-0.7-1.8s-1.2-0.7-1.9-0.7c-0.6,0-1.1,0.1-1.6,0.3c-0.4,0.2-0.8,0.5-1.1,0.8
		c-0.3,0.4-0.5,0.8-0.7,1.2c-0.2,0.5-0.2,1-0.2,1.6v7h-2V76.8H146.9z"/>
	<path class="st0" d="M167.1,88.4c-1,0.7-2.3,1.1-3.5,1.1c-0.9,0-1.8-0.1-2.6-0.5c-0.7-0.3-1.3-0.8-1.8-1.3
		c-0.5-0.6-0.9-1.3-1.1-2.1c-0.3-0.9-0.4-1.7-0.4-2.6s0.1-1.8,0.4-2.6c0.3-0.7,0.7-1.4,1.2-2s1.1-1,1.8-1.3s1.5-0.5,2.3-0.5
		c1,0,1.9,0.2,2.8,0.7c0.7,0.4,1.3,1,1.8,1.7c0.4,0.7,0.8,1.5,0.9,2.3c0.2,0.8,0.2,1.6,0.2,2.4h-9.3c0,0.5,0.1,1,0.2,1.6
		c0.1,0.5,0.4,0.9,0.7,1.3s0.8,0.7,1.2,0.9c0.6,0.2,1.2,0.4,1.8,0.3c0.8,0,1.5-0.2,2.1-0.6s1-1.1,1.1-1.8h2
		C168.7,86.5,168.1,87.6,167.1,88.4z M166.6,80.4c-0.2-0.4-0.4-0.8-0.8-1.1c-0.3-0.3-0.7-0.6-1.1-0.7c-0.9-0.4-1.9-0.4-2.8,0
		c-0.4,0.2-0.8,0.4-1.1,0.8c-0.3,0.3-0.5,0.7-0.7,1.1s-0.3,0.9-0.3,1.4h7.1C166.9,81.3,166.8,80.8,166.6,80.4L166.6,80.4z"/>
	<path class="st0" d="M186.3,72c1.4-0.1,2.7,0.3,3.8,1.2c0.9,0.8,1.4,2,1.4,3.3c0,1-0.2,1.9-0.7,2.7c-0.5,0.8-1.3,1.4-2.3,1.6l0,0
		c0.4,0.1,0.9,0.2,1.2,0.5c0.3,0.2,0.6,0.5,0.7,0.8c0.2,0.3,0.3,0.6,0.4,1c0.1,0.4,0.2,0.8,0.2,1.2c0,0.4,0.1,0.8,0.1,1.3
		c0,0.4,0.1,0.9,0.1,1.3c0.1,0.4,0.1,0.8,0.3,1.2c0.1,0.4,0.3,0.7,0.5,1h-2.5c-0.2-0.2-0.3-0.5-0.3-0.7c-0.1-0.3-0.1-0.7-0.1-1
		c0-0.4,0-0.8,0-1.2c0-0.4-0.1-0.9-0.1-1.3c-0.1-0.4-0.1-0.8-0.2-1.2c-0.1-0.4-0.2-0.7-0.4-1s-0.5-0.5-0.8-0.7
		c-0.4-0.2-0.9-0.3-1.3-0.2h-5.6v7.4h-2.3V72H186.3z M186.8,79.8c0.4-0.1,0.9-0.2,1.3-0.5c0.4-0.2,0.7-0.6,0.9-0.9
		c0.2-0.5,0.3-1,0.3-1.5c0-0.8-0.2-1.5-0.7-2.1c-0.6-0.6-1.5-0.9-2.3-0.8h-5.7v6h4.8C185.8,79.9,186.3,79.9,186.8,79.8z"/>
	<path class="st0" d="M203.1,88.4c-1,0.7-2.3,1.1-3.5,1.1c-0.9,0-1.8-0.1-2.6-0.5c-0.7-0.3-1.3-0.8-1.8-1.3
		c-0.5-0.6-0.9-1.3-1.1-2.1c-0.3-0.9-0.4-1.7-0.4-2.6s0.1-1.8,0.4-2.6c0.3-0.7,0.7-1.4,1.2-2s1.1-1,1.8-1.3s1.5-0.5,2.3-0.5
		c1,0,1.9,0.2,2.8,0.7c0.7,0.4,1.3,1,1.8,1.7c0.4,0.7,0.8,1.5,0.9,2.3c0.2,0.8,0.2,1.6,0.2,2.4h-9.3c0,0.5,0.1,1,0.2,1.6
		c0.1,0.5,0.4,0.9,0.7,1.3s0.8,0.7,1.2,0.9c0.6,0.2,1.2,0.4,1.8,0.3c0.8,0,1.5-0.2,2.1-0.6s1-1.1,1.1-1.8h2
		C204.7,86.5,204.1,87.6,203.1,88.4z M202.6,80.4c-0.2-0.4-0.4-0.8-0.8-1.1c-0.3-0.3-0.7-0.6-1.1-0.7c-0.9-0.4-1.9-0.4-2.8,0
		c-0.4,0.2-0.8,0.4-1.1,0.8c-0.3,0.3-0.5,0.7-0.7,1.1s-0.3,0.9-0.3,1.4h7.1C202.9,81.3,202.8,80.8,202.6,80.4L202.6,80.4z"/>
	<path class="st0" d="M216.5,92.7c-1.2,1.1-2.8,1.7-4.4,1.5c-0.6,0-1.2-0.1-1.8-0.2s-1.1-0.3-1.6-0.6c-0.5-0.3-0.9-0.7-1.2-1.1
		c-0.3-0.5-0.5-1.1-0.5-1.7h2c0,0.3,0.1,0.7,0.4,0.9c0.2,0.3,0.5,0.5,0.8,0.6c0.3,0.2,0.7,0.3,1,0.3c0.3,0.1,0.7,0.1,1.1,0.1
		c0.6,0,1.2-0.1,1.7-0.3c0.5-0.2,0.8-0.6,1.1-1c0.4-0.4,0.6-0.9,0.8-1.4c0.1-0.6,0.2-1.3,0.2-1.9v-0.8l0,0c-0.3,0.7-0.9,1.3-1.6,1.7
		c-0.7,0.4-1.5,0.5-2.3,0.5s-1.7-0.2-2.4-0.5s-1.3-0.8-1.7-1.4c-0.5-0.6-0.8-1.3-1-2c-0.2-0.8-0.4-1.6-0.4-2.4s0.1-1.5,0.3-2.3
		s0.5-1.5,1-2.1c0.5-0.7,1.1-1.2,1.8-1.6c0.8-0.4,1.8-0.6,2.7-0.6c0.7,0,1.5,0.2,2.1,0.5c0.7,0.3,1.2,0.9,1.5,1.6l0,0v-1.8h1.9v11.4
		C218.2,89.8,217.6,91.4,216.5,92.7z M213.9,87.1c0.5-0.3,0.9-0.6,1.1-1.1c0.3-0.5,0.5-1,0.6-1.6s0.2-1.1,0.2-1.7
		c0-0.5-0.1-1.1-0.2-1.6c-0.1-0.5-0.3-1-0.6-1.4s-0.6-0.8-1.1-1c-0.5-0.3-1.1-0.4-1.6-0.4c-0.6,0-1.2,0.1-1.7,0.4
		c-0.5,0.2-0.8,0.6-1.1,1s-0.5,0.9-0.6,1.4c-0.1,0.6-0.2,1.1-0.2,1.7s0,1.1,0.1,1.7c0.1,0.5,0.3,1,0.6,1.5c0.3,0.4,0.6,0.8,1.1,1.1
		c0.5,0.3,1.1,0.4,1.7,0.4C212.8,87.5,213.4,87.4,213.9,87.1L213.9,87.1z"/>
	<path class="st0" d="M229.3,89.2v-2l0,0c-0.4,0.7-1,1.3-1.7,1.7c-0.7,0.4-1.5,0.6-2.4,0.5c-0.7,0-1.4-0.1-2-0.3
		c-0.5-0.2-1-0.5-1.3-0.9s-0.6-0.9-0.7-1.4c-0.1-0.6-0.2-1.2-0.2-1.8v-8.1h2v8.4c0,0.7,0.2,1.3,0.7,1.8s1.2,0.7,1.9,0.7
		c0.6,0,1.1-0.1,1.6-0.3c0.4-0.2,0.8-0.5,1.1-0.8c0.3-0.4,0.5-0.8,0.7-1.2c0.2-0.5,0.2-1,0.2-1.6v-7h2v12.4L229.3,89.2L229.3,89.2z"
		/>
	<path class="st0" d="M236.5,72v17.1h-2V72H236.5z"/>
	<path class="st0" d="M250.6,89.2c-0.5,0.2-1,0.3-1.5,0.3s-0.9-0.1-1.3-0.4c-0.4-0.4-0.5-0.9-0.5-1.4c-0.5,0.6-1.2,1.1-2,1.4
		c-1.3,0.5-2.7,0.6-4,0.2c-0.5-0.1-0.9-0.3-1.3-0.6c-0.4-0.3-0.7-0.6-0.9-1.1s-0.3-1-0.3-1.6s0.1-1.2,0.4-1.7
		c0.2-0.4,0.5-0.8,0.9-1.1c0.4-0.3,0.9-0.5,1.4-0.6s1-0.3,1.5-0.4s1.1-0.2,1.6-0.2c0.4,0,0.9-0.1,1.3-0.2c0.3-0.1,0.7-0.2,0.9-0.5
		c0.2-0.2,0.4-0.5,0.3-0.9c0-0.4-0.1-0.8-0.2-1.1c-0.2-0.3-0.4-0.5-0.6-0.6c-0.3-0.1-0.6-0.2-0.9-0.3c-0.3-0.1-0.7-0.1-1-0.1
		c-0.8,0-1.5,0.1-2.2,0.5c-0.6,0.4-1,1.1-0.9,1.9h-2c0-0.7,0.2-1.3,0.5-1.9c0.3-0.5,0.7-1,1.1-1.3c0.5-0.3,1.1-0.6,1.6-0.7
		c0.7-0.1,1.3-0.2,2-0.2c0.6,0,1.1,0,1.7,0.1c0.5,0.1,1,0.2,1.5,0.5c0.4,0.2,0.8,0.6,1.1,1c0.3,0.5,0.4,1.1,0.4,1.7v6.4
		c0,0.3,0,0.7,0.1,1c0.1,0.2,0.2,0.3,0.6,0.3c0.2,0,0.4,0,0.6-0.1L250.6,89.2z M247.3,82.8c-0.3,0.2-0.6,0.4-1,0.4
		c-0.4,0.1-0.9,0.2-1.3,0.2c-0.5,0.1-0.9,0.1-1.4,0.2c-0.4,0.1-0.8,0.2-1.2,0.3c-0.3,0.2-0.7,0.4-0.9,0.7c-0.2,0.4-0.4,0.8-0.3,1.2
		c0,0.3,0.1,0.6,0.2,0.8c0.1,0.2,0.3,0.4,0.5,0.6c0.2,0.1,0.5,0.2,0.8,0.3c0.3,0.1,0.6,0.1,0.9,0.1c0.6,0,1.2-0.1,1.7-0.3
		c0.4-0.2,0.8-0.4,1.2-0.7c0.3-0.3,0.5-0.6,0.7-0.9c0.1-0.3,0.2-0.6,0.2-0.9L247.3,82.8z"/>
	<path class="st0" d="M257.8,76.8v1.8h-2.5v7.7c0,0.2,0,0.4,0.1,0.6c0,0.1,0.1,0.3,0.2,0.3c0.1,0.1,0.3,0.1,0.5,0.2
		c0.3,0,0.5,0,0.8,0h0.9v1.8h-1.6c-0.5,0-0.9,0-1.4-0.1c-0.3-0.1-0.6-0.2-0.9-0.4c-0.2-0.2-0.4-0.5-0.5-0.8
		c-0.1-0.5-0.2-0.9-0.2-1.4v-7.9h-2.1v-1.8h2.1v-3.7h2v3.7L257.8,76.8z"/>
	<path class="st0" d="M259.8,80.4c0.2-0.8,0.6-1.5,1.1-2.1s1.2-1.1,1.9-1.4c1.7-0.7,3.5-0.7,5.2,0c0.7,0.3,1.4,0.8,1.9,1.4
		s0.9,1.3,1.1,2.1c0.3,0.8,0.4,1.7,0.4,2.6s-0.1,1.7-0.4,2.5c-0.2,0.8-0.6,1.5-1.1,2.1s-1.2,1.1-1.9,1.4c-1.7,0.7-3.5,0.7-5.2,0
		c-0.7-0.3-1.4-0.8-1.9-1.4s-0.9-1.3-1.1-2.1c-0.3-0.8-0.4-1.7-0.4-2.5C259.4,82.1,259.6,81.2,259.8,80.4z M261.9,85
		c0.2,0.5,0.5,1,0.8,1.5c0.3,0.4,0.8,0.7,1.2,0.9c1,0.4,2,0.4,3,0c0.5-0.2,0.9-0.5,1.2-0.9c0.4-0.4,0.7-0.9,0.8-1.5
		c0.2-0.6,0.3-1.3,0.3-2s-0.1-1.4-0.3-2c-0.2-0.5-0.5-1-0.8-1.5c-0.3-0.4-0.8-0.7-1.2-0.9c-1-0.4-2-0.4-3,0
		c-0.5,0.2-0.9,0.5-1.2,0.9c-0.4,0.4-0.7,0.9-0.8,1.5c-0.2,0.6-0.3,1.3-0.3,2S261.7,84.3,261.9,85L261.9,85z"/>
	<path class="st0" d="M275.7,76.8v2.6l0,0c0.4-0.9,1-1.6,1.8-2.2c0.8-0.5,1.8-0.7,2.7-0.7v2.2c-0.7,0-1.4,0.1-2.1,0.3
		c-0.5,0.2-1,0.5-1.4,1s-0.6,1-0.8,1.6c-0.2,0.7-0.3,1.4-0.2,2.1v5.5h-2V76.8H275.7z"/>
	<path class="st0" d="M286.8,90.8c-0.2,0.5-0.4,1-0.7,1.5c-0.2,0.4-0.5,0.7-0.8,1s-0.6,0.5-0.9,0.6c-0.4,0.1-0.8,0.2-1.2,0.2
		c-0.2,0-0.5,0-0.7,0s-0.5-0.1-0.7-0.2V92c0.2,0.1,0.4,0.2,0.6,0.2c0.2,0.1,0.4,0.1,0.6,0.1c0.4,0,0.7-0.1,1-0.3
		c0.3-0.2,0.5-0.5,0.6-0.8l0.8-2.1l-4.9-12.3h2.4l3.6,10.2l0,0l3.5-10.2h2.2L286.8,90.8z"/>
	<path class="st0" d="M303.3,72l9,13.9l0,0V72h2.2v17.1H312l-9-13.8l0,0v13.8h-2.2V72H303.3z"/>
	<path class="st0" d="M326.7,88.4c-1,0.7-2.3,1.1-3.5,1.1c-0.9,0-1.8-0.1-2.6-0.5c-0.7-0.3-1.3-0.8-1.8-1.3
		c-0.5-0.6-0.9-1.3-1.1-2.1c-0.3-0.9-0.4-1.7-0.4-2.6s0.1-1.8,0.4-2.6c0.3-0.7,0.7-1.4,1.2-2s1.1-1,1.9-1.3c0.7-0.3,1.5-0.5,2.3-0.5
		c1,0,1.9,0.2,2.8,0.7c0.7,0.4,1.3,1,1.8,1.7c0.4,0.7,0.8,1.5,0.9,2.3c0.2,0.8,0.2,1.6,0.2,2.4h-9.3c0,0.5,0,1,0.2,1.6
		c0.1,0.5,0.4,0.9,0.7,1.3c0.3,0.4,0.8,0.7,1.2,0.9c0.6,0.2,1.1,0.4,1.8,0.3c0.8,0,1.5-0.2,2.1-0.6c0.6-0.5,1-1.1,1.1-1.8h2
		C328.3,86.5,327.6,87.6,326.7,88.4z M326.2,80.4c-0.2-0.4-0.4-0.8-0.7-1.1c-0.3-0.3-0.7-0.6-1.1-0.7c-0.9-0.4-1.9-0.4-2.8,0
		c-0.4,0.2-0.8,0.4-1.1,0.8c-0.3,0.3-0.5,0.7-0.7,1.1s-0.3,0.9-0.3,1.4h7.1C326.5,81.3,326.3,80.8,326.2,80.4L326.2,80.4z"/>
	<path class="st0" d="M336.1,76.8v1.8h-2.5v7.7c0,0.2,0,0.4,0.1,0.6c0,0.1,0.1,0.2,0.2,0.3c0.1,0.1,0.3,0.1,0.5,0.2
		c0.3,0,0.5,0,0.8,0h0.9v1.8h-1.6c-0.5,0-0.9,0-1.4-0.1c-0.3-0.1-0.6-0.2-0.9-0.4c-0.2-0.2-0.4-0.5-0.5-0.8
		c-0.1-0.5-0.2-0.9-0.2-1.4v-7.9h-2.1v-1.8h2.1v-3.7h2v3.7L336.1,76.8z"/>
	<path class="st0" d="M348.4,89.2l-2.5-9.9l0,0l-2.5,9.9h-2.2l-4-12.4h2.3l2.8,10.2l0,0l2.6-10.2h2.2l2.6,10.2l0,0l2.8-10.2h2.1
		l-4,12.4C350.6,89.2,348.4,89.2,348.4,89.2z"/>
	<path class="st0" d="M356.2,80.4c0.2-0.8,0.6-1.5,1.2-2.1c0.5-0.6,1.2-1.1,1.9-1.4c1.7-0.7,3.5-0.7,5.2,0c0.7,0.3,1.4,0.8,1.9,1.4
		s0.9,1.3,1.1,2.1c0.3,0.8,0.4,1.7,0.4,2.6s-0.1,1.7-0.4,2.5c-0.2,0.8-0.6,1.5-1.1,2.1s-1.2,1.1-1.9,1.4c-1.7,0.7-3.5,0.7-5.2,0
		c-0.7-0.3-1.4-0.8-1.9-1.4s-0.9-1.3-1.2-2.1c-0.3-0.8-0.4-1.7-0.4-2.5C355.8,82.1,356,81.2,356.2,80.4z M358.3,85
		c0.2,0.5,0.5,1,0.8,1.5c0.3,0.4,0.8,0.7,1.2,0.9c0.5,0.2,1,0.3,1.5,0.3s1-0.1,1.5-0.3c0.5-0.2,0.9-0.5,1.2-0.9
		c0.4-0.4,0.7-0.9,0.8-1.5c0.2-0.6,0.3-1.3,0.3-2s-0.1-1.4-0.3-2c-0.2-0.5-0.5-1-0.8-1.5c-0.3-0.4-0.8-0.7-1.2-0.9
		c-0.5-0.2-1-0.3-1.5-0.3s-1,0.1-1.5,0.3c-0.5,0.2-0.9,0.5-1.2,0.9c-0.4,0.4-0.7,0.9-0.8,1.5c-0.2,0.6-0.3,1.3-0.3,2
		S358.1,84.3,358.3,85z"/>
	<path class="st0" d="M372.1,76.8v2.6l0,0c0.4-0.9,1.1-1.7,1.9-2.2s1.8-0.7,2.7-0.7v2.2c-0.7,0-1.4,0.1-2.1,0.3
		c-0.5,0.2-1,0.5-1.4,1s-0.6,1-0.8,1.6c-0.2,0.7-0.3,1.4-0.2,2.1v5.5h-2V76.8H372.1z"/>
	<path class="st0" d="M380.4,72v10.1l5.7-5.4h2.7l-4.9,4.5l5.3,7.9h-2.6l-4.2-6.5l-1.9,1.8v4.7h-2V72H380.4z"/>
	<path class="st0" d="M403.6,72c2.2-0.1,4.4,0.6,6.1,2c1.4,1.4,2.1,3.4,2.1,6.1c0,1.3-0.1,2.6-0.5,3.8c-0.3,1-0.8,2-1.5,2.8
		s-1.6,1.4-2.6,1.7c-1.2,0.4-2.4,0.6-3.7,0.6h-5.9V72H403.6z M403.8,87.2c0.3,0,0.6,0,1-0.1c0.4,0,0.8-0.1,1.2-0.3
		c0.5-0.2,0.9-0.4,1.3-0.7c0.5-0.3,0.8-0.7,1.1-1.2c0.4-0.6,0.7-1.2,0.8-1.9c0.2-0.9,0.3-1.8,0.3-2.7c0-0.9-0.1-1.8-0.3-2.8
		c-0.2-0.8-0.5-1.5-1-2.1s-1.1-1-1.8-1.3c-0.9-0.3-1.8-0.5-2.7-0.4h-3.8V87L403.8,87.2z"/>
	<path class="st0" d="M425.3,89.2c-0.5,0.2-1,0.3-1.5,0.3s-0.9-0.1-1.3-0.4c-0.3-0.4-0.5-0.9-0.5-1.4c-0.5,0.6-1.2,1.1-2,1.4
		c-1.3,0.5-2.7,0.6-4,0.2c-0.5-0.1-0.9-0.3-1.3-0.6c-0.4-0.3-0.7-0.6-0.9-1.1c-0.2-0.5-0.3-1-0.3-1.6s0.1-1.2,0.4-1.7
		c0.2-0.4,0.6-0.8,1-1.1c0.4-0.3,0.9-0.5,1.3-0.6c0.5-0.1,1-0.3,1.5-0.4s1.1-0.2,1.6-0.2c0.4,0,0.9-0.1,1.3-0.2
		c0.3-0.1,0.6-0.2,0.9-0.5c0.2-0.2,0.4-0.5,0.3-0.9c0-0.4-0.1-0.7-0.2-1.1c-0.2-0.3-0.4-0.5-0.6-0.6c-0.3-0.1-0.6-0.2-0.9-0.3
		c-0.3-0.1-0.7-0.1-1-0.1c-0.8,0-1.5,0.1-2.2,0.5c-0.6,0.4-1,1.1-0.9,1.9h-2c0-0.7,0.2-1.3,0.5-1.9c0.3-0.5,0.7-1,1.1-1.3
		c0.5-0.3,1.1-0.6,1.6-0.7c0.7-0.1,1.3-0.2,2-0.2c0.6,0,1.1,0,1.7,0.1c0.5,0.1,1,0.2,1.5,0.5c0.4,0.2,0.8,0.6,1.1,1
		c0.3,0.5,0.4,1.1,0.4,1.7v6.4c0,0.3,0,0.7,0.1,1c0,0.2,0.2,0.3,0.6,0.3c0.2,0,0.4,0,0.6-0.1L425.3,89.2z M422,82.8
		c-0.3,0.2-0.6,0.4-1,0.4c-0.4,0.1-0.9,0.2-1.3,0.2c-0.5,0.1-0.9,0.1-1.4,0.2c-0.4,0.1-0.8,0.2-1.2,0.3c-0.4,0.1-0.7,0.4-0.9,0.7
		c-0.2,0.4-0.4,0.8-0.4,1.2c0,0.3,0.1,0.6,0.2,0.8c0.1,0.2,0.3,0.4,0.5,0.6c0.2,0.1,0.5,0.2,0.8,0.3c0.3,0.1,0.6,0.1,0.9,0.1
		c0.6,0,1.2-0.1,1.7-0.3c0.4-0.2,0.8-0.4,1.2-0.7c0.3-0.3,0.5-0.6,0.7-0.9c0.1-0.3,0.2-0.6,0.2-0.9L422,82.8L422,82.8z"/>
	<path class="st0" d="M432.5,76.8v1.8H430v7.7c0,0.2,0,0.4,0.1,0.6c0,0.1,0.1,0.3,0.2,0.3c0.1,0.1,0.3,0.1,0.5,0.2
		c0.3,0,0.5,0,0.8,0h0.9v1.8h-1.6c-0.5,0-0.9,0-1.4-0.1c-0.3-0.1-0.6-0.2-0.9-0.4c-0.2-0.2-0.4-0.5-0.5-0.8
		c-0.1-0.5-0.2-0.9-0.2-1.4v-7.9h-2.1v-1.8h2.1v-3.7h2v3.7L432.5,76.8z"/>
	<path class="st0" d="M445.7,89.2c-0.5,0.2-1,0.3-1.5,0.3s-0.9-0.1-1.3-0.4c-0.3-0.4-0.5-0.9-0.5-1.4c-0.5,0.6-1.2,1.1-2,1.4
		c-1.3,0.5-2.7,0.6-4,0.2c-0.5-0.1-0.9-0.3-1.3-0.6c-0.4-0.3-0.7-0.6-0.9-1.1c-0.5-1.1-0.5-2.3,0-3.3c0.2-0.4,0.5-0.8,1-1.1
		c0.4-0.3,0.9-0.5,1.3-0.6c0.5-0.1,1-0.3,1.5-0.4s1.1-0.2,1.6-0.2c0.4-0.1,0.9-0.1,1.3-0.2c0.3-0.1,0.6-0.2,0.9-0.5
		c0.2-0.2,0.4-0.5,0.3-0.9c0-0.4-0.1-0.8-0.3-1.1c-0.2-0.3-0.4-0.5-0.6-0.6c-0.3-0.1-0.6-0.2-0.9-0.3c-0.3-0.1-0.7-0.1-1-0.1
		c-0.8,0-1.5,0.1-2.2,0.5c-0.6,0.4-1,1.1-0.9,1.9h-2c0-0.7,0.2-1.3,0.5-1.9c0.3-0.5,0.7-1,1.1-1.3c0.5-0.3,1.1-0.6,1.6-0.7
		c0.7-0.1,1.3-0.2,2-0.2c0.6,0,1.1,0,1.7,0.1c0.5,0.1,1,0.2,1.5,0.5c0.4,0.2,0.8,0.6,1.1,1c0.3,0.5,0.4,1.1,0.4,1.7v6.4
		c0,0.3,0,0.7,0.1,1c0.1,0.2,0.2,0.3,0.6,0.3c0.2,0,0.4,0,0.6-0.1L445.7,89.2z M442.4,82.8c-0.3,0.2-0.6,0.4-1,0.4
		c-0.4,0.1-0.9,0.2-1.3,0.2c-0.5,0.1-0.9,0.1-1.4,0.2c-0.4,0.1-0.8,0.2-1.2,0.3c-0.4,0.1-0.7,0.4-0.9,0.7c-0.3,0.4-0.4,0.8-0.4,1.2
		c0,0.3,0.1,0.6,0.2,0.8c0.1,0.2,0.3,0.4,0.5,0.6c0.2,0.1,0.5,0.2,0.8,0.3c0.3,0.1,0.6,0.1,0.9,0.1c0.6,0,1.2-0.1,1.7-0.3
		c0.4-0.2,0.8-0.4,1.2-0.7c0.3-0.3,0.5-0.6,0.7-0.9c0.1-0.3,0.2-0.6,0.2-0.9L442.4,82.8z"/>
	<path class="st0" d="M449.8,72v6.4l0,0c0.3-0.7,0.9-1.2,1.6-1.5c0.8-0.3,1.6-0.5,2.4-0.5c0.9,0,1.7,0.2,2.5,0.5
		c0.7,0.3,1.3,0.8,1.8,1.4s0.8,1.3,1.1,2.1c0.2,0.8,0.4,1.6,0.4,2.5c0,0.8-0.1,1.7-0.4,2.5c-0.2,0.7-0.5,1.4-1,2s-1.1,1.1-1.8,1.4
		c-0.8,0.4-1.6,0.5-2.5,0.5c-0.7,0-1.5-0.1-2.1-0.4c-0.4-0.2-0.7-0.3-1-0.6c-0.3-0.3-0.6-0.6-0.8-0.9l0,0v1.7h-2V72H449.8z
		 M457.1,81.2c-0.1-0.5-0.4-1-0.7-1.5c-0.3-0.4-0.7-0.8-1.2-1c-0.5-0.3-1.1-0.4-1.7-0.4s-1.2,0.1-1.8,0.4c-0.5,0.3-0.9,0.6-1.2,1.1
		c-0.3,0.5-0.5,1-0.7,1.5c-0.1,0.6-0.2,1.1-0.2,1.7s0.1,1.2,0.2,1.8c0.1,0.5,0.4,1,0.7,1.5c0.3,0.4,0.7,0.8,1.2,1
		c0.6,0.3,1.2,0.4,1.8,0.4c0.6,0,1.2-0.1,1.8-0.4c0.5-0.3,0.9-0.6,1.1-1.1c0.3-0.5,0.5-1,0.6-1.5c0.1-0.6,0.2-1.2,0.2-1.8
		C457.3,82.3,457.2,81.7,457.1,81.2z"/>
	<path class="st0" d="M472.8,89.2c-0.5,0.2-1,0.3-1.5,0.3s-0.9-0.1-1.3-0.4c-0.3-0.4-0.5-0.9-0.5-1.4c-0.5,0.6-1.2,1.1-2,1.4
		c-1.3,0.5-2.7,0.6-4,0.2c-0.5-0.1-0.9-0.3-1.3-0.6c-0.4-0.3-0.7-0.6-0.9-1.1c-0.5-1.1-0.5-2.3,0-3.3c0.2-0.4,0.5-0.8,1-1.1
		c0.4-0.3,0.9-0.5,1.3-0.6c0.5-0.1,1-0.3,1.5-0.4s1.1-0.2,1.6-0.2c0.5-0.1,0.9-0.1,1.3-0.2c0.3-0.1,0.6-0.2,0.9-0.5
		c0.2-0.2,0.4-0.5,0.3-0.9c0-0.4-0.1-0.8-0.2-1.1c-0.2-0.3-0.4-0.5-0.6-0.6c-0.3-0.1-0.6-0.2-0.9-0.3c-0.3-0.1-0.7-0.1-1-0.1
		c-0.8,0-1.5,0.1-2.2,0.5c-0.6,0.4-1,1.1-0.9,1.9h-2c0-0.7,0.2-1.3,0.5-1.9c0.3-0.5,0.7-1,1.1-1.3c0.5-0.3,1.1-0.6,1.6-0.7
		c0.7-0.1,1.3-0.2,2-0.2c0.6,0,1.1,0,1.7,0.1c0.5,0.1,1,0.2,1.5,0.5c0.4,0.2,0.8,0.6,1.1,1c0.3,0.5,0.4,1.1,0.4,1.7v6.4
		c0,0.3,0,0.7,0.1,1c0.1,0.2,0.2,0.3,0.6,0.3c0.2,0,0.4,0,0.6-0.1L472.8,89.2z M469.5,82.8c-0.3,0.2-0.6,0.4-1,0.4
		c-0.4,0.1-0.9,0.2-1.3,0.2c-0.5,0.1-0.9,0.1-1.4,0.2c-0.4,0.1-0.8,0.2-1.2,0.3c-0.4,0.1-0.7,0.4-0.9,0.7c-0.3,0.4-0.4,0.8-0.4,1.2
		c0,0.3,0.1,0.6,0.2,0.8c0.1,0.2,0.3,0.4,0.5,0.6c0.2,0.1,0.5,0.2,0.8,0.3c0.3,0.1,0.6,0.1,0.9,0.1c0.6,0,1.2-0.1,1.7-0.3
		c0.4-0.2,0.8-0.4,1.2-0.7c0.3-0.3,0.5-0.6,0.7-0.9c0.1-0.3,0.2-0.6,0.2-0.9L469.5,82.8z"/>
	<path class="st0" d="M476.3,86.4c0.2,0.3,0.4,0.6,0.8,0.7c0.3,0.2,0.7,0.3,1.1,0.4s0.8,0.1,1.2,0.1c0.3,0,0.7,0,1-0.1
		c0.3,0,0.7-0.1,1-0.3c0.3-0.1,0.5-0.3,0.7-0.6c0.2-0.3,0.3-0.6,0.3-1c0-0.5-0.2-0.9-0.6-1.2c-0.5-0.3-1-0.5-1.5-0.7
		c-0.6-0.2-1.2-0.3-2-0.5c-0.7-0.1-1.4-0.3-2-0.6c-0.6-0.2-1.1-0.6-1.5-1c-0.4-0.5-0.6-1.2-0.6-1.9c0-0.6,0.1-1.1,0.4-1.6
		c0.3-0.4,0.6-0.8,1.1-1.1c0.5-0.3,1-0.5,1.5-0.6s1.1-0.2,1.6-0.2c0.7,0,1.3,0.1,2,0.2c0.6,0.1,1.1,0.3,1.6,0.6
		c0.5,0.3,0.8,0.7,1.1,1.2c0.3,0.6,0.5,1.2,0.5,1.9h-2c0-0.4-0.1-0.7-0.3-1c-0.2-0.3-0.4-0.5-0.7-0.6c-0.3-0.2-0.6-0.3-0.9-0.3
		c-0.3-0.1-0.7-0.1-1-0.1s-0.6,0-0.9,0.1c-0.3,0-0.6,0.1-0.9,0.2c-0.2,0.1-0.5,0.3-0.6,0.5c-0.2,0.2-0.3,0.5-0.2,0.8
		c0,0.3,0.1,0.6,0.4,0.9s0.6,0.5,1,0.6c0.4,0.2,0.9,0.3,1.3,0.4l1.4,0.3c0.5,0.1,1,0.2,1.5,0.4c0.5,0.1,0.9,0.4,1.3,0.6
		c0.4,0.3,0.7,0.6,0.9,1c0.3,0.5,0.4,1,0.3,1.5c0,0.7-0.1,1.3-0.5,1.9c-0.3,0.5-0.7,0.9-1.2,1.2c-0.5,0.3-1.1,0.5-1.7,0.6
		s-1.3,0.2-1.9,0.2c-0.7,0-1.3-0.1-2-0.2c-0.6-0.1-1.1-0.4-1.6-0.7c-0.5-0.3-0.9-0.8-1.1-1.3c-0.3-0.6-0.5-1.3-0.5-2h2
		C476,85.6,476.1,86,476.3,86.4z"/>
	<path class="st0" d="M495.5,88.4c-1,0.7-2.2,1.1-3.5,1.1c-0.9,0-1.8-0.1-2.6-0.5c-0.7-0.3-1.3-0.8-1.8-1.3
		c-0.5-0.6-0.9-1.3-1.1-2.1c-0.3-0.9-0.4-1.7-0.4-2.6s0.1-1.8,0.4-2.6c0.3-0.7,0.7-1.4,1.2-2s1.1-1,1.8-1.3c0.7-0.3,1.5-0.5,2.3-0.5
		c1,0,1.9,0.2,2.8,0.7c0.7,0.4,1.3,1,1.8,1.7c0.4,0.7,0.7,1.5,0.9,2.3c0.2,0.8,0.2,1.6,0.2,2.4h-9.3c0,0.5,0,1,0.2,1.5
		c0.1,0.5,0.4,0.9,0.7,1.3c0.3,0.4,0.8,0.7,1.2,0.9c0.6,0.2,1.1,0.4,1.8,0.3c0.8,0,1.5-0.2,2.1-0.6s1-1.1,1.1-1.8h2
		C497.1,86.5,496.5,87.6,495.5,88.4z M495.1,80.4c-0.2-0.4-0.4-0.8-0.7-1.1c-0.7-0.7-1.6-1-2.5-1c-0.5,0-1,0.1-1.4,0.3
		c-0.4,0.2-0.8,0.4-1.1,0.8c-0.3,0.3-0.6,0.7-0.7,1.1c-0.2,0.4-0.3,0.9-0.3,1.4h7.1C495.3,81.3,495.2,80.8,495.1,80.4L495.1,80.4z"
		/>
</g>
<path class="st1" d="M180,94.2c0,9.4,14.8,17,33.1,17"/>
<g>
	<g>
		<path class="st1" d="M243.5,100.8c-5,6.1-16.8,10.4-30.5,10.4"/>
		<g>
			<polygon class="st0" points="246,94.2 238.3,101.7 243,101.2 245.8,105 			"/>
		</g>
	</g>
</g>
<g>
	<g>
		<path class="st1" d="M307.9,64.1c-5-6.1-16.8-10.4-30.5-10.4"/>
		<g>
			<polygon class="st0" points="310.5,70.7 310.2,60 307.4,63.8 302.8,63.2 			"/>
		</g>
	</g>
</g>
<path class="st1" d="M244.4,70.7c0-9.4,14.8-17,33.1-17"/>
</svg>
