<?xml version="1.0" encoding="utf-8"?>
<!-- Generator: Adobe Illustrator 23.1.1, SVG Export Plug-In . SVG Version: 6.00 Build 0)  -->
<svg version="1.1" id="Layer_1" xmlns="http://www.w3.org/2000/svg" xmlns:xlink="http://www.w3.org/1999/xlink" x="0px" y="0px"
	 viewBox="0 0 141 138.8" style="enable-background:new 0 0 141 138.8;" xml:space="preserve">
<style type="text/css">
	.st0{fill:#99D3CB;}
	.st1{fill:#FFF9EF;}
	.st2{fill:#6FCACD;}
	.st3{fill:#DAECCD;}
	.st4{fill:#871C1C;}
	.st5{fill:#804242;}
	.st6{fill:#D16258;}
	.st7{fill:#EDA292;}
	.st8{fill:#F2F2F2;}
	.st9{fill:none;}
</style>
<g>
	<path class="st0" d="M85.8,7.3c0-2.3-1.7-4.1-3.8-4.1h-0.8c-2.1,0-3.8,1.8-3.8,4.1v6.6h8.5L85.8,7.3L85.8,7.3z"/>
	<path class="st1" d="M81.1,24.7h0.8c2.1,0,3.8-1.8,3.8-4.1V14h-8.5v6.6C77.3,22.8,79,24.7,81.1,24.7z"/>
	<path class="st2" d="M84.3,13.9h1.5V7.3c0-2.3-1.7-4.1-3.8-4.1h-0.8c-1.3,0-2.5,0.7-3.2,1.8c0.4-0.2,0.8-0.3,1.3-0.3
		C82,4.7,84.3,8.8,84.3,13.9z"/>
	<path class="st3" d="M84.3,13.9c0,5.1-2.3,9.2-5.1,9.2c-0.4,0-0.9-0.1-1.3-0.3c0.7,1.1,1.9,1.8,3.2,1.8H82c2.1,0,3.8-1.8,3.8-4.1
		v-6.6L84.3,13.9L84.3,13.9z"/>
	<path class="st4" d="M81.4,2.5h0.8c2.4,0,4.4,2.1,4.4,4.7v13.3c0,2.6-2,4.7-4.4,4.7h-0.8c-2.4,0-4.4-2.1-4.4-4.7V7.2
		C77,4.7,79,2.5,81.4,2.5z M82.3,24.1c1.8,0,3.2-1.6,3.2-3.5V7.3c0-1.9-1.4-3.5-3.2-3.5h-0.8c-1.8,0-3.2,1.6-3.2,3.5v13.3
		c0,1.9,1.4,3.5,3.2,3.5H82.3z"/>
	<path class="st4" d="M77.9,13.3h8.2c0.3,0,0.6,0.3,0.6,0.6s-0.3,0.6-0.6,0.6h-8.2c-0.3,0-0.6-0.3-0.6-0.6S77.6,13.3,77.9,13.3z"/>
</g>
<g>
	<path class="st0" d="M37.1,7.3c0-2.3-1.7-4.1-3.8-4.1h-0.8c-2.1,0-3.8,1.8-3.8,4.1v6.6h8.5V7.3H37.1z"/>
	<path class="st1" d="M32.4,24.7h0.8c2.1,0,3.8-1.8,3.8-4.1V14h-8.5v6.6C28.6,22.8,30.3,24.7,32.4,24.7z"/>
	<path class="st2" d="M35.6,13.9h1.5V7.3c0-2.3-1.7-4.1-3.8-4.1h-0.8c-1.3,0-2.5,0.7-3.2,1.8c0.4-0.2,0.8-0.3,1.3-0.3
		C33.3,4.7,35.6,8.8,35.6,13.9z"/>
	<path class="st3" d="M35.6,13.9c0,5.1-2.3,9.2-5.1,9.2c-0.4,0-0.9-0.1-1.3-0.3c0.7,1.1,1.9,1.8,3.2,1.8h0.8c2.1,0,3.8-1.8,3.8-4.1
		v-6.6L35.6,13.9L35.6,13.9z"/>
	<path class="st4" d="M32.7,2.5h0.8C36,2.5,38,4.7,38,7.3v13.3c0,2.6-2,4.7-4.4,4.7h-0.8c-2.4,0-4.4-2.1-4.4-4.7V7.3
		C28.3,4.7,30.3,2.5,32.7,2.5z M33.6,24.1c1.8,0,3.2-1.6,3.2-3.5V7.3c0-1.9-1.4-3.5-3.2-3.5h-0.8c-1.8,0-3.2,1.6-3.2,3.5v13.3
		c0,1.9,1.4,3.5,3.2,3.5H33.6z"/>
	<path class="st4" d="M29.2,13.3h8.2c0.3,0,0.6,0.3,0.6,0.6s-0.3,0.6-0.6,0.6h-8.2c-0.3,0-0.6-0.3-0.6-0.6S28.9,13.3,29.2,13.3z"/>
</g>
<g>
	<path class="st0" d="M134.4,7.3c0-2.3-1.7-4.1-3.8-4.1h-0.8c-2.1,0-3.8,1.8-3.8,4.1v6.6h8.5L134.4,7.3L134.4,7.3z"/>
	<path class="st1" d="M129.8,24.7h0.8c2.1,0,3.8-1.8,3.8-4.1V14h-8.5v6.6C126,22.8,127.7,24.7,129.8,24.7z"/>
	<path class="st2" d="M133,13.9h1.5V7.3c0-2.3-1.7-4.1-3.8-4.1h-0.8c-1.3,0-2.5,0.7-3.2,1.8c0.4-0.2,0.8-0.3,1.3-0.3
		C130.7,4.7,133,8.8,133,13.9z"/>
	<path class="st3" d="M133,13.9c0,5.1-2.3,9.2-5.1,9.2c-0.4,0-0.9-0.1-1.3-0.3c0.7,1.1,1.9,1.8,3.2,1.8h0.8c2.1,0,3.8-1.8,3.8-4.1
		v-6.6L133,13.9L133,13.9z"/>
	<path class="st4" d="M130.1,2.5h0.8c2.4,0,4.4,2.1,4.4,4.7v13.3c0,2.6-2,4.7-4.4,4.7h-0.8c-2.4,0-4.4-2.1-4.4-4.7V7.2
		C125.7,4.7,127.7,2.5,130.1,2.5z M131,24.1c1.8,0,3.2-1.6,3.2-3.5V7.3c0-1.9-1.4-3.5-3.2-3.5h-0.8c-1.8,0-3.2,1.6-3.2,3.5v13.3
		c0,1.9,1.4,3.5,3.2,3.5H131z"/>
	<path class="st4" d="M126.6,13.3h8.2c0.3,0,0.6,0.3,0.6,0.6s-0.3,0.6-0.6,0.6h-8.2c-0.3,0-0.6-0.3-0.6-0.6
		C126,13.6,126.3,13.3,126.6,13.3z"/>
</g>
<g>
	<path class="st0" d="M61.4,7.3c0-2.3-1.7-4.1-3.8-4.1h-0.8C54.7,3.2,53,5,53,7.3v6.6h8.5L61.4,7.3L61.4,7.3z"/>
	<path class="st1" d="M56.7,24.7h0.8c2.1,0,3.8-1.8,3.8-4.1V14h-8.5v6.6C52.9,22.8,54.6,24.7,56.7,24.7z"/>
	<path class="st2" d="M59.9,13.9h1.5V7.3c0-2.3-1.7-4.1-3.8-4.1h-0.8c-1.3,0-2.5,0.7-3.2,1.8c0.4-0.2,0.8-0.3,1.3-0.3
		C57.7,4.7,59.9,8.8,59.9,13.9z"/>
	<path class="st3" d="M59.9,13.9c0,5.1-2.3,9.2-5.1,9.2c-0.4,0-0.9-0.1-1.3-0.3c0.7,1.1,1.9,1.8,3.2,1.8h0.8c2.1,0,3.8-1.8,3.8-4.1
		v-6.6L59.9,13.9L59.9,13.9z"/>
	<path class="st4" d="M57.1,2.5h0.8c2.4,0,4.4,2.1,4.4,4.7v13.3c0,2.6-2,4.7-4.4,4.7h-0.8c-2.4,0-4.4-2.1-4.4-4.7V7.2
		C52.7,4.7,54.6,2.5,57.1,2.5z M57.9,24.1c1.8,0,3.2-1.6,3.2-3.5V7.3c0-1.9-1.4-3.5-3.2-3.5h-0.8c-1.8,0-3.2,1.6-3.2,3.5v13.3
		c0,1.9,1.4,3.5,3.2,3.5H57.9z"/>
	<path class="st4" d="M53.6,13.3h8.2c0.3,0,0.6,0.3,0.6,0.6s-0.3,0.6-0.6,0.6h-8.2c-0.3,0-0.6-0.3-0.6-0.6S53.2,13.3,53.6,13.3z"/>
</g>
<g>
	<path class="st0" d="M110.1,7.3c0-2.3-1.7-4.1-3.8-4.1h-0.8c-2.1,0-3.8,1.8-3.8,4.1v6.6h8.5L110.1,7.3L110.1,7.3z"/>
	<path class="st1" d="M105.4,24.7h0.8c2.1,0,3.8-1.8,3.8-4.1V14h-8.5v6.6C101.6,22.8,103.3,24.7,105.4,24.7z"/>
	<path class="st2" d="M108.6,13.9h1.5V7.3c0-2.3-1.7-4.1-3.8-4.1h-0.8c-1.3,0-2.5,0.7-3.2,1.8c0.4-0.2,0.8-0.3,1.3-0.3
		C106.4,4.7,108.6,8.8,108.6,13.9z"/>
	<path class="st3" d="M108.6,13.9c0,5.1-2.3,9.2-5.1,9.2c-0.4,0-0.9-0.1-1.3-0.3c0.7,1.1,1.9,1.8,3.2,1.8h0.8c2.1,0,3.8-1.8,3.8-4.1
		v-6.6L108.6,13.9L108.6,13.9z"/>
	<path class="st4" d="M105.8,2.5h0.8c2.4,0,4.4,2.1,4.4,4.7v13.3c0,2.6-2,4.7-4.4,4.7h-0.8c-2.4,0-4.4-2.1-4.4-4.7V7.2
		C101.3,4.7,103.3,2.5,105.8,2.5z M106.6,24.1c1.8,0,3.2-1.6,3.2-3.5V7.3c0-1.9-1.4-3.5-3.2-3.5h-0.8c-1.8,0-3.2,1.6-3.2,3.5v13.3
		c0,1.9,1.4,3.5,3.2,3.5H106.6z"/>
	<path class="st4" d="M102.3,13.3h8.2c0.3,0,0.6,0.3,0.6,0.6s-0.3,0.6-0.6,0.6h-8.2c-0.3,0-0.6-0.3-0.6-0.6
		C101.7,13.6,101.9,13.3,102.3,13.3z"/>
</g>
<g>
	<path class="st0" d="M12.7,7.3c0-2.3-1.7-4.1-3.8-4.1H8.1C6,3.2,4.2,5,4.2,7.3v6.6h8.5V7.3z"/>
	<path class="st1" d="M8.1,24.7h0.8c2.1,0,3.8-1.8,3.8-4.1V14H4.2v6.6C4.2,22.8,6,24.7,8.1,24.7z"/>
	<path class="st2" d="M11.2,13.9h1.5V7.3c0-2.3-1.7-4.1-3.8-4.1H8.1C6.8,3.2,5.6,3.9,4.9,5c0.4-0.2,0.8-0.3,1.3-0.3
		C9,4.7,11.2,8.8,11.2,13.9z"/>
	<path class="st3" d="M11.2,13.9c0,5.1-2.3,9.2-5.1,9.2c-0.4,0-0.9-0.1-1.3-0.3c0.7,1.1,1.9,1.8,3.2,1.8h0.8c2.1,0,3.8-1.8,3.8-4.1
		v-6.6L11.2,13.9L11.2,13.9z"/>
	<path class="st4" d="M8.4,2.5h0.8c2.4,0,4.4,2.1,4.4,4.7v13.3c0,2.6-2,4.7-4.4,4.7H8.4C6,25.3,4,23.2,4,20.6V7.3
		C4,4.7,6,2.5,8.4,2.5z M9.2,24.1c1.8,0,3.2-1.6,3.2-3.5V7.3c0-1.9-1.4-3.5-3.2-3.5H8.4c-1.8,0-3.2,1.6-3.2,3.5v13.3
		c0,1.9,1.4,3.5,3.2,3.5H9.2z"/>
	<path class="st4" d="M4.9,13.3h8.2c0.3,0,0.6,0.3,0.6,0.6s-0.3,0.6-0.6,0.6H4.9c-0.3,0-0.6-0.3-0.6-0.6S4.6,13.3,4.9,13.3z"/>
</g>
<g>
	<path class="st0" d="M86.6,113.5c0-2.3-1.7-4.1-3.8-4.1H82c-2.1,0-3.8,1.8-3.8,4.1v6.6h8.5L86.6,113.5L86.6,113.5z"/>
	<path class="st1" d="M81.9,130.9h0.8c2.1,0,3.8-1.8,3.8-4.1v-6.6H78v6.6C78.1,129,79.8,130.9,81.9,130.9z"/>
	<path class="st2" d="M85.1,120.1h1.5v-6.6c0-2.3-1.7-4.1-3.8-4.1H82c-1.3,0-2.5,0.7-3.2,1.8c0.4-0.2,0.8-0.3,1.3-0.3
		C82.8,110.9,85.1,115,85.1,120.1z"/>
	<path class="st3" d="M85.1,120.1c0,5.1-2.3,9.2-5.1,9.2c-0.4,0-0.9-0.1-1.3-0.3c0.7,1.1,1.9,1.8,3.2,1.8h0.8c2.1,0,3.8-1.8,3.8-4.1
		v-6.6L85.1,120.1L85.1,120.1z"/>
	<path class="st4" d="M82.2,108.7H83c2.4,0,4.4,2.1,4.4,4.7v13.3c0,2.6-2,4.7-4.4,4.7h-0.8c-2.4,0-4.4-2.1-4.4-4.7v-13.3
		C77.8,110.9,79.8,108.7,82.2,108.7z M83.1,130.2c1.8,0,3.2-1.6,3.2-3.5v-13.3c0-1.9-1.4-3.5-3.2-3.5h-0.8c-1.8,0-3.2,1.6-3.2,3.5
		v13.3c0,1.9,1.4,3.5,3.2,3.5H83.1z"/>
	<path class="st4" d="M78.8,119.5H87c0.3,0,0.6,0.3,0.6,0.6c0,0.3-0.3,0.6-0.6,0.6h-8.2c-0.3,0-0.6-0.3-0.6-0.6
		C78.1,119.8,78.4,119.5,78.8,119.5z"/>
</g>
<g>
	<path class="st0" d="M37.9,113.5c0-2.3-1.7-4.1-3.8-4.1h-0.8c-2.1,0-3.8,1.8-3.8,4.1v6.6H38L37.9,113.5L37.9,113.5z"/>
	<path class="st1" d="M33.2,130.9H34c2.1,0,3.8-1.8,3.8-4.1v-6.6h-8.5v6.6C29.4,129,31.1,130.9,33.2,130.9z"/>
	<path class="st2" d="M36.4,120.1h1.5v-6.6c0-2.3-1.7-4.1-3.8-4.1h-0.8c-1.3,0-2.5,0.7-3.2,1.8c0.4-0.2,0.8-0.3,1.3-0.3
		C34.1,110.9,36.4,115,36.4,120.1z"/>
	<path class="st3" d="M36.4,120.1c0,5.1-2.3,9.2-5.1,9.2c-0.4,0-0.9-0.1-1.3-0.3c0.7,1.1,1.9,1.8,3.2,1.8H34c2.1,0,3.8-1.8,3.8-4.1
		v-6.6L36.4,120.1L36.4,120.1z"/>
	<path class="st4" d="M33.6,108.7h0.8c2.4,0,4.4,2.1,4.4,4.7v13.3c0,2.6-2,4.7-4.4,4.7h-0.8c-2.4,0-4.4-2.1-4.4-4.7v-13.3
		C29.1,110.9,31.1,108.7,33.6,108.7z M34.4,130.2c1.8,0,3.2-1.6,3.2-3.5v-13.3c0-1.9-1.4-3.5-3.2-3.5h-0.8c-1.8,0-3.2,1.6-3.2,3.5
		v13.3c0,1.9,1.4,3.5,3.2,3.5H34.4z"/>
	<path class="st4" d="M30.1,119.5h8.2c0.3,0,0.6,0.3,0.6,0.6c0,0.3-0.3,0.6-0.6,0.6h-8.2c-0.3,0-0.6-0.3-0.6-0.6
		C29.4,119.8,29.7,119.5,30.1,119.5z"/>
</g>
<g>
	<path class="st0" d="M135.3,113.5c0-2.3-1.7-4.1-3.8-4.1h-0.8c-2.1,0-3.8,1.8-3.8,4.1v6.6h8.5L135.3,113.5L135.3,113.5z"/>
	<path class="st1" d="M130.6,130.9h0.8c2.1,0,3.8-1.8,3.8-4.1v-6.6h-8.5v6.6C126.8,129,128.5,130.9,130.6,130.9z"/>
	<path class="st2" d="M133.8,120.1h1.5v-6.6c0-2.3-1.7-4.1-3.8-4.1h-0.8c-1.3,0-2.5,0.7-3.2,1.8c0.4-0.2,0.8-0.3,1.3-0.3
		C131.5,110.9,133.8,115,133.8,120.1z"/>
	<path class="st3" d="M133.8,120.1c0,5.1-2.3,9.2-5.1,9.2c-0.4,0-0.9-0.1-1.3-0.3c0.7,1.1,1.9,1.8,3.2,1.8h0.8
		c2.1,0,3.8-1.8,3.8-4.1v-6.6L133.8,120.1L133.8,120.1z"/>
	<path class="st4" d="M130.9,108.7h0.8c2.4,0,4.4,2.1,4.4,4.7v13.3c0,2.6-2,4.7-4.4,4.7h-0.8c-2.4,0-4.4-2.1-4.4-4.7v-13.3
		C126.5,110.9,128.5,108.7,130.9,108.7z M131.8,130.2c1.8,0,3.2-1.6,3.2-3.5v-13.3c0-1.9-1.4-3.5-3.2-3.5H131
		c-1.8,0-3.2,1.6-3.2,3.5v13.3c0,1.9,1.4,3.5,3.2,3.5H131.8z"/>
	<path class="st4" d="M127.4,119.5h8.2c0.3,0,0.6,0.3,0.6,0.6c0,0.3-0.3,0.6-0.6,0.6h-8.2c-0.3,0-0.6-0.3-0.6-0.6
		C126.8,119.8,127.1,119.5,127.4,119.5z"/>
</g>
<g>
	<path class="st0" d="M62.2,113.5c0-2.3-1.7-4.1-3.8-4.1h-0.8c-2.1,0-3.8,1.8-3.8,4.1v6.6h8.5v-6.6H62.2z"/>
	<path class="st1" d="M57.6,130.9h0.8c2.1,0,3.8-1.8,3.8-4.1v-6.6h-8.5v6.6C53.7,129,55.5,130.9,57.6,130.9z"/>
	<path class="st2" d="M60.7,120.1h1.5v-6.6c0-2.3-1.7-4.1-3.8-4.1h-0.8c-1.3,0-2.5,0.7-3.2,1.8c0.4-0.2,0.8-0.3,1.3-0.3
		C58.5,110.9,60.7,115,60.7,120.1z"/>
	<path class="st3" d="M60.7,120.1c0,5.1-2.3,9.2-5.1,9.2c-0.4,0-0.9-0.1-1.3-0.3c0.7,1.1,1.9,1.8,3.2,1.8h0.8c2.1,0,3.8-1.8,3.8-4.1
		v-6.6L60.7,120.1L60.7,120.1z"/>
	<path class="st4" d="M57.9,108.7h0.8c2.4,0,4.4,2.1,4.4,4.7v13.3c0,2.6-2,4.7-4.4,4.7h-0.8c-2.4,0-4.4-2.1-4.4-4.7v-13.3
		C53.5,110.9,55.5,108.7,57.9,108.7z M58.8,130.2c1.8,0,3.2-1.6,3.2-3.5v-13.3c0-1.9-1.4-3.5-3.2-3.5H58c-1.8,0-3.2,1.6-3.2,3.5
		v13.3c0,1.9,1.4,3.5,3.2,3.5H58.8z"/>
	<path class="st4" d="M54.4,119.5h8.2c0.3,0,0.6,0.3,0.6,0.6c0,0.3-0.3,0.6-0.6,0.6h-8.2c-0.3,0-0.6-0.3-0.6-0.6
		C53.8,119.8,54.1,119.5,54.4,119.5z"/>
</g>
<g>
	<path class="st0" d="M110.9,113.5c0-2.3-1.7-4.1-3.8-4.1h-0.8c-2.1,0-3.8,1.8-3.8,4.1v6.6h8.5L110.9,113.5L110.9,113.5z"/>
	<path class="st1" d="M106.3,130.9h0.8c2.1,0,3.8-1.8,3.8-4.1v-6.6h-8.5v6.6C102.4,129,104.1,130.9,106.3,130.9z"/>
	<path class="st2" d="M109.4,120.1h1.5v-6.6c0-2.3-1.7-4.1-3.8-4.1h-0.8c-1.3,0-2.5,0.7-3.2,1.8c0.4-0.2,0.8-0.3,1.3-0.3
		C107.2,110.9,109.4,115,109.4,120.1z"/>
	<path class="st3" d="M109.4,120.1c0,5.1-2.3,9.2-5.1,9.2c-0.4,0-0.9-0.1-1.3-0.3c0.7,1.1,1.9,1.8,3.2,1.8h0.8
		c2.1,0,3.8-1.8,3.8-4.1v-6.6L109.4,120.1L109.4,120.1z"/>
	<path class="st4" d="M106.6,108.7h0.8c2.4,0,4.4,2.1,4.4,4.7v13.3c0,2.6-2,4.7-4.4,4.7h-0.8c-2.4,0-4.4-2.1-4.4-4.7v-13.3
		C102.2,110.9,104.1,108.7,106.6,108.7z M107.4,130.2c1.8,0,3.2-1.6,3.2-3.5v-13.3c0-1.9-1.4-3.5-3.2-3.5h-0.8
		c-1.8,0-3.2,1.6-3.2,3.5v13.3c0,1.9,1.4,3.5,3.2,3.5H107.4z"/>
	<path class="st4" d="M103.1,119.5h8.2c0.3,0,0.6,0.3,0.6,0.6c0,0.3-0.3,0.6-0.6,0.6h-8.2c-0.3,0-0.6-0.3-0.6-0.6
		S102.8,119.5,103.1,119.5z"/>
</g>
<g>
	<path class="st0" d="M13.5,113.5c0-2.3-1.7-4.1-3.8-4.1H8.9c-2.1,0-3.8,1.8-3.8,4.1v6.6h8.5L13.5,113.5L13.5,113.5z"/>
	<path class="st1" d="M8.9,130.9h0.8c2.1,0,3.8-1.8,3.8-4.1v-6.6H5v6.6C5.1,129,6.8,130.9,8.9,130.9z"/>
	<path class="st2" d="M12.1,120.1h1.5v-6.6c0-2.3-1.7-4.1-3.8-4.1H8.9c-1.3,0-2.5,0.7-3.2,1.8c0.4-0.2,0.8-0.3,1.3-0.3
		C9.8,110.9,12.1,115,12.1,120.1z"/>
	<path class="st3" d="M12.1,120.1c0,5.1-2.3,9.2-5.1,9.2c-0.4,0-0.9-0.1-1.3-0.3c0.7,1.1,1.9,1.8,3.2,1.8h0.8c2.1,0,3.8-1.8,3.8-4.1
		v-6.6L12.1,120.1L12.1,120.1z"/>
	<path class="st4" d="M9.2,108.7H10c2.4,0,4.4,2.1,4.4,4.7v13.3c0,2.6-2,4.7-4.4,4.7H9.2c-2.4,0-4.4-2.1-4.4-4.7v-13.3
		C4.8,110.9,6.8,108.7,9.2,108.7z M10.1,130.2c1.8,0,3.2-1.6,3.2-3.5v-13.3c0-1.9-1.4-3.5-3.2-3.5H9.2c-1.8,0-3.2,1.6-3.2,3.5v13.3
		c0,1.9,1.4,3.5,3.2,3.5H10.1z"/>
	<path class="st4" d="M5.7,119.5h8.2c0.3,0,0.6,0.3,0.6,0.6c0,0.3-0.3,0.6-0.6,0.6H5.7c-0.3,0-0.6-0.3-0.6-0.6S5.4,119.5,5.7,119.5z
		"/>
</g>
<g>
	<path class="st5" d="M106.5,93c0.1,0.2,0.3,0.3,0.5,0.3c0.9,0,1.8-0.1,2.6-0.3c0.2,0,0.3-0.3,0.4-0.5c0.1-0.8-0.3-1.6-0.4-2.5
		c0-0.5-0.1-0.9-0.2-1.4c0.2,0.2,0.4,0.4,0.6,0.6c0.5,0.5,1.1,0.8,1.7,1.2c1.1,0.8,2.1,1.8,3.3,2.5c2.7,1.6,6.1,1.5,9,0.9
		c5.1-1.1,10.5-4.6,12-9.9c0.7-2.5,1-5.1,1-7.6c0-1.7-0.3-3.3-0.8-4.9c-0.4-1.3-1.3-2.4-2.2-3.4c-1.5-1.9-4.6-2-6.3-0.3
		c-0.4,0.4-0.9,0.9-1.2,1.3c-0.6,0.7-0.7-0.1-1.2-0.4s-1.6-1.9-1.6-2.5c0-0.1-0.1-0.2-0.2-0.2c0,0-0.1-0.1-0.2,0
		c-0.6,0.8-1.3,1.5-2.1,2.1c-0.3,0.2-1.3,0.7-1.4,1.1c-0.3,1.3,1.3,2.9,1.9,4c1.2,2,1,3.8,0.2,5.8s-2.1,4.1-4,5.2
		c-1.2,0.7-2.2,1-3.5,0.4c-0.9-0.4-1.6-0.9-2.5-1.1c-1.2-0.4-3.8-1.5-5-0.4c-1.2,1.2-1,3.1-1,4.6C106,89.3,105.7,91.6,106.5,93z
		 M107.2,85.8c0.1-2.1,1.6-2.1,3.2-1.5c0.9,0.3,1.9,0.5,2.8,1c0.8,0.4,1.5,0.9,2.4,0.9c1.6,0.1,3.7-0.8,4.7-2s1.9-2.6,2.5-4.1
		c0.3-0.8,0.8-1.7,0.9-2.6s0.1-1.9,0.1-2.8c0-1.3-1.5-2.9-2.3-3.8c-0.3-0.4-1.4-1.2-0.8-1.7c0.4-0.4,0.9-0.7,1.4-1
		c0.6-0.5,1-1,1.4-1.7c0.1,1.1,1,2.1,1.6,3c1.2,1.8,2.3,0.2,3.6-0.7c0.9-0.7,2.9-0.4,3.9,0c1.3,0.6,2.2,2.7,2.6,3.9
		c0.8,3,0.6,6-0.3,9c-0.7,2.4-1.7,5-3.8,6.6c-2.2,1.6-4.4,2.8-7,3.7c-2.8,0.9-6.3,0.6-8.9-1.1c-1-0.7-2.1-1.3-3.2-1.9
		c-1-0.5-1.9-1.3-2.9-1.8c-0.3-0.1-0.7,0-0.7,0.4c0.1,0.8,0.2,1.6,0.2,2.4c0,0.7,0.3,1.4,0.4,2c-0.2,0-0.5,0-0.7,0.1
		c-0.3,0-0.8-0.1-0.8,0.1c-0.1-1.1-0.2-2.1-0.3-3.2C107.1,88,107.1,86.9,107.2,85.8z"/>
	<path class="st6" d="M107.4,92.2c0-0.2,0.5-0.1,0.8-0.1c0.2,0,0.5,0,0.7-0.1c-0.1-0.7-0.4-1.4-0.4-2c0-0.8-0.1-1.6-0.2-2.4
		c0-0.4,0.4-0.5,0.7-0.4c1,0.4,1.9,1.3,2.9,1.8c1.1,0.6,2.2,1.2,3.2,1.9c2.5,1.6,6,1.9,8.9,1.1c2.6-0.8,4.8-2.1,7-3.7
		s3.1-4.1,3.8-6.6c0.9-3,1.1-5.9,0.3-9c-0.3-1.2-1.3-3.3-2.6-3.9c-1-0.5-2.9-0.7-3.9,0c-1.3,0.9-2.4,2.4-3.6,0.7
		c-0.6-0.9-1.4-1.9-1.6-3c-0.4,0.6-0.8,1.2-1.4,1.7c-0.4,0.4-0.9,0.7-1.4,1c-0.6,0.5,0.5,1.4,0.8,1.7c0.8,0.9,2.3,2.5,2.3,3.8
		c0,0.9,0,1.9-0.1,2.8s-0.5,1.8-0.9,2.6c-0.6,1.5-1.4,2.8-2.5,4.1c-1,1.2-3.2,2.1-4.7,2c-0.9-0.1-1.6-0.5-2.4-0.9
		c-0.9-0.5-1.8-0.7-2.8-1c-1.6-0.5-3.2-0.5-3.2,1.5c0,1.1,0,2.2,0,3.2C107.1,90.1,107.3,91.1,107.4,92.2z"/>
</g>
<g>
	<path class="st5" d="M60.9,89.9c-1.2,1.5,0.3,3.9,1.4,5c0.8,0.8,3.7,1.1,4.8,0.2c-0.1,0.7-0.7,2.7,0.2,3c1,0.3,2.1,0.4,2.5-0.7
		c0.7-2.1,0-5.3,1.9-6.8c0.3,0.2,0.5,0.3,0.9,0.4c0.9,0.3,1.8,0.2,2.7,0.2c1.5,0,3.1-0.9,4.2-1.9c0.6-0.5,1.1-1.2,1.5-1.9
		c0.7-1.2,1.5-1.5,2.7-1.8c1.3-0.3,2.6-1.7,3.2-2.8c0.8-1.5,0.6-3.2,0.6-4.8c0-3.4-1.9-6.3-4.7-8.2c-1.3-0.9-2.8-1.7-4.4-2.2
		c-1.7-0.5-3.6,0-5.2,0.2c-3.5,0.5-6.7,2.6-9.5,4.8c-2.8,2.2-4.9,5.8-5.3,9.3C58,85,58.5,87.8,60.9,89.9z M67.1,94.2
		c-1.6,0.6-3.8,1.1-5-0.5c-0.6-0.8-0.9-1.9-1-2.9c0-0.3,0-0.5,0-0.8c0.1,0.1,0.1,0.1,0.2,0.1c1.4,1,3.6-0.4,4.9-1.5
		c0,0,0.1,0.1,0.2,0.1s0.2,0,0.3,0l0,0c-0.1,0-0.1,0.1-0.1,0.2c0,0.2,0.2,0.5,0.3,0.7c0,0.5,0.2,0.9,0.2,1.4
		C67.4,92,67.3,93.1,67.1,94.2z M69.8,92.6c-0.3,0.9-0.4,1.8-0.5,2.7c-0.1,0.5-0.2,1.1-0.2,1.6c0,0.8-0.8,0.6-1.3,0.5
		c-0.7-0.1,0-2.8,0-3.3c0.2-1.5,0-3-0.4-4.4l0.1-0.1c0-0.2-0.1-0.4-0.2-0.6c0-0.1-0.1-0.2-0.1-0.3c1.3,0.1,2.6,0.9,3.7,1.4
		c0.1,0,0.1,0.1,0.2,0.1C70.4,90.9,70.1,91.7,69.8,92.6z M73.6,88.9c0,0.2,0,0.4,0,0.7c-0.4-0.1-0.8-0.2-1.2-0.3
		c-0.1-0.1-0.3-0.1-0.4-0.1c0.1-0.1,0.2-0.2,0.4-0.3c0.2-0.1,0.4-0.2,0.5-0.4c0.1-0.3,0.1-0.4,0.1-0.7c0.4,0.2,0.7,0.4,1.1,0.4
		c-0.1,0.1-0.1,0.1-0.2,0.2C73.7,88.4,73.6,88.7,73.6,88.9z M77.2,88.9c-0.9,0.5-2.1,0.7-3.2,0.7v-0.1c0-0.1,0-0.3,0-0.4
		c0-0.2,0.1-0.3,0.1-0.4c0-0.2,0-0.4,0.2-0.5l0,0c0,0,0,0,0-0.1c0.1,0,0.3-0.1,0.5-0.1c0.3-0.1,0.6-0.4,0.8-0.7
		C76.8,85.5,77.2,88.2,77.2,88.9z M77.8,88.6c-0.1,0-0.1,0.1-0.2,0.1c0.2-0.6,0-1.5-0.4-2c1.2,0.1,1.8-2,3.2-1.4
		C79.5,86.3,79,87.7,77.8,88.6z M82.2,84.2c-0.1,0-0.2-0.1-0.3-0.2c-0.3-0.3-0.4-0.9-0.4-1.3c0-0.5,0.1-0.9,0.1-1.4l0,0
		c0.3,0.1,0.7,0.3,1,0.3c0.9,0.3,1.3,0.7,1.5,1.6C83.6,83.7,82.9,83.9,82.2,84.2z M83.1,71.9c0.9,1,1.7,2.1,2.1,3.3h-0.1
		c-0.2-0.1-0.4,0-0.6,0.1c-0.1,0.1-0.1,0.2-0.2,0.3c0,0.1-0.2,0.1-0.3,0.2c-0.1,0.1-0.1,0.2,0,0.2c0.2,0.1,0.4,0.2,0.6,0.1
		c0.1-0.1,0.1-0.1,0.2-0.2l0,0c0.3,0.2,0.4,0.6,0.7,0.8c0.1,0.6,0.2,1.3,0.2,2c0,0.1,0,0.2,0,0.3c-0.4-0.1-1-0.6-1.3-0.6
		c-0.2,0-0.5,0-0.7,0.1c-0.1,0.1-0.4,0.5-0.4,0.4h-0.1c0,0,0,0,0,0.1c0,0,0,0.1,0.1,0.1c0.3,0,0.4-0.3,0.8-0.2
		c0.5,0.1,0.7,0.5,1.1,0.8c0.2,0.1,0.3,0.2,0.5,0.2c-0.1,0.8-0.3,1.6-0.7,2.4c-0.1-0.3-0.3-0.6-0.6-0.7c-0.6-0.4-1.3-0.6-1.9-0.8
		c-0.5-0.1-1.2-0.5-1.6-0.9c-0.2-0.2-0.1-1-0.1-1.4c0.2-1.4,1.7-1.7,2.5-2.7c0.3-0.4,0.2-0.9,0.1-1.3c-0.1-0.3-0.3-0.5-0.4-0.7
		c0,0,0,0,0-0.1C82.3,73.3,82.4,72.7,83.1,71.9z M74.8,69.2c0-0.2,0-0.5,0.1-0.8l0,0c0.5,0,1.1,0,1.5,0c0.9,0,1.8,0.3,2.7,0.7
		c-0.1,0.1-0.3,0.1-0.4,0.2c-0.3,0.2-0.5,0.6-0.6,0.9c-0.2,0.5,0,1-0.6,1.2c-0.4,0.1-0.8,0.1-1.1,0.3c-0.1,0.1-0.2,0.1-0.3,0.2
		c-0.3,0-0.6-0.1-0.9-0.3c-0.4-0.2-1.6-1-1-1.5C74.6,69.9,74.7,69.5,74.8,69.2z M69.8,69.7c0.4-0.2,0.8-0.4,1.2-0.5
		c1-0.4,2.1-0.6,3.3-0.7c0,0.1-0.1,0.2-0.1,0.4c-0.1,0.9-0.8,1.2-0.6,2.1c0.2,0.7,1.4,1.5,2.3,1.5c-0.3,1.3,1.3,3.2,2.3,2.4
		c0.1-0.1,0.1-0.2,0-0.3c-0.1-0.1-0.2-0.2-0.3-0.3c-0.5-0.1-0.8-0.4-1.1-0.8c-1-1.1,0.7-1.2,1.3-1.6c0.4-0.2,0.5-0.8,0.6-1.2
		c0.1-0.6,0.5-1.1,1-1.4c0.6,0.3,1.2,0.7,1.7,1.1s0.9,0.7,1.3,1.1c-0.3,0.1-0.6,0.3-0.7,0.5c-0.5-0.7-2.2-0.8-2.4,0
		c-0.3,1.4,1.2,2.6-0.2,3.6c-1.2,0.9,0,2.9-1.4,3.8c-0.1-0.2-0.2-0.4-0.3-0.6c-0.3-0.6-0.6-1.2-1.2-1.4c-0.4-0.1-0.8-0.2-1.2-0.2
		c-0.9-0.1,0.2-1.5,0.2-1.7c0.1-0.4,0-0.8-0.4-1c-0.1-0.1-0.3-0.1-0.5-0.1c-0.7-0.1-0.9-0.6-1.3-1.1c-0.5-0.7-1-1.2-1.8-1.6
		c-0.2-0.1-0.5-0.2-0.7-0.2C69.8,71.3,69.7,70.5,69.8,69.7z M69.5,69.8c-0.2,0.9-0.2,1.9,0.8,2.2c1.5,0.4,2.1,1.5,2.9,2.7
		c0.4,0.6,1.4,0.5,0.9,1.2c-0.4,0.6-0.4,1.2-0.1,1.8c0.4,0.9,2.2,0.4,2.8,1.4c0.6,1.1,0.8,2,0.6,3.2c-0.1,1,0,1.6,0.8,2.3h0.1
		c0.1,0,0.2-0.1,0.1-0.2c-0.4-0.8-0.6-1.8-0.2-2.6c0.2-0.3,0.3-0.5,0.3-0.9c0-0.3-0.2-0.7-0.4-1.1c1.7-0.1,1-2.9,2-3.7
		c0.5-0.4,0.8-0.8,0.7-1.5c-0.1-0.4-0.2-0.8-0.4-1.2c0.2-1.2,0.6-1.4,1.1-0.8c0,0.1,0.1,0.1,0.1,0.2c0,0,0.1,0,0.1,0.1
		s0,0.2,0.1,0.2c0.5,1.1,1.8,2.4-0.1,3.1c-0.6,0.2-1,0.8-1.4,1.3c-0.7,0.9-0.5,2.4,0.2,3.1c0.2,0.2,0.4,0.4,0.7,0.5
		c-0.5,0.8-0.5,1.9-0.3,2.8c0.1,0.2,0.2,0.4,0.3,0.5c-0.2,0.1-0.3,0.2-0.5,0.3c-0.4-0.4-1.1-0.5-1.7-0.2c-0.2,0.1-0.4,0.2-0.6,0.4
		c-0.3,0.2-0.6,0.5-1,0.7c-0.9,0.7-0.5-1.2-0.7-1.6c-0.4-1.1-1.4-1.8-2.5-2.3c0.3-0.3,0.5-0.7,0.6-1.1c0.3-0.8-0.3-1.7-1.2-1.7
		c-0.1,0-0.2,0.1-0.2,0.2c0,0.2,0,0.2,0.2,0.4c0.2,0.3,0.4,0.4,0.5,0.7c0,0.1,0,0.2,0,0.3c-0.1,0.4-0.3,0.7-0.5,1l-0.1,0.1
		c-0.8-0.1-1.7,0.1-2.5-0.1c-1.6-0.4-2.1-2.1-2.3-3.5c0-0.1-0.2-0.1-0.2,0c-0.2,1.5,0.3,2.6,1.4,3.6c1.4,1.3,3.5,0.4,5,1.4
		c0.7,0.5,1.1,1.2,1.1,2.1c0,0.3,0,0.7,0,0.9c0,0.1,0.1,0.1,0.1,0.2c-0.1,0-0.2,0-0.4,0c-0.4,0.1-0.6,0.2-0.9,0.5
		c-1.1,0.9-1.7,0.4-2.7-0.2c-0.5-0.3-1.2-0.4-1.7-0.5c-1-0.3-1.9-1.2-2.3-2.2c-0.2-0.5-0.2-0.7-0.6-1c-0.3-0.3-1.5-1.1-1.5-1.6
		c0-1.2,0.1-2.4-0.2-3.6c-0.2-0.7-0.8-1.5-1.7-2c0.4-0.3,0.8-0.7,1.3-0.9c1.9-1,4.7-0.1,4.8,2.3c0,0.8-0.2,2.2,0.3,2.8
		c0.7,0.8,1.6,0.8,2.6,0.5c0,0,0.1,0,0.1-0.1v-0.1c-0.7-0.3-1.8-0.3-1.9-1.3c-0.1-0.6,0-1.2-0.1-1.8c-0.2-1-0.3-2.2-1.2-2.8
		c-0.6-0.3-1.2-0.5-1.8-0.6c0.2-0.5,0.1-1.1,0.1-1.5c-0.1-0.6-0.3-1.1-0.7-1.4C68.4,70.4,69,70.1,69.5,69.8z M62.3,85.2
		c1.3,0.3,1.6,0.9,1.6,2.1c0,2-2.3,1.4-2.1,0.6c0-0.2-0.1-0.4-0.1-0.6c-0.4-0.9-0.1-2.4-0.1-3.4c0-0.2,0-0.5-0.1-0.7
		c0.5,0.6,1,1,1.7,1.2c0.3,0.1,0.7,0.1,1.1,0c0.8-0.2,1.2-0.7,1.6-1.4c0-0.1,0.2-0.5,0.3-0.9c0.8,0.7,1.5,1.3,2,2.3
		c0,0.1,0.1,0.2,0.1,0.2C68,84.9,68,85.1,68,85.4c0,0.5-0.2,1.2-0.5,1.6c-0.5,0.5-1.7,0.3-2.3,0c-0.3-0.2-0.6-0.3-0.9-0.2
		c-0.1-0.9-0.6-1.6-1.4-1.8c-0.2,0-0.4-0.1-0.6,0C62.1,84.9,62.1,85.2,62.3,85.2z M62.3,74.6c0.9-1.1,2.5-2.3,3.8-2.9
		c0.4-0.2,0.8-0.4,1.2-0.6c0.2,0.4,0.5,0.8,0.5,1.4c0,0.3,0,0.6-0.1,0.9c0,0.1,0,0.2-0.1,0.3c-0.4,0-0.7,0.1-1.1,0.2
		c-0.5,0.1-0.8,0.3-1.3,0.5c-0.2,0.1-0.7,0.5-0.8,0.6c0,0-0.1,0.3-0.3,0.5c-0.7-0.4-1.5-0.6-2.2-0.5C62.1,74.9,62.2,74.7,62.3,74.6z
		 M59.5,80c0.2-0.5,0.4-1,0.6-1.5c0.1,0.2,0.2,0.3,0.4,0.4c0.5,0.5,1,0.8,1.3,1.5c0.2,0.5,0.4,1,0.9,1.3s1.7,0.2,2-0.5
		c0.1-0.2,0.1-0.4,0.1-0.6c0-0.7-0.4-1.3-0.5-1.9c0-0.1-0.1,0-0.1,0c0,0.3,0.1,0.7,0.2,1.1c0.1,0.5,0.1,1.5-0.7,1.6s-1-0.3-1.3-0.9
		s-0.4-1-0.9-1.4c-0.2-0.2-0.5-0.4-0.8-0.6c-0.2-0.2-0.2-0.3-0.3-0.5c0.4-0.9,1-1.9,1.6-2.7c0.9,0.3,1.7,0.7,2.5,1.3
		c1.4,1.1,1.2,2.4,1.1,4v0.1c0,0.5,0,0.9,0.2,1.3c-0.2,0.8-0.8,1.7-1.8,2c-1.4,0.4-2.6-1.1-3.1-2.2c-0.1-0.2-0.5-0.1-0.4,0.2
		c0.2,0.9,0.4,1.7,0.4,2.6s-0.2,1.9,0,2.8c0.3,1.1,0.1,1.9,1.5,1.8s1.8-0.6,1.9-2c0,0,0,0,0-0.1c0.6,0.3,1,0.7,1.7,0.8
		c0.2,0,0.4,0.1,0.6,0.1c0.4,0,0.7,0,1.1-0.3c0.5-0.4,0.6-0.8,0.7-1.4c0.1-0.2,0.1-0.4,0.2-0.7c1.1,1.1,2.9,1.2,4.2,2.1
		c-0.1,0.2-0.2,0.4-0.3,0.5c-0.1,0.2-0.4,0.3-0.6,0.4s-0.3,0.3-0.6,0.4c-0.2,0-0.3,0-0.5-0.1c-0.7-0.2-1.4-0.4-2.1-0.6
		s-1.4-0.3-2.1-0.1c0,0,0-0.1-0.1-0.1l0,0c-0.1,0.1-0.2,0.1-0.3,0.2h-0.1c-0.1,0-0.1,0.1-0.1,0.1c-1.1,0.8-2.3,1.4-3.6,1.5
		c-2.1,0.2-3.6-3.5-3.6-5.1C58.9,83.2,58.9,81.6,59.5,80z"/>
	<path class="st6" d="M66.9,89.6c-0.1-0.2-0.3-0.4-0.3-0.7c0-0.1,0-0.1,0.1-0.2l0,0c-0.1,0-0.2,0-0.3,0c-0.1,0-0.1,0-0.2-0.1
		c-1.2,1.1-3.5,2.5-4.9,1.5c-0.1,0-0.1-0.1-0.2-0.1c0.1,0.2,0,0.5,0,0.8c0.1,1,0.4,2,1,2.9c1.1,1.6,3.4,1.1,5,0.5
		c0.2-1.1,0.2-2.2,0-3.3C67.1,90.5,67,90,66.9,89.6z"/>
	<path class="st7" d="M62.3,84.9c0.2,0,0.4,0,0.6,0c0.8,0.2,1.3,1,1.4,1.8c0.3,0,0.6,0.1,0.9,0.2c0.5,0.3,1.8,0.5,2.3,0
		c0.4-0.4,0.5-1.1,0.5-1.6c0-0.3,0-0.5,0.1-0.6c0-0.1-0.1-0.2-0.1-0.2c-0.4-1-1.2-1.6-2-2.3c-0.1,0.4-0.2,0.8-0.3,0.9
		c-0.4,0.6-0.8,1.2-1.6,1.4c-0.4,0.1-0.8,0.1-1.1,0c-0.7-0.2-1.2-0.6-1.7-1.2c0,0.2,0.1,0.5,0.1,0.7c0,1-0.3,2.5,0.1,3.4
		c0.1,0.2,0.2,0.4,0.1,0.6c-0.2,0.9,2.1,1.5,2.1-0.6c0-1.3-0.3-1.8-1.6-2.1C62.1,85.2,62.1,84.9,62.3,84.9z"/>
	<path class="st7" d="M64.2,75.5c0.1-0.2,0.2-0.4,0.3-0.5c0.2-0.1,0.6-0.5,0.8-0.6c0.5-0.2,0.8-0.4,1.3-0.5c0.4-0.1,0.7-0.2,1.1-0.2
		c0-0.1,0-0.2,0.1-0.3c0-0.3,0.1-0.6,0.1-0.9c0-0.6-0.2-1-0.5-1.4c-0.4,0.2-0.8,0.5-1.2,0.6c-1.3,0.6-2.9,1.8-3.8,2.9
		c-0.1,0.1-0.2,0.2-0.3,0.4C62.7,74.9,63.5,75.1,64.2,75.5z"/>
	<path class="st7" d="M62.5,90c1.3-0.1,2.6-0.7,3.6-1.5c0,0,0-0.1,0.1-0.1h0.1c0.1-0.1,0.2-0.1,0.3-0.2l0,0c0.1,0,0.1,0.1,0.1,0.1
		c0.7-0.2,1.4-0.1,2.1,0.1s1.4,0.4,2.1,0.6c0.2,0,0.3,0.1,0.5,0.1c0.2-0.1,0.4-0.3,0.6-0.4s0.5-0.2,0.6-0.4c0.1-0.2,0.2-0.3,0.3-0.5
		c-1.3-0.9-3.1-1-4.2-2.1c0,0.2-0.1,0.5-0.2,0.7c-0.2,0.6-0.3,1-0.7,1.4c-0.3,0.3-0.7,0.3-1.1,0.3c-0.2,0-0.4,0-0.6-0.1
		c-0.7-0.1-1.1-0.5-1.7-0.8c0,0,0,0,0,0.1c-0.1,1.3-0.5,1.9-1.9,2s-1.2-0.7-1.5-1.8c-0.2-0.8,0-1.9,0-2.8s-0.2-1.7-0.4-2.6
		c-0.1-0.2,0.3-0.4,0.4-0.2c0.5,1.1,1.6,2.7,3.1,2.2c1-0.3,1.6-1.1,1.7-2.1c-0.2-0.4-0.2-0.9-0.2-1.3v-0.1c0-1.6,0.2-2.9-1.1-4
		c-0.8-0.7-1.6-1-2.5-1.3c-0.6,0.8-1.1,1.7-1.6,2.7c0,0.2,0.1,0.3,0.3,0.5s0.5,0.4,0.8,0.6c0.5,0.4,0.6,0.8,0.9,1.4
		c0.3,0.6,0.6,1,1.3,0.9c0.8-0.1,0.8-1.1,0.7-1.6C64.2,79.4,64,79,64,78.7c0-0.1,0.1-0.1,0.1,0c0.1,0.7,0.5,1.3,0.5,1.9
		c0,0.2,0,0.4-0.1,0.6c-0.3,0.6-1.5,0.8-2,0.5s-0.7-0.8-0.9-1.3c-0.3-0.7-0.7-1-1.3-1.5c-0.1-0.1-0.3-0.2-0.4-0.4
		c-0.2,0.5-0.4,1-0.6,1.5c-0.5,1.6-0.5,3.2-0.5,4.8C58.9,86.5,60.4,90.1,62.5,90z"/>
	<path class="st7" d="M72.9,87.7c0,0.2,0,0.4-0.1,0.7c-0.1,0.2-0.3,0.3-0.5,0.4c-0.1,0.1-0.3,0.2-0.4,0.3c0.1,0,0.3,0.1,0.4,0.1
		c0.3,0.2,0.7,0.3,1.2,0.3c0-0.2,0-0.4,0-0.7c0-0.2,0.1-0.5,0.2-0.7c0-0.1,0.1-0.1,0.2-0.2C73.6,88.1,73.3,87.9,72.9,87.7z"/>
	<path class="st7" d="M75.5,87.2c-0.2,0.3-0.5,0.6-0.8,0.7C74.5,88,74.4,88,74.2,88c0,0,0,0,0,0.1l0,0C74,88.2,74,88.4,74,88.6
		c0,0.1-0.1,0.2-0.1,0.4c0,0.1,0,0.3,0,0.4v0.1c1.1,0.1,2.3-0.2,3.2-0.7C77.2,88.2,76.8,85.5,75.5,87.2z"/>
	<path class="st7" d="M77.2,86.7c0.4,0.5,0.6,1.4,0.4,2c0.1,0,0.1-0.1,0.2-0.1c1.2-0.8,1.7-2.2,2.6-3.2C79,84.7,78.4,86.8,77.2,86.7
		z"/>
	<path class="st7" d="M82.6,81.7c-0.3-0.1-0.7-0.2-1-0.3l0,0c0,0.5-0.1,0.9-0.1,1.4c0,0.4,0.1,1,0.4,1.3c0.1,0.1,0.2,0.1,0.3,0.2
		c0.7-0.2,1.3-0.5,1.9-0.9C83.9,82.4,83.6,82,82.6,81.7z"/>
	<path class="st7" d="M82.9,73.7C83,73.7,83,73.8,82.9,73.7c0.2,0.3,0.4,0.5,0.5,0.8c0.1,0.4,0.2,0.9-0.1,1.3
		c-0.7,1-2.3,1.3-2.5,2.7c-0.1,0.3-0.2,1.2,0.1,1.4c0.4,0.3,1.1,0.7,1.6,0.9c0.7,0.2,1.3,0.4,1.9,0.8c0.3,0.2,0.5,0.4,0.6,0.7
		c0.4-0.7,0.6-1.5,0.7-2.4c-0.2,0-0.4-0.1-0.5-0.2c-0.4-0.3-0.6-0.6-1.1-0.8c-0.3-0.1-0.5,0.1-0.8,0.2c0,0-0.1,0-0.1-0.1
		c0,0,0,0,0-0.1h0.1c0,0,0.3-0.4,0.4-0.4c0.2-0.1,0.5-0.1,0.7-0.1c0.3,0,0.9,0.5,1.3,0.6c0-0.1,0-0.2,0-0.3c0-0.7,0-1.3-0.2-2
		c-0.3-0.2-0.4-0.6-0.7-0.8l0,0c-0.1,0.1-0.1,0.1-0.2,0.2c-0.2,0.1-0.4,0-0.6-0.1c-0.1-0.1-0.1-0.2,0-0.2c0.1-0.1,0.2-0.1,0.3-0.2
		c0-0.1,0.1-0.2,0.2-0.3c0.2-0.2,0.3-0.2,0.6-0.1h0.1c-0.5-1.2-1.2-2.3-2.1-3.3C82.4,72.7,82.3,73.3,82.9,73.7z"/>
	<path class="st7" d="M75.3,71.7c0.3,0.1,0.6,0.2,0.9,0.3c0.1-0.1,0.2-0.1,0.3-0.2c0.3-0.2,0.8-0.1,1.1-0.3c0.6-0.2,0.4-0.8,0.6-1.2
		c0.1-0.3,0.3-0.7,0.6-0.9c0.1-0.1,0.3-0.2,0.4-0.2c-0.9-0.4-1.8-0.7-2.7-0.7c-0.5,0-1,0-1.5,0l0,0c-0.2,0.2-0.1,0.5-0.1,0.8
		c-0.1,0.3-0.2,0.8-0.4,1C73.8,70.7,74.9,71.4,75.3,71.7z"/>
	<path class="st7" d="M70.8,71.5c0.2,0.1,0.5,0.1,0.7,0.2c0.8,0.4,1.3,0.8,1.8,1.6c0.4,0.5,0.6,1,1.3,1.1c0.2,0,0.3,0.1,0.5,0.1
		c0.4,0.2,0.5,0.6,0.4,1c-0.1,0.3-1.1,1.6-0.2,1.7c0.4,0.1,0.8,0.1,1.2,0.2c0.7,0.2,1,0.9,1.2,1.4c0.1,0.2,0.2,0.4,0.3,0.6
		c1.4-0.9,0.2-2.9,1.4-3.8c1.4-1-0.1-2.3,0.2-3.6c0.2-0.8,1.8-0.7,2.4,0c0.2-0.2,0.4-0.4,0.7-0.5c-0.4-0.4-0.8-0.8-1.3-1.1
		c-0.5-0.4-1.1-0.8-1.7-1.1c-0.5,0.3-0.9,0.8-1,1.4c-0.1,0.4-0.2,1-0.6,1.2c-0.6,0.4-2.3,0.4-1.3,1.6c0.3,0.4,0.6,0.7,1.1,0.8
		c0.1,0,0.2,0.2,0.3,0.3c0.1,0.1,0.1,0.2,0,0.3c-1,0.8-2.6-1.1-2.3-2.4c-0.9,0-2.1-0.8-2.3-1.5c-0.3-0.9,0.5-1.2,0.6-2.1
		c0-0.1,0-0.3,0.1-0.4c-1.2,0.1-2.4,0.3-3.3,0.7c-0.4,0.1-0.8,0.3-1.2,0.5C69.7,70.5,69.8,71.3,70.8,71.5z"/>
	<path class="st7" d="M68.5,73.7c0.6,0.1,1.2,0.3,1.8,0.6c1,0.6,1.1,1.8,1.2,2.8c0.1,0.6,0,1.2,0.1,1.8c0.1,0.9,1.3,1,1.9,1.3
		c0.1,0,0.1,0.1,0,0.1c0,0,0,0.1-0.1,0.1c-1,0.3-1.9,0.3-2.6-0.5c-0.5-0.7-0.3-2.1-0.3-2.8c0-2.4-2.8-3.2-4.8-2.3
		c-0.5,0.3-0.9,0.6-1.3,0.9c0.8,0.5,1.5,1.3,1.7,2c0.2,1.2,0.1,2.4,0.2,3.6c0,0.5,1.1,1.3,1.5,1.6c0.4,0.4,0.4,0.6,0.6,1
		c0.4,1,1.3,1.9,2.3,2.2c0.6,0.2,1.2,0.2,1.7,0.5c0.9,0.6,1.5,1.1,2.7,0.2c0.3-0.3,0.5-0.4,0.9-0.5c0.1,0,0.2,0,0.4,0
		c-0.1-0.1-0.1-0.1-0.1-0.2c-0.1-0.3,0-0.7,0-0.9c0-0.9-0.4-1.6-1.1-2.1c-1.5-1-3.6-0.1-5-1.4c-1.1-1-1.5-2.1-1.4-3.6
		c0-0.1,0.2-0.1,0.2,0c0.2,1.4,0.6,3.1,2.3,3.5c0.8,0.2,1.7,0,2.5,0.1l0.1-0.1c0.3-0.3,0.4-0.6,0.5-1c0-0.1,0-0.2,0-0.3
		c0-0.3-0.2-0.5-0.5-0.7c-0.1-0.1-0.1-0.2-0.2-0.4c0-0.1,0.1-0.2,0.2-0.2c0.9,0,1.4,0.9,1.2,1.7c-0.2,0.4-0.3,0.8-0.6,1.1
		c1.1,0.4,2.1,1.1,2.5,2.3c0.2,0.4-0.2,2.3,0.7,1.6c0.3-0.2,0.6-0.5,1-0.7c0.2-0.1,0.4-0.3,0.6-0.4c0.6-0.3,1.3-0.2,1.7,0.2
		c0.2-0.1,0.3-0.2,0.5-0.3c-0.2-0.2-0.3-0.3-0.3-0.5c-0.3-0.9-0.2-2,0.3-2.8c-0.3-0.1-0.5-0.3-0.7-0.5c-0.7-0.8-0.8-2.2-0.2-3.1
		c0.4-0.5,0.8-1.1,1.4-1.3c1.8-0.8,0.5-2,0.1-3.1c0-0.1-0.1-0.2-0.1-0.2s-0.1,0-0.1-0.1s-0.1-0.1-0.1-0.2c-0.5-0.6-0.9-0.4-1.1,0.8
		c0.2,0.4,0.3,0.7,0.4,1.2c0.1,0.7-0.3,1.1-0.7,1.5c-1,0.8-0.3,3.6-2,3.7c0.2,0.4,0.4,0.8,0.4,1.1c0,0.4-0.1,0.5-0.3,0.9
		c-0.5,0.8-0.2,1.8,0.2,2.6c0,0.1,0,0.2-0.1,0.2h-0.1c-0.8-0.6-0.9-1.3-0.8-2.3c0.2-1.2,0-2.1-0.6-3.2c-0.6-1-2.4-0.4-2.8-1.4
		C74,77.2,74,76.6,74.4,76c0.5-0.7-0.5-0.6-0.9-1.2c-0.8-1.2-1.4-2.3-2.9-2.7c-1.1-0.3-1.1-1.3-0.8-2.2c-0.6,0.3-1.1,0.7-1.6,1
		c0.4,0.4,0.6,0.8,0.7,1.4C68.7,72.6,68.7,73.3,68.5,73.7z"/>
	<path class="st8" d="M67.1,88.7c0,0.1,0.1,0.2,0.1,0.3c0.1,0.2,0.2,0.3,0.2,0.6c0,0.1,0,0.1-0.1,0.1c0.4,1.4,0.6,2.9,0.4,4.4
		c-0.1,0.6-0.7,3.2,0,3.3c0.6,0.1,1.3,0.3,1.3-0.5c0-0.5,0.1-1.1,0.2-1.6c0.1-0.9,0.3-1.8,0.5-2.7c0.3-0.9,0.6-1.7,1.2-2.4
		c-0.1,0-0.1-0.1-0.2-0.1C69.7,89.6,68.4,88.8,67.1,88.7z"/>
</g>
<g>
	<path class="st9" d="M24.2,74.9L24.2,74.9C24.2,74.8,24.1,74.9,24.2,74.9z"/>
	<path class="st5" d="M41.2,87.7c-0.1-1-0.2-2-0.3-3c-0.2-1.5-0.7-3-1.2-4.4c-1.3-3.7-2.1-7.4-4.4-10.6c-1.4-1.9-4-5.5-6.3-2.7
		c-1,1.2-1.2,3.3-1.4,4.8c-0.1,0.9-0.4,1.9-0.4,2.8c-0.4-0.4-0.7-0.7-1.1-1c-1.1-0.9-0.1-3.3,0.1-4.4c0.1-0.5,0.4-2.1-0.2-2.4
		c-0.5-0.3-1.2-0.3-1.8-0.3c-0.6,0-1.3,0-1.8,0.3c-0.6,0.4-0.3,1.9-0.2,2.4c0.2,1.1,1.3,3.5,0.1,4.4c-0.4,0.3-0.8,0.7-1.1,1
		c-0.1-0.9-0.3-1.9-0.4-2.8c-0.2-1.4-0.4-3.6-1.4-4.8c-2.3-2.8-5,0.8-6.3,2.7C10.7,73,10,76.6,8.6,80.3c-0.5,1.4-1,2.9-1.2,4.4
		c-0.1,1-0.2,2-0.3,3c-0.1,1.2-0.3,2.4-0.4,3.6c-0.1,1.3-0.1,2.8,0.1,4.1c0.2,1.5,2.2,1.7,3.3,1.7c1.7,0.1,3.5,0,5.2,0.1
		s3.3-0.6,4.8-1.3c1.4-0.7,2.4-1.8,2.9-3.3c0.2-0.6,0.2-1.2,0.3-1.9c0.1-0.7,0.2-1.6,0-2.3c-0.3-1.3-0.5-2.7-0.7-4
		c-0.2-0.8-0.2-1.7-0.3-2.4c-0.1-1-0.4-2-0.5-2.9c0-0.2,0-0.3-0.1-0.4c0.6-1,1.4-2.4,2.4-3c1,0.6,1.8,1.9,2.4,3
		c-0.1,0.1-0.1,0.3-0.1,0.4c0,1-0.4,2-0.5,2.9c-0.1,0.8-0.1,1.7-0.3,2.4c-0.3,1.4-0.4,2.7-0.7,4c-0.2,0.7,0,1.6,0,2.3
		c0.1,0.6,0,1.3,0.3,1.9c0.5,1.5,1.4,2.6,2.9,3.3c1.5,0.7,3.1,1.4,4.8,1.3s3.5-0.1,5.2-0.1c1.1,0,3.1-0.2,3.3-1.7
		c0.2-1.3,0.2-2.8,0.1-4.1C41.5,90.1,41.3,88.9,41.2,87.7z M22,85.9c0,0.6,0,1.1,0,1.7c0.1,1.8,0.1,3.6-0.7,5.2
		c-1.5,2.8-5.4,2.6-8,2.6c-1.5,0-3.2,0.3-4.6,0c-0.9-0.2-0.6-3.8-0.4-4.3c0.6-2.9,0.3-5.9,1.3-8.8c0.9-2.7,1.5-5.6,2.6-8.3
		c0.3-0.7,0.4-1.5,0.7-2.2c0.4-0.7,0.8-1.3,1.3-1.9c0.9-1.3,3.2-4.4,4.7-1.9c0.8,1.3,1,3.2,1.3,4.6c0.2,0.8,0.5,1.7,0.6,2.6
		c-0.5,0.5-0.9,1.1-1.3,1.7c-0.1,0.1-0.2,0.3-0.3,0.5l0,0c-0.1-0.1-0.2-0.3-0.4-0.4c-0.2-0.1-0.5,0-0.7-0.1c0-0.1,0-0.1,0-0.2
		s-0.1-0.1-0.2-0.2c0-0.1,0-0.2,0.1-0.3c0.1-0.3,0.2-0.7,0.1-1s-0.3-0.2-0.3-0.8c0-0.3,0.3-0.6,0.3-1s0-0.8-0.1-1.1
		c-0.1-0.3-0.4-0.5-0.6-0.4c-0.1,0-0.1,0.1,0,0.1c0.8,0.2,0.1,2-0.1,2.6c0,0.1,0,0.3,0,0.5c0.1,0.1,0.1,0.1,0.2,0.2
		c0.3,0.3,0,0.8-0.1,1.1v0.1c-0.3,0.2-0.4,0.3-0.7,0c-0.1-0.1-0.2-0.2-0.4-0.2c-0.3-0.1-0.6,0.8-0.9,0.4c-0.2-0.3-0.2-0.7-0.3-1
		c0-0.1-0.1-0.1-0.1,0c0,0.5-0.1,1.5,0.5,1.5c0.1,0,0.3-0.1,0.4-0.2c0.1-0.1,0.2-0.3,0.4-0.1c0.1,0.1,0.1,0.2,0.2,0.3
		c0.2,0.2,0.5,0,0.8-0.1c0.1,0.1,0.1,0.3,0.3,0.3c0.3,0.1,0.5,0.1,0.7,0.2c-0.4,0.1-0.8,0.2-1.1,0.4c-0.7,0.4-0.7,1-1.5,0.9
		c-0.5-0.1-0.7,0.4-0.8,0.8c-0.3,0.6-0.4,1-1.1,0.8c-0.3-0.1-0.4,0-0.7,0.1c0,0-0.1,0-0.1,0.1c0,0,0,0,0,0.1h0.1
		c0,0.1,1.3,0.5,1.5,0.4c0.5-0.1,0.6-0.5,0.8-0.9c0.3-0.8,0.7-0.5,1.2-0.6c-0.1,0.2-0.2,0.5-0.3,0.7c-0.1,0.5,0.5,0.9-0.2,1.3
		c-0.8,0.5-0.8,0.8-0.5,1.8l0,0c0.1-0.4-0.1-1.1,0.4-1.3c0.2-0.1,0.3-0.1,0.5-0.2c0.3-0.2,0.4-0.5,0.5-0.8c0-0.2-0.3-0.5-0.2-0.7
		c0.1-0.5,0.5-0.8,0.5-1.3l0,0c0.4-0.6,1.1-0.8,1.7-0.9l0,0c-1,1.9-1.8,4.1-2,6.3c-0.1,0-0.3,0-0.4,0c-0.3-0.1-0.5-0.1-0.8-0.2
		c-0.2-0.1-0.6,0-0.7,0.3c-0.1,0.2-0.3,0.9-0.7,0.7c-0.2-0.1-0.4-0.3-0.6-0.4c-0.2-0.1-0.3-0.1-0.5,0.1c0,0,0,0.1,0.1,0.1
		c0.2-0.1,0.8,0.6,1,0.7c0.3,0.2,0.5,0.1,0.8,0c0.3-0.2,0.3-0.9,0.8-0.8c-0.3,0.3-0.2,0.9-0.2,1.2c0,0.3,0,0.4-0.3,0.6
		c-0.2,0.1-0.2,0.2-0.3,0.3c-0.1,0.3-0.1,0.6-0.3,0.8c-0.1,0.1,0,0.2,0.1,0.3c0,0.1,0.1,0,0.1,0c-0.1-0.1,0.3-0.5,0.3-0.7
		c0.1-0.4,0.5-0.3,0.7-0.5c0.1-0.1,0.1-0.4,0.1-0.6s0-0.4,0-0.6c0-0.3,0.1-0.5,0.3-0.7c0.2,0,0.4,0,0.5-0.1c-0.1,1.1,0,2.1,0.2,3.1
		l-0.1,0.1c0-0.1-0.2,0-0.3,0.1v0.1c-0.1,0-0.2,0.1-0.3,0.2c-0.5,0.6-0.9,0.1-1.4,0.1c-0.4,0-1.2,0.5-1.4-0.1
		c-0.1-0.2-0.1-0.5-0.3-0.6h-0.1c-0.1,0.1-0.1,0-0.2,0.2c0,0,0,0.1,0.1,0.1c0,0,0.2,0.8,0.3,1c0.3,0.3,0.8,0.2,1.1,0.2
		c0.5-0.1,0.7,0,1.1,0.1c0.2,0,0.5,0.1,0.7,0s0.3-0.3,0.5-0.4c0,0.1,0.1,0.2,0.1,0.2c0.2,0.6-0.7,0.2-0.9,0.4
		c-0.2,0.1-0.4,0.3-0.4,0.5c0,0.6,0.1,0.8-0.6,1c-0.3,0.1-0.5,0.4-0.6,0.6c-0.3,0.5,0.2,1.2,0.4,1.6c0,0.1,0.1,0,0.1-0.1
		c-0.1-0.2-0.2-0.8-0.2-0.9c0-1.1,0.8-0.6,1.2-0.9c0.3-0.2,0.3-0.7,0.3-1c-0.1-0.6,0.8-0.3,1.2-0.6c0.3-0.3-0.2-0.9-0.1-1.2
		c0.3,1.1,0.9,2.2,1.7,3.2c0.2,0.2,0.6,0,0.6-0.2c-0.1-0.8-0.2-1.7-0.4-2.5h0.1c0.1,0,0.3-0.1,0.4-0.1h0.1c0,0.1,0,0.1,0,0.2
		c0,0.6,0.7,0.6,1.1,0.8c0,0,0.1,0,0.1-0.1c-0.1-0.1-0.2-0.1-0.2-0.2c-0.1,0-0.2-0.1-0.2-0.1c-0.2-0.2-0.4-0.3-0.4-0.6
		c0.1-0.6-0.8-0.1-0.9-0.3c0,0,0,0-0.1-0.1c0-0.3-0.1-0.6-0.1-0.9c0-0.2,0-0.5,0-0.7c0.1,0.1,0.3,0.1,0.5-0.1c0.1,0,0.2,0,0.3,0
		c0.6,0,0.4,0.1,0.5,0.4c0,0.2,0.1,0.3,0.2,0.4c0.2,0.2,0.6,0.4,0.9,0.4c0,0,0.1,0,0.1-0.1v-0.1c-0.4-0.1-0.8-0.5-0.8-1
		c0-0.2-0.2-0.4-0.4-0.5C20.1,86,19.7,86,19.4,86c-0.1,0-0.1,0.1-0.2-0.1c0-0.1-0.1-0.2-0.2-0.4c0.1-0.7,0.2-1.4,0.4-2.1
		c0.4-1.3,1.1-2.7,1.8-3.9c0,0.2,0.1,0.3,0.1,0.3c0.2,0.8,0.3,1.7,0.4,2.5C21.8,83.6,22,84.7,22,85.9z M24.2,74.7L24.2,74.7
		C24.1,74.9,24.2,74.8,24.2,74.7z M24.2,74.7L24.2,74.7L24.2,74.7c-1.1,0.5-1.8,1.6-2.5,2.5c-1.1,1.6-1.9,3.3-2.7,5.1
		c-0.5,1.2-0.7,2.6-0.7,3.9s0.3,2.5,0.5,3.8c-2.1-4-0.7-9.1,1.5-12.7c0.7-1.2,1.7-2.4,2.9-3.1c0.6-0.4,0.5-1.2,0.5-1.9
		c0-1.2-0.4-2.2-0.8-3.3c-0.5-1.3,0.1-2,1.2-2.1c1.1,0.2,1.7,0.9,1.2,2.1c-0.4,1.1-0.8,2.1-0.8,3.3c0,0.6-0.2,1.5,0.5,1.9
		c1.2,0.8,2.2,1.9,2.9,3.1c2.2,3.6,3.6,8.7,1.5,12.7c0.1-1.3,0.4-2.5,0.5-3.8c0-1.3-0.1-2.7-0.7-3.9c-0.8-1.8-1.6-3.5-2.7-5.1
		C26,76.3,25.2,75.2,24.2,74.7z M39.7,95.4c-1.4,0.3-3.1,0-4.6,0c-2.6,0-6.5,0.2-8-2.6c-0.8-1.6-0.8-3.4-0.7-5.2c0-0.6,0-1.2,0-1.7
		c0-1.1,0.2-2.3,0.3-3.5c0.1-0.9,0.1-1.7,0.4-2.5c0,0,0-0.2,0.1-0.3c0.7,1.3,1.4,2.6,1.8,3.9c0.2,0.7,0.4,1.4,0.4,2.1
		c-0.1,0.1-0.1,0.2-0.2,0.4c0,0.1,0,0.1-0.2,0.1s-0.6,0-0.8,0.1c-0.2,0.1-0.4,0.2-0.4,0.5c0,0.5-0.3,0.9-0.8,1c0,0,0,0,0,0.1
		c0,0,0,0.1,0.1,0.1c0.3,0,0.7-0.2,0.9-0.4c0.1-0.1,0.2-0.2,0.2-0.4c0.1-0.2-0.2-0.4,0.5-0.4c0.1,0,0.2,0,0.3,0
		c0.2,0.2,0.4,0.2,0.5,0.1c0,0.2,0,0.5,0,0.7c0,0.3-0.1,0.6-0.1,0.9c0,0,0,0-0.1,0.1c-0.1,0.2-1-0.3-0.9,0.3c0,0.4-0.1,0.4-0.4,0.6
		c-0.1,0-0.2,0.1-0.2,0.1c-0.1,0.1-0.2,0.1-0.2,0.2c0,0,0,0.1,0.1,0.1c0.4-0.2,1.1-0.2,1.1-0.8c0-0.1,0-0.1,0-0.2c0,0,0,0,0.1,0
		s0.3,0.1,0.4,0.1h0.1c-0.1,0.8-0.3,1.6-0.4,2.5c0,0.3,0.4,0.5,0.6,0.2c0.8-1,1.4-2.1,1.7-3.2c0,0.3-0.5,0.8-0.1,1.2
		c0.4,0.4,1.3,0,1.2,0.6c-0.1,0.3-0.1,0.8,0.3,1c0.5,0.3,1.2-0.2,1.2,0.9c0,0.1-0.2,0.8-0.2,0.9s0,0.1,0.1,0.1
		c0.3-0.4,0.7-1.2,0.4-1.6c-0.2-0.2-0.3-0.5-0.6-0.6c-0.6-0.2-0.6-0.4-0.6-1c0-0.3-0.2-0.4-0.3-0.5c-0.2-0.2-1,0.2-0.9-0.4
		c0-0.1,0.1-0.2,0.1-0.2c0.2,0.1,0.3,0.3,0.5,0.4s0.5,0.1,0.7,0c0.4-0.1,0.7-0.2,1.1-0.1c0.4,0.1,0.8,0.1,1.1-0.2
		c0.1-0.1,0.3-1,0.3-1c0.1,0,0.1,0,0.1-0.1c-0.1-0.1-0.1-0.1-0.2-0.2h-0.1c-0.2,0.1-0.2,0.4-0.3,0.6c-0.2,0.7-1,0.1-1.4,0.1
		c-0.6,0-1,0.5-1.4-0.1C32.2,88,32.1,88,32,88v-0.1c-0.1-0.1-0.3-0.2-0.3-0.1c0-0.1,0-0.1-0.1-0.1c0.2-1,0.3-2.1,0.2-3.1
		c0.2,0.1,0.4,0.1,0.5,0.1c0.2,0.2,0.3,0.4,0.3,0.7c0,0.2,0,0.4,0,0.6s0,0.5,0.1,0.6c0.2,0.2,0.6,0.1,0.7,0.5
		c0.1,0.2,0.4,0.6,0.3,0.7c0,0.1,0,0.1,0.1,0s0.2-0.2,0.1-0.3c-0.2-0.3-0.2-0.5-0.3-0.8c-0.1-0.2-0.1-0.2-0.3-0.3
		C33,86.2,33,86.2,33,85.8s0.1-0.9-0.2-1.2c0.5-0.1,0.4,0.6,0.8,0.8c0.2,0.1,0.5,0.2,0.8,0c0.2-0.1,0.7-0.8,1-0.7
		c0.1,0,0.1,0,0.1-0.1c-0.2-0.2-0.3-0.2-0.5-0.1s-0.4,0.3-0.6,0.4c-0.4,0.2-0.6-0.4-0.7-0.7c-0.1-0.2-0.5-0.3-0.7-0.3
		c-0.2,0.1-0.5,0.1-0.8,0.2c-0.1,0-0.3-0.1-0.4,0c-0.2-2.2-1-4.4-2-6.3l0,0c0.6,0.1,1.4,0.3,1.7,0.9l0,0c0,0.5,0.4,0.8,0.5,1.3
		c0.1,0.2-0.2,0.5-0.2,0.7c0,0.3,0.2,0.7,0.5,0.8c0.2,0.1,0.3,0.1,0.5,0.2c0.4,0.3,0.3,0.9,0.4,1.3l0,0c0.2-0.9,0.2-1.3-0.5-1.8
		c-0.7-0.4-0.1-0.8-0.2-1.3c-0.1-0.2-0.2-0.5-0.3-0.7c0.5,0.2,0.9-0.1,1.2,0.6c0.2,0.4,0.3,0.8,0.8,0.9c0.2,0,1.5-0.3,1.5-0.4h0.1
		c0,0,0,0,0-0.1c0,0,0-0.1-0.1-0.1C35.5,80,35.3,79.9,35,80c-0.7,0.2-0.9-0.2-1.1-0.8c-0.2-0.4-0.4-0.8-0.8-0.8
		c-0.9,0.1-0.9-0.5-1.5-0.9c-0.4-0.2-0.7-0.3-1.1-0.4c0.2-0.1,0.4-0.1,0.7-0.2c0.2,0,0.2-0.2,0.3-0.3c0.2,0.1,0.6,0.3,0.8,0.1
		c0.1-0.1,0.2-0.2,0.2-0.3c0.1-0.2,0.2,0,0.4,0.1c0.1,0.1,0.3,0.2,0.4,0.2c0.7-0.1,0.6-1,0.5-1.5c0-0.1-0.1-0.1-0.1,0
		c0,0.3-0.1,0.7-0.3,1c-0.2,0.4-0.6-0.4-0.9-0.4c-0.1,0-0.3,0.1-0.4,0.2c-0.2,0.3-0.4,0.2-0.7,0c0-0.1,0-0.1,0-0.1
		c-0.1-0.3-0.4-0.8-0.1-1.1c0.1-0.1,0.2-0.1,0.2-0.2c0.1-0.1,0.1-0.3,0-0.5c-0.2-0.5-0.9-2.4-0.1-2.6c0.1,0,0.1-0.1,0-0.1
		c-0.3-0.1-0.5,0.1-0.6,0.4c-0.1,0.4-0.1,0.7-0.1,1.1c0,0.3,0.3,0.6,0.3,1c0,0.5-0.2,0.4-0.3,0.8c-0.1,0.3,0,0.7,0.1,1
		c0,0.1,0.1,0.2,0.1,0.3c-0.1,0-0.2,0.1-0.2,0.2s0,0.2,0,0.2c-0.2,0.1-0.5,0-0.7,0.1s-0.3,0.3-0.4,0.4l0,0c-0.1-0.2-0.2-0.3-0.3-0.5
		c-0.4-0.6-0.8-1.2-1.3-1.7c0.1-0.9,0.4-1.8,0.6-2.6c0.3-1.4,0.6-3.3,1.3-4.6c1.5-2.4,3.8,0.6,4.7,1.9c0.4,0.6,0.9,1.3,1.3,1.9
		c0.4,0.7,0.4,1.5,0.7,2.2c1.1,2.7,1.7,5.5,2.6,8.3c1,2.9,0.7,5.9,1.3,8.8C40.2,91.6,40.6,95.2,39.7,95.4z"/>
	<path class="st7" d="M29.3,82.3c0.5,1.2,0.7,2.6,0.7,3.9s-0.3,2.5-0.5,3.8c2.1-4,0.7-9.1-1.5-12.7c-0.7-1.2-1.7-2.4-2.9-3.1
		c-0.6-0.4-0.5-1.2-0.5-1.9c0-1.2,0.4-2.2,0.8-3.3c0.5-1.3-0.1-2-1.2-2.1c-1.1,0.2-1.7,0.9-1.2,2.1c0.4,1.1,0.8,2.1,0.8,3.3
		c0,0.6,0.2,1.5-0.5,1.9c-1.2,0.8-2.2,1.9-2.9,3.1c-2.2,3.6-3.6,8.7-1.5,12.7c-0.1-1.3-0.4-2.5-0.5-3.8c0-1.3,0.1-2.7,0.7-3.9
		c0.8-1.8,1.6-3.5,2.7-5.1c0.6-0.9,1.4-2,2.4-2.5l0,0l0,0c1.1,0.5,1.8,1.6,2.4,2.5C27.7,78.8,28.5,80.5,29.3,82.3z"/>
	<path class="st6" d="M21.4,79.9c0,0,0-0.2-0.1-0.3c-0.7,1.3-1.4,2.6-1.8,3.9c-0.2,0.7-0.4,1.4-0.4,2.1c0.1,0.1,0.1,0.2,0.2,0.4
		c0,0.1,0,0.1,0.2,0.1s0.6,0,0.8,0.1c0.2,0.1,0.4,0.2,0.4,0.5c0,0.5,0.3,0.9,0.8,1c0,0,0,0,0,0.1c0,0,0,0.1-0.1,0.1
		c-0.3,0-0.7-0.2-0.9-0.4c-0.1-0.1-0.2-0.2-0.2-0.4c-0.1-0.2,0.2-0.4-0.5-0.4c-0.1,0-0.2,0-0.3,0c-0.2,0.2-0.4,0.2-0.5,0.1
		c0,0.2,0,0.5,0,0.7c0,0.3,0.1,0.6,0.1,0.9c0,0,0,0,0.1,0.1c0.1,0.2,1-0.3,0.9,0.3c0,0.4,0.1,0.4,0.4,0.6c0.1,0,0.2,0.1,0.2,0.1
		c0.1,0.1,0.2,0.1,0.2,0.2c0,0,0,0.1-0.1,0.1c-0.4-0.2-1.1-0.2-1.1-0.8c0-0.1,0-0.1,0-0.2c0,0,0,0-0.1,0s-0.3,0.1-0.4,0.1h-0.1
		c0.1,0.8,0.3,1.6,0.4,2.5c0,0.3-0.4,0.5-0.6,0.2c-0.8-1-1.4-2.1-1.7-3.2c0,0.3,0.5,0.8,0.1,1.2c-0.4,0.4-1.3,0-1.2,0.6
		c0.1,0.3,0.1,0.8-0.3,1c-0.5,0.3-1.2-0.2-1.2,0.9c0,0.1,0.2,0.8,0.2,0.9s0,0.1-0.1,0.1c-0.3-0.4-0.7-1.2-0.4-1.6
		c0.2-0.2,0.3-0.5,0.6-0.6c0.6-0.2,0.6-0.4,0.6-1c0-0.3,0.2-0.4,0.4-0.5c0.2-0.2,1,0.2,0.9-0.4c0-0.1,0-0.2-0.1-0.2
		c-0.2,0.1-0.3,0.3-0.5,0.4c-0.2,0.1-0.5,0.1-0.7,0c-0.4-0.1-0.7-0.2-1.1-0.1c-0.4,0.1-0.8,0.1-1.1-0.2c-0.1-0.1-0.3-1-0.3-1
		c-0.1,0-0.1,0-0.1-0.1c0.1-0.1,0.1-0.1,0.2-0.2h0.1c0.2,0.1,0.2,0.4,0.3,0.6c0.2,0.7,1,0.1,1.4,0.1c0.6,0,1,0.5,1.4-0.1
		c0.1-0.2,0.2-0.2,0.3-0.2v-0.1c0.1-0.1,0.3-0.2,0.3-0.1c0-0.1,0-0.1,0.1-0.1c-0.2-1-0.3-2.1-0.2-3.1c-0.2,0.1-0.4,0.1-0.5,0.1
		c-0.2,0.2-0.3,0.4-0.3,0.7c0,0.2,0,0.4,0,0.6s0,0.5-0.1,0.6c-0.2,0.2-0.6,0.1-0.7,0.5c-0.1,0.2-0.4,0.6-0.3,0.7c0,0.1,0,0.1-0.1,0
		s-0.2-0.2-0.1-0.3c0.2-0.3,0.2-0.5,0.3-0.8c0.1-0.2,0.1-0.2,0.3-0.3c0.3-0.2,0.3-0.2,0.3-0.6s-0.1-0.9,0.2-1.2
		c-0.5-0.1-0.4,0.6-0.8,0.8c-0.2,0.1-0.5,0.2-0.8,0c-0.2-0.1-0.7-0.8-1-0.7c-0.1,0-0.1,0-0.1-0.1c0.2-0.2,0.3-0.2,0.5-0.1
		s0.4,0.3,0.6,0.4c0.4,0.2,0.6-0.4,0.7-0.7c0.1-0.2,0.5-0.3,0.7-0.3c0.2,0.1,0.5,0.1,0.8,0.2c0.1,0,0.3-0.1,0.4,0
		c0.2-2.2,1-4.4,2-6.3l0,0c-0.6,0.1-1.4,0.3-1.7,0.9l0,0c0,0.5-0.4,0.8-0.5,1.3c-0.1,0.2,0.2,0.5,0.2,0.7c0,0.3-0.2,0.7-0.5,0.8
		c-0.2,0.1-0.3,0.1-0.5,0.2c-0.4,0.3-0.3,0.9-0.4,1.3l0,0c-0.2-0.9-0.2-1.3,0.5-1.8c0.7-0.4,0.1-0.8,0.2-1.3
		c0.1-0.2,0.2-0.5,0.3-0.7c-0.5,0.2-0.9-0.1-1.2,0.6c-0.2,0.4-0.3,0.8-0.8,0.9c-0.2,0-1.5-0.3-1.5-0.4h-0.1c0,0,0,0,0-0.1
		c0,0,0-0.1,0.1-0.1c0.2-0.1,0.4-0.2,0.7-0.1c0.7,0.2,0.9-0.2,1.1-0.8c0.2-0.4,0.4-0.8,0.8-0.8c0.9,0.1,0.9-0.5,1.5-0.9
		c0.4-0.2,0.7-0.3,1.1-0.4c-0.2-0.1-0.4-0.1-0.7-0.2c-0.2,0-0.2-0.2-0.3-0.3c-0.2,0.1-0.6,0.3-0.8,0.1c-0.1-0.1-0.2-0.2-0.2-0.3
		c-0.1-0.2-0.2,0-0.4,0.1c0.3,0.4,0.1,0.5-0.1,0.5c-0.7-0.1-0.6-1-0.5-1.5c0-0.1,0.1-0.1,0.1,0c0,0.3,0.1,0.7,0.3,1
		c0.2,0.4,0.6-0.4,0.9-0.4c0.1,0,0.3,0.1,0.4,0.2c0.2,0.3,0.4,0.2,0.7,0c0-0.1,0-0.1,0-0.1c0.1-0.3,0.4-0.8,0.1-1.1
		c-0.1-0.1-0.2-0.1-0.2-0.2c-0.1-0.1-0.1-0.3,0-0.5c0.2-0.5,0.9-2.4,0.1-2.6c-0.1,0-0.1-0.1,0-0.1c0.3-0.1,0.5,0.1,0.6,0.4
		c0.1,0.4,0.1,0.7,0.1,1.1c0,0.3-0.3,0.6-0.3,1c0,0.5,0.2,0.4,0.3,0.8c0.1,0.3,0,0.7-0.1,1c0,0.1-0.1,0.2-0.1,0.3
		c0.1,0,0.2,0.1,0.2,0.2s0,0.2,0,0.2c0.2,0.1,0.5,0,0.7,0.1s0.3,0.3,0.4,0.4l0,0c0.1-0.2,0.2-0.3,0.3-0.5c0.4-0.6,0.8-1.2,1.3-1.7
		c-0.1-0.9-0.4-1.8-0.6-2.6C20,71,19.7,69.1,19,67.8c-1.5-2.4-3.8,0.6-4.7,1.9c-0.4,0.6-0.9,1.3-1.3,1.9c-0.4,0.7-0.4,1.5-0.7,2.2
		c-1.1,2.7-1.7,5.5-2.6,8.3C8.7,85,9,88,8.4,90.9c-0.1,0.5-0.5,4.1,0.4,4.3c1.4,0.3,3.1,0,4.6,0c2.6,0,6.5,0.2,8-2.6
		c0.8-1.6,0.8-3.4,0.7-5.2c0-0.6,0-1.2,0-1.7c0-1.1-0.2-2.3-0.3-3.5C21.7,81.5,21.6,80.7,21.4,79.9z"/>
	<path class="st6" d="M38.8,82.2c-0.9-2.7-1.5-5.6-2.6-8.3c-0.3-0.7-0.4-1.5-0.7-2.2c-0.4-0.7-0.8-1.3-1.3-1.9
		c-0.9-1.3-3.2-4.4-4.7-1.9c-0.8,1.3-1,3.2-1.3,4.6c-0.2,0.8-0.5,1.7-0.6,2.6c0.5,0.5,0.9,1.1,1.3,1.7c0.1,0.1,0.2,0.3,0.3,0.5l0,0
		c0.1-0.1,0.2-0.3,0.4-0.4c0.2-0.1,0.5,0,0.7-0.1c0-0.1,0-0.1,0-0.2s0.1-0.1,0.2-0.2c0-0.1,0-0.2-0.1-0.3c-0.1-0.3-0.2-0.7-0.1-1
		s0.3-0.2,0.3-0.8c0-0.3-0.3-0.6-0.3-1s0-0.8,0.1-1.1c0.1-0.3,0.4-0.5,0.6-0.4c0.1,0,0.1,0.1,0,0.1c-0.8,0.2-0.1,2,0.1,2.6
		c0,0.1,0,0.3,0,0.5c0,0-0.1,0-0.2,0.1c-0.3,0.3,0,0.8,0.1,1.1v0.1c0.3,0.2,0.4,0.3,0.7,0c0.1-0.1,0.2-0.2,0.4-0.2
		c0.3-0.1,0.6,0.8,0.9,0.4c0.2-0.3,0.2-0.7,0.3-1c0-0.1,0.1-0.1,0.1,0c0,0.5,0.1,1.5-0.5,1.5c-0.1,0-0.3-0.1-0.4-0.2
		c-0.1-0.1-0.2-0.3-0.4-0.1C32,76.8,32,76.9,31.9,77c-0.2,0.2-0.5,0-0.8-0.1C31,77,31,77.2,30.8,77.2c-0.3,0.1-0.5,0.1-0.7,0.2
		c0.4,0.1,0.8,0.2,1.1,0.4c0.7,0.4,0.7,1,1.5,0.9c0.5-0.1,0.7,0.4,0.8,0.8c0.3,0.6,0.4,1,1.1,0.8c0.3-0.1,0.4,0,0.7,0.1
		c0,0,0.1,0,0.1,0.1c0,0,0,0,0,0.1h-0.1c0,0.1-1.3,0.5-1.5,0.4c-0.5-0.1-0.6-0.5-0.8-0.9c-0.3-0.8-0.7-0.5-1.2-0.6
		c0.1,0.2,0.2,0.5,0.3,0.7c0.1,0.5-0.5,0.9,0.2,1.3c0.8,0.5,0.8,0.8,0.5,1.8l0,0c-0.1-0.4,0.1-1.1-0.4-1.3c-0.2-0.1-0.3-0.1-0.5-0.2
		c-0.3-0.2-0.4-0.5-0.5-0.8c0-0.2,0.3-0.5,0.2-0.7c-0.1-0.5-0.5-0.8-0.5-1.3l0,0c-0.3-0.6-1.1-0.8-1.7-0.9l0,0c1,1.9,1.8,4.1,2,6.3
		c0.1,0,0.3,0,0.4,0c0.3-0.1,0.5-0.1,0.8-0.2c0.2-0.1,0.6,0,0.7,0.3c0.1,0.2,0.3,0.9,0.7,0.7c0.2-0.1,0.4-0.3,0.6-0.4
		c0.2-0.1,0.3-0.1,0.5,0.1c0,0,0,0.1-0.1,0.1c-0.2-0.1-0.8,0.6-1,0.7c-0.3,0.2-0.5,0.1-0.8,0c-0.3-0.2-0.3-0.9-0.8-0.8
		c0.3,0.3,0.2,0.9,0.2,1.2c0,0.3,0,0.4,0.3,0.6c0.2,0.1,0.2,0.2,0.3,0.3c0.1,0.3,0.1,0.6,0.3,0.8c0.1,0.1,0,0.2-0.1,0.3
		c0,0.1-0.1,0-0.1,0c0.1-0.1-0.3-0.5-0.3-0.7c-0.1-0.4-0.5-0.3-0.7-0.5c-0.1-0.1-0.1-0.4-0.1-0.6s0-0.4,0-0.6c0-0.3-0.1-0.5-0.3-0.7
		c-0.2,0-0.4,0-0.5-0.1c0.1,1.1,0,2.1-0.2,3.1l0.1,0.1c0-0.1,0.2,0,0.3,0.1v0.1c0.1,0,0.2,0.1,0.3,0.2c0.5,0.6,0.9,0.1,1.4,0.1
		c0.4,0,1.2,0.5,1.4-0.1c0.1-0.2,0.1-0.5,0.3-0.6h0.1c0.1,0.1,0.1,0,0.2,0.2c0,0,0,0.1-0.1,0.1c0,0-0.2,0.8-0.3,1
		c-0.3,0.3-0.8,0.2-1.1,0.2c-0.5-0.1-0.7,0-1.1,0.1c-0.2,0-0.5,0.1-0.7,0s-0.3-0.3-0.5-0.4c0,0.1-0.1,0.2-0.1,0.2
		c-0.2,0.6,0.7,0.2,0.9,0.4c0.2,0.1,0.4,0.3,0.3,0.5c0,0.6-0.1,0.8,0.6,1c0.3,0.1,0.5,0.4,0.6,0.6c0.3,0.5-0.2,1.2-0.4,1.6
		c0,0.1-0.1,0-0.1-0.1c0.1-0.2,0.2-0.8,0.2-0.9c0-1.1-0.8-0.6-1.2-0.9c-0.3-0.2-0.3-0.7-0.3-1c0.1-0.6-0.8-0.3-1.2-0.6
		c-0.3-0.3,0.2-0.9,0.1-1.2c-0.3,1.1-0.9,2.2-1.7,3.2c-0.2,0.2-0.6,0-0.6-0.2c0.1-0.8,0.2-1.7,0.4-2.5h-0.1c-0.1,0-0.3-0.1-0.4-0.1
		h-0.1c0,0.1,0,0.1,0,0.2c0,0.6-0.7,0.6-1.1,0.8c0,0-0.1,0-0.1-0.1c0.1-0.1,0.2-0.1,0.2-0.2c0.1,0,0.2-0.1,0.2-0.1
		c0.2-0.2,0.4-0.3,0.4-0.6c-0.1-0.6,0.8-0.1,0.9-0.3c0,0,0,0,0.1-0.1c0-0.3,0.1-0.6,0.1-0.9c0-0.2,0-0.5,0-0.7
		c-0.1,0.1-0.3,0.1-0.5-0.1c-0.1,0-0.2,0-0.3,0c-0.6,0-0.4,0.1-0.5,0.4c0,0.2-0.1,0.3-0.2,0.4c-0.2,0.2-0.6,0.4-0.9,0.4
		c0,0-0.1,0-0.1-0.1V88c0.4-0.1,0.8-0.5,0.8-1c0-0.2,0.2-0.4,0.4-0.5c0.2-0.1,0.6-0.2,0.8-0.1c0.1,0,0.1,0.1,0.2-0.1
		c0-0.1,0.1-0.2,0.2-0.4c-0.1-0.7-0.2-1.4-0.4-2.1c-0.4-1.3-1.1-2.7-1.8-3.9c0,0.2-0.1,0.3-0.1,0.3c-0.2,0.8-0.3,1.7-0.4,2.5
		C26.2,83.8,26,85,26,86.2c0,0.6,0,1.1,0,1.7c-0.1,1.8-0.1,3.6,0.7,5.2c1.5,2.8,5.4,2.6,8,2.6c1.5,0,3.2,0.3,4.6,0
		c0.9-0.2,0.6-3.8,0.4-4.3C39.5,88.1,39.8,85.1,38.8,82.2z"/>
</g>
<g>
	<path class="st5" d="M84.4,64c-0.1-0.3-0.2-0.7-0.2-1.1c-0.2-1-0.3-2-0.3-3.1c-0.1-2,0.2-3.9-0.4-5.9c-0.5-1.4-1.4-3.1-2.6-4
		c-0.7-0.5-1.5-1-2.3-1.1c0.2-0.1,0.5-0.2,0.7-0.3c0.5-0.2,1.3-0.4,1.7-0.8c0.4-0.4,0-1.2-0.2-1.6c-0.2-0.6-0.4-1.4-0.7-1.9
		c-0.1-0.2-0.4-0.2-0.6,0c-1,1.6-2.7,1.9-4.2,2.9c-0.6,0.4-0.8,1.1-0.8,1.9c0,0.4,0,1,0.3,1.4c-0.4-0.1-0.7-0.3-0.7-0.7
		c-0.2-0.5-0.2-1.2-0.1-1.7c0.1-1,0.9-1.6,1.7-2c0.6-0.4,1.2-0.8,1.9-1c0.3-0.1,0.6-0.1,0.8-0.4c0.7-1.1,0-3.9-1.5-3.9
		c0.2-0.7,0-1.5,0-2.2c0-0.6-0.8-0.6-1.3-0.5C75,38.3,75,38.7,75,39.3c0,0.7-0.2,1.6,0,2.3v0.1v0.1c-0.1-0.1-0.2-0.2-0.2-0.3
		s-0.1-0.1-0.1-0.2c-0.1-0.3-0.1-0.6-0.2-0.9c-0.2-0.6-0.2-1.3-0.2-1.9c0-0.6,0.1-1.1-0.7-0.8c-2,0.8-0.5,3.2,0,4.7
		c-0.5-0.4-1.5-2.2-1.8-2.4c-0.6-0.6-1-0.8-1.6-0.1c-0.7,0.6-0.6,1,0.1,1.6c0.4,0.4,0.9,0.7,1.3,1.1c0.2,0.2,0.4,0.4,0.6,0.7l0,0
		c-2,1.8-2.8,5.2-1.7,7.7c0.1,0.3,0.7,0.9,0.1,1.2c-0.5,0.2-0.7-0.2-0.8-0.7c-0.2-0.9-0.3-1.7-0.4-2.6c-0.1-0.8-0.1-1.8,0.2-2.6
		c0.3-0.9,0.8-1.6,1.1-2.4c0-0.1,0.1-0.2,0-0.3c-0.5-0.4-2-1.3-2.6-1c-0.8,0.5-0.9,2-1.1,2.9c-0.5,2.3-0.3,5.7,1.4,7.5
		c-0.3,0.6-0.8,1.2-1.1,1.9c-0.4,1-0.4,2.1-0.2,3.1c0.4,2.2,1.1,4.3,2.9,5.7c2,1.6,4.1,2.1,6.6,2c1.2-0.1,2.5-0.2,3.7-0.4
		c1.2-0.1,2.5-0.1,3.7-0.3c0.5,0,0.7-0.4,0.5-0.8C84.7,64.8,84.4,64,84.4,64z M71.7,63.4c-0.8-0.5-1.6-1.2-2.3-1.8
		c-0.9-0.7-1.2-2-1.5-3c-0.3-1.2-0.5-2.2-0.3-3.5c0.2-0.7,0.6-1.3,0.8-1.9c0,0,0.1-0.1,0-0.1l0,0l0,0c-0.9-1.3-1.1-3-1-4.5
		c0-1.6,0.1-3,0.6-4.5c0.3-1.1,1.2-0.6,2-0.2c0.1,0.1,0.2,0,0.2,0.1c-0.3,0.4-0.5,0.8-0.7,1.3c-0.6,1.2-0.6,2.8-0.4,4.1
		c0.1,0.6,0.2,1.2,0.3,1.7c0.1,0.4,0.2,1.2,0.5,1.5c0.4,0.5,1.5,0.2,1.7-0.3c0.2-0.3-0.1-0.8-0.2-1.1c-0.2-0.9-0.4-1.6-0.4-2.5
		c0-1.7,0.6-3.2,1.4-4.6l0,0c0,0,0.1-0.1,0.1-0.2c0.1-0.1,0.1-0.1,0.2-0.2v-0.1c0,0,0,0,0-0.1c0.2-0.7-0.6-1.1-1.1-1.5
		c-0.4-0.3-0.8-0.6-1.1-0.9c-0.8-0.6,0.4-1.5,1-0.9c0.7,0.8,1.2,1.7,1.8,2.6c0.1,0.1,0.1,0.1,0.2,0.2c0.1,0.1,0.3,0.1,0.4,0.1l0,0
		c0,0,0,0,0.1,0l0.1-0.1c0-0.1,0-0.1,0-0.2c0,0,0,0,0-0.1c-0.3-1.2-1-2.3-1.1-3.6c-0.1-0.6,0.5-0.9,0.9-1c0.1,0,0,0.5,0,0.5
		c0,0.6,0.1,1.1,0.1,1.7c0.1,0.4,0.1,2.1,0.7,2.1c0.3,0,0.5-0.2,0.5-0.4s0.1-0.4,0.1-0.6c0-0.3,0-0.7,0-1c0-0.5,0-1.1,0.1-1.6
		c0.1-0.3,0.4-0.3,0.6-0.3c0.4,0,0.3,0.6,0.3,0.8c0,0.3,0,0.5,0,0.8s0,0.5,0,0.7l0,0c0,0.1,0,0.1,0,0.2c1.1,0.7,1.6,1.1,1.6,2.4
		c0,0.5-0.1,0.9-0.6,1.1c-0.3,0.1-0.6,0.3-0.9,0.4c-1.2,0.7-2.4,1.3-2.9,2.7c-0.4,1.1-0.3,2.8,0.7,3.5c0.5,0.4,0.9,0,0.8-0.5
		c0,0,0,0,0-0.1c-0.3-0.9-0.3-2,0.3-2.7c0.4-0.5,1.3-0.7,1.8-0.9c1.1-0.4,1.9-1,2.5-1.8c0.1,0.4,0.2,0.8,0.3,1.1
		c0,0.1,0.5,1.1,0.4,1.1c-0.3,0.2-0.6,0.3-0.9,0.4c-0.8,0.4-1.9,0.7-2.6,1.4c-0.1,0.1-0.2,0.1-0.3,0.2c-0.2,0.1-0.1,0.3-0.1,0.5l0,0
		c0,0.1,0.1,0.1,0.1,0.1l0,0h0.1c0.6,0.2,1.3,0.1,2,0.2c0.3,0.1,0.6,0.2,0.9,0.4c-0.1,0.8-0.1,1.4-0.9,1.9c-0.3,0.2-0.4,0.4-0.6,0.7
		v0.1c-0.2,0.1-0.5,0.2-0.7,0.3c-0.4,0.2-0.5-0.3-0.9-0.1c-0.3,0.1-0.5,1-0.6,1.2l-0.7-0.3c0,0-0.1-0.1-0.2,0
		c-0.2,0.1-0.2,0.4-0.3,0.6c-0.4,0.9-1-0.4-1.3-0.7c0,0-0.1,0,0,0c0.1,0.2,0.9,1.9,1.3,1.2c0.2-0.3,0.3-0.5,0.4-0.8c0,0,0,0,0.1,0.1
		c0.2,0.1,0.3,0.1,0.5,0.2c0.8,0.5,0.6-1.4,1.3-1c0.1,0.1,0.3,0.1,0.5,0c-0.1,0.1-0.2,0.2-0.2,0.3c-0.2,0.4-0.1,0.9-0.1,1.4
		c0,0.4-0.3,0.4-0.4,0.7c-0.2,0.8-0.7,1.1-1.3,1.5c-0.4,0.2-0.5,0.6-0.7,1l0,0c0.4-0.8,0.9-1,1.6-1.4c0.3-0.1,0.4-0.6,0.5-0.9
		c0.1-0.3,0.3-0.3,0.4-0.5c0.2-0.4,0-1.1,0.1-1.6c0-0.2,0.7-0.6,0.8-0.9c0.2-0.4,0.4-0.7,0.8-1c0.1,0.4,0.4,0.9,0,1.4
		c-0.1,0.1-0.1,0.2-0.1,0.3c0,0.7,0.6,0.4,0.5,1.5c0,0.3-0.3,0.6-0.5,0.8c-0.9,0.7,0.7,0.7,0,1.3s0.1,1.1,0.5,1.4l0,0
		c-0.4-0.5-0.5-0.9-0.1-1.4c0.1-0.1,0.2-0.3,0.1-0.4c0,0-0.7-0.5-0.3-0.7c0.1,0,0.1-0.1,0.2-0.1c0.2,0.3,0.8,0.2,1.1,0.2
		c0,0,0,0.4,0,0.5s0.1,0.2,0.2,0.3c0.2,0.1,0.6,0.1,0.8,0.1c0.1,0,0.1-0.1,0-0.1c-0.2,0-0.4-0.1-0.5-0.1c-0.3-0.1-0.2-0.4-0.2-0.6
		c0-0.1,0-0.3-0.2-0.4c-0.2-0.1-0.9,0.2-1.1-0.1c0-0.1,0-0.1,0.1-0.1c0.3-0.5,0.2-1.2-0.1-1.6c-0.4-0.5,0.2-0.6,0.2-1
		s-0.3-0.8-0.2-1.2c0.4-0.3,0.7-1,0.8-1.6c0.2,0.2,0.5,0.3,0.7,0.5c1.3,1,2.1,3.1,2.2,4.7c0.1,1.6-0.1,3.1,0,4.7
		c0,0.7,0.2,1.4,0.3,2.1c0.1,0.4,0.2,0.9,0.2,1.3C79.7,63.9,75.4,65.5,71.7,63.4z"/>
	<path class="st6" d="M83.1,60.8c-0.1-1.6,0.1-3.1,0-4.7c-0.1-1.6-0.9-3.7-2.2-4.7c-0.2-0.2-0.4-0.3-0.7-0.5
		c-0.1,0.6-0.4,1.3-0.8,1.6c-0.1,0.4,0.2,0.8,0.2,1.2s-0.6,0.5-0.2,1c0.3,0.4,0.4,1.1,0.1,1.6c0,0,0,0.1-0.1,0.1
		c0.1,0.3,0.8,0.1,1.1,0.1c0.2,0,0.2,0.2,0.2,0.4s-0.1,0.5,0.2,0.6c0.2,0.1,0.3,0.1,0.5,0.1c0.1,0,0.1,0.1,0,0.1
		c-0.2,0-0.6,0-0.8-0.1c-0.1-0.1-0.1-0.2-0.2-0.3c0-0.1,0-0.5,0-0.5c-0.3,0-0.9,0.1-1.1-0.2c0,0.1-0.1,0.1-0.2,0.1
		c-0.4,0.2,0.3,0.6,0.3,0.7c0.1,0.2,0,0.3-0.1,0.4c-0.4,0.5-0.3,0.9,0.1,1.4l0,0c-0.4-0.4-1.2-0.9-0.5-1.4c0.7-0.6-0.9-0.6,0-1.3
		c0.2-0.2,0.5-0.5,0.5-0.8c0.2-1.1-0.5-0.8-0.5-1.5c0-0.1,0.1-0.2,0.1-0.3c0.4-0.5,0.1-0.9,0-1.4c-0.4,0.3-0.6,0.5-0.8,1
		c-0.1,0.3-0.8,0.7-0.8,0.9c-0.1,0.4,0.2,1.1-0.1,1.6c-0.1,0.2-0.3,0.2-0.4,0.5s-0.2,0.8-0.5,0.9c-0.7,0.4-1.2,0.6-1.6,1.4
		c0,0-0.1,0,0,0c0.2-0.4,0.3-0.8,0.7-1c0.6-0.4,1.1-0.7,1.3-1.5c0.1-0.3,0.4-0.3,0.4-0.7c0-0.5-0.1-0.9,0.1-1.4
		c0-0.1,0.1-0.2,0.2-0.3c-0.2,0.1-0.4,0.1-0.5,0c-0.7-0.4-0.5,1.4-1.3,1c-0.2-0.1-0.3-0.1-0.5-0.2c-0.1-0.1-0.1-0.1-0.1-0.1
		c-0.1,0.3-0.3,0.6-0.4,0.8c-0.4,0.6-1.2-1.1-1.3-1.2c0,0,0-0.1,0,0c0.3,0.3,0.9,1.6,1.3,0.7c0.1-0.2,0.1-0.5,0.3-0.6
		c0,0,0.1,0,0.2,0l0.7,0.3c0.1-0.2,0.4-1.1,0.6-1.2c0.4-0.2,0.5,0.3,0.9,0.1c0.2-0.1,0.5-0.2,0.7-0.3v-0.1c0.1-0.4,0.2-0.5,0.6-0.7
		c0.8-0.5,0.8-1.1,0.9-1.9c-0.3-0.1-0.6-0.3-0.9-0.4c-0.7-0.2-1.4,0-2-0.2h-0.1l0,0c-0.1,0-0.2,0-0.1-0.1l0,0
		c-0.1-0.1-0.1-0.3,0.1-0.5c0.1-0.1,0.2-0.2,0.3-0.2c0.6-0.7,1.8-1,2.6-1.4c0.3-0.2,0.7-0.2,0.9-0.4c0.1-0.1-0.3-1.1-0.4-1.1
		c-0.1-0.3-0.2-0.7-0.3-1.1c-0.6,0.9-1.4,1.4-2.5,1.8c-0.6,0.2-1.4,0.4-1.8,0.9c-0.6,0.7-0.6,1.9-0.3,2.7c0,0,0,0,0,0.1
		c0.1,0.4-0.4,0.8-0.8,0.5c-0.9-0.7-1.1-2.4-0.7-3.5c0.5-1.3,1.7-2,2.9-2.7c0.3-0.1,0.6-0.3,0.9-0.4c0.5-0.1,0.6-0.6,0.6-1.1
		c0-1.3-0.5-1.8-1.6-2.4c-0.1,0-0.1-0.1,0-0.2l0,0c0-0.2,0-0.5,0-0.7c0-0.3,0-0.5,0-0.8c0-0.2,0.1-0.8-0.3-0.8c-0.3,0-0.6,0-0.6,0.3
		c-0.1,0.5-0.1,1.1-0.1,1.6c0,0.3,0,0.7,0,1c0,0.2,0,0.4-0.1,0.6c0,0.2-0.3,0.4-0.5,0.4c-0.6,0-0.7-1.7-0.7-2.1
		C74,39.8,74,39.2,74,38.6v-0.5c-0.4,0.2-1,0.5-0.9,1c0.1,1.3,0.8,2.4,1.1,3.6c0,0,0,0,0,0.1c0,0,0,0.1,0,0.2l-0.1,0.1
		c0,0,0,0-0.1,0l0,0c-0.1,0-0.3,0-0.4-0.1c-0.1,0-0.2-0.1-0.2-0.2c-0.6-0.8-1.1-1.8-1.8-2.6c-0.5-0.6-1.8,0.3-1,0.9
		c0.4,0.3,0.8,0.6,1.1,0.9c0.4,0.3,1.2,0.8,1.1,1.5c0,0,0,0,0,0.1v0.1c0,0.1-0.1,0.1-0.2,0.2c0,0.1-0.1,0.1-0.1,0.2l0,0
		c-0.8,1.5-1.4,2.9-1.4,4.6c0,0.9,0.2,1.6,0.4,2.5c0.1,0.3,0.3,0.8,0.2,1.1c-0.3,0.5-1.3,0.8-1.7,0.3c-0.2-0.3-0.4-1.1-0.5-1.5
		c-0.1-0.6-0.2-1.1-0.3-1.7c-0.1-1.3-0.2-2.9,0.4-4.1c0.2-0.4,0.5-0.9,0.7-1.3c0.1-0.1,0-0.1-0.2-0.1c-0.7-0.4-1.6-0.9-2,0.2
		c-0.4,1.5-0.6,2.9-0.6,4.5c0,1.5,0.2,3.2,1,4.5l0,0l0,0v0.1c-0.2,0.7-0.7,1.2-0.8,1.9c-0.3,1.2-0.1,2.3,0.3,3.5
		c0.3,1,0.6,2.3,1.5,3c0.8,0.6,1.5,1.3,2.3,1.8c3.7,2.1,7.9,0.5,11.9,0.8c0-0.4-0.1-0.9-0.2-1.3C83.3,62.1,83.1,61.5,83.1,60.8z"/>
</g>
<g>
	<path class="st5" d="M129.7,40.8c-1.9,0.2-3.8,0.2-5.7,0.2c-0.9,0-1.9-0.1-2.8-0.2c-0.9-0.1-1.7-0.5-2.6-0.8
		c-1.5-0.4-2.5-1.5-4.1-1.2c-1.5,0.3-2.7,0.3-3.7,1.5c-1.1,1.3-1.7,2.8-1.9,4.5c-0.5,3.7-0.2,7.8,0.8,11.4c0.4,1.6,1,3.1,1.9,4.5
		c0.6,0.9,1.2,1.6,2.3,1.2c0.9-0.1,1.8-1.1,2.3-1.8c1.3-1.6,2.9-3.2,4.7-4.2c0.6-0.3,1.2-0.7,1.8-1.1c0.8-0.3,1.6-0.5,2.5-0.7
		s1.8,0,2.7-0.2c1-0.2,2-0.4,2.9-0.9c3.4-1.6,6.1-3.9,8.2-6.9c2.2-3-1.2-5.6-4.1-5.6C133.1,40.8,131.4,40.6,129.7,40.8z M138.3,44.6
		c0.1,1-1,2-1.7,2.6c-2.4,2.2-5,4.5-8.2,5.5c-0.8,0.2-1.7,0.2-2.5,0.3c0.1-0.1,0.2-0.1,0.3-0.2c1.2-0.7,2.6-2.7,2.3-4l0,0
		c0,0,0,0,0-0.1c0,0,0,0-0.1,0c-0.5,2.2-1.7,3.4-3.7,4.3c-1.6,0.8-3.2,1.4-4.8,2.3c-1.4,0.8-3,2.2-4,3.4c-0.3,0.4-0.6,0.8-1,1.2
		c-0.5,0.5-0.6,0.8-1.3,1c-1.1,0-1.8-1.9-2.2-2.8c-0.7-1.6-1.1-3.5-1.2-5.3c-0.2-1.7-0.4-3.3-0.4-5c0-2.7,0.9-9,5-7.6
		c1.2,0.4,2.1,1.3,3.3,1.7c1.5,0.6,2.7,1.1,4.3,1.1c3,0.1,5.7-0.1,8.7-0.6c1.5-0.3,3.4-0.6,4.9-0.3
		C137.2,42.4,138.2,43.2,138.3,44.6z"/>
	<path class="st7" d="M131,42.4c-2.9,0.5-5.7,0.7-8.7,0.6c-1.6,0-2.9-0.6-4.3-1.1c-1.2-0.5-2.1-1.4-3.3-1.7c-4.2-1.3-5,4.9-5,7.6
		c0,1.7,0.3,3.3,0.4,5c0.2,1.8,0.5,3.7,1.2,5.3c0.4,0.8,1.1,2.8,2.2,2.8c0.7-0.2,0.8-0.5,1.3-1c0.4-0.4,0.7-0.8,1-1.2
		c1-1.2,2.6-2.7,4-3.4c1.5-0.9,3.2-1.5,4.8-2.3c2-1,3.2-2.1,3.7-4.3h0.1c0,0,0,0,0,0.1l0,0c0.4,1.3-1.1,3.3-2.3,4
		c-0.1,0.1-0.2,0.1-0.3,0.2c0.9-0.1,1.8,0,2.5-0.3c3.2-1,5.8-3.3,8.2-5.5c0.7-0.6,1.8-1.6,1.7-2.6c-0.1-1.3-1.1-2.2-2.4-2.4
		C134.4,41.9,132.6,42.2,131,42.4z"/>
</g>
<g>
	<path class="st5" d="M22.6,61.2c0.3,0.8,1.9,0.9,2.5,0.9c0.1,0,0.2-0.1,0.3-0.1c0.1-0.1,0.1-0.1,0.1-0.2c0-1.3-0.1-2.6-0.1-3.8
		s-0.4-2.4-0.7-3.5c-0.3-1.2-0.6-2.4-1.1-3.6c-0.4-0.8-0.1-1,0.7-1.2c0.6-0.2,1.4-0.4,2.1-0.5c0.3,0,0.5-0.4,0.2-0.6
		c-0.5-0.6-1-1.2-1.4-1.9c-0.2-0.4-0.3-0.9-0.7-1.1c-0.2-0.1-0.3-0.1-0.4,0.1c-1,1-2.5,1.2-3.9,1.3c0.3-0.6,0.5-1.2,0.6-1.9
		c0.4-2.4-0.1-4.3-2.4-5.5c-1.1-0.5-2.4-0.7-3.6-0.7c-1.5-0.1-2.9,0.4-4.2,1C8.1,41,7.2,43.4,6.9,46c-0.1,1.4,0,2.8,0.4,4.1
		c0.4,1.2,0.8,2.6,1.6,3.6c1.8,2,4.2,3,6.8,3.2c2.2,0.2,4.9-1,5.3-3.4c0.1-0.7,0.1-1.5,0.1-2.4c0.9,0.8,1.1,2.5,1.1,3.6
		c0,1.2,0,2.5,0.1,3.7C22.4,59.4,22.2,60.4,22.6,61.2z M19.8,53.2c-0.4,1.9-3.2,2.3-4.7,2.1c-2-0.2-4.4-1.2-5.6-2.9
		C8.4,50.6,8,48.2,8.1,46c0.1-2.3,1.3-4.2,3.5-5.1c2.1-0.9,4.1-0.6,6.3-0.1c0.8,0.2,2,1,2.3,1.8c0.4,1,0.3,2.2,0,3.1
		c-0.3,1.2-1,2.2-2.1,2.8c-0.4,0.2-1.1,0.4-1.2,0.9c0,0,0,0.1,0.1,0c0.2-0.2,1-0.5,1.3-0.5c0.5-0.1,0.8-0.5,1.2-0.8
		c0.3,0.4,0.4,1,0.6,1.5C20.2,50.7,20.1,52.1,19.8,53.2z M21.1,50.6c-0.2-1.2-0.5-2.3-1.4-2.9c0.1-0.2,0.3-0.3,0.4-0.5
		c0.5,0.2,0.9,0.3,1.5,0.3c0.7,0,1.5-0.2,2.1-0.5c0.3-0.1,0.5-0.3,0.7-0.5c0,0,0.1,0.1,0.1,0.2c0.1,0.1,0.1,0.2,0.2,0.4
		c0.3,0.6,0.6,1.1,1,1.6c-1,0.2-2.1,0.4-2.9,1c-0.7,0.5,0.3,1.9,0.5,2.5c0.6,1.5,0.9,3.2,1.2,4.8c0.3,1.5,0.2,3.1,0.2,4.7
		c-0.6,0-1.7-0.2-1.8-0.9c0-0.5-0.1-1.1-0.1-1.6c-0.1-1.3,0-2.5-0.1-3.8C22.7,54.2,22.7,50.7,21.1,50.6z"/>
	<path class="st7" d="M22.9,59c0,0.5,0.1,1.1,0.1,1.6c0.1,0.7,1.1,0.8,1.8,0.9c0-1.6,0.1-3.2-0.2-4.7c-0.3-1.6-0.7-3.3-1.2-4.8
		c-0.2-0.5-1.2-1.9-0.5-2.5c0.8-0.6,1.9-0.8,2.9-1c-0.4-0.5-0.7-1-1-1.6c-0.1-0.1-0.1-0.2-0.2-0.4c0-0.1-0.1-0.1-0.1-0.2
		c-0.2,0.2-0.4,0.4-0.7,0.5c-0.6,0.3-1.4,0.5-2.1,0.5c-0.6,0-1-0.1-1.5-0.3c-0.1,0.2-0.2,0.4-0.4,0.5c0.8,0.6,1.2,1.7,1.4,2.9
		c1.6,0.1,1.7,3.6,1.7,4.6C22.9,56.5,22.8,57.7,22.9,59z"/>
	<path class="st6" d="M19.3,48.1c-0.3,0.3-0.7,0.7-1.2,0.8c-0.3,0.1-1.1,0.3-1.3,0.5h-0.1c0.2-0.5,0.8-0.7,1.2-0.9
		c1.1-0.6,1.8-1.6,2.1-2.8c0.3-1,0.4-2.2,0-3.1c-0.3-0.8-1.4-1.7-2.3-1.8c-2.2-0.4-4.1-0.7-6.3,0.1C9.3,41.8,8,43.7,7.9,46
		c-0.1,2.1,0.2,4.6,1.5,6.4c1.2,1.7,3.6,2.7,5.6,2.9c1.6,0.2,4.3-0.2,4.7-2.1c0.3-1.1,0.4-2.5,0-3.7C19.8,49.1,19.6,48.5,19.3,48.1z
		"/>
	<path class="st5" d="M39.8,38.7c-1.2,0.1-2.5,0.2-3.6,0.7c-2.3,1.2-2.9,3.1-2.4,5.5c0.1,0.7,0.3,1.3,0.6,1.9
		c-1.4-0.1-2.9-0.3-3.9-1.3c-0.1-0.1-0.3-0.1-0.4-0.1c-0.4,0.2-0.5,0.7-0.7,1.1c-0.4,0.7-0.8,1.3-1.4,1.9c-0.2,0.2-0.1,0.6,0.2,0.6
		c0.6,0.1,1.5,0.2,2.1,0.5c0.8,0.3,1.1,0.4,0.7,1.2c-0.5,1.2-0.8,2.4-1.1,3.6c-0.3,1.1-0.7,2.3-0.7,3.5c0,1.3-0.1,2.6-0.1,3.8
		c0,0.1,0,0.2,0.1,0.2c0,0.1,0.1,0.1,0.3,0.1c0.7,0,2.2-0.2,2.5-0.9c0.4-0.8,0.2-1.9,0.2-2.7c0.1-1.2,0.1-2.5,0.1-3.7
		c0-1.1,0.2-2.8,1.1-3.6c-0.1,0.9,0,1.7,0.1,2.4c0.3,2.4,3,3.6,5.3,3.4c2.6-0.2,5.1-1.2,6.8-3.2c0.8-1,1.2-2.4,1.6-3.6
		c0.4-1.4,0.6-2.7,0.4-4.1c-0.3-2.7-1.2-5.1-3.7-6.3C42.7,39.1,41.3,38.6,39.8,38.7z M33.6,50.6c-1.6,0.1-1.7,3.6-1.7,4.6
		c-0.1,1.3,0,2.5-0.1,3.8c0,0.5-0.1,1.1-0.1,1.6c-0.1,0.7-1.1,0.8-1.8,0.9c0-1.6-0.1-3.2,0.2-4.7c0.3-1.6,0.7-3.3,1.2-4.8
		c0.2-0.5,1.2-1.9,0.5-2.5c-0.8-0.6-1.9-0.8-2.9-1c0.4-0.5,0.7-1,1-1.6c0.1-0.1,0.1-0.2,0.2-0.4c0-0.1,0.1-0.1,0.1-0.2
		c0.2,0.2,0.4,0.4,0.7,0.5c0.6,0.3,1.4,0.5,2.1,0.5c0.6,0,1-0.1,1.5-0.3c0.1,0.2,0.2,0.4,0.4,0.5C34.1,48.3,33.7,49.4,33.6,50.6z
		 M46.5,46c0.1,2.1-0.2,4.6-1.5,6.4c-1.2,1.7-3.6,2.7-5.6,2.9c-1.6,0.2-4.3-0.2-4.7-2.1c-0.2-1.1-0.4-2.5,0-3.7
		c0.1-0.5,0.3-1.1,0.6-1.5c0.3,0.3,0.7,0.7,1.2,0.8c0.3,0.1,1.1,0.3,1.3,0.5h0.1c-0.2-0.5-0.8-0.7-1.2-0.9c-1.1-0.6-1.8-1.6-2.1-2.8
		c-0.3-1-0.4-2.2,0-3.1c0.3-0.8,1.4-1.7,2.3-1.8c2.2-0.4,4.1-0.7,6.3,0.1C45.2,41.8,46.4,43.7,46.5,46z"/>
	<path class="st7" d="M34.9,47.7c-0.1-0.2-0.3-0.3-0.4-0.5c-0.5,0.2-0.8,0.3-1.5,0.3s-1.5-0.2-2.1-0.5c-0.3-0.1-0.5-0.3-0.7-0.5
		c0,0-0.1,0.1-0.1,0.2c-0.1,0.1-0.1,0.2-0.2,0.4c-0.3,0.6-0.6,1.1-1,1.6c1,0.2,2.1,0.4,2.9,1c0.7,0.5-0.3,1.9-0.5,2.5
		c-0.6,1.5-0.9,3.2-1.2,4.8c-0.3,1.5-0.2,3.1-0.2,4.7c0.6,0,1.7-0.2,1.8-0.9c0-0.5,0.1-1.1,0.1-1.6c0.1-1.3,0-2.5,0.1-3.8
		c0.1-1,0.1-4.5,1.7-4.6C33.7,49.4,34.1,48.3,34.9,47.7z"/>
	<path class="st6" d="M36.8,40.8c-0.8,0.2-2,1-2.3,1.8c-0.4,1-0.3,2.2,0,3.1c0.3,1.2,1,2.2,2.1,2.8c0.4,0.2,1.1,0.4,1.2,0.9
		c0,0,0,0.1-0.1,0c-0.2-0.2-1-0.5-1.3-0.5c-0.5-0.1-0.8-0.5-1.2-0.8c-0.3,0.4-0.4,1-0.6,1.5c-0.3,1.1-0.2,2.5,0,3.7
		c0.4,1.9,3.2,2.3,4.7,2.1c2-0.2,4.4-1.2,5.6-2.9c1.2-1.8,1.5-4.3,1.5-6.4c-0.1-2.3-1.3-4.2-3.5-5.1C40.9,40,39,40.4,36.8,40.8z"/>
</g>
</svg>
