<?xml version="1.0" encoding="utf-8"?>
<!-- Generator: Adobe Illustrator 25.1.0, SVG Export Plug-In . SVG Version: 6.00 Build 0)  -->
<svg version="1.1" id="Layer_1" xmlns="http://www.w3.org/2000/svg" xmlns:xlink="http://www.w3.org/1999/xlink" x="0px" y="0px"
	 viewBox="0 0 141 84" style="enable-background:new 0 0 141 84;" xml:space="preserve">
<style type="text/css">
	.st0{fill:#99D3CB;}
	.st1{fill:#FFF9EF;}
	.st2{fill:#6FCACD;}
	.st3{fill:#DAECCD;}
	.st4{fill:#871C1C;}
	.st5{fill:none;stroke:#505050;stroke-miterlimit:10;}
	.st6{opacity:0.5;fill:#505050;enable-background:new    ;}
	.st7{opacity:0.2;fill:#505050;enable-background:new    ;}
	.st8{fill:#AF4B46;}
	.st9{opacity:0.3;fill:#505050;stroke:#505050;stroke-miterlimit:10;enable-background:new    ;}
	.st10{fill:#9E2623;}
	.st11{fill:#D60505;}
	.st12{fill:#890707;}
	.st13{fill:#045AA8;}
	.st14{fill:#142E54;}
	.st15{fill:#EDBD88;}
	.st16{fill:#AF0202;}
	.st17{fill:#3EB236;}
	.st18{fill:#A5A49D;}
	.st19{fill:#C6976A;}
	.st20{fill:#EAE7D9;}
</style>
<g>
	<path class="st0" d="M85.8-20.1c0-2.3-1.7-4.1-3.8-4.1h-0.8c-2.1,0-3.8,1.8-3.8,4.1v6.6h8.5L85.8-20.1L85.8-20.1z"/>
	<path class="st1" d="M81.1-2.7h0.8c2.1,0,3.8-1.8,3.8-4.1v-6.6h-8.5v6.6C77.3-4.6,79-2.7,81.1-2.7z"/>
	<path class="st2" d="M84.3-13.5h1.5v-6.6c0-2.3-1.7-4.1-3.8-4.1h-0.8c-1.3,0-2.5,0.7-3.2,1.8c0.4-0.2,0.8-0.3,1.3-0.3
		C82-22.7,84.3-18.6,84.3-13.5z"/>
	<path class="st3" d="M84.3-13.5c0,5.1-2.3,9.2-5.1,9.2c-0.4,0-0.9-0.1-1.3-0.3c0.7,1.1,1.9,1.8,3.2,1.8H82c2.1,0,3.8-1.8,3.8-4.1
		v-6.6L84.3-13.5L84.3-13.5z"/>
	<path class="st4" d="M81.4-24.9h0.8c2.4,0,4.4,2.1,4.4,4.7v13.3c0,2.6-2,4.7-4.4,4.7h-0.8C79-2.2,77-4.3,77-6.9v-13.3
		C77-22.7,79-24.9,81.4-24.9z M82.3-3.3c1.8,0,3.2-1.6,3.2-3.5v-13.3c0-1.9-1.4-3.5-3.2-3.5h-0.8c-1.8,0-3.2,1.6-3.2,3.5v13.3
		c0,1.9,1.4,3.5,3.2,3.5H82.3z"/>
	<path class="st4" d="M77.9-14.1h8.2c0.3,0,0.6,0.3,0.6,0.6s-0.3,0.6-0.6,0.6h-8.2c-0.3,0-0.6-0.3-0.6-0.6S77.6-14.1,77.9-14.1z"/>
</g>
<g>
	<path class="st0" d="M37.1-20.1c0-2.3-1.7-4.1-3.8-4.1h-0.8c-2.1,0-3.8,1.8-3.8,4.1v6.6h8.5v-6.6H37.1z"/>
	<path class="st1" d="M32.4-2.7h0.8c2.1,0,3.8-1.8,3.8-4.1v-6.6h-8.5v6.6C28.6-4.6,30.3-2.7,32.4-2.7z"/>
	<path class="st2" d="M35.6-13.5h1.5v-6.6c0-2.3-1.7-4.1-3.8-4.1h-0.8c-1.3,0-2.5,0.7-3.2,1.8c0.4-0.2,0.8-0.3,1.3-0.3
		C33.3-22.7,35.6-18.6,35.6-13.5z"/>
	<path class="st3" d="M35.6-13.5c0,5.1-2.3,9.2-5.1,9.2c-0.4,0-0.9-0.1-1.3-0.3c0.7,1.1,1.9,1.8,3.2,1.8h0.8c2.1,0,3.8-1.8,3.8-4.1
		v-6.6L35.6-13.5L35.6-13.5z"/>
	<path class="st4" d="M32.7-24.9h0.8c2.5,0,4.5,2.2,4.5,4.8v13.3c0,2.6-2,4.7-4.4,4.7h-0.8c-2.4,0-4.4-2.1-4.4-4.7v-13.3
		C28.3-22.7,30.3-24.9,32.7-24.9z M33.6-3.3c1.8,0,3.2-1.6,3.2-3.5v-13.3c0-1.9-1.4-3.5-3.2-3.5h-0.8c-1.8,0-3.2,1.6-3.2,3.5v13.3
		c0,1.9,1.4,3.5,3.2,3.5H33.6z"/>
	<path class="st4" d="M29.2-14.1h8.2c0.3,0,0.6,0.3,0.6,0.6s-0.3,0.6-0.6,0.6h-8.2c-0.3,0-0.6-0.3-0.6-0.6S28.9-14.1,29.2-14.1z"/>
</g>
<g>
	<path class="st0" d="M134.4-20.1c0-2.3-1.7-4.1-3.8-4.1h-0.8c-2.1,0-3.8,1.8-3.8,4.1v6.6h8.5L134.4-20.1L134.4-20.1z"/>
	<path class="st1" d="M129.8-2.7h0.8c2.1,0,3.8-1.8,3.8-4.1v-6.6h-8.5v6.6C126-4.6,127.7-2.7,129.8-2.7z"/>
	<path class="st2" d="M133-13.5h1.5v-6.6c0-2.3-1.7-4.1-3.8-4.1h-0.8c-1.3,0-2.5,0.7-3.2,1.8c0.4-0.2,0.8-0.3,1.3-0.3
		C130.7-22.7,133-18.6,133-13.5z"/>
	<path class="st3" d="M133-13.5c0,5.1-2.3,9.2-5.1,9.2c-0.4,0-0.9-0.1-1.3-0.3c0.7,1.1,1.9,1.8,3.2,1.8h0.8c2.1,0,3.8-1.8,3.8-4.1
		v-6.6L133-13.5L133-13.5z"/>
	<path class="st4" d="M130.1-24.9h0.8c2.4,0,4.4,2.1,4.4,4.7v13.3c0,2.6-2,4.7-4.4,4.7h-0.8c-2.4,0-4.4-2.1-4.4-4.7v-13.3
		C125.7-22.7,127.7-24.9,130.1-24.9z M131-3.3c1.8,0,3.2-1.6,3.2-3.5v-13.3c0-1.9-1.4-3.5-3.2-3.5h-0.8c-1.8,0-3.2,1.6-3.2,3.5v13.3
		c0,1.9,1.4,3.5,3.2,3.5H131z"/>
	<path class="st4" d="M126.6-14.1h8.2c0.3,0,0.6,0.3,0.6,0.6s-0.3,0.6-0.6,0.6h-8.2c-0.3,0-0.6-0.3-0.6-0.6
		C126-13.8,126.3-14.1,126.6-14.1z"/>
</g>
<g>
	<path class="st0" d="M61.4-20.1c0-2.3-1.7-4.1-3.8-4.1h-0.8c-2.1,0-3.8,1.8-3.8,4.1v6.6h8.5L61.4-20.1L61.4-20.1z"/>
	<path class="st1" d="M56.7-2.7h0.8c2.1,0,3.8-1.8,3.8-4.1v-6.6h-8.5v6.6C52.9-4.6,54.6-2.7,56.7-2.7z"/>
	<path class="st2" d="M59.9-13.5h1.5v-6.6c0-2.3-1.7-4.1-3.8-4.1h-0.8c-1.3,0-2.5,0.7-3.2,1.8c0.4-0.2,0.8-0.3,1.3-0.3
		C57.7-22.7,59.9-18.6,59.9-13.5z"/>
	<path class="st3" d="M59.9-13.5c0,5.1-2.3,9.2-5.1,9.2c-0.4,0-0.9-0.1-1.3-0.3c0.7,1.1,1.9,1.8,3.2,1.8h0.8c2.1,0,3.8-1.8,3.8-4.1
		v-6.6L59.9-13.5L59.9-13.5z"/>
	<path class="st4" d="M57.1-24.9h0.8c2.4,0,4.4,2.1,4.4,4.7v13.3c0,2.6-2,4.7-4.4,4.7h-0.8c-2.4,0-4.4-2.1-4.4-4.7v-13.3
		C52.7-22.7,54.6-24.9,57.1-24.9z M57.9-3.3c1.8,0,3.2-1.6,3.2-3.5v-13.3c0-1.9-1.4-3.5-3.2-3.5h-0.8c-1.8,0-3.2,1.6-3.2,3.5v13.3
		c0,1.9,1.4,3.5,3.2,3.5H57.9z"/>
	<path class="st4" d="M53.6-14.1h8.2c0.3,0,0.6,0.3,0.6,0.6s-0.3,0.6-0.6,0.6h-8.2c-0.3,0-0.6-0.3-0.6-0.6S53.2-14.1,53.6-14.1z"/>
</g>
<g>
	<path class="st0" d="M110.1-20.1c0-2.3-1.7-4.1-3.8-4.1h-0.8c-2.1,0-3.8,1.8-3.8,4.1v6.6h8.5L110.1-20.1L110.1-20.1z"/>
	<path class="st1" d="M105.4-2.7h0.8c2.1,0,3.8-1.8,3.8-4.1v-6.6h-8.5v6.6C101.6-4.6,103.3-2.7,105.4-2.7z"/>
	<path class="st2" d="M108.6-13.5h1.5v-6.6c0-2.3-1.7-4.1-3.8-4.1h-0.8c-1.3,0-2.5,0.7-3.2,1.8c0.4-0.2,0.8-0.3,1.3-0.3
		C106.4-22.7,108.6-18.6,108.6-13.5z"/>
	<path class="st3" d="M108.6-13.5c0,5.1-2.3,9.2-5.1,9.2c-0.4,0-0.9-0.1-1.3-0.3c0.7,1.1,1.9,1.8,3.2,1.8h0.8c2.1,0,3.8-1.8,3.8-4.1
		v-6.6L108.6-13.5L108.6-13.5z"/>
	<path class="st4" d="M105.8-24.9h0.8c2.4,0,4.4,2.1,4.4,4.7v13.3c0,2.6-2,4.7-4.4,4.7h-0.8c-2.4,0-4.4-2.1-4.4-4.7v-13.3
		C101.3-22.7,103.3-24.9,105.8-24.9z M106.6-3.3c1.8,0,3.2-1.6,3.2-3.5v-13.3c0-1.9-1.4-3.5-3.2-3.5h-0.8c-1.8,0-3.2,1.6-3.2,3.5
		v13.3c0,1.9,1.4,3.5,3.2,3.5H106.6z"/>
	<path class="st4" d="M102.3-14.1h8.2c0.3,0,0.6,0.3,0.6,0.6s-0.3,0.6-0.6,0.6h-8.2c-0.3,0-0.6-0.3-0.6-0.6
		C101.7-13.8,101.9-14.1,102.3-14.1z"/>
</g>
<g>
	<path class="st0" d="M12.7-20.1c0-2.3-1.7-4.1-3.8-4.1H8.1c-2.1,0-3.9,1.8-3.9,4.1v6.6h8.5V-20.1z"/>
	<path class="st1" d="M8.1-2.7h0.8c2.1,0,3.8-1.8,3.8-4.1v-6.6H4.2v6.6C4.2-4.6,6-2.7,8.1-2.7z"/>
	<path class="st2" d="M11.2-13.5h1.5v-6.6c0-2.3-1.7-4.1-3.8-4.1H8.1c-1.3,0-2.5,0.7-3.2,1.8c0.4-0.2,0.8-0.3,1.3-0.3
		C9-22.7,11.2-18.6,11.2-13.5z"/>
	<path class="st3" d="M11.2-13.5c0,5.1-2.3,9.2-5.1,9.2c-0.4,0-0.9-0.1-1.3-0.3C5.5-3.5,6.7-2.8,8-2.8h0.8c2.1,0,3.8-1.8,3.8-4.1
		v-6.6L11.2-13.5L11.2-13.5z"/>
	<path class="st4" d="M8.4-24.9h0.8c2.4,0,4.4,2.1,4.4,4.7v13.3c0,2.6-2,4.7-4.4,4.7H8.4C6-2.1,4-4.2,4-6.8v-13.3
		C4-22.7,6-24.9,8.4-24.9z M9.2-3.3c1.8,0,3.2-1.6,3.2-3.5v-13.3c0-1.9-1.4-3.5-3.2-3.5H8.4c-1.8,0-3.2,1.6-3.2,3.5v13.3
		c0,1.9,1.4,3.5,3.2,3.5H9.2z"/>
	<path class="st4" d="M4.9-14.1h8.2c0.3,0,0.6,0.3,0.6,0.6s-0.3,0.6-0.6,0.6H4.9c-0.3,0-0.6-0.3-0.6-0.6S4.6-14.1,4.9-14.1z"/>
</g>
<g>
	<path class="st0" d="M86.6,97.1c0-2.3-1.7-4.1-3.8-4.1H82c-2.1,0-3.8,1.8-3.8,4.1v6.6h8.5L86.6,97.1L86.6,97.1z"/>
	<path class="st1" d="M81.9,114.5h0.8c2.1,0,3.8-1.8,3.8-4.1v-6.6H78v6.6C78.1,112.6,79.8,114.5,81.9,114.5z"/>
	<path class="st2" d="M85.1,103.7h1.5v-6.6c0-2.3-1.7-4.1-3.8-4.1H82c-1.3,0-2.5,0.7-3.2,1.8c0.4-0.2,0.8-0.3,1.3-0.3
		C82.8,94.5,85.1,98.6,85.1,103.7z"/>
	<path class="st3" d="M85.1,103.7c0,5.1-2.3,9.2-5.1,9.2c-0.4,0-0.9-0.1-1.3-0.3c0.7,1.1,1.9,1.8,3.2,1.8h0.8c2.1,0,3.8-1.8,3.8-4.1
		v-6.6L85.1,103.7L85.1,103.7z"/>
	<path class="st4" d="M82.2,92.3H83c2.4,0,4.4,2.1,4.4,4.7v13.3c0,2.6-2,4.7-4.4,4.7h-0.8c-2.4,0-4.4-2.1-4.4-4.7V97
		C77.8,94.5,79.8,92.3,82.2,92.3z M83.1,113.8c1.8,0,3.2-1.6,3.2-3.5V97c0-1.9-1.4-3.5-3.2-3.5h-0.8c-1.8,0-3.2,1.6-3.2,3.5v13.3
		c0,1.9,1.4,3.5,3.2,3.5H83.1z"/>
	<path class="st4" d="M78.8,103.1H87c0.3,0,0.6,0.3,0.6,0.6s-0.3,0.6-0.6,0.6h-8.2c-0.3,0-0.6-0.3-0.6-0.6
		C78.1,103.4,78.4,103.1,78.8,103.1z"/>
</g>
<g>
	<path class="st0" d="M37.9,97.1c0-2.3-1.7-4.1-3.8-4.1h-0.8c-2.1,0-3.8,1.8-3.8,4.1v6.6H38L37.9,97.1L37.9,97.1z"/>
	<path class="st1" d="M33.2,114.5H34c2.1,0,3.8-1.8,3.8-4.1v-6.6h-8.5v6.6C29.4,112.6,31.1,114.5,33.2,114.5z"/>
	<path class="st2" d="M36.4,103.7h1.5v-6.6c0-2.3-1.7-4.1-3.8-4.1h-0.8c-1.3,0-2.5,0.7-3.2,1.8c0.4-0.2,0.8-0.3,1.3-0.3
		C34.1,94.5,36.4,98.6,36.4,103.7z"/>
	<path class="st3" d="M36.4,103.7c0,5.1-2.3,9.2-5.1,9.2c-0.4,0-0.9-0.1-1.3-0.3c0.7,1.1,1.9,1.8,3.2,1.8H34c2.1,0,3.8-1.8,3.8-4.1
		v-6.6L36.4,103.7L36.4,103.7z"/>
	<path class="st4" d="M33.6,92.3h0.8c2.4,0,4.4,2.1,4.4,4.7v13.3c0,2.6-2,4.7-4.4,4.7h-0.8c-2.4,0-4.4-2.1-4.4-4.7V97
		C29.1,94.5,31.1,92.3,33.6,92.3z M34.4,113.8c1.8,0,3.2-1.6,3.2-3.5V97c0-1.9-1.4-3.5-3.2-3.5h-0.8c-1.8,0-3.2,1.6-3.2,3.5v13.3
		c0,1.9,1.4,3.5,3.2,3.5H34.4z"/>
	<path class="st4" d="M30.1,103.1h8.2c0.3,0,0.6,0.3,0.6,0.6s-0.3,0.6-0.6,0.6h-8.2c-0.3,0-0.6-0.3-0.6-0.6
		C29.4,103.4,29.7,103.1,30.1,103.1z"/>
</g>
<g>
	<path class="st0" d="M135.3,97.1c0-2.3-1.7-4.1-3.8-4.1h-0.8c-2.1,0-3.8,1.8-3.8,4.1v6.6h8.5L135.3,97.1L135.3,97.1z"/>
	<path class="st1" d="M130.6,114.5h0.8c2.1,0,3.8-1.8,3.8-4.1v-6.6h-8.5v6.6C126.8,112.6,128.5,114.5,130.6,114.5z"/>
	<path class="st2" d="M133.8,103.7h1.5v-6.6c0-2.3-1.7-4.1-3.8-4.1h-0.8c-1.3,0-2.5,0.7-3.2,1.8c0.4-0.2,0.8-0.3,1.3-0.3
		C131.5,94.5,133.8,98.6,133.8,103.7z"/>
	<path class="st3" d="M133.8,103.7c0,5.1-2.3,9.2-5.1,9.2c-0.4,0-0.9-0.1-1.3-0.3c0.7,1.1,1.9,1.8,3.2,1.8h0.8
		c2.1,0,3.8-1.8,3.8-4.1v-6.6L133.8,103.7L133.8,103.7z"/>
	<path class="st4" d="M130.9,92.3h0.8c2.4,0,4.4,2.1,4.4,4.7v13.3c0,2.6-2,4.7-4.4,4.7h-0.8c-2.4,0-4.4-2.1-4.4-4.7V97
		C126.5,94.5,128.5,92.3,130.9,92.3z M131.8,113.8c1.8,0,3.2-1.6,3.2-3.5V97c0-1.9-1.4-3.5-3.2-3.5H131c-1.8,0-3.2,1.6-3.2,3.5v13.3
		c0,1.9,1.4,3.5,3.2,3.5H131.8z"/>
	<path class="st4" d="M127.4,103.1h8.2c0.3,0,0.6,0.3,0.6,0.6s-0.3,0.6-0.6,0.6h-8.2c-0.3,0-0.6-0.3-0.6-0.6
		C126.8,103.4,127.1,103.1,127.4,103.1z"/>
</g>
<g>
	<path class="st0" d="M62.2,97.1c0-2.3-1.7-4.1-3.8-4.1h-0.8c-2.1,0-3.8,1.8-3.8,4.1v6.6h8.5v-6.6C62.3,97.1,62.2,97.1,62.2,97.1z"
		/>
	<path class="st1" d="M57.6,114.5h0.8c2.1,0,3.8-1.8,3.8-4.1v-6.6h-8.5v6.6C53.7,112.6,55.5,114.5,57.6,114.5z"/>
	<path class="st2" d="M60.7,103.7h1.5v-6.6c0-2.3-1.7-4.1-3.8-4.1h-0.8c-1.3,0-2.5,0.7-3.2,1.8c0.4-0.2,0.8-0.3,1.3-0.3
		C58.5,94.5,60.7,98.6,60.7,103.7z"/>
	<path class="st3" d="M60.7,103.7c0,5.1-2.3,9.2-5.1,9.2c-0.4,0-0.9-0.1-1.3-0.3c0.7,1.1,1.9,1.8,3.2,1.8h0.8c2.1,0,3.8-1.8,3.8-4.1
		v-6.6L60.7,103.7L60.7,103.7z"/>
	<path class="st4" d="M57.9,92.3h0.8c2.4,0,4.4,2.1,4.4,4.7v13.3c0,2.6-2,4.7-4.4,4.7h-0.8c-2.4,0-4.4-2.1-4.4-4.7V97
		C53.5,94.5,55.5,92.3,57.9,92.3z M58.8,113.8c1.8,0,3.2-1.6,3.2-3.5V97c0-1.9-1.4-3.5-3.2-3.5H58c-1.8,0-3.2,1.6-3.2,3.5v13.3
		c0,1.9,1.4,3.5,3.2,3.5H58.8z"/>
	<path class="st4" d="M54.4,103.1h8.2c0.3,0,0.6,0.3,0.6,0.6s-0.3,0.6-0.6,0.6h-8.2c-0.3,0-0.6-0.3-0.6-0.6
		C53.8,103.4,54.1,103.1,54.4,103.1z"/>
</g>
<g>
	<path class="st0" d="M110.9,97.1c0-2.3-1.7-4.1-3.8-4.1h-0.8c-2.1,0-3.8,1.8-3.8,4.1v6.6h8.5L110.9,97.1L110.9,97.1z"/>
	<path class="st1" d="M106.3,114.5h0.8c2.1,0,3.8-1.8,3.8-4.1v-6.6h-8.5v6.6C102.4,112.6,104.1,114.5,106.3,114.5z"/>
	<path class="st2" d="M109.4,103.7h1.5v-6.6c0-2.3-1.7-4.1-3.8-4.1h-0.8c-1.3,0-2.5,0.7-3.2,1.8c0.4-0.2,0.8-0.3,1.3-0.3
		C107.2,94.5,109.4,98.6,109.4,103.7z"/>
	<path class="st3" d="M109.4,103.7c0,5.1-2.3,9.2-5.1,9.2c-0.4,0-0.9-0.1-1.3-0.3c0.7,1.1,1.9,1.8,3.2,1.8h0.8
		c2.1,0,3.8-1.8,3.8-4.1v-6.6L109.4,103.7L109.4,103.7z"/>
	<path class="st4" d="M106.6,92.3h0.8c2.4,0,4.4,2.1,4.4,4.7v13.3c0,2.6-2,4.7-4.4,4.7h-0.8c-2.4,0-4.4-2.1-4.4-4.7V97
		C102.2,94.5,104.1,92.3,106.6,92.3z M107.4,113.8c1.8,0,3.2-1.6,3.2-3.5V97c0-1.9-1.4-3.5-3.2-3.5h-0.8c-1.8,0-3.2,1.6-3.2,3.5
		v13.3c0,1.9,1.4,3.5,3.2,3.5H107.4z"/>
	<path class="st4" d="M103.1,103.1h8.2c0.3,0,0.6,0.3,0.6,0.6s-0.3,0.6-0.6,0.6h-8.2c-0.3,0-0.6-0.3-0.6-0.6
		S102.8,103.1,103.1,103.1z"/>
</g>
<g>
	<path class="st0" d="M13.5,97.1c0-2.3-1.7-4.1-3.8-4.1H8.9c-2.1,0-3.8,1.8-3.8,4.1v6.6h8.5L13.5,97.1L13.5,97.1z"/>
	<path class="st1" d="M8.9,114.5h0.8c2.1,0,3.8-1.8,3.8-4.1v-6.6H5v6.6C5.1,112.6,6.8,114.5,8.9,114.5z"/>
	<path class="st2" d="M12.1,103.7h1.5v-6.6c0-2.3-1.7-4.1-3.8-4.1H8.9c-1.3,0-2.5,0.7-3.2,1.8c0.4-0.2,0.8-0.3,1.3-0.3
		C9.8,94.5,12.1,98.6,12.1,103.7z"/>
	<path class="st3" d="M12.1,103.7c0,5.1-2.3,9.2-5.1,9.2c-0.4,0-0.9-0.1-1.3-0.3c0.7,1.1,1.9,1.8,3.2,1.8h0.8c2.1,0,3.8-1.8,3.8-4.1
		v-6.6L12.1,103.7L12.1,103.7z"/>
	<path class="st4" d="M9.2,92.3H10c2.4,0,4.4,2.1,4.4,4.7v13.3c0,2.6-2,4.7-4.4,4.7H9.2c-2.4,0-4.4-2.1-4.4-4.7V97
		C4.8,94.5,6.8,92.3,9.2,92.3z M10.1,113.8c1.8,0,3.2-1.6,3.2-3.5V97c0-1.9-1.4-3.5-3.2-3.5H9.2C7.4,93.5,6,95.1,6,97v13.3
		c0,1.9,1.4,3.5,3.2,3.5H10.1z"/>
	<path class="st4" d="M5.7,103.1h8.2c0.3,0,0.6,0.3,0.6,0.6s-0.3,0.6-0.6,0.6H5.7c-0.3,0-0.6-0.3-0.6-0.6S5.4,103.1,5.7,103.1z"/>
</g>
<g>
	<path class="st5" d="M122.6,46.6c-1.7-1.2-4-1.4-6-0.6c-1.7,0.7-3,2.2-3.6,4c-1.2-0.5-1.8-2.1-2.1-3.3c0-0.2-0.2-0.3-0.6-0.2
		c-1.1,0.4-2.4,1.9-2.1,2.8c1,2.8,2.7,3.6,4,5.5c1.3,1.8,1.4,4.5-0.5,6c-2.1,1.7-4.8,0.1-7.1-0.3c-1.1-0.2-2.3-0.2-3.3,0.4
		c-0.8,0.6-1.1,1.7-1.2,2.6c-0.3,2.8,2,7.5,2.8,8c0.9,0.5,3.5-0.7,3.1-1.7c-0.5-1.1-1.2-2-1.1-3.7c1.9,1.8,4.4,2.9,6.9,3.2
		c3.6,0.5,7.3-0.8,10-3.1c2.9-2.5,4.5-6.1,4.6-9.9C126.7,52.7,125.6,48.6,122.6,46.6z"/>
	<path class="st6" d="M110.6,46.7c-0.3-0.4-2.1,1.5-2,2.1C108.6,49.3,110.7,46.9,110.6,46.7z"/>
	<path class="st6" d="M126.6,56.2c0.1-3.5-1-7.6-4-9.7c-0.3-0.2-0.6-0.4-1-0.5c4.6,4,3.4,13.5-0.3,17.3c-8.5,8.8-16.6-0.5-17.6,0.3
		s1,3.8,1,5.8c0,1.2-1.3,1.9-2,1.7c0.1,0.1,0.2,0.2,0.3,0.3c0.9,0.5,3.5-0.7,3.1-1.7c-0.5-1.1-1.2-2-1.1-3.7
		c1.9,1.8,4.4,2.9,6.9,3.2c3.6,0.5,7.3-0.8,10-3.1C124.8,63.7,126.5,60,126.6,56.2z"/>
	<path class="st6" d="M113.1,50c-1.2-0.5-1.8-2.1-2.1-3.3c-0.3,2.4,2.2,6.5,2.1,5.7C113,51.6,112.8,51.1,113.1,50z"/>
</g>
<g>
	<g>
		<path class="st7" d="M105.2,23.9c0.9,0.9,2.2,1.3,3.4,1.3s2.5-0.6,3.3-1.5c1.4,1,3.2,1.4,4.9,1.2c1.7-0.2,3.4-1.1,4.5-2.3
			c1.3-1.4,2-3.4,2.3-5.3c0.3-1.9,0.2-3.9,0.1-5.9c0-0.7-0.1-1.4-0.6-1.8c-0.4-0.3-0.9-0.3-1.4-0.3c-5.4,0-10.7,0-16.1,0
			c-0.6,0-1.2,0-1.7,0.2c-0.7,0.3-1.2,1-1.4,1.7c-0.2,0.7-0.3,1.5-0.3,2.3c-0.1,1.9-0.1,3.8,0.2,5.6
			C102.9,20.9,103.8,22.6,105.2,23.9z"/>
		<g>
			<path class="st8" d="M111.2,22.8c-0.4-0.2-0.6-0.6-0.6-1c0-0.1-0.1-0.2-0.1-0.2c-0.1,0-0.2,0.1-0.2,0.1c0,0.2,0,0.4,0.1,0.6
				c-0.8,0.5-1.7,0.7-2.6,0.6c-0.9-0.1-1.8-0.7-2.3-1.4c-0.1-0.1-0.2-0.1-0.2,0c-0.1,0.1-0.1,0.2,0,0.2c0.6,0.8,1.5,1.4,2.5,1.5
				c0.2,0,0.4,0,0.6,0c0.8,0,1.5-0.2,2.2-0.6c0.1,0.2,0.3,0.3,0.5,0.4c0,0,0,0,0.1,0S111.3,23,111.2,22.8
				C111.3,23,111.3,22.9,111.2,22.8z"/>
			<path class="st8" d="M112.3,20.8c-0.3-0.2-0.7-0.4-1.2-0.4c0.2-0.1,0.4-0.3,0.6-0.4c0.1-0.1,0.1-0.2,0-0.2
				c-0.1-0.1-0.2-0.1-0.2,0c-1.2,1-3,1.2-4.4,0.6c-0.1,0-0.2,0-0.2,0.1s0,0.2,0.1,0.2c0.6,0.2,1.2,0.3,1.7,0.3
				c0.6,0,1.1-0.1,1.7-0.3c0.7,0,1.3,0.1,1.7,0.4c0.4,0.3,0.8,0.9,0.6,1.5c0,0.1,0,0.2,0.1,0.2l0,0c0.1,0,0.1,0,0.2-0.1
				C113.3,21.9,112.9,21.2,112.3,20.8z"/>
			<path class="st8" d="M112.4,15.7c-0.8-0.3-1.8-0.2-2.6,0.1c0.1-0.2,0.2-0.4,0.3-0.6c0.1-0.2,0.1-0.4,0.1-0.6l0,0
				c0.3-0.3,0.6-0.3,0.8-0.3c0.1,0,0.2-0.1,0.2-0.2s-0.1-0.2-0.2-0.2c-0.2,0-0.5,0-0.8,0.2c0-0.2,0-0.4,0-0.6c0-0.1-0.1-0.2-0.2-0.2
				s-0.2,0.1-0.2,0.2c0,0.6,0,1.1-0.2,1.6s-0.5,1-0.9,1.3s-1,0.4-1.4,0.2c-0.5-0.2-0.9-0.8-0.8-1.3l0,0c0-0.3,0-0.7-0.1-1
				s-0.2-0.6-0.4-0.8l0.1-1.1c0-0.1-0.1-0.2-0.1-0.2c-0.1,0-0.2,0.1-0.2,0.1l-0.1,0.8c-0.2-0.2-0.4-0.4-0.6-0.5c-0.1,0-0.2,0-0.2,0
				c0,0.1,0,0.2,0,0.2c0.6,0.4,1,0.9,1.2,1.5s0.2,1.3-0.1,1.9c0,0.1,0,0.2,0.1,0.2c0,0,0,0,0.1,0s0.1,0,0.1-0.1s0.1-0.2,0.1-0.3
				c0.2,0.4,0.5,0.7,0.8,0.8c0.2,0.1,0.4,0.1,0.6,0.1c0.4,0,0.8-0.1,1.1-0.4c0.1-0.1,0.3-0.2,0.4-0.3h0.1c0.8-0.5,1.9-0.5,2.8-0.2
				s1.7,1,2.1,1.9c0,0.1,0.1,0.1,0.1,0.1s0,0,0.1,0s0.1-0.1,0.1-0.2C114.3,16.8,113.4,16,112.4,15.7z"/>
			<path class="st8" d="M114.2,20c-0.2-0.1-0.3-0.1-0.5-0.1c0-0.6-0.4-1.1-1-1.5c-0.5-0.3-1.1-0.4-1.7-0.3c-0.3,0-0.5,0.1-0.8,0.1
				c0.1-0.1,0.2-0.2,0.2-0.2c0.1-0.1,0.1-0.2,0-0.2c-0.1-0.1-0.2-0.1-0.2,0c-0.6,0.7-1.4,1.1-2.3,1.2c-0.9,0.1-1.8-0.1-2.5-0.6
				c-0.1,0-0.2,0-0.2,0c0,0.1,0,0.2,0,0.2c0.7,0.4,1.4,0.7,2.2,0.7c0.2,0,0.3,0,0.5,0c0.5-0.1,1-0.2,1.4-0.5l0,0
				c0.5-0.2,1-0.4,1.7-0.4c0.4,0,1,0,1.5,0.3s0.8,0.7,0.8,1.2c-0.2,0-0.4,0.1-0.5,0.2c-0.1,0-0.1,0.1,0,0.2l0.1,0.1h0.1
				c0.3-0.2,0.7-0.2,1-0.1c0.1,0,0.2,0,0.2-0.1C114.3,20.1,114.3,20,114.2,20z"/>
			<path class="st8" d="M108.2,13.6c0.1,0.5,0,1.1-0.3,1.6c0,0.1,0,0.2,0.1,0.2h0.1c0.1,0,0.1,0,0.1-0.1c0.3-0.5,0.4-1.2,0.3-1.8
				s-0.4-1.2-0.9-1.6c-0.1-0.1-0.2-0.1-0.2,0c-0.1,0.1-0.1,0.2,0,0.2C107.8,12.6,108.1,13.1,108.2,13.6z"/>
			<path class="st8" d="M111.9,15.1L111.9,15.1c0.3-0.2,0.4-0.4,0.5-0.6c0.7,0.2,1.2,0.8,1.3,1.6c0,0.1,0.1,0.1,0.2,0.1l0,0
				c0.1,0,0.1-0.1,0.1-0.2c-0.2-0.9-0.7-1.6-1.5-1.8c0.1-0.4,0.2-0.8,0.1-1.3c0-0.1-0.1-0.1-0.2-0.1s-0.1,0.1-0.1,0.2
				c0.1,0.7-0.1,1.4-0.6,1.9c-0.1,0.1-0.1,0.2,0,0.2C111.8,15.1,111.8,15.1,111.9,15.1z"/>
			<path class="st8" d="M115.4,14.5c0.3,0.4,0.4,0.9,0.4,1.3c-0.1,0.5-0.6,1-1.1,1.1c-0.1,0-0.1,0.1-0.1,0.2c0,0.1,0.1,0.1,0.2,0.1
				l0,0c0.7-0.1,1.3-0.7,1.4-1.3c0.1-0.4,0-0.9-0.3-1.3l0,0c0-0.4,0.2-0.7,0.5-0.9c0.1-0.1,0.1-0.2,0-0.2c-0.1-0.1-0.2-0.1-0.2,0
				c-0.3,0.2-0.5,0.5-0.5,0.8c-0.3-0.4-0.7-0.7-1-0.9c-0.1-0.1-0.2,0-0.2,0c-0.1,0.1,0,0.2,0,0.2C114.7,13.7,115.1,14.1,115.4,14.5z
				"/>
			<path class="st8" d="M119,18.6c-0.6,0.1-1.1,0.3-1.5,0.7c-0.3,0.3-0.5,0.6-0.6,1c-0.1-0.1-0.2-0.3-0.3-0.4
				c-0.4-0.4-1-0.6-1.6-0.6c-0.1,0-0.2,0.1-0.2,0.2c0,0.1,0.1,0.2,0.2,0.2c0.5,0,1,0.2,1.3,0.5c0.4,0.3,0.6,0.8,0.6,1.3
				c0,0.1,0.1,0.2,0.2,0.2l0,0c0.1,0,0.2-0.1,0.2-0.2c0-0.2,0-0.4-0.1-0.6c0-0.5,0.2-1,0.6-1.3s0.8-0.6,1.3-0.6
				c0.1,0,0.1-0.1,0.1-0.2C119.1,18.6,119.1,18.6,119,18.6z"/>
			<path class="st8" d="M121,15.6l-0.5,0.6c-0.2-0.2-0.4-0.4-0.5-0.6c0-0.1-0.1-0.1-0.2-0.1s-0.1,0.1-0.1,0.2
				c0.2,0.3,0.3,0.5,0.6,0.7c-0.2,0.5-0.6,0.9-1.2,1.2c-1.2,0.6-2.7,0.6-3.9,0c-0.1,0-0.2,0-0.2,0.1s0,0.2,0.1,0.2
				c0.6,0.3,1.4,0.5,2.1,0.5s1.4-0.2,2.1-0.5c0.5-0.3,1.1-0.7,1.4-1.4l0,0l0.6-0.7c0.1-0.1,0-0.2,0-0.2
				C121.1,15.5,121,15.5,121,15.6z"/>
			<path class="st8" d="M121.7,14.9c-0.5-0.3-1.1-0.5-1.7-0.4c-0.5,0-0.9,0.2-1.3,0.4c0-0.6-0.3-1.1-0.5-1.4c-0.3-0.5-0.8-1-1.2-1.3
				c-0.1-0.1-0.2-0.1-0.2,0c-0.1,0.1-0.1,0.2,0,0.2c0.4,0.3,0.8,0.7,1.1,1.2c0.2,0.4,0.5,0.9,0.5,1.5s-0.3,1.1-0.7,1.3
				c-0.1,0-0.1,0.1-0.1,0.2l0.1,0.1h0.1c0.5-0.3,0.8-0.9,0.9-1.5c0.4-0.3,0.8-0.5,1.4-0.5c0.5,0,1.1,0.1,1.5,0.4c0.1,0,0.2,0,0.2,0
				C121.8,15,121.8,14.9,121.7,14.9z"/>
			<path class="st8" d="M118.8,13.4c0,0.1,0,0.2,0.1,0.2h0.1c0.1,0,0.1,0,0.1-0.1c0.1-0.2,0.2-0.4,0.2-0.6c0.7-0.1,1.5,0,2.1,0.4
				h0.1c0.1,0,0.1,0,0.1-0.1s0-0.2-0.1-0.2c-0.7-0.4-1.5-0.5-2.3-0.4c0-0.2-0.1-0.4-0.3-0.6c-0.1-0.1-0.2-0.1-0.2,0
				c-0.1,0.1-0.1,0.2,0,0.2C118.9,12.5,119,13,118.8,13.4z"/>
		</g>
		<path class="st9" d="M107.1,7.6c0.3-0.3,0.7-0.5,1.1-0.5s0.9,0.4,1.1,0.7c0.4-0.4,0.9-0.5,1.4-0.5s1,0.3,1.2,0.7
			c0.2-0.4,0.7-0.7,1.1-0.7c0.5,0,1,0.3,1.2,0.6c0.4-0.4,1-0.7,1.6-0.7s1.2,0.2,1.7,0.6c0.2-0.4,0.6-0.7,1-0.7
			c0.4-0.1,0.8,0.1,1.1,0.4c0.4-0.4,1-0.6,1.6-0.6s1.2,0.2,1.6,0.6c0.7-0.6,1.8-0.7,2.6-0.1c0.7,0.6,1,1.7,0.6,2.5
			c0.4,0.2,0.7,0.7,0.6,1.1s-0.5,0.8-1,0.9c0.5,0.2,0.8,0.8,0.8,1.3c-0.1,0.5-0.5,1-1,1.1c0.2,0.4,0.4,0.8,0.4,1.3
			c0,0.4-0.2,0.9-0.6,1.1c0.4,0.4,0.7,1,0.5,1.5c-0.1,0.6-0.5,1-1.1,1.2c0.2,0.5,0.3,1,0.3,1.5s-0.2,1-0.5,1.4
			c-0.4,0.4-0.9,0.7-1.4,0.5c0.2,0.3,0.1,0.8-0.1,1.1s-0.5,0.5-0.9,0.7c-0.7,0.3-1.5,0.4-2.2,0.3c-0.1,0.5-0.5,0.9-0.9,1.1
			c-0.5,0.2-1,0.2-1.5,0s-0.9-0.5-1.2-0.9c-0.1,0.4-0.3,0.9-0.6,1.2c0.3,0.3,0.5,0.8,0.4,1.2s-0.3,1-0.7,1.1
			c0.5,0.1,0.7,0.7,0.7,1.2s-0.3,0.9-0.6,1.4c-0.6,0.9-1.1,2.7-1.7,2.7s-0.5-0.5-0.6-0.8c-0.2-1-1-1.8-1.4-2.7
			c-0.2-0.4-0.4-0.9-0.5-1.3c0-0.5,0.3-1,0.7-1.2c-0.8-0.7-1.1-1.9-0.7-3c0.4-1,1.3-1.8,2.3-2.1s2.2-0.2,3.2,0.3
			c0.4-0.7,1.4-1,2.2-0.7c0.1-0.5,0.2-1,0.5-1.4s0.9-0.5,1.3-0.2c0-0.5,0.2-0.9,0.6-1.2s0.8-0.4,1.3-0.3c-0.6-0.3-0.9-1-1-1.6
			c0-0.7,0.3-1.3,0.8-1.7c-0.2-0.6-0.4-1.2-0.4-1.9c0-0.6,0.4-1.4,1-1.6c-0.6-0.5-0.8-1.4-0.5-2.2c-0.4,0.5-0.9,0.9-1.6,1
			c-0.6,0.1-1.3,0-1.8-0.4c-0.4,0.6-1.1,1-1.8,1.1c-0.7,0.1-1.5-0.1-2.1-0.5c-0.4,0.6-1,1-1.7,1.1s-1.4-0.1-1.9-0.6
			c-0.5,0.5-1.3,0.7-2,0.6c-0.7-0.1-1.3-0.5-1.6-1.1c-0.5,0.3-1.1,0.3-1.6,0.2c-0.5-0.2-1-0.5-1.2-1c-0.2,0.2-0.7,0.3-1,0.2
			c0.5,0.6,0.5,1.4,0.2,2c0.4,0.4,0.7,0.9,0.7,1.5s-0.2,1.2-0.6,1.6c0.4,0.4,0.6,0.9,0.6,1.4s-0.1,1-0.4,1.5
			c0.7,0.7,0.7,1.9,0.2,2.7c1,1.3,1.4,3.1,0.8,4.7c-0.1,0.2-0.2,0.5-0.4,0.5c-0.2,0.1-0.5,0-0.7-0.1c-0.8-0.4-1.7-0.9-2.2-1.7
			c-0.6-0.8-0.7-1.9,0-2.6c-0.5-0.3-0.9-0.8-1.1-1.4c-0.2-0.6,0-1.2,0.4-1.7c-0.6-0.3-1-0.8-1.1-1.5c-0.1-0.6,0.1-1.2,0.6-1.7
			c-0.5-0.2-0.9-0.8-0.9-1.3c0-0.6,0.3-1.2,0.8-1.4c-0.5-0.2-0.9-0.7-0.9-1.2c-0.1-0.5,0.2-1.1,0.6-1.4c-0.7-0.8-0.6-2.2,0.1-3
			c0.8-0.8,2.1-0.9,3-0.2c0.5-0.4,1-0.7,1.7-0.7S106.7,7.2,107.1,7.6z"/>
	</g>
	<g>
		<g>
			<path class="st8" d="M122.7,7.8c0,0-0.2,0.2-0.7,0.4c-0.1,0.1-0.2,0.1-0.4,0.2c-0.1,0.1-0.3,0.1-0.5,0.2
				c-0.3,0.1-0.7,0.3-1.1,0.4c-0.2,0.1-0.4,0.1-0.7,0.2c-0.2,0.1-0.5,0.1-0.7,0.2c-0.1,0-0.3,0.1-0.4,0.1s-0.1,0-0.2,0s-0.1,0-0.2,0
				c-0.3,0.1-0.5,0.1-0.8,0.2c-1.1,0.2-2.4,0.3-3.8,0.3c-1.3,0-2.6-0.1-3.8-0.3c-0.3-0.1-0.6-0.1-0.8-0.2c-0.1,0-0.1,0-0.2,0
				s-0.1,0-0.2,0s-0.3-0.1-0.4-0.1c-0.3-0.1-0.5-0.1-0.7-0.2c-0.2-0.1-0.4-0.1-0.7-0.2c-0.4-0.1-0.8-0.3-1.1-0.4
				c-0.2-0.1-0.3-0.1-0.5-0.2c-0.1-0.1-0.3-0.1-0.4-0.2c-0.4-0.2-0.7-0.3-0.7-0.4c0,0,0.3,0.1,0.7,0.2c0.1,0,0.2,0.1,0.4,0.1
				c0.1,0,0.3,0.1,0.5,0.1c0.3,0.1,0.7,0.2,1.1,0.3c0.2,0.1,0.4,0.1,0.7,0.2c0.2,0.1,0.5,0.1,0.7,0.2c0.1,0,0.3,0.1,0.4,0.1
				s0.1,0,0.2,0s0.1,0,0.2,0c0.3,0,0.5,0.1,0.8,0.1c1.1,0.2,2.4,0.3,3.7,0.3c1.3,0,2.6-0.1,3.7-0.3c0.3,0,0.6-0.1,0.8-0.1
				c0.1,0,0.1,0,0.2,0s0.1,0,0.2,0s0.3-0.1,0.4-0.1c0.2-0.1,0.5-0.1,0.7-0.2c0.2-0.1,0.4-0.1,0.7-0.2c0.4-0.1,0.8-0.2,1.1-0.3
				c0.2-0.1,0.3-0.1,0.5-0.1c0.1,0,0.3-0.1,0.4-0.1C122.4,7.8,122.7,7.7,122.7,7.8z"/>
		</g>
		<g>
			<path class="st8" d="M113.7,32.3L113.7,32.3c0-0.1,0-0.1,0-0.2V32c0-0.2,0-0.5,0-0.9s-0.1-0.9-0.2-1.4s-0.3-1.2-0.4-1.8
				c-0.1-0.3-0.1-0.7-0.1-1.1c0-0.4,0-0.8,0-1.2c0-0.2,0.1-0.4,0.2-0.6c0.1-0.2,0.2-0.4,0.4-0.6c0.2-0.2,0.3-0.3,0.6-0.4
				c0.2-0.1,0.5-0.2,0.7-0.2c0.5,0,1,0,1.4,0.1c0.5,0,1,0.1,1.5,0c0.5,0,1-0.1,1.5-0.3s0.9-0.4,1.4-0.7c0.4-0.3,0.8-0.7,1.1-1
				c0.3-0.4,0.6-0.8,0.9-1.2c0.1-0.1,0.1-0.2,0.2-0.3l0.1-0.2l0.1-0.2c0.1-0.1,0.1-0.2,0.2-0.3c0-0.1,0.1-0.2,0.1-0.3l0.1-0.2
				l0.1-0.2c0-0.1,0.1-0.2,0.1-0.3c0.1-0.2,0.1-0.4,0.2-0.7c0.5-1.8,0.6-3.4,0.5-4.8c0-1.4-0.1-2.5-0.2-3.3c0-0.4-0.1-0.7-0.1-0.9
				s0-0.3,0-0.3s0,0.1,0.1,0.3c0,0.2,0.1,0.5,0.1,0.9c0.1,0.8,0.2,1.9,0.3,3.3c0,0.7,0,1.5,0,2.3c-0.1,0.8-0.2,1.7-0.5,2.6
				c-0.1,0.2-0.1,0.4-0.2,0.7c0,0.1-0.1,0.2-0.1,0.3l-0.1,0.2l-0.1,0.2c0,0.1-0.1,0.2-0.1,0.3c-0.1,0.1-0.1,0.2-0.2,0.3l-0.1,0.2
				l-0.1,0.2c-0.1,0.1-0.1,0.2-0.2,0.3c-0.3,0.4-0.5,0.9-0.9,1.3c-0.3,0.4-0.7,0.8-1.2,1.1c-0.4,0.3-0.9,0.6-1.4,0.7
				c-0.5,0.2-1,0.3-1.5,0.3s-1,0-1.5,0s-1-0.1-1.4-0.1c-0.2,0-0.4,0.1-0.6,0.1c-0.2,0.1-0.4,0.2-0.5,0.4s-0.3,0.3-0.3,0.5
				c-0.1,0.2-0.1,0.4-0.2,0.6c-0.1,0.4-0.1,0.8-0.1,1.2s0.1,0.7,0.1,1.1c0.1,0.7,0.2,1.3,0.3,1.9c0.1,0.5,0.2,1,0.2,1.4s0,0.7,0,0.9
				c0,0.1,0,0.1,0,0.1C113.7,32.2,113.7,32.2,113.7,32.3L113.7,32.3z"/>
		</g>
		<g>
			<path class="st8" d="M105.1,26.2c0,0-0.1-0.2-0.3-0.6c0-0.1-0.1-0.2-0.1-0.3s-0.1-0.3-0.2-0.4c-0.1-0.3-0.2-0.6-0.4-1
				c-0.1-0.2-0.1-0.4-0.2-0.6c-0.1-0.2-0.1-0.4-0.2-0.6c-0.1-0.4-0.3-0.9-0.4-1.4c-0.3-1-0.5-2.1-0.7-3.2c-0.2-1.1-0.3-2.2-0.4-3.3
				c0-0.5-0.1-1-0.1-1.4c0-0.2,0-0.4,0-0.6c0-0.2,0-0.4,0-0.6c0-0.4,0-0.7,0-1c0-0.2,0-0.3,0-0.4c0-0.1,0-0.2,0-0.4
				c0-0.4,0.1-0.7,0.1-0.7s0,0.2,0,0.7c0,0.1,0,0.2,0,0.4c0,0.1,0,0.3,0,0.4c0,0.3,0,0.6,0,1c0,0.2,0,0.4,0,0.6c0,0.2,0,0.4,0,0.6
				c0,0.4,0.1,0.9,0.1,1.4c0.1,1,0.2,2.1,0.4,3.2c0.2,1.1,0.4,2.2,0.7,3.2c0.1,0.5,0.2,0.9,0.4,1.4c0.1,0.2,0.1,0.4,0.2,0.6
				c0.1,0.2,0.1,0.4,0.2,0.6c0.1,0.4,0.2,0.7,0.3,1c0,0.1,0.1,0.3,0.1,0.4c0,0.1,0.1,0.2,0.1,0.3C105.1,26,105.1,26.2,105.1,26.2z"
				/>
		</g>
		<g>
			<path class="st8" d="M103.6,13c0,0-0.5,0.3-1.1,0.4c-0.7,0.1-1.2,0-1.2,0c0-0.1,0.5,0,1.2-0.1C103.1,13.1,103.6,13,103.6,13z"/>
		</g>
		<g>
			<path class="st8" d="M103.9,16.2c0,0-0.6,0.2-1.3,0.2c-0.7,0-1.3-0.1-1.3-0.2c0-0.1,0.6,0,1.3,0
				C103.4,16.1,103.9,16.1,103.9,16.2z"/>
		</g>
		<g>
			<path class="st8" d="M104.3,19c0,0-0.1,0.1-0.3,0.2c-0.2,0.1-0.5,0.2-0.9,0.3c-0.4,0-0.7,0-0.9-0.1c-0.2-0.1-0.4-0.1-0.4-0.2
				c0-0.1,0.6,0.1,1.3,0C103.8,19.3,104.3,19,104.3,19z"/>
		</g>
		<g>
			<path class="st8" d="M104.5,21.5c0,0-0.1,0.1-0.2,0.2c-0.2,0.1-0.4,0.3-0.7,0.4c-0.3,0.1-0.6,0.2-0.8,0.2c-0.2,0-0.3,0-0.3-0.1
				c0,0,0.1,0,0.3-0.1c0.2,0,0.4-0.1,0.7-0.2c0.3-0.1,0.5-0.3,0.7-0.4C104.4,21.6,104.5,21.5,104.5,21.5z"/>
		</g>
		<g>
			<path class="st8" d="M114.8,28.7c0,0-0.2,0.1-0.4,0.1c-0.3,0-0.6,0-1-0.1s-0.7-0.3-1-0.5c-0.2-0.2-0.3-0.3-0.3-0.3
				s0.6,0.4,1.3,0.6C114.2,28.7,114.8,28.6,114.8,28.7z"/>
		</g>
		<g>
			<path class="st8" d="M116.1,24.7c0,0-0.1-0.1-0.1-0.2c-0.1-0.1-0.1-0.4-0.1-0.6c0-0.2,0.1-0.4,0.2-0.6c0.1-0.1,0.2-0.2,0.2-0.2
				s-0.2,0.3-0.2,0.7C116,24.3,116.1,24.7,116.1,24.7z"/>
		</g>
		<g>
			<path class="st8" d="M119.8,24.6c0,0-0.1,0-0.3-0.2c-0.2-0.1-0.4-0.4-0.5-0.7c-0.2-0.3-0.2-0.6-0.2-0.8s0-0.3,0-0.3
				s0,0.1,0.1,0.3c0,0.2,0.1,0.5,0.3,0.7c0.1,0.3,0.3,0.5,0.5,0.6C119.7,24.5,119.8,24.6,119.8,24.6z"/>
		</g>
		<g>
			<path class="st8" d="M122.8,22.8c0,0-0.2,0-0.4-0.1c-0.1,0-0.3-0.1-0.4-0.2c-0.1-0.1-0.3-0.2-0.5-0.3c-0.1-0.1-0.3-0.3-0.4-0.4
				c-0.1-0.1-0.2-0.3-0.2-0.4c-0.1-0.2-0.2-0.4-0.1-0.4c0,0,0.1,0.1,0.2,0.3c0.1,0.1,0.2,0.2,0.3,0.3c0.1,0.1,0.2,0.2,0.4,0.4
				c0.1,0.1,0.3,0.2,0.4,0.3s0.3,0.1,0.4,0.2C122.7,22.7,122.8,22.8,122.8,22.8z"/>
		</g>
		<g>
			<path class="st8" d="M115.6,26.3c0,0-0.3,0.1-0.7,0c-0.4-0.1-0.7-0.3-0.7-0.3s0.3,0.1,0.7,0.1C115.3,26.2,115.6,26.2,115.6,26.3z
				"/>
		</g>
		<g>
			<path class="st8" d="M124.2,19.2c0,0-0.3,0.2-0.8,0.2c-0.4,0-0.8-0.1-0.8-0.1c0-0.1,0.3,0,0.8-0.1
				C123.8,19.2,124.2,19.1,124.2,19.2z"/>
		</g>
		<g>
			<path class="st8" d="M124.9,16.6c0,0-0.5,0-1.1-0.1s-1-0.3-1-0.3s0.5,0,1.1,0.1C124.4,16.4,124.9,16.5,124.9,16.6z"/>
		</g>
		<g>
			<path class="st8" d="M125,13.8c0,0-0.4-0.2-0.8-0.5c-0.5-0.3-0.8-0.4-0.8-0.5c0,0,0.5,0,0.9,0.3S125,13.8,125,13.8z"/>
		</g>
		<g>
			<path class="st8" d="M125.8,12c0,0.1-0.6-0.1-1.3-0.2c-0.7-0.1-1.3-0.1-1.3-0.2c0,0,0.6-0.1,1.3,0C125.3,11.7,125.8,12,125.8,12z
				"/>
		</g>
		<g>
			<path class="st8" d="M125.4,10c0,0-0.5,0.3-1.3,0.4c-0.7,0.1-1.3,0-1.3-0.1s0.6,0,1.3-0.1C124.9,10.2,125.4,10,125.4,10z"/>
		</g>
		<g>
			<path class="st8" d="M105.1,10.4c0,0,0-0.2,0-0.5c0-0.1,0.1-0.3,0.2-0.5s0.2-0.4,0.3-0.6c0.1-0.2,0.3-0.4,0.4-0.5
				s0.3-0.3,0.4-0.3c0.2-0.2,0.4-0.2,0.4-0.2s-0.1,0.1-0.4,0.3c-0.1,0.1-0.2,0.2-0.4,0.3c-0.1,0.1-0.3,0.3-0.4,0.5s-0.2,0.4-0.3,0.5
				c-0.1,0.2-0.1,0.3-0.2,0.5C105.2,10.2,105.2,10.4,105.1,10.4z"/>
		</g>
		<g>
			<path class="st8" d="M108,11.1c0,0-0.1-0.2,0-0.5c0-0.2,0-0.4,0.1-0.6c0-0.2,0.1-0.4,0.2-0.7c0.1-0.2,0.2-0.4,0.3-0.6
				c0.1-0.2,0.2-0.3,0.3-0.5c0.2-0.2,0.4-0.4,0.4-0.4s-0.5,0.6-0.8,1.5C108,10.3,108,11.1,108,11.1z"/>
		</g>
		<g>
			<path class="st8" d="M111.5,11.9c0,0-0.2-0.9-0.1-1.9c0.1-1.1,0.4-1.9,0.5-1.9s-0.2,0.8-0.3,1.9C111.5,11,111.6,11.9,111.5,11.9z
				"/>
		</g>
		<g>
			<path class="st8" d="M115.2,11.3c-0.1,0-0.1-0.8-0.3-1.7c-0.2-0.9-0.6-1.5-0.6-1.6c0,0,0.1,0.1,0.3,0.4c0.2,0.3,0.3,0.7,0.5,1.1
				c0.1,0.5,0.2,0.9,0.2,1.2C115.3,11.2,115.2,11.3,115.2,11.3z"/>
		</g>
		<g>
			<path class="st8" d="M119.3,10.8c-0.1,0-0.3-0.7-0.8-1.4c-0.5-0.8-1-1.3-0.9-1.3c0,0,0.6,0.5,1.1,1.2
				C119.2,10.1,119.4,10.8,119.3,10.8z"/>
		</g>
		<g>
			<path class="st8" d="M122.7,10c0,0-0.1-0.2-0.3-0.4c-0.1-0.1-0.2-0.3-0.4-0.5c-0.1-0.2-0.3-0.3-0.5-0.5s-0.4-0.3-0.6-0.4
				c-0.2-0.1-0.4-0.2-0.5-0.3c-0.3-0.2-0.5-0.2-0.5-0.3c0,0,0.2,0,0.5,0.1c0.2,0.1,0.3,0.2,0.5,0.3s0.4,0.3,0.6,0.4
				c0.2,0.2,0.4,0.4,0.5,0.5c0.1,0.2,0.3,0.3,0.3,0.5C122.6,9.8,122.7,10,122.7,10z"/>
		</g>
	</g>
</g>
<g>
	<path class="st5" d="M24,53c0.5,4.5,0.7,8,0.5,12c-0.1,1.2-0.5,2.9-0.9,4c-0.5,1.2-1.2,1.9-2.1,2.9c-1.7,1.8-4.3,2.2-6.8,2.3
		c-1.2,0.1-2.4,0-3.3-0.8s-1.1-2.3-1-3.5c0.2-6.4,3-12.3,6.9-17.4c1.8-2.3,4.3-2.9,5.2-2.5C23.6,50.4,23.8,51.7,24,53z"/>
	<path class="st5" d="M27.2,53c-0.5,4.5-0.7,8-0.5,12c0.1,1.2,0.5,2.9,0.9,4c0.5,1.2,1.2,1.9,2.1,2.9c1.7,1.8,4.3,2.2,6.8,2.3
		c1.2,0.1,2.4,0,3.3-0.8c0.9-0.8,1.1-2.3,1-3.5c-0.2-6.4-3-12.3-6.9-17.4c-1.8-2.3-4.3-2.9-5.2-2.5C27.6,50.4,27.4,51.7,27.2,53z"/>
	<g>
		<g>
			<path class="st10" d="M26.4,59.8h-1.6c0.4-2,0.2-5.3-0.1-8.1c0-0.6,1.9-0.6,1.9,0C26.2,54.2,26,57.5,26.4,59.8z"/>
		</g>
		<g>
			<g>
				<path class="st10" d="M36,66.9c0,0-0.3-0.4-0.9-0.9c-0.6-0.5-1.6-1-2.9-1.3c-1.2-0.4-2.6-0.9-3.8-1.6c-0.6-0.4-1.2-0.8-1.7-1.3
					s-0.9-1-1.1-1.6c-0.1-0.4-0.2-0.7-0.1-0.9c0.1-0.2,0.1-0.3,0.3-0.3c0.1,0,0.2,0.1,0.3,0.2c0.1,0.1,0.2,0.4,0.3,0.6
					c0,0.1,0,0.1,0.1,0.2v0.1v0.1c0,0.1,0.1,0.1,0.1,0.2s0.1,0.1,0.1,0.2l0.1,0.1l0.1,0.1c0,0.1,0.1,0.1,0.1,0.2
					c0.1,0.1,0.2,0.2,0.3,0.3c0.4,0.4,0.9,0.8,1.5,1.2c1.1,0.7,2.4,1.3,3.6,1.7c1.2,0.4,2.3,1,2.9,1.6c0.3,0.3,0.5,0.6,0.6,0.8
					C35.9,66.6,36,66.7,36,66.9C36,66.8,36,66.9,36,66.9z"/>
			</g>
		</g>
		<g>
			<g>
				<path class="st10" d="M33.6,60.8c0,0-0.1,0.2-0.4,0.5c-0.3,0.3-0.8,0.6-1.4,0.9s-1.3,0.4-2.1,0.4c-0.7,0-1.4-0.2-1.9-0.4
					c-0.1,0-0.2-0.1-0.2-0.1c-0.1,0-0.1-0.1-0.1-0.1c-0.1-0.1-0.1-0.1,0-0.2s0.3-0.1,0.6,0c0.5,0.2,1.1,0.4,1.8,0.4
					c0.7,0,1.4-0.1,1.9-0.3c0.6-0.2,1.1-0.5,1.4-0.8C33.4,60.9,33.5,60.8,33.6,60.8z"/>
			</g>
		</g>
		<g>
			<g>
				<path class="st10" d="M34.9,69.4c0,0-0.1,0-0.2-0.1c-0.1,0-0.1-0.1-0.2-0.1c-0.1,0-0.2-0.1-0.3-0.2c-0.4-0.2-0.9-0.6-1.5-1.1
					c-0.5-0.5-1.1-1.1-1.5-1.8c-0.4-0.7-0.8-1.4-1-2c0-0.1-0.1-0.2-0.1-0.3c0-0.1,0-0.1,0-0.2s0-0.2,0.1-0.2s0.1,0,0.2,0.1
					c0,0,0.1,0.1,0.1,0.2s0.1,0.1,0.1,0.2c0.2,0.6,0.5,1.3,0.9,1.9c0.4,0.7,0.9,1.3,1.4,1.8s1,0.9,1.4,1.2c0.1,0.1,0.2,0.1,0.3,0.2
					s0.1,0.1,0.2,0.1C34.9,69.4,34.9,69.4,34.9,69.4z"/>
			</g>
		</g>
		<g>
			<g>
				<path class="st10" d="M29.3,68.2c-0.1,0,0.1-0.9,0-2c-0.1-0.6-0.2-1.2-0.4-1.7c-0.2-0.6-0.4-1.1-0.7-1.5
					c-0.2-0.3-0.1-0.4-0.1-0.5c0.1-0.1,0.3,0,0.4,0.3c0.3,0.4,0.5,1,0.7,1.6s0.3,1.2,0.3,1.8c0,0.6,0,1.1-0.1,1.4
					c0,0.1,0,0.2-0.1,0.2c0,0.1,0,0.1-0.1,0.2C29.3,68.1,29.3,68.2,29.3,68.2z"/>
			</g>
		</g>
		<g>
			<g>
				<path class="st10" d="M28,65.2c0,0-0.4-0.4-0.7-1c-0.1-0.3-0.3-0.7-0.3-1.1c-0.1-0.4-0.1-0.7,0-1.1c0-0.2,0.1-0.3,0.2-0.3
					s0.1,0.1,0.1,0.3c0,0.3,0,0.6,0,1s0.1,0.7,0.2,1C27.7,64.7,28,65.2,28,65.2z"/>
			</g>
		</g>
		<g>
			<g>
				<path class="st10" d="M27.9,53.5c0,0,0,0.1,0,0.3c0,0.2,0.1,0.5,0.3,0.7c0.2,0.3,0.5,0.6,0.9,0.9c0.2,0.2,0.4,0.3,0.5,0.5
					c0.2,0.2,0.3,0.5,0.4,0.7c0.1,0.3,0.2,0.6,0.3,0.8c0.1,0.3,0.1,0.6,0,0.9c-0.1,0.6-0.3,1.2-0.7,1.7c-0.2,0.2-0.4,0.5-0.7,0.7
					c-0.1,0-0.1,0.1-0.2,0.1l-0.1,0.1l0,0l0,0l0,0h-0.1h-0.1c-0.1,0-0.1,0-0.2,0.1c-0.3,0.1-0.6,0.1-0.9,0c-0.3,0-0.5-0.2-0.8-0.3
					c-0.1-0.1-0.1-0.1-0.2-0.2s-0.1-0.1-0.1-0.2s-0.1-0.1-0.1-0.1s0,0,0-0.1c0,0,0,0,0-0.1c0-0.2,0-0.2,0-0.3c0.1,0,0.1,0,0.2,0.1
					c0.1,0,0.1,0.1,0.2,0.2s0.2,0.1,0.3,0.2c0.2,0.1,0.4,0.2,0.6,0.2s0.5,0,0.7,0c0.1,0,0.1,0,0.2,0h0.1h0.1l0,0l0,0l0,0l0.1-0.1
					c0.1,0,0.1-0.1,0.2-0.1c0.2-0.2,0.4-0.3,0.6-0.6c0.4-0.4,0.6-1,0.7-1.5c0-0.3,0-0.6,0-0.8c0-0.3-0.1-0.5-0.2-0.8
					c-0.1-0.2-0.2-0.5-0.4-0.7c-0.1-0.2-0.3-0.4-0.5-0.5c-0.3-0.3-0.7-0.6-0.8-1C28,54,27.9,53.7,27.9,53.5
					C27.8,53.7,27.9,53.5,27.9,53.5z"/>
			</g>
		</g>
		<g>
			<g>
				<path class="st10" d="M27.9,56.2c0,0,0,0.2,0,0.5s0,0.7,0.1,1.1s0.2,0.9,0.4,1.3c0.2,0.4,0.5,0.8,0.7,1c0.2,0.1,0.2,0.3,0.2,0.3
					c0,0.1-0.2,0.1-0.4-0.1c-0.3-0.3-0.6-0.7-0.8-1.1c-0.2-0.5-0.3-1-0.3-1.4c0-0.5,0-0.9,0-1.1C27.9,56.4,27.9,56.2,27.9,56.2z"/>
			</g>
		</g>
		<g>
			<g>
				<path class="st10" d="M28.8,56.9c0,0,0.1,0.4,0.1,0.8c0,0.2,0,0.5-0.1,0.8s-0.2,0.5-0.3,0.7c-0.1,0.2-0.3,0.1-0.2-0.1
					c0.1-0.2,0.2-0.4,0.3-0.6c0.1-0.2,0.1-0.5,0.1-0.7C28.8,57.3,28.8,56.9,28.8,56.9z"/>
			</g>
		</g>
		<g>
			<g>
				<path class="st10" d="M29.3,53.9C29.3,53.9,29.3,54,29.3,53.9c0.1,0.1,0.1,0.1,0.2,0.1l0.1,0.1c0.2,0.2,0.4,0.5,0.5,0.8
					c0.2,0.3,0.3,0.8,0.4,1.2c0.1,0.4,0,0.8-0.1,1.2c0,0.1-0.1,0.2-0.1,0.2s-0.1,0.1-0.1,0v-0.1c0-0.1,0-0.1,0-0.2
					c0.1-0.3,0.1-0.7,0.1-1.1S30.1,55.3,30,55c-0.1-0.3-0.3-0.6-0.5-0.8l-0.1-0.1C29.4,54.1,29.3,54.1,29.3,53.9
					C29.3,54,29.3,53.9,29.3,53.9z"/>
			</g>
		</g>
		<g>
			<g>
				<path class="st10" d="M31.7,56.6L31.7,56.6c0,0.1,0,0.2,0,0.2s0,0.1,0,0.2c0,0.2,0,0.6-0.2,0.9c-0.1,0.3-0.3,0.7-0.6,1
					c-0.2,0.3-0.5,0.5-0.8,0.7c-0.2,0.1-0.3,0.1-0.3,0s0-0.2,0.2-0.3c0.2-0.1,0.5-0.3,0.8-0.6c0.2-0.3,0.4-0.6,0.6-0.9
					c0.1-0.3,0.2-0.6,0.2-0.8c0-0.1,0-0.1,0-0.1C31.7,56.7,31.7,56.7,31.7,56.6L31.7,56.6z"/>
			</g>
		</g>
		<g>
			<g>
				<path class="st10" d="M32.7,58.9c0,0-0.2,0.1-0.5,0.3c-0.1,0.1-0.3,0.3-0.4,0.5s-0.3,0.5-0.5,0.7c-0.1,0.1-0.2,0.3-0.3,0.4
					c-0.1,0.1-0.2,0.3-0.4,0.4c-0.3,0.2-0.6,0.4-0.9,0.5s-0.7,0.1-1,0.1s-0.6-0.1-0.9-0.2c-0.2-0.1-0.3-0.2-0.3-0.3
					c-0.1-0.1-0.1-0.1,0-0.2s0.3-0.1,0.5,0.1c0.2,0.1,0.5,0.2,0.8,0.2s0.6,0,0.9-0.1s0.6-0.2,0.8-0.4c0.2-0.2,0.5-0.4,0.6-0.6
					c0.2-0.2,0.4-0.5,0.5-0.7c0.2-0.2,0.4-0.4,0.5-0.5c0.2-0.1,0.3-0.2,0.4-0.2C32.6,58.9,32.7,58.9,32.7,58.9z"/>
			</g>
		</g>
		<g>
			<g>
				<path class="st10" d="M35.6,63.7L35.6,63.7c-0.1,0-0.2,0-0.3,0c-0.1,0-0.1,0-0.2,0c-0.3,0-0.7,0-1.2,0c-0.5,0.1-1,0.1-1.5,0.2
					s-1.1,0.1-1.5,0c-0.1,0-0.1,0-0.2-0.1l-0.1-0.1c-0.1-0.1-0.1-0.1-0.1-0.2s0.1-0.1,0.1-0.1h0.1c0,0,0.1,0,0.2,0
					c0.4,0.1,0.9,0.1,1.4,0c0.5,0,1.1-0.1,1.5-0.1c0.5,0,0.9,0,1.3,0.1c0.1,0,0.1,0,0.2,0.1C35.4,63.5,35.4,63.5,35.6,63.7
					L35.6,63.7z"/>
			</g>
		</g>
		<g>
			<g>
				<path class="st10" d="M34.3,62.2L34.3,62.2c-0.1,0.1-0.2,0.1-0.3,0.2c-0.2,0.1-0.4,0.2-0.7,0.3c-0.3,0.1-0.6,0.1-1,0
					c-0.3,0-0.6-0.1-0.9-0.3c-0.2-0.1-0.2-0.2-0.2-0.2s0.1,0,0.3,0c0.2,0.1,0.5,0.2,0.8,0.3c0.3,0.1,0.6,0.1,0.9,0
					C33.9,62.4,34.3,62.2,34.3,62.2z"/>
			</g>
		</g>
		<g>
			<g>
				<path class="st10" d="M35.1,67.7c0,0-0.4-0.3-0.8-0.8c-0.2-0.3-0.4-0.6-0.5-0.9s-0.2-0.6-0.2-0.9c0-0.4,0.3-0.3,0.3,0
					c0,0.2,0.1,0.5,0.2,0.8c0.1,0.3,0.2,0.6,0.4,0.9C34.8,67.3,35.2,67.6,35.1,67.7z"/>
			</g>
		</g>
		<g>
			<g>
				<path class="st10" d="M30.5,68.8C30.5,68.8,30.5,68.8,30.5,68.8v-0.2c0-0.1,0-0.1,0-0.2c0-0.3,0-0.6-0.1-1s-0.2-0.8-0.4-1.2
					c-0.2-0.4-0.4-0.7-0.7-0.9c-0.1-0.2-0.2-0.3-0.1-0.3c0.1-0.1,0.2,0,0.4,0.1c0.2,0.3,0.5,0.6,0.7,1s0.3,0.8,0.4,1.3
					c0.1,0.4,0,0.8,0,1c0,0.1,0,0.1,0,0.2s0,0.1,0,0.1C30.5,68.8,30.5,68.8,30.5,68.8z"/>
			</g>
		</g>
		<g>
			<g>
				<path class="st10" d="M31.9,69.1c0,0,0.1-0.4,0.1-0.8c0-0.2,0-0.5,0-0.7s-0.1-0.5-0.1-0.6c-0.1-0.2,0.2-0.3,0.3-0.1
					c0.1,0.2,0.1,0.4,0.1,0.7c0,0.3,0,0.5,0,0.8C32.1,68.8,32,69.1,31.9,69.1z"/>
			</g>
		</g>
		<g>
			<g>
				<path class="st10" d="M33.5,67.2c0,0-0.3-0.2-0.7-0.4c-0.2-0.1-0.4-0.2-0.6-0.3c-0.2-0.1-0.4-0.1-0.6-0.1s-0.2-0.4,0-0.3
					c0.2,0,0.4,0.1,0.7,0.2c0.2,0.1,0.5,0.2,0.6,0.4C33.3,66.8,33.5,67.1,33.5,67.2z"/>
			</g>
		</g>
		<g>
			<g>
				<path class="st10" d="M15.2,66.9C15.2,66.9,15.2,66.8,15.2,66.9c0-0.2,0.1-0.2,0.1-0.3c0.1-0.2,0.3-0.5,0.6-0.8
					c0.6-0.6,1.6-1.2,2.9-1.6c1.2-0.5,2.5-1,3.6-1.7c0.6-0.4,1.1-0.8,1.5-1.2c0.1-0.1,0.2-0.2,0.3-0.3c0-0.1,0.1-0.1,0.1-0.2
					l0.1-0.1l0.1-0.1c0-0.1,0.1-0.1,0.1-0.2s0.1-0.1,0.1-0.2v-0.1V60c0-0.1,0.1-0.1,0.1-0.2c0.1-0.3,0.2-0.5,0.3-0.7
					c0.1-0.1,0.2-0.2,0.3-0.2c0.1,0,0.2,0.1,0.3,0.3c0,0.2,0,0.5-0.1,0.8c-0.2,0.6-0.6,1.1-1.1,1.6s-1.1,0.9-1.7,1.3
					c-1.2,0.7-2.6,1.2-3.8,1.6c-1.2,0.3-2.2,0.8-2.9,1.3C15.5,66.5,15.2,66.9,15.2,66.9z"/>
			</g>
		</g>
		<g>
			<g>
				<path class="st10" d="M17.6,60.8c0,0,0.2,0.2,0.5,0.4c0.3,0.2,0.8,0.5,1.4,0.8c0.6,0.2,1.3,0.3,1.9,0.3c0.7,0,1.3-0.2,1.8-0.4
					c0.3-0.1,0.5-0.1,0.6,0c0,0.1-0.1,0.3-0.4,0.4c-0.5,0.2-1.2,0.4-1.9,0.4c-0.7,0-1.5-0.1-2.1-0.4s-1.1-0.6-1.4-0.9
					C17.8,61,17.6,60.8,17.6,60.8z"/>
			</g>
		</g>
		<g>
			<g>
				<path class="st10" d="M16.3,69.4c0,0,0-0.1,0.2-0.1c0.1,0,0.1-0.1,0.2-0.1c0.1-0.1,0.2-0.1,0.3-0.2c0.4-0.3,0.9-0.7,1.4-1.2
					s1-1.2,1.4-1.8c0.4-0.7,0.7-1.3,0.9-1.9c0-0.1,0.1-0.2,0.1-0.2c0-0.1,0.1-0.1,0.1-0.2c0.1-0.1,0.1-0.1,0.2-0.1s0.1,0.1,0.1,0.2
					s0,0.1,0,0.2s0,0.2-0.1,0.3c-0.2,0.6-0.5,1.3-1,2c-0.4,0.7-1,1.3-1.5,1.8s-1.1,0.9-1.5,1.1c-0.1,0.1-0.2,0.1-0.3,0.2
					c-0.1,0-0.2,0.1-0.2,0.1C16.4,69.4,16.3,69.4,16.3,69.4z"/>
			</g>
		</g>
		<g>
			<g>
				<path class="st10" d="M21.9,68.2c0,0,0,0-0.1-0.1c0,0,0-0.1-0.1-0.2c0-0.1,0-0.2-0.1-0.2c-0.1-0.4-0.1-0.9-0.1-1.4
					c0-0.6,0.1-1.2,0.3-1.8c0.2-0.6,0.4-1.1,0.7-1.6c0.2-0.3,0.3-0.3,0.4-0.3c0.1,0.1,0.1,0.3-0.1,0.5c-0.2,0.4-0.5,0.9-0.7,1.5
					s-0.3,1.2-0.4,1.7C21.8,67.3,22,68.2,21.9,68.2z"/>
			</g>
		</g>
		<g>
			<g>
				<path class="st10" d="M23.2,65.2c0,0,0.3-0.5,0.5-1.1c0.1-0.3,0.2-0.7,0.2-1c0-0.4,0-0.7,0-1c0-0.2,0-0.3,0.1-0.3
					s0.2,0.1,0.2,0.3c0,0.3,0,0.7,0,1.1c-0.1,0.4-0.2,0.8-0.3,1.1C23.6,64.8,23.2,65.2,23.2,65.2z"/>
			</g>
		</g>
		<g>
			<g>
				<path class="st10" d="M23.3,53.5c0,0,0,0.1,0,0.3c0,0.2-0.1,0.5-0.3,0.8c-0.2,0.3-0.5,0.6-0.8,1c-0.2,0.2-0.3,0.3-0.5,0.5
					c-0.1,0.2-0.3,0.4-0.4,0.7c-0.1,0.2-0.2,0.5-0.2,0.8s0,0.6,0,0.8c0.1,0.6,0.3,1.1,0.7,1.5c0.2,0.2,0.4,0.4,0.6,0.6
					c0.1,0,0.1,0.1,0.2,0.1l0.1,0.1l0,0l0,0l0,0c0,0,0,0,0.1,0h0.1c0.1,0,0.1,0,0.2,0c0.2,0,0.5,0,0.7,0s0.4-0.1,0.6-0.2
					c0.1,0,0.1-0.1,0.2-0.1l0.1-0.1l0.1-0.1l0,0l0,0c0.1-0.1,0.2-0.1,0.2-0.1s0.1,0.1,0,0.3c0,0.1-0.1,0.2-0.1,0.3
					c-0.1,0.1-0.2,0.2-0.3,0.3c-0.2,0.2-0.5,0.3-0.8,0.3s-0.6,0-0.9,0c-0.1,0-0.1,0-0.2-0.1h-0.1h-0.1l0,0l0,0l0,0l-0.1-0.1
					c-0.1,0-0.1-0.1-0.2-0.1c-0.2-0.2-0.5-0.4-0.7-0.7c-0.4-0.5-0.6-1.1-0.7-1.7c0-0.3,0-0.6,0-0.9c0.1-0.3,0.1-0.6,0.3-0.8
					c0.1-0.3,0.3-0.5,0.4-0.7c0.2-0.2,0.4-0.4,0.5-0.5c0.4-0.3,0.7-0.6,0.9-0.9c0.2-0.3,0.3-0.5,0.3-0.7
					C23.3,53.7,23.3,53.6,23.3,53.5z"/>
			</g>
		</g>
		<g>
			<g>
				<path class="st10" d="M23.3,56.2c0,0,0,0.2,0.1,0.5c0,0.3,0,0.7,0,1.1c0,0.5-0.1,1-0.3,1.4c-0.2,0.5-0.5,0.9-0.8,1.1
					c-0.1,0-0.1,0.1-0.1,0.1h-0.1c-0.1,0-0.1,0-0.1,0c0-0.1,0-0.2,0.2-0.3c0.3-0.2,0.6-0.6,0.7-1c0.2-0.4,0.3-0.9,0.4-1.3
					s0.1-0.8,0.1-1.1C23.3,56.4,23.3,56.2,23.3,56.2z"/>
			</g>
		</g>
		<g>
			<g>
				<path class="st10" d="M22.4,56.9c0,0,0,0.4,0,0.8c0,0.2,0.1,0.5,0.1,0.7c0.1,0.2,0.2,0.5,0.3,0.6c0.1,0.2-0.1,0.3-0.2,0.1
					c-0.1-0.2-0.2-0.4-0.3-0.7c-0.1-0.3-0.1-0.5-0.1-0.8C22.3,57.3,22.4,56.9,22.4,56.9z"/>
			</g>
		</g>
		<g>
			<g>
				<path class="st10" d="M21.9,53.9C21.9,53.9,21.9,54,21.9,53.9c-0.1,0.1-0.1,0.1-0.1,0.2l-0.1,0.1c-0.1,0.2-0.3,0.5-0.5,0.8
					c-0.1,0.3-0.3,0.7-0.3,1.1s0,0.8,0.1,1.1c0,0.1,0,0.2,0,0.2c0,0.1,0,0.1,0,0.1h-0.1c0,0-0.1-0.1-0.1-0.2
					c-0.1-0.3-0.1-0.7-0.1-1.2c0.1-0.4,0.2-0.8,0.4-1.2c0.2-0.4,0.4-0.6,0.5-0.8l0.1-0.1C21.8,54.1,21.8,54,21.9,53.9
					C21.9,54,21.9,53.9,21.9,53.9z"/>
			</g>
		</g>
		<g>
			<g>
				<path class="st10" d="M19.5,56.6L19.5,56.6c0,0.1,0,0.2,0,0.2v0.1c0,0.2,0.1,0.5,0.2,0.8s0.3,0.6,0.6,0.9
					c0.2,0.3,0.5,0.5,0.8,0.6c0.2,0.1,0.2,0.2,0.2,0.3c0,0.1-0.2,0.1-0.3,0c-0.3-0.2-0.6-0.4-0.8-0.7c-0.3-0.3-0.4-0.7-0.6-1
					c-0.1-0.3-0.2-0.7-0.2-0.9c0-0.1,0-0.1,0-0.2C19.5,56.7,19.5,56.7,19.5,56.6L19.5,56.6z"/>
			</g>
		</g>
		<g>
			<g>
				<path class="st10" d="M18.5,58.9c0,0,0.1,0,0.2,0s0.3,0.1,0.4,0.2c0.2,0.1,0.4,0.3,0.5,0.5c0.2,0.2,0.3,0.4,0.5,0.7
					c0.2,0.2,0.4,0.5,0.6,0.6c0.2,0.2,0.5,0.3,0.8,0.4s0.6,0.1,0.9,0.1s0.5-0.1,0.8-0.2s0.5-0.1,0.5-0.1s0,0.1,0,0.2
					c-0.1,0.1-0.2,0.2-0.3,0.2c-0.3,0.1-0.6,0.2-0.9,0.2s-0.7,0-1-0.1s-0.7-0.3-0.9-0.5c-0.1-0.1-0.3-0.2-0.4-0.4
					c-0.1-0.1-0.2-0.3-0.3-0.4c-0.2-0.3-0.3-0.5-0.5-0.7c-0.1-0.2-0.3-0.4-0.4-0.5C18.8,59,18.5,59,18.5,58.9z"/>
			</g>
		</g>
		<g>
			<g>
				<path class="st10" d="M15.6,63.7c0,0,0,0,0.1-0.1c0,0,0.1,0,0.2-0.1c0.1,0,0.1,0,0.2-0.1c0.3-0.1,0.8-0.1,1.3-0.1s1,0.1,1.5,0.1
					s1,0,1.4,0c0.1,0,0.1,0,0.2,0h0.1c0.1,0,0.1,0.1,0.1,0.1c0,0.1,0,0.1-0.1,0.2l-0.1,0.1c0,0-0.1,0-0.2,0.1c-0.4,0.1-1,0.1-1.5,0
					s-1.1-0.2-1.5-0.2c-0.5-0.1-0.9-0.1-1.2,0c-0.1,0-0.1,0-0.2,0C15.8,63.7,15.8,63.7,15.6,63.7C15.7,63.7,15.6,63.7,15.6,63.7z"/>
			</g>
		</g>
		<g>
			<g>
				<path class="st10" d="M16.9,62.2c0,0,0.4,0.2,1,0.3c0.3,0,0.6,0,0.9,0c0.3-0.1,0.6-0.2,0.8-0.3c0.1-0.1,0.2-0.1,0.3,0
					c0,0,0,0.1-0.2,0.2s-0.5,0.2-0.9,0.3c-0.3,0-0.7,0-1,0c-0.3-0.1-0.6-0.2-0.7-0.3C17.1,62.3,17,62.3,16.9,62.2L16.9,62.2z"/>
			</g>
		</g>
		<g>
			<g>
				<path class="st10" d="M16.1,67.7c0,0,0.3-0.4,0.6-0.9c0.1-0.3,0.3-0.6,0.4-0.9s0.2-0.6,0.2-0.8c0-0.3,0.4-0.3,0.3,0
					c0,0.3-0.1,0.6-0.2,0.9s-0.3,0.6-0.5,0.9C16.5,67.4,16.1,67.7,16.1,67.7z"/>
			</g>
		</g>
		<g>
			<g>
				<path class="st10" d="M20.7,68.8C20.7,68.8,20.7,68.8,20.7,68.8v-0.2c0-0.1,0-0.1,0-0.2c0-0.3,0-0.6,0-1
					c0.1-0.4,0.2-0.9,0.4-1.3c0.2-0.4,0.4-0.8,0.7-1c0.2-0.2,0.3-0.2,0.4-0.1s0,0.2-0.1,0.3c-0.2,0.2-0.5,0.6-0.7,0.9
					c-0.2,0.4-0.3,0.8-0.4,1.2c-0.1,0.4-0.1,0.7-0.1,1c0,0.1,0,0.1,0,0.2s0,0.1,0,0.1C20.7,68.8,20.7,68.8,20.7,68.8z"/>
			</g>
		</g>
		<g>
			<g>
				<path class="st10" d="M19.3,69.1c0,0-0.2-0.3-0.3-0.8c0-0.2-0.1-0.5,0-0.8c0-0.3,0.1-0.5,0.1-0.7c0.1-0.3,0.4-0.1,0.3,0.1
					s-0.1,0.4-0.1,0.6s0,0.5,0,0.7C19.2,68.7,19.3,69.1,19.3,69.1z"/>
			</g>
		</g>
		<g>
			<g>
				<path class="st10" d="M17.8,67.2c0,0,0.2-0.3,0.5-0.6c0.2-0.1,0.4-0.3,0.6-0.4s0.5-0.2,0.7-0.2c0.3,0,0.3,0.3,0,0.3
					c-0.2,0-0.4,0.1-0.6,0.1c-0.2,0.1-0.4,0.2-0.6,0.3C18,66.9,17.8,67.2,17.8,67.2z"/>
			</g>
		</g>
	</g>
</g>
<g>
	<path class="st11" d="M19.1,7.9c-0.7-0.1-1.5,0.1-1.4,0.6c0.2,1.4-0.4,2.7-1,3.8c-0.7,1.2-1,5-0.6,6.4c1.2,3.4,8.2-1.7,8.9-3.2
		c0.1-0.2-2.2-2.3-3.3-3.2c-0.9-0.8-2.1-1.8-1.1-3.4C20.9,8.4,19.7,8,19.1,7.9z"/>
	<path class="st12" d="M18,8.3c-0.2,0.4,2.3,0.6,2.2,0.3c0-0.2-0.6-0.4-1.2-0.4C18.5,8.1,18,8.2,18,8.3z"/>
	<path class="st13" d="M30.2,5.5c0.3-0.2-0.3-1.8-1-1.6c-0.6,0.2-1.2,0.8-1.6,1.3c-0.9,1-1.6,2.1-2.1,3.3h-0.2
		c0-1.1,0.1-3.5,0.1-4.7c0-0.9-2.1-0.9-2.2-0.5c-0.1,0.5,0.4,4.4,0.4,5.5c-0.8-1.8-2.9-4.1-3.7-4.4c-1.3-0.6-1.9,1.9-1.2,2.1
		c1.6,0.4,2.8,1.7,3.1,3.2c-1,0.8-1.8,1.9-2.3,3.1c-0.7,1.7-0.8,3.5-0.7,5.3c0,0.3,0.2,0.5,0.6,0.5c1.6-0.2,3.1-0.6,4.6-1.1
		c0.3-0.1,0.4-0.4,0.3-0.6c0.1-0.1,0.1-0.2,0.1-0.4c-0.3-1.5-0.6-3.3,0.5-4.5c1.1-1.1,3.1-0.4,3.2,1.2c0,0.3,0.3,0.5,0.6,0.5
		c0.5-0.1,1-0.2,1.5-0.2c0.2,0,0.3-0.2,0.3-0.4c0-2-1.4-3.6-3.1-4.2C28,7.4,28.9,6.5,30.2,5.5z"/>
	<path class="st11" d="M35.4,11.8c-0.2-0.5-0.6-1.1-1-0.8c-0.9,0.6-2,0.7-3.1,0.6c-1.1-0.1-2.3-0.2-3.4,0.2c-0.1,0-0.2,0.1-0.2,0.2
		c0,0.1-0.1,0.1-0.1,0.2c0,1.6,0.2,3.3,1.1,4.6c0.7,1.1,2,1.9,3.3,1.8c0.2,0,0.9-2.4,1.1-3.5c0.2-0.9,0.6-2.1,2-2
		C35.7,13.3,35.6,12.3,35.4,11.8z"/>
	<path class="st14" d="M23.4,3.5c0,0.3,1.6,0.3,1.5,0.1C24.8,3.3,23.4,3.3,23.4,3.5z"/>
	<path class="st14" d="M18.6,6.2c0.2,0.2,1-1.4,0.7-1.4c-0.2,0-0.4,0.2-0.6,0.6C18.5,5.7,18.5,6.1,18.6,6.2z"/>
	<path class="st14" d="M29.4,4.1c-0.2,0.1,0.5,1.3,0.6,1.1C30.2,5,29.5,4,29.4,4.1z"/>
	<path class="st12" d="M34.7,11.2c-0.3,0,0.4,1.8,0.6,1.7c0.1-0.1,0.1-0.6-0.1-1C35.1,11.5,34.8,11.2,34.7,11.2z"/>
	<path class="st15" d="M23.3,12.1c-1.5-1-3.7-0.4-5.2,0.6s-2.4,2.7-2.5,4.5c-0.1,1.5,0.6,4.2,2.6,3.9c0.9-0.1,1.8-0.8,2.5-1.4
		c0.7-0.6,1.4-1.3,2-2.1c0.6-0.9,1.2-1.9,1.5-2.9C24.5,13.9,24.3,12.8,23.3,12.1z"/>
	<path class="st5" d="M34.4,9.4c-0.2-0.7-1.2-1.7-1.8-2c-0.2-0.1-0.4-0.2-0.8,0.3c-2.7,2.8-6.5,3.6-9.8,5c-3.2,1.3-5.8,4.3-5.9,7.8
		c-0.1,1.9,0.7,3.7,1.6,5.2c1.1,1.8,2.4,3.4,3.6,5c1,1.3,2,3.1,3.8,3.2c1.8,0.1,3.3-1.2,4.2-2.6c0.6-0.9,1.1-1.9,1.6-2.8
		c0.6-0.9,1.2-1.9,1.6-2.9c0.5-1.4,0.5-3,0.6-4.1s-0.1-2.3-0.2-3.3c-0.1-0.7-0.2-1.3-0.6-2c-0.4-0.7-0.9-1.3-1.1-2.1
		s0.1-1.5,0.5-2.1c0.5-0.7,1.1-1.1,1.7-1.6C34,10.1,34.6,10,34.4,9.4z"/>
	<g>
		<path class="st16" d="M30.6,20.6c-0.1-0.2-0.3-0.5-0.6-0.7c-0.5-0.5-1.1-0.8-1.8-1c-0.7-0.2-1.3-0.4-1.8-0.5c-0.1,0-0.1,0-0.2,0
			l0,0c-0.3-0.3-0.7-0.6-1-0.9c-0.3-0.3-0.6-0.5-0.8-0.8c-0.1-0.1-0.2-0.3-0.2-0.5c-0.1-0.2-0.1-0.3-0.1-0.5c0-0.5,0.1-0.9,0.2-1.1
			c0.1-0.1,0.1-0.1,0.2-0.2c0.3-0.2,0.5-0.4,0.5-0.5s-0.3,0-0.7,0.2c-0.1,0-0.2,0.1-0.3,0.2c-0.1,0-0.1,0.1-0.2,0.1
			s-0.1,0.1-0.2,0.1c-0.1,0.1-0.2,0.2-0.3,0.2c0,0,0,0-0.1-0.1s-0.2-0.2-0.4-0.2c-0.3-0.1-0.7-0.1-1.1-0.1s-0.8,0.1-1.2,0.3
			c-0.4,0.1-0.8,0.4-1.1,0.6c-0.3,0.3-0.6,0.5-0.8,0.8c-0.2,0.3-0.4,0.6-0.6,0.9c-0.2,0.3-0.3,0.5-0.4,0.7c-0.2,0.4-0.3,0.7-0.3,0.7
			s0.2-0.2,0.5-0.6c0.3-0.4,0.6-0.9,1.1-1.5c0.2-0.3,0.5-0.5,0.8-0.7s0.6-0.4,1-0.5c0.7-0.2,1.4-0.2,2-0.1c0.1,0,0.2,0,0.3,0
			c0,0,0,0-0.1,0.1c-0.1,0-0.2,0.2-0.3,0.3c-0.1,0.1-0.2,0.2-0.3,0.3c-0.1,0.1-0.2,0.2-0.3,0.3c-0.1,0.1-0.2,0.3-0.3,0.4
			c-0.2,0-0.4,0-0.8,0.1c-0.5,0.1-1.1,0.4-1.6,0.7c-0.5,0.4-1,0.8-1.4,1.4c-0.4,0.6-0.6,1.2-0.7,1.9s0,1.3,0.3,1.9
			c0.1,0.3,0.3,0.5,0.5,0.8c0.2,0.2,0.3,0.4,0.5,0.7c0.3,0.4,0.5,0.9,0.5,1.2c0.1,0.4,0.1,0.7,0,0.9c0,0.2,0,0.3,0,0.3
			s0.1-0.1,0.1-0.3s0.1-0.5,0-0.9s-0.2-0.9-0.5-1.3c-0.3-0.5-0.7-0.9-0.9-1.4c-0.2-0.5-0.3-1.2-0.2-1.8c0.1-0.6,0.3-1.2,0.7-1.8
			c0.1-0.2,0.2-0.3,0.4-0.5c0,0,0,0,0,0.1c0.1,0.3,0.2,0.8,0.2,1.3s-0.1,1-0.1,1.5s0.1,0.9,0.2,1.2s0.3,0.4,0.3,0.4
			s-0.1-0.2-0.2-0.4c0.1-0.3,0-0.7,0-1.2s0.2-1,0.2-1.5c0.1-0.5,0-1-0.2-1.5c0-0.1-0.1-0.1-0.1-0.2c0.2-0.2,0.4-0.4,0.7-0.5
			c0.5-0.3,1-0.5,1.5-0.7c0.2,0,0.3-0.1,0.4-0.1c-0.3,0.4-0.5,0.8-0.8,1.3c-0.2,0.4-0.4,0.9-0.5,1.5c0,0.1,0,0.1-0.1,0.2
			c0,0.1,0,0.1,0,0.2c0,0.1-0.1,0.3-0.1,0.4c0,0.3-0.1,0.6-0.1,0.9c-0.1,1.2,0.1,2.4,0.4,3.6c0.1,0.2,0.1,0.4,0.2,0.6
			c0,0.1-0.1,0.2-0.1,0.3c-0.1,0.4-0.2,0.8-0.2,1.2s0,0.9,0.1,1.3c0.1,0.2,0.1,0.4,0.2,0.7c0.1,0.2,0.3,0.4,0.4,0.6
			c0.3,0.3,0.7,0.6,0.9,0.9c0.3,0.3,0.4,0.7,0.7,1c0.1,0.2,0.2,0.3,0.3,0.4c0.1,0.1,0.2,0.2,0.4,0.3c0.2,0.1,0.5,0.2,0.6,0.2h0.1H24
			h0.1c0,0-0.1,0-0.2,0s-0.4,0-0.6-0.2c-0.1-0.1-0.2-0.2-0.3-0.3c-0.1-0.1-0.2-0.2-0.3-0.4c-0.2-0.3-0.4-0.7-0.6-1
			c-0.3-0.3-0.6-0.6-0.9-1c-0.1-0.2-0.3-0.3-0.4-0.5s-0.2-0.4-0.2-0.6c-0.1-0.4-0.1-0.9-0.1-1.3c0-0.4,0.1-0.8,0.2-1.1l0,0
			c0.3,0.8,0.7,1.5,1.1,2.2c0.6,1,1.2,1.8,1.7,2.5s1,1.3,1.3,1.6c0.3,0.4,0.5,0.6,0.5,0.6s-0.2-0.2-0.5-0.7c-0.3-0.4-0.8-1-1.3-1.7
			s-1.1-1.6-1.6-2.5c0.1-0.1,0.1-0.2,0.1-0.2c0.1,0,0.1,0,0.2,0.1c0.6,0.2,1.3,0.5,1.9,1c0.3,0.2,0.6,0.5,0.8,0.8
			c0.2,0.3,0.4,0.6,0.7,0.9c0.2,0.3,0.5,0.6,0.7,0.8c0.3,0.2,0.5,0.3,0.8,0.4c0.2,0.1,0.4,0,0.6,0h0.1c0,0,0,0,0.1,0l0,0
			c0,0,0,0-0.1,0c0,0,0,0-0.1,0h-0.1c-0.1,0-0.3,0-0.5-0.1s-0.5-0.2-0.7-0.4s-0.4-0.5-0.6-0.8s-0.4-0.7-0.6-1s-0.5-0.6-0.8-0.9
			c-0.6-0.5-1.4-0.9-2-1.1c-0.2-0.1-0.4-0.1-0.5,0c-0.4-0.8-0.8-1.7-1.1-2.7c-0.3-1.1-0.5-2.3-0.4-3.4c0-0.3,0.1-0.6,0.1-0.8
			c0-0.1,0.1-0.3,0.1-0.4c0-0.1,0-0.1,0-0.2c0-0.1,0-0.1,0.1-0.2c0.1-0.3,0.2-0.6,0.3-0.9v0.1c0,0.5,0.1,1,0.2,1.5s0.3,1.1,0.7,1.6
			c0.1,0.2,0.3,0.4,0.4,0.5v0.1c0.2,0.4,0.3,0.8,0.4,1.3c0.1,0.2,0.1,0.5,0.1,0.7c0,0.3,0,0.5,0.1,0.8c0,0.3,0.1,0.5,0.2,0.7
			s0.2,0.4,0.4,0.5c0.1,0.1,0.3,0.2,0.4,0.3c0.1,0,0.3,0,0.3,0l0,0l0,0c-0.1,0-0.1-0.1-0.1-0.1s0,0,0,0.1c-0.1,0-0.2,0-0.3-0.1
			c-0.1-0.1-0.3-0.1-0.4-0.3c-0.1-0.1-0.2-0.3-0.3-0.5C23,25.7,23,25.5,23,25.2c0-0.2,0-0.5,0-0.8s-0.1-0.5-0.1-0.8
			c-0.1-0.4-0.2-0.7-0.3-1c0.2,0.1,0.4,0.2,0.5,0.3c0.5,0.3,1,0.5,1.4,0.9s0.6,0.8,0.8,1.2c0.2,0.4,0.3,0.8,0.3,1.2
			c0.4,0.9,0.4,1.4,0.4,1.4s0-0.1,0-0.3s0-0.5-0.1-0.8c0-0.4-0.1-0.8-0.3-1.2c-0.1-0.5-0.4-1-0.8-1.4c0-0.1-0.1-0.1-0.2-0.2
			c-0.1-0.1-0.1-0.1-0.2-0.1c-0.1-0.1-0.2-0.2-0.4-0.2c-0.3-0.2-0.5-0.3-0.8-0.4c-0.2-0.1-0.5-0.3-0.7-0.5s-0.4-0.4-0.5-0.6
			c-0.3-0.5-0.5-1-0.6-1.5s-0.2-1-0.2-1.5c0-0.4-0.1-0.7-0.2-0.8c0.4-0.7,0.8-1.3,1.2-1.7c0.1-0.1,0.2-0.2,0.3-0.3
			c0.1-0.1,0.2-0.2,0.2-0.2c0.1-0.1,0.2-0.2,0.3-0.3c0.1-0.1,0.2-0.2,0.3-0.3l0,0c0,0.2-0.1,0.4-0.1,0.6c0,0.2,0.1,0.4,0.1,0.6
			c0.1,0.2,0.2,0.4,0.3,0.5c0.1,0.1,0.2,0.2,0.3,0.3v0.1c0.1,0.2,0.1,0.5,0,0.7c-0.1,0.3-0.2,0.5-0.3,0.8c-0.1,0.1-0.1,0.3-0.2,0.4
			c0,0.1,0,0.2-0.1,0.2c0,0.1,0,0.2,0,0.2c0,0.3,0,0.6,0,0.9c0.1,0.3,0.1,0.6,0.3,0.8c0.1,0.2,0.2,0.4,0.4,0.6
			c0.1,0.1,0.2,0.3,0.3,0.3c0.1,0.1,0.1,0.1,0.1,0.1s-0.2-0.2-0.4-0.5c-0.1-0.2-0.2-0.3-0.3-0.6c-0.1-0.2-0.2-0.5-0.2-0.8
			s0-0.6,0-0.9c0-0.3,0.2-0.6,0.3-0.9c0.1-0.3,0.3-0.6,0.3-0.9c0.1-0.2,0.1-0.4,0.1-0.6c0.1,0.1,0.2,0.2,0.3,0.2
			c0.3,0.3,0.6,0.5,0.9,0.8c0.1,0.1,0.3,0.3,0.4,0.5c0.1,0.1,0.1,0.2,0.2,0.3l0.1,0.1c0,0,0,0,0,0.1v0.1c0.2,0.4,0.2,0.8,0.3,1.2
			c0,0.4,0,0.9,0,1.3c0,0.4,0,0.9,0,1.3c0,0.4,0.1,0.9,0.2,1.3c0.1,0.4,0.3,0.8,0.5,1.1s0.3,0.7,0.4,1c0.2,0.7,0.2,1.3,0.2,1.8
			s-0.1,0.9-0.2,1.2c0,0.1,0,0.1-0.1,0.2c0,0.1,0,0.1,0,0.1c0,0.1,0,0.1,0,0.1s0,0,0.1-0.1c0,0,0-0.1,0.1-0.1c0-0.1,0-0.1,0.1-0.2
			c0.1-0.3,0.2-0.7,0.3-1.2c0.1-0.5,0-1.2-0.1-1.9c-0.1-0.4-0.2-0.7-0.4-1.1c-0.2-0.4-0.3-0.7-0.5-1.1c-0.1-0.4-0.2-0.8-0.2-1.2
			c0-0.3,0-0.6,0-0.9c0.1,0.2,0.3,0.4,0.5,0.6c0.3,0.3,0.6,0.5,0.8,0.7c0.3,0.2,0.6,0.5,0.8,0.7c0.1,0.1,0.2,0.3,0.3,0.4
			c0.1,0.1,0.2,0.3,0.3,0.5c0.3,0.6,0.4,1.3,0.4,1.7c0,0.5-0.1,0.7,0,0.7c0,0,0-0.1,0.1-0.2c0-0.1,0-0.1,0.1-0.2c0-0.1,0-0.2,0-0.3
			c0-0.5,0-1.1-0.3-1.8c-0.1-0.2-0.2-0.3-0.3-0.5c-0.1-0.2-0.2-0.3-0.3-0.5c-0.3-0.3-0.6-0.6-0.8-0.8c-0.3-0.2-0.6-0.5-0.8-0.7
			c-0.2-0.3-0.4-0.5-0.5-0.8c0-0.1-0.1-0.2-0.1-0.3c0-0.3,0-0.7,0-1c0-0.5-0.1-0.9-0.3-1.4v-0.1v-0.1l-0.1-0.2
			c-0.1-0.1-0.1-0.2-0.2-0.3l0,0c0.5,0.1,1,0.3,1.5,0.4c0.6,0.2,1.3,0.5,1.7,0.9c0.2,0.2,0.4,0.4,0.6,0.6c0.1,0.2,0.2,0.4,0.3,0.6
			c0.1,0.4,0.1,0.6,0.1,0.6s0-0.1,0-0.2C30.6,21,30.6,20.8,30.6,20.6C30.8,21.1,30.7,20.9,30.6,20.6z"/>
	</g>
	<path class="st12" d="M32.5,7.7c-0.4,0.2,1.3,2.2,1.5,1.8C34.2,9.1,32.7,7.6,32.5,7.7z"/>
</g>
<g>
	<path class="st11" d="M74.7,6.9c-0.3,0-0.5,0.1-0.5,0.3c0,0.8,0.1,2.5,0.4,2.9s2.1,0,1.5-0.3c-0.5-0.3-0.9-1.7-0.9-2.6
		C75.3,7,74.9,6.9,74.7,6.9z"/>
	<path class="st12" d="M74.3,7.1c-0.1,0.1,0.9,0.1,0.8,0C75.1,7,74.8,7,74.6,7C74.5,7,74.3,7,74.3,7.1z"/>
	<path class="st13" d="M70.6,7.2c0,0.9-0.4,2.4-0.9,2.7c-0.6,0.4,1.3,0.8,1.6,0.4c0.3-0.4,0.5-2.3,0.4-3.1c0-0.2-0.3-0.3-0.6-0.3
		C71,6.9,70.6,7,70.6,7.2z"/>
	<path class="st14" d="M71.7,7.1c0.1,0.2-0.9,0.2-0.9,0C70.8,7,71.1,7,71.3,7C71.5,7,71.6,7.1,71.7,7.1z"/>
	<path class="st15" d="M74.2,9.9c-0.7-0.2-1.7-0.3-2.6-0.6c-0.1,0-0.6,0.3-0.6,0.5c0,2.1,0,4.2,0,6.3c0,1.1,0,2.2,0,3.2s0,2,0,2.9
		c0.1,0.8,0.5,1.4,0.7,1.6c0.2,0.2,1.7-0.2,1.8-0.5s0.4-5.1,0.5-6.1C74.2,14.9,74.5,10,74.2,9.9z"/>
	<path class="st5" d="M72.2,9.8c-1-1.6-6.3-1.4-8.5-1.1c-2.2,0.3-4.4,1-6.1,2.5c-3.4,2.9-4.4,7.7-4.2,12c0.1,1.2,0.2,2.5,0.4,3.7
		c0.2,1,0.4,1.9,1.1,2.7c0.7,0.9,1.9,1.2,3,1c1.1-0.1,2.1-0.8,3-1.4c0.9-0.7,1.7-1.3,2.7-1.8s2-0.8,3-1c2-0.4,4.2-0.6,5.2-2.6
		c0.5-0.9,0.6-2,0.7-3c0.1-1.2,0.1-2.4,0.1-3.7s0-2.5,0.1-3.8c0-0.6,0-1.3,0-1.9C72.6,10.9,72.5,10.3,72.2,9.8z"/>
	<path class="st17" d="M73.1,22.5c0-0.4-0.6-0.3-0.5,0.1c0,0.9-0.1,1.8-0.4,2.6c0-0.2-0.1-0.4-0.3-0.6c-0.4-0.5-1.2-0.4-1.7-0.1
		c-0.3,0.2-0.6,0.5-0.9,0.7c-0.3,0.3-0.6,0.4-1,0.6c-0.1,0-0.3,0.1-0.4,0.1c-0.3-0.3-2-1.2-3.1-1.4c-0.9-0.2-2.2-0.2-2.8,0.5
		c-0.5,0.6-0.6,1.5-0.1,2.2c0.6,0.7,1.5,0.7,2.3,0.3c0.5-0.3,1-0.7,1.6-0.9s1.4,0.2,2.1-0.4c0.5-0.1,1-0.3,1.4-0.6
		c0.5-0.4,0.9-1,1.6-1.1c0.4-0.1,0.7,0.2,0.8,0.6c0.1,0.4-0.1,0.8-0.2,1.1l0,0c-0.3,0.5-0.6,0.9-1,1.3c-0.2,0.2,0.1,0.7,0.3,0.4
		C72.4,26.7,73.2,24.6,73.1,22.5z"/>
	<path class="st15" d="M72,23.9c0.5,0,1.5-0.1,1.8-0.6c0.1-0.1-0.1-0.9,0-1.9C73.4,21.4,72.3,21.5,72,23.9z"/>
	<path class="st5" d="M85.6,13.4c-0.2-1-1.2-1.5-2.1-1.8c-2-0.8-4-1.6-6.1-1.9c-1-0.2-3.2,0-3.6,0.4s-0.4,0.8-0.6,2.2
		c-0.2,1.7,0,3.6,0.1,5.4c0,1.6-0.3,2.6-0.1,4.2c0.1,1,0.6,1.6,1.1,1.4c1.9-0.7,3.6-1.9,5.3-3.1c1.7-1.2,3.4-2.4,4.8-4
		C85,15.5,85.8,14.5,85.6,13.4z"/>
</g>
<g>
	<path class="st18" d="M72.4,70c1.2,1.1,2.7,4.6,2.9,4.8c0.2,0.2,1.5-0.1,1.6-0.4c0.1-0.4-1.5-8.3-1.9-8.6c-1.1-0.6-5,0.5-6.7,2
		c0.7,0.3,1.5,0.5,2.2,0.8C71.2,69,71.8,69.5,72.4,70z"/>
	<path class="st15" d="M72.7,66.7c-0.1,0.5,0.1,1,0.4,1.4c0.4,0.4,0.9,0.5,1.4,0.4c1.5,1.7,3.7,2.7,6,2.6c0.7,0,1.4-0.2,1.9-0.6
		c0.9-0.7,1.3-2,1-3.1s-1.2-2-2.2-2.5s-2.2-0.7-3.3-0.8c-1,0-2.1,0-3.1,0.2c-0.6,0.1-1.1,0.3-1.6,0.6C72.8,65.3,72.8,66.1,72.7,66.7
		z"/>
	<g>
		<path class="st19" d="M73.5,66.6h-0.3c0.1,0.7,0.4,1.4,0.8,1.9c0.1,0,0.3,0,0.4,0C74,68,73.6,67.3,73.5,66.6z"/>
		<path class="st19" d="M78.6,69.6c-1.4-0.5-2.6-1.1-3.5-2c1.3,0.9,2.8,1.3,4,1.6c1.4,0.3,2.9,0.3,4.3,0.4c0-0.1,0.1-0.2,0.1-0.3
			c-1.5,0-2.9-0.1-4.3-0.3c-1.5-0.3-3.7-1-5.2-2.7l-0.5-0.6l0.3,0.7c0.9,2.3,3.1,3.6,4.8,4.2c0.6,0.2,1.1,0.4,1.7,0.5
			c0.1,0,0.3,0,0.4,0c0.2,0,0.4,0,0.7-0.1c-0.9-0.1-1.8-0.4-2.7-0.7c-1.2-0.5-2.8-1.3-3.8-2.6c1.9,1.8,4.8,2.7,7.6,2.9
			c0.1,0,0.2-0.1,0.2-0.1c0.1,0,0.1-0.1,0.2-0.1C81.2,70.3,79.8,70,78.6,69.6z"/>
		<path class="st19" d="M74.5,66.3l-0.2,0.3c2.5,1.7,5.5,2.6,8.6,2.6c0.2,0,0.4,0,0.6,0c0-0.1,0.1-0.2,0.1-0.3
			C80.3,68.9,77.1,68.1,74.5,66.3z"/>
		<path class="st19" d="M83.4,67.2c0-0.1-0.1-0.2-0.1-0.3c-2.3,0.1-4.5-0.2-6.6-1l-0.1,0.3c1.9,0.7,3.8,1,5.8,1
			C82.7,67.3,83,67.2,83.4,67.2z"/>
		<path class="st19" d="M83.5,68.3c0-0.1,0-0.2,0-0.3c-2.6,0.1-5.3-0.4-7.7-1.5l-0.1,0.3c2.2,1,4.7,1.5,7.1,1.5
			C83.1,68.3,83.3,68.3,83.5,68.3z"/>
	</g>
	<path class="st20" d="M54.1,58.4c-0.8,0.6-1.3,1.5-1.3,2.5s0.5,2,1.3,2.6c-0.1,0.8,0.3,1.6,1.1,2c0.7,0.4,1.7,0.3,2.3-0.1
		c1.7,1.1,4.1,1.4,6,0.6c0.1,0.6,0.5,1.2,0.9,1.5c0.5,0.4,1.1,0.6,1.7,0.5c0.4,1,1.5,1.4,2.6,1.4c1.8,0,3.5-1.1,4.3-2.6
		c1,0.4,2,0.8,3,0.7c1.1-0.1,2.1-0.8,2.5-1.8c0.3,0.6,0.9,1.1,1.6,1.3c0.7,0.2,1.4,0,2-0.4c0.8,0.7,2,0.7,2.8,0s1-2,0.4-2.8
		c0.7-0.5,1.1-1.5,1.1-2.4s-0.5-1.8-1.2-2.3c0.1-0.6-0.1-1.4-0.7-1.8c0.3-1,0.2-2.2-0.2-3.2c-0.5-1-1.3-1.8-2.3-2.2
		c-0.1-0.9-0.6-1.8-1.4-2.3s-1.8-0.5-2.6-0.1c0-0.7-0.7-1.4-1.4-1.7c-1.3-0.6-3-0.3-4,0.7c-0.4-0.5-1.1-0.9-1.8-0.8
		c-0.7,0.1-1.3,0.5-1.6,1c-0.5-0.5-1.3-0.7-1.9-0.6s-1.2,0.6-1.4,1.2c-1.1-0.4-2.4-0.4-3.4,0.3c-1,0.6-1.7,1.7-1.9,2.9
		c-0.7-0.2-1.5,0-2.2,0.3s-1.3,0.9-1.5,1.7c-0.9,0-1.7,0.4-2.3,1.1C54,56.3,53.8,57.6,54.1,58.4z"/>
	<g>
		<path class="st18" d="M79.1,53.1c-0.4-0.3-0.9-0.5-1.4-0.4c-0.4,0-0.8,0.2-1.1,0.6c-0.1,0.1-0.2,0.3-0.3,0.5
			c-0.1,0.2-0.2,0.4-0.4,0.5c-0.1,0.1-0.3,0-0.4-0.1s-0.1-0.3,0-0.4s0.1-0.3,0-0.4s-0.3-0.1-0.4,0c-0.3,0.3-0.3,0.9,0,1.2
			c0.3,0.3,0.8,0.5,1.2,0.2c0.3-0.2,0.5-0.5,0.6-0.8c0.1-0.1,0.1-0.3,0.2-0.4c0.1-0.2,0.4-0.3,0.6-0.3c0.3,0,0.7,0.1,0.9,0.3
			c0.5,0.5,0.6,1.2,0.5,1.8c-0.1,0.5-0.3,1-0.5,1.4c-0.2-0.3-0.5-0.6-0.8-0.7c-0.2-0.1-0.3,0-0.4,0.2s0,0.3,0.2,0.4
			c0.3,0.1,0.5,0.4,0.6,0.6c0.1,0.3,0.1,0.6,0,0.9c-0.1,0.1-0.1,0.3-0.2,0.4s-0.2,0.3-0.3,0.4c-0.2,0.4-0.2,0.9,0.1,1.3
			c0.1,0.1,0.1,0.1,0.2,0.1s0.2,0,0.2-0.1c0.1-0.1,0.1-0.3,0-0.4s-0.1-0.4,0-0.6c0.1-0.1,0.1-0.2,0.2-0.4c0.1-0.2,0.2-0.3,0.3-0.5
			c0.3-0.2,0.3-0.5,0.3-0.8c0.3-0.7,0.7-1.4,0.8-2.2C79.9,54.5,79.7,53.6,79.1,53.1z"/>
		<path class="st18" d="M71.3,66.3c-0.1-0.1-0.3-0.1-0.4,0.1c-0.5,0.7-1.3,1.2-2.1,1.5C68.5,68,68.2,68,67.9,68s-0.5-0.2-0.6-0.4
			c-0.1-0.2-0.1-0.5,0-0.8s0.3-0.6,0.5-0.8v-0.1h0.1c0.8-0.3,1.5-1,1.6-1.8c0.1,0,0.1,0,0.2,0c0.7-0.2,1.2-0.6,1.5-1.2
			c0.5,0.4,1,0.7,1.6,1h0.1c0.1,0,0.2-0.1,0.3-0.2c0.1-0.2,0-0.3-0.2-0.4c-1.3-0.5-2.4-1.6-3-2.9c-0.1-0.2-0.3-0.2-0.4-0.1
			c-0.2,0.1-0.2,0.3-0.1,0.4c0.3,0.7,0.8,1.3,1.3,1.8c-0.2,0.5-0.6,0.9-1.2,1c-0.7,0.2-1.4,0-1.9-0.2c-0.6-0.3-1.2-0.7-1.7-1.1
			c-0.1-0.1-0.3-0.1-0.4,0.1c-0.1,0.1-0.1,0.3,0.1,0.4c0.6,0.4,1.2,0.8,1.9,1.1c0.4,0.2,0.9,0.3,1.5,0.3c-0.1,0.5-0.6,1-1.2,1.2
			s-1.4,0.1-1.9-0.4c-0.5-0.4-0.9-1-1-1.8c-0.1-0.5,0-1,0.2-1.4s0.6-0.7,1-0.8c0.4-0.1,0.9,0.1,1.1,0.5c0.1,0.1,0.3,0.2,0.4,0.1
			s0.2-0.3,0.1-0.4c-0.2-0.3-0.5-0.5-0.8-0.7v-0.1c-0.1-0.5,0-1,0.4-1.4s0.9-0.5,1.4-0.3c0.1,0,0.3,0,0.3-0.1c0.3-0.4,0.6-0.8,0.9-1
			s0.8-0.3,1.1-0.1c0.3,0.2,0.4,0.7,0.4,1c-0.1,0.4-0.3,0.9-0.5,1.3c-0.1,0.1,0,0.3,0.1,0.4s0.3,0,0.4-0.1c0.2-0.4,0.5-0.9,0.6-1.5
			c0-0.2,0-0.4,0-0.6c0-0.7-0.4-1.4-0.7-2c-0.2-0.5-0.5-0.9-0.6-1.3c-0.2-0.8,0-1.7,0.6-2.3c0.5-0.6,1.4-0.9,2.2-0.8
			c0.2,0,0.3-0.1,0.3-0.3c0-0.2-0.1-0.3-0.3-0.3c-1-0.1-2.1,0.3-2.7,1s-1,1.8-0.7,2.8c0.1,0.5,0.4,1,0.6,1.4
			c0.1,0.2,0.2,0.4,0.3,0.6c-0.4-0.2-1-0.1-1.5,0.2c-0.4,0.3-0.7,0.6-1,1c-0.2,0-0.4,0-0.6,0c-0.6,0.1-1.4-0.2-1.9-0.6
			s-0.8-1.1-0.9-1.8c0-0.2-0.2-0.3-0.3-0.3c-0.2,0-0.3,0.2-0.3,0.3c0,0.8,0.5,1.7,1.1,2.2c0.3,0.3,0.8,0.5,1.2,0.6c0,0,0,0-0.1,0.1
			c-0.5,0.5-0.7,1.2-0.6,1.8c-0.1,0-0.2,0-0.3,0h-0.1c-0.5-1.4-1.5-2.7-2.8-3.5c0.2-0.3,0.3-0.7,0.2-1.1c0-0.2-0.2-0.3-0.3-0.3
			c-0.2,0-0.3,0.2-0.3,0.3c0,0.3-0.1,0.7-0.3,0.9l-0.1,0.1l0,0c-0.3,0.3-0.6,0.4-1,0.4c-0.2,0-0.3,0.1-0.3,0.3
			c0,0.2,0.1,0.3,0.3,0.3c0.1,0,0.1,0,0.2,0c0.4,0,0.9-0.2,1.2-0.4c1.2,0.7,2.2,1.9,2.6,3.2c-0.3,0.2-0.6,0.5-0.8,0.9
			c-0.2,0.4-0.3,1-0.3,1.5c-0.5,0.3-0.8,0.7-1,1.2c-0.2,0.7,0.1,1.5,0.6,1.8c0,0,0.1,0,0.2,0s0.2-0.1,0.3-0.1c0.1-0.1,0-0.3-0.1-0.4
			c-0.4-0.2-0.5-0.7-0.3-1.1c0.1-0.3,0.3-0.5,0.5-0.7c0.2,0.7,0.6,1.4,1.2,1.8c0.5,0.4,1,0.6,1.6,0.6c-0.1,0.2-0.2,0.4-0.3,0.6
			c-0.2,0.5-0.1,0.9,0.1,1.3c0.2,0.3,0.6,0.6,1,0.7c0.1,0,0.2,0,0.3,0c0.2,0,0.5,0,0.8-0.1c1-0.3,1.9-0.9,2.5-1.7
			C71.5,66.6,71.5,66.4,71.3,66.3z"/>
		<path class="st18" d="M76.1,63.7c0.1-0.1,0.1-0.3,0-0.4s-0.3-0.1-0.4,0c-0.2,0.2-0.6,0.3-0.8,0.1c-0.2-0.2-0.3-0.5-0.2-0.8
			c0.1-0.1,0-0.3-0.1-0.4s-0.3,0-0.4,0.1c-0.2,0.5-0.1,1.1,0.3,1.5c-0.1,0.4-0.2,0.7-0.4,1c-0.2,0.3-0.5,0.5-0.8,0.6
			c-0.3,0-0.6-0.1-0.7-0.4c0-0.2-0.2-0.3-0.4-0.2c-0.2,0-0.3,0.2-0.2,0.4c0.1,0.5,0.6,0.8,1.2,0.8c0.1,0,0.1,0,0.2,0
			c0.5-0.1,0.9-0.4,1.2-0.8c0.2-0.3,0.4-0.7,0.5-1.1c0.1,0,0.2,0,0.3,0C75.5,64,75.9,63.9,76.1,63.7z"/>
		<path class="st18" d="M73.3,58.3c-0.2,0.8,0.1,1.5,0.5,1.8c0.2,0.1,0.5,0.2,0.7,0.2c0.3,0,0.7-0.1,0.9-0.3
			c0.4-0.3,0.7-0.7,0.9-1.2c0.4-1,0.6-2.1,0.5-3.2c0-0.2-0.2-0.3-0.3-0.3c-0.2,0-0.3,0.2-0.3,0.3c0.1,1-0.1,2-0.5,2.9
			c-0.2,0.5-0.4,0.8-0.7,1c-0.3,0.2-0.7,0.3-1,0.1c-0.3-0.2-0.4-0.7-0.3-1.1c0.1-0.5,0.5-0.9,0.8-1.2c0.1-0.1,0.1-0.3,0-0.4
			s-0.3-0.1-0.4,0C73.9,57.2,73.5,57.7,73.3,58.3z"/>
		<path class="st18" d="M73.3,53.2c-0.2,0-0.5,0-0.6-0.2c-0.1-0.1-0.3-0.1-0.4,0s-0.1,0.3,0,0.4c0.2,0.3,0.6,0.4,0.9,0.4
			c0.2,0.9,0.2,1.7,0.3,2.5c0,0.2,0.1,0.3,0.3,0.3l0,0c0.2,0,0.3-0.1,0.3-0.3c0-0.8-0.1-1.7-0.3-2.6c0.3-0.2,0.6-0.4,0.7-0.8
			c0-0.2,0-0.3-0.2-0.4c-0.2,0-0.3,0-0.4,0.2C73.7,53,73.5,53.2,73.3,53.2z"/>
		<path class="st18" d="M66.9,55.7c0,0.2,0.1,0.3,0.3,0.3l0,0c0.2,0,0.3-0.1,0.3-0.3c0-0.2,0.2-0.4,0.4-0.5c0.2-0.1,0.5,0,0.6,0.1
			s0.3,0.1,0.4,0s0.1-0.3,0-0.4c-0.3-0.3-0.7-0.4-1-0.3c-0.3-0.4-0.5-0.9-0.3-1.4s0.6-0.9,1.2-1c0.2,0,0.3-0.2,0.3-0.3
			c0-0.2-0.2-0.3-0.3-0.3c-0.1,0-0.3,0.1-0.4,0.1c0-0.2,0-0.4,0-0.6c0.1,0,0.2,0,0.3,0c1.4,0,2.8-0.7,3.5-2c0.1-0.1,0-0.3-0.1-0.4
			s-0.3,0-0.4,0.1c-0.7,1.1-2,1.8-3.3,1.6c0-0.2-0.1-0.5-0.1-0.8c0-0.2-0.2-0.3-0.4-0.2c-0.2,0-0.3,0.2-0.2,0.4
			c0.2,1,0.2,1.8-0.1,2.4c-0.2,0.2-0.4,0.5-0.5,0.8c-0.2,0.6,0,1.3,0.3,1.8C67.1,55,66.9,55.3,66.9,55.7z"/>
		<path class="st18" d="M75,50.3c-0.5,0.5-0.5,1.3-0.1,1.8c0.1,0.1,0.1,0.1,0.2,0.1s0.1,0,0.2-0.1s0.1-0.3,0-0.4
			c-0.2-0.3-0.1-0.8,0.1-1c0.4-0.4,0.9-0.4,1.2-0.4c0.3,0,0.8,0,1.2,0.3c0.3,0.2,0.5,0.6,0.4,0.9c0,0.2,0.1,0.3,0.2,0.4
			c0.2,0,0.3-0.1,0.4-0.2c0.1-0.6-0.1-1.2-0.6-1.5c-0.4-0.3-0.9-0.4-1.5-0.4c-0.3,0-0.6,0-0.9,0.2c0-0.5-0.1-0.9-0.4-1.3
			c-0.1-0.1-0.3-0.2-0.4-0.1s-0.2,0.3-0.1,0.4C75.1,49.2,75.2,49.8,75,50.3C75,50.2,75,50.3,75,50.3z"/>
		<path class="st18" d="M62,53.1c0.5-0.5,1.2-0.6,1.8-0.4c0.6,0.2,1.1,0.8,1.2,1.5c0,0.2,0.1,0.3,0.3,0.3l0,0c0.2,0,0.3-0.2,0.3-0.3
			c0-0.4-0.2-0.8-0.5-1.2c0-0.3,0.1-0.6,0.3-1c0.2-0.3,0.6-0.6,0.9-0.7c0.2,0,0.3-0.2,0.2-0.4c0-0.2-0.2-0.3-0.4-0.2
			c-0.5,0.1-1,0.5-1.3,0.9c-0.2,0.3-0.3,0.5-0.3,0.8c-0.2-0.1-0.3-0.2-0.5-0.3c-0.8-0.3-1.8-0.1-2.4,0.6c-0.1,0.1-0.1,0.3,0,0.4
			C61.7,53.2,61.9,53.2,62,53.1z"/>
		<path class="st18" d="M63.4,60.4c0.2,0,0.3-0.2,0.3-0.3c0-0.2-0.2-0.3-0.3-0.3c-0.4,0-0.7,0.2-0.9,0.4l0,0
			c-0.6-0.2-1.2-0.5-1.7-0.9s-0.8-1-0.8-1.5c0-0.4,0.2-0.8,0.5-1c0.1-0.1,0.1-0.3,0-0.4s-0.3-0.1-0.4,0c-0.4,0.4-0.7,0.9-0.7,1.5
			c0,0.7,0.4,1.4,1,2c0.5,0.4,1.2,0.7,1.8,1c-0.1,0.4-0.1,0.8,0.1,1.2c0.1,0.1,0.2,0.1,0.3,0.1s0.1,0,0.2,0c0.1-0.1,0.2-0.3,0.1-0.4
			c-0.1-0.2-0.2-0.5,0-0.8C62.8,60.6,63.1,60.4,63.4,60.4z"/>
		<path class="st18" d="M57.1,59.7c0.3,0.6,0.8,1.2,1.5,1.7c0.6,0.4,1.2,0.8,1.9,1.1h0.1c0.1,0,0.2-0.1,0.3-0.2s0-0.3-0.1-0.4
			c-0.7-0.3-1.2-0.7-1.8-1.1c-0.6-0.5-1-1-1.3-1.5c-0.3-0.6-0.4-1.3-0.2-1.8l0,0c0.6-0.5,1.1-1.1,1.4-1.9l0,0H59
			c0.2,0,0.5,0,0.7-0.1c0.8-0.2,1.6-0.7,2.1-1.3c0.1-0.1,0.1-0.3-0.1-0.4c-0.1-0.1-0.3-0.1-0.4,0.1c-0.4,0.6-1.1,1-1.7,1.1
			c-0.7,0.1-1.4,0-2-0.3c-0.1-0.1-0.3,0-0.4,0.1c-0.1,0.1,0,0.3,0.1,0.4c0.3,0.2,0.7,0.3,1,0.4c-0.3,0.7-0.8,1.3-1.4,1.7
			c-0.7,0.4-1.5,0.6-2.2,0.6c-0.2,0-0.3,0.1-0.3,0.3c0,0.2,0.1,0.3,0.3,0.3c0.1,0,0.2,0,0.3,0s0.2,0,0.2,0c-0.1,1.1-0.6,2.1-1.3,2.9
			c-0.1,0.1-0.1,0.3,0,0.4s0.1,0.1,0.2,0.1c0.1,0,0.2,0,0.2-0.1c0.1-0.2,0.3-0.3,0.4-0.5c0.4,0.3,0.7,0.6,0.9,1
			c0.1,0.2,0.2,0.5,0.2,0.8c-0.1,0.2-0.3,0.4-0.5,0.3c-0.2,0-0.3,0.1-0.4,0.2s0.1,0.3,0.2,0.4c0.1,0,0.1,0,0.2,0
			c0.4,0,0.9-0.3,1-0.8c0.1-0.4,0-0.8-0.2-1.3c-0.3-0.5-0.7-0.9-1.1-1.3c0.4-0.7,0.7-1.5,0.8-2.4c0.4-0.1,0.7-0.2,1.1-0.4
			C56.7,58.6,56.8,59.2,57.1,59.7z"/>
		<path class="st18" d="M61.5,63.5c-0.2,0-0.6,0.1-0.8,0.3c-0.1,0.1-0.1,0.2-0.2,0.2h-0.1c-0.6,0.1-1.3,0-1.9-0.3
			c-0.6-0.3-1-0.8-1.2-1.5C57.2,62,57.1,62,56.9,62c-0.2,0.1-0.2,0.2-0.2,0.4c0.2,0.7,0.8,1.4,1.5,1.8c0.5,0.3,1,0.4,1.6,0.4
			c0.2,0,0.4,0,0.5,0c0,0.3,0.2,0.5,0.4,0.7c0.1,0,0.1,0.1,0.2,0.1c0.1,0,0.2,0,0.2-0.1c0.1-0.1,0.1-0.3-0.1-0.4
			c-0.1-0.1-0.2-0.2-0.2-0.3c0-0.1,0-0.3,0.1-0.3c0.1-0.1,0.3-0.2,0.5-0.2s0.3-0.2,0.3-0.3C61.8,63.6,61.6,63.4,61.5,63.5z"/>
		<path class="st18" d="M80.4,63.7c0-0.1,0-0.3,0-0.4c0-0.2-0.2-0.3-0.3-0.3c-0.2,0-0.3,0.2-0.3,0.3c0,0.3,0,0.6-0.2,0.8
			c-0.2,0.2-0.5,0.4-0.8,0.4c-0.2,0-0.3,0.2-0.3,0.3c0,0.2,0.1,0.3,0.3,0.3l0,0c0.5,0,0.9-0.3,1.2-0.6c0.1-0.1,0.2-0.2,0.2-0.3
			c0.3,0.1,0.5,0.3,0.6,0.5c0.2,0.3,0.2,0.7,0.1,1c-0.1,0.2,0,0.3,0.2,0.4h0.1c0.1,0,0.2-0.1,0.3-0.2c0.2-0.5,0.2-1.1-0.1-1.6
			C81.2,64.1,80.8,63.9,80.4,63.7z"/>
		<path class="st18" d="M82.4,57.6c-0.1-0.1-0.3-0.1-0.4,0.1c-0.1,0.1-0.1,0.3,0.1,0.4c0.9,0.6,1.4,1.6,1.5,2.6
			c-0.3,0.1-0.6,0.3-0.8,0.5c-0.1,0.1-0.1,0.3,0,0.4c0.1,0,0.1,0.1,0.2,0.1s0.2,0,0.2-0.1c0.2-0.2,0.4-0.3,0.7-0.4
			c0.3,0,0.6,0.1,0.8,0.3c0.1,0.1,0.3,0.1,0.4,0s0.1-0.3,0-0.4c-0.3-0.2-0.6-0.4-0.9-0.4C84.1,59.5,83.4,58.3,82.4,57.6z"/>
		<path class="st18" d="M85,62.7c-0.1-0.1-0.3,0-0.4,0.1c-0.2,0.3-0.6,0.5-0.9,0.5s-0.7-0.5-0.8-0.8c0-0.2-0.2-0.3-0.4-0.2
			c-0.2,0-0.3,0.2-0.2,0.4c0.1,0.5,0.7,1.1,1.2,1.3c0,0.3-0.1,0.6-0.3,0.8c-0.2,0.2-0.5,0.4-0.8,0.4c-0.2,0-0.3,0.2-0.3,0.3
			c0,0.2,0.1,0.3,0.3,0.3l0,0c0.5,0,0.9-0.3,1.2-0.6c0.3-0.3,0.4-0.7,0.4-1.2c0.4-0.1,0.8-0.4,1-0.7C85.2,63,85.2,62.8,85,62.7z"/>
		<path class="st18" d="M82.3,55.4C82.3,55.4,82.4,55.4,82.3,55.4c-0.3,0.1-0.6,0.2-0.8,0.3c-0.6,0.4-0.9,1-0.9,1.7
			c0,0.2,0.1,0.3,0.3,0.3l0,0c0.2,0,0.3-0.1,0.3-0.3c0-0.5,0.3-0.9,0.7-1.2c0.4-0.3,0.9-0.3,1.4-0.1h0.1c0.1,0,0.2,0,0.2,0.1
			c0,0,0,0,0.1,0S84,56.1,84,56c0-0.2-0.1-0.3-0.2-0.4c-0.3-0.1-0.7-0.3-0.8-0.6c-0.2-0.3-0.2-0.7-0.1-1c0.1-0.2,0-0.3-0.2-0.4
			s-0.3,0-0.4,0.2C82,54.4,82.1,54.9,82.3,55.4z"/>
		<path class="st18" d="M79.5,53c0.3-0.2,0.7-0.3,1.1-0.2c0.4,0.1,0.7,0.3,1,0.6c0.1,0.1,0.2,0.1,0.2,0.1c0.1,0,0.1,0,0.2-0.1
			s0.2-0.3,0.1-0.4c-0.2-0.3-0.5-0.6-0.9-0.7l0,0c-0.5-0.2-0.9-0.8-1-1.3c0-0.2-0.2-0.3-0.3-0.3c-0.2,0-0.3,0.2-0.3,0.3
			c0,0.4,0.2,0.8,0.4,1.1c-0.3,0-0.6,0.2-0.9,0.3c-0.1,0.2-0.1,0.4,0,0.6C79.2,53.1,79.4,53.1,79.5,53z"/>
		<path class="st18" d="M81.9,59.3c-0.8-0.3-1.7-0.2-2.3,0.3c-0.5,0.4-0.8,1.2-0.8,1.9c-0.4,0-0.7,0.1-1,0.3
			c-0.1,0.1-0.2,0.2-0.3,0.3c-0.3-0.3-0.6-0.5-0.9-0.6c-0.2-0.1-0.3,0-0.4,0.2s0,0.3,0.2,0.4c0.6,0.2,1.1,0.9,1,1.3
			c-0.1,0.5-0.7,0.9-1.2,0.9c-0.2,0-0.3,0.1-0.3,0.3c0,0.2,0.1,0.3,0.3,0.3c0,0,0,0,0.1,0c0.8,0,1.6-0.6,1.7-1.4c0-0.2,0-0.4,0-0.5
			v-0.1c-0.1-0.2,0-0.4,0.2-0.6c0.2-0.1,0.4-0.2,0.7-0.1c0.2,0.1,0.5,0.2,0.7,0.4c0.1,0.1,0.3,0.1,0.4,0s0.1-0.3,0-0.4
			c-0.2-0.2-0.4-0.3-0.6-0.4c-0.1-0.6,0.1-1.2,0.6-1.6s1.2-0.5,1.7-0.2c0.2,0.1,0.3,0,0.4-0.2C82.1,59.6,82.1,59.4,81.9,59.3z"/>
	</g>
</g>
</svg>
