<?xml version="1.0" encoding="utf-8"?>
<!-- Generator: Adobe Illustrator 24.1.2, SVG Export Plug-In . SVG Version: 6.00 Build 0)  -->
<svg version="1.1" id="Layer_1" xmlns="http://www.w3.org/2000/svg" xmlns:xlink="http://www.w3.org/1999/xlink" x="0px" y="0px"
	 viewBox="0 0 141 138.8" style="enable-background:new 0 0 141 138.8;" xml:space="preserve">
<style type="text/css">
	.st0{fill:#99D3CB;}
	.st1{fill:#FFF9EF;}
	.st2{fill:#6FCACD;}
	.st3{fill:#DAECCD;}
	.st4{fill:#871C1C;}
	.st5{fill:none;stroke:#505050;stroke-miterlimit:10;}
	.st6{opacity:0.5;fill:#505050;}
	.st7{opacity:0.2;fill:#505050;}
	.st8{fill:#AF4B46;}
	.st9{opacity:0.3;fill:#505050;stroke:#505050;stroke-miterlimit:10;}
	.st10{fill:#9E2623;}
	.st11{fill:#D60505;}
	.st12{fill:#890707;}
	.st13{fill:#045AA8;}
	.st14{fill:#142E54;}
	.st15{fill:#EDBD88;}
	.st16{fill:#AF0202;}
	.st17{fill:#3EB236;}
	.st18{fill:#A5A49D;}
	.st19{fill:#C6976A;}
	.st20{fill:#EAE7D9;}
</style>
<g>
	<path class="st0" d="M85.8,7.3c0-2.3-1.7-4.1-3.8-4.1h-0.8c-2.1,0-3.8,1.8-3.8,4.1v6.6h8.5L85.8,7.3L85.8,7.3z"/>
	<path class="st1" d="M81.1,24.7h0.8c2.1,0,3.8-1.8,3.8-4.1V14h-8.5v6.6C77.3,22.8,79,24.7,81.1,24.7z"/>
	<path class="st2" d="M84.3,13.9h1.5V7.3c0-2.3-1.7-4.1-3.8-4.1h-0.8c-1.3,0-2.5,0.7-3.2,1.8c0.4-0.2,0.8-0.3,1.3-0.3
		C82,4.7,84.3,8.8,84.3,13.9z"/>
	<path class="st3" d="M84.3,13.9c0,5.1-2.3,9.2-5.1,9.2c-0.4,0-0.9-0.1-1.3-0.3c0.7,1.1,1.9,1.8,3.2,1.8H82c2.1,0,3.8-1.8,3.8-4.1
		v-6.6L84.3,13.9L84.3,13.9z"/>
	<path class="st4" d="M81.4,2.5h0.8c2.4,0,4.4,2.1,4.4,4.7v13.3c0,2.6-2,4.7-4.4,4.7h-0.8c-2.4,0-4.4-2.1-4.4-4.7V7.2
		C77,4.7,79,2.5,81.4,2.5z M82.3,24.1c1.8,0,3.2-1.6,3.2-3.5V7.3c0-1.9-1.4-3.5-3.2-3.5h-0.8c-1.8,0-3.2,1.6-3.2,3.5v13.3
		c0,1.9,1.4,3.5,3.2,3.5H82.3z"/>
	<path class="st4" d="M77.9,13.3h8.2c0.3,0,0.6,0.3,0.6,0.6s-0.3,0.6-0.6,0.6h-8.2c-0.3,0-0.6-0.3-0.6-0.6S77.6,13.3,77.9,13.3z"/>
</g>
<g>
	<path class="st0" d="M37.1,7.3c0-2.3-1.7-4.1-3.8-4.1h-0.8c-2.1,0-3.8,1.8-3.8,4.1v6.6h8.5V7.3H37.1z"/>
	<path class="st1" d="M32.4,24.7h0.8c2.1,0,3.8-1.8,3.8-4.1V14h-8.5v6.6C28.6,22.8,30.3,24.7,32.4,24.7z"/>
	<path class="st2" d="M35.6,13.9h1.5V7.3c0-2.3-1.7-4.1-3.8-4.1h-0.8c-1.3,0-2.5,0.7-3.2,1.8c0.4-0.2,0.8-0.3,1.3-0.3
		C33.3,4.7,35.6,8.8,35.6,13.9z"/>
	<path class="st3" d="M35.6,13.9c0,5.1-2.3,9.2-5.1,9.2c-0.4,0-0.9-0.1-1.3-0.3c0.7,1.1,1.9,1.8,3.2,1.8h0.8c2.1,0,3.8-1.8,3.8-4.1
		v-6.6L35.6,13.9L35.6,13.9z"/>
	<path class="st4" d="M32.7,2.5h0.8C36,2.5,38,4.7,38,7.3v13.3c0,2.6-2,4.7-4.4,4.7h-0.8c-2.4,0-4.4-2.1-4.4-4.7V7.3
		C28.3,4.7,30.3,2.5,32.7,2.5z M33.6,24.1c1.8,0,3.2-1.6,3.2-3.5V7.3c0-1.9-1.4-3.5-3.2-3.5h-0.8c-1.8,0-3.2,1.6-3.2,3.5v13.3
		c0,1.9,1.4,3.5,3.2,3.5H33.6z"/>
	<path class="st4" d="M29.2,13.3h8.2c0.3,0,0.6,0.3,0.6,0.6s-0.3,0.6-0.6,0.6h-8.2c-0.3,0-0.6-0.3-0.6-0.6S28.9,13.3,29.2,13.3z"/>
</g>
<g>
	<path class="st0" d="M134.4,7.3c0-2.3-1.7-4.1-3.8-4.1h-0.8c-2.1,0-3.8,1.8-3.8,4.1v6.6h8.5L134.4,7.3L134.4,7.3z"/>
	<path class="st1" d="M129.8,24.7h0.8c2.1,0,3.8-1.8,3.8-4.1V14h-8.5v6.6C126,22.8,127.7,24.7,129.8,24.7z"/>
	<path class="st2" d="M133,13.9h1.5V7.3c0-2.3-1.7-4.1-3.8-4.1h-0.8c-1.3,0-2.5,0.7-3.2,1.8c0.4-0.2,0.8-0.3,1.3-0.3
		C130.7,4.7,133,8.8,133,13.9z"/>
	<path class="st3" d="M133,13.9c0,5.1-2.3,9.2-5.1,9.2c-0.4,0-0.9-0.1-1.3-0.3c0.7,1.1,1.9,1.8,3.2,1.8h0.8c2.1,0,3.8-1.8,3.8-4.1
		v-6.6L133,13.9L133,13.9z"/>
	<path class="st4" d="M130.1,2.5h0.8c2.4,0,4.4,2.1,4.4,4.7v13.3c0,2.6-2,4.7-4.4,4.7h-0.8c-2.4,0-4.4-2.1-4.4-4.7V7.2
		C125.7,4.7,127.7,2.5,130.1,2.5z M131,24.1c1.8,0,3.2-1.6,3.2-3.5V7.3c0-1.9-1.4-3.5-3.2-3.5h-0.8c-1.8,0-3.2,1.6-3.2,3.5v13.3
		c0,1.9,1.4,3.5,3.2,3.5H131z"/>
	<path class="st4" d="M126.6,13.3h8.2c0.3,0,0.6,0.3,0.6,0.6s-0.3,0.6-0.6,0.6h-8.2c-0.3,0-0.6-0.3-0.6-0.6
		C126,13.6,126.3,13.3,126.6,13.3z"/>
</g>
<g>
	<path class="st0" d="M61.4,7.3c0-2.3-1.7-4.1-3.8-4.1h-0.8C54.7,3.2,53,5,53,7.3v6.6h8.5L61.4,7.3L61.4,7.3z"/>
	<path class="st1" d="M56.7,24.7h0.8c2.1,0,3.8-1.8,3.8-4.1V14h-8.5v6.6C52.9,22.8,54.6,24.7,56.7,24.7z"/>
	<path class="st2" d="M59.9,13.9h1.5V7.3c0-2.3-1.7-4.1-3.8-4.1h-0.8c-1.3,0-2.5,0.7-3.2,1.8c0.4-0.2,0.8-0.3,1.3-0.3
		C57.7,4.7,59.9,8.8,59.9,13.9z"/>
	<path class="st3" d="M59.9,13.9c0,5.1-2.3,9.2-5.1,9.2c-0.4,0-0.9-0.1-1.3-0.3c0.7,1.1,1.9,1.8,3.2,1.8h0.8c2.1,0,3.8-1.8,3.8-4.1
		v-6.6L59.9,13.9L59.9,13.9z"/>
	<path class="st4" d="M57.1,2.5h0.8c2.4,0,4.4,2.1,4.4,4.7v13.3c0,2.6-2,4.7-4.4,4.7h-0.8c-2.4,0-4.4-2.1-4.4-4.7V7.2
		C52.7,4.7,54.6,2.5,57.1,2.5z M57.9,24.1c1.8,0,3.2-1.6,3.2-3.5V7.3c0-1.9-1.4-3.5-3.2-3.5h-0.8c-1.8,0-3.2,1.6-3.2,3.5v13.3
		c0,1.9,1.4,3.5,3.2,3.5H57.9z"/>
	<path class="st4" d="M53.6,13.3h8.2c0.3,0,0.6,0.3,0.6,0.6s-0.3,0.6-0.6,0.6h-8.2c-0.3,0-0.6-0.3-0.6-0.6S53.2,13.3,53.6,13.3z"/>
</g>
<g>
	<path class="st0" d="M110.1,7.3c0-2.3-1.7-4.1-3.8-4.1h-0.8c-2.1,0-3.8,1.8-3.8,4.1v6.6h8.5L110.1,7.3L110.1,7.3z"/>
	<path class="st1" d="M105.4,24.7h0.8c2.1,0,3.8-1.8,3.8-4.1V14h-8.5v6.6C101.6,22.8,103.3,24.7,105.4,24.7z"/>
	<path class="st2" d="M108.6,13.9h1.5V7.3c0-2.3-1.7-4.1-3.8-4.1h-0.8c-1.3,0-2.5,0.7-3.2,1.8c0.4-0.2,0.8-0.3,1.3-0.3
		C106.4,4.7,108.6,8.8,108.6,13.9z"/>
	<path class="st3" d="M108.6,13.9c0,5.1-2.3,9.2-5.1,9.2c-0.4,0-0.9-0.1-1.3-0.3c0.7,1.1,1.9,1.8,3.2,1.8h0.8c2.1,0,3.8-1.8,3.8-4.1
		v-6.6L108.6,13.9L108.6,13.9z"/>
	<path class="st4" d="M105.8,2.5h0.8c2.4,0,4.4,2.1,4.4,4.7v13.3c0,2.6-2,4.7-4.4,4.7h-0.8c-2.4,0-4.4-2.1-4.4-4.7V7.2
		C101.3,4.7,103.3,2.5,105.8,2.5z M106.6,24.1c1.8,0,3.2-1.6,3.2-3.5V7.3c0-1.9-1.4-3.5-3.2-3.5h-0.8c-1.8,0-3.2,1.6-3.2,3.5v13.3
		c0,1.9,1.4,3.5,3.2,3.5H106.6z"/>
	<path class="st4" d="M102.3,13.3h8.2c0.3,0,0.6,0.3,0.6,0.6s-0.3,0.6-0.6,0.6h-8.2c-0.3,0-0.6-0.3-0.6-0.6
		C101.7,13.6,101.9,13.3,102.3,13.3z"/>
</g>
<g>
	<path class="st0" d="M12.7,7.3c0-2.3-1.7-4.1-3.8-4.1H8.1C6,3.2,4.2,5,4.2,7.3v6.6h8.5V7.3z"/>
	<path class="st1" d="M8.1,24.7h0.8c2.1,0,3.8-1.8,3.8-4.1V14H4.2v6.6C4.2,22.8,6,24.7,8.1,24.7z"/>
	<path class="st2" d="M11.2,13.9h1.5V7.3c0-2.3-1.7-4.1-3.8-4.1H8.1C6.8,3.2,5.6,3.9,4.9,5c0.4-0.2,0.8-0.3,1.3-0.3
		C9,4.7,11.2,8.8,11.2,13.9z"/>
	<path class="st3" d="M11.2,13.9c0,5.1-2.3,9.2-5.1,9.2c-0.4,0-0.9-0.1-1.3-0.3c0.7,1.1,1.9,1.8,3.2,1.8h0.8c2.1,0,3.8-1.8,3.8-4.1
		v-6.6L11.2,13.9L11.2,13.9z"/>
	<path class="st4" d="M8.4,2.5h0.8c2.4,0,4.4,2.1,4.4,4.7v13.3c0,2.6-2,4.7-4.4,4.7H8.4C6,25.3,4,23.2,4,20.6V7.3
		C4,4.7,6,2.5,8.4,2.5z M9.2,24.1c1.8,0,3.2-1.6,3.2-3.5V7.3c0-1.9-1.4-3.5-3.2-3.5H8.4c-1.8,0-3.2,1.6-3.2,3.5v13.3
		c0,1.9,1.4,3.5,3.2,3.5H9.2z"/>
	<path class="st4" d="M4.9,13.3h8.2c0.3,0,0.6,0.3,0.6,0.6s-0.3,0.6-0.6,0.6H4.9c-0.3,0-0.6-0.3-0.6-0.6S4.6,13.3,4.9,13.3z"/>
</g>
<g>
	<path class="st0" d="M86.6,124.5c0-2.3-1.7-4.1-3.8-4.1H82c-2.1,0-3.8,1.8-3.8,4.1v6.6h8.5L86.6,124.5L86.6,124.5z"/>
	<path class="st1" d="M81.9,141.9h0.8c2.1,0,3.8-1.8,3.8-4.1v-6.6H78v6.6C78.1,140,79.8,141.9,81.9,141.9z"/>
	<path class="st2" d="M85.1,131.1h1.5v-6.6c0-2.3-1.7-4.1-3.8-4.1H82c-1.3,0-2.5,0.7-3.2,1.8c0.4-0.2,0.8-0.3,1.3-0.3
		C82.8,121.9,85.1,126,85.1,131.1z"/>
	<path class="st3" d="M85.1,131.1c0,5.1-2.3,9.2-5.1,9.2c-0.4,0-0.9-0.1-1.3-0.3c0.7,1.1,1.9,1.8,3.2,1.8h0.8c2.1,0,3.8-1.8,3.8-4.1
		v-6.6L85.1,131.1L85.1,131.1z"/>
	<path class="st4" d="M82.2,119.7H83c2.4,0,4.4,2.1,4.4,4.7v13.3c0,2.6-2,4.7-4.4,4.7h-0.8c-2.4,0-4.4-2.1-4.4-4.7v-13.3
		C77.8,121.9,79.8,119.7,82.2,119.7z M83.1,141.2c1.8,0,3.2-1.6,3.2-3.5v-13.3c0-1.9-1.4-3.5-3.2-3.5h-0.8c-1.8,0-3.2,1.6-3.2,3.5
		v13.3c0,1.9,1.4,3.5,3.2,3.5H83.1z"/>
	<path class="st4" d="M78.8,130.5H87c0.3,0,0.6,0.3,0.6,0.6s-0.3,0.6-0.6,0.6h-8.2c-0.3,0-0.6-0.3-0.6-0.6
		C78.1,130.8,78.4,130.5,78.8,130.5z"/>
</g>
<g>
	<path class="st0" d="M37.9,124.5c0-2.3-1.7-4.1-3.8-4.1h-0.8c-2.1,0-3.8,1.8-3.8,4.1v6.6H38L37.9,124.5L37.9,124.5z"/>
	<path class="st1" d="M33.2,141.9H34c2.1,0,3.8-1.8,3.8-4.1v-6.6h-8.5v6.6C29.4,140,31.1,141.9,33.2,141.9z"/>
	<path class="st2" d="M36.4,131.1h1.5v-6.6c0-2.3-1.7-4.1-3.8-4.1h-0.8c-1.3,0-2.5,0.7-3.2,1.8c0.4-0.2,0.8-0.3,1.3-0.3
		C34.1,121.9,36.4,126,36.4,131.1z"/>
	<path class="st3" d="M36.4,131.1c0,5.1-2.3,9.2-5.1,9.2c-0.4,0-0.9-0.1-1.3-0.3c0.7,1.1,1.9,1.8,3.2,1.8H34c2.1,0,3.8-1.8,3.8-4.1
		v-6.6L36.4,131.1L36.4,131.1z"/>
	<path class="st4" d="M33.6,119.7h0.8c2.4,0,4.4,2.1,4.4,4.7v13.3c0,2.6-2,4.7-4.4,4.7h-0.8c-2.4,0-4.4-2.1-4.4-4.7v-13.3
		C29.1,121.9,31.1,119.7,33.6,119.7z M34.4,141.2c1.8,0,3.2-1.6,3.2-3.5v-13.3c0-1.9-1.4-3.5-3.2-3.5h-0.8c-1.8,0-3.2,1.6-3.2,3.5
		v13.3c0,1.9,1.4,3.5,3.2,3.5H34.4z"/>
	<path class="st4" d="M30.1,130.5h8.2c0.3,0,0.6,0.3,0.6,0.6s-0.3,0.6-0.6,0.6h-8.2c-0.3,0-0.6-0.3-0.6-0.6
		C29.4,130.8,29.7,130.5,30.1,130.5z"/>
</g>
<g>
	<path class="st0" d="M135.3,124.5c0-2.3-1.7-4.1-3.8-4.1h-0.8c-2.1,0-3.8,1.8-3.8,4.1v6.6h8.5L135.3,124.5L135.3,124.5z"/>
	<path class="st1" d="M130.6,141.9h0.8c2.1,0,3.8-1.8,3.8-4.1v-6.6h-8.5v6.6C126.8,140,128.5,141.9,130.6,141.9z"/>
	<path class="st2" d="M133.8,131.1h1.5v-6.6c0-2.3-1.7-4.1-3.8-4.1h-0.8c-1.3,0-2.5,0.7-3.2,1.8c0.4-0.2,0.8-0.3,1.3-0.3
		C131.5,121.9,133.8,126,133.8,131.1z"/>
	<path class="st3" d="M133.8,131.1c0,5.1-2.3,9.2-5.1,9.2c-0.4,0-0.9-0.1-1.3-0.3c0.7,1.1,1.9,1.8,3.2,1.8h0.8
		c2.1,0,3.8-1.8,3.8-4.1v-6.6L133.8,131.1L133.8,131.1z"/>
	<path class="st4" d="M130.9,119.7h0.8c2.4,0,4.4,2.1,4.4,4.7v13.3c0,2.6-2,4.7-4.4,4.7h-0.8c-2.4,0-4.4-2.1-4.4-4.7v-13.3
		C126.5,121.9,128.5,119.7,130.9,119.7z M131.8,141.2c1.8,0,3.2-1.6,3.2-3.5v-13.3c0-1.9-1.4-3.5-3.2-3.5H131
		c-1.8,0-3.2,1.6-3.2,3.5v13.3c0,1.9,1.4,3.5,3.2,3.5H131.8z"/>
	<path class="st4" d="M127.4,130.5h8.2c0.3,0,0.6,0.3,0.6,0.6s-0.3,0.6-0.6,0.6h-8.2c-0.3,0-0.6-0.3-0.6-0.6
		C126.8,130.8,127.1,130.5,127.4,130.5z"/>
</g>
<g>
	<path class="st0" d="M62.2,124.5c0-2.3-1.7-4.1-3.8-4.1h-0.8c-2.1,0-3.8,1.8-3.8,4.1v6.6h8.5v-6.6
		C62.3,124.5,62.2,124.5,62.2,124.5z"/>
	<path class="st1" d="M57.6,141.9h0.8c2.1,0,3.8-1.8,3.8-4.1v-6.6h-8.5v6.6C53.7,140,55.5,141.9,57.6,141.9z"/>
	<path class="st2" d="M60.7,131.1h1.5v-6.6c0-2.3-1.7-4.1-3.8-4.1h-0.8c-1.3,0-2.5,0.7-3.2,1.8c0.4-0.2,0.8-0.3,1.3-0.3
		C58.5,121.9,60.7,126,60.7,131.1z"/>
	<path class="st3" d="M60.7,131.1c0,5.1-2.3,9.2-5.1,9.2c-0.4,0-0.9-0.1-1.3-0.3c0.7,1.1,1.9,1.8,3.2,1.8h0.8c2.1,0,3.8-1.8,3.8-4.1
		v-6.6L60.7,131.1L60.7,131.1z"/>
	<path class="st4" d="M57.9,119.7h0.8c2.4,0,4.4,2.1,4.4,4.7v13.3c0,2.6-2,4.7-4.4,4.7h-0.8c-2.4,0-4.4-2.1-4.4-4.7v-13.3
		C53.5,121.9,55.5,119.7,57.9,119.7z M58.8,141.2c1.8,0,3.2-1.6,3.2-3.5v-13.3c0-1.9-1.4-3.5-3.2-3.5H58c-1.8,0-3.2,1.6-3.2,3.5
		v13.3c0,1.9,1.4,3.5,3.2,3.5H58.8z"/>
	<path class="st4" d="M54.4,130.5h8.2c0.3,0,0.6,0.3,0.6,0.6s-0.3,0.6-0.6,0.6h-8.2c-0.3,0-0.6-0.3-0.6-0.6
		C53.8,130.8,54.1,130.5,54.4,130.5z"/>
</g>
<g>
	<path class="st0" d="M110.9,124.5c0-2.3-1.7-4.1-3.8-4.1h-0.8c-2.1,0-3.8,1.8-3.8,4.1v6.6h8.5L110.9,124.5L110.9,124.5z"/>
	<path class="st1" d="M106.3,141.9h0.8c2.1,0,3.8-1.8,3.8-4.1v-6.6h-8.5v6.6C102.4,140,104.1,141.9,106.3,141.9z"/>
	<path class="st2" d="M109.4,131.1h1.5v-6.6c0-2.3-1.7-4.1-3.8-4.1h-0.8c-1.3,0-2.5,0.7-3.2,1.8c0.4-0.2,0.8-0.3,1.3-0.3
		C107.2,121.9,109.4,126,109.4,131.1z"/>
	<path class="st3" d="M109.4,131.1c0,5.1-2.3,9.2-5.1,9.2c-0.4,0-0.9-0.1-1.3-0.3c0.7,1.1,1.9,1.8,3.2,1.8h0.8
		c2.1,0,3.8-1.8,3.8-4.1v-6.6L109.4,131.1L109.4,131.1z"/>
	<path class="st4" d="M106.6,119.7h0.8c2.4,0,4.4,2.1,4.4,4.7v13.3c0,2.6-2,4.7-4.4,4.7h-0.8c-2.4,0-4.4-2.1-4.4-4.7v-13.3
		C102.2,121.9,104.1,119.7,106.6,119.7z M107.4,141.2c1.8,0,3.2-1.6,3.2-3.5v-13.3c0-1.9-1.4-3.5-3.2-3.5h-0.8
		c-1.8,0-3.2,1.6-3.2,3.5v13.3c0,1.9,1.4,3.5,3.2,3.5H107.4z"/>
	<path class="st4" d="M103.1,130.5h8.2c0.3,0,0.6,0.3,0.6,0.6s-0.3,0.6-0.6,0.6h-8.2c-0.3,0-0.6-0.3-0.6-0.6
		S102.8,130.5,103.1,130.5z"/>
</g>
<g>
	<path class="st0" d="M13.5,124.5c0-2.3-1.7-4.1-3.8-4.1H8.9c-2.1,0-3.8,1.8-3.8,4.1v6.6h8.5L13.5,124.5L13.5,124.5z"/>
	<path class="st1" d="M8.9,141.9h0.8c2.1,0,3.8-1.8,3.8-4.1v-6.6H5v6.6C5.1,140,6.8,141.9,8.9,141.9z"/>
	<path class="st2" d="M12.1,131.1h1.5v-6.6c0-2.3-1.7-4.1-3.8-4.1H8.9c-1.3,0-2.5,0.7-3.2,1.8c0.4-0.2,0.8-0.3,1.3-0.3
		C9.8,121.9,12.1,126,12.1,131.1z"/>
	<path class="st3" d="M12.1,131.1c0,5.1-2.3,9.2-5.1,9.2c-0.4,0-0.9-0.1-1.3-0.3c0.7,1.1,1.9,1.8,3.2,1.8h0.8c2.1,0,3.8-1.8,3.8-4.1
		v-6.6L12.1,131.1L12.1,131.1z"/>
	<path class="st4" d="M9.2,119.7H10c2.4,0,4.4,2.1,4.4,4.7v13.3c0,2.6-2,4.7-4.4,4.7H9.2c-2.4,0-4.4-2.1-4.4-4.7v-13.3
		C4.8,121.9,6.8,119.7,9.2,119.7z M10.1,141.2c1.8,0,3.2-1.6,3.2-3.5v-13.3c0-1.9-1.4-3.5-3.2-3.5H9.2c-1.8,0-3.2,1.6-3.2,3.5v13.3
		c0,1.9,1.4,3.5,3.2,3.5H10.1z"/>
	<path class="st4" d="M5.7,130.5h8.2c0.3,0,0.6,0.3,0.6,0.6s-0.3,0.6-0.6,0.6H5.7c-0.3,0-0.6-0.3-0.6-0.6S5.4,130.5,5.7,130.5z"/>
</g>
<g>
	<path class="st5" d="M122.6,74c-1.7-1.2-4-1.4-6-0.6c-1.7,0.7-3,2.2-3.6,4c-1.2-0.5-1.8-2.1-2.1-3.3c0-0.2-0.2-0.3-0.6-0.2
		c-1.1,0.4-2.4,1.9-2.1,2.8c1,2.8,2.7,3.6,4,5.5c1.3,1.8,1.4,4.5-0.5,6c-2.1,1.7-4.8,0.1-7.1-0.3c-1.1-0.2-2.3-0.2-3.3,0.4
		c-0.8,0.6-1.1,1.7-1.2,2.6c-0.3,2.8,2,7.5,2.8,8c0.9,0.5,3.5-0.7,3.1-1.7c-0.5-1.1-1.2-2-1.1-3.7c1.9,1.8,4.4,2.9,6.9,3.2
		c3.6,0.5,7.3-0.8,10-3.1c2.9-2.5,4.5-6.1,4.6-9.9C126.7,80.1,125.6,76,122.6,74z"/>
	<path class="st6" d="M110.6,74.1c-0.3-0.4-2.1,1.5-2,2.1C108.6,76.7,110.7,74.3,110.6,74.1z"/>
	<path class="st6" d="M126.6,83.6c0.1-3.5-1-7.6-4-9.7c-0.3-0.2-0.6-0.4-1-0.5c4.6,4,3.4,13.5-0.3,17.3c-8.5,8.8-16.6-0.5-17.6,0.3
		c-1,0.8,1,3.8,1,5.8c0,1.2-1.3,1.9-2,1.7c0.1,0.1,0.2,0.2,0.3,0.3c0.9,0.5,3.5-0.7,3.1-1.7c-0.5-1.1-1.2-2-1.1-3.7
		c1.9,1.8,4.4,2.9,6.9,3.2c3.6,0.5,7.3-0.8,10-3.1C124.8,91.1,126.5,87.4,126.6,83.6z"/>
	<path class="st6" d="M113.1,77.4c-1.2-0.5-1.8-2.1-2.1-3.3c-0.3,2.4,2.2,6.5,2.1,5.7C113,79,112.8,78.5,113.1,77.4z"/>
</g>
<g>
	<g>
		<path class="st7" d="M105.2,51.3c0.9,0.9,2.2,1.3,3.4,1.3s2.5-0.6,3.3-1.5c1.4,1,3.2,1.4,4.9,1.2c1.7-0.2,3.4-1.1,4.5-2.3
			c1.3-1.4,2-3.4,2.3-5.3c0.3-1.9,0.2-3.9,0.1-5.9c0-0.7-0.1-1.4-0.6-1.8c-0.4-0.3-0.9-0.3-1.4-0.3c-5.4,0-10.7,0-16.1,0
			c-0.6,0-1.2,0-1.7,0.2c-0.7,0.3-1.2,1-1.4,1.7c-0.2,0.7-0.3,1.5-0.3,2.3c-0.1,1.9-0.1,3.8,0.2,5.6C102.9,48.3,103.8,50,105.2,51.3
			z"/>
		<g>
			<path class="st8" d="M111.2,50.2c-0.4-0.2-0.6-0.6-0.6-1c0-0.1-0.1-0.2-0.1-0.2c-0.1,0-0.2,0.1-0.2,0.1c0,0.2,0,0.4,0.1,0.6
				c-0.8,0.5-1.7,0.7-2.6,0.6c-0.9-0.1-1.8-0.7-2.3-1.4c-0.1-0.1-0.2-0.1-0.2,0c-0.1,0.1-0.1,0.2,0,0.2c0.6,0.8,1.5,1.4,2.5,1.5
				c0.2,0,0.4,0,0.6,0c0.8,0,1.5-0.2,2.2-0.6c0.1,0.2,0.3,0.3,0.5,0.4c0,0,0,0,0.1,0c0.1,0,0.1,0,0.1-0.1
				C111.3,50.4,111.3,50.3,111.2,50.2z"/>
			<path class="st8" d="M112.3,48.2c-0.3-0.2-0.7-0.4-1.2-0.4c0.2-0.1,0.4-0.3,0.6-0.4c0.1-0.1,0.1-0.2,0-0.2
				c-0.1-0.1-0.2-0.1-0.2,0c-1.2,1-3,1.2-4.4,0.6c-0.1,0-0.2,0-0.2,0.1c0,0.1,0,0.2,0.1,0.2c0.6,0.2,1.2,0.3,1.7,0.3
				c0.6,0,1.1-0.1,1.7-0.3c0.7,0,1.3,0.1,1.7,0.4c0.4,0.3,0.8,0.9,0.6,1.5c0,0.1,0,0.2,0.1,0.2c0,0,0,0,0,0c0.1,0,0.1,0,0.2-0.1
				C113.3,49.3,112.9,48.6,112.3,48.2z"/>
			<path class="st8" d="M112.4,43.1c-0.8-0.3-1.8-0.2-2.6,0.1c0.1-0.2,0.2-0.4,0.3-0.6c0.1-0.2,0.1-0.4,0.1-0.6c0,0,0,0,0,0
				c0.3-0.3,0.6-0.3,0.8-0.3c0.1,0,0.2-0.1,0.2-0.2s-0.1-0.2-0.2-0.2c-0.2,0-0.5,0-0.8,0.2c0-0.2,0-0.4,0-0.6c0-0.1-0.1-0.2-0.2-0.2
				c-0.1,0-0.2,0.1-0.2,0.2c0,0.6,0,1.1-0.2,1.6c-0.2,0.5-0.5,1-0.9,1.3c-0.4,0.3-1,0.4-1.4,0.2c-0.5-0.2-0.9-0.8-0.8-1.3
				c0,0,0,0,0,0c0-0.3,0-0.7-0.1-1c-0.1-0.3-0.2-0.6-0.4-0.8l0.1-1.1c0-0.1-0.1-0.2-0.1-0.2c-0.1,0-0.2,0.1-0.2,0.1l-0.1,0.8
				c-0.2-0.2-0.4-0.4-0.6-0.5c-0.1,0-0.2,0-0.2,0c0,0.1,0,0.2,0,0.2c0.6,0.4,1,0.9,1.2,1.5c0.2,0.6,0.2,1.3-0.1,1.9
				c0,0.1,0,0.2,0.1,0.2c0,0,0,0,0.1,0c0.1,0,0.1,0,0.1-0.1c0-0.1,0.1-0.2,0.1-0.3c0.2,0.4,0.5,0.7,0.8,0.8c0.2,0.1,0.4,0.1,0.6,0.1
				c0.4,0,0.8-0.1,1.1-0.4c0.1-0.1,0.3-0.2,0.4-0.3c0,0,0.1,0,0.1,0c0.8-0.5,1.9-0.5,2.8-0.2c0.9,0.3,1.7,1,2.1,1.9
				c0,0.1,0.1,0.1,0.1,0.1c0,0,0,0,0.1,0c0.1,0,0.1-0.1,0.1-0.2C114.3,44.2,113.4,43.4,112.4,43.1z"/>
			<path class="st8" d="M114.2,47.4c-0.2-0.1-0.3-0.1-0.5-0.1c0-0.6-0.4-1.1-1-1.5c-0.5-0.3-1.1-0.4-1.7-0.3c-0.3,0-0.5,0.1-0.8,0.1
				c0.1-0.1,0.2-0.2,0.2-0.2c0.1-0.1,0.1-0.2,0-0.2c-0.1-0.1-0.2-0.1-0.2,0c-0.6,0.7-1.4,1.1-2.3,1.2c-0.9,0.1-1.8-0.1-2.5-0.6
				c-0.1,0-0.2,0-0.2,0c0,0.1,0,0.2,0,0.2c0.7,0.4,1.4,0.7,2.2,0.7c0.2,0,0.3,0,0.5,0c0.5-0.1,1-0.2,1.4-0.5c0,0,0,0,0,0
				c0.5-0.2,1-0.4,1.7-0.4c0.4,0,1,0,1.5,0.3c0.5,0.3,0.8,0.7,0.8,1.2c-0.2,0-0.4,0.1-0.5,0.2c-0.1,0-0.1,0.1,0,0.2
				c0,0,0.1,0.1,0.1,0.1c0,0,0.1,0,0.1,0c0.3-0.2,0.7-0.2,1-0.1c0.1,0,0.2,0,0.2-0.1C114.3,47.5,114.3,47.4,114.2,47.4z"/>
			<path class="st8" d="M108.2,41c0.1,0.5,0,1.1-0.3,1.6c0,0.1,0,0.2,0.1,0.2c0,0,0.1,0,0.1,0c0.1,0,0.1,0,0.1-0.1
				c0.3-0.5,0.4-1.2,0.3-1.8c-0.1-0.6-0.4-1.2-0.9-1.6c-0.1-0.1-0.2-0.1-0.2,0c-0.1,0.1-0.1,0.2,0,0.2C107.8,40,108.1,40.5,108.2,41
				z"/>
			<path class="st8" d="M111.9,42.5c0,0,0.1,0,0.1,0c0.2-0.2,0.3-0.4,0.4-0.6c0.7,0.2,1.2,0.8,1.3,1.6c0,0.1,0.1,0.1,0.2,0.1
				c0,0,0,0,0,0c0.1,0,0.1-0.1,0.1-0.2c-0.2-0.9-0.7-1.6-1.5-1.8c0.1-0.4,0.2-0.8,0.1-1.3c0-0.1-0.1-0.1-0.2-0.1
				c-0.1,0-0.1,0.1-0.1,0.2c0.1,0.7-0.1,1.4-0.6,1.9c-0.1,0.1-0.1,0.2,0,0.2C111.8,42.5,111.8,42.5,111.9,42.5z"/>
			<path class="st8" d="M115.4,41.9c0.3,0.4,0.4,0.9,0.4,1.3c-0.1,0.5-0.6,1-1.1,1.1c-0.1,0-0.1,0.1-0.1,0.2c0,0.1,0.1,0.1,0.2,0.1
				c0,0,0,0,0,0c0.7-0.1,1.3-0.7,1.4-1.3c0.1-0.4,0-0.9-0.3-1.3c0,0,0,0,0,0c0-0.4,0.2-0.7,0.5-0.9c0.1-0.1,0.1-0.2,0-0.2
				c-0.1-0.1-0.2-0.1-0.2,0c-0.3,0.2-0.5,0.5-0.5,0.8c-0.3-0.4-0.7-0.7-1-0.9c-0.1-0.1-0.2,0-0.2,0c-0.1,0.1,0,0.2,0,0.2
				C114.7,41.1,115.1,41.5,115.4,41.9z"/>
			<path class="st8" d="M119,46c-0.6,0.1-1.1,0.3-1.5,0.7c-0.3,0.3-0.5,0.6-0.6,1c-0.1-0.1-0.2-0.3-0.3-0.4c-0.4-0.4-1-0.6-1.6-0.6
				c-0.1,0-0.2,0.1-0.2,0.2c0,0.1,0.1,0.2,0.2,0.2c0.5,0,1,0.2,1.3,0.5c0.4,0.3,0.6,0.8,0.6,1.3c0,0.1,0.1,0.2,0.2,0.2h0
				c0.1,0,0.2-0.1,0.2-0.2c0-0.2,0-0.4-0.1-0.6c0-0.5,0.2-1,0.6-1.3c0.4-0.3,0.8-0.6,1.3-0.6c0.1,0,0.1-0.1,0.1-0.2
				C119.1,46,119.1,46,119,46z"/>
			<path class="st8" d="M121,43l-0.5,0.6c-0.2-0.2-0.4-0.4-0.5-0.6c0-0.1-0.1-0.1-0.2-0.1c-0.1,0-0.1,0.1-0.1,0.2
				c0.2,0.3,0.3,0.5,0.6,0.7c-0.2,0.5-0.6,0.9-1.2,1.2c-1.2,0.6-2.7,0.6-3.9,0c-0.1,0-0.2,0-0.2,0.1c0,0.1,0,0.2,0.1,0.2
				c0.6,0.3,1.4,0.5,2.1,0.5c0.7,0,1.4-0.2,2.1-0.5c0.5-0.3,1.1-0.7,1.4-1.4c0,0,0,0,0,0l0.6-0.7c0.1-0.1,0-0.2,0-0.2
				C121.1,42.9,121,42.9,121,43z"/>
			<path class="st8" d="M121.7,42.3c-0.5-0.3-1.1-0.5-1.7-0.4c-0.5,0-0.9,0.2-1.3,0.4c0-0.6-0.3-1.1-0.5-1.4c-0.3-0.5-0.8-1-1.2-1.3
				c-0.1-0.1-0.2-0.1-0.2,0c-0.1,0.1-0.1,0.2,0,0.2c0.4,0.3,0.8,0.7,1.1,1.2c0.2,0.4,0.5,0.9,0.5,1.5c0,0.6-0.3,1.1-0.7,1.3
				c-0.1,0-0.1,0.1-0.1,0.2c0,0,0.1,0.1,0.1,0.1c0,0,0.1,0,0.1,0c0.5-0.3,0.8-0.9,0.9-1.5c0.4-0.3,0.8-0.5,1.4-0.5
				c0.5,0,1.1,0.1,1.5,0.4c0.1,0,0.2,0,0.2,0C121.8,42.4,121.8,42.3,121.7,42.3z"/>
			<path class="st8" d="M118.8,40.8c0,0.1,0,0.2,0.1,0.2c0,0,0.1,0,0.1,0c0.1,0,0.1,0,0.1-0.1c0.1-0.2,0.2-0.4,0.2-0.6
				c0.7-0.1,1.5,0,2.1,0.4c0,0,0.1,0,0.1,0c0.1,0,0.1,0,0.1-0.1c0-0.1,0-0.2-0.1-0.2c-0.7-0.4-1.5-0.5-2.3-0.4
				c0-0.2-0.1-0.4-0.3-0.6c-0.1-0.1-0.2-0.1-0.2,0c-0.1,0.1-0.1,0.2,0,0.2C118.9,39.9,119,40.4,118.8,40.8z"/>
		</g>
		<path class="st9" d="M107.1,35c0.3-0.3,0.7-0.5,1.1-0.5c0.4,0,0.9,0.4,1.1,0.7c0.4-0.4,0.9-0.5,1.4-0.5c0.5,0,1,0.3,1.2,0.7
			c0.2-0.4,0.7-0.7,1.1-0.7c0.5,0,1,0.3,1.2,0.6c0.4-0.4,1-0.7,1.6-0.7c0.6,0,1.2,0.2,1.7,0.6c0.2-0.4,0.6-0.7,1-0.7
			c0.4-0.1,0.8,0.1,1.1,0.4c0.4-0.4,1-0.6,1.6-0.6c0.6,0,1.2,0.2,1.6,0.6c0.7-0.6,1.8-0.7,2.6-0.1c0.7,0.6,1,1.7,0.6,2.5
			c0.4,0.2,0.7,0.7,0.6,1.1s-0.5,0.8-1,0.9c0.5,0.2,0.8,0.8,0.8,1.3c-0.1,0.5-0.5,1-1,1.1c0.2,0.4,0.4,0.8,0.4,1.3
			c0,0.4-0.2,0.9-0.6,1.1c0.4,0.4,0.7,1,0.5,1.5c-0.1,0.6-0.5,1-1.1,1.2c0.2,0.5,0.3,1,0.3,1.5c0,0.5-0.2,1-0.5,1.4
			c-0.4,0.4-0.9,0.7-1.4,0.5c0.2,0.3,0.1,0.8-0.1,1.1c-0.2,0.3-0.5,0.5-0.9,0.7c-0.7,0.3-1.5,0.4-2.2,0.3c-0.1,0.5-0.5,0.9-0.9,1.1
			c-0.5,0.2-1,0.2-1.5,0c-0.5-0.2-0.9-0.5-1.2-0.9c-0.1,0.4-0.3,0.9-0.6,1.2c0.3,0.3,0.5,0.8,0.4,1.2c-0.1,0.4-0.3,1-0.7,1.1
			c0.5,0.1,0.7,0.7,0.7,1.2c0,0.5-0.3,0.9-0.6,1.4c-0.6,0.9-1.1,2.7-1.7,2.7c-0.6,0-0.5-0.5-0.6-0.8c-0.2-1-1-1.8-1.4-2.7
			c-0.2-0.4-0.4-0.9-0.5-1.3c0-0.5,0.3-1,0.7-1.2c-0.8-0.7-1.1-1.9-0.7-3c0.4-1,1.3-1.8,2.3-2.1c1-0.3,2.2-0.2,3.2,0.3
			c0.4-0.7,1.4-1,2.2-0.7c0.1-0.5,0.2-1,0.5-1.4c0.3-0.4,0.9-0.5,1.3-0.2c0-0.5,0.2-0.9,0.6-1.2c0.4-0.3,0.8-0.4,1.3-0.3
			c-0.6-0.3-0.9-1-1-1.6c0-0.7,0.3-1.3,0.8-1.7c-0.2-0.6-0.4-1.2-0.4-1.9c0-0.6,0.4-1.4,1-1.6c-0.6-0.5-0.8-1.4-0.5-2.2
			c-0.4,0.5-0.9,0.9-1.6,1c-0.6,0.1-1.3,0-1.8-0.4c-0.4,0.6-1.1,1-1.8,1.1c-0.7,0.1-1.5-0.1-2.1-0.5c-0.4,0.6-1,1-1.7,1.1
			c-0.7,0.1-1.4-0.1-1.9-0.6c-0.5,0.5-1.3,0.7-2,0.6c-0.7-0.1-1.3-0.5-1.6-1.1c-0.5,0.3-1.1,0.3-1.6,0.2c-0.5-0.2-1-0.5-1.2-1
			c-0.2,0.2-0.7,0.3-1,0.2c0.5,0.6,0.5,1.4,0.2,2c0.4,0.4,0.7,0.9,0.7,1.5c0,0.6-0.2,1.2-0.6,1.6c0.4,0.4,0.6,0.9,0.6,1.4
			c0,0.5-0.1,1-0.4,1.5c0.7,0.7,0.7,1.9,0.2,2.7c1,1.3,1.4,3.1,0.8,4.7c-0.1,0.2-0.2,0.5-0.4,0.5c-0.2,0.1-0.5,0-0.7-0.1
			c-0.8-0.4-1.7-0.9-2.2-1.7c-0.6-0.8-0.7-1.9,0-2.6c-0.5-0.3-0.9-0.8-1.1-1.4c-0.2-0.6,0-1.2,0.4-1.7c-0.6-0.3-1-0.8-1.1-1.5
			c-0.1-0.6,0.1-1.2,0.6-1.7c-0.5-0.2-0.9-0.8-0.9-1.3c0-0.6,0.3-1.2,0.8-1.4c-0.5-0.2-0.9-0.7-0.9-1.2c-0.1-0.5,0.2-1.1,0.6-1.4
			c-0.7-0.8-0.6-2.2,0.1-3c0.8-0.8,2.1-0.9,3-0.2c0.5-0.4,1-0.7,1.7-0.7S106.7,34.6,107.1,35z"/>
	</g>
	<g>
		<g>
			<path class="st8" d="M122.7,35.2c0,0-0.2,0.2-0.7,0.4c-0.1,0.1-0.2,0.1-0.4,0.2c-0.1,0.1-0.3,0.1-0.5,0.2
				c-0.3,0.1-0.7,0.3-1.1,0.4c-0.2,0.1-0.4,0.1-0.7,0.2c-0.2,0.1-0.5,0.1-0.7,0.2c-0.1,0-0.3,0.1-0.4,0.1c-0.1,0-0.1,0-0.2,0
				c-0.1,0-0.1,0-0.2,0c-0.3,0.1-0.5,0.1-0.8,0.2c-1.1,0.2-2.4,0.3-3.8,0.3c-1.3,0-2.6-0.1-3.8-0.3c-0.3-0.1-0.6-0.1-0.8-0.2
				c-0.1,0-0.1,0-0.2,0c-0.1,0-0.1,0-0.2,0c-0.1,0-0.3-0.1-0.4-0.1c-0.3-0.1-0.5-0.1-0.7-0.2c-0.2-0.1-0.4-0.1-0.7-0.2
				c-0.4-0.1-0.8-0.3-1.1-0.4c-0.2-0.1-0.3-0.1-0.5-0.2c-0.1-0.1-0.3-0.1-0.4-0.2c-0.4-0.2-0.7-0.3-0.7-0.4c0,0,0.3,0.1,0.7,0.2
				c0.1,0,0.2,0.1,0.4,0.1c0.1,0,0.3,0.1,0.5,0.1c0.3,0.1,0.7,0.2,1.1,0.3c0.2,0.1,0.4,0.1,0.7,0.2c0.2,0.1,0.5,0.1,0.7,0.2
				c0.1,0,0.3,0.1,0.4,0.1c0.1,0,0.1,0,0.2,0c0.1,0,0.1,0,0.2,0c0.3,0,0.5,0.1,0.8,0.1c1.1,0.2,2.4,0.3,3.7,0.3
				c1.3,0,2.6-0.1,3.7-0.3c0.3,0,0.6-0.1,0.8-0.1c0.1,0,0.1,0,0.2,0c0.1,0,0.1,0,0.2,0c0.1,0,0.3-0.1,0.4-0.1
				c0.2-0.1,0.5-0.1,0.7-0.2c0.2-0.1,0.4-0.1,0.7-0.2c0.4-0.1,0.8-0.2,1.1-0.3c0.2-0.1,0.3-0.1,0.5-0.1c0.1,0,0.3-0.1,0.4-0.1
				C122.4,35.2,122.7,35.1,122.7,35.2z"/>
		</g>
		<g>
			<path class="st8" d="M113.7,59.7C113.7,59.7,113.7,59.7,113.7,59.7c0-0.1,0-0.1,0-0.2c0,0,0-0.1,0-0.1c0-0.2,0-0.5,0-0.9
				c0-0.4-0.1-0.9-0.2-1.4c-0.1-0.5-0.3-1.2-0.4-1.8c-0.1-0.3-0.1-0.7-0.1-1.1c0-0.4,0-0.8,0-1.2c0-0.2,0.1-0.4,0.2-0.6
				c0.1-0.2,0.2-0.4,0.4-0.6c0.2-0.2,0.3-0.3,0.6-0.4c0.2-0.1,0.5-0.2,0.7-0.2c0.5,0,1,0,1.4,0.1c0.5,0,1,0.1,1.5,0
				c0.5,0,1-0.1,1.5-0.3c0.5-0.2,0.9-0.4,1.4-0.7c0.4-0.3,0.8-0.7,1.1-1c0.3-0.4,0.6-0.8,0.9-1.2c0.1-0.1,0.1-0.2,0.2-0.3l0.1-0.2
				l0.1-0.2c0.1-0.1,0.1-0.2,0.2-0.3c0-0.1,0.1-0.2,0.1-0.3l0.1-0.2l0.1-0.2c0-0.1,0.1-0.2,0.1-0.3c0.1-0.2,0.1-0.4,0.2-0.7
				c0.5-1.8,0.6-3.4,0.5-4.8c0-1.4-0.1-2.5-0.2-3.3c0-0.4-0.1-0.7-0.1-0.9c0-0.2,0-0.3,0-0.3c0,0,0,0.1,0.1,0.3
				c0,0.2,0.1,0.5,0.1,0.9c0.1,0.8,0.2,1.9,0.3,3.3c0,0.7,0,1.5,0,2.3c-0.1,0.8-0.2,1.7-0.5,2.6c-0.1,0.2-0.1,0.4-0.2,0.7
				c0,0.1-0.1,0.2-0.1,0.3l-0.1,0.2l-0.1,0.2c0,0.1-0.1,0.2-0.1,0.3c-0.1,0.1-0.1,0.2-0.2,0.3l-0.1,0.2l-0.1,0.2
				c-0.1,0.1-0.1,0.2-0.2,0.3c-0.3,0.4-0.5,0.9-0.9,1.3c-0.3,0.4-0.7,0.8-1.2,1.1c-0.4,0.3-0.9,0.6-1.4,0.7c-0.5,0.2-1,0.3-1.5,0.3
				c-0.5,0-1,0-1.5,0c-0.5,0-1-0.1-1.4-0.1c-0.2,0-0.4,0.1-0.6,0.1c-0.2,0.1-0.4,0.2-0.5,0.4c-0.1,0.2-0.3,0.3-0.3,0.5
				c-0.1,0.2-0.1,0.4-0.2,0.6c-0.1,0.4-0.1,0.8-0.1,1.2c0,0.4,0.1,0.7,0.1,1.1c0.1,0.7,0.2,1.3,0.3,1.9c0.1,0.5,0.2,1,0.2,1.4
				c0,0.4,0,0.7,0,0.9c0,0.1,0,0.1,0,0.1C113.7,59.6,113.7,59.6,113.7,59.7C113.7,59.7,113.7,59.7,113.7,59.7z"/>
		</g>
		<g>
			<path class="st8" d="M105.1,53.6c0,0-0.1-0.2-0.3-0.6c0-0.1-0.1-0.2-0.1-0.3c0-0.1-0.1-0.3-0.2-0.4c-0.1-0.3-0.2-0.6-0.4-1
				c-0.1-0.2-0.1-0.4-0.2-0.6c-0.1-0.2-0.1-0.4-0.2-0.6c-0.1-0.4-0.3-0.9-0.4-1.4c-0.3-1-0.5-2.1-0.7-3.2c-0.2-1.1-0.3-2.2-0.4-3.3
				c0-0.5-0.1-1-0.1-1.4c0-0.2,0-0.4,0-0.6c0-0.2,0-0.4,0-0.6c0-0.4,0-0.7,0-1c0-0.2,0-0.3,0-0.4c0-0.1,0-0.2,0-0.4
				c0-0.4,0.1-0.7,0.1-0.7c0,0,0,0.2,0,0.7c0,0.1,0,0.2,0,0.4c0,0.1,0,0.3,0,0.4c0,0.3,0,0.6,0,1c0,0.2,0,0.4,0,0.6
				c0,0.2,0,0.4,0,0.6c0,0.4,0.1,0.9,0.1,1.4c0.1,1,0.2,2.1,0.4,3.2c0.2,1.1,0.4,2.2,0.7,3.2c0.1,0.5,0.2,0.9,0.4,1.4
				c0.1,0.2,0.1,0.4,0.2,0.6c0.1,0.2,0.1,0.4,0.2,0.6c0.1,0.4,0.2,0.7,0.3,1c0,0.1,0.1,0.3,0.1,0.4c0,0.1,0.1,0.2,0.1,0.3
				C105.1,53.4,105.1,53.6,105.1,53.6z"/>
		</g>
		<g>
			<path class="st8" d="M103.6,40.4c0,0-0.5,0.3-1.1,0.4c-0.7,0.1-1.2,0-1.2,0c0-0.1,0.5,0,1.2-0.1
				C103.1,40.5,103.6,40.4,103.6,40.4z"/>
		</g>
		<g>
			<path class="st8" d="M103.9,43.6c0,0-0.6,0.2-1.3,0.2c-0.7,0-1.3-0.1-1.3-0.2c0-0.1,0.6,0,1.3,0
				C103.4,43.5,103.9,43.5,103.9,43.6z"/>
		</g>
		<g>
			<path class="st8" d="M104.3,46.4c0,0-0.1,0.1-0.3,0.2c-0.2,0.1-0.5,0.2-0.9,0.3c-0.4,0-0.7,0-0.9-0.1c-0.2-0.1-0.4-0.1-0.4-0.2
				c0-0.1,0.6,0.1,1.3,0C103.8,46.7,104.3,46.4,104.3,46.4z"/>
		</g>
		<g>
			<path class="st8" d="M104.5,48.9c0,0-0.1,0.1-0.2,0.2c-0.2,0.1-0.4,0.3-0.7,0.4c-0.3,0.1-0.6,0.2-0.8,0.2c-0.2,0-0.3,0-0.3-0.1
				c0,0,0.1,0,0.3-0.1c0.2,0,0.4-0.1,0.7-0.2c0.3-0.1,0.5-0.3,0.7-0.4C104.4,49,104.5,48.9,104.5,48.9z"/>
		</g>
		<g>
			<path class="st8" d="M114.8,56.1c0,0-0.2,0.1-0.4,0.1c-0.3,0-0.6,0-1-0.1c-0.4-0.1-0.7-0.3-1-0.5c-0.2-0.2-0.3-0.3-0.3-0.3
				c0,0,0.6,0.4,1.3,0.6C114.2,56.1,114.8,56,114.8,56.1z"/>
		</g>
		<g>
			<path class="st8" d="M116.1,52.1c0,0-0.1-0.1-0.1-0.2c-0.1-0.1-0.1-0.4-0.1-0.6c0-0.2,0.1-0.4,0.2-0.6c0.1-0.1,0.2-0.2,0.2-0.2
				c0,0-0.2,0.3-0.2,0.7C116,51.7,116.1,52.1,116.1,52.1z"/>
		</g>
		<g>
			<path class="st8" d="M119.8,52c0,0-0.1,0-0.3-0.2c-0.2-0.1-0.4-0.4-0.5-0.7c-0.2-0.3-0.2-0.6-0.2-0.8c0-0.2,0-0.3,0-0.3
				c0,0,0,0.1,0.1,0.3c0,0.2,0.1,0.5,0.3,0.7c0.1,0.3,0.3,0.5,0.5,0.6C119.7,51.9,119.8,52,119.8,52z"/>
		</g>
		<g>
			<path class="st8" d="M122.8,50.2c0,0-0.2,0-0.4-0.1c-0.1,0-0.3-0.1-0.4-0.2c-0.1-0.1-0.3-0.2-0.5-0.3c-0.1-0.1-0.3-0.3-0.4-0.4
				c-0.1-0.1-0.2-0.3-0.2-0.4c-0.1-0.2-0.2-0.4-0.1-0.4c0,0,0.1,0.1,0.2,0.3c0.1,0.1,0.2,0.2,0.3,0.3c0.1,0.1,0.2,0.2,0.4,0.4
				c0.1,0.1,0.3,0.2,0.4,0.3c0.1,0.1,0.3,0.1,0.4,0.2C122.7,50.1,122.8,50.2,122.8,50.2z"/>
		</g>
		<g>
			<path class="st8" d="M115.6,53.7c0,0-0.3,0.1-0.7,0c-0.4-0.1-0.7-0.3-0.7-0.3c0,0,0.3,0.1,0.7,0.1
				C115.3,53.6,115.6,53.6,115.6,53.7z"/>
		</g>
		<g>
			<path class="st8" d="M124.2,46.6c0,0-0.3,0.2-0.8,0.2c-0.4,0-0.8-0.1-0.8-0.1c0-0.1,0.3,0,0.8-0.1
				C123.8,46.6,124.2,46.5,124.2,46.6z"/>
		</g>
		<g>
			<path class="st8" d="M124.9,44c0,0-0.5,0-1.1-0.1c-0.6-0.1-1-0.3-1-0.3c0,0,0.5,0,1.1,0.1C124.4,43.8,124.9,43.9,124.9,44z"/>
		</g>
		<g>
			<path class="st8" d="M125,41.2c0,0-0.4-0.2-0.8-0.5c-0.5-0.3-0.8-0.4-0.8-0.5c0,0,0.5,0,0.9,0.3C124.7,40.8,125,41.2,125,41.2z"
				/>
		</g>
		<g>
			<path class="st8" d="M125.8,39.4c0,0.1-0.6-0.1-1.3-0.2c-0.7-0.1-1.3-0.1-1.3-0.2c0,0,0.6-0.1,1.3,0
				C125.3,39.1,125.8,39.4,125.8,39.4z"/>
		</g>
		<g>
			<path class="st8" d="M125.4,37.4c0,0-0.5,0.3-1.3,0.4c-0.7,0.1-1.3,0-1.3-0.1c0-0.1,0.6,0,1.3-0.1
				C124.9,37.6,125.4,37.4,125.4,37.4z"/>
		</g>
		<g>
			<path class="st8" d="M105.1,37.8c0,0,0-0.2,0-0.5c0-0.1,0.1-0.3,0.2-0.5c0.1-0.2,0.2-0.4,0.3-0.6c0.1-0.2,0.3-0.4,0.4-0.5
				c0.1-0.1,0.3-0.3,0.4-0.3c0.2-0.2,0.4-0.2,0.4-0.2c0,0-0.1,0.1-0.4,0.3c-0.1,0.1-0.2,0.2-0.4,0.3c-0.1,0.1-0.3,0.3-0.4,0.5
				c-0.1,0.2-0.2,0.4-0.3,0.5c-0.1,0.2-0.1,0.3-0.2,0.5C105.2,37.6,105.2,37.8,105.1,37.8z"/>
		</g>
		<g>
			<path class="st8" d="M108,38.5c0,0-0.1-0.2,0-0.5c0-0.2,0-0.4,0.1-0.6c0-0.2,0.1-0.4,0.2-0.7c0.1-0.2,0.2-0.4,0.3-0.6
				c0.1-0.2,0.2-0.3,0.3-0.5c0.2-0.2,0.4-0.4,0.4-0.4c0,0-0.5,0.6-0.8,1.5C108,37.7,108,38.5,108,38.5z"/>
		</g>
		<g>
			<path class="st8" d="M111.5,39.3c0,0-0.2-0.9-0.1-1.9c0.1-1.1,0.4-1.9,0.5-1.9c0.1,0-0.2,0.8-0.3,1.9
				C111.5,38.4,111.6,39.3,111.5,39.3z"/>
		</g>
		<g>
			<path class="st8" d="M115.2,38.7c-0.1,0-0.1-0.8-0.3-1.7c-0.2-0.9-0.6-1.5-0.6-1.6c0,0,0.1,0.1,0.3,0.4c0.2,0.3,0.3,0.7,0.5,1.1
				c0.1,0.5,0.2,0.9,0.2,1.2C115.3,38.6,115.2,38.7,115.2,38.7z"/>
		</g>
		<g>
			<path class="st8" d="M119.3,38.2c-0.1,0-0.3-0.7-0.8-1.4c-0.5-0.8-1-1.3-0.9-1.3c0,0,0.6,0.5,1.1,1.2
				C119.2,37.5,119.4,38.2,119.3,38.2z"/>
		</g>
		<g>
			<path class="st8" d="M122.7,37.4c0,0-0.1-0.2-0.3-0.4c-0.1-0.1-0.2-0.3-0.4-0.5c-0.1-0.2-0.3-0.3-0.5-0.5
				c-0.2-0.2-0.4-0.3-0.6-0.4c-0.2-0.1-0.4-0.2-0.5-0.3c-0.3-0.2-0.5-0.2-0.5-0.3c0,0,0.2,0,0.5,0.1c0.2,0.1,0.3,0.2,0.5,0.3
				c0.2,0.1,0.4,0.3,0.6,0.4c0.2,0.2,0.4,0.4,0.5,0.5c0.1,0.2,0.3,0.3,0.3,0.5C122.6,37.2,122.7,37.4,122.7,37.4z"/>
		</g>
	</g>
</g>
<g>
	<path class="st5" d="M24,80.4c0.5,4.5,0.7,8,0.5,12c-0.1,1.2-0.5,2.9-0.9,4c-0.5,1.2-1.2,1.9-2.1,2.9c-1.7,1.8-4.3,2.2-6.8,2.3
		c-1.2,0.1-2.4,0-3.3-0.8c-0.9-0.8-1.1-2.3-1-3.5c0.2-6.4,3-12.3,6.9-17.4c1.8-2.3,4.3-2.9,5.2-2.5C23.6,77.8,23.8,79.1,24,80.4z"/>
	<path class="st5" d="M27.2,80.4c-0.5,4.5-0.7,8-0.5,12c0.1,1.2,0.5,2.9,0.9,4c0.5,1.2,1.2,1.9,2.1,2.9c1.7,1.8,4.3,2.2,6.8,2.3
		c1.2,0.1,2.4,0,3.3-0.8c0.9-0.8,1.1-2.3,1-3.5c-0.2-6.4-3-12.3-6.9-17.4c-1.8-2.3-4.3-2.9-5.2-2.5C27.6,77.8,27.4,79.1,27.2,80.4z"
		/>
	<g>
		<g>
			<path class="st10" d="M26.4,87.2h-1.6c0.4-2,0.2-5.3-0.1-8.1c0-0.6,1.9-0.6,1.9,0C26.2,81.6,26,84.9,26.4,87.2z"/>
		</g>
		<g>
			<g>
				<path class="st10" d="M36,94.3c0,0-0.3-0.4-0.9-0.9c-0.6-0.5-1.6-1-2.9-1.3c-1.2-0.4-2.6-0.9-3.8-1.6c-0.6-0.4-1.2-0.8-1.7-1.3
					c-0.5-0.5-0.9-1-1.1-1.6c-0.1-0.4-0.2-0.7-0.1-0.9c0.1-0.2,0.1-0.3,0.3-0.3c0.1,0,0.2,0.1,0.3,0.2c0.1,0.1,0.2,0.4,0.3,0.6
					c0,0.1,0,0.1,0.1,0.2c0,0,0,0.1,0,0.1c0,0,0,0.1,0,0.1c0,0.1,0.1,0.1,0.1,0.2c0,0.1,0.1,0.1,0.1,0.2l0.1,0.1l0.1,0.1
					c0,0.1,0.1,0.1,0.1,0.2c0.1,0.1,0.2,0.2,0.3,0.3c0.4,0.4,0.9,0.8,1.5,1.2c1.1,0.7,2.4,1.3,3.6,1.7c1.2,0.4,2.3,1,2.9,1.6
					c0.3,0.3,0.5,0.6,0.6,0.8C35.9,94,36,94.1,36,94.3C36,94.2,36,94.3,36,94.3z"/>
			</g>
		</g>
		<g>
			<g>
				<path class="st10" d="M33.6,88.2c0,0-0.1,0.2-0.4,0.5c-0.3,0.3-0.8,0.6-1.4,0.9c-0.6,0.3-1.3,0.4-2.1,0.4
					c-0.7,0-1.4-0.2-1.9-0.4c-0.1,0-0.2-0.1-0.2-0.1c-0.1,0-0.1-0.1-0.1-0.1c-0.1-0.1-0.1-0.1,0-0.2c0.1-0.1,0.3-0.1,0.6,0
					c0.5,0.2,1.1,0.4,1.8,0.4c0.7,0,1.4-0.1,1.9-0.3c0.6-0.2,1.1-0.5,1.4-0.8C33.4,88.3,33.5,88.2,33.6,88.2z"/>
			</g>
		</g>
		<g>
			<g>
				<path class="st10" d="M34.9,96.8c0,0-0.1,0-0.2-0.1c-0.1,0-0.1-0.1-0.2-0.1c-0.1,0-0.2-0.1-0.3-0.2c-0.4-0.2-0.9-0.6-1.5-1.1
					c-0.5-0.5-1.1-1.1-1.5-1.8c-0.4-0.7-0.8-1.4-1-2c0-0.1-0.1-0.2-0.1-0.3c0-0.1,0-0.1,0-0.2c0-0.1,0-0.2,0.1-0.2
					c0.1,0,0.1,0,0.2,0.1c0,0,0.1,0.1,0.1,0.2c0,0.1,0.1,0.1,0.1,0.2c0.2,0.6,0.5,1.3,0.9,1.9c0.4,0.7,0.9,1.3,1.4,1.8
					c0.5,0.5,1,0.9,1.4,1.2c0.1,0.1,0.2,0.1,0.3,0.2c0.1,0.1,0.1,0.1,0.2,0.1C34.9,96.8,34.9,96.8,34.9,96.8z"/>
			</g>
		</g>
		<g>
			<g>
				<path class="st10" d="M29.3,95.6c-0.1,0,0.1-0.9,0-2c-0.1-0.6-0.2-1.2-0.4-1.7c-0.2-0.6-0.4-1.1-0.7-1.5
					c-0.2-0.3-0.1-0.4-0.1-0.5c0.1-0.1,0.3,0,0.4,0.3c0.3,0.4,0.5,1,0.7,1.6c0.2,0.6,0.3,1.2,0.3,1.8c0,0.6,0,1.1-0.1,1.4
					c0,0.1,0,0.2-0.1,0.2c0,0.1,0,0.1-0.1,0.2C29.3,95.5,29.3,95.6,29.3,95.6z"/>
			</g>
		</g>
		<g>
			<g>
				<path class="st10" d="M28,92.6c0,0-0.4-0.4-0.7-1c-0.1-0.3-0.3-0.7-0.3-1.1c-0.1-0.4-0.1-0.7,0-1.1c0-0.2,0.1-0.3,0.2-0.3
					c0.1,0,0.1,0.1,0.1,0.3c0,0.3,0,0.6,0,1c0,0.4,0.1,0.7,0.2,1C27.7,92.1,28,92.6,28,92.6z"/>
			</g>
		</g>
		<g>
			<g>
				<path class="st10" d="M27.9,80.9c0,0,0,0.1,0,0.3c0,0.2,0.1,0.5,0.3,0.7c0.2,0.3,0.5,0.6,0.9,0.9c0.2,0.2,0.4,0.3,0.5,0.5
					c0.2,0.2,0.3,0.5,0.4,0.7c0.1,0.3,0.2,0.6,0.3,0.8c0.1,0.3,0.1,0.6,0,0.9c-0.1,0.6-0.3,1.2-0.7,1.7c-0.2,0.2-0.4,0.5-0.7,0.7
					c-0.1,0-0.1,0.1-0.2,0.1l-0.1,0.1l0,0l0,0l0,0c0,0-0.1,0-0.1,0c0,0-0.1,0-0.1,0c-0.1,0-0.1,0-0.2,0.1c-0.3,0.1-0.6,0.1-0.9,0
					c-0.3,0-0.5-0.2-0.8-0.3c-0.1-0.1-0.1-0.1-0.2-0.2c-0.1-0.1-0.1-0.1-0.1-0.2c0-0.1-0.1-0.1-0.1-0.1c0,0,0,0,0-0.1c0,0,0,0,0-0.1
					c0-0.2,0-0.2,0-0.3c0.1,0,0.1,0,0.2,0.1c0.1,0,0.1,0.1,0.2,0.2c0.1,0.1,0.2,0.1,0.3,0.2c0.2,0.1,0.4,0.2,0.6,0.2
					c0.2,0,0.5,0,0.7,0c0.1,0,0.1,0,0.2,0c0,0,0.1,0,0.1,0c0,0,0.1,0,0.1,0l0,0l0,0l0,0l0.1-0.1c0.1,0,0.1-0.1,0.2-0.1
					c0.2-0.2,0.4-0.3,0.6-0.6c0.4-0.4,0.6-1,0.7-1.5c0-0.3,0-0.6,0-0.8c0-0.3-0.1-0.5-0.2-0.8c-0.1-0.2-0.2-0.5-0.4-0.7
					c-0.1-0.2-0.3-0.4-0.5-0.5c-0.3-0.3-0.7-0.6-0.8-1c-0.2-0.3-0.3-0.6-0.3-0.8C27.8,81.1,27.9,80.9,27.9,80.9z"/>
			</g>
		</g>
		<g>
			<g>
				<path class="st10" d="M27.9,83.6c0,0,0,0.2,0,0.5c0,0.3,0,0.7,0.1,1.1c0.1,0.4,0.2,0.9,0.4,1.3c0.2,0.4,0.5,0.8,0.7,1
					c0.2,0.1,0.2,0.3,0.2,0.3c0,0.1-0.2,0.1-0.4-0.1c-0.3-0.3-0.6-0.7-0.8-1.1c-0.2-0.5-0.3-1-0.3-1.4c0-0.5,0-0.9,0-1.1
					C27.9,83.8,27.9,83.6,27.9,83.6z"/>
			</g>
		</g>
		<g>
			<g>
				<path class="st10" d="M28.8,84.3c0,0,0.1,0.4,0.1,0.8c0,0.2,0,0.5-0.1,0.8c-0.1,0.3-0.2,0.5-0.3,0.7c-0.1,0.2-0.3,0.1-0.2-0.1
					c0.1-0.2,0.2-0.4,0.3-0.6c0.1-0.2,0.1-0.5,0.1-0.7C28.8,84.7,28.8,84.3,28.8,84.3z"/>
			</g>
		</g>
		<g>
			<g>
				<path class="st10" d="M29.3,81.3C29.3,81.3,29.3,81.4,29.3,81.3c0.1,0.1,0.1,0.1,0.2,0.1c0,0,0.1,0.1,0.1,0.1
					c0.2,0.2,0.4,0.5,0.5,0.8c0.2,0.3,0.3,0.8,0.4,1.2c0.1,0.4,0,0.8-0.1,1.2c0,0.1-0.1,0.2-0.1,0.2c0,0-0.1,0.1-0.1,0
					c0,0,0-0.1,0-0.1c0-0.1,0-0.1,0-0.2c0.1-0.3,0.1-0.7,0.1-1.1c0-0.4-0.2-0.8-0.3-1.1c-0.1-0.3-0.3-0.6-0.5-0.8
					c0,0-0.1-0.1-0.1-0.1C29.4,81.5,29.3,81.5,29.3,81.3C29.3,81.4,29.3,81.3,29.3,81.3z"/>
			</g>
		</g>
		<g>
			<g>
				<path class="st10" d="M31.7,84C31.7,84,31.7,84,31.7,84c0,0.1,0,0.2,0,0.2c0,0,0,0.1,0,0.2c0,0.2,0,0.6-0.2,0.9
					c-0.1,0.3-0.3,0.7-0.6,1c-0.2,0.3-0.5,0.5-0.8,0.7c-0.2,0.1-0.3,0.1-0.3,0c0-0.1,0-0.2,0.2-0.3c0.2-0.1,0.5-0.3,0.8-0.6
					c0.2-0.3,0.4-0.6,0.6-0.9c0.1-0.3,0.2-0.6,0.2-0.8c0-0.1,0-0.1,0-0.1C31.7,84.1,31.7,84.1,31.7,84C31.7,84,31.7,84,31.7,84z"/>
			</g>
		</g>
		<g>
			<g>
				<path class="st10" d="M32.7,86.3c0,0-0.2,0.1-0.5,0.3c-0.1,0.1-0.3,0.3-0.4,0.5c-0.1,0.2-0.3,0.5-0.5,0.7
					c-0.1,0.1-0.2,0.3-0.3,0.4c-0.1,0.1-0.2,0.3-0.4,0.4c-0.3,0.2-0.6,0.4-0.9,0.5c-0.3,0.1-0.7,0.1-1,0.1c-0.3,0-0.6-0.1-0.9-0.2
					c-0.2-0.1-0.3-0.2-0.3-0.3c-0.1-0.1-0.1-0.1,0-0.2c0.1-0.1,0.3-0.1,0.5,0.1c0.2,0.1,0.5,0.2,0.8,0.2c0.3,0,0.6,0,0.9-0.1
					c0.3-0.1,0.6-0.2,0.8-0.4c0.2-0.2,0.5-0.4,0.6-0.6c0.2-0.2,0.4-0.5,0.5-0.7c0.2-0.2,0.4-0.4,0.5-0.5c0.2-0.1,0.3-0.2,0.4-0.2
					C32.6,86.3,32.7,86.3,32.7,86.3z"/>
			</g>
		</g>
		<g>
			<g>
				<path class="st10" d="M35.6,91.1c0,0-0.1,0-0.1,0c0,0-0.1,0-0.2,0c-0.1,0-0.1,0-0.2,0c-0.3,0-0.7,0-1.2,0
					c-0.5,0.1-1,0.1-1.5,0.2c-0.5,0.1-1.1,0.1-1.5,0c-0.1,0-0.1,0-0.2-0.1c0,0-0.1-0.1-0.1-0.1c-0.1-0.1-0.1-0.1-0.1-0.2
					c0-0.1,0.1-0.1,0.1-0.1c0,0,0.1,0,0.1,0c0,0,0.1,0,0.2,0c0.4,0.1,0.9,0.1,1.4,0c0.5,0,1.1-0.1,1.5-0.1c0.5,0,0.9,0,1.3,0.1
					c0.1,0,0.1,0,0.2,0.1c0.1,0,0.1,0,0.2,0.1C35.5,91,35.6,91.1,35.6,91.1z"/>
			</g>
		</g>
		<g>
			<g>
				<path class="st10" d="M34.3,89.6C34.3,89.6,34.3,89.6,34.3,89.6c-0.1,0.1-0.2,0.1-0.3,0.2c-0.2,0.1-0.4,0.2-0.7,0.3
					c-0.3,0.1-0.6,0.1-1,0c-0.3,0-0.6-0.1-0.9-0.3c-0.2-0.1-0.2-0.2-0.2-0.2c0,0,0.1,0,0.3,0c0.2,0.1,0.5,0.2,0.8,0.3
					c0.3,0.1,0.6,0.1,0.9,0C33.9,89.8,34.3,89.6,34.3,89.6z"/>
			</g>
		</g>
		<g>
			<g>
				<path class="st10" d="M35.1,95.1c0,0-0.4-0.3-0.8-0.8c-0.2-0.3-0.4-0.6-0.5-0.9c-0.1-0.3-0.2-0.6-0.2-0.9c0-0.4,0.3-0.3,0.3,0
					c0,0.2,0.1,0.5,0.2,0.8c0.1,0.3,0.2,0.6,0.4,0.9C34.8,94.7,35.2,95,35.1,95.1z"/>
			</g>
		</g>
		<g>
			<g>
				<path class="st10" d="M30.5,96.2c0,0,0,0,0-0.1c0,0,0-0.1,0-0.1c0-0.1,0-0.1,0-0.2c0-0.3,0-0.6-0.1-1c-0.1-0.4-0.2-0.8-0.4-1.2
					c-0.2-0.4-0.4-0.7-0.7-0.9c-0.1-0.2-0.2-0.3-0.1-0.3c0.1-0.1,0.2,0,0.4,0.1c0.2,0.3,0.5,0.6,0.7,1c0.2,0.4,0.3,0.8,0.4,1.3
					c0.1,0.4,0,0.8,0,1c0,0.1,0,0.1,0,0.2c0,0.1,0,0.1,0,0.1C30.5,96.2,30.5,96.2,30.5,96.2z"/>
			</g>
		</g>
		<g>
			<g>
				<path class="st10" d="M31.9,96.5c0,0,0.1-0.4,0.1-0.8c0-0.2,0-0.5,0-0.7c0-0.2-0.1-0.5-0.1-0.6c-0.1-0.2,0.2-0.3,0.3-0.1
					c0.1,0.2,0.1,0.4,0.1,0.7c0,0.3,0,0.5,0,0.8C32.1,96.2,32,96.5,31.9,96.5z"/>
			</g>
		</g>
		<g>
			<g>
				<path class="st10" d="M33.5,94.6c0,0-0.3-0.2-0.7-0.4c-0.2-0.1-0.4-0.2-0.6-0.3c-0.2-0.1-0.4-0.1-0.6-0.1c-0.2,0-0.2-0.4,0-0.3
					c0.2,0,0.4,0.1,0.7,0.2c0.2,0.1,0.5,0.2,0.6,0.4C33.3,94.2,33.5,94.5,33.5,94.6z"/>
			</g>
		</g>
		<g>
			<g>
				<path class="st10" d="M15.2,94.3C15.2,94.3,15.2,94.2,15.2,94.3c0-0.2,0.1-0.2,0.1-0.3c0.1-0.2,0.3-0.5,0.6-0.8
					c0.6-0.6,1.6-1.2,2.9-1.6c1.2-0.5,2.5-1,3.6-1.7c0.6-0.4,1.1-0.8,1.5-1.2c0.1-0.1,0.2-0.2,0.3-0.3c0-0.1,0.1-0.1,0.1-0.2
					l0.1-0.1l0.1-0.1c0-0.1,0.1-0.1,0.1-0.2c0-0.1,0.1-0.1,0.1-0.2c0,0,0-0.1,0-0.1c0,0,0-0.1,0-0.1c0-0.1,0.1-0.1,0.1-0.2
					c0.1-0.3,0.2-0.5,0.3-0.7c0.1-0.1,0.2-0.2,0.3-0.2c0.1,0,0.2,0.1,0.3,0.3c0,0.2,0,0.5-0.1,0.8c-0.2,0.6-0.6,1.1-1.1,1.6
					c-0.5,0.5-1.1,0.9-1.7,1.3c-1.2,0.7-2.6,1.2-3.8,1.6c-1.2,0.3-2.2,0.8-2.9,1.3C15.5,93.9,15.2,94.3,15.2,94.3z"/>
			</g>
		</g>
		<g>
			<g>
				<path class="st10" d="M17.6,88.2c0,0,0.2,0.2,0.5,0.4c0.3,0.2,0.8,0.5,1.4,0.8c0.6,0.2,1.3,0.3,1.9,0.3c0.7,0,1.3-0.2,1.8-0.4
					c0.3-0.1,0.5-0.1,0.6,0c0,0.1-0.1,0.3-0.4,0.4c-0.5,0.2-1.2,0.4-1.9,0.4c-0.7,0-1.5-0.1-2.1-0.4c-0.6-0.3-1.1-0.6-1.4-0.9
					C17.8,88.4,17.6,88.2,17.6,88.2z"/>
			</g>
		</g>
		<g>
			<g>
				<path class="st10" d="M16.3,96.8c0,0,0-0.1,0.2-0.1c0.1,0,0.1-0.1,0.2-0.1c0.1-0.1,0.2-0.1,0.3-0.2c0.4-0.3,0.9-0.7,1.4-1.2
					c0.5-0.5,1-1.2,1.4-1.8c0.4-0.7,0.7-1.3,0.9-1.9c0-0.1,0.1-0.2,0.1-0.2c0-0.1,0.1-0.1,0.1-0.2c0.1-0.1,0.1-0.1,0.2-0.1
					c0.1,0,0.1,0.1,0.1,0.2c0,0.1,0,0.1,0,0.2c0,0.1,0,0.2-0.1,0.3c-0.2,0.6-0.5,1.3-1,2c-0.4,0.7-1,1.3-1.5,1.8
					c-0.5,0.5-1.1,0.9-1.5,1.1c-0.1,0.1-0.2,0.1-0.3,0.2c-0.1,0-0.2,0.1-0.2,0.1C16.4,96.8,16.3,96.8,16.3,96.8z"/>
			</g>
		</g>
		<g>
			<g>
				<path class="st10" d="M21.9,95.6c0,0,0,0-0.1-0.1c0,0,0-0.1-0.1-0.2c0-0.1,0-0.2-0.1-0.2c-0.1-0.4-0.1-0.9-0.1-1.4
					c0-0.6,0.1-1.2,0.3-1.8c0.2-0.6,0.4-1.1,0.7-1.6c0.2-0.3,0.3-0.3,0.4-0.3c0.1,0.1,0.1,0.3-0.1,0.5c-0.2,0.4-0.5,0.9-0.7,1.5
					c-0.2,0.6-0.3,1.2-0.4,1.7C21.8,94.7,22,95.6,21.9,95.6z"/>
			</g>
		</g>
		<g>
			<g>
				<path class="st10" d="M23.2,92.6c0,0,0.3-0.5,0.5-1.1c0.1-0.3,0.2-0.7,0.2-1c0-0.4,0-0.7,0-1c0-0.2,0-0.3,0.1-0.3
					c0.1,0,0.2,0.1,0.2,0.3c0,0.3,0,0.7,0,1.1c-0.1,0.4-0.2,0.8-0.3,1.1C23.6,92.2,23.2,92.6,23.2,92.6z"/>
			</g>
		</g>
		<g>
			<g>
				<path class="st10" d="M23.3,80.9c0,0,0,0.1,0,0.3c0,0.2-0.1,0.5-0.3,0.8c-0.2,0.3-0.5,0.6-0.8,1c-0.2,0.2-0.3,0.3-0.5,0.5
					c-0.1,0.2-0.3,0.4-0.4,0.7c-0.1,0.2-0.2,0.5-0.2,0.8c0,0.3,0,0.6,0,0.8c0.1,0.6,0.3,1.1,0.7,1.5c0.2,0.2,0.4,0.4,0.6,0.6
					c0.1,0,0.1,0.1,0.2,0.1l0.1,0.1l0,0l0,0l0,0c0,0,0,0,0.1,0c0,0,0.1,0,0.1,0c0.1,0,0.1,0,0.2,0c0.2,0,0.5,0,0.7,0
					c0.2,0,0.4-0.1,0.6-0.2c0.1,0,0.1-0.1,0.2-0.1c0,0,0.1-0.1,0.1-0.1c0,0,0.1-0.1,0.1-0.1c0,0,0,0,0,0c0,0,0,0,0,0
					c0.1-0.1,0.2-0.1,0.2-0.1c0,0,0.1,0.1,0,0.3c0,0.1-0.1,0.2-0.1,0.3c-0.1,0.1-0.2,0.2-0.3,0.3c-0.2,0.2-0.5,0.3-0.8,0.3
					c-0.3,0-0.6,0-0.9,0c-0.1,0-0.1,0-0.2-0.1c0,0-0.1,0-0.1,0c0,0-0.1,0-0.1,0l0,0l0,0l0,0l-0.1-0.1c-0.1,0-0.1-0.1-0.2-0.1
					c-0.2-0.2-0.5-0.4-0.7-0.7c-0.4-0.5-0.6-1.1-0.7-1.7c0-0.3,0-0.6,0-0.9c0.1-0.3,0.1-0.6,0.3-0.8c0.1-0.3,0.3-0.5,0.4-0.7
					c0.2-0.2,0.4-0.4,0.5-0.5c0.4-0.3,0.7-0.6,0.9-0.9c0.2-0.3,0.3-0.5,0.3-0.7C23.3,81.1,23.3,81,23.3,80.9z"/>
			</g>
		</g>
		<g>
			<g>
				<path class="st10" d="M23.3,83.6c0,0,0,0.2,0.1,0.5c0,0.3,0,0.7,0,1.1c0,0.5-0.1,1-0.3,1.4c-0.2,0.5-0.5,0.9-0.8,1.1
					c-0.1,0-0.1,0.1-0.1,0.1c0,0-0.1,0-0.1,0c-0.1,0-0.1,0-0.1,0c0-0.1,0-0.2,0.2-0.3c0.3-0.2,0.6-0.6,0.7-1
					c0.2-0.4,0.3-0.9,0.4-1.3c0.1-0.4,0.1-0.8,0.1-1.1C23.3,83.8,23.3,83.6,23.3,83.6z"/>
			</g>
		</g>
		<g>
			<g>
				<path class="st10" d="M22.4,84.3c0,0,0,0.4,0,0.8c0,0.2,0.1,0.5,0.1,0.7c0.1,0.2,0.2,0.5,0.3,0.6c0.1,0.2-0.1,0.3-0.2,0.1
					c-0.1-0.2-0.2-0.4-0.3-0.7c-0.1-0.3-0.1-0.5-0.1-0.8C22.3,84.7,22.4,84.3,22.4,84.3z"/>
			</g>
		</g>
		<g>
			<g>
				<path class="st10" d="M21.9,81.3C21.9,81.3,21.9,81.4,21.9,81.3c-0.1,0.1-0.1,0.1-0.1,0.2c0,0-0.1,0.1-0.1,0.1
					c-0.1,0.2-0.3,0.5-0.5,0.8c-0.1,0.3-0.3,0.7-0.3,1.1c0,0.4,0,0.8,0.1,1.1c0,0.1,0,0.2,0,0.2c0,0.1,0,0.1,0,0.1c0,0-0.1,0-0.1,0
					c0,0-0.1-0.1-0.1-0.2c-0.1-0.3-0.1-0.7-0.1-1.2c0.1-0.4,0.2-0.8,0.4-1.2c0.2-0.4,0.4-0.6,0.5-0.8c0,0,0.1-0.1,0.1-0.1
					C21.8,81.5,21.8,81.4,21.9,81.3C21.9,81.4,21.9,81.3,21.9,81.3z"/>
			</g>
		</g>
		<g>
			<g>
				<path class="st10" d="M19.5,84C19.5,84,19.5,84,19.5,84c0,0.1,0,0.2,0,0.2c0,0,0,0.1,0,0.1c0,0.2,0.1,0.5,0.2,0.8
					c0.1,0.3,0.3,0.6,0.6,0.9c0.2,0.3,0.5,0.5,0.8,0.6c0.2,0.1,0.2,0.2,0.2,0.3c0,0.1-0.2,0.1-0.3,0c-0.3-0.2-0.6-0.4-0.8-0.7
					c-0.3-0.3-0.4-0.7-0.6-1c-0.1-0.3-0.2-0.7-0.2-0.9c0-0.1,0-0.1,0-0.2C19.5,84.1,19.5,84.1,19.5,84C19.5,84,19.5,84,19.5,84z"/>
			</g>
		</g>
		<g>
			<g>
				<path class="st10" d="M18.5,86.3c0,0,0.1,0,0.2,0c0.1,0,0.3,0.1,0.4,0.2c0.2,0.1,0.4,0.3,0.5,0.5c0.2,0.2,0.3,0.4,0.5,0.7
					c0.2,0.2,0.4,0.5,0.6,0.6c0.2,0.2,0.5,0.3,0.8,0.4c0.3,0.1,0.6,0.1,0.9,0.1c0.3,0,0.5-0.1,0.8-0.2c0.3-0.1,0.5-0.1,0.5-0.1
					c0,0,0,0.1,0,0.2c-0.1,0.1-0.2,0.2-0.3,0.2c-0.3,0.1-0.6,0.2-0.9,0.2c-0.3,0-0.7,0-1-0.1c-0.3-0.1-0.7-0.3-0.9-0.5
					c-0.1-0.1-0.3-0.2-0.4-0.4c-0.1-0.1-0.2-0.3-0.3-0.4c-0.2-0.3-0.3-0.5-0.5-0.7c-0.1-0.2-0.3-0.4-0.4-0.5
					C18.8,86.4,18.5,86.4,18.5,86.3z"/>
			</g>
		</g>
		<g>
			<g>
				<path class="st10" d="M15.6,91.1c0,0,0,0,0.1-0.1c0,0,0.1,0,0.2-0.1c0.1,0,0.1,0,0.2-0.1c0.3-0.1,0.8-0.1,1.3-0.1
					c0.5,0,1,0.1,1.5,0.1c0.5,0,1,0,1.4,0c0.1,0,0.1,0,0.2,0c0,0,0.1,0,0.1,0c0.1,0,0.1,0.1,0.1,0.1c0,0.1,0,0.1-0.1,0.2
					c0,0-0.1,0.1-0.1,0.1c0,0-0.1,0-0.2,0.1c-0.4,0.1-1,0.1-1.5,0c-0.5-0.1-1.1-0.2-1.5-0.2c-0.5-0.1-0.9-0.1-1.2,0
					c-0.1,0-0.1,0-0.2,0c-0.1,0-0.1,0-0.2,0C15.7,91.1,15.6,91.1,15.6,91.1z"/>
			</g>
		</g>
		<g>
			<g>
				<path class="st10" d="M16.9,89.6c0,0,0.4,0.2,1,0.3c0.3,0,0.6,0,0.9,0c0.3-0.1,0.6-0.2,0.8-0.3c0.1-0.1,0.2-0.1,0.3,0
					c0,0,0,0.1-0.2,0.2c-0.2,0.1-0.5,0.2-0.9,0.3c-0.3,0-0.7,0-1,0c-0.3-0.1-0.6-0.2-0.7-0.3C17.1,89.7,17,89.7,16.9,89.6
					C16.9,89.6,16.9,89.6,16.9,89.6z"/>
			</g>
		</g>
		<g>
			<g>
				<path class="st10" d="M16.1,95.1c0,0,0.3-0.4,0.6-0.9c0.1-0.3,0.3-0.6,0.4-0.9c0.1-0.3,0.2-0.6,0.2-0.8c0-0.3,0.4-0.3,0.3,0
					c0,0.3-0.1,0.6-0.2,0.9c-0.1,0.3-0.3,0.6-0.5,0.9C16.5,94.8,16.1,95.1,16.1,95.1z"/>
			</g>
		</g>
		<g>
			<g>
				<path class="st10" d="M20.7,96.2c0,0,0,0,0-0.1c0,0,0-0.1,0-0.1c0-0.1,0-0.1,0-0.2c0-0.3,0-0.6,0-1c0.1-0.4,0.2-0.9,0.4-1.3
					c0.2-0.4,0.4-0.8,0.7-1c0.2-0.2,0.3-0.2,0.4-0.1c0.1,0.1,0,0.2-0.1,0.3c-0.2,0.2-0.5,0.6-0.7,0.9c-0.2,0.4-0.3,0.8-0.4,1.2
					c-0.1,0.4-0.1,0.7-0.1,1c0,0.1,0,0.1,0,0.2c0,0.1,0,0.1,0,0.1C20.7,96.2,20.7,96.2,20.7,96.2z"/>
			</g>
		</g>
		<g>
			<g>
				<path class="st10" d="M19.3,96.5c0,0-0.2-0.3-0.3-0.8c0-0.2-0.1-0.5,0-0.8c0-0.3,0.1-0.5,0.1-0.7c0.1-0.3,0.4-0.1,0.3,0.1
					c-0.1,0.2-0.1,0.4-0.1,0.6c0,0.2,0,0.5,0,0.7C19.2,96.1,19.3,96.5,19.3,96.5z"/>
			</g>
		</g>
		<g>
			<g>
				<path class="st10" d="M17.8,94.6c0,0,0.2-0.3,0.5-0.6c0.2-0.1,0.4-0.3,0.6-0.4c0.2-0.1,0.5-0.2,0.7-0.2c0.3,0,0.3,0.3,0,0.3
					c-0.2,0-0.4,0.1-0.6,0.1c-0.2,0.1-0.4,0.2-0.6,0.3C18,94.3,17.8,94.6,17.8,94.6z"/>
			</g>
		</g>
	</g>
</g>
<g>
	<path class="st11" d="M19.1,35.3c-0.7-0.1-1.5,0.1-1.4,0.6c0.2,1.4-0.4,2.7-1,3.8c-0.7,1.2-1,5-0.6,6.4c1.2,3.4,8.2-1.7,8.9-3.2
		c0.1-0.2-2.2-2.3-3.3-3.2c-0.9-0.8-2.1-1.8-1.1-3.4C20.9,35.8,19.7,35.4,19.1,35.3z"/>
	<path class="st12" d="M18,35.7c-0.2,0.4,2.3,0.6,2.2,0.3c0-0.2-0.6-0.4-1.2-0.4C18.5,35.5,18,35.6,18,35.7z"/>
	<path class="st13" d="M30.2,32.9c0.3-0.2-0.3-1.8-1-1.6c-0.6,0.2-1.2,0.8-1.6,1.3c-0.9,1-1.6,2.1-2.1,3.3c0,0-0.2,0-0.2,0
		c0-1.1,0.1-3.5,0.1-4.7c0-0.9-2.1-0.9-2.2-0.5c-0.1,0.5,0.4,4.4,0.4,5.5c-0.8-1.8-2.9-4.1-3.7-4.4c-1.3-0.6-1.9,1.9-1.2,2.1
		c1.6,0.4,2.8,1.7,3.1,3.2c-1,0.8-1.8,1.9-2.3,3.1c-0.7,1.7-0.8,3.5-0.7,5.3c0,0.3,0.2,0.5,0.6,0.5c1.6-0.2,3.1-0.6,4.6-1.1
		c0.3-0.1,0.4-0.4,0.3-0.6c0.1-0.1,0.1-0.2,0.1-0.4c-0.3-1.5-0.6-3.3,0.5-4.5c1.1-1.1,3.1-0.4,3.2,1.2c0,0.3,0.3,0.5,0.6,0.5
		c0.5-0.1,1-0.2,1.5-0.2c0.2,0,0.3-0.2,0.3-0.4c0-2-1.4-3.6-3.1-4.2C28,34.8,28.9,33.9,30.2,32.9z"/>
	<path class="st11" d="M35.4,39.2c-0.2-0.5-0.6-1.1-1-0.8c-0.9,0.6-2,0.7-3.1,0.6c-1.1-0.1-2.3-0.2-3.4,0.2c-0.1,0-0.2,0.1-0.2,0.2
		c0,0.1-0.1,0.1-0.1,0.2c0,1.6,0.2,3.3,1.1,4.6c0.7,1.1,2,1.9,3.3,1.8c0.2,0,0.9-2.4,1.1-3.5c0.2-0.9,0.6-2.1,2-2
		C35.7,40.7,35.6,39.7,35.4,39.2z"/>
	<path class="st14" d="M23.4,30.9c0,0.3,1.6,0.3,1.5,0.1C24.8,30.7,23.4,30.7,23.4,30.9z"/>
	<path class="st14" d="M18.6,33.6c0.2,0.2,1-1.4,0.7-1.4c-0.2,0-0.4,0.2-0.6,0.6C18.5,33.1,18.5,33.5,18.6,33.6z"/>
	<path class="st14" d="M29.4,31.5c-0.2,0.1,0.5,1.3,0.6,1.1C30.2,32.4,29.5,31.4,29.4,31.5z"/>
	<path class="st12" d="M34.7,38.6c-0.3,0,0.4,1.8,0.6,1.7c0.1-0.1,0.1-0.6-0.1-1C35.1,38.9,34.8,38.6,34.7,38.6z"/>
	<path class="st15" d="M23.3,39.5c-1.5-1-3.7-0.4-5.2,0.6c-1.5,1-2.4,2.7-2.5,4.5c-0.1,1.5,0.6,4.2,2.6,3.9c0.9-0.1,1.8-0.8,2.5-1.4
		c0.7-0.6,1.4-1.3,2-2.1c0.6-0.9,1.2-1.9,1.5-2.9C24.5,41.3,24.3,40.2,23.3,39.5z"/>
	<path class="st5" d="M34.4,36.8c-0.2-0.7-1.2-1.7-1.8-2c-0.2-0.1-0.4-0.2-0.8,0.3c-2.7,2.8-6.5,3.6-9.8,5c-3.2,1.3-5.8,4.3-5.9,7.8
		c-0.1,1.9,0.7,3.7,1.6,5.2c1.1,1.8,2.4,3.4,3.6,5c1,1.3,2,3.1,3.8,3.2c1.8,0.1,3.3-1.2,4.2-2.6c0.6-0.9,1.1-1.9,1.6-2.8
		c0.6-0.9,1.2-1.9,1.6-2.9c0.5-1.4,0.5-3,0.6-4.1c0.1-1.1-0.1-2.3-0.2-3.3c-0.1-0.7-0.2-1.3-0.6-2c-0.4-0.7-0.9-1.3-1.1-2.1
		c-0.2-0.8,0.1-1.5,0.5-2.1c0.5-0.7,1.1-1.1,1.7-1.6C34,37.5,34.6,37.4,34.4,36.8z"/>
	<g>
		<path class="st16" d="M30.6,48c-0.1-0.2-0.3-0.5-0.6-0.7c-0.5-0.5-1.1-0.8-1.8-1c-0.7-0.2-1.3-0.4-1.8-0.5c-0.1,0-0.1,0-0.2,0
			c0,0,0,0,0,0c-0.3-0.3-0.7-0.6-1-0.9c-0.3-0.3-0.6-0.5-0.8-0.8c-0.1-0.1-0.2-0.3-0.2-0.5c-0.1-0.2-0.1-0.3-0.1-0.5
			c0-0.5,0.1-0.9,0.2-1.1c0.1-0.1,0.1-0.1,0.2-0.2c0.3-0.2,0.5-0.4,0.5-0.5c0-0.1-0.3,0-0.7,0.2c-0.1,0-0.2,0.1-0.3,0.2
			c-0.1,0-0.1,0.1-0.2,0.1c-0.1,0-0.1,0.1-0.2,0.1c-0.1,0.1-0.2,0.2-0.3,0.2c0,0,0,0-0.1-0.1c-0.1-0.1-0.2-0.2-0.4-0.2
			c-0.3-0.1-0.7-0.1-1.1-0.1c-0.4,0-0.8,0.1-1.2,0.3c-0.4,0.1-0.8,0.4-1.1,0.6c-0.3,0.3-0.6,0.5-0.8,0.8c-0.2,0.3-0.4,0.6-0.6,0.9
			c-0.2,0.3-0.3,0.5-0.4,0.7c-0.2,0.4-0.3,0.7-0.3,0.7c0,0,0.2-0.2,0.5-0.6c0.3-0.4,0.6-0.9,1.1-1.5c0.2-0.3,0.5-0.5,0.8-0.7
			c0.3-0.2,0.6-0.4,1-0.5c0.7-0.2,1.4-0.2,2-0.1c0.1,0,0.2,0,0.3,0c0,0,0,0-0.1,0.1c-0.1,0-0.2,0.2-0.3,0.3
			c-0.1,0.1-0.2,0.2-0.3,0.3c-0.1,0.1-0.2,0.2-0.3,0.3c-0.1,0.1-0.2,0.3-0.3,0.4c-0.2,0-0.4,0-0.8,0.1c-0.5,0.1-1.1,0.4-1.6,0.7
			c-0.5,0.4-1,0.8-1.4,1.4c-0.4,0.6-0.6,1.2-0.7,1.9c-0.1,0.7,0,1.3,0.3,1.9c0.1,0.3,0.3,0.5,0.5,0.8c0.2,0.2,0.3,0.4,0.5,0.7
			c0.3,0.4,0.5,0.9,0.5,1.2c0.1,0.4,0.1,0.7,0,0.9c0,0.2,0,0.3,0,0.3c0,0,0.1-0.1,0.1-0.3c0-0.2,0.1-0.5,0-0.9
			c-0.1-0.4-0.2-0.9-0.5-1.3c-0.3-0.5-0.7-0.9-0.9-1.4c-0.2-0.5-0.3-1.2-0.2-1.8c0.1-0.6,0.3-1.2,0.7-1.8c0.1-0.2,0.2-0.3,0.4-0.5
			c0,0,0,0,0,0.1c0.1,0.3,0.2,0.8,0.2,1.3c0,0.5-0.1,1-0.1,1.5c0,0.5,0.1,0.9,0.2,1.2c0.1,0.3,0.3,0.4,0.3,0.4c0,0-0.1-0.2-0.2-0.4
			C19.1,49.4,19,49,19,48.5c0-0.5,0.2-1,0.2-1.5c0.1-0.5,0-1-0.2-1.5c0-0.1-0.1-0.1-0.1-0.2c0.2-0.2,0.4-0.4,0.7-0.5
			c0.5-0.3,1-0.5,1.5-0.7c0.2,0,0.3-0.1,0.4-0.1c-0.3,0.4-0.5,0.8-0.8,1.3c-0.2,0.4-0.4,0.9-0.5,1.5c0,0.1,0,0.1-0.1,0.2
			c0,0.1,0,0.1,0,0.2c0,0.1-0.1,0.3-0.1,0.4c0,0.3-0.1,0.6-0.1,0.9c-0.1,1.2,0.1,2.4,0.4,3.6c0.1,0.2,0.1,0.4,0.2,0.6
			c0,0.1-0.1,0.2-0.1,0.3c-0.1,0.4-0.2,0.8-0.2,1.2c0,0.4,0,0.9,0.1,1.3c0.1,0.2,0.1,0.4,0.2,0.7c0.1,0.2,0.3,0.4,0.4,0.6
			c0.3,0.3,0.7,0.6,0.9,0.9c0.3,0.3,0.4,0.7,0.7,1c0.1,0.2,0.2,0.3,0.3,0.4c0.1,0.1,0.2,0.2,0.4,0.3c0.2,0.1,0.5,0.2,0.6,0.2
			c0,0,0.1,0,0.1,0c0,0,0.1,0,0.1,0c0,0,0.1,0,0.1,0c0,0-0.1,0-0.2,0c-0.1,0-0.4,0-0.6-0.2c-0.1-0.1-0.2-0.2-0.3-0.3
			c-0.1-0.1-0.2-0.2-0.3-0.4c-0.2-0.3-0.4-0.7-0.6-1c-0.3-0.3-0.6-0.6-0.9-1c-0.1-0.2-0.3-0.3-0.4-0.5c-0.1-0.2-0.2-0.4-0.2-0.6
			c-0.1-0.4-0.1-0.9-0.1-1.3c0-0.4,0.1-0.8,0.2-1.1c0,0,0,0,0,0c0.3,0.8,0.7,1.5,1.1,2.2c0.6,1,1.2,1.8,1.7,2.5
			c0.5,0.7,1,1.3,1.3,1.6c0.3,0.4,0.5,0.6,0.5,0.6c0,0-0.2-0.2-0.5-0.7c-0.3-0.4-0.8-1-1.3-1.7c-0.5-0.7-1.1-1.6-1.6-2.5
			C22,55.1,22,55,22,55c0.1,0,0.1,0,0.2,0.1c0.6,0.2,1.3,0.5,1.9,1c0.3,0.2,0.6,0.5,0.8,0.8c0.2,0.3,0.4,0.6,0.7,0.9
			c0.2,0.3,0.5,0.6,0.7,0.8c0.3,0.2,0.5,0.3,0.8,0.4c0.2,0.1,0.4,0,0.6,0c0,0,0.1,0,0.1,0c0,0,0,0,0.1,0c0,0,0,0,0,0c0,0,0,0-0.1,0
			c0,0,0,0-0.1,0c0,0-0.1,0-0.1,0c-0.1,0-0.3,0-0.5-0.1c-0.2-0.1-0.5-0.2-0.7-0.4c-0.2-0.2-0.4-0.5-0.6-0.8c-0.2-0.3-0.4-0.7-0.6-1
			c-0.2-0.3-0.5-0.6-0.8-0.9c-0.6-0.5-1.4-0.9-2-1.1c-0.2-0.1-0.4-0.1-0.5,0c-0.4-0.8-0.8-1.7-1.1-2.7c-0.3-1.1-0.5-2.3-0.4-3.4
			c0-0.3,0.1-0.6,0.1-0.8c0-0.1,0.1-0.3,0.1-0.4c0-0.1,0-0.1,0-0.2c0-0.1,0-0.1,0.1-0.2c0.1-0.3,0.2-0.6,0.3-0.9c0,0,0,0.1,0,0.1
			c0,0.5,0.1,1,0.2,1.5c0.1,0.5,0.3,1.1,0.7,1.6c0.1,0.2,0.3,0.4,0.4,0.5c0,0,0,0.1,0,0.1c0.2,0.4,0.3,0.8,0.4,1.3
			c0.1,0.2,0.1,0.5,0.1,0.7c0,0.3,0,0.5,0.1,0.8c0,0.3,0.1,0.5,0.2,0.7c0.1,0.2,0.2,0.4,0.4,0.5c0.1,0.1,0.3,0.2,0.4,0.3
			c0.1,0,0.3,0,0.3,0l0,0l0,0c-0.1,0-0.1-0.1-0.1-0.1c0,0,0,0,0,0.1c-0.1,0-0.2,0-0.3-0.1c-0.1-0.1-0.3-0.1-0.4-0.3
			c-0.1-0.1-0.2-0.3-0.3-0.5c-0.1-0.2-0.1-0.4-0.1-0.7c0-0.2,0-0.5,0-0.8c0-0.3-0.1-0.5-0.1-0.8c-0.1-0.4-0.2-0.7-0.3-1
			c0.2,0.1,0.4,0.2,0.5,0.3c0.5,0.3,1,0.5,1.4,0.9c0.4,0.4,0.6,0.8,0.8,1.2c0.2,0.4,0.3,0.8,0.3,1.2C26,54.5,26,55,26,55
			c0,0,0-0.1,0-0.3c0-0.2,0-0.5-0.1-0.8c0-0.4-0.1-0.8-0.3-1.2c-0.1-0.5-0.4-1-0.8-1.4c0-0.1-0.1-0.1-0.2-0.2
			c-0.1-0.1-0.1-0.1-0.2-0.1c-0.1-0.1-0.2-0.2-0.4-0.2c-0.3-0.2-0.5-0.3-0.8-0.4c-0.2-0.1-0.5-0.3-0.7-0.5c-0.2-0.2-0.4-0.4-0.5-0.6
			c-0.3-0.5-0.5-1-0.6-1.5c-0.1-0.5-0.2-1-0.2-1.5c0-0.4-0.1-0.7-0.2-0.8c0.4-0.7,0.8-1.3,1.2-1.7c0.1-0.1,0.2-0.2,0.3-0.3
			c0.1-0.1,0.2-0.2,0.2-0.2c0.1-0.1,0.2-0.2,0.3-0.3c0.1-0.1,0.2-0.2,0.3-0.3c0,0,0,0,0,0c0,0.2-0.1,0.4-0.1,0.6
			c0,0.2,0.1,0.4,0.1,0.6c0.1,0.2,0.2,0.4,0.3,0.5c0.1,0.1,0.2,0.2,0.3,0.3c0,0,0,0.1,0,0.1c0.1,0.2,0.1,0.5,0,0.7
			c-0.1,0.3-0.2,0.5-0.3,0.8c-0.1,0.1-0.1,0.3-0.2,0.4c0,0.1,0,0.2-0.1,0.2c0,0.1,0,0.2,0,0.2c0,0.3,0,0.6,0,0.9
			c0.1,0.3,0.1,0.6,0.3,0.8c0.1,0.2,0.2,0.4,0.4,0.6c0.1,0.1,0.2,0.3,0.3,0.3c0.1,0.1,0.1,0.1,0.1,0.1c0,0-0.2-0.2-0.4-0.5
			c-0.1-0.2-0.2-0.3-0.3-0.6c-0.1-0.2-0.2-0.5-0.2-0.8c0-0.3,0-0.6,0-0.9c0-0.3,0.2-0.6,0.3-0.9c0.1-0.3,0.3-0.6,0.3-0.9
			c0.1-0.2,0.1-0.4,0.1-0.6c0.1,0.1,0.2,0.2,0.3,0.2c0.3,0.3,0.6,0.5,0.9,0.8c0.1,0.1,0.3,0.3,0.4,0.5c0.1,0.1,0.1,0.2,0.2,0.3
			l0.1,0.1c0,0,0,0,0,0.1l0,0.1c0.2,0.4,0.2,0.8,0.3,1.2c0,0.4,0,0.9,0,1.3c0,0.4,0,0.9,0,1.3c0,0.4,0.1,0.9,0.2,1.3
			c0.1,0.4,0.3,0.8,0.5,1.1c0.2,0.3,0.3,0.7,0.4,1c0.2,0.7,0.2,1.3,0.2,1.8c0,0.5-0.1,0.9-0.2,1.2c0,0.1,0,0.1-0.1,0.2
			c0,0.1,0,0.1,0,0.1c0,0.1,0,0.1,0,0.1c0,0,0,0,0.1-0.1c0,0,0-0.1,0.1-0.1c0-0.1,0-0.1,0.1-0.2c0.1-0.3,0.2-0.7,0.3-1.2
			c0.1-0.5,0-1.2-0.1-1.9c-0.1-0.4-0.2-0.7-0.4-1.1c-0.2-0.4-0.3-0.7-0.5-1.1c-0.1-0.4-0.2-0.8-0.2-1.2c0-0.3,0-0.6,0-0.9
			c0.1,0.2,0.3,0.4,0.5,0.6c0.3,0.3,0.6,0.5,0.8,0.7c0.3,0.2,0.6,0.5,0.8,0.7c0.1,0.1,0.2,0.3,0.3,0.4c0.1,0.1,0.2,0.3,0.3,0.5
			c0.3,0.6,0.4,1.3,0.4,1.7c0,0.5-0.1,0.7,0,0.7c0,0,0-0.1,0.1-0.2c0-0.1,0-0.1,0.1-0.2c0-0.1,0-0.2,0-0.3c0-0.5,0-1.1-0.3-1.8
			c-0.1-0.2-0.2-0.3-0.3-0.5c-0.1-0.2-0.2-0.3-0.3-0.5c-0.3-0.3-0.6-0.6-0.8-0.8c-0.3-0.2-0.6-0.5-0.8-0.7c-0.2-0.3-0.4-0.5-0.5-0.8
			c0-0.1-0.1-0.2-0.1-0.3c0-0.3,0-0.7,0-1c0-0.5-0.1-0.9-0.3-1.4l0-0.1c0,0,0-0.1,0-0.1l-0.1-0.2c-0.1-0.1-0.1-0.2-0.2-0.3
			c0,0,0,0,0,0c0.5,0.1,1,0.3,1.5,0.4c0.6,0.2,1.3,0.5,1.7,0.9c0.2,0.2,0.4,0.4,0.6,0.6c0.1,0.2,0.2,0.4,0.3,0.6
			c0.1,0.4,0.1,0.6,0.1,0.6c0,0,0-0.1,0-0.2c0-0.1,0-0.3,0-0.5C30.8,48.5,30.7,48.3,30.6,48z"/>
	</g>
	<path class="st12" d="M32.5,35.1c-0.4,0.2,1.3,2.2,1.5,1.8C34.2,36.5,32.7,35,32.5,35.1z"/>
</g>
<g>
	<path class="st11" d="M74.7,34.3c-0.3,0-0.5,0.1-0.5,0.3c0,0.8,0.1,2.5,0.4,2.9c0.3,0.4,2.1,0,1.5-0.3c-0.5-0.3-0.9-1.7-0.9-2.6
		C75.3,34.4,74.9,34.3,74.7,34.3z"/>
	<path class="st12" d="M74.3,34.5c-0.1,0.1,0.9,0.1,0.8,0c0-0.1-0.3-0.1-0.5-0.1C74.5,34.4,74.3,34.4,74.3,34.5z"/>
	<path class="st13" d="M70.6,34.6c0,0.9-0.4,2.4-0.9,2.7c-0.6,0.4,1.3,0.8,1.6,0.4c0.3-0.4,0.5-2.3,0.4-3.1c0-0.2-0.3-0.3-0.6-0.3
		C71,34.3,70.6,34.4,70.6,34.6z"/>
	<path class="st14" d="M71.7,34.5c0.1,0.2-0.9,0.2-0.9,0c0-0.1,0.3-0.1,0.5-0.1C71.5,34.4,71.6,34.5,71.7,34.5z"/>
	<path class="st15" d="M74.2,37.3c-0.7-0.2-1.7-0.3-2.6-0.6c-0.1,0-0.6,0.3-0.6,0.5c0,2.1,0,4.2,0,6.3c0,1.1,0,2.2,0,3.2
		c0,1,0,2,0,2.9c0.1,0.8,0.5,1.4,0.7,1.6c0.2,0.2,1.7-0.2,1.8-0.5s0.4-5.1,0.5-6.1C74.2,42.3,74.5,37.4,74.2,37.3z"/>
	<path class="st5" d="M72.2,37.2c-1-1.6-6.3-1.4-8.5-1.1c-2.2,0.3-4.4,1-6.1,2.5c-3.4,2.9-4.4,7.7-4.2,12c0.1,1.2,0.2,2.5,0.4,3.7
		c0.2,1,0.4,1.9,1.1,2.7c0.7,0.9,1.9,1.2,3,1c1.1-0.1,2.1-0.8,3-1.4c0.9-0.7,1.7-1.3,2.7-1.8c1-0.5,2-0.8,3-1c2-0.4,4.2-0.6,5.2-2.6
		c0.5-0.9,0.6-2,0.7-3c0.1-1.2,0.1-2.4,0.1-3.7c0-1.3,0-2.5,0.1-3.8c0-0.6,0-1.3,0-1.9C72.6,38.3,72.5,37.7,72.2,37.2z"/>
	<path class="st17" d="M73.1,49.9c0-0.4-0.6-0.3-0.5,0.1c0,0.9-0.1,1.8-0.4,2.6c0-0.2-0.1-0.4-0.3-0.6c-0.4-0.5-1.2-0.4-1.7-0.1
		c-0.3,0.2-0.6,0.5-0.9,0.7c-0.3,0.3-0.6,0.4-1,0.6c-0.1,0-0.3,0.1-0.4,0.1c-0.3-0.3-2-1.2-3.1-1.4c-0.9-0.2-2.2-0.2-2.8,0.5
		c-0.5,0.6-0.6,1.5-0.1,2.2c0.6,0.7,1.5,0.7,2.3,0.3c0.5-0.3,1-0.7,1.6-0.9c0.6-0.2,1.4,0.2,2.1-0.4c0.5-0.1,1-0.3,1.4-0.6
		c0.5-0.4,0.9-1,1.6-1.1c0.4-0.1,0.7,0.2,0.8,0.6c0.1,0.4-0.1,0.8-0.2,1.1c0,0,0,0,0,0c-0.3,0.5-0.6,0.9-1,1.3
		c-0.2,0.2,0.1,0.7,0.3,0.4C72.4,54.1,73.2,52,73.1,49.9z"/>
	<path class="st15" d="M72,51.3c0.5,0,1.5-0.1,1.8-0.6c0.1-0.1-0.1-0.9,0-1.9C73.4,48.8,72.3,48.9,72,51.3z"/>
	<path class="st5" d="M85.6,40.8c-0.2-1-1.2-1.5-2.1-1.8c-2-0.8-4-1.6-6.1-1.9c-1-0.2-3.2,0-3.6,0.4c-0.4,0.4-0.4,0.8-0.6,2.2
		c-0.2,1.7,0,3.6,0.1,5.4c0,1.6-0.3,2.6-0.1,4.2c0.1,1,0.6,1.6,1.1,1.4c1.9-0.7,3.6-1.9,5.3-3.1c1.7-1.2,3.4-2.4,4.8-4
		C85,42.9,85.8,41.9,85.6,40.8z"/>
</g>
<g>
	<path class="st18" d="M72.4,97.4c1.2,1.1,2.7,4.6,2.9,4.8c0.2,0.2,1.5-0.1,1.6-0.4c0.1-0.4-1.5-8.3-1.9-8.6c-1.1-0.6-5,0.5-6.7,2
		c0.7,0.3,1.5,0.5,2.2,0.8C71.2,96.4,71.8,96.9,72.4,97.4z"/>
	<path class="st15" d="M72.7,94.1c-0.1,0.5,0.1,1,0.4,1.4c0.4,0.4,0.9,0.5,1.4,0.4c1.5,1.7,3.7,2.7,6,2.6c0.7,0,1.4-0.2,1.9-0.6
		c0.9-0.7,1.3-2,1-3.1c-0.3-1.1-1.2-2-2.2-2.5c-1-0.5-2.2-0.7-3.3-0.8c-1,0-2.1,0-3.1,0.2c-0.6,0.1-1.1,0.3-1.6,0.6
		C72.8,92.7,72.8,93.5,72.7,94.1z"/>
	<g>
		<path class="st19" d="M73.5,94l-0.3,0c0.1,0.7,0.4,1.4,0.8,1.9c0.1,0,0.3,0,0.4,0C74,95.4,73.6,94.7,73.5,94z"/>
		<path class="st19" d="M78.6,97c-1.4-0.5-2.6-1.1-3.5-2c1.3,0.9,2.8,1.3,4,1.6c1.4,0.3,2.9,0.3,4.3,0.4c0-0.1,0.1-0.2,0.1-0.3
			c-1.5,0-2.9-0.1-4.3-0.3c-1.5-0.3-3.7-1-5.2-2.7l-0.5-0.6l0.3,0.7c0.9,2.3,3.1,3.6,4.8,4.2c0.6,0.2,1.1,0.4,1.7,0.5
			c0.1,0,0.3,0,0.4,0c0.2,0,0.4,0,0.7-0.1c-0.9-0.1-1.8-0.4-2.7-0.7c-1.2-0.5-2.8-1.3-3.8-2.6c1.9,1.8,4.8,2.7,7.6,2.9
			c0.1,0,0.2-0.1,0.2-0.1c0.1,0,0.1-0.1,0.2-0.1C81.2,97.7,79.8,97.4,78.6,97z"/>
		<path class="st19" d="M74.5,93.7l-0.2,0.3c2.5,1.7,5.5,2.6,8.6,2.6c0.2,0,0.4,0,0.6,0c0-0.1,0.1-0.2,0.1-0.3
			C80.3,96.3,77.1,95.5,74.5,93.7z"/>
		<path class="st19" d="M83.4,94.6c0-0.1-0.1-0.2-0.1-0.3c-2.3,0.1-4.5-0.2-6.6-1l-0.1,0.3c1.9,0.7,3.8,1,5.8,1
			C82.7,94.7,83,94.6,83.4,94.6z"/>
		<path class="st19" d="M83.5,95.7c0-0.1,0-0.2,0-0.3c-2.6,0.1-5.3-0.4-7.7-1.5l-0.1,0.3c2.2,1,4.7,1.5,7.1,1.5
			C83.1,95.7,83.3,95.7,83.5,95.7z"/>
	</g>
	<path class="st20" d="M54.1,85.8c-0.8,0.6-1.3,1.5-1.3,2.5c0,1,0.5,2,1.3,2.6c-0.1,0.8,0.3,1.6,1.1,2c0.7,0.4,1.7,0.3,2.3-0.1
		c1.7,1.1,4.1,1.4,6,0.6c0.1,0.6,0.5,1.2,0.9,1.5c0.5,0.4,1.1,0.6,1.7,0.5c0.4,1,1.5,1.4,2.6,1.4c1.8,0,3.5-1.1,4.3-2.6
		c1,0.4,2,0.8,3,0.7c1.1-0.1,2.1-0.8,2.5-1.8c0.3,0.6,0.9,1.1,1.6,1.3c0.7,0.2,1.4,0,2-0.4c0.8,0.7,2,0.7,2.8,0c0.8-0.7,1-2,0.4-2.8
		c0.7-0.5,1.1-1.5,1.1-2.4c0-0.9-0.5-1.8-1.2-2.3c0.1-0.6-0.1-1.4-0.7-1.8c0.3-1,0.2-2.2-0.2-3.2c-0.5-1-1.3-1.8-2.3-2.2
		c-0.1-0.9-0.6-1.8-1.4-2.3c-0.8-0.5-1.8-0.5-2.6-0.1c0-0.7-0.7-1.4-1.4-1.7c-1.3-0.6-3-0.3-4,0.7c-0.4-0.5-1.1-0.9-1.8-0.8
		c-0.7,0.1-1.3,0.5-1.6,1c-0.5-0.5-1.3-0.7-1.9-0.6c-0.6,0.1-1.2,0.6-1.4,1.2c-1.1-0.4-2.4-0.4-3.4,0.3c-1,0.6-1.7,1.7-1.9,2.9
		c-0.7-0.2-1.5,0-2.2,0.3s-1.3,0.9-1.5,1.7c-0.9,0-1.7,0.4-2.3,1.1C54,83.7,53.8,85,54.1,85.8z"/>
	<g>
		<path class="st18" d="M79.1,80.5c-0.4-0.3-0.9-0.5-1.4-0.4c-0.4,0-0.8,0.2-1.1,0.6c-0.1,0.1-0.2,0.3-0.3,0.5
			c-0.1,0.2-0.2,0.4-0.4,0.5c-0.1,0.1-0.3,0-0.4-0.1c-0.1-0.1-0.1-0.3,0-0.4c0.1-0.1,0.1-0.3,0-0.4c-0.1-0.1-0.3-0.1-0.4,0
			c-0.3,0.3-0.3,0.9,0,1.2c0.3,0.3,0.8,0.5,1.2,0.2c0.3-0.2,0.5-0.5,0.6-0.8c0.1-0.1,0.1-0.3,0.2-0.4c0.1-0.2,0.4-0.3,0.6-0.3
			c0.3,0,0.7,0.1,0.9,0.3c0.5,0.5,0.6,1.2,0.5,1.8c-0.1,0.5-0.3,1-0.5,1.4c-0.2-0.3-0.5-0.6-0.8-0.7c-0.2-0.1-0.3,0-0.4,0.2
			c-0.1,0.2,0,0.3,0.2,0.4c0.3,0.1,0.5,0.4,0.6,0.6c0.1,0.3,0.1,0.6,0,0.9c-0.1,0.1-0.1,0.3-0.2,0.4c-0.1,0.1-0.2,0.3-0.3,0.4
			c-0.2,0.4-0.2,0.9,0.1,1.3c0.1,0.1,0.1,0.1,0.2,0.1c0.1,0,0.2,0,0.2-0.1c0.1-0.1,0.1-0.3,0-0.4c-0.1-0.1-0.1-0.4,0-0.6
			c0.1-0.1,0.1-0.2,0.2-0.4c0.1-0.2,0.2-0.3,0.3-0.5C79,85.6,79,85.3,79,85c0.3-0.7,0.7-1.4,0.8-2.2C79.9,81.9,79.7,81,79.1,80.5z"
			/>
		<path class="st18" d="M71.3,93.7c-0.1-0.1-0.3-0.1-0.4,0.1c-0.5,0.7-1.3,1.2-2.1,1.5c-0.3,0.1-0.6,0.1-0.9,0.1
			c-0.3,0-0.5-0.2-0.6-0.4c-0.1-0.2-0.1-0.5,0-0.8c0.1-0.3,0.3-0.6,0.5-0.8c0,0,0-0.1,0-0.1c0,0,0.1,0,0.1,0c0.8-0.3,1.5-1,1.6-1.8
			c0.1,0,0.1,0,0.2,0c0.7-0.2,1.2-0.6,1.5-1.2c0.5,0.4,1,0.7,1.6,1c0,0,0.1,0,0.1,0c0.1,0,0.2-0.1,0.3-0.2c0.1-0.2,0-0.3-0.2-0.4
			c-1.3-0.5-2.4-1.6-3-2.9c-0.1-0.2-0.3-0.2-0.4-0.1c-0.2,0.1-0.2,0.3-0.1,0.4c0.3,0.7,0.8,1.3,1.3,1.8c-0.2,0.5-0.6,0.9-1.2,1
			c-0.7,0.2-1.4,0-1.9-0.2c-0.6-0.3-1.2-0.7-1.7-1.1c-0.1-0.1-0.3-0.1-0.4,0.1c-0.1,0.1-0.1,0.3,0.1,0.4c0.6,0.4,1.2,0.8,1.9,1.1
			c0.4,0.2,0.9,0.3,1.5,0.3c-0.1,0.5-0.6,1-1.2,1.2c-0.6,0.2-1.4,0.1-1.9-0.4c-0.5-0.4-0.9-1-1-1.8c-0.1-0.5,0-1,0.2-1.4
			c0.2-0.4,0.6-0.7,1-0.8c0.4-0.1,0.9,0.1,1.1,0.5c0.1,0.1,0.3,0.2,0.4,0.1c0.1-0.1,0.2-0.3,0.1-0.4c-0.2-0.3-0.5-0.5-0.8-0.7
			c0,0,0-0.1,0-0.1c-0.1-0.5,0-1,0.4-1.4c0.4-0.4,0.9-0.5,1.4-0.3c0.1,0,0.3,0,0.3-0.1c0.3-0.4,0.6-0.8,0.9-1
			c0.3-0.2,0.8-0.3,1.1-0.1c0.3,0.2,0.4,0.7,0.4,1c-0.1,0.4-0.3,0.9-0.5,1.3c-0.1,0.1,0,0.3,0.1,0.4c0.1,0.1,0.3,0,0.4-0.1
			c0.2-0.4,0.5-0.9,0.6-1.5c0-0.2,0-0.4,0-0.6c0-0.7-0.4-1.4-0.7-2c-0.2-0.5-0.5-0.9-0.6-1.3c-0.2-0.8,0-1.7,0.6-2.3
			c0.5-0.6,1.4-0.9,2.2-0.8c0.2,0,0.3-0.1,0.3-0.3c0-0.2-0.1-0.3-0.3-0.3c-1-0.1-2.1,0.3-2.7,1s-1,1.8-0.7,2.8
			c0.1,0.5,0.4,1,0.6,1.4c0.1,0.2,0.2,0.4,0.3,0.6c-0.4-0.2-1-0.1-1.5,0.2c-0.4,0.3-0.7,0.6-1,1c-0.2,0-0.4,0-0.6,0
			c-0.6,0.1-1.4-0.2-1.9-0.6c-0.5-0.4-0.8-1.1-0.9-1.8c0-0.2-0.2-0.3-0.3-0.3c-0.2,0-0.3,0.2-0.3,0.3c0,0.8,0.5,1.7,1.1,2.2
			c0.3,0.3,0.8,0.5,1.2,0.6c0,0,0,0-0.1,0.1c-0.5,0.5-0.7,1.2-0.6,1.8c-0.1,0-0.2,0-0.3,0c0,0-0.1,0-0.1,0c-0.5-1.4-1.5-2.7-2.8-3.5
			c0.2-0.3,0.3-0.7,0.2-1.1c0-0.2-0.2-0.3-0.3-0.3c-0.2,0-0.3,0.2-0.3,0.3c0,0.3-0.1,0.7-0.3,0.9c0,0-0.1,0.1-0.1,0.1c0,0,0,0,0,0
			c-0.3,0.3-0.6,0.4-1,0.4c-0.2,0-0.3,0.1-0.3,0.3c0,0.2,0.1,0.3,0.3,0.3c0.1,0,0.1,0,0.2,0c0.4,0,0.9-0.2,1.2-0.4
			c1.2,0.7,2.2,1.9,2.6,3.2c-0.3,0.2-0.6,0.5-0.8,0.9c-0.2,0.4-0.3,1-0.3,1.5c-0.5,0.3-0.8,0.7-1,1.2c-0.2,0.7,0.1,1.5,0.6,1.8
			c0,0,0.1,0,0.2,0c0.1,0,0.2-0.1,0.3-0.1c0.1-0.1,0-0.3-0.1-0.4c-0.4-0.2-0.5-0.7-0.3-1.1c0.1-0.3,0.3-0.5,0.5-0.7
			c0.2,0.7,0.6,1.4,1.2,1.8c0.5,0.4,1,0.6,1.6,0.6c-0.1,0.2-0.2,0.4-0.3,0.6c-0.2,0.5-0.1,0.9,0.1,1.3c0.2,0.3,0.6,0.6,1,0.7
			c0.1,0,0.2,0,0.3,0c0.2,0,0.5,0,0.8-0.1c1-0.3,1.9-0.9,2.5-1.7C71.5,94,71.5,93.8,71.3,93.7z"/>
		<path class="st18" d="M76.1,91.1c0.1-0.1,0.1-0.3,0-0.4c-0.1-0.1-0.3-0.1-0.4,0c-0.2,0.2-0.6,0.3-0.8,0.1
			c-0.2-0.2-0.3-0.5-0.2-0.8c0.1-0.1,0-0.3-0.1-0.4c-0.1-0.1-0.3,0-0.4,0.1c-0.2,0.5-0.1,1.1,0.3,1.5c-0.1,0.4-0.2,0.7-0.4,1
			c-0.2,0.3-0.5,0.5-0.8,0.6c-0.3,0-0.6-0.1-0.7-0.4c0-0.2-0.2-0.3-0.4-0.2c-0.2,0-0.3,0.2-0.2,0.4c0.1,0.5,0.6,0.8,1.2,0.8
			c0.1,0,0.1,0,0.2,0c0.5-0.1,0.9-0.4,1.2-0.8c0.2-0.3,0.4-0.7,0.5-1.1c0.1,0,0.2,0,0.3,0C75.5,91.4,75.9,91.3,76.1,91.1z"/>
		<path class="st18" d="M73.3,85.7c-0.2,0.8,0.1,1.5,0.5,1.8c0.2,0.1,0.5,0.2,0.7,0.2c0.3,0,0.7-0.1,0.9-0.3
			c0.4-0.3,0.7-0.7,0.9-1.2c0.4-1,0.6-2.1,0.5-3.2c0-0.2-0.2-0.3-0.3-0.3c-0.2,0-0.3,0.2-0.3,0.3c0.1,1-0.1,2-0.5,2.9
			c-0.2,0.5-0.4,0.8-0.7,1c-0.3,0.2-0.7,0.3-1,0.1c-0.3-0.2-0.4-0.7-0.3-1.1c0.1-0.5,0.5-0.9,0.8-1.2c0.1-0.1,0.1-0.3,0-0.4
			c-0.1-0.1-0.3-0.1-0.4,0C73.9,84.6,73.5,85.1,73.3,85.7z"/>
		<path class="st18" d="M73.3,80.6c-0.2,0-0.5,0-0.6-0.2c-0.1-0.1-0.3-0.1-0.4,0c-0.1,0.1-0.1,0.3,0,0.4c0.2,0.3,0.6,0.4,0.9,0.4
			c0.2,0.9,0.2,1.7,0.3,2.5c0,0.2,0.1,0.3,0.3,0.3c0,0,0,0,0,0c0.2,0,0.3-0.1,0.3-0.3c0-0.8-0.1-1.7-0.3-2.6
			c0.3-0.2,0.6-0.4,0.7-0.8c0-0.2,0-0.3-0.2-0.4c-0.2,0-0.3,0-0.4,0.2C73.7,80.4,73.5,80.6,73.3,80.6z"/>
		<path class="st18" d="M66.9,83.1c0,0.2,0.1,0.3,0.3,0.3c0,0,0,0,0,0c0.2,0,0.3-0.1,0.3-0.3c0-0.2,0.2-0.4,0.4-0.5
			c0.2-0.1,0.5,0,0.6,0.1c0.1,0.1,0.3,0.1,0.4,0c0.1-0.1,0.1-0.3,0-0.4c-0.3-0.3-0.7-0.4-1-0.3c-0.3-0.4-0.5-0.9-0.3-1.4
			c0.2-0.5,0.6-0.9,1.2-1c0.2,0,0.3-0.2,0.3-0.3c0-0.2-0.2-0.3-0.3-0.3c-0.1,0-0.3,0.1-0.4,0.1c0-0.2,0-0.4,0-0.6c0.1,0,0.2,0,0.3,0
			c1.4,0,2.8-0.7,3.5-2c0.1-0.1,0-0.3-0.1-0.4c-0.1-0.1-0.3,0-0.4,0.1c-0.7,1.1-2,1.8-3.3,1.6c0-0.2-0.1-0.5-0.1-0.8
			c0-0.2-0.2-0.3-0.4-0.2c-0.2,0-0.3,0.2-0.2,0.4c0.2,1,0.2,1.8-0.1,2.4c-0.2,0.2-0.4,0.5-0.5,0.8c-0.2,0.6,0,1.3,0.3,1.8
			C67.1,82.4,66.9,82.7,66.9,83.1z"/>
		<path class="st18" d="M75,77.7c-0.5,0.5-0.5,1.3-0.1,1.8c0.1,0.1,0.1,0.1,0.2,0.1c0.1,0,0.1,0,0.2-0.1c0.1-0.1,0.1-0.3,0-0.4
			c-0.2-0.3-0.1-0.8,0.1-1c0.4-0.4,0.9-0.4,1.2-0.4c0.3,0,0.8,0,1.2,0.3c0.3,0.2,0.5,0.6,0.4,0.9c0,0.2,0.1,0.3,0.2,0.4
			c0.2,0,0.3-0.1,0.4-0.2c0.1-0.6-0.1-1.2-0.6-1.5c-0.4-0.3-0.9-0.4-1.5-0.4c-0.3,0-0.6,0-0.9,0.2c0-0.5-0.1-0.9-0.4-1.3
			c-0.1-0.1-0.3-0.2-0.4-0.1c-0.1,0.1-0.2,0.3-0.1,0.4C75.1,76.6,75.2,77.2,75,77.7C75,77.6,75,77.7,75,77.7z"/>
		<path class="st18" d="M62,80.5c0.5-0.5,1.2-0.6,1.8-0.4c0.6,0.2,1.1,0.8,1.2,1.5c0,0.2,0.1,0.3,0.3,0.3c0,0,0,0,0,0
			c0.2,0,0.3-0.2,0.3-0.3c0-0.4-0.2-0.8-0.5-1.2c0-0.3,0.1-0.6,0.3-1c0.2-0.3,0.6-0.6,0.9-0.7c0.2,0,0.3-0.2,0.2-0.4
			c0-0.2-0.2-0.3-0.4-0.2c-0.5,0.1-1,0.5-1.3,0.9c-0.2,0.3-0.3,0.5-0.3,0.8c-0.2-0.1-0.3-0.2-0.5-0.3c-0.8-0.3-1.8-0.1-2.4,0.6
			c-0.1,0.1-0.1,0.3,0,0.4C61.7,80.6,61.9,80.6,62,80.5z"/>
		<path class="st18" d="M63.4,87.8c0.2,0,0.3-0.2,0.3-0.3c0-0.2-0.2-0.3-0.3-0.3c-0.4,0-0.7,0.2-0.9,0.4c0,0,0,0,0,0
			c-0.6-0.2-1.2-0.5-1.7-0.9c-0.5-0.4-0.8-1-0.8-1.5c0-0.4,0.2-0.8,0.5-1c0.1-0.1,0.1-0.3,0-0.4c-0.1-0.1-0.3-0.1-0.4,0
			c-0.4,0.4-0.7,0.9-0.7,1.5c0,0.7,0.4,1.4,1,2c0.5,0.4,1.2,0.7,1.8,1c-0.1,0.4-0.1,0.8,0.1,1.2c0.1,0.1,0.2,0.1,0.3,0.1
			c0.1,0,0.1,0,0.2,0c0.1-0.1,0.2-0.3,0.1-0.4c-0.1-0.2-0.2-0.5,0-0.8C62.8,88,63.1,87.8,63.4,87.8z"/>
		<path class="st18" d="M57.1,87.1c0.3,0.6,0.8,1.2,1.5,1.7c0.6,0.4,1.2,0.8,1.9,1.1c0,0,0.1,0,0.1,0c0.1,0,0.2-0.1,0.3-0.2
			c0.1-0.1,0-0.3-0.1-0.4c-0.7-0.3-1.2-0.7-1.8-1.1c-0.6-0.5-1-1-1.3-1.5c-0.3-0.6-0.4-1.3-0.2-1.8c0,0,0,0,0,0
			c0.6-0.5,1.1-1.1,1.4-1.9c0,0,0,0,0,0c0,0,0.1,0,0.1,0c0.2,0,0.5,0,0.7-0.1c0.8-0.2,1.6-0.7,2.1-1.3c0.1-0.1,0.1-0.3-0.1-0.4
			c-0.1-0.1-0.3-0.1-0.4,0.1c-0.4,0.6-1.1,1-1.7,1.1c-0.7,0.1-1.4,0-2-0.3c-0.1-0.1-0.3,0-0.4,0.1c-0.1,0.1,0,0.3,0.1,0.4
			c0.3,0.2,0.7,0.3,1,0.4c-0.3,0.7-0.8,1.3-1.4,1.7c-0.7,0.4-1.5,0.6-2.2,0.6c-0.2,0-0.3,0.1-0.3,0.3c0,0.2,0.1,0.3,0.3,0.3
			c0.1,0,0.2,0,0.3,0c0.1,0,0.2,0,0.2,0c-0.1,1.1-0.6,2.1-1.3,2.9c-0.1,0.1-0.1,0.3,0,0.4c0.1,0.1,0.1,0.1,0.2,0.1
			c0.1,0,0.2,0,0.2-0.1c0.1-0.2,0.3-0.3,0.4-0.5c0.4,0.3,0.7,0.6,0.9,1c0.1,0.2,0.2,0.5,0.2,0.8c-0.1,0.2-0.3,0.4-0.5,0.3
			c-0.2,0-0.3,0.1-0.4,0.2s0.1,0.3,0.2,0.4c0.1,0,0.1,0,0.2,0c0.4,0,0.9-0.3,1-0.8c0.1-0.4,0-0.8-0.2-1.3c-0.3-0.5-0.7-0.9-1.1-1.3
			c0.4-0.7,0.7-1.5,0.8-2.4c0.4-0.1,0.7-0.2,1.1-0.4C56.7,86,56.8,86.6,57.1,87.1z"/>
		<path class="st18" d="M61.5,90.9c-0.2,0-0.6,0.1-0.8,0.3c-0.1,0.1-0.1,0.2-0.2,0.2c0,0-0.1,0-0.1,0c-0.6,0.1-1.3,0-1.9-0.3
			c-0.6-0.3-1-0.8-1.2-1.5c-0.1-0.2-0.2-0.2-0.4-0.2c-0.2,0.1-0.2,0.2-0.2,0.4c0.2,0.7,0.8,1.4,1.5,1.8c0.5,0.3,1,0.4,1.6,0.4
			c0.2,0,0.4,0,0.5,0c0,0.3,0.2,0.5,0.4,0.7c0.1,0,0.1,0.1,0.2,0.1c0.1,0,0.2,0,0.2-0.1c0.1-0.1,0.1-0.3-0.1-0.4
			c-0.1-0.1-0.2-0.2-0.2-0.3c0-0.1,0-0.3,0.1-0.3c0.1-0.1,0.3-0.2,0.5-0.2c0.2,0,0.3-0.2,0.3-0.3C61.8,91,61.6,90.8,61.5,90.9z"/>
		<path class="st18" d="M80.4,91.1c0-0.1,0-0.3,0-0.4c0-0.2-0.2-0.3-0.3-0.3c-0.2,0-0.3,0.2-0.3,0.3c0,0.3,0,0.6-0.2,0.8
			c-0.2,0.2-0.5,0.4-0.8,0.4c-0.2,0-0.3,0.2-0.3,0.3c0,0.2,0.1,0.3,0.3,0.3c0,0,0,0,0,0c0.5,0,0.9-0.3,1.2-0.6
			c0.1-0.1,0.2-0.2,0.2-0.3c0.3,0.1,0.5,0.3,0.6,0.5c0.2,0.3,0.2,0.7,0.1,1c-0.1,0.2,0,0.3,0.2,0.4c0,0,0.1,0,0.1,0
			c0.1,0,0.2-0.1,0.3-0.2c0.2-0.5,0.2-1.1-0.1-1.6C81.2,91.5,80.8,91.3,80.4,91.1z"/>
		<path class="st18" d="M82.4,85c-0.1-0.1-0.3-0.1-0.4,0.1c-0.1,0.1-0.1,0.3,0.1,0.4c0.9,0.6,1.4,1.6,1.5,2.6
			c-0.3,0.1-0.6,0.3-0.8,0.5c-0.1,0.1-0.1,0.3,0,0.4c0.1,0,0.1,0.1,0.2,0.1c0.1,0,0.2,0,0.2-0.1c0.2-0.2,0.4-0.3,0.7-0.4
			c0.3,0,0.6,0.1,0.8,0.3c0.1,0.1,0.3,0.1,0.4,0c0.1-0.1,0.1-0.3,0-0.4c-0.3-0.2-0.6-0.4-0.9-0.4C84.1,86.9,83.4,85.7,82.4,85z"/>
		<path class="st18" d="M85,90.1c-0.1-0.1-0.3,0-0.4,0.1c-0.2,0.3-0.6,0.5-0.9,0.5c-0.3,0-0.7-0.5-0.8-0.8c0-0.2-0.2-0.3-0.4-0.2
			c-0.2,0-0.3,0.2-0.2,0.4c0.1,0.5,0.7,1.1,1.2,1.3c0,0.3-0.1,0.6-0.3,0.8c-0.2,0.2-0.5,0.4-0.8,0.4c-0.2,0-0.3,0.2-0.3,0.3
			c0,0.2,0.1,0.3,0.3,0.3c0,0,0,0,0,0c0.5,0,0.9-0.3,1.2-0.6c0.3-0.3,0.4-0.7,0.4-1.2c0.4-0.1,0.8-0.4,1-0.7
			C85.2,90.4,85.2,90.2,85,90.1z"/>
		<path class="st18" d="M82.3,82.8C82.3,82.8,82.4,82.8,82.3,82.8c-0.3,0.1-0.6,0.2-0.8,0.3c-0.6,0.4-0.9,1-0.9,1.7
			c0,0.2,0.1,0.3,0.3,0.3c0,0,0,0,0,0c0.2,0,0.3-0.1,0.3-0.3c0-0.5,0.3-0.9,0.7-1.2c0.4-0.3,0.9-0.3,1.4-0.1c0,0,0.1,0,0.1,0
			c0.1,0,0.2,0,0.2,0.1c0,0,0,0,0.1,0c0.1,0,0.3-0.1,0.3-0.2c0-0.2-0.1-0.3-0.2-0.4c-0.3-0.1-0.7-0.3-0.8-0.6
			c-0.2-0.3-0.2-0.7-0.1-1c0.1-0.2,0-0.3-0.2-0.4c-0.2-0.1-0.3,0-0.4,0.2C82,81.8,82.1,82.3,82.3,82.8z"/>
		<path class="st18" d="M79.5,80.4c0.3-0.2,0.7-0.3,1.1-0.2c0.4,0.1,0.7,0.3,1,0.6c0.1,0.1,0.2,0.1,0.2,0.1c0.1,0,0.1,0,0.2-0.1
			c0.1-0.1,0.2-0.3,0.1-0.4c-0.2-0.3-0.5-0.6-0.9-0.7c0,0,0,0,0,0c-0.5-0.2-0.9-0.8-1-1.3c0-0.2-0.2-0.3-0.3-0.3
			c-0.2,0-0.3,0.2-0.3,0.3c0,0.4,0.2,0.8,0.4,1.1c-0.3,0-0.6,0.2-0.9,0.3C79,80,79,80.2,79.1,80.4C79.2,80.5,79.4,80.5,79.5,80.4z"
			/>
		<path class="st18" d="M81.9,86.7c-0.8-0.3-1.7-0.2-2.3,0.3c-0.5,0.4-0.8,1.2-0.8,1.9c-0.4,0-0.7,0.1-1,0.3
			c-0.1,0.1-0.2,0.2-0.3,0.3c-0.3-0.3-0.6-0.5-0.9-0.6c-0.2-0.1-0.3,0-0.4,0.2c-0.1,0.2,0,0.3,0.2,0.4c0.6,0.2,1.1,0.9,1,1.3
			c-0.1,0.5-0.7,0.9-1.2,0.9c-0.2,0-0.3,0.1-0.3,0.3c0,0.2,0.1,0.3,0.3,0.3c0,0,0,0,0.1,0c0.8,0,1.6-0.6,1.7-1.4c0-0.2,0-0.4,0-0.5
			c0,0,0-0.1,0-0.1c-0.1-0.2,0-0.4,0.2-0.6c0.2-0.1,0.4-0.2,0.7-0.1c0.2,0.1,0.5,0.2,0.7,0.4c0.1,0.1,0.3,0.1,0.4,0
			c0.1-0.1,0.1-0.3,0-0.4c-0.2-0.2-0.4-0.3-0.6-0.4c-0.1-0.6,0.1-1.2,0.6-1.6c0.5-0.4,1.2-0.5,1.7-0.2c0.2,0.1,0.3,0,0.4-0.2
			C82.1,87,82.1,86.8,81.9,86.7z"/>
	</g>
</g>
</svg>
